<svg width="48" height="48" viewBox="0 0 48 48" fill="none" xmlns="http://www.w3.org/2000/svg">
<path d="M5.625 22.5018H30.9375V25.3143H5.625V22.5018Z" fill="#5D5FBC"/>
<path d="M14.0625 28.1268H30.9375V30.9393H14.0625V28.1268Z" fill="#5D5FBC"/>
<path d="M5.625 33.7518H30.9375V36.5643H5.625V33.7518Z" fill="#5D5FBC"/>
<path d="M0 42.1897H5.625V47.9986L13.1365 42.1897H36.5625V0.00219727H0V42.1897ZM2.8125 2.8147H33.75V39.3772H12.176L8.4375 42.2683V39.3772H2.8125V2.8147Z" fill="#5D5FBC"/>
<path d="M12.6562 6.16394V19.1522L25.6445 12.658L12.6562 6.16394ZM15.4687 10.7147L19.3555 12.658L15.4687 14.6014V10.7147Z" fill="#5D5FBC"/>
<path d="M43.7812 2.81433C41.455 2.81433 39.5625 4.70686 39.5625 7.03308V22.5018H39.5772C39.7921 33.0683 42.3616 39.6142 42.4757 39.8991L43.7812 43.1633L45.0869 39.8991C45.2009 39.6142 47.7705 33.0683 47.9854 22.5018H48C48 18.8286 48 10.0873 48 7.03308C48 4.70686 46.1075 2.81433 43.7812 2.81433ZM43.7812 34.2741C43.1463 31.449 42.4972 27.4241 42.3906 22.5018H45.1718C45.0653 27.4241 44.4161 31.4491 43.7812 34.2741ZM42.375 19.6893V7.03308C42.375 6.25767 43.0058 5.62683 43.7812 5.62683C44.5567 5.62683 45.1875 6.25767 45.1875 7.03308V19.6893H42.375Z" fill="#5D5FBC"/>
<path d="M5.625 28.1268H11.25V30.9393H5.625V28.1268Z" fill="#5D5FBC"/>
</svg>
