<svg width="46" height="46" viewBox="0 0 46 46" fill="none" xmlns="http://www.w3.org/2000/svg">
<path d="M43.7 10.6667H35.2667V8.36667C35.2633 5.40417 32.8625 3.00335 29.9 3H16.1C13.1375 3.00335 10.7367 5.40417 10.7333 8.36667V10.6667H2.3C1.02973 10.6667 0 11.6964 0 12.9667V28.3C0.004025 29.2712 0.617646 30.1352 1.53333 30.4589V40.5667C1.53333 41.8369 2.56306 42.8667 3.83333 42.8667H42.1667C43.4369 42.8667 44.4667 41.8369 44.4667 40.5667V30.4589C45.3824 30.1352 45.996 29.2712 46 28.3V12.9667C46 11.6964 44.9703 10.6667 43.7 10.6667ZM12.2667 8.36667C12.2692 6.25067 13.984 4.53583 16.1 4.53333H29.9C32.016 4.53583 33.7308 6.25067 33.7333 8.36667V10.6667H32.1693L32.2 8.36667C32.1975 7.09745 31.1692 6.06916 29.9 6.06667H16.0716C14.8024 6.06916 13.7741 7.09745 13.7716 8.36667V8.37433L13.7923 10.6667H12.2667V8.36667ZM30.6667 8.35593L30.636 10.6667H15.3257L15.3019 8.36667C15.3019 7.94328 15.6452 7.6 16.0686 7.6H29.9C30.3193 7.6 30.6608 7.93666 30.6667 8.35593ZM42.9333 40.5667C42.9333 40.9901 42.5901 41.3333 42.1667 41.3333H3.83333C3.40994 41.3333 3.06667 40.9901 3.06667 40.5667V30.6H8.43333V32.9C8.43333 33.3234 8.77661 33.6667 9.2 33.6667H12.2667C12.6901 33.6667 13.0333 33.3234 13.0333 32.9V30.6H32.9667V32.9C32.9667 33.3234 33.3099 33.6667 33.7333 33.6667H36.8C37.2234 33.6667 37.5667 33.3234 37.5667 32.9V30.6H42.9333V40.5667ZM9.96667 32.1333V28.3C9.96628 28.0933 10.0515 27.8957 10.202 27.7541C10.3415 27.6109 10.5334 27.531 10.7333 27.5333C11.1567 27.5333 11.5 27.8766 11.5 28.3V29.8333V32.1333H9.96667ZM34.5 32.1333V28.3C34.5 27.8766 34.8433 27.5333 35.2667 27.5333C35.4735 27.5327 35.6714 27.6176 35.8133 27.7679C35.9555 27.9083 36.0349 28.1002 36.0333 28.3V29.8333V32.1333H34.5ZM44.4667 28.3C44.4667 28.7234 44.1234 29.0667 43.7 29.0667H37.5667V28.3C37.5612 27.032 36.5346 26.0055 35.2667 26C33.9964 26 32.9667 27.0297 32.9667 28.3V29.0667H13.0333V28.3C13.0333 27.0297 12.0036 26 10.7333 26C9.46603 26.0071 8.44042 27.0327 8.43333 28.3V29.0667H2.3C1.87661 29.0667 1.53333 28.7234 1.53333 28.3V12.9667C1.53333 12.5433 1.87661 12.2 2.3 12.2H43.7C44.1234 12.2 44.4667 12.5433 44.4667 12.9667V28.3Z" fill="#000285"/>
</svg>
