<svg width="50" height="50" viewBox="0 0 50 50" fill="none" xmlns="http://www.w3.org/2000/svg">
<path d="M48.5348 6.61914H8.81963C8.01046 6.61914 7.35445 7.27515 7.35445 8.08432V18.3866H1.46519C0.656019 18.3866 7.62939e-06 19.0426 7.62939e-06 19.8518V41.9157C7.62939e-06 42.7249 0.656019 43.3809 1.46519 43.3809H41.1803C41.9894 43.3809 42.6455 42.7249 42.6455 41.9157V30.8783H48.5348C49.344 30.8783 50 30.2223 50 29.4131V8.08432C50 7.27515 49.3441 6.61914 48.5348 6.61914ZM11.7621 32.3375C10.9542 32.3375 10.2969 31.6802 10.2969 30.8723C10.2969 30.0644 10.9542 29.4071 11.7621 29.4071C12.57 29.4071 13.2273 30.0644 13.2273 30.8723C13.2273 31.6802 12.57 32.3375 11.7621 32.3375ZM8.81465 38.2384C8.81465 35.6293 11.9951 34.3032 13.8465 36.1546C14.4031 36.7113 14.7096 37.4513 14.7096 38.2384V40.4505H8.81465V38.2384ZM39.7151 40.4505H17.6399V38.2384C17.6399 36.3576 16.7592 34.6324 15.268 33.5198C17.4382 30.653 15.3999 26.4768 11.762 26.4768C8.12621 26.4768 6.08199 30.6527 8.25818 33.5226C6.81858 34.5948 5.88428 36.3094 5.88428 38.2384V40.4505H2.93038V21.317H39.7151V40.4505ZM47.0696 27.9479H42.6455V19.8518C42.6455 19.0426 41.9894 18.3866 41.1803 18.3866H10.2848V9.54951H47.0697V27.9479H47.0696Z" fill="#5D5FBC"/>
<path d="M16.91 15.4333H40.4448C41.254 15.4333 41.91 14.7773 41.91 13.9681C41.91 13.1589 41.254 12.5029 40.4448 12.5029H16.91C16.1008 12.5029 15.4448 13.1589 15.4448 13.9681C15.4448 14.7773 16.1007 15.4333 16.91 15.4333Z" fill="#5D5FBC"/>
<path d="M22.7937 29.4072H35.2966C36.1057 29.4072 36.7617 28.7512 36.7617 27.942C36.7617 27.1328 36.1057 26.4768 35.2966 26.4768H22.7937C21.9845 26.4768 21.3285 27.1328 21.3285 27.942C21.3285 28.7512 21.9845 29.4072 22.7937 29.4072Z" fill="#5D5FBC"/>
<path d="M22.7937 35.2908H35.2966C36.1057 35.2908 36.7617 34.6348 36.7617 33.8257C36.7617 33.0165 36.1057 32.3605 35.2966 32.3605H22.7937C21.9845 32.3605 21.3285 33.0165 21.3285 33.8257C21.3285 34.6348 21.9845 35.2908 22.7937 35.2908Z" fill="#5D5FBC"/>
</svg>
