<svg width="41" height="41" viewBox="0 0 41 41" fill="none" xmlns="http://www.w3.org/2000/svg">
<g clip-path="url(#clip0)">
<path d="M7.3919 5.46374C7.3919 4.35297 6.48852 3.44958 5.37775 3.44958C4.26698 3.44958 3.36328 4.35297 3.36328 5.46374C3.36328 6.57451 4.26698 7.4782 5.37743 7.4782C6.4882 7.4782 7.3919 6.57451 7.3919 5.46374ZM5.37775 6.27703C4.92918 6.27703 4.56445 5.91199 4.56445 5.46374C4.56445 5.01549 4.92918 4.65076 5.37743 4.65076C5.826 4.65076 6.19073 5.01549 6.19073 5.46374C6.19073 5.91199 5.826 6.27703 5.37775 6.27703Z" fill="#000285"/>
<path d="M10.163 7.4782C11.2738 7.4782 12.1775 6.57451 12.1775 5.46374C12.1775 4.35297 11.2738 3.44958 10.163 3.44958C9.05256 3.44958 8.14886 4.35297 8.14886 5.46374C8.14886 6.57451 9.05225 7.4782 10.163 7.4782ZM10.163 4.65076C10.6116 4.65076 10.9763 5.01549 10.9763 5.46374C10.9763 5.91199 10.6116 6.27703 10.163 6.27703C9.71477 6.27703 9.35004 5.91199 9.35004 5.46374C9.35004 5.01549 9.71477 4.65076 10.163 4.65076Z" fill="#000285"/>
<path d="M14.9486 7.4782C16.0591 7.4782 16.9628 6.57451 16.9628 5.46374C16.9628 4.35297 16.0591 3.44958 14.9486 3.44958C13.8379 3.44958 12.9342 4.35297 12.9342 5.46374C12.9342 6.57451 13.8379 7.4782 14.9486 7.4782ZM14.9486 4.65076C15.3969 4.65076 15.7616 5.01549 15.7616 5.46374C15.7616 5.91199 15.3969 6.27703 14.9486 6.27703C14.5001 6.27703 14.1353 5.91199 14.1353 5.46374C14.1353 5.01549 14.5001 4.65076 14.9486 4.65076Z" fill="#000285"/>
<path d="M21.5945 6.06433H36.2219C36.5538 6.06433 36.8225 5.79563 36.8225 5.46375C36.8225 5.13217 36.5538 4.86316 36.2219 4.86316H21.5945C21.2626 4.86316 20.9939 5.13217 20.9939 5.46375C20.9939 5.79563 21.2626 6.06433 21.5945 6.06433Z" fill="#000285"/>
<path d="M38.4922 1.28125H2.50776C1.12078 1.28125 0 2.41048 0 3.78901V37.2016C0 38.5845 1.12516 39.7094 2.50776 39.7094H38.4922C39.8752 39.7094 41 38.5842 41 37.2016V3.78901C41 2.4061 39.8748 1.28125 38.4922 1.28125V1.28125ZM38.4922 38.5082H2.50776C1.78737 38.5082 1.20117 37.922 1.20117 37.2016V9.6466H4.54913C4.88101 9.6466 5.14971 9.37759 5.14971 9.04601C5.14971 8.71413 4.88101 8.44543 4.54913 8.44543H1.20117V3.78901C1.20117 3.06862 1.78737 2.48242 2.50776 2.48242H38.4922C39.2126 2.48242 39.7988 3.06862 39.7988 3.78901V8.44543H6.79131C6.45974 8.44543 6.19073 8.71413 6.19073 9.04601C6.19073 9.37759 6.45974 9.6466 6.79131 9.6466H39.7988V37.2016C39.7988 37.922 39.2126 38.5082 38.4922 38.5082Z" fill="#000285"/>
<path d="M14.4663 13.0572C13.7149 12.1773 12.3552 12.1785 11.6051 13.0572L6.10784 19.4947C5.60672 20.0818 5.51382 20.9033 5.87135 21.5877L7.80543 25.2894C7.17919 25.6066 6.74909 26.2566 6.74909 27.0052V27.4659C6.74909 28.5257 7.61149 29.3878 8.67096 29.3878H8.68535V33.2966C8.68535 34.8 9.9081 36.023 11.4114 36.023H14.6596C16.163 36.023 17.386 34.8 17.386 33.2966V32.8484C17.386 32.5168 17.117 32.2478 16.7854 32.2478C16.4536 32.2478 16.1849 32.5168 16.1849 32.8484V33.2966C16.1849 34.1377 15.5007 34.8218 14.6596 34.8218H11.4114C10.5706 34.8218 9.88652 34.1377 9.88652 33.2966V29.3878H16.1849V30.7898C16.1849 31.1217 16.4539 31.3904 16.7854 31.3904C17.117 31.3904 17.386 31.1217 17.386 30.7898V29.3878H17.4001C18.4599 29.3878 19.322 28.5257 19.322 27.4659V27.0052C19.322 26.2566 18.8919 25.6066 18.2656 25.2894L20.2 21.5874C20.5576 20.9033 20.4647 20.0818 19.9632 19.4947L14.4663 13.0572ZM12.9254 19.256C12.9611 19.2629 12.998 19.2664 13.0355 19.2664C13.0734 19.2664 13.1103 19.2629 13.146 19.256C13.6558 19.3114 14.054 19.7443 14.054 20.2686C14.054 20.8301 13.597 21.2868 13.0355 21.2868C12.4744 21.2868 12.0174 20.8301 12.0174 20.2686C12.0174 19.7443 12.4156 19.3114 12.9254 19.256ZM18.1211 27.4656C18.1211 27.8632 17.7977 28.1866 17.4001 28.1866H8.67127C8.2737 28.1866 7.95026 27.8632 7.95026 27.4656V27.0052C7.95026 26.6076 8.2737 26.2845 8.67127 26.2845H17.4001C17.7977 26.2845 18.1211 26.6076 18.1211 27.0052V27.4656ZM19.1355 21.0312L17.0182 25.0833H9.05321L6.93583 21.0312C6.80664 20.7841 6.84042 20.4869 7.02154 20.2748L12.4349 13.9349V18.1315C11.5022 18.3939 10.8162 19.2526 10.8162 20.2686C10.8162 21.4923 11.8118 22.4879 13.0355 22.4879C14.2595 22.4879 15.2552 21.4923 15.2552 20.2686C15.2552 19.2526 14.5692 18.3939 13.6361 18.1315V13.9349L19.0498 20.2748C19.231 20.4869 19.2647 20.7841 19.1355 21.0312Z" fill="#000285"/>
<path d="M29.9705 13.0397C29.4406 12.5504 28.6104 12.5507 28.0808 13.0397C26.0745 14.8918 22.7084 18.3971 22.7084 21.0634C22.7084 22.5643 23.2505 24.0088 24.2024 25.1386C23.3634 25.3448 22.7391 26.1033 22.7391 27.0052V27.4656C22.7391 28.5254 23.6012 29.3878 24.6612 29.3878H24.6753V33.2966C24.6753 34.7996 25.8981 36.0227 27.4014 36.0227H30.6496C32.1529 36.0227 33.376 34.7999 33.376 33.2966V32.8484C33.376 32.5165 33.1073 32.2478 32.7754 32.2478C32.4435 32.2478 32.1748 32.5165 32.1748 32.8484V33.2966C32.1748 34.1374 31.4907 34.8215 30.6496 34.8215H27.4014C26.5606 34.8215 25.8765 34.1374 25.8765 33.2966V29.3878H32.1748V30.7898C32.1748 31.1214 32.4435 31.3904 32.7754 31.3904C33.1073 31.3904 33.376 31.1214 33.376 30.7898V29.3878H33.3901C34.4499 29.3878 35.3123 28.5254 35.3123 27.4656V27.0052C35.3123 26.1033 34.6879 25.3448 33.849 25.1386C34.8008 24.0088 35.3426 22.5643 35.3426 21.0634C35.3426 18.3971 31.9768 14.8918 29.9705 13.0397ZM28.8957 13.9224C28.9698 13.8539 29.0815 13.8539 29.1556 13.9224C31.5658 16.1474 34.1414 19.1916 34.1414 21.0634C34.1414 22.6274 33.4148 24.1161 32.1883 25.083H25.863C24.6365 24.1161 23.9096 22.6274 23.9096 21.0634C23.9096 19.1916 26.4852 16.1474 28.8957 13.9224ZM34.1111 27.0052V27.4656C34.1111 27.8632 33.7877 28.1866 33.3901 28.1866H24.6612C24.2637 28.1866 23.9402 27.8632 23.9402 27.4656V27.0052C23.9402 26.6076 24.2637 26.2845 24.6612 26.2845H33.3901C33.7877 26.2845 34.1111 26.6076 34.1111 27.0052Z" fill="#000285"/>
</g>
<defs>
<clipPath id="clip0">
<rect width="41" height="41" fill="white"/>
</clipPath>
</defs>
</svg>
