<svg width="43" height="43" viewBox="0 0 43 43" fill="none" xmlns="http://www.w3.org/2000/svg">
<g clip-path="url(#clip0)">
<path d="M25.454 8.96768C24.6815 8.52341 23.9109 8.0756 23.1395 7.62922C23.5604 6.64081 23.9956 5.62191 24.3912 4.60134C24.5431 4.20938 24.491 3.76897 24.2521 3.4232C23.7669 2.72118 22.8352 2.68011 22.2077 3.27715C20.5562 4.84833 18.9252 6.38416 17.2816 7.94139C16.9646 8.24181 16.8082 8.6498 16.8526 9.06074C16.8966 9.46773 17.1331 9.82861 17.5014 10.0509C18.2863 10.5247 19.0771 10.971 19.8612 11.4191C19.4708 12.3396 18.9901 13.4555 18.6082 14.4428C18.3657 15.0694 18.6435 15.765 19.2543 16.0607C19.734 16.293 20.2869 16.248 20.7911 15.7682C22.397 14.2399 24.1062 12.6327 25.7185 11.103C26.0392 10.7987 26.195 10.388 26.1458 9.97617C26.0962 9.55952 25.8441 9.19201 25.454 8.96768ZM24.8514 10.1889C23.1271 11.8247 19.984 14.8515 19.8179 14.933C19.8056 14.9282 19.7754 14.9171 19.7829 14.8972C20.2188 13.7588 20.7599 12.528 21.2041 11.4757C21.3289 11.18 21.2795 10.7807 20.8874 10.5551C19.977 10.0312 19.0568 9.51837 18.1525 8.9723C18.0853 8.93174 18.0881 8.91267 18.1482 8.85573C19.229 7.83163 22.8013 4.36307 23.1708 4.11406C23.204 4.1212 23.2165 4.13917 23.2166 4.14631C22.7713 5.29437 22.2745 6.44026 21.7972 7.56775C21.6465 7.92384 21.7726 8.29438 22.1112 8.4899C23.0165 9.01245 23.9197 9.53911 24.826 10.0597C24.9183 10.1128 24.9216 10.1224 24.8514 10.1889ZM38.5908 32.6179C38.9388 32.6179 39.2207 32.3358 39.2207 31.988V18.1174L41.4945 19.2153C41.8209 19.3727 42.2001 19.3522 42.5084 19.1586C42.8162 18.9653 43 18.6328 43 18.2691V14.4991C43 14.0979 42.7664 13.7267 42.4064 13.5539L30.9004 7.99775C30.1682 3.46931 26.2319 0 21.5 0C16.249 0 11.9768 4.27203 11.9768 9.52316C11.9768 10.5719 12.1477 11.5813 12.4623 12.5256L1.25977 17.935V14.6313L10.2433 10.2931C10.5565 10.1419 10.6879 9.76528 10.5366 9.45202C10.3854 9.13884 10.009 9.00741 9.69541 9.15866L0.595113 13.5532C0.233561 13.7267 0 14.098 0 14.4991V18.2691C0 18.6328 0.183758 18.9654 0.491561 19.1586C0.800035 19.3524 1.17939 19.3726 1.50601 19.2151L3.7793 18.1174V39.2207H1.13379C0.508609 39.2207 0 39.7293 0 40.3545V41.8662C0 42.4914 0.508609 43 1.13379 43H41.8662C42.4914 43 43 42.4914 43 41.8662V40.3545C43 39.7293 42.4914 39.2207 41.8662 39.2207H39.2207V34.5075C39.2207 34.1596 38.9388 33.8776 38.5908 33.8776C38.2429 33.8776 37.9609 34.1596 37.9609 34.5075V39.2207H22.1299V34.575C24.4846 34.2654 26.3084 32.2469 26.3084 29.8092V25.6874C26.3084 25.0266 25.7709 24.489 25.1101 24.489H24.0195V22.3072C24.0195 21.9593 23.7376 21.6773 23.3896 21.6773C23.0417 21.6773 22.7598 21.9593 22.7598 22.3072V24.489H20.2402V22.3072C20.2402 21.9593 19.9583 21.6773 19.6104 21.6773C19.2624 21.6773 18.9805 21.9593 18.9805 22.3072V24.489H17.8899C17.2291 24.489 16.6916 25.0266 16.6916 25.6874V29.8092C16.6916 32.2469 18.5154 34.2654 20.8701 34.575V39.2207H5.03906V17.5091L12.9401 13.6938C14.4892 16.8602 17.744 19.0461 21.5 19.0461C25.256 19.0461 28.5108 16.8601 30.0599 13.6938L37.9609 17.5091V31.988C37.9609 32.3358 38.2429 32.6179 38.5908 32.6179ZM17.9513 29.8092V25.7488H25.0487V29.8092C25.0487 31.7659 23.4568 33.3578 21.5 33.3578C19.5432 33.3578 17.9513 31.7658 17.9513 29.8092ZM41.7402 40.4805V41.7402H1.25977V40.4805H41.7402ZM21.5 17.7865C16.9436 17.7865 13.2366 14.0796 13.2366 9.52316C13.2366 4.96667 16.9436 1.25977 21.5 1.25977C26.0564 1.25977 29.7634 4.96667 29.7634 9.52316C29.7634 14.0796 26.0564 17.7865 21.5 17.7865ZM30.5377 12.5256C30.8522 11.5812 31.0232 10.5718 31.0232 9.52316C31.0232 9.50056 31.0225 9.47814 31.0223 9.45563L41.7402 14.6313V17.935L30.5377 12.5256Z" fill="#000285"/>
</g>
<defs>
<clipPath id="clip0">
<rect width="43" height="43" fill="white"/>
</clipPath>
</defs>
</svg>
