<svg width="47" height="47" viewBox="0 0 47 47" fill="none" xmlns="http://www.w3.org/2000/svg">
<g clip-path="url(#clip0)">
<path d="M46.0822 8.26489H0.927355C0.420544 8.26489 0.00956982 8.67587 0.00956982 9.18268V30.7436C-0.00318994 30.8314 -0.00318994 30.9205 0.00956982 31.0081V37.8174C0.00956982 38.3242 0.420544 38.7352 0.927355 38.7352H9.2402C9.74701 38.7352 10.158 38.3242 10.158 37.8174C10.158 37.3106 9.74701 36.8996 9.2402 36.8996H3.14315L12.848 27.1947C13.3835 27.6674 14.0691 27.9786 14.836 28.0501C14.8389 28.0503 14.8418 28.0506 14.8449 28.0509C14.9502 28.0604 15.0547 28.0651 15.1587 28.0651C16.7661 28.065 18.1957 26.9445 18.5564 25.3515C18.7549 24.4754 18.6091 23.6023 18.2021 22.8763C18.96 22.5281 19.5925 21.9059 19.9474 21.0775C19.9488 21.0744 19.9501 21.0713 19.9513 21.0681C20.63 19.4715 20.019 17.6006 18.5273 16.7129C18.0052 16.4022 17.4357 16.2421 16.8695 16.221L22.9836 10.1071C22.9857 10.105 22.9874 10.1026 22.9895 10.1005H27.3464L23.9707 13.4761C23.6123 13.8345 23.6123 14.4156 23.9707 14.7741C24.1499 14.9533 24.3848 15.0429 24.6197 15.0429C24.8546 15.0429 25.0894 14.9532 25.2687 14.7741L29.9359 10.1069C29.938 10.1048 29.9398 10.1025 29.9418 10.1004H45.1645V36.8996H16.4379C15.9311 36.8996 15.5201 37.3106 15.5201 37.8174C15.5201 38.3242 15.9311 38.7352 16.4379 38.7352H46.0822C46.5891 38.7352 47 38.3242 47 37.8174V9.18268C47 8.67587 46.5891 8.26489 46.0822 8.26489ZM1.84514 35.6016V31.2454L6.92949 26.1611C7.42703 27.1336 8.36143 27.8225 9.43573 28.011L1.84514 35.6016ZM6.93509 20.3529C6.61151 19.5992 6.89691 18.7144 7.59906 18.2918C7.60117 18.2905 7.60328 18.2893 7.60539 18.288C8.33399 17.8534 9.25544 18.0371 9.76345 18.7117C9.76932 18.7199 9.77474 18.7285 9.7807 18.7367L11.1116 20.5691L8.95765 21.2671C8.94774 21.2703 8.9381 21.2741 8.92819 21.2774C8.12203 21.523 7.26905 21.1307 6.93509 20.3529ZM11.6772 24.6114C11.6619 25.4541 11.0248 26.1435 10.1819 26.2208C9.36303 26.2947 8.60782 25.7479 8.42542 24.9459C8.42496 24.9438 8.42441 24.9416 8.42395 24.9396C8.23934 24.1153 8.69769 23.2993 9.49329 23.0245C9.50366 23.0212 9.51403 23.0185 9.52441 23.0151L11.6782 22.3157L11.6765 24.5798C11.6765 24.5904 11.6771 24.6009 11.6772 24.6114ZM12.5977 19.4903L11.2683 17.6576C11.262 17.649 11.2552 17.6408 11.249 17.6323C10.7661 16.9415 10.8763 16.0094 11.5127 15.4515C11.8221 15.1802 12.2102 15.0446 12.5985 15.0446C12.9862 15.0446 13.3739 15.18 13.6833 15.4505C13.6846 15.4518 13.6859 15.4529 13.6874 15.4541C14.322 16.0127 14.431 16.9432 13.948 17.6333C13.9418 17.6418 13.9351 17.6498 13.9289 17.6584L12.5977 19.4903ZM16.7663 24.9461C16.5849 25.7465 15.8338 26.2942 15.0166 26.2234C15.0145 26.2231 15.0124 26.2229 15.0103 26.2227C14.1659 26.1461 13.5283 25.4562 13.5135 24.612C13.5136 24.6017 13.5143 24.5915 13.5143 24.5811L13.5146 22.3164L15.6673 23.0176C15.6779 23.0211 15.6886 23.0239 15.6992 23.0273C16.4949 23.3031 16.953 24.1213 16.7663 24.9461ZM17.5886 18.2904C18.2953 18.711 18.5842 19.5983 18.2603 20.3543C18.2592 20.3566 18.2583 20.3589 18.2574 20.3612C17.9216 21.1365 17.0708 21.5266 16.2656 21.2807C16.2558 21.2774 16.2463 21.2736 16.2364 21.2704L14.0828 20.5704L15.4149 18.7397C15.4213 18.7309 15.427 18.7218 15.4334 18.713C15.9413 18.0409 16.8615 17.8574 17.5886 18.2904ZM15.5912 14.9035C15.4077 14.5989 15.175 14.3165 14.8926 14.0695C14.8907 14.0677 14.8886 14.0661 14.8867 14.0643C13.578 12.924 11.6086 12.9264 10.3028 14.0711C9.62722 14.6634 9.23194 15.4553 9.13455 16.2819C8.31957 16.1186 7.44558 16.2487 6.67366 16.7064C6.67072 16.7081 6.66778 16.7098 6.66475 16.7117C5.17122 17.6024 4.56242 19.4791 5.24851 21.077C5.60303 21.9024 6.23404 22.5232 6.9899 22.8712C6.81429 23.1836 6.68733 23.5234 6.61537 23.8791L1.84505 28.6494V10.1005H20.3941L15.5912 14.9035Z" fill="#000285"/>
<path d="M13.599 37.1686C13.4284 36.9978 13.1917 36.8997 12.9502 36.8997C12.7088 36.8997 12.4721 36.9978 12.3013 37.1686C12.1306 37.3394 12.0324 37.5761 12.0324 37.8175C12.0324 38.0589 12.1306 38.2957 12.3013 38.4663C12.4721 38.6371 12.7088 38.7353 12.9502 38.7353C13.1916 38.7353 13.4284 38.6371 13.599 38.4663C13.7698 38.2957 13.868 38.0589 13.868 37.8175C13.868 37.5761 13.7699 37.3392 13.599 37.1686Z" fill="#000285"/>
<path d="M22.7403 16.0046C22.5696 15.8339 22.3329 15.7357 22.0914 15.7357C21.8492 15.7357 21.6123 15.8339 21.4425 16.0046C21.2719 16.1753 21.1736 16.412 21.1736 16.6534C21.1736 16.8949 21.2719 17.1316 21.4425 17.3024C21.6132 17.4731 21.8492 17.5712 22.0914 17.5712C22.3327 17.5711 22.5696 17.473 22.7403 17.3024C22.911 17.1316 23.0092 16.8958 23.0092 16.6534C23.0092 16.412 22.9111 16.1752 22.7403 16.0046Z" fill="#000285"/>
<path d="M29.7942 20.7466H28.6857C28.1789 20.7466 27.7679 21.1576 27.7679 21.6644C27.7679 22.1712 28.1789 22.5822 28.6857 22.5822H28.8765V23.302C28.8765 23.31 28.87 23.3164 28.862 23.3164H27.0985C27.0905 23.3164 27.0841 23.31 27.0841 23.302V20.0267C27.0841 20.0188 27.0905 20.0123 27.0985 20.0123H29.1392C29.646 20.0123 30.057 19.6014 30.057 19.0945C30.057 18.5877 29.646 18.1768 29.1392 18.1768H27.0985C26.0785 18.1768 25.2485 19.0067 25.2485 20.0267V23.302C25.2485 24.322 26.0785 25.152 27.0985 25.152H28.862C29.8821 25.152 30.712 24.322 30.712 23.302V21.6644C30.712 21.1576 30.3011 20.7466 29.7942 20.7466Z" fill="#000285"/>
<path d="M37.6504 20.7429H36.629V20.0125H37.6504C38.1572 20.0125 38.5682 19.6015 38.5682 19.0947C38.5682 18.5879 38.1572 18.1769 37.6504 18.1769H35.7112C35.2044 18.1769 34.7934 18.5879 34.7934 19.0947V24.2343C34.7934 24.7411 35.2044 25.1521 35.7112 25.1521C36.218 25.1521 36.629 24.7411 36.629 24.2343V22.5785H37.6504C38.1572 22.5785 38.5682 22.1676 38.5682 21.6608C38.5682 21.1539 38.1572 20.7429 37.6504 20.7429Z" fill="#000285"/>
<path d="M32.7744 18.1769C32.2675 18.1769 31.8566 18.5879 31.8566 19.0947V24.2272C31.8566 24.734 32.2675 25.145 32.7744 25.145C33.2812 25.145 33.6921 24.734 33.6921 24.2272V19.0947C33.6921 18.5879 33.2812 18.1769 32.7744 18.1769Z" fill="#000285"/>
<path d="M42.4361 18.1769H39.816C39.3092 18.1769 38.8983 18.5879 38.8983 19.0947C38.8983 19.6015 39.3092 20.0125 39.816 20.0125H40.2083V24.2272C40.2083 24.734 40.6193 25.145 41.1261 25.145C41.6329 25.145 42.0439 24.734 42.0439 24.2272V20.0125H42.4361C42.9429 20.0125 43.3539 19.6015 43.3539 19.0947C43.3539 18.5879 42.9429 18.1769 42.4361 18.1769Z" fill="#000285"/>
<path d="M23.7245 31.76H21.9857C21.8113 31.76 21.6694 31.618 21.6694 31.4436V28.7724C21.6694 28.598 21.8114 28.4561 21.9857 28.4561H23.7245C24.2313 28.4561 24.6422 28.0451 24.6422 27.5383C24.6422 27.0315 24.2313 26.6205 23.7245 26.6205H21.9857C20.7993 26.6205 19.8338 27.586 19.8338 28.7724V31.4436C19.8338 32.6302 20.7993 33.5955 21.9857 33.5955H23.7245C24.2313 33.5955 24.6422 33.1846 24.6422 32.6778C24.6422 32.171 24.2313 31.76 23.7245 31.76Z" fill="#000285"/>
<path d="M40.1728 26.6205H38.3729C37.8661 26.6205 37.4551 27.0314 37.4551 27.5382V32.6779C37.4551 33.1847 37.8661 33.5956 38.3729 33.5956H40.1728C41.3594 33.5956 42.3247 32.6302 42.3247 31.4437V28.7725C42.3248 27.5859 41.3594 26.6205 40.1728 26.6205ZM40.4892 31.4436C40.4892 31.618 40.3472 31.7599 40.1729 31.7599H39.2908V28.4559H40.1729C40.3473 28.4559 40.4892 28.5979 40.4892 28.7723V31.4436Z" fill="#000285"/>
<path d="M30.912 32.3625L29.0326 27.2229C28.9004 26.8611 28.556 26.6204 28.1708 26.6204C27.7855 26.6204 27.4412 26.8611 27.3088 27.2229L25.4294 32.3625C25.2554 32.8387 25.5002 33.3657 25.9762 33.5396C26.4523 33.714 26.9793 33.4689 27.1533 32.9929L28.1707 30.2106L29.1881 32.9929C29.3241 33.365 29.6757 33.5957 30.0501 33.5957C30.1548 33.5957 30.2612 33.5776 30.3653 33.5396C30.8413 33.3657 31.0861 32.8386 30.912 32.3625Z" fill="#000285"/>
<path d="M36.6291 29.0276V28.6455C36.6291 27.5289 35.7207 26.6205 34.6041 26.6205H32.7743C32.2675 26.6205 31.8565 27.0315 31.8565 27.5383C31.8565 27.5382 31.8565 30.1349 31.8565 30.1352V32.6707C31.8565 33.1775 32.2675 33.5885 32.7743 33.5885C33.2811 33.5885 33.6921 33.1775 33.6921 32.6707V32.3505L34.6614 33.3198C34.8407 33.499 35.0755 33.5886 35.3104 33.5886C35.5452 33.5886 35.7801 33.4989 35.9594 33.3198C36.3178 32.9614 36.3178 32.3802 35.9594 32.0218L34.9584 31.0208C35.9066 30.8527 36.6291 30.0233 36.6291 29.0276ZM34.7935 29.0276C34.7935 29.132 34.7085 29.2169 34.6041 29.2169H33.6921V28.8364V28.4561H34.6041C34.7086 28.4561 34.7935 28.5411 34.7935 28.6455V29.0276Z" fill="#000285"/>
</g>
<defs>
<clipPath id="clip0">
<rect width="47" height="47" fill="white"/>
</clipPath>
</defs>
</svg>
