<svg width="45" height="50" viewBox="0 0 45 50" fill="none" xmlns="http://www.w3.org/2000/svg">
<path d="M20.887 35.6913H8.04237C7.64588 35.6913 7.3246 36.0191 7.3246 36.4237C7.3246 36.8283 7.64588 37.1561 8.04237 37.1561H20.887C21.2835 37.1561 21.6048 36.8283 21.6048 36.4237C21.6048 36.0191 21.2835 35.6913 20.887 35.6913Z" fill="#000285"/>
<path d="M20.887 39.7595H8.04237C7.64588 39.7595 7.3246 40.0874 7.3246 40.4919C7.3246 40.8965 7.64588 41.2244 8.04237 41.2244H20.887C21.2835 41.2244 21.6048 40.8965 21.6048 40.4919C21.6048 40.0874 21.2835 39.7595 20.887 39.7595Z" fill="#000285"/>
<path d="M20.887 43.8278H8.04237C7.64588 43.8278 7.3246 44.1556 7.3246 44.5602C7.3246 44.9648 7.64588 45.2926 8.04237 45.2926H20.887C21.2835 45.2926 21.6048 44.9648 21.6048 44.5602C21.6048 44.1556 21.2835 43.8278 20.887 43.8278Z" fill="#000285"/>
<path d="M40.3761 4.9708C40.3761 4.11104 39.6907 3.41162 38.8482 3.41162H33.2193C32.3767 3.41162 31.6913 4.11104 31.6913 4.9708V10.7145C31.6913 11.5742 32.3767 12.2736 33.2193 12.2736H38.8482C39.6907 12.2736 40.3761 11.5742 40.3761 10.7145V4.9708ZM38.9405 10.7146C38.9405 10.7666 38.8991 10.8089 38.8482 10.8089H33.2193C33.1684 10.8089 33.1269 10.7666 33.1269 10.7146V4.9708C33.1269 4.91885 33.1684 4.87646 33.2193 4.87646H38.8482C38.8991 4.87646 38.9405 4.91885 38.9405 4.9708V10.7146Z" fill="#000285"/>
<path d="M39.6583 16.0442H31.8218C31.4253 16.0442 31.104 16.372 31.104 16.7766C31.104 17.1812 31.4253 17.509 31.8218 17.509H39.6583C40.0548 17.509 40.3761 17.1812 40.3761 16.7766C40.3761 16.372 40.0547 16.0442 39.6583 16.0442Z" fill="#000285"/>
<path d="M39.6583 20.3447H31.8218C31.4253 20.3447 31.104 20.6726 31.104 21.0771C31.104 21.4817 31.4253 21.8096 31.8218 21.8096H39.6583C40.0548 21.8096 40.3761 21.4817 40.3761 21.0771C40.3761 20.6726 40.0547 20.3447 39.6583 20.3447Z" fill="#000285"/>
<path d="M39.6583 24.6453H31.8218C31.4253 24.6453 31.104 24.9731 31.104 25.3777C31.104 25.7823 31.4253 26.1101 31.8218 26.1101H39.6583C40.0548 26.1101 40.3761 25.7823 40.3761 25.3777C40.3761 24.9731 40.0547 24.6453 39.6583 24.6453Z" fill="#000285"/>
<path d="M39.6583 28.9457H31.8218C31.4253 28.9457 31.104 29.2735 31.104 29.6781C31.104 30.0827 31.4253 30.4105 31.8218 30.4105H39.6583C40.0548 30.4105 40.3761 30.0827 40.3761 29.6781C40.3761 29.2735 40.0547 28.9457 39.6583 28.9457Z" fill="#000285"/>
<path d="M6.90425 20.109H10.6402C11.0367 20.109 11.358 19.7812 11.358 19.3766C11.358 18.972 11.0367 18.6442 10.6402 18.6442H6.90425C6.04302 18.6442 5.34238 19.3591 5.34238 20.2379V30.8445C5.34238 31.7233 6.04302 32.4382 6.90425 32.4382H22.0252C22.8864 32.4382 23.587 31.7233 23.587 30.8445V20.2379C23.587 19.3591 22.8864 18.6442 22.0252 18.6442H13.5101C13.1136 18.6442 12.7923 18.972 12.7923 19.3766C12.7923 19.7812 13.1136 20.109 13.5101 20.109H22.0252C22.0948 20.109 22.1515 20.1669 22.1515 20.2379V30.8445C22.1515 30.9156 22.0947 30.9734 22.0252 30.9734H6.90425C6.83458 30.9734 6.77792 30.9155 6.77792 30.8445V20.2379C6.77783 20.1669 6.83458 20.109 6.90425 20.109Z" fill="#000285"/>
<path d="M43.8816 25.6896C44.2781 25.6896 44.5994 25.3617 44.5994 24.9571V1.19873C44.5994 0.537793 44.0724 0 43.4245 0H17.1891C16.7914 0 16.4713 0.332227 16.4713 0.732422V13.4117H1.57548C0.927668 13.4117 0.400726 13.9495 0.400726 14.6104V48.8012C0.400726 49.4622 0.927764 49.9999 1.57548 49.9999H4.66765C5.06415 49.9999 5.38542 49.6721 5.38542 49.2675C5.38542 48.8629 5.06415 48.5351 4.66765 48.5351H1.83618V14.8766H27.093V48.5352H7.5374C7.14091 48.5352 6.81963 48.863 6.81963 49.2676C6.81963 49.6722 7.14091 50 7.5374 50H27.3539C28.0017 50 28.5286 49.4622 28.5286 48.8013V36.5882H43.4245C44.0724 36.5882 44.5993 36.0504 44.5993 35.3895V27.8855C44.5993 27.481 44.278 27.1531 43.8815 27.1531C43.485 27.1531 43.1638 27.481 43.1638 27.8855V35.1233H28.5286V14.1441C28.5286 13.8994 28.4094 13.756 28.3642 13.6776L18.6921 1.46484H43.1638V24.9571C43.1638 25.3616 43.4851 25.6896 43.8816 25.6896ZM17.9069 13.4117V2.804L26.3078 13.4117H17.9069Z" fill="#000285"/>
</svg>
