<svg width="50" height="50" viewBox="0 0 50 50" fill="none" xmlns="http://www.w3.org/2000/svg">
<path d="M4.99998 29.1667H20.8333C21.7845 29.1328 22.5296 28.3364 22.5 27.3849V10.1893C22.5261 9.33394 21.9258 8.58687 21.0847 8.42828L5.25223 5.85416C4.78904 5.77994 4.31668 5.91392 3.9615 6.22037C3.5573 6.57046 3.32762 7.08052 3.33328 7.61519V27.3849C3.30369 28.3364 4.04871 29.1329 4.99998 29.1667ZM4.99998 7.61529C4.99998 7.5522 5.02117 7.51353 5.00486 7.50259L20.7918 10.064C20.8215 10.0988 20.8363 10.1437 20.8333 10.1893V23.6417L15.6225 17.7796C15.4701 17.6082 15.2536 17.5072 15.0243 17.5005C14.795 17.4939 14.573 17.582 14.4108 17.7443L11.9296 20.2251L9.79402 17.7845C9.63689 17.6053 9.41062 17.5018 9.17225 17.5001C8.93641 17.509 8.71277 17.6078 8.54725 17.776L4.99998 21.7173V7.61529ZM4.99998 24.2084L9.15769 19.5887L14.3725 25.549C14.676 25.8944 15.2017 25.929 15.5478 25.6262C15.8938 25.3235 15.9295 24.7978 15.6274 24.4511L13.0294 21.482L14.9641 19.5476L20.8333 26.1501V27.385C20.835 27.4257 20.824 27.4661 20.8015 27.5001L5.04148 27.5107C5.0116 27.4759 4.99666 27.4307 4.99998 27.385V24.2084Z" fill="#000285"/>
<path d="M45.7153 8.34202L28.2153 10.842C27.7825 10.9037 27.471 11.2895 27.5017 11.7256C27.5326 12.1617 27.8953 12.4999 28.3325 12.5001C28.3722 12.5001 28.412 12.4972 28.4513 12.4916L45.9513 9.99163C46.2466 9.95003 46.4969 9.75393 46.6082 9.47737C46.7193 9.20081 46.6743 8.88587 46.49 8.65159C46.3057 8.41721 46.0103 8.29924 45.7153 8.34202Z" fill="#000285"/>
<path d="M28.3325 17.5001C28.3586 17.5001 28.3855 17.499 28.4123 17.4965L45.9123 15.8298C46.3696 15.7851 46.7044 15.3788 46.6609 14.9214C46.6173 14.4641 46.2119 14.1282 45.7544 14.1705L28.2544 15.8372C27.8118 15.8795 27.4805 16.2618 27.5013 16.7059C27.5222 17.15 27.8879 17.4995 28.3325 17.5001Z" fill="#000285"/>
<path d="M45.8333 20.8335H28.3333C27.873 20.8335 27.5 21.2065 27.5 21.6668C27.5 22.1271 27.873 22.5001 28.3333 22.5001H45.8333C46.2935 22.5001 46.6666 22.1271 46.6666 21.6668C46.6666 21.2065 46.2935 20.8335 45.8333 20.8335Z" fill="#000285"/>
<path d="M45.8333 25.8335H28.3333C27.873 25.8335 27.5 26.2066 27.5 26.6668C27.5 27.1271 27.873 27.5001 28.3333 27.5001H45.8333C46.2935 27.5001 46.6666 27.127 46.6666 26.6668C46.6667 26.2065 46.2935 25.8335 45.8333 25.8335Z" fill="#000285"/>
<path d="M49.1349 0.613823C48.5924 0.139995 47.8708 -0.0748491 47.1574 0.0250532L25 3.11246L2.84255 0.0250532C2.12917 -0.0756304 1.4072 0.139311 0.86501 0.613823C0.31462 1.09341 -0.000907593 1.78804 -2.86863e-05 2.51812V47.4832C-0.000907593 48.2132 0.31462 48.9079 0.86501 49.3875C1.31814 49.7823 1.8989 50 2.49997 50.0002C2.61462 50.0003 2.72907 49.9923 2.84255 49.9762L25 46.8887L47.1574 49.9762C47.2709 49.9923 47.3854 50.0003 47.5 50.0002C48.101 49.9999 48.6817 49.7822 49.1349 49.3874C49.6853 48.9078 50.0009 48.2131 50 47.4831V2.51812C50.0008 1.78804 49.6853 1.09341 49.1349 0.613823ZM2.61306 48.3258C2.37702 48.3603 2.13786 48.2886 1.95954 48.1301C1.77155 47.968 1.66442 47.7314 1.66657 47.4832V35.8974L14.2935 35.2899C16.4933 35.1788 18.5649 36.3283 19.6345 38.2538L23.6717 45.3915L2.61306 48.3258ZM24.1667 42.8821L21.0848 37.4334C19.7002 34.9656 17.0405 33.4913 14.2139 33.6249L1.66677 34.2287V2.51812C1.66462 2.26988 1.77175 2.03326 1.95974 1.87115C2.10788 1.7399 2.2989 1.66734 2.49685 1.66724C2.53581 1.66734 2.57468 1.67007 2.61325 1.67535L24.1668 4.67867V42.8821H24.1667ZM48.3333 47.4831C48.3354 47.7313 48.2283 47.9679 48.0403 48.13C47.8624 48.2891 47.6229 48.3608 47.3868 48.3257L26.3281 45.3914L30.3653 38.2537C31.4363 36.3295 33.5069 35.1805 35.7063 35.2898L48.3333 35.8973V47.4831ZM48.3333 34.2286L35.7861 33.6249C32.9587 33.4878 30.2973 34.963 28.9152 37.4334L25.8334 42.8821V4.67876L47.3869 1.67544C47.6228 1.64224 47.8615 1.71373 48.0404 1.87115C48.2284 2.03326 48.3355 2.26988 48.3334 2.51812V34.2286H48.3333Z" fill="#000285"/>
<path d="M16.6667 16.6667C18.0473 16.6667 19.1667 15.5474 19.1667 14.1667C19.1667 12.7861 18.0474 11.6667 16.6667 11.6667C15.2859 11.6667 14.1667 12.786 14.1667 14.1667C14.1681 15.5468 15.2866 16.6653 16.6667 16.6667ZM16.6667 13.3334C17.1269 13.3334 17.5 13.7065 17.5 14.1667C17.5 14.627 17.1269 15 16.6667 15C16.2064 15 15.8334 14.6269 15.8334 14.1667C15.8337 13.7067 16.2066 13.3339 16.6667 13.3334Z" fill="#000285"/>
</svg>
