<svg width="52" height="52" viewBox="0 0 52 52" fill="none" xmlns="http://www.w3.org/2000/svg">
<g clip-path="url(#clip0)">
<path d="M36.0447 6.49134C34.3983 4.57167 31.9956 3.46687 29.4667 3.46667C28.988 3.46667 28.6 3.85469 28.6 4.33334C28.6 4.81199 28.988 5.20001 29.4667 5.20001C31.4903 5.20241 33.412 6.08882 34.7273 7.62667C34.892 7.81919 35.1327 7.93002 35.386 7.93001C35.5937 7.92762 35.7936 7.85073 35.9493 7.71334C36.124 7.56394 36.2322 7.35126 36.2501 7.12209C36.268 6.89291 36.1941 6.66602 36.0447 6.49134Z" fill="#000285"/>
<path d="M41.6 12.1333C41.588 6.27596 37.3933 1.26333 31.6298 0.219093C25.8663 -0.825148 20.1795 2.39714 18.1133 7.87798C15.3527 8.17796 12.9064 9.7916 11.544 12.2113C11.1644 12.1637 10.7825 12.1377 10.4 12.1333C4.65622 12.1333 -1.52588e-05 16.7895 -1.52588e-05 22.5333C-1.52588e-05 28.2771 4.65622 32.9333 10.4 32.9333H13.8667V47.6666C13.8667 50.0599 15.8068 52 18.2 52H33.8C36.1932 52 38.1333 50.0599 38.1333 47.6666V32.9333H41.6C47.3437 32.9333 52 28.2771 52 22.5333C52 16.7895 47.3437 12.1333 41.6 12.1333ZM33.8 50.2666H18.2C16.764 50.2666 15.6 49.1026 15.6 47.6666C16.3477 48.2338 17.2616 48.5384 18.2 48.5333H33.8C34.7384 48.5384 35.6523 48.2338 36.4 47.6666C36.4 49.1026 35.2359 50.2666 33.8 50.2666ZM33.8 46.8H18.2C16.764 46.8 15.6 45.6359 15.6 44.2V21.6666C15.6 20.2307 16.764 19.0666 18.2 19.0666H20.2627L21.2767 21.0946C21.7176 21.9779 22.6208 22.5352 23.608 22.5333H28.392C29.3792 22.5352 30.2824 21.9779 30.7233 21.0946L31.7373 19.0666H33.8C35.2359 19.0666 36.4 20.2307 36.4 21.6666V44.2C36.4 45.6359 35.2359 46.8 33.8 46.8ZM22.204 19.0666H29.796L29.172 20.3233C29.0237 20.6175 28.7215 20.8023 28.392 20.8H23.608C23.2785 20.8023 22.9762 20.6175 22.828 20.3233L22.204 19.0666ZM41.6 31.2H38.1333V21.6666C38.1333 19.2734 36.1932 17.3333 33.8 17.3333H18.2C15.8068 17.3333 13.8667 19.2734 13.8667 21.6666V31.2H10.4C5.61352 31.2 1.73332 27.3198 1.73332 22.5333C1.73332 17.7468 5.61352 13.8666 10.4 13.8666C12.11 13.8612 13.7824 14.3683 15.2013 15.3226C15.4614 15.496 15.7942 15.5175 16.0745 15.379C16.3547 15.2404 16.5397 14.9629 16.5598 14.651C16.5799 14.339 16.4321 14.04 16.172 13.8666C15.3033 13.2832 14.3505 12.836 13.3467 12.5406C14.5898 10.7281 16.6188 9.61228 18.8153 9.53331H19.006C20.5301 9.49922 22.0198 9.98865 23.2267 10.92C23.6096 11.2072 24.1528 11.1296 24.44 10.7466C24.7272 10.3637 24.6496 9.8205 24.2667 9.53331C23.0214 8.5955 21.5444 8.01428 19.994 7.85198C22.0147 3.3931 26.8714 0.947081 31.657 1.97808C36.4425 3.00908 39.8612 7.23793 39.8667 12.1333V12.2806C38.4226 12.5146 37.0454 13.0554 35.828 13.8666C35.4307 14.1347 35.3259 14.674 35.594 15.0713C35.862 15.4686 36.4014 15.5734 36.7987 15.3053C38.2195 14.3571 39.8918 13.856 41.6 13.8666C46.3865 13.8666 50.2667 17.7468 50.2667 22.5333C50.2667 27.3198 46.3865 31.2 41.6 31.2Z" fill="#000285"/>
<path d="M30.9487 27.118C30.7859 26.9539 30.5644 26.8616 30.3333 26.8616C30.1022 26.8616 29.8807 26.9539 29.718 27.118L27.118 29.718C26.7781 30.0578 26.7781 30.6088 27.118 30.9487C27.4578 31.2885 28.0088 31.2885 28.3487 30.9487L29.4667 29.822V39.8667C29.4667 40.3453 29.8547 40.7333 30.3333 40.7333C30.812 40.7333 31.2 40.3453 31.2 39.8667V29.822L32.318 30.9487C32.4807 31.1127 32.7022 31.205 32.9333 31.205C33.1644 31.205 33.3859 31.1127 33.5487 30.9487C33.7127 30.7859 33.805 30.5644 33.805 30.3333C33.805 30.1022 33.7127 29.8807 33.5487 29.718L30.9487 27.118Z" fill="#000285"/>
<path d="M23.6514 36.6513L22.5334 37.778V27.7333C22.5334 27.2547 22.1453 26.8666 21.6667 26.8666C21.188 26.8666 20.8 27.2547 20.8 27.7333V37.778L19.682 36.6513C19.3422 36.3115 18.7912 36.3115 18.4514 36.6513C18.1115 36.9911 18.1115 37.5421 18.4514 37.882L21.0514 40.482C21.2141 40.646 21.4356 40.7383 21.6667 40.7383C21.8978 40.7383 22.1193 40.646 22.282 40.482L24.882 37.882C25.2219 37.5421 25.2219 36.9911 24.882 36.6513C24.5422 36.3115 23.9912 36.3115 23.6514 36.6513Z" fill="#000285"/>
</g>
<defs>
<clipPath id="clip0">
<rect width="52" height="52" fill="white"/>
</clipPath>
</defs>
</svg>
