<svg width="48" height="47" viewBox="0 0 48 47" fill="none" xmlns="http://www.w3.org/2000/svg">
<path d="M23.9999 29.2184C20.7628 29.2184 18.1291 26.6423 18.1291 23.4758C18.1291 20.3092 20.7628 17.7331 23.9999 17.7331C27.2371 17.7331 29.8707 20.3092 29.8707 23.4758C29.8707 26.6423 27.2371 29.2184 23.9999 29.2184ZM23.9999 19.1114C21.5397 19.1114 19.5381 21.0693 19.5381 23.4758C19.5381 25.8822 21.5397 27.8402 23.9999 27.8402C26.4601 27.8402 28.4617 25.8822 28.4617 23.4758C28.4617 21.0693 26.4601 19.1114 23.9999 19.1114Z" fill="#000285"/>
<path d="M5.54198 3.04076L12.1717 7.58019L5.54198 12.1196V3.04076ZM6.95097 9.47251L9.71458 7.58019L6.95097 5.68788V9.47251Z" fill="#000285"/>
<path d="M45.8858 10.5664H43.585V11.3474C43.585 13.3485 41.9205 14.9767 39.8746 14.9767H39.3768L37.8882 10.8654L33.631 15.0297L34.6229 16L33.3158 18.6897L34.047 20.4166L36.9157 21.4144V25.5371L34.047 26.5349L33.3158 28.2617L34.6229 30.9515L33.631 31.9218L35.2945 33.549C36.6389 32.4523 38.367 31.7911 40.2504 31.7911C44.5234 31.7911 47.9998 35.1917 47.9998 39.3714C47.9998 43.5511 44.5234 46.9517 40.2504 46.9517C35.9773 46.9517 32.5009 43.5511 32.5009 39.3714C32.5009 37.5292 33.1768 35.8388 34.2981 34.5238L32.6345 32.8966L31.6426 33.8668L28.8928 32.5883L27.1274 33.3035L26.1073 36.1096H21.8925L20.8724 33.3035L19.1071 32.5883L16.3573 33.8668L15.3654 32.8966L11.7987 36.3852H13.8551C15.2795 36.3852 16.4383 37.5188 16.4383 38.912V44.4249C16.4383 45.8181 15.2795 46.9517 13.8551 46.9517H2.58316C1.15876 46.9517 0 45.8181 0 44.4249V38.912C0 37.5188 1.15876 36.3852 2.58316 36.3852H3.94519V33.1764L9.93428 36.2597L14.369 31.9219L13.377 30.9516L14.6842 28.2618L13.9529 26.535L11.0841 25.5371V21.4144L13.9528 20.4166L14.6841 18.6897L13.3769 16L14.3689 15.0297L12.7053 13.4025C11.3609 14.4992 9.63284 15.1605 7.74949 15.1605C3.47637 15.1605 0 11.7599 0 7.58019C0 3.40048 3.47637 -8.01086e-05 7.74949 -8.01086e-05C12.0226 -8.01086e-05 15.499 3.40048 15.499 7.58019C15.499 9.42243 14.8229 11.1129 13.7017 12.4279L15.3653 14.0551L16.3572 13.0848L19.107 14.3634L20.8723 13.6482L21.8924 10.8421H26.1072L27.1273 13.6482L28.8927 14.3634L31.6425 13.0848L32.6344 14.0551L36.2012 10.5664H34.7553V0.918743H37.4377L39.1285 -8.01086e-05H43.3066C44.9475 -8.01086e-05 46.3942 1.1376 46.7469 2.70511L47.9501 8.05476C48.0883 8.66955 47.9363 9.30362 47.5332 9.79427C47.1298 10.2849 46.5294 10.5664 45.8858 10.5664ZM40.2504 33.1693C38.7389 33.1693 37.3499 33.6901 36.2592 34.5569C36.2795 35.9933 37.0885 37.2782 38.3646 37.9446C38.8842 37.544 39.5389 37.3041 40.2504 37.3041C40.9618 37.3041 41.6165 37.544 42.1362 37.9446C43.4122 37.2783 44.2212 35.9933 44.2415 34.5569C43.1508 33.69 41.7618 33.1693 40.2504 33.1693ZM38.6065 40.2902V41.209C38.6065 42.0956 39.344 42.817 40.2504 42.817C41.1567 42.817 41.8942 42.0956 41.8942 41.209V40.2902C41.8942 39.4036 41.1567 38.6823 40.2504 38.6823C39.344 38.6823 38.6065 39.4035 38.6065 40.2902ZM33.9099 39.3714C33.9099 42.7912 36.7542 45.5734 40.2504 45.5734C43.7466 45.5734 46.5908 42.7912 46.5908 39.3714C46.5908 38.0683 46.177 36.8585 45.4724 35.8593C45.1152 37.1869 44.2414 38.3286 43.021 39.0385C43.2016 39.4194 43.3032 39.8433 43.3032 40.2902V41.209C43.3032 42.8556 41.9337 44.1952 40.2504 44.1952C38.567 44.1952 37.1975 42.8556 37.1975 41.209V40.2902C37.1975 39.8434 37.2991 39.4194 37.4797 39.0385C36.2593 38.3286 35.3856 37.1869 35.0283 35.8593C34.3237 36.8585 33.9099 38.0683 33.9099 39.3714ZM9.82982 37.7635L5.35419 35.4593V37.7635H2.58316C1.93568 37.7635 1.409 38.2786 1.409 38.912V44.4249C1.409 45.0582 1.93568 45.5734 2.58316 45.5734H13.8551C14.5026 45.5734 15.0293 45.0582 15.0293 44.4249V38.912C15.0293 38.2786 14.5026 37.7635 13.8551 37.7635H9.82982ZM14.09 7.58019C14.09 4.16034 11.2457 1.37815 7.74949 1.37815C4.25329 1.37815 1.409 4.16034 1.409 7.58019C1.409 11 4.25329 13.7822 7.74949 13.7822C11.2457 13.7822 14.09 11 14.09 7.58019ZM32.9235 16.2868L31.3494 14.7471L28.9321 15.8711L26.0098 14.6869L25.1129 12.2202H22.8869L21.9901 14.687L19.0677 15.8712L16.6504 14.7472L15.0764 16.2868L16.2254 18.6514L15.0149 21.5099L12.4931 22.3871V24.5644L15.0149 25.4417L16.2254 28.3001L15.0764 30.6647L16.6504 32.2044L19.0677 31.0804L21.9901 32.2646L22.8869 34.7313H25.1129L26.0098 32.2646L28.9321 31.0804L31.3494 32.2044L32.9235 30.6647L31.7744 28.3001L32.985 25.4417L35.5067 24.5644V22.3871L32.9849 21.5098L31.7743 18.6513L32.9235 16.2868ZM46.5737 8.3509L45.3706 3.00116C45.1591 2.06084 44.2911 1.37815 43.3065 1.37815H39.4935L37.8027 2.29697H36.1643V9.18813H38.7756L40.3547 13.5492C41.394 13.3326 42.176 12.4276 42.176 11.3474V9.18813H45.8858C46.1003 9.18813 46.3005 9.09432 46.4349 8.93077C46.5693 8.76722 46.62 8.55589 46.5737 8.3509Z" fill="#000285"/>
<path d="M3.52243 43.6439H12.9157V42.2657H3.52243V43.6439Z" fill="#000285"/>
<path d="M3.52243 40.8875H10.0978V39.5092H3.52243V40.8875Z" fill="#000285"/>
</svg>
