<svg width="50" height="50" viewBox="0 0 50 50" fill="none" xmlns="http://www.w3.org/2000/svg">
<path d="M41.9466 48.5352H40.9428C40.636 46.9215 39.3368 45.6554 37.7061 45.3994V1.46484H38.3238C38.7283 1.46484 39.0563 1.13701 39.0563 0.732422C39.0563 0.327832 38.7283 0 38.3238 0H11.6827C10.7235 0.0261719 10.707 1.43301 11.6827 1.46484H12.3004V15.433C12.3004 15.8376 12.6283 16.1654 13.0328 16.1654C13.4373 16.1654 13.7652 15.8376 13.7652 15.433V1.46484H36.2412V6.8123L13.7653 22.2758V19.2871C13.7653 18.8825 13.4374 18.5547 13.0329 18.5547C12.6284 18.5547 12.3005 18.8825 12.3005 19.2871V45.3994C10.6696 45.6554 9.37042 46.9216 9.06378 48.5352H8.05997C7.65547 48.5352 7.32755 48.863 7.32755 49.2676C7.32755 49.6722 7.65547 50 8.05997 50H29.1335C30.094 49.9733 30.1081 48.5667 29.1335 48.5352H10.5708C10.883 47.5402 11.8135 46.8165 12.91 46.8165H37.0967C38.1932 46.8165 39.1237 47.5402 39.4358 48.5352H33.5533C32.5875 48.5641 32.5834 49.9697 33.5533 50H41.9467C42.9122 49.9712 42.9168 48.5655 41.9466 48.5352ZM13.7653 40.0044L21.0958 34.9609H36.2412V45.3517H13.7653V40.0044ZM36.2412 33.4961H23.2249L36.2412 24.5408V33.4961ZM36.2412 8.59033V22.7628L20.4599 33.6205C20.459 33.6211 20.4581 33.6218 20.4571 33.6224L13.7653 38.2264V24.0538L36.2412 8.59033Z" fill="#000285"/>
<path d="M15.9411 33.7486C16.1971 33.8743 16.4489 33.8597 16.6967 33.7047L34.1381 21.7479C34.3373 21.6113 34.4564 21.3854 34.4564 21.1438V13.7159C34.3172 13.0532 33.9351 12.8519 33.3098 13.1118L15.8684 25.0687C15.6692 25.2052 15.5501 25.4312 15.5501 25.6728V33.1006C15.5502 33.3724 15.7007 33.6219 15.9411 33.7486ZM17.0151 26.0587L32.9916 15.1061V20.7579L17.0151 31.7105V26.0587Z" fill="#000285"/>
<path d="M17.1811 6.15234H30.0815C30.486 6.15234 30.8139 5.82451 30.8139 5.41992C30.8139 5.01533 30.486 4.6875 30.0815 4.6875H17.1811C16.2168 4.71572 16.2097 6.12168 17.1811 6.15234Z" fill="#000285"/>
<path d="M17.1811 9.47266H26.1752C27.1408 9.44395 27.1454 8.03818 26.1752 8.00781H17.1812C16.2156 8.03652 16.2109 9.44229 17.1811 9.47266Z" fill="#000285"/>
<path d="M17.1811 12.793H22.2689C23.2356 12.7638 23.2381 11.3582 22.2689 11.3281H17.1812C16.7767 11.3281 16.4487 11.656 16.4487 12.0605C16.4487 12.4651 16.7766 12.793 17.1811 12.793Z" fill="#000285"/>
<path d="M31.0514 37.5172C29.3683 37.5172 27.9989 38.8865 27.9989 40.5697C28.1523 44.6137 33.9511 44.6125 34.1039 40.5697C34.1039 38.8865 32.7346 37.5172 31.0514 37.5172ZM31.0514 42.1573C30.176 42.1573 29.4638 41.445 29.4638 40.5697C29.5436 38.4662 32.5596 38.4668 32.6391 40.5697C32.6391 41.445 31.9269 42.1573 31.0514 42.1573Z" fill="#000285"/>
<path d="M24.4125 38.6906C23.0528 38.6906 21.9467 39.7966 21.9467 41.1563C22.0706 44.4231 26.7549 44.4221 26.8783 41.1563C26.8783 39.7967 25.7721 38.6906 24.4125 38.6906ZM24.4125 42.1573C23.8606 42.1573 23.4115 41.7082 23.4115 41.1563C23.4618 39.8303 25.3634 39.8307 25.4135 41.1563C25.4135 41.7083 24.9644 42.1573 24.4125 42.1573Z" fill="#000285"/>
</svg>
