<svg width="47" height="47" viewBox="0 0 47 47" fill="none" xmlns="http://www.w3.org/2000/svg">
<g clip-path="url(#clip0)">
<path d="M20.5625 0H6.8542C3.07455 0 0 3.07455 0 6.8542V40.1459C0 43.9254 3.07455 47 6.8542 47H8.8125C9.353 47 9.7917 46.5613 9.7917 46.0208C9.7917 45.4803 9.353 45.0416 8.8125 45.0416H6.8542C4.15564 45.0416 1.95839 42.8444 1.95839 40.1458V6.8542C1.95839 4.15564 4.15564 1.95839 6.8542 1.95839H20.5625C23.2611 1.95839 25.4583 4.15564 25.4583 6.8542V16.6459C25.4583 17.1864 25.897 17.6251 26.4375 17.6251C26.978 17.6251 27.4167 17.1864 27.4167 16.6459V6.8542C27.4167 3.07455 24.3421 0 20.5625 0Z" fill="#000285"/>
<path d="M26.4375 7.83331H0.979197C0.438697 7.83331 0 8.27201 0 8.81251C0 9.35301 0.438697 9.79171 0.979197 9.79171H26.4375C26.978 9.79171 27.4167 9.35301 27.4167 8.81251C27.4167 8.27201 26.978 7.83331 26.4375 7.83331Z" fill="#000285"/>
<path d="M17.625 35.25H0.979197C0.438697 35.25 0 35.6887 0 36.2292C0 36.7697 0.438697 37.2084 0.979197 37.2084H17.625C18.1655 37.2084 18.6042 36.7697 18.6042 36.2292C18.6042 35.6887 18.1655 35.25 17.625 35.25Z" fill="#000285"/>
<path d="M16.6458 3.91669H10.7708C10.2303 3.91669 9.7916 4.35538 9.7916 4.89588C9.7916 5.43638 10.2303 5.87499 10.7708 5.87499H16.6458C17.1863 5.87499 17.625 5.43629 17.625 4.89579C17.625 4.35529 17.1863 3.91669 16.6458 3.91669Z" fill="#000285"/>
<path d="M20.6017 3.91669H20.5821C20.0416 3.91669 19.6127 4.35538 19.6127 4.89588C19.6127 5.43638 20.0612 5.87499 20.6017 5.87499C21.1422 5.87499 21.5809 5.43629 21.5809 4.89579C21.5809 4.35529 21.1422 3.91669 20.6017 3.91669Z" fill="#000285"/>
<path d="M44.1996 25.9185L36.8363 17.8267C35.3793 16.3697 33.0058 16.3678 31.5351 17.8385C31.069 18.3046 30.7518 18.8627 30.5873 19.4581C29.1225 18.3379 27.0094 18.4476 25.6601 19.7969C25.196 20.2629 24.8787 20.8211 24.7103 21.4144C23.2455 20.2942 21.1324 20.4039 19.7851 21.7552C19.3288 22.2115 19.0155 22.7579 18.8451 23.3356L15.3749 19.8654C13.9179 18.4084 11.5444 18.4064 10.0737 19.8771C8.61479 21.3341 8.61479 23.7076 10.0737 25.1665L23.406 38.4988L15.4983 39.7404C13.3617 40.0459 11.75 41.9024 11.75 44.0625C11.75 45.682 13.0679 47 14.6875 47H33.1526C36.0295 47 38.7339 45.8798 40.7686 43.8451L43.849 40.7647C45.8818 38.7339 47 36.0313 47 33.1585C47 30.4755 46.0052 27.9043 44.1996 25.9185ZM42.4645 39.3801L39.3841 42.4605C37.7195 44.1251 35.5066 45.0416 33.1526 45.0416H14.6875C14.147 45.0416 13.7083 44.6029 13.7083 44.0624C13.7083 42.8717 14.5974 41.8475 15.7881 41.6752L25.6091 40.132C25.9734 40.0752 26.273 39.8187 26.3886 39.4681C26.5021 39.1196 26.4102 38.7338 26.1496 38.4733L11.4563 23.78C10.7611 23.0849 10.7611 21.9549 11.468 21.2479C11.8166 20.9013 12.2729 20.727 12.7292 20.727C13.1855 20.727 13.6418 20.9013 13.9904 21.2499L23.788 31.0474C24.1699 31.4293 24.7907 31.4293 25.1726 31.0474C25.3625 30.8555 25.4585 30.6049 25.4585 30.3542C25.4585 30.1035 25.3626 29.8529 25.1726 29.6628L21.1717 25.662C20.4765 24.9668 20.4765 23.8368 21.1834 23.1299C21.8767 22.4366 23.0106 22.4366 23.7038 23.1299L27.7047 27.1307C28.0866 27.5126 28.7074 27.5126 29.0893 27.1307C29.2792 26.9388 29.3752 26.6882 29.3752 26.4375C29.3752 26.1868 29.2793 25.9362 29.0971 25.754L27.0546 23.7115C26.3594 23.0163 26.3594 21.8863 27.0663 21.1794C27.7596 20.4861 28.8935 20.4861 29.5867 21.1794L31.6293 23.2219C31.6312 23.2239 31.6312 23.2239 31.6312 23.2239L31.6331 23.2258C31.6351 23.2277 31.6351 23.2277 31.6351 23.2277C31.637 23.2296 31.637 23.2296 31.637 23.2296H31.6389C31.6408 23.2296 31.6408 23.2316 31.6408 23.2316C32.0246 23.5939 32.6298 23.588 33.0058 23.212C33.3876 22.8301 33.3876 22.2093 33.0058 21.8274L32.9216 21.7433C32.5848 21.4065 32.3987 20.9579 32.3987 20.4821C32.3987 20.0062 32.5828 19.5597 32.9314 19.2111C33.6266 18.5179 34.7566 18.5198 35.4205 19.1778L42.7525 27.2364C44.2271 28.8598 45.0418 30.9631 45.0418 33.1584C45.0417 35.5085 44.1271 37.7175 42.4645 39.3801Z" fill="#000285"/>
</g>
<defs>
<clipPath id="clip0">
<rect width="47" height="47" fill="white"/>
</clipPath>
</defs>
</svg>
