<svg width="44" height="44" viewBox="0 0 44 44" fill="none" xmlns="http://www.w3.org/2000/svg">
<path d="M42.4562 6.95312H1.54384C0.692603 6.95312 0 7.64573 0 8.49696V32.4063C0 33.2576 0.692603 33.9502 1.54384 33.9502H17.7785V35.5031H9.39164C8.96535 35.5031 8.61972 35.8487 8.61972 36.275C8.61972 36.7013 8.96535 37.0469 9.39164 37.0469H34.7688C35.1951 37.0469 35.5407 36.7013 35.5407 36.275C35.5407 35.8487 35.1951 35.5031 34.7688 35.5031H26.2777V33.9502H42.4562C43.3074 33.9502 44 33.2576 44 32.4063V8.49696C44 7.64563 43.3074 6.95312 42.4562 6.95312ZM24.7339 35.503H19.3225V33.9501H24.7339V35.503ZM35.8203 32.4063L19.1083 15.6944C18.8069 15.393 18.3182 15.393 18.0168 15.6944C17.7152 15.9959 17.7152 16.4846 18.0168 16.786L33.637 32.4062H1.54384V8.49696H9.72761L14.9291 13.6984C15.0798 13.8492 15.2773 13.9245 15.4749 13.9245C15.6725 13.9245 15.8701 13.8492 16.0208 13.6984C16.3223 13.397 16.3223 12.9083 16.0208 12.6068L11.911 8.49706H42.4563L42.4564 32.4064H35.8203V32.4063Z" fill="#000285"/>
<path d="M20.8179 31.6706H23.1819C23.6082 31.6706 23.9538 31.325 23.9538 30.8987C23.9538 30.4724 23.6082 30.1268 23.1819 30.1268H20.8179C20.3916 30.1268 20.046 30.4724 20.046 30.8987C20.046 31.325 20.3916 31.6706 20.8179 31.6706Z" fill="#000285"/>
</svg>
