<svg width="39" height="39" viewBox="0 0 39 39" fill="none" xmlns="http://www.w3.org/2000/svg">
<path d="M37.8574 6.93164H15.9961V4.64648H17.1387C17.7697 4.64648 18.2812 4.13491 18.2812 3.50391C18.2812 2.8729 17.7697 2.36133 17.1387 2.36133H12.5684C11.9374 2.36133 11.4258 2.8729 11.4258 3.50391C11.4258 4.13491 11.9374 4.64648 12.5684 4.64648H13.7109V6.93164H1.14258C0.51157 6.93164 0 7.44321 0 8.07422V21.7852C0 22.4162 0.51157 22.9277 1.14258 22.9277H13.7109V25.2129H12.5684C11.9374 25.2129 11.4258 25.7245 11.4258 26.3555C11.4258 26.9865 11.9374 27.498 12.5684 27.498H17.1387C17.7697 27.498 18.2812 26.9865 18.2812 26.3555C18.2812 25.7245 17.7697 25.2129 17.1387 25.2129H15.9961V22.9277H37.8574C38.4884 22.9277 39 22.4162 39 21.7852V8.07422C39 7.44321 38.4884 6.93164 37.8574 6.93164ZM2.28516 20.6426V9.2168H13.7109V20.6426H2.28516ZM36.7148 20.6426H15.9961V9.2168H36.7148V20.6426Z" fill="#000285"/>
<path d="M10.2832 11.502H5.71289C5.08188 11.502 4.57031 12.0135 4.57031 12.6445C4.57031 13.2755 5.08188 13.7871 5.71289 13.7871H6.85547V17.2148C6.85547 17.8459 7.36704 18.3574 7.99805 18.3574C8.62905 18.3574 9.14062 17.8459 9.14062 17.2148V13.7871H10.2832C10.9142 13.7871 11.4258 13.2755 11.4258 12.6445C11.4258 12.0135 10.9142 11.502 10.2832 11.502Z" fill="#000285"/>
<path d="M37.8574 29.7832H1.14258C0.51157 29.7832 0 30.2948 0 30.9258C0 31.5568 0.51157 32.0684 1.14258 32.0684H37.8574C38.4884 32.0684 39 31.5568 39 30.9258C39 30.2948 38.4884 29.7832 37.8574 29.7832Z" fill="#000285"/>
<path d="M37.8574 34.3535H1.14258C0.51157 34.3535 0 34.8651 0 35.4961C0 36.1271 0.51157 36.6387 1.14258 36.6387H37.8574C38.4884 36.6387 39 36.1271 39 35.4961C39 34.8651 38.4884 34.3535 37.8574 34.3535Z" fill="#000285"/>
</svg>
