<svg width="39" height="39" viewBox="0 0 39 39" fill="none" xmlns="http://www.w3.org/2000/svg">
<g clip-path="url(#clip0)">
<path d="M32.9062 7.61719C32.4858 7.61719 32.1445 7.95844 32.1445 8.37891C32.1445 8.79938 32.4858 9.14062 32.9062 9.14062C33.3267 9.14062 33.668 8.79938 33.668 8.37891C33.668 7.95844 33.3267 7.61719 32.9062 7.61719Z" fill="#000285"/>
<path d="M6.09375 7.61719C5.67328 7.61719 5.33203 7.95844 5.33203 8.37891C5.33203 8.79938 5.67328 9.14062 6.09375 9.14062C6.51422 9.14062 6.85547 8.79938 6.85547 8.37891C6.85547 7.95844 6.51422 7.61719 6.09375 7.61719Z" fill="#000285"/>
<path d="M38.2384 16.7579H37.3274C37.0426 14.5638 36.3546 12.4729 35.275 10.5342C35.0703 10.1668 34.6065 10.0346 34.2389 10.2393C33.8714 10.444 33.7393 10.9078 33.944 11.2754C34.8967 12.9864 35.5166 14.8271 35.7913 16.7579H35.1915C34.7708 16.7579 34.4298 17.0989 34.4298 17.5196V20.5664C34.4298 20.9871 34.7708 21.3282 35.1915 21.3282H38.2384C38.6591 21.3282 39.0001 20.9871 39.0001 20.5664V17.5196C39.0001 17.0989 38.6591 16.7579 38.2384 16.7579ZM37.4767 19.8047H35.9532V18.2813H36.6447C36.6449 18.2813 36.6452 18.2813 36.6455 18.2813C36.6458 18.2813 36.646 18.2813 36.6463 18.2813H37.4767V19.8047Z" fill="#000285"/>
<path d="M27.8775 22.2895C27.877 22.2777 27.8767 22.2659 27.8757 22.2541C27.8743 22.2379 27.8721 22.222 27.8698 22.2062C27.8683 22.1964 27.8672 22.1867 27.8653 22.1769C27.8618 22.1582 27.8572 22.14 27.8524 22.1218C27.8506 22.1148 27.8491 22.1079 27.8471 22.101C27.8403 22.0783 27.8324 22.0559 27.8235 22.0341C27.8225 22.0317 27.8219 22.0292 27.8209 22.0268C27.8104 22.0014 27.7985 21.9767 27.7854 21.9527L20.1684 8.01359C20.0349 7.76923 19.7786 7.61719 19.5 7.61719C19.2214 7.61719 18.9651 7.76923 18.8316 8.01366L11.2146 21.9528C11.2015 21.9767 11.1896 22.0015 11.1791 22.0269C11.1781 22.0293 11.1775 22.0317 11.1765 22.0342C11.1676 22.056 11.1597 22.0783 11.1529 22.1011C11.1509 22.108 11.1494 22.1149 11.1476 22.1218C11.1427 22.14 11.1382 22.1582 11.1347 22.177C11.1329 22.1867 11.1318 22.1964 11.1302 22.2062C11.1279 22.2221 11.1257 22.238 11.1243 22.2541C11.1233 22.266 11.1229 22.2778 11.1225 22.2896C11.1222 22.2992 11.1211 22.3086 11.1211 22.3184C11.1211 22.3234 11.1218 22.3282 11.1219 22.3332C11.1221 22.3452 11.1228 22.3571 11.1237 22.369C11.1247 22.3842 11.1259 22.3993 11.1278 22.4142C11.1292 22.4247 11.1308 22.4351 11.1326 22.4456C11.1353 22.4621 11.1386 22.4784 11.1424 22.4945C11.1446 22.5035 11.1469 22.5126 11.1494 22.5216C11.1542 22.539 11.1597 22.556 11.1657 22.5729C11.1673 22.5776 11.1684 22.5825 11.1702 22.5873L13.9173 29.867C13.6969 29.9762 13.4931 30.1213 13.314 30.3003C12.8823 30.7321 12.6445 31.3059 12.6445 31.916C12.6445 32.909 13.2814 33.7557 14.168 34.0702V38.2383C14.168 38.659 14.509 39 14.9297 39H24.0703C24.491 39 24.832 38.659 24.832 38.2383V34.0715C25.1496 33.9594 25.4408 33.777 25.6861 33.5317C26.1177 33.1 26.3555 32.5262 26.3555 31.916C26.3555 31.0192 25.8361 30.2419 25.0824 29.868L27.8299 22.5873C27.8317 22.5825 27.8327 22.5776 27.8344 22.5729C27.8404 22.556 27.8458 22.539 27.8506 22.5216C27.8532 22.5126 27.8554 22.5035 27.8577 22.4945C27.8615 22.4784 27.8647 22.4621 27.8675 22.4456C27.8692 22.4351 27.871 22.4247 27.8723 22.4142C27.8742 22.3993 27.8754 22.3842 27.8764 22.369C27.8772 22.3571 27.878 22.3452 27.8782 22.3332C27.8783 22.3283 27.879 22.3234 27.879 22.3184C27.8789 22.3086 27.8778 22.2992 27.8775 22.2895ZM19.5 21.5566C19.92 21.5566 20.2617 21.8983 20.2617 22.3184C20.2617 22.7384 19.92 23.0801 19.5 23.0801C19.08 23.0801 18.7383 22.7384 18.7383 22.3184C18.7383 21.8983 19.08 21.5566 19.5 21.5566ZM23.3086 37.4766H15.6914V34.2012H23.3086V37.4766ZM24.6088 32.4544C24.4648 32.5984 24.2735 32.6777 24.0703 32.6777H14.9297C14.5097 32.6777 14.168 32.336 14.168 31.916C14.168 31.7128 14.2473 31.5215 14.3912 31.3776C14.5353 31.2336 14.7265 31.1543 14.9297 31.1543H24.0652C24.0669 31.1543 24.0686 31.1545 24.0702 31.1545C24.0711 31.1545 24.072 31.1544 24.0728 31.1544C24.4917 31.1558 24.8321 31.4968 24.8321 31.916C24.832 32.1192 24.7527 32.3105 24.6088 32.4544ZM23.5436 29.6309H15.4564L12.9844 23.0801H14.9297C15.3504 23.0801 15.6914 22.7391 15.6914 22.3184C15.6914 21.8977 15.3504 21.5566 14.9297 21.5566H13.1671L18.7383 11.3613V20.1642C17.8517 20.4787 17.2148 21.3253 17.2148 22.3184C17.2148 23.5784 18.24 24.6035 19.5 24.6035C20.76 24.6035 21.7852 23.5784 21.7852 22.3184C21.7852 21.3254 21.1483 20.4787 20.2617 20.1642V11.3613L25.8329 21.5566H24.0703C23.6496 21.5566 23.3086 21.8977 23.3086 22.3184C23.3086 22.7391 23.6496 23.0801 24.0703 23.0801H26.0156L23.5436 29.6309Z" fill="#000285"/>
<path d="M4.76112 10.2393C4.39352 10.0346 3.92963 10.1667 3.72503 10.5343C2.64545 12.473 1.95739 14.5639 1.67273 16.7579H0.761719C0.341022 16.7579 0 17.0989 0 17.5196V20.5665C0 20.9872 0.341022 21.3282 0.761719 21.3282H3.80859C4.22929 21.3282 4.57031 20.9872 4.57031 20.5665V17.5196C4.57031 17.0989 4.22929 16.7579 3.80859 16.7579H3.20874C3.48349 14.8272 4.1033 12.9865 5.05606 11.2754C5.26073 10.9079 5.12873 10.444 4.76112 10.2393ZM3.04688 19.8048H1.52344V18.2813H2.35379C2.35409 18.2813 2.35432 18.2813 2.35462 18.2813C2.35485 18.2813 2.35516 18.2813 2.35539 18.2813H3.04688V19.8048Z" fill="#000285"/>
<path d="M36.7148 0C35.7219 0 34.8751 0.636873 34.5607 1.52344H21.7852V0.761719C21.7852 0.341022 21.4441 0 21.0234 0H17.9766C17.5559 0 17.2148 0.341022 17.2148 0.761719V1.52344H4.4393C4.12486 0.636873 3.27813 0 2.28516 0C1.02512 0 0 1.02512 0 2.28516C0 3.54519 1.02512 4.57031 2.28516 4.57031C3.27813 4.57031 4.12486 3.93344 4.4393 3.04688H12.0972C10.4725 3.72671 8.98257 4.60924 7.7562 5.64312C7.43453 5.91429 7.39362 6.39486 7.66479 6.71646C7.81546 6.89523 8.0308 6.98725 8.24751 6.98725C8.42088 6.98725 8.59516 6.92844 8.73806 6.80794C10.9236 4.96549 14.0425 3.64962 17.2148 3.20828V3.80859C17.2148 4.22929 17.5559 4.57031 17.9766 4.57031H21.0234C21.4441 4.57031 21.7852 4.22929 21.7852 3.80859V3.20828C24.9575 3.64962 28.0764 4.96549 30.2619 6.80786C30.4048 6.92837 30.5791 6.98725 30.7525 6.98717C30.9693 6.98717 31.1846 6.89515 31.3352 6.71638C31.6065 6.39486 31.5655 5.91429 31.2438 5.64312C30.0174 4.60924 28.5275 3.72671 26.9028 3.04688H34.5607C34.8751 3.93344 35.7218 4.57031 36.7148 4.57031C37.9749 4.57031 39 3.54519 39 2.28516C39 1.02512 37.9749 0 36.7148 0ZM2.28516 3.04688C1.86514 3.04688 1.52344 2.70517 1.52344 2.28516C1.52344 1.86514 1.86514 1.52344 2.28516 1.52344C2.70517 1.52344 3.04688 1.86514 3.04688 2.28516C3.04688 2.70517 2.70517 3.04688 2.28516 3.04688ZM20.2617 2.28516V2.35371V3.04688H18.7383V2.35371V2.28516V1.52344H20.2617V2.28516ZM36.7148 3.04688C36.2948 3.04688 35.9531 2.70517 35.9531 2.28516C35.9531 1.86514 36.2948 1.52344 36.7148 1.52344C37.1349 1.52344 37.4766 1.86514 37.4766 2.28516C37.4766 2.70517 37.1349 3.04688 36.7148 3.04688Z" fill="#000285"/>
</g>
<defs>
<clipPath id="clip0">
<rect width="39" height="39" fill="white"/>
</clipPath>
</defs>
</svg>
