<svg xmlns="http://www.w3.org/2000/svg" width="58.552" height="58.552" viewBox="0 0 58.552 58.552"><defs><style>.a{fill:#7bc9a2;}</style></defs><path class="a" d="M57.386,25.37l-6.153-5.743V4.879a2.441,2.441,0,0,0-2.44-2.44H41.475a2.441,2.441,0,0,0-2.44,2.44V8.217L30.943.656a2.441,2.441,0,0,0-3.33,0L1.105,25.429A3.7,3.7,0,0,0,0,28.056a3.664,3.664,0,0,0,3.66,3.66h3.66V52.453a6.108,6.108,0,0,0,6.1,6.1h3.208l6.307-11.035L19.71,41.074a1.829,1.829,0,0,1,.442-2.2L33.57,27.283a1.831,1.831,0,0,1,2.942,1.937L33.155,39.855l5.458,6.551a1.828,1.828,0,0,1,.183,2.079L33.041,58.552H45.134a6.108,6.108,0,0,0,6.1-6.1V31.716h3.66a3.664,3.664,0,0,0,3.66-3.66A3.75,3.75,0,0,0,57.386,25.37Z" transform="translate(0 0)"/></svg>