<svg width="30" height="20" viewBox="0 0 30 20" fill="none" xmlns="http://www.w3.org/2000/svg">
<path d="M1.17187 11.613L25.9897 11.613L21.8785 17.2439C21.4198 17.8723 21.418 18.8935 21.8746 19.5249C22.3312 20.1564 23.0732 20.1587 23.5319 19.5304L29.6552 11.1433C29.6556 11.1428 29.6559 11.1422 29.6563 11.1418C30.1138 10.5134 30.1153 9.48885 29.6564 8.85837C29.656 8.85788 29.6557 8.85732 29.6553 8.85684L23.5321 0.469736C23.0734 -0.15849 22.3314 -0.156314 21.8747 0.475219C21.4182 1.10659 21.4199 2.1278 21.8787 2.75619L25.9897 8.38716L1.17187 8.38716C0.524646 8.38716 -9.5515e-07 9.10925 -1.03303e-06 10.0001C-1.11092e-06 10.8909 0.524646 11.613 1.17187 11.613Z" fill="#000152"/>
</svg>
