<svg width="60" height="60" viewBox="0 0 60 60" fill="none" xmlns="http://www.w3.org/2000/svg">
<path d="M30.0029 56.6407L41.8891 53.6391C48.6737 48.0054 52.9951 39.5079 52.9951 30.0001C52.9951 15.3348 42.7165 3.07031 28.9703 0.0174561C12.8786 0.560151 0 13.7761 0 30C0 38.3334 3.39844 45.8726 8.88422 51.3089L30.0029 56.6407Z" fill="#CBE2FF"/>
<path d="M52.3729 30C52.3729 39.8338 47.6407 48.5614 40.3301 54.0327L51.115 51.3091C56.6011 45.8728 60.0002 38.3337 60.0002 30C60.0002 13.4314 46.5687 0 30.0002 0C28.7083 0 27.4354 0.0817969 26.1865 0.240234C40.9544 2.11383 52.3729 14.7234 52.3729 30Z" fill="#BED8FB"/>
<path d="M37.455 11.3616C37.455 9.82933 36.2129 8.58726 34.6807 8.58726H25.1203C21.594 8.58726 18.7354 11.4459 18.7354 14.9722V22.0612H41.2598V15.0728C41.2598 13.5405 40.0178 12.2985 38.4856 12.2985H38.392C37.8745 12.2985 37.455 11.8791 37.455 11.3616Z" fill="#365E7D"/>
<path d="M38.4869 12.2985H38.3934C37.8759 12.2985 37.4563 11.8789 37.4563 11.3614C37.4563 9.82921 36.2143 8.58714 34.682 8.58714H33.6338V22.0611H41.2611V15.0726C41.2612 13.5407 40.019 12.2985 38.4869 12.2985Z" fill="#2B4D66"/>
<path d="M49.8101 43.6353C49.0766 42.9109 48.1694 42.3506 47.1394 42.0246L38.9491 39.4315L30.002 39.1171L21.0512 39.4315L12.8609 42.0246C10.0901 42.9019 8.20703 45.4732 8.20703 48.3796V50.6171C13.4557 56.1634 20.7989 59.7071 28.9707 59.9828C38.1263 57.9492 45.7436 51.8293 49.8101 43.6353Z" fill="#4A80AA"/>
<path d="M51.7931 50.617V48.3795C51.7931 46.3245 50.8509 44.4379 49.3198 43.1982C44.9709 52.0607 36.3798 58.464 26.1934 59.7588C27.4229 59.9146 28.6752 59.9977 29.9464 59.9999C31.1679 59.998 32.3731 59.9272 33.5586 59.7911C40.7107 58.9459 47.092 55.5847 51.7931 50.617Z" fill="#407093"/>
<path d="M30.6792 59.5509C32.4943 55.9473 37.2208 45.7149 35.873 39.3233L30.0018 37.0383L24.1251 39.3234C22.7357 45.9123 27.8013 56.5824 29.4783 59.8652C29.8817 59.7684 30.2821 59.6635 30.6792 59.5509Z" fill="#E4F6FF"/>
<path d="M33.7738 56.694L31.3933 47.3287H28.6081L26.2334 56.6685L29.1699 59.9376C29.9153 59.7669 30.6504 59.569 31.3742 59.345L33.7738 56.694Z" fill="#E28086"/>
<path d="M29.2155 59.9888C29.4587 59.9952 29.7023 59.9995 29.9469 60C30.2299 59.9995 30.512 59.9946 30.7932 59.9867L32.3057 58.3158C31.1152 58.7334 29.8905 59.0782 28.6367 59.3445L29.2155 59.9888Z" fill="#DD636E"/>
<path d="M35.0113 38.4589V33.1778H24.9824V38.4589C24.9824 41.2283 29.9969 44.2534 29.9969 44.2534C29.9969 44.2534 35.0113 41.2283 35.0113 38.4589Z" fill="#FFDDCE"/>
<path d="M41.2598 21.131H39.3428C38.2766 21.131 37.4123 20.2668 37.4123 19.2006V18.1441C37.4123 16.7554 36.0536 15.7734 34.735 16.2093C31.6596 17.2257 28.339 17.226 25.2635 16.21L25.2599 16.2088C23.9413 15.7732 22.5827 16.7551 22.5827 18.1438V19.2007C22.5827 20.2669 21.7185 21.1311 20.6523 21.1311H18.7354V24.2879C18.7354 25.0945 19.3893 25.7486 20.196 25.7486C20.4505 25.7486 20.6576 25.9479 20.6736 26.202C20.9816 31.0849 25.0371 34.9505 29.9977 34.9505C34.9582 34.9505 39.0137 31.0849 39.3217 26.202C39.3377 25.948 39.5448 25.7486 39.7993 25.7486C40.6059 25.7486 41.26 25.0947 41.26 24.2879V21.131H41.2598Z" fill="#FFDDCE"/>
<path d="M39.342 21.131C38.2759 21.131 37.4116 20.2668 37.4116 19.2006V18.1441C37.4116 16.7554 36.0528 15.7734 34.7342 16.2093C34.37 16.3296 34.0022 16.4346 33.6318 16.5265V26.9529C33.5805 30.3452 31.7217 33.2977 28.9766 34.8933C29.3118 34.9297 29.6519 34.9502 29.9968 34.9502C34.9573 34.9502 39.0129 31.0847 39.3208 26.2017C39.3369 25.9478 39.544 25.7483 39.7985 25.7483C40.6051 25.7483 41.2591 25.0944 41.2591 24.2877V21.1309H39.342V21.131Z" fill="#FFCBBE"/>
<path d="M24.9843 37.0383L21.0518 40.2336L25.1758 45.3328C25.6775 45.8212 26.4671 45.8512 27.0045 45.4024L30.1059 42.8117L24.9843 37.0383Z" fill="#F4FBFF"/>
<path d="M35.0157 37.0383L30.1064 42.8117L33.0214 45.3041C33.5554 45.7606 34.3487 45.7377 34.8555 45.251L38.95 40.2336L35.0157 37.0383Z" fill="#F4FBFF"/>
<path d="M24.9836 37.0383L19.2115 39.8741C18.772 40.0899 18.5955 40.6246 18.8199 41.0597L19.9508 43.2523C20.2439 43.8204 20.1357 44.5127 19.6834 44.9644C19.4505 45.1967 19.1983 45.4485 18.9798 45.6667C18.5886 46.0571 18.4481 46.6341 18.6204 47.1593C19.9857 51.3214 26.5569 57.686 29.0437 59.9887C29.211 59.9932 29.3785 59.9962 29.5465 59.9981C27.7431 56.4903 21.3525 43.1635 24.9836 37.0383Z" fill="#365E7D"/>
<path d="M40.3147 44.9642C39.8622 44.5126 39.7542 43.8203 40.0473 43.2521L41.1781 41.0596C41.4025 40.6244 41.2261 40.0898 40.7866 39.874L35.0144 37.0383C38.6446 43.1619 32.2585 56.4831 30.4531 59.9953C30.6228 59.9924 30.7921 59.9882 30.9611 59.9825C33.4531 57.6745 40.0136 51.3177 41.3777 47.1594C41.55 46.6342 41.4095 46.0573 41.0183 45.6668C40.7997 45.4485 40.5475 45.1966 40.3147 44.9642Z" fill="#365E7D"/>
<path d="M30.1047 42.8118L27.0508 45.3622L28.6068 47.3287H31.392L32.9481 45.2462L30.1047 42.8118Z" fill="#DD636E"/>
</svg>
