<svg width="50" height="50" viewBox="0 0 50 50" fill="none" xmlns="http://www.w3.org/2000/svg">
<path d="M41.9462 48.5352H40.9424C40.6356 46.9215 39.3364 45.6554 37.7057 45.3994V1.46484H38.3234C38.7279 1.46484 39.0559 1.13701 39.0559 0.732422C39.0559 0.327832 38.7279 0 38.3234 0H11.6823C10.7231 0.0261719 10.7066 1.43301 11.6823 1.46484H12.3V15.433C12.3 15.8376 12.6279 16.1654 13.0324 16.1654C13.4369 16.1654 13.7648 15.8376 13.7648 15.433V1.46484H36.2408V6.8123L13.7649 22.2758V19.2871C13.7649 18.8825 13.437 18.5547 13.0325 18.5547C12.628 18.5547 12.3001 18.8825 12.3001 19.2871V45.3994C10.6692 45.6554 9.37002 46.9216 9.06338 48.5352H8.05957C7.65508 48.5352 7.32715 48.863 7.32715 49.2676C7.32715 49.6722 7.65508 50 8.05957 50H29.1331C30.0936 49.9733 30.1077 48.5667 29.1331 48.5352H10.5704C10.8826 47.5402 11.8131 46.8165 12.9096 46.8165H37.0963C38.1928 46.8165 39.1233 47.5402 39.4354 48.5352H33.5529C32.5871 48.5641 32.583 49.9697 33.5529 50H41.9463C42.9118 49.9712 42.9164 48.5655 41.9462 48.5352ZM13.7649 40.0044L21.0954 34.9609H36.2408V45.3517H13.7649V40.0044ZM36.2408 33.4961H23.2245L36.2408 24.5408V33.4961ZM36.2408 8.59033V22.7628L20.4595 33.6205C20.4586 33.6211 20.4577 33.6218 20.4567 33.6224L13.7649 38.2264V24.0538L36.2408 8.59033Z" fill="#000285"/>
<path d="M15.9408 33.7486C16.1968 33.8743 16.4486 33.8597 16.6964 33.7047L34.1378 21.7479C34.337 21.6113 34.4561 21.3854 34.4561 21.1438V13.7159C34.3169 13.0532 33.9348 12.8519 33.3095 13.1118L15.8681 25.0687C15.6688 25.2052 15.5498 25.4312 15.5498 25.6728V33.1006C15.5499 33.3724 15.7004 33.6219 15.9408 33.7486ZM17.0147 26.0587L32.9913 15.1061V20.7579L17.0147 31.7105V26.0587Z" fill="#000285"/>
<path d="M17.1809 6.15234H30.0813C30.4858 6.15234 30.8138 5.82451 30.8138 5.41992C30.8138 5.01533 30.4858 4.6875 30.0813 4.6875H17.1809C16.2167 4.71572 16.2096 6.12168 17.1809 6.15234Z" fill="#000285"/>
<path d="M17.181 9.47266H26.1751C27.1406 9.44395 27.1453 8.03818 26.1751 8.00781H17.1811C16.2154 8.03652 16.2108 9.44229 17.181 9.47266Z" fill="#000285"/>
<path d="M17.1806 12.793H22.2685C23.2352 12.7638 23.2376 11.3582 22.2685 11.3281H17.1807C16.7762 11.3281 16.4482 11.656 16.4482 12.0605C16.4482 12.4651 16.7761 12.793 17.1806 12.793Z" fill="#000285"/>
<path d="M31.0515 37.5172C29.3684 37.5172 27.999 38.8865 27.999 40.5697C28.1524 44.6137 33.9512 44.6125 34.104 40.5697C34.104 38.8865 32.7347 37.5172 31.0515 37.5172ZM31.0515 42.1573C30.1761 42.1573 29.4639 41.445 29.4639 40.5697C29.5437 38.4662 32.5597 38.4668 32.6392 40.5697C32.6392 41.445 31.927 42.1573 31.0515 42.1573Z" fill="#000285"/>
<path d="M24.4121 38.6905C23.0524 38.6905 21.9463 39.7966 21.9463 41.1562C22.0702 44.4231 26.7545 44.4221 26.8779 41.1562C26.8779 39.7967 25.7717 38.6905 24.4121 38.6905ZM24.4121 42.1572C23.8602 42.1572 23.4111 41.7082 23.4111 41.1562C23.4614 39.8303 25.363 39.8307 25.4131 41.1562C25.4131 41.7083 24.964 42.1572 24.4121 42.1572Z" fill="#000285"/>
</svg>
