<svg width="35" height="35" viewBox="0 0 35 35" fill="none" xmlns="http://www.w3.org/2000/svg">
<circle cx="17.5" cy="17.5" r="17.5" fill="white"/>
<path d="M28 11.7888C27.6475 12.3828 27.219 12.9272 26.7255 13.4078C26.5094 13.6189 26.2814 13.8173 26.0427 14.002C26.0427 14.0288 26.0427 14.0544 26.0427 14.0812C26.0432 16.4292 25.3949 18.7306 24.1707 20.7262C22.9464 22.7217 21.1951 24.3321 19.1139 25.3757C17.3327 26.1328 15.4021 26.4622 13.4737 26.3381C11.5454 26.2139 9.67171 25.6396 8 24.6602C8.29636 24.6942 8.59439 24.7113 8.89265 24.7113C10.7693 24.7143 12.5835 24.0302 13.9995 22.7856C13.12 22.7267 12.275 22.4179 11.5616 21.8947C10.8482 21.3716 10.2956 20.6554 9.96738 19.8288C10.6017 20.0382 11.2858 20.0373 11.9196 19.8262C11.0127 19.5552 10.2085 19.0128 9.6128 18.2705C9.01714 17.5282 8.65805 16.6209 8.58288 15.6682C9.01303 15.9477 9.48598 16.1532 9.98255 16.2765C10.2335 16.3409 10.4894 16.3837 10.7475 16.4043C10.0173 15.8617 9.45823 15.117 9.13794 14.2601C9.04369 14.0072 8.97176 13.7464 8.923 13.4806C8.75322 12.5877 8.841 11.6642 9.17588 10.8202C9.46988 11.1562 9.78136 11.4761 10.109 11.7786C10.8948 12.5042 11.7693 13.1251 12.7111 13.6263C13.3949 13.9915 14.1112 14.291 14.8504 14.5208C15.3754 14.6843 15.9106 14.8124 16.4524 14.9041C16.8031 14.9629 17.1588 15.0055 17.5195 15.0319L17.7724 15.0498C17.7572 14.9833 17.7433 14.922 17.732 14.8492C17.7244 14.8057 17.718 14.7623 17.7117 14.7214C17.7117 14.7073 17.7117 14.6945 17.7117 14.6805C17.687 14.4963 17.6747 14.3106 17.6751 14.1246C17.6751 14.0182 17.6788 13.9134 17.6864 13.8103C17.7682 12.7375 18.2619 11.7396 19.0621 11.0298C19.1882 10.9175 19.3212 10.8133 19.4604 10.718C20.2821 10.1512 21.2804 9.90715 22.2676 10.0319C23.2548 10.1566 24.163 10.6414 24.8213 11.3952C25.1213 11.3254 25.4168 11.2375 25.7064 11.132C25.9433 11.0468 26.1747 10.9489 26.4006 10.8381C26.7555 10.668 27.0971 10.4707 27.4222 10.2478C27.2237 10.7712 26.9342 11.2546 26.5675 11.6751C26.3731 11.8993 26.158 12.1042 25.9251 12.2872C25.848 12.3485 25.7696 12.406 25.6887 12.4609C25.7747 12.4712 25.8619 12.4776 25.9504 12.4801H26.1186C26.3025 12.476 26.4857 12.4554 26.6661 12.4188C27.1542 12.3198 27.6117 12.1037 28 11.7888Z" fill="#A6C5FF"/>
</svg>
