<svg width="35" height="35" viewBox="0 0 35 35" fill="none" xmlns="http://www.w3.org/2000/svg">
<circle cx="17.5" cy="17.5" r="17.5" fill="white"/>
<path d="M21.8963 27H13.102C11.7491 26.9982 10.4522 26.4637 9.4957 25.5136C8.53922 24.5634 8.00132 23.2754 8 21.9319V13.0664C8.00176 11.7233 8.53986 10.4356 9.49629 9.48586C10.4527 8.5361 11.7494 8.00175 13.102 8H21.8963C23.2495 8.00131 24.5469 8.5357 25.5037 9.48586C26.4605 10.436 26.9987 11.7244 27 13.0681V21.9336C26.9982 23.277 26.4599 24.5649 25.5031 25.5147C24.5463 26.4645 23.2492 26.9987 21.8963 27ZM13.102 9.68275C12.1986 9.68362 11.3324 10.0404 10.6935 10.6748C10.0547 11.3092 9.69544 12.1693 9.69455 13.0664V21.9319C9.69544 22.829 10.0547 23.6892 10.6935 24.3236C11.3324 24.9579 12.1986 25.3147 13.102 25.3156H21.8963C22.7998 25.3147 23.666 24.9579 24.3048 24.3236C24.9436 23.6892 25.3029 22.829 25.3038 21.9319V13.0664C25.3029 12.1693 24.9436 11.3092 24.3048 10.6748C23.666 10.0404 22.7998 9.68362 21.8963 9.68275H13.102Z" fill="#A6C5FF"/>
<path d="M17.5001 22.4761C16.5159 22.4761 15.5538 22.1842 14.7355 21.6374C13.9172 21.0906 13.2794 20.3135 12.9027 19.4042C12.5261 18.4949 12.4275 17.4944 12.6195 16.5291C12.8116 15.5638 13.2855 14.6771 13.9814 13.9812C14.6774 13.2852 15.564 12.8113 16.5293 12.6193C17.4946 12.4273 18.4951 12.5258 19.4044 12.9025C20.3137 13.2791 21.0909 13.9169 21.6377 14.7353C22.1845 15.5536 22.4763 16.5157 22.4763 17.4999C22.4746 18.8191 21.9497 20.0838 21.0169 21.0166C20.084 21.9495 18.8193 22.4743 17.5001 22.4761ZM17.5001 14.2842C16.8641 14.2842 16.2424 14.4728 15.7136 14.8261C15.1847 15.1795 14.7726 15.6817 14.5292 16.2693C14.2858 16.8569 14.2221 17.5034 14.3462 18.1272C14.4703 18.751 14.7765 19.324 15.2263 19.7737C15.676 20.2235 16.249 20.5297 16.8728 20.6538C17.4966 20.7779 18.1431 20.7142 18.7307 20.4708C19.3183 20.2274 19.8205 19.8152 20.1739 19.2864C20.5272 18.7576 20.7158 18.1359 20.7158 17.4999C20.715 16.6473 20.3759 15.8299 19.773 15.227C19.1701 14.6241 18.3527 14.285 17.5001 14.2842Z" fill="#A6C5FF"/>
<path d="M22.4762 13.4284C22.9759 13.4284 23.3809 13.0233 23.3809 12.5237C23.3809 12.024 22.9759 11.6189 22.4762 11.6189C21.9765 11.6189 21.5714 12.024 21.5714 12.5237C21.5714 13.0233 21.9765 13.4284 22.4762 13.4284Z" fill="#A6C5FF"/>
</svg>
