<svg width="51" height="50" viewBox="0 0 51 50" fill="none" xmlns="http://www.w3.org/2000/svg">
<g clip-path="url(#clip0)">
<path d="M49.3356 6.61911H9.62041C8.81124 6.61911 8.15522 7.27512 8.15522 8.08429V18.3866H2.26597C1.45679 18.3866 0.800781 19.0426 0.800781 19.8518V41.9157C0.800781 42.7249 1.45679 43.3809 2.26597 43.3809H41.981C42.7902 43.3809 43.4462 42.7249 43.4462 41.9157V30.8783H49.3356C50.1448 30.8783 50.8008 30.2222 50.8008 29.4131V8.08429C50.8008 7.27512 50.1449 6.61911 49.3356 6.61911ZM12.5629 32.3375C11.755 32.3375 11.0977 31.6802 11.0977 30.8723C11.0977 30.0644 11.755 29.4071 12.5629 29.4071C13.3708 29.4071 14.0281 30.0644 14.0281 30.8723C14.0281 31.6802 13.3708 32.3375 12.5629 32.3375ZM9.61543 38.2384C9.61543 35.6293 12.7959 34.3032 14.6473 36.1546C15.2038 36.7113 15.5104 37.4513 15.5104 38.2384V40.4505H9.61543V38.2384ZM40.5159 40.4505H18.4407V38.2384C18.4407 36.3576 17.5599 34.6324 16.0688 33.5198C18.239 30.653 16.2006 26.4767 12.5628 26.4767C8.92698 26.4767 6.88276 30.6526 9.05895 33.5225C7.61936 34.5948 6.68506 36.3094 6.68506 38.2384V40.4505H3.73115V21.317H40.5159V40.4505ZM47.8704 27.9479H43.4462V19.8518C43.4462 19.0426 42.7902 18.3866 41.981 18.3866H11.0856V9.54948H47.8705V27.9479H47.8704Z" fill="#5D5FBC"/>
<path d="M17.7103 15.4333H41.2452C42.0543 15.4333 42.7104 14.7773 42.7104 13.9681C42.7104 13.1589 42.0543 12.5029 41.2452 12.5029H17.7103C16.9011 12.5029 16.2451 13.1589 16.2451 13.9681C16.2451 14.7773 16.901 15.4333 17.7103 15.4333Z" fill="#5D5FBC"/>
<path d="M23.5941 29.4071H36.097C36.9062 29.4071 37.5622 28.7511 37.5622 27.9419C37.5622 27.1327 36.9062 26.4767 36.097 26.4767H23.5941C22.7849 26.4767 22.1289 27.1327 22.1289 27.9419C22.1289 28.7511 22.7849 29.4071 23.5941 29.4071Z" fill="#5D5FBC"/>
<path d="M23.5941 35.2908H36.097C36.9062 35.2908 37.5622 34.6348 37.5622 33.8256C37.5622 33.0165 36.9062 32.3604 36.097 32.3604H23.5941C22.7849 32.3604 22.1289 33.0165 22.1289 33.8256C22.1289 34.6348 22.7849 35.2908 23.5941 35.2908Z" fill="#5D5FBC"/>
</g>
<defs>
<clipPath id="clip0">
<rect width="50" height="50" fill="white" transform="translate(0.800781)"/>
</clipPath>
</defs>
</svg>
