<svg width="32" height="32" viewBox="0 0 32 32" fill="none" xmlns="http://www.w3.org/2000/svg">
<g clip-path="url(#clip0)">
<path d="M15.301 14.2242C15.5727 13.8201 15.7314 13.3341 15.7314 12.8116C15.7314 11.4119 14.5926 10.2731 13.1929 10.2731C11.7931 10.2731 10.6543 11.4119 10.6543 12.8116C10.6543 14.2114 11.7931 15.3503 13.1929 15.3503C13.7321 15.3503 14.2322 15.1807 14.6438 14.8929L14.9472 15.1962C15.1304 15.3793 15.427 15.3793 15.6101 15.1962C15.7932 15.0131 15.7932 14.7164 15.6101 14.5333L15.301 14.2242ZM14.6176 13.5407L14.2859 13.209C14.1027 13.026 13.806 13.026 13.6229 13.209C13.4399 13.3921 13.4399 13.6889 13.6229 13.8719L13.9648 14.2139C13.7357 14.3405 13.4726 14.4128 13.1929 14.4128C12.3101 14.4128 11.5919 13.6946 11.5919 12.8117C11.5919 11.9289 12.3101 11.2106 13.1929 11.2106C14.0757 11.2106 14.794 11.9289 14.794 12.8117C14.794 13.0742 14.73 13.3219 14.6176 13.5407Z" fill="#0003B8"/>
<path d="M11.9974 26.3339L12.2695 25.6193H14.1199L14.3891 26.3326C14.6082 26.9132 15.4854 26.5823 15.2662 26.0015L13.7259 21.9199C13.7243 21.9157 13.7225 21.9113 13.7208 21.9071C13.6336 21.6953 13.4295 21.5586 13.2005 21.5586C13.2004 21.5586 13.2 21.5586 13.1998 21.5586C12.9706 21.5589 12.7665 21.6962 12.6798 21.9084C12.6784 21.9119 12.677 21.9153 12.6757 21.9189L11.1213 26.0002C10.9006 26.5794 11.7764 26.9139 11.9974 26.3339ZM13.1989 23.1789L13.766 24.6818H12.6265L13.1989 23.1789Z" fill="#0003B8"/>
<path d="M27.1311 11.1961H18.0312C17.7723 11.1961 17.5625 11.4059 17.5625 11.6649C17.5625 11.9238 17.7723 12.1336 18.0312 12.1336H27.1311C27.3901 12.1336 27.5999 11.9238 27.5999 11.6649C27.5999 11.4059 27.39 11.1961 27.1311 11.1961Z" fill="#0003B8"/>
<path d="M22.5812 13.4897H18.0312C17.7723 13.4897 17.5625 13.6996 17.5625 13.9585C17.5625 14.2174 17.7723 14.4272 18.0312 14.4272H22.5812C22.8401 14.4272 23.0499 14.2174 23.0499 13.9585C23.0499 13.6996 22.8401 13.4897 22.5812 13.4897Z" fill="#0003B8"/>
<path d="M18.0312 23.4191H27.1311C27.3901 23.4191 27.5999 23.2093 27.5999 22.9504C27.5999 22.6914 27.3901 22.4816 27.1311 22.4816H18.0312C17.7723 22.4816 17.5625 22.6914 17.5625 22.9504C17.5625 23.2093 17.7723 23.4191 18.0312 23.4191Z" fill="#0003B8"/>
<path d="M18.0312 25.7127H22.5812C22.8401 25.7127 23.0499 25.5029 23.0499 25.244C23.0499 24.9851 22.8401 24.7752 22.5812 24.7752H18.0312C17.7723 24.7752 17.5625 24.9851 17.5625 25.244C17.5625 25.5029 17.7723 25.7127 18.0312 25.7127Z" fill="#0003B8"/>
<path d="M28.9361 17.6109C29.8433 17.6109 30.5814 16.8729 30.5814 15.9657V9.65763C30.5814 8.75037 29.8432 8.01231 28.9361 8.01231H26.8087V6.55062C26.8087 6.29169 26.5989 6.08187 26.34 6.08187C26.0811 6.08187 25.8712 6.29169 25.8712 6.55062V8.01237H10.0694C9.16218 8.01237 8.42412 8.7505 8.42412 9.65769V15.9657C8.42412 16.873 9.16224 17.611 10.0694 17.611H25.8712V19.2979H10.0694C9.16218 19.2979 8.42412 20.036 8.42412 20.9432V23.0007C8.42412 23.2597 8.63393 23.4695 8.89287 23.4695C9.15181 23.4695 9.36162 23.2597 9.36162 23.0007V20.9432C9.36162 20.5529 9.67912 20.2354 10.0694 20.2354H28.9361C29.3264 20.2354 29.6439 20.5529 29.6439 20.9432V27.2512C29.6439 27.6416 29.3264 27.9591 28.9361 27.9591H10.0694C9.67912 27.9591 9.36162 27.6416 9.36162 27.2512V25.1937C9.36162 24.9347 9.15181 24.7249 8.89287 24.7249C8.63393 24.7249 8.42412 24.9347 8.42412 25.1937V27.2512C8.42412 28.1585 9.16224 28.8966 10.0694 28.8966H25.8616C25.7556 30.1085 24.7357 31.0625 23.4967 31.0625H4.72899C3.41968 31.0625 2.35449 29.9973 2.35449 28.6881V7.83138C2.35449 7.63037 2.38324 7.43381 2.43812 7.24613H7.21587C8.01387 7.24613 8.66306 6.59687 8.66306 5.79894V1.02112C8.85074 0.96625 9.04731 0.9375 9.24831 0.9375H23.4967C24.8061 0.9375 25.8712 2.00269 25.8712 3.31194V4.35769C25.8712 4.61662 26.0811 4.82644 26.34 4.82644C26.5989 4.82644 26.8087 4.61662 26.8087 4.35769V3.31194C26.8087 1.48569 25.323 0 23.4967 0H9.24831C8.44343 0 7.68668 0.313438 7.11756 0.882563L2.29962 5.7005C1.73049 6.26969 1.41699 7.02644 1.41699 7.83138V28.6881C1.41699 30.5143 2.90274 32 4.72899 32H23.4967C25.2529 32 26.6934 30.6259 26.8015 28.8966H28.9361C29.8433 28.8966 30.5814 28.1584 30.5814 27.2512V20.9432C30.5814 20.0359 29.8432 19.2979 28.9361 19.2979H26.8087V17.611H28.9361V17.6109ZM7.72556 1.60044V5.79887C7.72556 6.07994 7.49693 6.30856 7.21587 6.30856H3.01743L7.72556 1.60044ZM10.0694 16.6734C9.67912 16.6734 9.36162 16.3559 9.36162 15.9657V9.65763C9.36162 9.26731 9.67912 8.94981 10.0694 8.94981H28.9361C29.3264 8.94981 29.6439 9.26731 29.6439 9.65763V15.9657C29.6439 16.3559 29.3264 16.6734 28.9361 16.6734H10.0694Z" fill="#0003B8"/>
</g>
<defs>
<clipPath id="clip0">
<rect width="32" height="32" fill="white"/>
</clipPath>
</defs>
</svg>
