<svg width="741" height="389" viewBox="0 0 741 389" fill="none" xmlns="http://www.w3.org/2000/svg">
<path d="M723.733 286.627L709.124 286.939L701.708 287.061C699.225 287.117 696.73 287.061 694.247 287.128H693.757V286.627L693.69 274.133V273.577H694.247L708.99 273.643C713.912 273.643 718.822 273.766 723.733 273.822H724.045V274.133C724.045 276.249 723.955 278.354 723.9 280.436L723.733 286.627ZM723.733 286.627L723.577 280.336C723.521 278.264 723.454 276.216 723.432 274.167L723.733 274.479C718.822 274.534 713.912 274.657 708.99 274.657L694.247 274.724L694.804 274.167V286.627L694.303 286.137C696.73 286.137 699.158 286.137 701.596 286.193L708.845 286.382L723.733 286.627Z" fill="#EBEBEB"/>
<path d="M707.286 302.338L692.677 302.65L685.25 302.773C682.778 302.773 680.284 302.773 677.8 302.84H677.311V302.338V289.878V289.322H677.867L692.61 289.4C697.521 289.4 702.442 289.522 707.353 289.578H707.665V289.878C707.665 291.994 707.576 294.098 707.52 296.181L707.286 302.338ZM707.286 302.338L707.13 296.047C707.075 293.976 707.008 291.927 706.985 289.878L707.286 290.19C702.375 290.246 697.454 290.368 692.543 290.368L677.8 290.435L678.357 289.878V302.338L677.856 301.849C680.284 301.849 682.711 301.848 685.15 301.904L692.465 302.038L707.286 302.338Z" fill="#EBEBEB"/>
<path d="M740.179 302.338L725.57 302.65L718.154 302.773C715.671 302.773 713.177 302.773 710.693 302.84H710.204V302.338L710.137 289.878V289.322H710.693L725.436 289.4C730.358 289.4 735.269 289.522 740.179 289.578H740.491V289.878C740.491 291.994 740.391 294.098 740.346 296.181L740.179 302.338ZM740.179 302.338L740.023 296.047C740.023 293.976 739.901 291.927 739.878 289.878L740.179 290.19C735.269 290.246 730.358 290.368 725.436 290.368L710.693 290.435L711.25 289.878V302.338L710.749 301.849C713.188 301.849 715.604 301.848 718.043 301.904L725.37 302.038L740.179 302.338Z" fill="#EBEBEB"/>
<path d="M303.295 138.364L288.686 138.676L281.27 138.798C278.787 138.798 276.293 138.798 273.81 138.798H273.32V138.297L273.253 125.837V125.28H273.81L288.552 125.347C293.474 125.347 298.385 125.47 303.295 125.525H303.607V125.826C303.607 127.942 303.507 130.035 303.451 132.117L303.295 138.364ZM303.295 138.364L303.139 132.062C303.139 129.99 303.017 127.942 302.995 125.904L303.295 126.204C298.385 126.204 293.474 126.383 288.552 126.383L273.81 126.461L274.366 125.904L274.311 138.364L273.81 137.863C276.237 137.863 278.665 137.863 281.103 137.93L288.43 138.052L303.295 138.364Z" fill="#EBEBEB"/>
<path d="M286.827 154.075L272.218 154.387L264.791 154.51C262.319 154.51 259.825 154.51 257.342 154.565H256.852V154.064L256.763 141.626V141.07H257.319L272.062 141.137C276.973 141.137 281.894 141.259 286.805 141.315H287.117V141.626C287.117 143.742 287.028 145.835 286.972 147.918L286.827 154.075ZM286.827 154.075L286.671 147.773C286.616 145.702 286.549 143.653 286.527 141.615L286.827 141.916C281.917 141.972 276.995 142.094 272.085 142.094L257.342 142.172L257.898 141.615L257.876 154.075L257.375 153.574C259.803 153.574 262.23 153.574 264.669 153.641L271.984 153.764L286.827 154.075Z" fill="#EBEBEB"/>
<path d="M319.743 154.075L305.133 154.387L297.717 154.51C295.234 154.51 292.751 154.51 290.257 154.565H289.767V154.064L289.7 141.626V141.07H290.257L305 141.137C309.921 141.137 314.832 141.259 319.743 141.315H320.054V141.626C320.054 143.742 319.954 145.835 319.91 147.918L319.743 154.075ZM319.743 154.075L319.587 147.773C319.587 145.702 319.464 143.653 319.442 141.615L319.743 141.916C314.832 141.972 309.921 142.094 305 142.094L290.257 142.172L290.814 141.615L290.758 154.075L290.257 153.574C292.696 153.574 295.112 153.574 297.55 153.641L304.877 153.764L319.743 154.075Z" fill="#EBEBEB"/>
<path d="M62.8802 220.808L48.271 221.119L40.844 221.242C38.372 221.242 35.8777 221.242 33.3946 221.298H32.9492V220.797V208.336V207.78H33.506L48.2488 207.847C53.1593 207.847 58.081 207.969 62.9915 208.025H63.3033V208.325C63.3033 210.441 63.2142 212.534 63.1586 214.617L62.8802 220.808ZM62.8802 220.808L62.7243 214.505C62.7243 212.434 62.6018 210.385 62.5795 208.348L62.8802 208.648C57.9696 208.704 53.048 208.826 48.1374 208.826L33.3946 208.904L33.9514 208.348L33.8957 220.808L33.3946 220.307C35.8221 220.307 38.2495 220.307 40.6881 220.373L48.0038 220.496L62.8802 220.808Z" fill="#EBEBEB"/>
<path d="M551.685 138.353L537.076 138.665L529.66 138.787C527.177 138.843 524.682 138.787 522.199 138.843H521.709V138.342L521.643 125.882V125.325H522.199L536.942 125.392C541.864 125.392 546.774 125.525 551.685 125.581H551.997V125.882C551.997 127.997 551.908 130.102 551.852 132.173L551.685 138.353ZM551.685 138.353L551.529 132.062C551.473 129.979 551.407 127.93 551.384 125.893L551.685 126.193C546.774 126.249 541.864 126.372 536.942 126.383L522.199 126.449L522.756 125.893L522.7 138.353L522.199 137.852C524.627 137.852 527.054 137.852 529.493 137.919L536.82 138.041L551.685 138.353Z" fill="#EBEBEB"/>
<path d="M722.029 17.3372L707.42 17.649L699.993 17.7715C697.521 17.7715 695.027 17.7715 692.544 17.8383H692.054V17.3372V4.87709V4.32034H692.61L707.353 4.38715C712.264 4.38715 717.186 4.52077 722.096 4.57645H722.408V4.87709C722.408 6.99275 722.319 9.09727 722.263 11.1684L722.029 17.3372ZM722.029 17.3372L721.873 11.0459C721.818 8.96365 721.751 6.91481 721.729 4.87709L722.029 5.17774C717.119 5.17774 712.197 5.3559 707.286 5.36704L692.544 5.43385L693.1 4.87709L693.045 17.3372L692.544 16.8361C694.971 16.8361 697.399 16.8361 699.837 16.9029L707.153 17.0254L722.029 17.3372Z" fill="#EBEBEB"/>
<path d="M738.476 33.0488L723.867 33.3606L716.451 33.4831C713.968 33.5387 711.473 33.4831 708.99 33.5387H708.5V33.0377L708.434 20.5776V20.0208H708.99L723.733 20.0876C728.655 20.0876 733.565 20.2212 738.476 20.2769H738.788V20.5776C738.788 22.6932 738.687 24.7977 738.632 26.8689L738.476 33.0488ZM738.476 33.0488L738.32 26.7575C738.32 24.6753 738.198 22.6264 738.175 20.5887L738.476 20.8893C733.565 20.945 728.655 21.0675 723.733 21.0786L708.99 21.1455L709.547 20.5887V33.0488L709.046 32.5477C711.473 32.5477 713.901 32.5477 716.339 32.6145L723.666 32.737L738.476 33.0488Z" fill="#EBEBEB"/>
<path d="M29.9866 17.3484L15.3663 17.6602L7.95041 17.7827C5.47844 17.7827 2.98419 17.7827 0.501077 17.8495H0V17.3484V4.88829V4.33154H0.567885L15.3107 4.40949C20.2212 4.40949 25.1318 4.53197 30.0535 4.58765H30.3541V4.88829C30.3541 7.00395 30.2539 9.10847 30.2094 11.1907L29.9866 17.3484ZM29.9866 17.3484L29.8196 11.0571C29.8196 8.97485 29.6971 6.92601 29.6749 4.88829L29.9866 5.18894C25.065 5.25575 20.1544 5.3671 15.2439 5.37823L0.501077 5.44505L1.05783 4.88829L0.991017 17.3484L0.501077 16.9141C2.92851 16.9141 5.34482 16.9141 7.78339 16.9141L15.1102 17.0366L29.9866 17.3484Z" fill="#EBEBEB"/>
<path d="M391.141 171.903C389.775 173.193 388.08 174.083 386.241 174.475C385.128 174.764 383.892 174.932 382.712 175.143H378.681C377.022 174.887 375.34 174.687 373.726 174.364C367.692 173.069 361.976 170.585 356.912 167.059C343.575 158.242 332.338 146.603 323.997 132.964C321.2 128.463 319.274 123.477 318.318 118.265C318.073 116.896 317.883 115.515 317.672 114.134V110.103C318.006 108.556 318.273 106.986 318.685 105.46C319.091 104.028 319.858 102.725 320.912 101.674C321.113 101.852 321.291 101.997 321.469 102.175C327.883 108.582 334.3 114.988 340.721 121.394C340.929 121.567 341.078 121.801 341.145 122.063C341.213 122.324 341.197 122.601 341.1 122.853C340.612 124.441 340.546 126.128 340.91 127.749C341.273 129.369 342.052 130.867 343.171 132.095C348.648 138.316 354.513 144.185 360.731 149.666C361.97 150.792 363.482 151.574 365.117 151.935C366.752 152.296 368.453 152.224 370.051 151.726C370.519 151.604 370.853 151.526 371.254 151.927C377.808 158.518 384.378 165.096 390.963 171.658C390.996 171.691 391.041 171.791 391.141 171.903Z" fill="#EBEBEB"/>
<path d="M403.745 157.505V158.841C403.164 159.678 402.536 160.481 401.863 161.247C399.881 163.307 397.833 165.3 395.817 167.315L395.194 167.905L375.396 148.118C377.99 145.557 380.573 142.941 383.246 140.391C383.535 140.122 383.876 139.914 384.247 139.779C384.619 139.644 385.014 139.586 385.408 139.606C385.803 139.627 386.19 139.727 386.545 139.9C386.9 140.073 387.217 140.316 387.477 140.613C388.969 142.061 390.417 143.542 391.931 145.001C395.372 148.452 398.835 151.882 402.242 155.356C402.799 156.032 403.301 156.751 403.745 157.505Z" fill="#EBEBEB"/>
<path d="M351.845 110.204C349.395 112.575 346.89 114.891 344.463 117.185L324.82 97.5541C325.255 97.1644 325.756 96.7524 326.212 96.307C328.016 94.5142 329.787 92.677 331.624 90.9176C332.37 90.2628 333.155 89.653 333.973 89.0915H335.321C336.071 89.5526 336.786 90.07 337.459 90.6393C342.269 95.4051 347.061 100.193 351.834 105.003C353.638 106.807 353.638 108.433 351.845 110.204Z" fill="#EBEBEB"/>
<path d="M22.6602 121.127H151.526V39.3734H22.6602V121.127Z" fill="#EBEBEB"/>
<path d="M175.634 121.127H151.526V96.0173L175.634 121.127Z" fill="#EBEBEB"/>
<path d="M136.604 53.5038H37.5693V55.0627H136.604V53.5038Z" fill="white"/>
<path d="M88.7571 61.8996H37.5693V63.4585H88.7571V61.8996Z" fill="white"/>
<path d="M117.653 78.6802H37.5693V80.2391H117.653V78.6802Z" fill="white"/>
<path d="M136.604 87.0648H37.5693V88.6237H136.604V87.0648Z" fill="white"/>
<path d="M136.604 95.4495H37.5693V97.0084H136.604V95.4495Z" fill="white"/>
<path d="M72.756 103.845H37.5693V105.404H72.756V103.845Z" fill="white"/>
<path d="M718.02 153.775H589.154V225.874H718.02V153.775Z" fill="#DBDBDB"/>
<path d="M565.047 225.885H589.154V200.776L565.047 225.885Z" fill="#DBDBDB"/>
<path d="M690.584 191.422H604.365V192.981H690.584V191.422Z" fill="white"/>
<path d="M672.857 199.818H604.365V201.377H672.857V199.818Z" fill="white"/>
<path d="M678.024 174.642H604.365V176.201H678.024V174.642Z" fill="white"/>
<path d="M700.539 166.257H604.365V167.816H700.539V166.257Z" fill="white"/>
<path d="M679.961 208.203H604.365V209.762H679.961V208.203Z" fill="white"/>
<path d="M652.914 77.1435H416.283V87.5214H652.914V77.1435Z" fill="#EBEBEB"/>
<path d="M439.923 87.5325H429.545V121.851H439.923V87.5325Z" fill="#EBEBEB"/>
<path d="M439.923 87.5325H429.545V98.1442H439.923V87.5325Z" fill="#DBDBDB"/>
<path d="M639.652 87.5325H629.274V121.851H639.652V87.5325Z" fill="#EBEBEB"/>
<path d="M639.652 87.5325H629.274V98.1442H639.652V87.5325Z" fill="#DBDBDB"/>
<path d="M477.114 77.1435V11.0126L460.456 11.0126V77.1435H477.114Z" fill="#C7C7C7"/>
<path d="M477.114 14.7429V7.47168L460.456 7.47168V14.7429H477.114Z" fill="#DBDBDB"/>
<path d="M477.103 26.7575V24.0629H460.445V26.7575H477.103Z" fill="#DBDBDB"/>
<path d="M479.185 68.4804V61.2092H460.455V68.4804H479.185Z" fill="#DBDBDB"/>
<path d="M488.75 77.1435V0L477.114 0V77.1435H488.75Z" fill="#DBDBDB"/>
<path d="M486.379 36.9238V7.24887H479.397V36.9238H486.379Z" fill="#EBEBEB"/>
<path d="M571.516 68.9032L516.654 14.6696L508.474 22.9448L563.336 77.1785L571.516 68.9032Z" fill="#C7C7C7"/>
<path d="M557.038 57.813L535.935 36.9509L531.026 41.9161L552.13 62.7782L557.038 57.813Z" fill="#DBDBDB"/>
<path d="M508.504 77.1658V18.5621H488.739V77.1658H508.504Z" fill="#A6A6A6"/>
<path d="M508.504 70.9413V65.4852H488.739V70.9413H508.504Z" fill="#C7C7C7"/>
<path d="M508.504 61.9108V59.7951H488.739V61.9108H508.504Z" fill="#C7C7C7"/>
<path d="M460.456 77.1658V22.0919H446.804V77.1658H460.456Z" fill="#A6A6A6"/>
<path d="M460.456 71.3199V66.1866H446.804V71.3199H460.456Z" fill="#C7C7C7"/>
<path d="M460.456 38.5717V33.4384H446.804V38.5717H460.456Z" fill="#C7C7C7"/>
<path d="M460.456 44.0836V42.0904H446.805V44.0836H460.456Z" fill="#C7C7C7"/>
<path d="M628.038 51.4884L626.557 55.4191L625.644 57.8131L624.152 61.7549L618.34 77.1546H586.905L581.071 61.7549L579.579 57.8131L578.677 55.4191L577.185 51.4884L588.787 34.5743L582.774 23.4281H622.482L616.436 34.5743L628.038 51.4884Z" fill="#DBDBDB"/>
<path d="M628.038 51.4884L626.557 55.419H578.677L577.185 51.4884H628.038Z" fill="#A6A6A6"/>
<path d="M625.644 57.813L624.152 61.7548H581.07L579.578 57.813H625.644Z" fill="#A6A6A6"/>
<path d="M14.9316 377.277L103.789 377.01L192.636 376.91L370.34 376.732L548.044 376.91L636.89 377.01L725.748 377.277L636.89 377.556L548.044 377.656L370.34 377.834L192.636 377.656L103.789 377.556L14.9316 377.277Z" fill="#263238"/>
<path d="M360.697 377.255H497.28L470.054 218.837H367.913L360.697 377.255Z" fill="#DBDBDB"/>
<path d="M360.697 377.255H372.679L379.393 218.837H367.913L360.697 377.255Z" fill="#A6A6A6"/>
<path d="M479.374 249.892C494.829 284.411 532.176 341.701 548.89 327.504C573.888 306.28 590.813 259.335 597.494 240.35C601.247 229.716 547.075 211.922 543.757 221.576C539.035 235.294 531.631 263.967 527.344 268.031C525.117 270.158 507.367 245.249 493.938 233.435C474.552 216.409 474.441 238.869 479.374 249.892Z" fill="#AD6359"/>
<path d="M611.023 224.371C606.202 235.216 587.64 253.556 581.471 256.262C575.302 258.968 542.721 229.538 543.4 222.612C544.079 215.686 563.521 179.408 574.289 173.84C585.056 168.273 616.023 213.125 611.023 224.371Z" fill="#AD6359"/>
<path d="M545.951 214.995C545.951 214.995 546.73 199.562 542.833 186.512C539.559 175.544 533.469 159.632 539.292 157.65C551.274 153.586 566.462 193.282 566.462 193.282C566.462 193.282 570.359 211.877 558.856 216.955C551.641 220.14 545.951 214.995 545.951 214.995Z" fill="#AD6359"/>
<path d="M559.458 185.721C560.238 191.968 567.153 187.469 567.153 187.469C567.153 187.469 558.768 196.377 562.064 202.468C565.271 208.359 573.422 202.624 574.012 202.223C573.566 202.702 566.084 211.053 570.037 216.866C574.145 222.901 581.339 215.752 581.806 215.285C581.528 215.853 578.032 223.547 582.04 227.288C588.922 233.691 598.409 214.271 605.713 212.1C605.713 212.1 610.813 224.048 611.025 224.349C611.025 224.349 620.434 206.043 616.96 196.355C616.473 194.94 615.518 193.733 614.253 192.933C612.987 192.134 611.487 191.789 610 191.957C610 191.957 613.686 186.389 610.724 181.713C609.187 179.319 604.043 179.63 604.043 179.63C604.043 179.63 606.804 175.054 603.909 171.068C601.604 167.872 596.761 168.685 596.761 168.685C596.761 168.685 597.373 163.05 593.966 160.556C587.04 155.523 557.777 172.348 559.458 185.721Z" fill="#AD6359"/>
<path d="M595.925 168.718C596.025 168.662 595.925 168.518 595.869 168.551C584.89 171.736 573.811 178.573 566.751 187.67C566.517 187.971 566.896 188.472 567.219 188.193C576.338 180.232 584.968 173.918 595.925 168.718Z" fill="#263238"/>
<path d="M604.109 179.486C604.231 179.43 604.109 179.23 604.008 179.263C592.706 182.603 580.447 190.687 573.532 202.101C573.298 202.491 573.476 203.081 573.788 202.658C578.955 195.442 594.221 184.129 604.109 179.486Z" fill="#263238"/>
<path d="M581.594 216.231C588.642 205.542 598.407 198.181 609.531 192.068C609.665 191.99 609.531 191.801 609.409 191.834C603.151 193.338 596.47 197.97 591.593 202.023C586.977 205.69 583.406 210.505 581.237 215.986C581.137 216.231 581.449 216.476 581.594 216.231Z" fill="#263238"/>
<path d="M566.929 187.458C566.651 187.815 567.486 187.826 567.219 188.193C566.105 189.73 560.148 199.584 562.876 202.669C565.103 205.13 569.88 203.883 571.55 202.669L575.726 199.651L572.853 203.983C571.56 205.881 570.582 207.975 569.958 210.185C569.612 211.191 569.484 212.26 569.582 213.319C569.68 214.379 570.002 215.406 570.526 216.331C571.017 217.19 571.79 217.852 572.713 218.207C573.636 218.562 574.653 218.588 575.592 218.28C577.687 217.559 579.562 216.313 581.037 214.661L585.269 210.207L582.73 215.775C582.02 217.315 581.508 218.939 581.204 220.607C580.864 222.176 580.992 223.81 581.572 225.306C581.859 225.965 582.323 226.532 582.913 226.942C583.503 227.353 584.195 227.592 584.912 227.634C586.539 227.468 588.084 226.843 589.366 225.83C592.178 223.681 594.817 221.317 597.261 218.759C598.542 217.512 599.822 216.254 601.17 215.051C602.435 213.785 603.953 212.798 605.624 212.156C604.035 212.96 602.62 214.069 601.459 215.418C600.223 216.699 599.043 218.035 597.862 219.382C595.543 222.164 592.971 224.725 590.179 227.032C588.682 228.302 586.849 229.111 584.901 229.359C583.828 229.37 582.774 229.069 581.867 228.494C580.96 227.919 580.239 227.095 579.79 226.119C579.011 224.282 578.798 222.254 579.178 220.296C579.477 218.432 580.02 216.617 580.792 214.895L582.485 216.009C580.77 217.989 578.566 219.486 576.093 220.351C574.708 220.794 573.211 220.739 571.862 220.195C570.558 219.624 569.456 218.673 568.7 217.467C568.037 216.292 567.63 214.99 567.508 213.646C567.385 212.303 567.548 210.948 567.987 209.673C568.698 207.253 569.808 204.968 571.272 202.914L572.575 204.183C570.348 205.631 565.181 207.613 561.295 204.239C556.997 199.016 565.292 189.151 566.929 187.458Z" fill="#263238"/>
<path d="M567.152 187.469C565.949 187.95 564.68 188.246 563.389 188.349C562.87 188.403 562.346 188.316 561.872 188.099C561.399 187.882 560.992 187.541 560.694 187.113C560.169 186.083 559.956 184.922 560.081 183.773C560.148 182.503 560.282 181.178 560.482 179.809C559.634 180.927 559.034 182.214 558.723 183.583C558.509 184.322 558.443 185.096 558.529 185.86C558.615 186.625 558.851 187.365 559.224 188.037C559.711 188.736 560.398 189.272 561.195 189.574C561.962 189.824 562.783 189.855 563.567 189.663C564.963 189.328 566.218 188.56 567.152 187.469Z" fill="#263238"/>
<path d="M540.462 222.612L596.849 261.885C596.849 261.885 563.166 331.668 542.354 331.479C521.543 331.29 491.479 279.022 481.112 256.429C470.745 233.836 476.925 214.695 497.903 235.272C518.882 255.85 526.398 264.335 527.077 264.056C528.347 263.544 540.462 222.612 540.462 222.612Z" fill="#FF9933"/>
<path d="M596.849 261.885C596.849 261.885 573.466 310.278 553.656 326.357C549.681 329.586 545.862 331.512 542.354 331.468C521.543 331.29 491.478 279.011 481.056 256.429C474.609 242.443 474.553 229.783 480.41 227.055C484.029 225.373 489.875 227.444 497.859 235.306C519.015 256.028 526.342 264.357 527.033 264.079C528.346 263.544 540.473 222.623 540.473 222.623L596.849 261.885Z" fill="#FF9933"/>
<path d="M561.952 318.117C561.261 318.919 560.56 319.698 559.858 320.455C553.513 324.45 546.394 327.057 538.969 328.105C536.921 328.331 534.86 328.413 532.8 328.35L531.52 327.548C533.978 327.697 536.444 327.633 538.891 327.359C541.821 327.039 544.703 326.374 547.476 325.377L549.581 324.686L551.618 323.829C552.298 323.54 552.999 323.295 553.656 322.961L555.627 321.958C557.82 320.822 559.933 319.539 561.952 318.117ZM519.171 256.64C512.737 259.567 506.868 263.604 501.834 268.566C498.568 271.783 495.55 275.241 492.803 278.91C492.937 279.155 493.082 279.411 493.237 279.656C496.017 275.925 499.081 272.415 502.402 269.156C506.62 265.011 511.427 261.511 516.666 258.767L518.636 257.765C518.998 257.581 519.37 257.418 519.75 257.275L519.171 256.64ZM567.876 260.192C562.528 257.575 556.933 255.497 551.173 253.99C550.572 253.845 549.97 253.701 549.358 253.578C548.968 253.489 548.567 253.4 548.178 253.333C543.31 252.313 538.314 252.058 533.368 252.576C532.644 252.676 531.932 252.788 531.208 252.921C531.13 253.177 531.041 253.445 530.963 253.69C531.787 253.545 532.622 253.422 533.457 253.322C538.048 252.837 542.685 253.028 547.22 253.89L548.434 254.113C549.291 254.291 550.149 254.48 551.006 254.692C556.717 256.163 562.267 258.2 567.575 260.771C575.525 264.671 583.237 269.04 590.669 273.855C590.78 273.666 590.881 273.476 590.97 273.298C583.539 268.474 575.827 264.098 567.876 260.192ZM573.721 245.784C564.694 246.156 555.897 248.749 548.111 253.333L547.153 253.89C545.187 255.068 543.287 256.354 541.463 257.743C531.921 265.003 524.304 274.334 517.055 283.721C513.425 288.431 509.862 293.174 506.098 297.762C505.831 298.096 505.553 298.419 505.274 298.753L505.698 299.365C506.02 298.987 506.343 298.608 506.655 298.252C510.441 293.653 514.015 288.91 517.657 284.211C524.905 274.857 532.511 265.593 541.953 258.433C544 256.872 546.142 255.44 548.367 254.146C548.668 253.957 548.979 253.779 549.291 253.612C551.884 252.156 554.587 250.905 557.375 249.87L559.457 249.113C560.148 248.868 560.872 248.701 561.584 248.489L563.711 247.899L565.938 247.465C568.813 246.817 571.755 246.51 574.701 246.552H574.835L573.721 245.784ZM504.517 241.897C500.627 243.626 496.561 244.929 492.391 245.784L490.22 246.207C489.496 246.34 488.761 246.385 487.993 246.485L485.766 246.741L483.539 246.83C481.505 246.971 479.464 246.934 477.437 246.719L477.637 247.454C487.049 248.141 496.483 246.44 505.063 242.51C504.94 242.298 504.729 242.098 504.517 241.897ZM488.46 228.068C484.517 230.746 480.428 233.204 476.212 235.428C476.212 235.729 476.212 236.029 476.212 236.341C480.711 233.988 485.061 231.363 489.24 228.48C488.973 228.335 488.717 228.19 488.46 228.068Z" fill="white"/>
<path d="M583.521 268.432C582.029 267.196 580.525 265.994 579.011 264.791C575.938 262.364 572.864 259.947 569.791 257.542C563.667 252.765 557.409 248.155 551.107 243.623C547.532 241.04 544.013 238.323 540.328 235.907C540.31 235.894 540.29 235.884 540.269 235.879C540.248 235.873 540.226 235.872 540.204 235.875C540.182 235.878 540.161 235.886 540.142 235.897C540.124 235.908 540.107 235.923 540.094 235.94C540.081 235.958 540.071 235.978 540.066 235.999C540.06 236.02 540.059 236.042 540.062 236.064C540.065 236.086 540.073 236.107 540.084 236.126C540.095 236.144 540.11 236.161 540.127 236.174C543.056 238.757 546.196 241.118 549.236 243.579C552.276 246.04 555.293 248.512 558.378 250.917C564.509 255.683 570.715 260.356 576.995 264.936C578.744 266.228 580.47 267.586 582.285 268.8C583.209 269.423 584.088 270.114 585.024 270.715C585.959 271.316 586.961 271.828 587.874 272.508C587.895 272.52 587.92 272.524 587.943 272.519C587.967 272.514 587.988 272.501 588.003 272.483C588.018 272.464 588.025 272.44 588.024 272.416C588.023 272.392 588.013 272.369 587.997 272.352C586.471 271.071 585.046 269.679 583.521 268.432Z" fill="#263238"/>
<path d="M527.512 262.809C525.359 268.626 523.589 274.578 522.211 280.625C521.476 283.609 520.897 286.627 520.33 289.633C519.729 292.621 519.327 295.645 519.127 298.686C519.127 298.798 519.294 298.798 519.316 298.686C520.252 295.78 520.942 292.751 521.61 289.778C522.278 286.805 523.035 283.81 523.703 280.87C525.051 274.879 526.632 268.945 527.801 262.92C527.808 262.901 527.812 262.881 527.811 262.861C527.811 262.84 527.806 262.82 527.798 262.802C527.79 262.783 527.778 262.766 527.763 262.752C527.748 262.738 527.731 262.727 527.712 262.72C527.693 262.713 527.673 262.709 527.652 262.71C527.632 262.71 527.612 262.715 527.593 262.723C527.575 262.731 527.558 262.743 527.544 262.758C527.53 262.773 527.519 262.79 527.512 262.809Z" fill="#263238"/>
<path opacity="0.1" d="M553.656 326.357C549.681 329.586 545.862 331.512 542.354 331.468C521.543 331.29 491.478 279.011 481.056 256.429C474.609 242.443 474.553 229.783 480.41 227.055L553.656 326.357Z" fill="black"/>
<path d="M521.376 377.255H386.007C384.515 374.516 406.696 255.95 452.35 222.556C462.482 215.151 480.454 219.917 485.443 227.121C510.564 263.321 521.376 377.255 521.376 377.255Z" fill="#FF9933"/>
<path d="M514.339 324.62C510.959 323.423 507.647 322.044 504.418 320.489C499.886 318.317 495.51 315.912 491.156 313.373L490.521 312.995C486.067 310.356 481.613 307.561 477.248 304.744L476.625 304.343L473.663 302.428C463.641 296.003 453.775 289.388 443.075 284.244C437.785 281.599 432.169 279.667 426.372 278.498C423.463 277.98 420.502 277.815 417.553 278.008C416.818 278.008 416.094 278.164 415.326 278.265C414.825 278.365 414.324 278.432 413.812 278.532C413.89 278.354 413.957 278.187 414.046 278.008C414.446 277.93 414.858 277.864 415.259 277.775C415.994 277.685 416.74 277.574 417.486 277.518C420.464 277.318 423.455 277.479 426.394 277.997C432.252 279.156 437.93 281.092 443.275 283.754C454.032 288.898 463.964 295.513 473.963 301.915L476.903 303.797L477.538 304.198C481.992 307.06 486.446 309.899 491.067 312.583L491.701 312.961C495.933 315.422 500.242 317.76 504.674 319.865C507.769 321.346 510.94 322.665 514.172 323.818L514.339 324.62ZM502.291 268.087L501.834 268.521C493.249 276.884 486.835 287.083 480.789 297.283C479.512 299.458 478.228 301.63 476.936 303.797C476.836 303.986 476.736 304.165 476.625 304.343C474.988 307.104 473.34 309.855 471.625 312.56C470.122 314.943 468.552 317.293 466.881 319.564C466.725 319.776 466.581 319.987 466.425 320.188C464.735 322.471 462.913 324.653 460.969 326.724C458.942 328.874 456.704 330.814 454.288 332.514L453.386 333.149C453.085 333.361 452.751 333.528 452.439 333.717L450.535 334.831C449.223 335.493 447.869 336.069 446.482 336.556C440.865 338.422 434.985 339.373 429.067 339.374C423.169 339.35 417.292 338.682 411.54 337.38C405.973 336.2 400.572 334.619 395.127 333.038C395.127 333.216 395.038 333.394 394.982 333.561C400.416 335.153 405.872 336.757 411.418 337.948C417.238 339.276 423.186 339.963 429.156 339.997C435.141 340 441.088 339.045 446.771 337.169C448.19 336.681 449.574 336.097 450.914 335.421L452.862 334.307C453.192 334.131 453.511 333.938 453.82 333.728L454.744 333.082C457.197 331.365 459.469 329.402 461.525 327.225C463.598 325.006 465.539 322.668 467.338 320.221C467.505 320.01 467.65 319.809 467.794 319.598C469.376 317.438 470.868 315.222 472.248 312.972C473.974 310.267 475.589 307.516 477.259 304.766L477.582 304.22L481.446 297.695C487.503 287.507 493.917 277.396 502.413 269.134L502.558 269C502.458 268.677 502.369 268.377 502.291 268.087ZM508.716 294.533C507.858 295.646 506.99 296.693 506.11 297.762C502.423 302.397 498.303 306.669 493.806 310.523C492.915 311.224 492.024 311.926 491.1 312.583L490.521 312.995C489.232 313.904 487.882 314.723 486.479 315.444L485.51 315.968C485.187 316.146 484.831 316.268 484.497 316.424L482.47 317.293C481.089 317.792 479.675 318.197 478.239 318.507C474.788 319.246 471.268 319.619 467.739 319.62H466.881C464.788 319.62 462.695 319.453 460.612 319.23C454.736 318.49 448.959 317.105 443.386 315.099C437.819 313.173 432.329 310.801 426.873 308.418C421.443 305.961 415.864 303.845 410.171 302.082C408.489 301.604 406.83 301.18 405.049 300.869L404.881 301.347C406.619 301.67 408.344 302.082 410.026 302.572C415.687 304.341 421.231 306.461 426.628 308.919C432.084 311.269 437.541 313.652 443.164 315.6C448.785 317.623 454.609 319.026 460.534 319.787C462.494 320.01 464.454 320.155 466.414 320.188C466.703 320.188 466.982 320.188 467.271 320.188C471.01 320.248 474.744 319.897 478.406 319.141C479.87 318.818 481.313 318.405 482.726 317.905L484.798 317.014C485.143 316.859 485.488 316.736 485.822 316.558L486.813 316.023C488.334 315.248 489.793 314.359 491.178 313.362L491.757 312.95C492.603 312.338 493.438 311.692 494.262 311.035C498.805 307.166 502.966 302.871 506.689 298.207C507.431 297.294 508.174 296.37 508.916 295.435C508.849 295.145 508.782 294.833 508.716 294.533ZM494.73 245.26C493.951 245.45 493.171 245.628 492.392 245.784L490.22 246.207C489.497 246.34 488.762 246.385 487.993 246.485L485.766 246.741L483.539 246.83C480.599 247.021 477.646 246.864 474.743 246.363C470.187 245.575 465.774 244.116 461.648 242.031L460.534 241.486C459.755 241.085 458.987 240.662 458.229 240.227C453.132 237.235 448.349 233.735 443.954 229.783L443.464 230.273C447.901 234.267 452.724 237.811 457.862 240.851C458.396 241.163 458.975 241.463 459.488 241.753L460.601 242.31C465.004 244.62 469.736 246.238 474.631 247.109C481.417 248.061 488.323 247.683 494.964 245.995C494.919 245.75 494.819 245.505 494.73 245.26ZM486.802 229.17C480.888 233.137 474.578 236.477 467.973 239.136C465.577 240.069 463.127 240.854 460.635 241.486L459.588 241.753C456.693 242.426 453.753 242.884 450.791 243.122L448.564 243.267C447.829 243.323 447.094 243.267 446.337 243.267H444.11L441.883 243.089C439.2 242.934 436.542 242.49 433.955 241.764C433.799 241.975 433.643 242.187 433.499 242.41C442.391 244.643 451.703 244.609 460.579 242.31L461.692 242.031C463.914 241.443 466.1 240.729 468.24 239.893C474.879 237.216 481.223 233.858 487.169 229.872L486.802 229.17ZM520.107 365.608C518.993 365.608 517.791 365.708 516.633 365.741H516.544L515.864 365.797C510.158 366.394 504.612 368.044 499.507 370.663C495.854 372.571 492.365 374.775 489.073 377.255H489.775C492.915 374.93 496.237 372.859 499.707 371.064C504.857 368.435 510.455 366.799 516.21 366.242H516.622H516.889C518.002 366.242 519.049 366.12 520.118 366.131C520.14 365.931 520.129 365.775 520.107 365.608ZM520.686 370.73C519.476 369.193 518.225 367.683 516.933 366.198C516.811 366.042 516.677 365.897 516.544 365.752L516.087 365.218C512.196 360.683 507.722 356.685 502.781 353.326C500.273 351.69 497.573 350.369 494.741 349.395C494.04 349.161 493.305 348.961 492.592 348.76C491.88 348.56 491.133 348.404 490.365 348.304C488.895 348.025 487.392 348.003 485.911 347.858C479.925 347.64 473.953 348.589 468.329 350.653C462.757 352.772 457.436 355.498 452.461 358.782C443.553 364.516 435.436 371.264 426.762 377.255H427.129C435.759 371.365 443.832 364.739 452.651 359.127C457.607 355.866 462.91 353.166 468.463 351.077C474.03 349.038 479.942 348.104 485.867 348.326C487.325 348.482 488.817 348.504 490.265 348.783C491 348.883 491.701 349.094 492.425 349.239C493.149 349.384 493.85 349.629 494.541 349.863C497.331 350.829 499.99 352.138 502.458 353.76C507.356 357.097 511.787 361.074 515.631 365.585C515.697 365.663 515.764 365.73 515.82 365.808L516.21 366.242C517.768 368.057 519.294 369.906 520.764 371.81C520.775 371.454 520.73 371.108 520.664 370.73H520.686Z" fill="white"/>
<path d="M434.378 237.087C406.819 268.967 369.672 325.277 384.849 337.726C409.803 358.192 482.682 370.017 499.406 371.999C506.622 372.868 521.075 325.7 516.254 319.598C511.432 313.496 434.378 309.186 433.855 304.454C433.554 301.771 445.257 278.432 452.784 249.803C461.436 216.799 442.139 228.101 434.378 237.087Z" fill="#AD6359"/>
<path d="M503.627 315.712C503.627 315.712 525.741 315.545 540.206 316.113C548.279 316.424 562.064 318.206 567.887 321.157C576.595 325.555 610.201 349.551 604.566 357.824C599.455 365.307 573.199 341.033 573.199 341.033C573.199 341.033 601.86 363.191 594.055 371.097C586.249 379.003 560.227 347.625 560.227 347.625C560.227 347.625 589.178 371.008 579.835 377.912C572.776 383.09 547.611 356.009 547.611 356.009C547.611 356.009 572.341 376.308 565.315 381.954C557.521 388.19 532.745 364.65 532.745 364.65C512.48 375.986 498.227 373.09 488.205 369.828C485.856 368.993 503.627 315.712 503.627 315.712Z" fill="#AD6359"/>
<path d="M563.778 332.737C567.241 335.22 570.76 337.703 573.989 340.532C577.218 343.36 580.347 346.199 583.309 349.273C590.558 356.8 593.921 362.635 593.665 362.301C587.83 354.295 576.428 344.173 573.199 341.389C569.97 338.605 566.885 335.677 563.667 332.904C563.589 332.782 563.7 332.681 563.778 332.737Z" fill="#263238"/>
<path d="M553.535 344.217C557.81 347.558 562.187 350.742 566.318 354.295C570.449 357.847 576.039 362.969 579.902 366.777C580.192 367.066 579.902 367.623 579.591 367.345C575.582 363.692 569.625 358.704 565.572 355.096C561.518 351.488 557.61 347.736 553.446 344.295C553.379 344.284 553.468 344.162 553.535 344.217Z" fill="#263238"/>
<path d="M542.933 352.479C549.737 357.279 555.649 363.325 561.306 369.394C561.595 369.694 561.306 369.739 560.949 369.449C554.948 363.715 550.271 359.172 542.766 352.747C542.677 352.613 542.822 352.379 542.933 352.479Z" fill="#263238"/>
<path d="M500.52 315.01C510.609 314.943 540.239 314.865 550.305 315.645C559.213 316.324 566.551 318.239 574.023 323.183C590.057 333.784 600.391 346.233 602.974 349.907C604.533 352.134 606.793 355.731 604.733 358.225C602.206 361.254 592.908 358.292 583.098 349.417C582.742 349.094 582.964 348.894 583.332 349.195C597.106 360.33 602.584 359.06 604.021 357.156C604.956 355.92 604.021 353.816 603.219 352.145C601.878 349.782 600.238 347.6 598.342 345.654C592.015 338.885 585.015 332.778 577.452 327.426C569.349 321.377 559.696 317.752 549.615 316.97C539.304 316.124 510.776 316.391 500.476 315.4C500.264 315.333 500.298 315.021 500.52 315.01Z" fill="#263238"/>
<path d="M595.691 366.643C595.123 363.893 593.141 361.376 591.571 359.105C589.664 356.246 587.474 353.586 585.035 351.166C584.935 351.065 584.745 351.166 584.846 351.321C586.923 353.75 588.853 356.301 590.625 358.96C591.567 360.423 592.422 361.94 593.186 363.503C593.91 365.006 594.767 366.743 594.388 368.458C593.676 371.732 589.511 371.654 587.05 370.774C585.456 370.174 583.92 369.429 582.463 368.547C580.477 367.282 578.593 365.864 576.828 364.305C576.684 364.171 576.283 364.227 576.439 364.372C580.113 367.868 587.073 375.139 592.752 372.478C593.841 371.996 594.73 371.151 595.266 370.087C595.803 369.023 595.953 367.806 595.691 366.643Z" fill="#263238"/>
<path d="M503.961 312.85L477.471 372.979C477.471 372.979 384.894 352.079 379.527 334.508C374.16 316.936 403.167 269.924 429.345 240.572C455.09 211.733 458.898 231.297 452.495 253.6C446.093 275.904 435.592 301.615 436.761 303.541C437.931 305.467 503.961 312.85 503.961 312.85Z" fill="#FF9933"/>
<path d="M442.717 283.487C442.65 283.654 442.595 283.832 442.528 283.999C437.385 281.47 431.935 279.621 426.315 278.498C423.406 277.98 420.445 277.815 417.496 278.008C416.761 278.008 416.038 278.164 415.269 278.265C414.501 278.365 413.822 278.487 413.109 278.688C411.662 278.999 410.292 279.556 408.878 279.99C403.421 282.067 398.416 285.174 394.135 289.143L394.837 287.93C398.92 284.324 403.62 281.484 408.711 279.545C410.136 279.1 411.528 278.532 412.998 278.22C413.722 278.02 414.468 277.93 415.225 277.775C415.982 277.619 416.706 277.574 417.452 277.518C420.43 277.318 423.421 277.479 426.36 277.997C432.028 279.108 437.527 280.954 442.717 283.487ZM491.711 312.961L491.077 312.583L488.538 311.079L487.001 310.901C488.115 311.603 489.328 312.315 490.498 312.995L491.132 313.373C494.473 315.322 497.813 317.193 501.243 318.941L501.51 318.328C498.214 316.625 494.952 314.832 491.711 312.961ZM473.639 309.276C472.971 310.389 472.292 311.503 471.602 312.56C470.098 314.943 468.528 317.293 466.858 319.564C466.702 319.776 466.557 319.987 466.401 320.188C464.711 322.471 462.889 324.653 460.945 326.724C458.919 328.874 456.68 330.814 454.264 332.514L453.362 333.149C453.062 333.361 452.728 333.528 452.416 333.717L450.512 334.831C449.199 335.493 447.845 336.069 446.459 336.556C440.842 338.422 434.962 339.373 429.043 339.374C423.153 339.348 417.284 338.68 411.539 337.38C405.738 336.144 400.048 334.463 394.335 332.804C389.269 331.334 384.169 329.853 378.958 328.884C378.958 329.063 378.958 329.241 378.958 329.408C384.114 330.377 389.158 331.869 394.202 333.327C399.903 334.998 405.615 336.668 411.439 337.948C417.259 339.276 423.207 339.963 429.177 339.997C435.162 340 441.109 339.045 446.793 337.169C448.212 336.681 449.596 336.097 450.935 335.421L452.884 334.307C453.213 334.131 453.533 333.938 453.841 333.728L454.765 333.082C457.218 331.365 459.491 329.402 461.547 327.225C463.62 325.006 465.56 322.668 467.359 320.221C467.526 320.01 467.671 319.809 467.816 319.598C469.397 317.438 470.889 315.222 472.27 312.972C473.027 311.792 473.762 310.59 474.497 309.398L473.639 309.276ZM492.48 311.503C492.023 311.859 491.555 312.215 491.077 312.549L490.498 312.961C489.209 313.871 487.858 314.689 486.456 315.411L485.487 315.934C485.164 316.113 484.808 316.235 484.474 316.391L482.447 317.259C481.065 317.758 479.652 318.164 478.216 318.473C474.764 319.212 471.245 319.585 467.715 319.587H466.858C464.765 319.587 462.671 319.42 460.589 319.197C454.713 318.457 448.936 317.072 443.363 315.066C437.796 313.139 432.306 310.768 426.85 308.385C421.419 305.928 415.841 303.812 410.147 302.049C404.435 300.412 398.344 299.521 392.431 300.679C390.55 301.058 388.73 301.691 387.02 302.561C386.908 302.784 386.797 303.018 386.697 303.24C388.527 302.265 390.488 301.56 392.521 301.147C398.333 300.034 404.346 300.902 410.002 302.539C415.663 304.307 421.208 306.427 426.605 308.886C432.061 311.235 437.517 313.618 443.14 315.567C448.767 317.602 454.599 319.017 460.533 319.787C462.493 320.01 464.453 320.155 466.413 320.188C466.702 320.188 466.98 320.188 467.27 320.188C471.009 320.248 474.743 319.897 478.405 319.141C479.869 318.818 481.312 318.405 482.725 317.905L484.797 317.014C485.142 316.859 485.487 316.736 485.821 316.558L486.812 316.023C488.332 315.248 489.792 314.359 491.177 313.362L491.756 312.95C492.335 312.527 492.869 312.082 493.493 311.636L492.48 311.503ZM443.998 229.727C443.519 229.304 443.051 228.892 442.584 228.458L441.982 228.847L443.541 230.239C447.166 233.485 451.038 236.445 455.122 239.091C455.122 238.813 455.122 238.535 455.122 238.267C451.213 235.714 447.502 232.87 444.02 229.76L443.998 229.727ZM450.768 243.089L448.541 243.234C447.806 243.289 447.071 243.234 446.314 243.234H444.087L441.86 243.056C438.915 242.879 436.001 242.364 433.174 241.519C431.939 241.151 430.714 240.728 429.511 240.238L429.244 240.539L428.988 240.829C430.286 241.373 431.613 241.845 432.963 242.243C440.016 244.126 447.381 244.535 454.598 243.445C454.598 243.167 454.676 242.9 454.721 242.621C453.485 242.866 452.137 243.022 450.79 243.122L450.768 243.089ZM485.91 347.825C479.921 347.617 473.949 348.578 468.328 350.653C462.756 352.772 457.435 355.498 452.46 358.782C449.677 360.586 446.96 362.479 444.276 364.427L444.71 364.55C447.316 362.668 449.955 360.853 452.661 359.127C457.617 355.866 462.92 353.166 468.473 351.077C474.04 349.038 479.952 348.104 485.877 348.326C486.645 348.404 487.413 348.449 488.182 348.515L488.393 348.048C487.603 347.981 486.756 347.936 485.932 347.858L485.91 347.825Z" fill="white"/>
<path d="M466.848 363.036C467.75 361.321 468.618 359.606 469.487 357.88C471.231 354.384 472.968 350.88 474.698 347.369C478.128 340.398 481.379 333.338 484.508 326.212C486.301 322.181 488.249 318.195 489.864 314.086C489.883 314.045 489.885 313.997 489.869 313.954C489.854 313.912 489.822 313.877 489.78 313.858C489.739 313.838 489.692 313.836 489.649 313.852C489.606 313.868 489.571 313.9 489.552 313.941C487.626 317.337 485.955 320.889 484.174 324.375C482.392 327.86 480.577 331.312 478.862 334.831C475.448 341.801 472.137 348.827 468.93 355.909C468.028 357.891 467.048 359.851 466.235 361.877C465.812 362.913 465.322 363.915 464.91 364.962C464.498 366.009 464.186 367.078 463.797 368.113C463.792 368.124 463.789 368.136 463.788 368.148C463.788 368.16 463.79 368.172 463.794 368.184C463.798 368.195 463.804 368.205 463.812 368.214C463.82 368.223 463.83 368.23 463.841 368.236C463.852 368.241 463.864 368.244 463.876 368.244C463.888 368.245 463.9 368.243 463.912 368.239C463.923 368.235 463.934 368.228 463.942 368.22C463.951 368.212 463.959 368.202 463.964 368.191C464.866 366.465 465.924 364.795 466.848 363.036Z" fill="#263238"/>
<path d="M479.464 368.848L477.605 373.057L477.549 373.191H477.371C468.608 371.565 459.9 369.616 451.248 367.445C442.596 365.274 434.011 362.813 425.515 360.074C416.989 357.379 408.627 354.189 400.473 350.52C396.381 348.679 392.429 346.543 388.647 344.128C386.76 342.898 384.977 341.516 383.313 339.997C381.599 338.527 380.285 336.646 379.494 334.53C380.479 336.517 381.917 338.245 383.692 339.574C385.449 340.924 387.315 342.127 389.271 343.171C393.138 345.321 397.132 347.236 401.23 348.905C409.414 352.301 417.821 355.196 426.272 357.913C434.724 360.63 443.253 363.158 451.805 365.585C460.357 368.013 468.942 370.418 477.538 372.723L477.315 372.834L479.464 368.848Z" fill="#263238"/>
<path d="M502.903 315.188L503.827 312.794L503.927 312.961C494.641 312.349 485.365 311.603 476.09 310.634C466.814 309.665 457.595 308.607 448.375 307.227C446.07 306.87 443.765 306.492 441.46 306.046C440.346 305.813 439.155 305.59 437.964 305.256C437.663 305.167 437.373 305.078 437.05 304.955C436.865 304.895 436.686 304.816 436.516 304.721C436.386 304.652 436.263 304.57 436.149 304.476C436.029 304.376 435.927 304.255 435.848 304.12C435.802 304.033 435.762 303.944 435.725 303.853C435.719 303.809 435.719 303.763 435.725 303.719C435.681 303.295 435.703 302.867 435.792 302.45C435.848 302.149 435.904 301.826 435.982 301.548C437.162 296.927 438.654 292.562 440.168 288.186C443.197 279.378 446.493 270.682 449.967 262.041C447.284 270.949 444.533 279.857 441.794 288.765C440.48 293.219 439.032 297.673 438.019 302.127C437.952 302.405 437.919 302.661 437.863 302.929C437.808 303.196 437.863 303.508 437.808 303.396C437.752 303.285 437.808 303.396 437.808 303.396C437.795 303.337 437.773 303.281 437.741 303.229C437.741 303.118 437.54 303.007 437.585 303.029C437.63 303.051 437.529 303.029 437.585 303.029L437.863 303.14L438.598 303.374C439.712 303.664 440.825 303.875 441.939 304.098C444.166 304.51 446.493 304.866 448.776 305.211C453.363 305.902 457.958 306.551 462.561 307.16L476.379 309.019C485.588 310.244 494.797 311.558 504.005 312.906H504.172L504.106 313.05L502.903 315.188Z" fill="#263238"/>
<path d="M450.958 267.742C450.304 269.313 449.479 270.807 448.497 272.196C447.574 273.617 446.448 274.896 445.156 275.993C446.003 274.512 446.904 273.109 447.862 271.717C448.792 270.315 449.826 268.987 450.958 267.742Z" fill="#263238"/>
<path d="M477.938 247.175C470.077 249.403 455.913 237.9 450.101 228.313C449.7 227.656 451.281 200.575 451.036 195.175C451.036 194.061 485.265 201.856 485.265 201.856C485.265 201.856 482.448 213.325 482.938 222.734C482.971 223.536 485.521 245.015 477.938 247.175Z" fill="#AD6359"/>
<path d="M450.513 212.134C466.536 223.447 482.147 219.104 482.804 218.904C483.068 213.164 483.862 207.461 485.176 201.867C485.176 201.867 450.88 194.073 450.936 195.186C451.136 197.714 450.858 205.018 450.513 212.134Z" fill="#263238"/>
<path d="M485.098 179.552C485.978 187.547 492.381 193.404 499.385 192.625C506.389 191.846 511.366 184.753 510.52 176.769C509.673 168.785 503.249 162.917 496.233 163.696C489.218 164.476 484.219 171.569 485.098 179.552Z" fill="#455A64"/>
<path d="M481.045 180.51C482.025 189.418 489.14 195.91 496.935 195.052C504.729 194.195 510.297 186.3 509.284 177.403C508.27 168.506 501.2 162.004 493.394 162.861C485.588 163.718 480.065 171.624 481.045 180.51Z" fill="#C7C7C7"/>
<path d="M446.292 154.488C442.551 166.491 448.686 201.255 457.182 209.049C469.509 220.351 489.797 221.543 499.418 206.711C508.749 192.324 499.952 147.172 490.443 140.079C476.446 129.612 451.815 136.772 446.292 154.488Z" fill="#AD6359"/>
<path d="M475.177 176.312C475.177 176.234 475.021 176.457 475.043 176.557C475.555 178.873 475.767 181.624 473.807 182.804C473.74 182.804 473.807 182.96 473.807 182.926C476.357 182.069 476.045 178.428 475.177 176.312Z" fill="#263238"/>
<path d="M472.626 174.274C468.818 174.709 469.965 182.303 473.495 181.902C477.025 181.501 475.822 173.918 472.626 174.274Z" fill="#263238"/>
<path d="M488.695 174.486C488.695 174.397 488.895 174.575 488.906 174.675C489.185 177.036 489.908 179.686 492.146 180.154C492.213 180.154 492.236 180.287 492.146 180.287C489.485 180.31 488.583 176.769 488.695 174.486Z" fill="#263238"/>
<path d="M490.42 171.691C494.161 170.834 495.598 178.372 492.135 179.174C488.672 179.976 487.258 172.437 490.42 171.691Z" fill="#263238"/>
<path d="M469.107 171.257C470.063 170.816 470.992 170.322 471.891 169.776C472.943 169.391 473.839 168.671 474.441 167.727C474.571 167.393 474.588 167.025 474.487 166.68C474.386 166.336 474.174 166.034 473.884 165.823C473.251 165.491 472.54 165.334 471.825 165.369C471.11 165.404 470.418 165.63 469.82 166.023C468.478 166.628 467.41 167.712 466.825 169.063C466.708 169.379 466.685 169.721 466.76 170.049C466.835 170.377 467.004 170.676 467.247 170.909C467.489 171.142 467.795 171.299 468.125 171.361C468.456 171.422 468.797 171.386 469.107 171.257Z" fill="#263238"/>
<path d="M492.825 167.449C491.773 167.397 490.725 167.289 489.685 167.126C488.567 167.168 487.467 166.839 486.556 166.19C486.306 165.93 486.149 165.594 486.111 165.236C486.072 164.877 486.155 164.515 486.344 164.208C486.811 163.664 487.413 163.253 488.089 163.016C488.766 162.779 489.493 162.726 490.197 162.861C491.667 162.922 493.061 163.53 494.105 164.565C494.33 164.812 494.477 165.12 494.53 165.45C494.583 165.78 494.539 166.118 494.403 166.423C494.268 166.729 494.046 166.988 493.766 167.17C493.486 167.352 493.159 167.449 492.825 167.449Z" fill="#263238"/>
<path d="M476.468 198.348C477.114 198.816 477.793 199.462 478.695 199.462C479.568 199.315 480.399 198.984 481.134 198.493C481.147 198.477 481.167 198.467 481.187 198.465C481.208 198.462 481.229 198.469 481.245 198.482C481.262 198.495 481.272 198.514 481.274 198.535C481.276 198.556 481.27 198.577 481.256 198.593C480.992 199.109 480.592 199.542 480.1 199.846C479.607 200.15 479.041 200.314 478.462 200.319C477.964 200.269 477.493 200.071 477.108 199.752C476.724 199.433 476.443 199.006 476.301 198.527C476.201 198.415 476.368 198.282 476.468 198.348Z" fill="#263238"/>
<path d="M477.871 190.944C478.609 191.782 479.512 192.46 480.524 192.933C481.535 193.406 482.634 193.665 483.751 193.694C484.729 193.732 485.707 193.631 486.657 193.393C486.84 193.36 487.019 193.308 487.191 193.237C487.361 193.194 487.528 193.142 487.692 193.081C487.814 193.04 487.92 192.96 487.992 192.854C488.064 192.747 488.1 192.62 488.093 192.491C488.087 192.411 488.068 192.332 488.038 192.257V192.057C487.804 190.242 487.214 187.514 487.214 187.514C487.926 187.748 491.534 188.75 491.334 187.815C489.686 180.02 487.848 171.424 484.563 164.064C484.541 164.015 484.502 163.976 484.454 163.954C484.405 163.932 484.35 163.928 484.299 163.943C484.248 163.957 484.204 163.99 484.174 164.035C484.145 164.079 484.133 164.133 484.14 164.186C485.432 171.702 488.038 178.94 489.463 186.456C488.179 186.08 486.848 185.888 485.51 185.888C485.265 186 486.746 191.133 486.779 191.957C486.786 191.986 486.786 192.017 486.779 192.046C483.795 192.892 481.368 192.324 478.105 190.732C477.86 190.621 477.704 190.776 477.871 190.944Z" fill="#263238"/>
<path d="M485.443 192.636C484.651 194.077 483.5 195.289 482.102 196.155C481.322 196.599 480.424 196.794 479.53 196.712C477.582 196.5 477.303 194.785 477.392 193.26C477.466 192.449 477.635 191.649 477.893 190.877C480.159 192.252 482.803 192.868 485.443 192.636Z" fill="#263238"/>
<path d="M482.091 196.188C481.31 196.633 480.413 196.827 479.519 196.745C477.57 196.533 477.292 194.819 477.381 193.293C479.463 193.159 481.623 194.228 482.091 196.188Z" fill="#FF99BA"/>
<path opacity="0.2" d="M451.993 166.836C450.624 170.288 447.806 178.394 446.203 178.962C444.677 167.694 444.622 157.472 447.417 151.191C448.572 148.598 450.195 146.239 452.205 144.232C452.439 147.25 453.452 163.228 451.993 166.836Z" fill="#263238"/>
<path d="M482.115 150.724C481.161 152.376 479.799 153.756 478.16 154.731C476.52 155.706 474.657 156.243 472.75 156.291C470.809 156.342 468.887 155.896 467.166 154.996C465.445 154.096 463.983 152.771 462.918 151.147C462.912 151.137 462.904 151.128 462.895 151.121C462.885 151.113 462.875 151.108 462.863 151.105C462.852 151.102 462.84 151.101 462.828 151.103C462.817 151.104 462.805 151.108 462.795 151.114C462.785 151.119 462.776 151.127 462.769 151.137C462.762 151.146 462.756 151.157 462.753 151.168C462.75 151.179 462.749 151.191 462.751 151.203C462.752 151.215 462.756 151.226 462.762 151.236C463.73 153.048 465.176 154.561 466.942 155.611C468.709 156.661 470.729 157.208 472.783 157.193C474.796 157.08 476.744 156.439 478.431 155.334C480.117 154.23 481.484 152.702 482.393 150.902C482.417 150.865 482.425 150.82 482.415 150.778C482.406 150.735 482.38 150.697 482.343 150.674C482.306 150.65 482.261 150.642 482.218 150.652C482.175 150.661 482.138 150.687 482.115 150.724Z" fill="#263238"/>
<path d="M505.341 132.808C503.737 129.849 501.137 127.553 498.003 126.327C493.66 124.612 489.307 125.759 484.997 126.995C484.974 126.995 484.951 127.004 484.934 127.021C484.918 127.038 484.908 127.061 484.908 127.084C484.908 127.108 484.918 127.13 484.934 127.147C484.951 127.164 484.974 127.173 484.997 127.173C488.661 126.138 492.447 125.303 496.188 126.438C499.285 127.365 501.967 129.331 503.782 132.006C505.552 134.775 506.267 138.09 505.794 141.343C505.322 144.596 503.695 147.57 501.21 149.722C499.745 150.923 498.05 151.813 496.229 152.336C494.408 152.859 492.5 153.003 490.62 152.762C490.476 152.762 490.409 152.962 490.565 152.984C493.123 153.418 495.751 153.13 498.154 152.153C500.557 151.176 502.641 149.548 504.17 147.452C505.699 145.356 506.613 142.875 506.81 140.288C507.007 137.701 506.479 135.111 505.285 132.808H505.341Z" fill="#263238"/>
<path d="M445.279 161.425C445.279 161.425 437.229 151.08 441.126 143.609C443.353 139.366 452.94 138.197 452.94 138.197C452.94 138.197 455.167 133.286 462.75 130.102C470.333 126.917 480.566 128.788 480.566 128.788C480.566 128.788 487.37 123.131 495.164 125.937C506.032 129.857 507.413 145.123 498.326 151.693C491.935 156.314 481.379 151.793 481.379 151.793C480.488 152.071 472.137 159.331 463.63 152.238C463.63 152.238 458.786 158.34 453.007 155.668C452.46 157.301 451.427 158.728 450.045 159.757C448.664 160.786 447.001 161.368 445.279 161.425Z" fill="#263238"/>
<path d="M453.541 182.826C453.541 182.826 445.535 171.691 440.48 174.575C435.425 177.459 441.594 193.638 447.562 195.732C448.311 196.061 449.12 196.236 449.938 196.246C450.757 196.256 451.569 196.1 452.326 195.788C453.083 195.476 453.77 195.014 454.344 194.43C454.918 193.847 455.369 193.153 455.668 192.391L453.541 182.826Z" fill="#AD6359"/>
<path d="M442.35 179.185C442.25 179.185 442.239 179.307 442.35 179.341C446.57 180.989 448.83 184.842 450.434 188.85C449.165 187.314 447.461 186.49 445.401 188.004C445.29 188.082 445.401 188.249 445.512 188.227C446.246 187.993 447.033 187.99 447.768 188.219C448.503 188.448 449.15 188.898 449.621 189.507C450.413 190.544 451.089 191.664 451.637 192.848C451.837 193.215 452.505 193.004 452.36 192.58V192.48C452.36 187.069 448.096 179.642 442.35 179.185Z" fill="#263238"/>
<path d="M446.871 175.032C446.871 175.032 442.539 157.772 445.913 147.194C449.665 135.435 463.818 123.922 480.543 128.81C480.543 128.81 461.981 131.204 452.961 146.715C448.819 153.842 452.794 174.419 452.794 174.419L446.871 175.032Z" fill="#C7C7C7"/>
<path d="M464.844 180.844C466.536 189.752 461.604 198.148 453.809 199.64C446.015 201.132 438.309 195.186 436.605 186.278C434.902 177.37 439.846 168.974 447.64 167.482C455.435 165.99 463.14 171.958 464.844 180.844Z" fill="#C7C7C7"/>
<path d="M460.634 181.134C462.16 189.117 457.717 196.723 450.713 198.025C443.709 199.328 436.783 193.961 435.258 185.989C433.732 178.016 438.164 170.399 445.168 169.097C452.172 167.794 459.098 173.139 460.634 181.134Z" fill="#455A64"/>
<path d="M18.8076 377.255H155.39L128.154 218.837H26.0231L18.8076 377.255Z" fill="#DBDBDB"/>
<path d="M18.8076 377.255H30.7778L37.5033 218.837H26.0231L18.8076 377.255Z" fill="#A6A6A6"/>
<path d="M99.7582 149.744C87.0754 162.36 83.4343 183.149 83.4343 183.149C83.4343 183.149 71.2748 204.072 74.671 215.441C75.5693 218.664 77.2362 221.622 79.5285 224.059C81.8209 226.497 84.6704 228.343 87.8326 229.437L86.63 223.157C86.63 223.157 90.7055 231.23 104.324 234.481C117.942 237.733 135.958 233.546 145.334 228.803C150.891 226.021 155.632 221.847 159.097 216.688L155.589 225.818C155.589 225.818 168.807 225.351 176.657 211.287C184.507 197.224 161.959 177.014 160.043 172.66C158.128 168.306 155.701 136.582 122.329 142.05C122.374 141.972 108.533 141.058 99.7582 149.744Z" fill="#263238"/>
<path d="M83.0561 228.535C79.582 225.941 76.1524 222.968 74.2372 219.293C72.1488 215.485 71.4072 211.082 72.1327 206.8C73.0569 201.667 75.7627 197.135 78.3906 192.714C81.0184 188.293 84.1808 183.806 86.8198 179.163C86.9645 178.907 86.5748 178.695 86.3966 178.895C83.4316 182.378 80.6657 186.025 78.1122 189.819C75.4998 193.288 73.3024 197.052 71.5648 201.032C69.9406 204.697 69.4071 208.752 70.0281 212.712C70.685 215.931 72.1142 218.943 74.1926 221.487C76.6535 224.549 79.7602 226.509 82.878 228.814C83.0561 228.958 83.2454 228.68 83.0561 228.535Z" fill="#263238"/>
<path d="M179.518 196.745C175.51 185.064 165.043 177.648 158.618 167.46C155.166 161.948 152.482 155.846 147.984 151.058C147.861 150.924 147.639 151.136 147.75 151.269C151.447 155.579 153.585 160.768 156.257 165.745C159.104 170.643 162.432 175.246 166.19 179.485C172.804 187.414 180.721 196.8 179.206 207.902C178.505 213.024 175.476 218.703 170.22 220.295C170.02 220.362 170.143 220.696 170.343 220.607C172.416 219.775 174.297 218.529 175.873 216.946C177.448 215.363 178.685 213.475 179.507 211.399C181.278 206.675 181.282 201.471 179.518 196.745Z" fill="#263238"/>
<path d="M179.997 199.885C180.359 195.461 179.34 191.034 177.08 187.213C174.775 183.45 171.156 180.733 167.537 178.305C163.362 175.533 158.963 172.894 156.313 168.495C156.202 168.306 155.935 168.495 156.035 168.685C160.244 175.945 168.283 179.33 173.662 185.443C179.841 192.424 179.853 202.591 175.599 210.574C172.896 215.441 169.08 219.6 164.464 222.712C164.386 222.712 164.464 222.879 164.553 222.823C172.426 217.656 179.363 209.706 179.997 199.885Z" fill="#263238"/>
<path d="M129.533 253.099C163.328 271.65 203.782 294.934 228.568 289.455C239.559 287.028 288.909 222.333 291.003 214.85C292.795 208.425 248.11 182.559 243.122 187.625C234.704 196.121 211.944 243.957 208.603 244.759C205.263 245.561 176.891 239.804 147.361 234.47C118.944 229.37 106.072 240.227 129.533 253.099Z" fill="#EB9481"/>
<path d="M286.204 222.912C290.057 218.057 305.779 194.251 308.663 186.645C311.547 179.04 318.295 156.581 312.705 153.752C307.116 150.924 304.644 157.327 304.644 157.327C304.644 157.327 305.991 147.383 300.1 145.078C294.21 142.773 290.647 152.873 290.647 152.873C290.647 152.873 291.282 142.562 285.235 140.624C279.189 138.687 277.318 149.532 277.318 149.532C277.318 149.532 278.343 140.134 272.708 140.624C265.938 141.281 266.027 158.83 262.197 166.981C261.328 168.829 241.92 203.259 241.92 203.259L286.204 222.912Z" fill="#EB9481"/>
<path d="M277.451 148.653C277.451 161.558 275.224 167.215 268.543 177.971C268.409 178.172 268.688 178.417 268.855 178.216C276.427 168.284 280.235 161.603 278.119 148.619C277.974 147.985 277.451 148.04 277.451 148.653Z" fill="#263238"/>
<path d="M290.579 151.859C289.465 165.222 287.082 171.413 280.836 183.205C280.747 183.372 281.025 183.539 281.125 183.372C288.218 172.326 291.871 165.556 291.247 152.027C291.28 151.414 290.635 151.247 290.579 151.859Z" fill="#263238"/>
<path d="M304.265 157.917C302.227 170.811 299.934 177.671 292.406 188.338C292.386 188.362 292.372 188.39 292.363 188.42C292.354 188.449 292.351 188.481 292.354 188.512C292.357 188.543 292.366 188.573 292.381 188.6C292.395 188.628 292.415 188.652 292.44 188.672C292.464 188.692 292.492 188.706 292.521 188.715C292.551 188.724 292.583 188.728 292.614 188.724C292.645 188.721 292.675 188.712 292.702 188.697C292.73 188.683 292.754 188.663 292.774 188.639C301.515 178.506 304.443 169.976 304.655 158.017C304.644 157.215 304.399 157.104 304.265 157.917Z" fill="#263238"/>
<path d="M232.355 207.156C232.355 207.156 231.408 191.021 232.566 183.839C233.724 176.657 247.855 151.47 253.422 154.209C260.671 157.761 255.371 173.907 251.741 181.479C251.741 181.479 268.51 189.652 267.218 202.067C265.927 214.483 232.355 207.156 232.355 207.156Z" fill="#EB9481"/>
<path d="M255.136 155.835C259.412 163.841 254.023 173.473 251.039 181.078C250.99 181.188 250.968 181.308 250.976 181.428C250.984 181.548 251.02 181.664 251.083 181.767C251.145 181.87 251.231 181.956 251.334 182.018C251.437 182.08 251.553 182.117 251.673 182.125C258.477 186.022 266.939 193.505 267.663 201.744C267.663 201.795 267.683 201.843 267.719 201.878C267.754 201.914 267.802 201.934 267.852 201.934C267.903 201.934 267.951 201.914 267.986 201.878C268.022 201.843 268.042 201.795 268.042 201.744C268.465 192.836 260.748 184.775 253.032 180.978C256.194 173.183 261.194 163.329 255.259 155.79C255.181 155.757 255.114 155.79 255.136 155.835Z" fill="#263238"/>
<path d="M200.564 242.12L159.888 276.216C159.888 276.216 135.057 263.299 116.717 248.456C98.3778 233.613 118.688 226.397 150.178 231.687C181.668 236.976 200.564 242.12 200.564 242.12Z" fill="#FF9933"/>
<path d="M152.382 248.968C151.229 247.395 149.895 245.964 148.407 244.703C150.054 248.243 152.433 251.393 155.388 253.945C154.59 252.171 153.581 250.5 152.382 248.968ZM116.75 248.478L117.24 248.857C117.563 248.512 117.886 248.144 118.186 247.743C117.674 247.977 117.195 248.222 116.728 248.523L116.75 248.478ZM184.841 248.701C182.916 248.418 180.966 248.359 179.028 248.523C180.846 249.209 182.736 249.683 184.662 249.937C186.586 250.229 188.537 250.292 190.475 250.126C188.651 249.434 186.753 248.956 184.818 248.701H184.841ZM171.222 235.517C171.197 236.26 171.223 237.004 171.3 237.744C171.572 237.076 171.802 236.392 171.991 235.695L171.222 235.517Z" fill="white"/>
<path d="M150.779 268.933C159.053 260.983 167.894 253.6 176.857 246.407C179.396 244.381 181.98 242.398 184.652 240.494C184.73 240.439 184.83 240.494 184.752 240.595C180.543 244.481 176.167 248.189 171.813 251.919C167.459 255.649 163.05 259.379 158.585 262.998C156.057 265.047 153.541 267.096 150.98 269.089C150.824 269.167 150.679 269.033 150.779 268.933Z" fill="#263238"/>
<path d="M177.17 261.729L159.877 276.204C159.877 276.204 135.046 263.299 116.706 248.456C110.192 243.189 108.555 238.891 110.549 235.762L177.17 261.729Z" fill="#263238"/>
<path d="M168.796 377.121H39.1729C39.1729 377.121 67.3334 268.365 93.4005 237.744C93.9795 237.043 94.5808 236.374 95.1821 235.751C95.3046 235.606 95.4159 235.506 95.5384 235.383C97.5563 233.228 99.9057 231.408 102.498 229.994C102.954 229.749 103.411 229.515 103.89 229.315C113.911 224.694 124.534 228.524 132.184 235.072C134.611 237.143 162.092 272.931 164.475 286.527C166.58 298.564 158.451 311.491 158.451 311.491L168.796 377.121Z" fill="#FF9933"/>
<path d="M139.031 306.837C133.512 307.375 128.041 308.324 122.663 309.676C119.991 310.389 117.385 311.213 114.768 312.093C113.465 312.538 112.163 312.939 110.849 313.329C109.481 313.774 108.064 314.05 106.629 314.153C106.602 314.153 106.576 314.163 106.558 314.182C106.539 314.201 106.528 314.226 106.528 314.253C106.528 314.279 106.539 314.305 106.558 314.324C106.576 314.342 106.602 314.353 106.629 314.353C107.988 314.411 109.35 314.373 110.704 314.242C112.008 314.079 113.299 313.826 114.568 313.484C117.285 312.783 119.957 311.97 122.663 311.257C128.119 309.81 133.564 308.362 139.109 307.305C139.171 307.294 139.227 307.26 139.263 307.208C139.3 307.157 139.315 307.094 139.304 307.032C139.294 306.97 139.259 306.914 139.208 306.878C139.157 306.841 139.094 306.827 139.031 306.837Z" fill="#263238"/>
<path d="M152.728 311.614C148.172 311.176 143.596 310.994 139.02 311.068C136.793 311.124 134.466 311.302 132.183 311.536C131.07 311.658 129.956 311.792 128.932 311.937C127.908 312.082 126.571 312.416 125.38 312.56C125.257 312.56 125.257 312.772 125.38 312.761C126.493 312.661 127.663 312.761 128.798 312.705L132.217 312.583C134.444 312.516 136.771 312.46 139.054 312.36C143.619 312.171 148.173 312.026 152.739 311.981C152.984 311.992 152.961 311.636 152.728 311.614Z" fill="#263238"/>
<path d="M81.0858 263.31C80.4734 262.531 79.8498 261.762 79.1706 261.083L78.6918 262.085C79.1372 262.776 79.616 263.455 80.1059 264.112C81.2594 265.674 82.5938 267.094 84.0811 268.343C83.2683 266.562 82.264 264.874 81.0858 263.31ZM96.1292 234.782C95.9024 236.521 95.8651 238.28 96.0179 240.027C96.7096 238.201 97.177 236.298 97.4097 234.359C97.4097 234.069 97.4877 233.769 97.5211 233.479C97.0534 233.891 96.5858 234.326 96.1292 234.782ZM135.469 271.015C134.776 272.839 134.298 274.738 134.044 276.672C133.763 278.6 133.7 280.554 133.855 282.496C134.554 280.675 135.025 278.775 135.258 276.839C135.563 274.914 135.634 272.958 135.469 271.015ZM110.694 333.728C110.008 335.545 109.537 337.436 109.291 339.362C109.008 341.29 108.949 343.244 109.113 345.186C110.436 341.519 110.975 337.616 110.694 333.728ZM68.5811 286.382C67.9012 288.212 67.4306 290.113 67.1781 292.05C66.8947 293.974 66.8349 295.924 67 297.862C67.6814 296.037 68.1485 294.139 68.3918 292.205C68.6837 290.278 68.7472 288.324 68.5811 286.382ZM103.434 278.431C101.51 278.149 99.5592 278.089 97.6213 278.253C99.439 278.939 101.33 279.414 103.256 279.667C105.179 279.959 107.13 280.023 109.068 279.857C107.257 279.152 105.37 278.658 103.445 278.387L103.434 278.431ZM150.067 331.88C148.139 331.597 146.185 331.537 144.244 331.701C147.91 333.025 151.814 333.564 155.702 333.283C153.888 332.595 152.001 332.117 150.078 331.857L150.067 331.88ZM63.0136 326.746C61.1225 326.472 59.2071 326.405 57.3014 326.546H57.19H57.2902C59.0889 327.209 60.9565 327.669 62.8577 327.915C64.7819 328.198 66.7323 328.258 68.6702 328.094C66.8431 327.427 64.9449 326.975 63.0136 326.746ZM111.919 372.723C109.994 372.44 108.044 372.381 106.106 372.545C109.776 373.871 113.684 374.406 117.575 374.115C115.734 373.435 113.821 372.968 111.874 372.723H111.919ZM59.3168 367.089C57.3888 366.806 55.4348 366.746 53.4932 366.91C55.312 367.588 57.2024 368.055 59.1275 368.302C61.0539 368.601 63.01 368.661 64.9511 368.48C63.118 367.8 61.2124 367.333 59.2722 367.089H59.3168ZM113.188 250.75C111.62 251.916 110.189 253.257 108.923 254.747C110.7 253.939 112.381 252.934 113.934 251.752C115.5 250.59 116.92 249.244 118.165 247.743C116.401 248.559 114.732 249.568 113.188 250.75ZM127.062 310.356C125.497 311.506 124.077 312.841 122.831 314.331C124.602 313.527 126.273 312.518 127.808 311.324C129.376 310.177 130.797 308.842 132.04 307.349C130.269 308.164 128.599 309.18 127.062 310.378V310.356ZM78.4134 346.789C76.8396 347.937 75.4145 349.276 74.1709 350.776C75.9356 349.96 77.6048 348.951 79.1483 347.769C80.7136 346.607 82.1441 345.274 83.413 343.794C81.6254 344.584 79.9454 345.598 78.4134 346.812V346.789ZM159.209 294.377C158.057 292.804 156.722 291.372 155.234 290.112C156.881 293.652 159.261 296.802 162.216 299.354C161.416 297.588 160.406 295.924 159.209 294.399V294.377ZM142.629 361.822C141.467 360.256 140.134 358.826 138.654 357.557C139.435 359.345 140.441 361.025 141.649 362.557C142.8 364.125 144.134 365.549 145.624 366.799C144.812 365.035 143.808 363.365 142.629 361.822ZM93.8131 308.774C92.6575 307.204 91.3235 305.773 89.8379 304.51C90.6274 306.295 91.6374 307.975 92.8444 309.509C93.9915 311.08 95.3265 312.505 96.8196 313.752C96.0087 311.984 95.0001 310.315 93.8131 308.774Z" fill="white"/>
<path d="M90.7505 238.59C65.8191 258.689 1.97083 338.338 16.3684 356.744C30.766 375.15 126.461 366.766 154.242 358.058C162.505 355.475 139.967 303.04 131.037 300.624C123.599 298.608 82.3547 310.801 81.5529 308.418C80.651 305.723 91.7415 290.814 105.838 258.511C122.096 221.253 101.763 229.716 90.7505 238.59Z" fill="#EB9481"/>
<path d="M176.078 296.247C195.13 298.474 199.684 301.937 216.754 295.256C227.956 290.88 235.562 296.147 227.366 305.601C214.004 321.067 188.794 323.417 179.831 321.68L176.078 296.247Z" fill="#EB9481"/>
<path d="M122.641 301.292C122.641 301.292 146.28 295.179 166.813 295.513C181.022 295.746 211.866 299.699 232.8 336.567C237.766 345.308 238.645 361.298 225.339 349.929C215.897 341.879 212.344 333.917 205.997 330.232C205.997 330.232 204.695 350.687 195.742 355.33C187.912 359.379 179.804 362.865 171.479 365.764C170.597 364.362 169.808 362.904 169.118 361.399C169.118 361.399 160.344 364.94 146.848 360.029L122.641 301.292Z" fill="#EB9481"/>
<path d="M180.343 297.907C185.91 302.895 197.401 313.652 203.726 325.744C210.808 339.173 220.83 366.944 210.864 372.077C203.559 375.841 198.793 365.563 198.793 365.563C198.793 365.563 200.519 377.923 193.226 379.872C186.545 381.653 183.327 373.48 183.327 373.48C183.327 373.48 183.082 381.152 176.312 381.631C168.161 382.188 170.009 366.042 161.257 359.461C159.286 357.98 180.343 297.907 180.343 297.907Z" fill="#EB9481"/>
<path d="M188.338 330.922C192.792 336.489 199.595 351.633 199.016 365.363C199.016 365.674 198.76 365.83 198.715 365.541C196.627 353.652 193.101 342.06 188.215 331.022C188.202 331.006 188.196 330.985 188.198 330.964C188.2 330.943 188.21 330.924 188.226 330.911C188.243 330.898 188.263 330.891 188.284 330.893C188.305 330.895 188.324 330.906 188.338 330.922Z" fill="#263238"/>
<path d="M174.987 338.405C178.328 343.583 184.663 359.561 183.595 373.424C183.595 373.736 183.316 373.87 183.283 373.58C181.811 361.592 178.983 349.81 174.854 338.46C174.853 338.445 174.858 338.43 174.866 338.417C174.875 338.404 174.887 338.393 174.901 338.387C174.916 338.381 174.932 338.38 174.947 338.383C174.962 338.386 174.976 338.394 174.987 338.405Z" fill="#263238"/>
<path d="M206.031 330.143C211.598 333.483 214.705 337.414 218.847 342.235C220.872 344.65 223.028 346.951 225.305 349.128C227.399 351.076 230.483 354.005 233.623 352.613C235.371 351.834 235.85 349.74 235.995 348.003C236.132 346.05 235.847 344.091 235.16 342.257C235.16 342.168 235.294 342.102 235.327 342.202C236.01 343.819 236.46 345.525 236.663 347.268C236.928 348.907 236.691 350.588 235.984 352.09C234.247 355.163 230.238 354.584 227.722 352.969C226.233 351.938 224.849 350.764 223.591 349.462C222.355 348.248 221.174 346.979 220.027 345.687C217.678 343.015 215.484 340.22 213.168 337.536C210.898 334.977 208.466 332.567 205.886 330.321C205.786 330.232 205.919 330.076 206.031 330.143Z" fill="#263238"/>
<path d="M213.113 354.484C212.456 350.664 207.735 334.251 205.864 330.254C205.853 330.233 205.85 330.209 205.856 330.186C205.862 330.163 205.877 330.143 205.898 330.131C205.919 330.12 205.943 330.116 205.966 330.123C205.989 330.129 206.009 330.144 206.02 330.165C209.55 335.81 214.004 349.517 214.784 353.738C215.563 357.958 216.309 363.18 215.229 367.334C213.603 373.591 209.149 373.703 207.535 373.614C205.627 373.474 203.825 372.689 202.424 371.387C200.828 369.723 199.586 367.753 198.771 365.597C198.771 365.496 198.872 365.407 198.927 365.507C200.464 368.536 203.437 371.91 206.956 372.344C207.735 372.465 208.53 372.429 209.295 372.238C210.06 372.046 210.779 371.704 211.41 371.231C212.731 369.966 213.55 368.265 213.715 366.443C214.2 362.451 213.997 358.406 213.113 354.484Z" fill="#263238"/>
<path d="M183.595 373.424C184.274 374.393 185.399 377.455 188.104 378.747C189.045 379.283 190.103 379.583 191.185 379.619C192.267 379.656 193.343 379.43 194.318 378.959C196.178 377.804 197.516 375.971 198.048 373.848C198.498 371.131 198.74 368.384 198.772 365.63C198.772 365.496 198.939 365.485 198.95 365.63C199.297 368.616 199.192 371.638 198.638 374.594C198.377 375.751 197.886 376.845 197.196 377.811C196.506 378.777 195.629 379.595 194.618 380.217C193.548 380.801 192.336 381.079 191.118 381.018C189.9 380.957 188.722 380.56 187.715 379.872C186.701 379.17 183.762 375.997 183.261 373.502C183.272 373.424 183.561 373.38 183.595 373.424Z" fill="#263238"/>
<path d="M162.114 358.481C162.919 359.373 163.618 360.356 164.197 361.41C164.854 362.523 165.477 363.581 166.067 364.695C167.24 366.945 168.177 369.311 168.862 371.754C169.575 374.204 170.132 376.876 171.813 378.892C172.6 379.888 173.681 380.612 174.902 380.959C176.123 381.307 177.423 381.262 178.617 380.829C179.88 380.327 180.931 379.402 181.59 378.212C182.353 376.929 182.863 375.512 183.093 374.037C183.088 374.023 183.086 374.009 183.088 373.995C183.09 373.98 183.095 373.967 183.103 373.955C183.111 373.943 183.122 373.934 183.135 373.927C183.148 373.92 183.162 373.917 183.176 373.917C183.191 373.917 183.205 373.92 183.218 373.927C183.23 373.934 183.241 373.943 183.249 373.955C183.258 373.967 183.263 373.98 183.265 373.995C183.266 374.009 183.265 374.023 183.26 374.037C183.165 375.375 182.933 376.699 182.569 377.99C182.149 379.15 181.431 380.179 180.487 380.974C179.498 381.729 178.32 382.198 177.083 382.327C175.845 382.457 174.596 382.243 173.472 381.709C170.978 380.595 169.575 378.079 168.706 375.585C167.738 372.812 167.092 369.95 165.989 367.211C165.421 365.764 164.876 364.316 164.185 362.924C163.495 361.532 162.538 360.085 161.958 358.593C161.892 358.503 162.025 358.381 162.114 358.481Z" fill="#263238"/>
<path d="M153.418 361.933C156.938 362.442 160.498 362.617 164.052 362.456C164.163 362.456 164.23 362.779 164.118 362.802C162.357 363.132 160.565 363.27 158.774 363.214C156.958 363.137 155.163 362.788 153.451 362.178C153.306 362.1 153.306 361.911 153.418 361.933Z" fill="#263238"/>
<path d="M44.0839 320.344C50.0364 317.471 56.1876 315.03 62.4901 313.039C68.7268 311.089 75.0984 309.601 81.5533 308.585C85.239 307.973 88.9359 307.538 92.6884 307.082C92.7997 307.082 92.822 307.238 92.6884 307.249C86.2024 308.299 79.7819 309.719 73.4582 311.503C67.1631 313.217 60.9053 315.047 54.6845 316.992C51.1658 318.106 47.6917 319.353 44.2064 320.566C44.0839 320.656 43.9726 320.422 44.0839 320.344Z" fill="#263238"/>
<path d="M38.6611 286.95L91.4301 292.684C91.4301 292.684 104.892 268.187 111.896 245.617C118.9 223.046 99.013 227.433 75.7742 249.313C52.5354 271.194 38.6611 286.95 38.6611 286.95Z" fill="#FF9933"/>
<path d="M38.6611 286.95L91.4301 292.684C91.4301 292.684 104.892 268.187 111.896 245.617C118.9 223.046 99.013 227.433 75.7742 249.313C52.5354 271.194 38.6611 286.95 38.6611 286.95Z" fill="#FF9933"/>
<path d="M96.2181 234.047C96.2235 234.103 96.2235 234.159 96.2181 234.214C95.9355 236.142 95.8757 238.096 96.0399 240.038C96.7317 238.212 97.1991 236.309 97.4318 234.37C97.4318 234.036 97.5209 233.713 97.5543 233.379L96.2181 234.047ZM68.5809 286.382C68.0976 287.597 67.7249 288.853 67.4674 290.134L68.5809 290.246C68.7033 288.961 68.7033 287.667 68.5809 286.382ZM50.2749 274.501L49.7627 275.035C50.3417 275.035 50.8762 275.035 51.5109 274.935C51.0878 274.768 50.6869 274.623 50.2749 274.501ZM97.6322 278.209C97.944 278.331 98.2669 278.454 98.5898 278.554C98.6475 278.409 98.7144 278.267 98.7903 278.131C98.4117 278.142 98.0219 278.164 97.6322 278.209ZM81.0856 263.31C79.9238 261.745 78.5905 260.314 77.1103 259.045C77.8933 260.835 78.8998 262.519 80.1057 264.056C81.2592 265.618 82.5936 267.039 84.0809 268.287C83.2645 266.525 82.2603 264.857 81.0856 263.31Z" fill="white"/>
<path d="M89.292 292.194C89.5815 292.194 91.519 292.194 91.519 292.194C91.7529 291.515 96.296 281.059 97.4095 278.832C99.7033 274.256 102.264 269.802 104.759 265.337C104.837 265.192 105.059 265.337 104.981 265.437C103.222 269.334 101.529 273.231 99.7367 277.151C100.182 276.628 100.627 276.104 101.062 275.57C101.941 274.456 102.743 273.343 103.578 272.162C103.656 272.062 103.812 272.162 103.756 272.285C102.96 273.896 101.952 275.393 100.761 276.739C100.255 277.33 99.7084 277.884 99.1243 278.398C98.9795 278.721 98.8348 279.055 98.6789 279.367C97.5654 281.594 92.0758 292.818 91.8754 292.807L89.3366 292.495C89.1473 292.539 89.1473 292.183 89.292 292.194Z" fill="#263238"/>
<path d="M48.6041 277.986C60.051 278.754 71.4644 280.324 82.811 282.106C86.0327 282.618 89.2322 283.201 92.4094 283.854C92.4984 283.854 92.4984 284.01 92.4094 283.999C86.7082 283.498 81.0182 282.763 75.3282 282.061C69.6382 281.36 63.9037 280.603 58.2137 279.701C55.0068 279.211 51.7888 278.721 48.593 278.175C48.4594 278.186 48.4594 277.975 48.6041 277.986Z" fill="#263238"/>
<path d="M109.257 230.818C109.457 233.134 118.076 249.235 128.398 250.226C131.738 250.538 134.311 232.266 134.311 232.266L134.801 230.963L141.738 212.679L121.583 195.253L118.655 192.914C118.655 192.914 117.085 198.036 115.203 204.439C115.114 204.74 115.014 205.04 114.925 205.352C114.835 205.664 114.702 206.054 114.602 206.388C114.312 207.345 114.011 208.314 113.744 209.294C113.533 210.04 113.321 210.764 113.121 211.521C112.92 212.278 112.72 213.08 112.497 213.859C111.032 219.432 109.95 225.098 109.257 230.818Z" fill="#EB9481"/>
<path d="M115.203 204.439C116.351 210.017 118.698 215.278 122.082 219.858C125.466 224.438 129.806 228.227 134.801 230.963L141.738 212.679L121.584 195.253L118.655 192.914C118.655 192.914 117.085 198.036 115.203 204.439Z" fill="#263238"/>
<path d="M147.839 184.597C149.61 192.391 156.625 197.524 163.506 195.977C170.388 194.429 174.519 186.801 172.748 178.962C170.978 171.123 163.963 166.023 157.081 167.582C150.2 169.141 146.069 176.746 147.839 184.597Z" fill="#455A64"/>
<path d="M143.908 186C145.891 194.718 153.685 200.386 161.346 198.66C169.007 196.934 173.595 188.46 171.624 179.73C169.653 171.001 161.847 165.344 154.197 167.07C146.548 168.796 141.938 177.259 143.908 186Z" fill="#C7C7C7"/>
<path d="M166.424 174.842C175.777 207.858 157.059 217.155 149.933 219.204C143.464 221.03 121.216 226.42 108.5 194.54C95.7834 162.66 108.177 147.873 122.741 142.918C137.306 137.963 157.071 141.816 166.424 174.842Z" fill="#EB9481"/>
<path d="M154.932 170.689C154.148 170.767 153.36 170.8 152.572 170.789C151.743 170.947 150.885 170.826 150.133 170.444C149.919 170.278 149.766 170.047 149.697 169.785C149.629 169.523 149.649 169.246 149.755 168.996C150.039 168.538 150.44 168.163 150.918 167.913C151.396 167.662 151.933 167.544 152.471 167.571C153.568 167.449 154.671 167.739 155.567 168.384C155.76 168.546 155.903 168.759 155.978 169C156.053 169.24 156.057 169.497 155.991 169.74C155.924 169.983 155.788 170.202 155.601 170.37C155.413 170.538 155.181 170.649 154.932 170.689Z" fill="#263238"/>
<path d="M133.165 178.372C133.921 178.138 134.665 177.863 135.392 177.548C136.216 177.366 136.959 176.92 137.507 176.279C137.638 176.041 137.686 175.768 137.646 175.501C137.606 175.233 137.479 174.986 137.285 174.798C136.843 174.487 136.327 174.299 135.788 174.254C135.25 174.209 134.71 174.308 134.223 174.542C133.167 174.859 132.266 175.558 131.695 176.501C131.578 176.724 131.528 176.976 131.55 177.226C131.573 177.477 131.668 177.715 131.823 177.913C131.979 178.111 132.188 178.26 132.426 178.341C132.664 178.422 132.921 178.433 133.165 178.372Z" fill="#263238"/>
<path d="M139.845 184.196C139.845 184.107 139.7 184.352 139.733 184.441C140.446 186.668 140.847 189.34 139.065 190.665C139.009 190.665 139.065 190.81 139.121 190.788C141.481 189.73 140.858 186.167 139.845 184.196Z" fill="#263238"/>
<path d="M137.149 182.414C133.453 183.171 135.234 190.498 138.664 189.797C142.093 189.095 140.245 181.779 137.149 182.414Z" fill="#263238"/>
<path d="M135.803 183.149C135.268 183.728 134.812 184.608 134.066 184.875C133.32 185.142 132.329 184.574 131.571 183.973C131.493 183.917 131.438 183.973 131.46 184.095C131.783 185.498 132.674 186.812 134.233 186.657C135.792 186.501 136.337 185.031 136.337 183.528C136.348 183.249 136.025 182.926 135.803 183.149Z" fill="#263238"/>
<path d="M152.861 180.176C152.861 180.087 153.073 180.243 153.084 180.332C153.552 182.626 154.465 185.176 156.703 185.443C156.77 185.443 156.792 185.565 156.703 185.576C154.12 185.81 152.939 182.414 152.861 180.176Z" fill="#263238"/>
<path d="M154.321 177.325C157.906 176.212 159.888 183.45 156.548 184.507C153.207 185.565 151.325 178.272 154.321 177.325Z" fill="#263238"/>
<path d="M155.99 177.381C156.669 177.604 157.427 178.149 158.128 178.005C158.83 177.86 159.308 176.891 159.609 175.989C159.609 175.9 159.72 175.989 159.743 175.989C160.166 177.37 160.11 178.94 158.841 179.575C157.571 180.209 156.469 179.207 155.756 177.915C155.623 177.737 155.712 177.259 155.99 177.381Z" fill="#263238"/>
<path d="M144.989 202.502C145.635 202.936 146.325 203.615 147.216 203.47C148.068 203.286 148.872 202.925 149.576 202.413C149.59 202.396 149.609 202.386 149.63 202.384C149.651 202.382 149.671 202.388 149.688 202.401C149.704 202.415 149.714 202.434 149.716 202.455C149.718 202.476 149.712 202.497 149.699 202.513C149.458 203.028 149.082 203.468 148.612 203.787C148.142 204.107 147.594 204.293 147.026 204.328C146.529 204.303 146.051 204.129 145.654 203.829C145.257 203.53 144.959 203.118 144.799 202.646C144.721 202.524 144.888 202.446 144.989 202.502Z" fill="#263238"/>
<path d="M152.46 191.188C152.46 191.188 153.786 194.451 154.198 196.043C154.198 196.199 148.719 198.872 145.178 195.598C145.141 195.573 145.116 195.534 145.107 195.49C145.099 195.446 145.109 195.401 145.134 195.364C145.159 195.327 145.197 195.302 145.241 195.293C145.285 195.285 145.331 195.294 145.367 195.32C147.756 196.189 150.361 196.264 152.795 195.531C152.795 195.063 150.323 190.019 150.568 189.964C151.834 189.755 153.122 189.718 154.398 189.852C151.815 182.982 148.162 176.579 145.702 169.687C145.68 169.636 145.678 169.578 145.696 169.526C145.714 169.474 145.751 169.43 145.8 169.404C145.849 169.377 145.906 169.37 145.96 169.383C146.013 169.396 146.06 169.429 146.091 169.475C150.401 175.922 153.541 183.773 156.38 190.799C156.759 191.656 153.207 191.3 152.46 191.188Z" fill="#263238"/>
<path d="M152.784 196.299C152.192 197.777 151.234 199.08 150 200.085C149.307 200.605 148.472 200.901 147.606 200.932C145.702 200.932 145.201 199.362 145.134 197.881C145.107 197.096 145.171 196.312 145.323 195.542C147.665 196.586 150.28 196.852 152.784 196.299Z" fill="#263238"/>
<path d="M150 200.085C149.307 200.605 148.471 200.901 147.606 200.932C145.702 200.932 145.201 199.362 145.134 197.881C147.082 197.535 149.309 198.293 150 200.085Z" fill="#FF99BA"/>
<path d="M110.091 193.438C116.483 193.85 117.218 179.229 117.218 179.229C117.218 179.229 143.942 173.005 144.899 150.868C144.899 150.868 150.389 164.609 164.943 170.088C164.943 170.088 162.526 146.036 143.129 142.517C143.129 142.517 118.877 135.324 106.684 154.966C94.4912 174.608 105.804 193.159 110.091 193.438Z" fill="#263238"/>
<path d="M144.9 149.232C145.428 152.609 145.227 156.06 144.31 159.353C143.445 162.7 141.89 165.829 139.745 168.54C139.219 169.221 138.65 169.868 138.041 170.477L137.15 171.424C136.838 171.713 136.504 171.98 136.17 172.259C135.502 172.793 134.856 173.372 134.166 173.873C133.476 174.375 132.718 174.787 131.939 175.232C131.572 175.443 131.215 175.677 130.825 175.878L129.712 176.412L127.385 177.47C125.781 178.027 124.156 178.494 122.541 178.94C124.044 178.172 125.603 177.559 127.084 176.791L129.255 175.566L130.369 174.954C130.714 174.731 131.037 174.475 131.371 174.23C132.039 173.74 132.707 173.261 133.387 172.793C134.066 172.326 134.611 171.68 135.224 171.179L136.148 170.366L136.972 169.453C137.538 168.868 138.07 168.251 138.564 167.604C140.588 165.023 142.158 162.116 143.208 159.008C143.745 157.448 144.154 155.847 144.432 154.22C144.729 152.573 144.885 150.905 144.9 149.232Z" fill="#263238"/>
<path d="M114.858 193.093C114.858 193.093 105.482 183.973 101.217 187.525C96.9526 191.077 105.404 205.263 111.406 206.265C112.166 206.448 112.956 206.475 113.727 206.345C114.499 206.215 115.236 205.93 115.894 205.508C116.553 205.086 117.119 204.535 117.559 203.888C117.999 203.241 118.303 202.512 118.454 201.744L114.858 193.093Z" fill="#EB9481"/>
<path d="M103.745 191.523C103.724 191.523 103.704 191.531 103.69 191.545C103.675 191.56 103.667 191.58 103.667 191.6C103.667 191.621 103.675 191.641 103.69 191.656C103.704 191.67 103.724 191.678 103.745 191.678C107.987 192.514 110.749 195.765 112.931 199.261C111.484 198.036 109.736 197.547 108.054 199.261C107.965 199.362 108.054 199.495 108.199 199.451C108.849 199.1 109.592 198.959 110.325 199.047C111.059 199.135 111.747 199.447 112.297 199.941C113.211 200.77 114.032 201.696 114.746 202.702C114.991 203.025 115.593 202.702 115.381 202.335L115.325 202.246C114.457 197.302 109.212 190.999 103.745 191.523Z" fill="#263238"/>
<path d="M108.443 188.449C108.443 188.449 102.364 172.248 104.468 161.67C106.807 149.889 121.405 136.449 138.096 141.482C138.096 141.482 118.242 144.455 111.227 160.411C107.998 167.76 114.1 187.213 114.1 187.213L108.443 188.449Z" fill="#C7C7C7"/>
<path d="M117.821 211.54C125.19 209.244 129.042 200.573 126.425 192.17C123.808 183.768 115.713 178.818 108.344 181.113C100.975 183.408 97.1234 192.08 99.7404 200.482C102.357 208.884 110.452 213.835 117.821 211.54Z" fill="#C7C7C7"/>
<path d="M122.407 192.848C124.756 200.397 121.293 208.192 114.612 210.252C107.931 212.312 100.716 207.869 98.3549 200.319C95.9943 192.77 99.4684 184.975 106.149 182.904C112.83 180.833 120.057 185.343 122.407 192.848Z" fill="#455A64"/>
<path d="M134.722 231.074L128.598 246.53L109.334 227.099L103.934 233.379C103.934 233.379 122.863 264.312 122.93 262.909L129.232 249.547L138.452 258.756L137.617 235.573L134.722 231.074Z" fill="#EBEBEB"/>
<path d="M138.732 247.287C138.453 243.467 138.298 239.592 137.852 235.784C137.852 235.651 137.618 235.595 137.585 235.784C136.839 239.481 137.941 254.124 137.941 257.631C137.563 257.23 129.401 249.525 129.323 249.647C127.953 251.763 123.332 261.473 123.02 262.352C120.025 257.442 107.353 238.078 103.823 233.401C103.802 233.38 103.775 233.366 103.745 233.363C103.715 233.359 103.685 233.365 103.66 233.381C103.634 233.396 103.614 233.42 103.603 233.448C103.593 233.476 103.592 233.506 103.601 233.535C106.24 238.724 122.608 264.279 122.842 264.212C125.277 259.632 127.477 254.93 129.434 250.126C130.815 251.808 139.055 260.504 139.077 259.936C139.18 255.717 139.065 251.494 138.732 247.287Z" fill="#263238"/>
<path d="M246.161 128.097C245.493 134.503 243.058 140.596 239.128 145.698C235.198 150.8 229.927 154.71 223.905 156.991C217.882 159.271 211.344 159.834 205.02 158.615C198.697 157.397 192.836 154.445 188.092 150.089L170.699 152.639L179.407 137.607C177.436 132.717 176.603 127.443 176.972 122.184C177.341 116.925 178.901 111.819 181.535 107.253C184.169 102.686 187.807 98.7782 192.174 95.8254C196.541 92.8726 201.523 90.9521 206.742 90.2092C211.962 89.4664 217.281 89.9206 222.299 91.5376C227.317 93.1547 231.901 95.892 235.704 99.5426C239.508 103.193 242.431 107.661 244.252 112.608C246.073 117.555 246.745 122.852 246.217 128.097H246.161Z" fill="white"/>
<path d="M246.161 128.097C245.488 134.506 243.061 140.605 239.146 145.724C237.223 148.281 234.926 150.533 232.332 152.405C229.77 154.347 226.947 155.917 223.947 157.071C220.944 158.245 217.792 158.995 214.582 159.298C212.98 159.444 211.368 159.474 209.761 159.387C208.147 159.349 206.538 159.181 204.951 158.886C198.537 157.731 192.572 154.812 187.725 150.457L188.137 150.579L170.766 153.251L169.508 153.441L170.143 152.327L178.817 137.262V137.863C176.777 132.88 175.91 127.495 176.283 122.124C176.655 116.752 178.258 111.539 180.966 106.885C183.67 102.249 187.389 98.286 191.845 95.2936C196.297 92.3455 201.358 90.4435 206.65 89.7299C211.941 89.0164 217.326 89.51 222.399 91.1737C227.411 92.8861 231.976 95.6977 235.761 99.4024C239.551 103.088 242.456 107.585 244.258 112.555C246.059 117.525 246.71 122.839 246.161 128.097ZM246.161 128.097C246.717 122.863 246.063 117.571 244.25 112.629C242.438 107.687 239.515 103.227 235.706 99.5926C231.898 95.9585 227.306 93.2474 222.285 91.6681C217.263 90.0887 211.946 89.6834 206.743 90.4833C201.589 91.2576 196.679 93.2 192.39 96.1622C188.143 99.1418 184.594 103.01 181.99 107.498C179.428 112.002 177.92 117.028 177.581 122.199C177.242 127.37 178.079 132.55 180.03 137.351L180.153 137.662L179.986 137.941L171.234 152.951L170.61 152.027L188.014 149.588H188.259L188.426 149.755C193.09 154.108 198.873 157.077 205.129 158.329C206.682 158.641 208.256 158.831 209.839 158.897C211.422 159.008 213.011 159.008 214.594 158.897C217.768 158.649 220.893 157.964 223.88 156.859C226.884 155.777 229.71 154.254 232.265 152.338C234.876 150.479 237.183 148.225 239.102 145.657C243.028 140.566 245.471 134.489 246.161 128.097Z" fill="#263238"/>
<path d="M226.765 129.745C229.089 129.745 230.974 127.861 230.974 125.536C230.974 123.212 229.089 121.327 226.765 121.327C224.44 121.327 222.556 123.212 222.556 125.536C222.556 127.861 224.44 129.745 226.765 129.745Z" fill="#263238"/>
<path d="M211.677 129.745C214.001 129.745 215.886 127.861 215.886 125.536C215.886 123.212 214.001 121.327 211.677 121.327C209.352 121.327 207.468 123.212 207.468 125.536C207.468 127.861 209.352 129.745 211.677 129.745Z" fill="#263238"/>
<path d="M196.6 129.745C198.924 129.745 200.809 127.861 200.809 125.536C200.809 123.212 198.924 121.327 196.6 121.327C194.275 121.327 192.391 123.212 192.391 125.536C192.391 127.861 194.275 129.745 196.6 129.745Z" fill="#263238"/>
<path d="M591.927 128.097C591.259 134.503 588.824 140.596 584.893 145.698C580.963 150.8 575.693 154.71 569.67 156.991C563.648 159.272 557.11 159.834 550.786 158.615C544.462 157.397 538.601 154.445 533.858 150.089L516.465 152.639L525.161 137.607C523.182 132.715 522.343 127.436 522.707 122.171C523.071 116.907 524.628 111.794 527.262 107.221C529.896 102.648 533.536 98.734 537.907 95.7767C542.277 92.8194 547.264 90.896 552.489 90.1524C557.713 89.4087 563.039 89.8643 568.061 91.4847C573.084 93.105 577.671 95.8475 581.476 99.5043C585.281 103.161 588.204 107.636 590.022 112.59C591.84 117.544 592.507 122.847 591.971 128.097H591.927Z" fill="white"/>
<path d="M591.926 128.097C591.248 134.505 588.821 140.603 584.911 145.724C583.933 146.992 582.881 148.2 581.76 149.343C580.6 150.453 579.373 151.491 578.085 152.45C575.527 154.396 572.703 155.967 569.701 157.115C566.702 158.29 563.554 159.04 560.347 159.342C558.741 159.489 557.126 159.519 555.515 159.431C553.9 159.392 552.292 159.225 550.704 158.93C544.297 157.754 538.343 154.815 533.512 150.445L533.924 150.568L516.553 153.24L515.295 153.43L515.93 152.316L524.582 137.25V137.852C522.543 132.869 521.675 127.485 522.046 122.114C522.417 116.743 524.016 111.529 526.719 106.874C529.428 102.237 533.151 98.2744 537.61 95.2825C542.061 92.3344 547.123 90.4323 552.414 89.7188C557.706 89.0053 563.09 89.4988 568.164 91.1625C573.176 92.8736 577.742 95.6853 581.526 99.3913C585.32 103.077 588.227 107.575 590.029 112.548C591.83 117.521 592.479 122.837 591.926 128.097ZM591.926 128.097C592.482 122.863 591.828 117.571 590.015 112.629C588.203 107.686 585.28 103.227 581.471 99.5925C577.663 95.9585 573.071 93.2474 568.05 91.668C563.028 90.0887 557.711 89.6834 552.508 90.4833C547.354 91.2576 542.444 93.2 538.155 96.1621C533.908 99.1418 530.359 103.01 527.755 107.498C525.175 112 523.652 117.03 523.301 122.207C522.974 127.374 523.807 132.548 525.74 137.351L525.873 137.662L525.706 137.941L516.954 152.951L516.33 152.027L533.735 149.588H533.98L534.147 149.755C538.795 154.099 544.558 157.067 550.793 158.329C552.346 158.641 553.921 158.831 555.504 158.897C557.086 159.008 558.675 159.008 560.258 158.897C563.433 158.649 566.558 157.964 569.545 156.859C572.548 155.775 575.373 154.252 577.929 152.338C580.534 150.475 582.837 148.222 584.755 145.657C588.726 140.581 591.208 134.502 591.926 128.097Z" fill="#263238"/>
<path d="M572.474 129.745C574.798 129.745 576.683 127.861 576.683 125.536C576.683 123.212 574.798 121.327 572.474 121.327C570.149 121.327 568.265 123.212 568.265 125.536C568.265 127.861 570.149 129.745 572.474 129.745Z" fill="#263238"/>
<path d="M557.397 129.745C559.721 129.745 561.606 127.861 561.606 125.536C561.606 123.212 559.721 121.327 557.397 121.327C555.072 121.327 553.188 123.212 553.188 125.536C553.188 127.861 555.072 129.745 557.397 129.745Z" fill="#263238"/>
<path d="M546.529 125.536C546.532 126.369 546.287 127.184 545.825 127.878C545.364 128.571 544.708 129.113 543.939 129.433C543.17 129.753 542.323 129.838 541.506 129.677C540.689 129.516 539.938 129.116 539.348 128.528C538.758 127.939 538.356 127.189 538.193 126.373C538.03 125.556 538.112 124.709 538.431 123.939C538.749 123.17 539.288 122.511 539.981 122.049C540.673 121.586 541.487 121.338 542.32 121.338C543.435 121.338 544.504 121.78 545.293 122.567C546.082 123.354 546.526 124.422 546.529 125.536Z" fill="#263238"/>
<path d="M188.616 374.538H181.167V379.404H188.616V374.538Z" fill="#455A64"/>
<path d="M198.281 374.215H190.832V379.081H198.281V374.215Z" fill="#455A64"/>
<path d="M207.946 373.892H200.497V378.758H207.946V373.892Z" fill="#455A64"/>
<path d="M217.601 373.569H210.151V378.435H217.601V373.569Z" fill="#455A64"/>
<path d="M227.266 373.246H219.816V378.112H227.266V373.246Z" fill="#455A64"/>
<path d="M236.931 372.935H229.481V377.801H236.931V372.935Z" fill="#455A64"/>
<path d="M246.585 372.612H239.136V377.478H246.585V372.612Z" fill="#455A64"/>
<path d="M256.25 372.289H248.801V377.155H256.25V372.289Z" fill="#455A64"/>
<path d="M265.904 371.966H258.455V376.832H265.904V371.966Z" fill="#455A64"/>
<path d="M267.731 382.199H179.341V376.275L267.731 373.814V382.199Z" fill="#37474F"/>
<path d="M354.004 358.86H208.091L231.296 250.226H377.21L354.004 358.86Z" fill="#455A64"/>
<path d="M359.406 358.86H213.481L236.687 250.226H382.611L359.406 358.86Z" fill="#37474F"/>
<path d="M310.657 298.252C310.209 300.725 308.927 302.97 307.024 304.611C305.121 306.253 302.713 307.192 300.201 307.271C299.067 307.306 297.941 307.084 296.905 306.622C295.87 306.159 294.953 305.467 294.223 304.599C293.494 303.731 292.97 302.709 292.692 301.61C292.414 300.511 292.389 299.362 292.618 298.252C293.061 295.778 294.34 293.531 296.241 291.887C298.142 290.243 300.551 289.302 303.063 289.221C304.198 289.184 305.327 289.405 306.365 289.868C307.403 290.33 308.322 291.022 309.053 291.892C309.784 292.762 310.309 293.786 310.587 294.887C310.864 295.989 310.888 297.14 310.657 298.252Z" fill="#263238"/>
<path d="M318.139 387.232H246.374V381.653L318.139 379.337V387.232Z" fill="#455A64"/>
<path d="M337.648 387.221H299.11L275.904 326.346H314.443L337.648 387.221Z" fill="#455A64"/>
<path d="M343.983 387.221H305.455L282.25 326.346H320.777L343.983 387.221Z" fill="#263238"/>
<path d="M176.59 388.713H102.632C96.318 388.713 105.449 370.73 128.498 363.837C151.548 356.945 183.884 381.965 176.59 388.713Z" fill="#37474F"/>
<path d="M147.64 388.713C147.689 386.664 148.027 384.633 148.642 382.678C149.236 380.701 150.069 378.805 151.125 377.032C152.183 375.248 153.509 373.637 155.056 372.255C156.59 370.884 158.354 369.795 160.267 369.037C159.476 369.683 158.574 370.151 157.85 370.852L156.737 371.821L155.69 372.935C154.322 374.367 153.123 375.951 152.116 377.656C151.092 379.361 150.213 381.149 149.488 383.001C148.745 384.861 148.128 386.77 147.64 388.713Z" fill="#263238"/>
<path d="M156.348 371.598C160.749 372.991 164.913 375.045 168.696 377.689C170.611 379.012 172.345 380.581 173.852 382.355C175.433 384.119 176.395 386.352 176.591 388.713C175.978 386.536 174.803 384.558 173.184 382.978C171.606 381.371 169.88 379.917 168.028 378.636C166.191 377.311 164.265 376.119 162.305 374.95C160.345 373.781 158.374 372.678 156.348 371.598Z" fill="#263238"/>
<path d="M530.306 374.538H522.856V379.404H530.306V374.538Z" fill="#455A64"/>
<path d="M539.972 374.215H532.522V379.081H539.972V374.215Z" fill="#455A64"/>
<path d="M549.637 373.892H542.188V378.758H549.637V373.892Z" fill="#455A64"/>
<path d="M559.291 373.569H551.842V378.435H559.291V373.569Z" fill="#455A64"/>
<path d="M568.955 373.246H561.506V378.112H568.955V373.246Z" fill="#455A64"/>
<path d="M578.621 372.935H571.172V377.801H578.621V372.935Z" fill="#455A64"/>
<path d="M588.275 372.612H580.826V377.478H588.275V372.612Z" fill="#455A64"/>
<path d="M597.94 372.289H590.49V377.155H597.94V372.289Z" fill="#455A64"/>
<path d="M607.606 371.966H600.156V376.832H607.606V371.966Z" fill="#455A64"/>
<path d="M609.431 382.199H521.041V376.275L609.431 373.814V382.199Z" fill="#37474F"/>
<path d="M695.695 358.86H549.781L572.987 250.226H718.9L695.695 358.86Z" fill="#455A64"/>
<path d="M701.095 358.86H555.182L578.387 250.226H724.301L701.095 358.86Z" fill="#37474F"/>
<path d="M652.345 298.252C651.898 300.723 650.618 302.966 648.717 304.608C646.816 306.249 644.411 307.189 641.901 307.271C640.766 307.308 639.638 307.087 638.602 306.625C637.565 306.163 636.646 305.472 635.915 304.604C635.184 303.736 634.66 302.713 634.381 301.613C634.102 300.513 634.077 299.363 634.307 298.252C634.751 295.779 636.031 293.533 637.932 291.889C639.833 290.246 642.24 289.304 644.751 289.221C645.887 289.184 647.016 289.405 648.054 289.868C649.091 290.33 650.011 291.022 650.742 291.892C651.473 292.762 651.997 293.786 652.275 294.887C652.553 295.989 652.577 297.14 652.345 298.252Z" fill="#263238"/>
<path d="M659.83 387.232H588.064V381.653L659.83 379.337V387.232Z" fill="#455A64"/>
<path d="M679.338 387.221H640.799L617.594 326.346H656.132L679.338 387.221Z" fill="#455A64"/>
<path d="M685.684 387.221H647.146L623.94 326.346H662.479L685.684 387.221Z" fill="#263238"/>
<path d="M518.314 388.713H444.322C438.008 388.713 447.139 370.73 470.189 363.837C493.238 356.945 525.574 381.965 518.314 388.713Z" fill="#37474F"/>
<path d="M489.273 388.713C489.328 386.665 489.665 384.634 490.276 382.678C490.874 380.703 491.708 378.808 492.759 377.032C493.824 375.253 495.149 373.643 496.689 372.255C498.223 370.884 499.988 369.795 501.901 369.037C501.11 369.683 500.208 370.151 499.484 370.852L498.371 371.821L497.324 372.935C495.949 374.364 494.746 375.948 493.739 377.656C492.715 379.361 491.835 381.149 491.111 383.001C490.372 384.862 489.758 386.77 489.273 388.713Z" fill="#263238"/>
<path d="M498.037 371.598C502.438 372.991 506.602 375.045 510.386 377.689C512.302 379.015 514.039 380.583 515.553 382.355C517.129 384.107 518.097 386.321 518.314 388.668C517.697 386.49 516.518 384.513 514.896 382.934C513.318 381.327 511.592 379.873 509.74 378.591C507.914 377.266 505.976 376.075 504.017 374.905C502.057 373.736 500.075 372.678 498.037 371.598Z" fill="#263238"/>
</svg>
