<svg width="19" height="19" viewBox="0 0 19 19" fill="none" xmlns="http://www.w3.org/2000/svg">
<path d="M7.125 17.2188H4.75C4.67126 17.2188 4.59575 17.25 4.54008 17.3057C4.4844 17.3614 4.45312 17.4369 4.45312 17.5156C4.45312 17.5944 4.4844 17.6699 4.54008 17.7255C4.59575 17.7812 4.67126 17.8125 4.75 17.8125H7.125C7.20374 17.8125 7.27925 17.7812 7.33492 17.7255C7.3906 17.6699 7.42188 17.5944 7.42188 17.5156C7.42188 17.4369 7.3906 17.3614 7.33492 17.3057C7.27925 17.25 7.20374 17.2188 7.125 17.2188Z" fill="white"/>
<path d="M17.3672 5.9375H11.2812V1.33594C11.2809 1.06045 11.1714 0.796342 10.9766 0.601546C10.7818 0.40675 10.5177 0.297179 10.2422 0.296875H1.63281C1.35733 0.297179 1.09322 0.40675 0.898421 0.601546C0.703625 0.796342 0.594054 1.06045 0.59375 1.33594V17.6641C0.594054 17.9395 0.703625 18.2037 0.898421 18.3985C1.09322 18.5933 1.35733 18.7028 1.63281 18.7031H10.2422C10.5177 18.7028 10.7818 18.5933 10.9766 18.3985C11.1714 18.2037 11.2809 17.9395 11.2812 17.6641V13.3594H17.3672C17.6427 13.3591 17.9068 13.2495 18.1016 13.0547C18.2964 12.8599 18.4059 12.5958 18.4062 12.3203V6.97656C18.4059 6.70108 18.2964 6.43697 18.1016 6.24217C17.9068 6.04737 17.6427 5.9378 17.3672 5.9375ZM7.33838 0.890625L7.18994 1.48438H4.68506L4.53662 0.890625H7.33838ZM10.6875 17.6641C10.6874 17.7821 10.6405 17.8953 10.557 17.9788C10.4735 18.0623 10.3603 18.1093 10.2422 18.1094H1.63281C1.51474 18.1093 1.40153 18.0623 1.31804 17.9788C1.23455 17.8953 1.1876 17.7821 1.1875 17.6641V1.33594C1.1876 1.21786 1.23455 1.10465 1.31804 1.02116C1.40153 0.937672 1.51474 0.890723 1.63281 0.890625H3.92432L4.16516 1.85324C4.18121 1.91747 4.21827 1.97449 4.27045 2.01523C4.32262 2.05598 4.38692 2.07811 4.45312 2.07812H7.42188C7.48808 2.07811 7.55238 2.05598 7.60455 2.01523C7.65673 1.97449 7.69379 1.91747 7.70984 1.85324L7.95068 0.890625H10.2422C10.3603 0.890723 10.4735 0.937672 10.557 1.02116C10.6405 1.10465 10.6874 1.21786 10.6875 1.33594V17.6641ZM11.2812 10.3906H12.1719V11.5781H11.2812V10.3906ZM17.8125 12.3203C17.8124 12.4384 17.7655 12.5516 17.682 12.6351C17.5985 12.7186 17.4853 12.7655 17.3672 12.7656H11.2812V12.1719H12.4688C12.5475 12.1719 12.623 12.1406 12.6787 12.0849C12.7343 12.0292 12.7656 11.9537 12.7656 11.875V10.0938C12.7656 10.015 12.7343 9.9395 12.6787 9.88383C12.623 9.82815 12.5475 9.79688 12.4688 9.79688H11.2812V8.90625H17.8125V12.3203ZM17.8125 8.3125H11.2812V7.71875H17.8125V8.3125ZM17.8125 7.125H11.2812V6.53125H17.3672C17.4853 6.53135 17.5985 6.5783 17.682 6.66179C17.7655 6.74528 17.8124 6.85849 17.8125 6.97656V7.125Z" fill="white"/>
<path d="M16.9219 9.79688H14.25C14.1713 9.79688 14.0958 9.82815 14.0401 9.88383C13.9844 9.9395 13.9531 10.015 13.9531 10.0938C13.9531 10.1725 13.9844 10.248 14.0401 10.3037C14.0958 10.3593 14.1713 10.3906 14.25 10.3906H16.9219C17.0006 10.3906 17.0761 10.3593 17.1318 10.3037C17.1875 10.248 17.2188 10.1725 17.2188 10.0938C17.2188 10.015 17.1875 9.9395 17.1318 9.88383C17.0761 9.82815 17.0006 9.79688 16.9219 9.79688Z" fill="white"/>
<path d="M16.9219 10.6875H14.25C14.1713 10.6875 14.0958 10.7188 14.0401 10.7745C13.9844 10.8301 13.9531 10.9056 13.9531 10.9844C13.9531 11.0631 13.9844 11.1386 14.0401 11.1943C14.0958 11.25 14.1713 11.2812 14.25 11.2812H16.9219C17.0006 11.2812 17.0761 11.25 17.1318 11.1943C17.1875 11.1386 17.2188 11.0631 17.2188 10.9844C17.2188 10.9056 17.1875 10.8301 17.1318 10.7745C17.0761 10.7188 17.0006 10.6875 16.9219 10.6875Z" fill="white"/>
<path d="M16.9219 11.5781H15.7344C15.6556 11.5781 15.5801 11.6094 15.5245 11.6651C15.4688 11.7208 15.4375 11.7963 15.4375 11.875C15.4375 11.9537 15.4688 12.0292 15.5245 12.0849C15.5801 12.1406 15.6556 12.1719 15.7344 12.1719H16.9219C17.0006 12.1719 17.0761 12.1406 17.1318 12.0849C17.1875 12.0292 17.2188 11.9537 17.2188 11.875C17.2188 11.7963 17.1875 11.7208 17.1318 11.6651C17.0761 11.6094 17.0006 11.5781 16.9219 11.5781Z" fill="white"/>
<path d="M5.9375 5.9375C5.2329 5.9375 4.54413 6.14644 3.95828 6.53789C3.37243 6.92934 2.91582 7.48573 2.64618 8.13669C2.37654 8.78765 2.30599 9.50395 2.44345 10.195C2.58091 10.8861 2.92021 11.5208 3.41843 12.0191C3.91666 12.5173 4.55143 12.8566 5.24249 12.994C5.93355 13.1315 6.64985 13.061 7.30081 12.7913C7.95177 12.5217 8.50815 12.0651 8.89961 11.4792C9.29106 10.8934 9.49999 10.2046 9.49999 9.5C9.49893 8.55549 9.12326 7.64997 8.45539 6.9821C7.78752 6.31423 6.88201 5.93856 5.9375 5.9375ZM5.9375 12.4687C5.35034 12.4687 4.77636 12.2946 4.28815 11.9684C3.79994 11.6422 3.41943 11.1786 3.19473 10.6361C2.97004 10.0936 2.91124 9.4967 3.02579 8.92082C3.14034 8.34494 3.42309 7.81596 3.83828 7.40078C4.25346 6.98559 4.78244 6.70284 5.35832 6.58829C5.9342 6.47374 6.53112 6.53253 7.07359 6.75723C7.61606 6.98193 8.07971 7.36244 8.40592 7.85065C8.73213 8.33886 8.90625 8.91283 8.90625 9.5C8.90535 10.2871 8.59229 11.0417 8.03573 11.5982C7.47918 12.1548 6.72458 12.4678 5.9375 12.4687Z" fill="white"/>
<path d="M7.50882 8.39946L5.61276 10.2955L4.63125 9.55939C4.56826 9.51215 4.48909 9.49186 4.41114 9.503C4.3332 9.51413 4.26287 9.55577 4.21563 9.61876C4.16838 9.68175 4.1481 9.76093 4.15923 9.83887C4.17037 9.91682 4.21201 9.98715 4.275 10.0344L5.4625 10.925C5.51967 10.9679 5.59039 10.9887 5.66167 10.9836C5.73296 10.9786 5.80002 10.948 5.85055 10.8974L7.92868 8.81931C7.98436 8.76364 8.01563 8.68812 8.01563 8.60938C8.01563 8.53065 7.98436 8.45513 7.92868 8.39946C7.873 8.34378 7.79749 8.3125 7.71875 8.3125C7.64001 8.3125 7.5645 8.34378 7.50882 8.39946Z" fill="white"/>
</svg>
