<svg width="517" height="490" viewBox="0 0 517 490" fill="none" xmlns="http://www.w3.org/2000/svg">
<path d="M109.542 129.463H141.104V116.125H109.542V129.463Z" fill="#D1E6FF"/>
<path d="M409.126 99.7242L331.936 99.2236L332.579 0.124695L389.9 0.494197L409.782 0.625313L409.663 19.5058L409.126 99.7242Z" fill="#D1E6FF"/>
<path d="M339.978 19.378L402.864 19.7841L402.881 17.2333L339.995 16.8272L339.978 19.378Z" fill="#407BFF"/>
<path d="M339.952 25.7257L402.838 26.1428L402.855 23.5921L339.969 23.175L339.952 25.7257Z" fill="#407BFF"/>
<path d="M339.895 32.228L402.781 32.6341L402.798 30.0834L339.912 29.6773L339.895 32.228Z" fill="#407BFF"/>
<path d="M339.864 38.6411L402.75 39.0472L402.766 36.5084L339.88 36.1023L339.864 38.6411Z" fill="#407BFF"/>
<path d="M339.83 45.0009L402.716 45.418L402.733 42.8673L339.847 42.4502L339.83 45.0009Z" fill="#407BFF"/>
<path d="M340.154 49.9332L403.041 50.5621L403.067 48.0113L340.179 47.3824L340.154 49.9332Z" fill="#407BFF"/>
<path d="M339.748 57.8391L402.634 58.2562L402.651 55.7055L339.765 55.2884L339.748 57.8391Z" fill="#407BFF"/>
<path d="M339.707 64.2642L402.593 64.6813L402.61 62.1306L339.724 61.7135L339.707 64.2642Z" fill="#407BFF"/>
<path d="M339.666 70.6892L402.552 71.1063L402.569 68.5555L339.683 68.1385L339.666 70.6892Z" fill="#407BFF"/>
<path d="M339.601 77.1913L402.487 77.5974L402.504 75.0586L339.618 74.6525L339.601 77.1913Z" fill="#407BFF"/>
<path d="M339.584 83.5274L402.47 83.9445L402.487 81.3937L339.601 80.9767L339.584 83.5274Z" fill="#407BFF"/>
<path d="M339.544 89.9524L402.43 90.3695L402.447 87.8307L339.561 87.4136L339.544 89.9524Z" fill="#407BFF"/>
<path d="M421.118 131.585L345.548 115.768L365.859 18.7668L421.964 30.5076L437.555 53.0712L421.118 131.585Z" fill="#D1E6FF"/>
<path d="M421.964 30.5075L437.554 53.0712L418.102 48.9947L421.964 30.5075Z" fill="#407BFF"/>
<path d="M369.319 39.0611L411.329 47.8605L411.85 45.3755L369.839 36.5761L369.319 39.0611Z" fill="#407BFF"/>
<path d="M368.005 45.3422L410.016 54.1417L410.536 51.6567L368.526 42.8573L368.005 45.3422Z" fill="#407BFF"/>
<path d="M366.679 51.6328L408.689 60.4322L409.212 57.9356L367.202 49.1362L366.679 51.6328Z" fill="#407BFF"/>
<path d="M365.37 57.9108L426.922 70.8032L427.445 68.3066L365.893 55.4142L365.37 57.9108Z" fill="#407BFF"/>
<path d="M362.825 66.3782L424.455 78.9556L424.965 76.4559L363.336 63.8784L362.825 66.3782Z" fill="#407BFF"/>
<path d="M362.742 70.4944L424.294 83.3868L424.817 80.8902L363.265 67.9978L362.742 70.4944Z" fill="#407BFF"/>
<path d="M361.43 76.7755L422.981 89.668L423.504 87.1714L361.953 74.2789L361.43 76.7755Z" fill="#407BFF"/>
<path d="M358.782 85.1971L420.412 97.7746L420.92 95.2865L359.29 82.709L358.782 85.1971Z" fill="#407BFF"/>
<path d="M358.791 89.3449L420.343 102.237L420.866 99.7407L359.314 86.8483L358.791 89.3449Z" fill="#407BFF"/>
<path d="M357.477 95.6378L419.028 108.53L419.551 106.034L358 93.1412L357.477 95.6378Z" fill="#407BFF"/>
<path d="M356.151 101.917L417.703 114.809L418.226 112.312L356.674 99.42L356.151 101.917Z" fill="#407BFF"/>
<path d="M354.85 108.209L416.401 121.102L416.922 118.617L355.37 105.724L354.85 108.209Z" fill="#407BFF"/>
<path d="M121.927 103.086L213.731 104.587L214.673 43.1899L122.868 41.688L121.927 103.086Z" fill="#97C2F4"/>
<path d="M125.8 99.3308L209.987 100.702L210.798 46.9445L126.61 45.5738L125.8 99.3308Z" fill="white"/>
<path d="M133.989 62.4519C133.958 64.2649 134.466 66.0462 135.448 67.5705C136.43 69.0948 137.843 70.2935 139.506 71.015C141.17 71.7365 143.01 71.9483 144.794 71.6238C146.578 71.2992 148.226 70.4528 149.529 69.1917C150.831 67.9305 151.731 66.3112 152.113 64.5387C152.496 62.7662 152.344 60.9201 151.677 59.234C151.01 57.5478 149.858 56.0974 148.366 55.0662C146.875 54.0349 145.111 53.4693 143.298 53.4407C140.869 53.4025 138.524 54.3301 136.778 56.0197C135.033 57.7094 134.029 60.0229 133.989 62.4519Z" fill="#407BFF"/>
<path d="M151.939 99.8434L209.928 100.785L181.571 61.0096L151.939 99.8434Z" fill="#407BFF"/>
<path d="M129.208 99.4857L177.077 100.26L153.56 74.2878L129.208 99.4857Z" fill="#D1E6FF"/>
<path d="M88.1462 147.45L177.626 126.865L163.787 67.0289L74.3076 87.6139L88.1462 147.45Z" fill="#97C2F4"/>
<path d="M91.0059 142.873L173.048 123.992L160.926 71.6179L78.8838 90.4865L91.0059 142.873Z" fill="white"/>
<path d="M90.0644 105.112C90.4718 106.879 91.394 108.485 92.7145 109.727C94.0349 110.97 95.6942 111.793 97.4825 112.092C99.2708 112.392 101.108 112.154 102.761 111.409C104.414 110.665 105.809 109.446 106.77 107.909C107.731 106.371 108.214 104.583 108.158 102.77C108.102 100.958 107.51 99.2031 106.457 97.7273C105.404 96.2514 103.936 95.1211 102.24 94.4794C100.545 93.8376 98.6965 93.7132 96.93 94.1219C95.7563 94.3903 94.6471 94.8878 93.6661 95.586C92.6852 96.2842 91.8518 97.1693 91.2139 98.1904C90.5759 99.2115 90.146 100.349 89.9487 101.536C89.7515 102.724 89.7908 103.939 90.0644 105.112Z" fill="#407BFF"/>
<path d="M116.503 137.092L173.013 124.076L135.944 92.2864L116.503 137.092Z" fill="#407BFF"/>
<path d="M94.3438 142.205L141.009 131.466L111.937 111.894L94.3438 142.205Z" fill="#97C2F4"/>
<path d="M258.129 489.578C400.547 489.578 516 477.058 516 461.613C516 446.168 400.547 433.647 258.129 433.647C115.711 433.647 0.258789 446.168 0.258789 461.613C0.258789 477.058 115.711 489.578 258.129 489.578Z" fill="#D1E6FF"/>
<path d="M0 295.884L64.5323 295.586L129.065 295.49L258.129 295.288L387.194 295.478L451.726 295.586L516.258 295.884L451.726 296.17L387.194 296.277L258.129 296.468L129.065 296.277L64.5323 296.17L0 295.884Z" fill="#000152"/>
<path d="M482.383 219.348C481.381 223.014 480.719 226.765 480.405 230.553C480.512 230.731 480.488 231.435 480.405 231.244C480.405 231.852 479.439 231.745 479.439 231.137V229.945C477.258 227.227 474.076 225.511 471.513 223.151C469.442 221.296 467.935 218.896 467.162 216.225C465.029 208.895 467.031 201.111 464.468 193.793C462.263 187.476 458.294 181.993 454.933 176.271C451.357 170.216 448.782 163.863 448.52 156.771C448.317 151.347 448.961 144.124 453.097 140.084C457.472 135.769 462.907 138.999 466.209 142.849C475.935 154.006 480.429 168.106 482.252 182.529C483.254 190.503 484.302 198.537 484.052 206.594C483.926 210.891 483.366 215.164 482.383 219.348Z" fill="#FF7F00"/>
<path d="M480.452 233.485C480.983 225.941 480.891 218.367 480.178 210.838C480.182 210.81 480.182 210.782 480.178 210.754C480.297 204.64 480.786 198.549 480.536 192.434C480.246 185.818 479.348 179.242 477.854 172.791C477.854 172.707 477.723 172.731 477.735 172.791C478.924 179.133 479.633 185.556 479.856 192.005C479.991 195.462 479.964 198.914 479.773 202.363C479.713 203.483 479.618 204.616 479.534 205.748C476.995 188.595 470.796 172.188 461.357 157.641C461.226 157.438 460.869 157.641 461 157.856C467.74 168.915 472.733 180.948 475.804 193.531C471.119 184.865 464.063 177.749 458.818 169.417C458.818 169.417 458.711 169.417 458.735 169.417C463.503 178.691 471.227 185.998 476.185 195.128C477.043 198.847 477.747 202.601 478.271 206.38C478.971 211.564 479.345 216.787 479.391 222.018C476.555 216.702 473.587 211.601 471.262 205.975C471.203 205.82 470.988 205.975 471.036 206.082C472.925 212.184 475.739 217.961 479.38 223.21C479.38 226.913 479.276 230.616 479.07 234.319C478.486 244.189 476.805 253.927 476.018 263.761C476.014 263.79 476.016 263.82 476.024 263.849C476.032 263.878 476.045 263.906 476.063 263.929C476.082 263.953 476.105 263.973 476.13 263.988C476.156 264.003 476.185 264.013 476.215 264.017C476.245 264.021 476.275 264.019 476.304 264.011C476.333 264.003 476.36 263.99 476.384 263.972C476.408 263.953 476.428 263.93 476.443 263.904C476.458 263.879 476.467 263.85 476.471 263.82C478.478 253.809 479.808 243.675 480.452 233.485Z" fill="#000152"/>
<path d="M469.963 157.355C469.963 157.283 469.832 157.355 469.855 157.355C471.655 162.337 472.68 167.391 473.98 172.505C473.995 172.546 474.024 172.581 474.062 172.603C474.1 172.626 474.145 172.634 474.189 172.627C474.232 172.62 474.272 172.598 474.302 172.565C474.331 172.531 474.348 172.489 474.349 172.445C473.632 167.228 472.154 162.144 469.963 157.355Z" fill="#000152"/>
<path d="M515.746 178.25C514.549 181.175 513.167 184.022 511.61 186.772C508.356 192.661 504.971 198.072 504.363 204.938C504.256 208.008 503.816 211.057 503.052 214.032C502.213 216.577 501.008 218.986 499.476 221.184C495.96 226.309 491.561 230.72 488.295 236.048C484.913 241.589 482.408 247.62 480.87 253.927C480.786 254.273 480.25 254.177 480.321 253.832C480.328 253.804 480.328 253.775 480.321 253.748V253.677C479.809 238.956 480.989 224.128 485.471 210.027C487.458 203.824 489.847 197.756 492.622 191.862C494.885 186.656 498.154 181.949 502.241 178.011C504.983 175.544 510.931 170.86 514.828 173.339C516.628 174.531 516.485 176.414 515.746 178.25Z" fill="#FF7F00"/>
<path d="M501.586 205.319C498.357 209.456 495.561 213.914 493.242 218.621C493.242 218.681 493.242 218.752 493.338 218.693C496.162 214.271 498.928 209.825 501.741 205.403C501.765 205.331 501.634 205.26 501.586 205.319Z" fill="#000152"/>
<path d="M438.925 192.208C440.832 195.497 443.013 199.443 442.191 203.388C441.666 205.879 439.807 207.906 439.509 210.456C438.77 216.082 444.372 219.789 448.437 222.447C458.544 229.075 472.407 234.987 474.242 248.539C474.314 249.016 475.136 248.897 475.077 248.42C475.082 248.392 475.082 248.364 475.077 248.337C475.077 248.337 475.136 248.337 475.136 248.253C476.456 241.416 476.391 234.384 474.946 227.573C473.263 220.713 470.486 214.168 466.721 208.192C460.642 197.81 454.194 187.178 445.004 179.227C442.453 177.034 437.232 173.077 435.206 178.035C433.18 182.994 436.588 188.203 438.925 192.208Z" fill="#FF7F00"/>
<path d="M448.175 214.211C454.873 221.458 465.529 225.535 471.299 233.652C468.08 221.285 461.991 209.85 453.527 200.277C453.3 200.027 453.658 199.669 453.896 199.908C460.066 205.897 464.999 213.042 468.414 220.934C466.827 215.425 464.737 210.074 462.168 204.95C462.156 204.911 462.157 204.87 462.172 204.833C462.186 204.795 462.212 204.764 462.247 204.743C462.281 204.722 462.322 204.714 462.361 204.719C462.401 204.724 462.438 204.742 462.466 204.771C465.642 210.371 467.915 216.437 469.201 222.745C476.805 241.149 477.544 262.735 475.911 282.128C475.911 282.403 475.47 282.415 475.482 282.128C475.911 266.836 475.673 251.293 472.002 236.358C471.93 236.048 471.847 235.738 471.763 235.428C465.529 226.691 454.885 222.626 448.055 214.283C447.996 214.283 448.103 214.128 448.175 214.211Z" fill="#000152"/>
<path d="M446.625 207.977C450.141 211.207 453.598 214.509 457.126 217.727C457.126 217.727 457.126 217.823 457.126 217.799C453.117 215.115 449.506 211.881 446.398 208.192C446.37 208.162 446.354 208.122 446.356 208.08C446.357 208.039 446.374 208 446.404 207.971C446.434 207.943 446.474 207.927 446.516 207.928C446.557 207.93 446.596 207.947 446.625 207.977Z" fill="#000152"/>
<path d="M446.064 194.019C449.176 199.119 452.696 203.958 456.589 208.49C456.589 208.561 456.589 208.645 456.506 208.585C452.134 204.433 448.534 199.537 445.873 194.127C445.859 194.101 445.856 194.071 445.863 194.044C445.871 194.016 445.89 193.992 445.915 193.978C445.94 193.963 445.97 193.96 445.998 193.968C446.026 193.976 446.05 193.994 446.064 194.019Z" fill="#000152"/>
<path d="M461.905 295.8H492.717L488.569 254.344H466.649L461.905 295.8Z" fill="#3C60A6"/>
<path d="M465.875 261.079H489.249L488.57 254.344H466.65L465.875 261.079Z" fill="#000152"/>
<path d="M462.871 256.37H491.752V249.755H462.871V256.37Z" fill="#3C60A6"/>
<path d="M436.398 151.824H79.8496V295.884H436.398V151.824Z" fill="#000285"/>
<path d="M79.8489 159.775H72.3516V295.884H79.8489V159.775Z" fill="#000152"/>
<path d="M443.907 159.775H436.409V295.884H443.907V159.775Z" fill="#000152"/>
<path opacity="0.1" d="M379.458 151.824H136.801V295.884H379.458V151.824Z" fill="black"/>
<path d="M121.83 277.575H94.8203V285.979H121.83V277.575Z" fill="#407BFF"/>
<path d="M352.52 238.11H163.738V295.884H352.52V238.11Z" fill="#407BFF"/>
<path d="M345.571 245.464H170.676V295.884H345.571V245.464Z" fill="#37474F"/>
<path d="M345.571 245.464H170.676V266.991H345.571V245.464Z" fill="#000152"/>
<path opacity="0.4" d="M436.398 159.775H79.8496V173.732H436.398V159.775Z" fill="#407BFF"/>
<path opacity="0.4" d="M436.398 180.038H79.8496V184.389H436.398V180.038Z" fill="#407BFF"/>
<path d="M407.933 211.255C413.239 211.255 417.54 206.954 417.54 201.648C417.54 196.342 413.239 192.041 407.933 192.041C402.627 192.041 398.326 196.342 398.326 201.648C398.326 206.954 402.627 211.255 407.933 211.255Z" fill="#407BFF"/>
<path d="M351.376 70.1876H164.883V151.824H351.376V70.1876Z" fill="#3C60A6"/>
<path d="M338.872 34.7747H177.398V151.824H338.872V34.7747Z" fill="white"/>
<path d="M338.86 34.7746L258.01 35.0607L177.399 35.2037L177.828 34.7746L177.995 151.824L177.399 151.228L338.86 151.455L338.503 151.824L338.634 93.4187L338.86 34.7746ZM338.86 34.7746L339.087 93.1803L339.182 151.824V152.194H338.813L177.351 152.42H176.755V151.824L176.922 34.7746V34.2979H177.351L258.201 34.4409L338.86 34.7746Z" fill="#000152"/>
<path d="M418.589 217.346H397.277V220.409H418.589V217.346Z" fill="#407BFF"/>
<path d="M418.589 223.198H397.277V226.262H418.589V223.198Z" fill="#407BFF"/>
<path d="M406.67 359.212H109.588L163.738 295.884H352.52L406.67 359.212Z" fill="#383956"/>
<path d="M406.67 359.212H109.588V367.77H406.67V359.212Z" fill="#1E1E42"/>
<path d="M75.7603 138.534C75.3024 136.925 74.9913 135.277 74.8306 133.612C74.481 130.339 74.481 127.038 74.8306 123.766C74.9902 122.1 75.3014 120.452 75.7603 118.843C76.2306 120.45 76.542 122.099 76.69 123.766C76.8727 125.4 76.9603 127.044 76.9522 128.689C76.9537 130.333 76.8662 131.977 76.69 133.612C76.5351 135.278 76.2238 136.926 75.7603 138.534Z" fill="#000152"/>
<path d="M91.2559 145.066C92.0626 143.6 93.0086 142.215 94.0808 140.93C96.1439 138.362 98.4777 136.025 101.042 133.957C102.327 132.889 103.712 131.947 105.178 131.144C104.365 132.607 103.42 133.991 102.353 135.28C100.286 137.84 97.9521 140.174 95.3919 142.241C94.1001 143.304 92.7159 144.25 91.2559 145.066Z" fill="#000152"/>
<path d="M53.6498 160.395C52.0422 160.86 50.3938 161.172 48.7271 161.324C47.0921 161.501 45.4488 161.589 43.8043 161.587C42.1597 161.594 40.516 161.507 38.8815 161.324C37.2181 161.176 35.5732 160.865 33.9707 160.395C35.5759 159.936 37.2197 159.625 38.8815 159.465C40.517 159.295 42.16 159.207 43.8043 159.203C45.449 159.205 47.0923 159.296 48.7271 159.477C50.3935 159.626 52.0418 159.933 53.6498 160.395Z" fill="#000152"/>
<path d="M60.1818 144.887C58.7191 144.075 57.3346 143.129 56.0457 142.062C53.4931 139.987 51.1605 137.654 49.0847 135.101C48.0178 133.813 47.0722 132.428 46.2598 130.965C47.7256 131.768 49.1107 132.71 50.3958 133.778C52.9599 135.846 55.2937 138.184 57.3568 140.751C58.4291 142.036 59.3751 143.421 60.1818 144.887Z" fill="#000152"/>
<path d="M182.618 266.311L335.796 266.156C363.02 301.295 355.261 336.458 384.332 371.62H131.531C161.473 336.505 154.512 301.414 182.618 266.311Z" fill="white"/>
<path d="M182.619 266.311L335.606 265.93H335.975L336.142 266.156C363.557 301.295 355.881 336.481 385.251 371.596L385.572 371.954H384.619L131.293 371.835H130.638L130.864 371.596C146.479 354.027 151.306 336.458 156.658 318.888C162.57 301.367 168.971 283.845 182.619 266.311ZM182.619 266.311C169.138 283.893 162.999 301.462 157.349 319.019C152.164 336.553 147.48 354.075 132.175 371.596L131.746 371.358L384.023 371.239L383.391 371.596C354.677 336.458 362.425 301.295 335.427 266.156L335.963 266.383L182.619 266.311Z" fill="#000152"/>
<path d="M140.697 359.558H375.512C376.704 361.608 378.11 363.658 379.612 365.708H136.454C137.992 363.658 139.398 361.608 140.697 359.558Z" fill="#000152"/>
<path d="M375.476 359.546H247.317C251.02 357.337 254.636 355.132 258.164 352.93H371.853C372.949 355.136 374.141 357.317 375.476 359.546Z" fill="#000152"/>
<path d="M380.483 366.912H246.77C248.665 366.101 250.548 365.291 252.396 364.528H378.742C379.283 365.283 379.863 366.078 380.483 366.912Z" fill="#FF7F00"/>
<path d="M377.896 363.276H307.977L312.661 360.833H376.299C376.812 361.691 377.324 362.502 377.896 363.276Z" fill="#FF7F00"/>
<path d="M170.15 353.3C169.649 354.492 169.113 355.767 168.553 356.995C168.469 357.198 167.981 357.341 167.432 357.341H161.639C161.127 357.341 160.745 357.198 160.841 356.995C160.936 356.792 161.473 356.649 162.033 356.649H166.801L167.313 355.457H163.225C162.7 355.457 162.343 355.29 162.426 355.112C162.51 354.933 163.022 354.754 163.547 354.754H167.54C167.706 354.373 167.861 353.991 168.028 353.562H163.368C162.855 353.562 162.474 353.395 162.557 353.204C162.641 353.014 163.165 352.859 163.666 352.859H169.28C169.924 352.954 170.222 353.109 170.15 353.3Z" fill="#000152"/>
<path d="M174.453 323.418L342.577 323.358C342.983 325.074 343.376 326.803 343.769 328.531H173.094C173.571 326.862 174.012 325.134 174.453 323.418Z" fill="white"/>
<path d="M173.119 328.579H343.795C344.2 330.307 344.617 332.023 345.046 333.752H171.736C172.213 332.023 172.666 330.307 173.119 328.579Z" fill="#FF7F00"/>
<path d="M175.776 318.244L341.374 318.185C341.78 319.901 342.173 321.63 342.566 323.358L174.501 323.418L175.776 318.244Z" fill="#407BFF"/>
<path d="M180.174 302.749L337.357 302.654C337.857 304.382 338.334 306.11 338.799 307.839L178.601 307.91C179.101 306.194 179.626 304.466 180.174 302.749Z" fill="white"/>
<path d="M181.843 297.576L335.724 297.481C336.284 299.209 336.809 300.937 337.321 302.654L180.139 302.749C180.711 301.021 181.283 299.304 181.843 297.576Z" fill="#407BFF"/>
<path d="M183.762 292.415L288.952 292.343C289.19 294.06 289.417 295.788 289.631 297.516L181.879 297.576C182.475 295.86 183.107 294.143 183.762 292.415Z" fill="#FF7F00"/>
<path d="M289.631 297.516H335.759C339.609 309.591 341.946 321.665 345.045 333.74H293.088C291.931 321.654 291.085 309.639 289.631 297.516Z" fill="#C7C7C7"/>
<path d="M342.578 323.358L258.51 323.453H174.453L258.522 323.358H342.578Z" fill="#000152"/>
<path d="M341.374 318.185L258.581 318.28H175.776L258.581 318.185H341.374Z" fill="#000152"/>
<path d="M340.122 313.012L258.64 313.107H177.146L258.64 313L340.122 313.012Z" fill="#000152"/>
<path d="M338.799 307.839L258.7 307.934H178.601L258.7 307.827L338.799 307.839Z" fill="#000152"/>
<path d="M337.358 302.654L258.76 302.773H180.175L258.76 302.666L337.358 302.654Z" fill="#000152"/>
<path d="M335.76 297.481L258.819 297.6H181.879L258.819 297.493L335.76 297.481Z" fill="#000152"/>
<path d="M335.199 331.094C329.728 331.201 324.233 331.213 318.751 331.225C313.268 331.237 307.761 331.225 302.254 331.106C307.725 330.998 313.22 330.986 318.703 330.975C324.186 330.963 329.645 331.01 335.199 331.094Z" fill="#000152"/>
<path d="M334.115 325.945C330.038 326.052 325.95 326.064 321.861 326.076C317.773 326.088 313.673 326.076 309.561 325.956C313.637 325.837 317.725 325.837 321.814 325.813C325.902 325.79 330.003 325.837 334.115 325.945Z" fill="#000152"/>
<path d="M333.043 320.772C327.739 320.879 322.411 320.891 317.083 320.903C311.755 320.915 306.415 320.903 301.075 320.783C306.391 320.676 311.719 320.664 317.035 320.652C322.352 320.64 327.691 320.664 333.043 320.772Z" fill="#000152"/>
<path d="M331.957 315.598C327.654 315.706 323.339 315.718 319.024 315.73C314.709 315.741 310.383 315.73 306.044 315.61C310.347 315.503 314.662 315.491 318.977 315.467C323.291 315.443 327.618 315.491 331.957 315.598Z" fill="#000152"/>
<path d="M330.837 310.425C325.7 310.533 320.539 310.545 315.342 310.556C310.145 310.568 305.008 310.556 299.847 310.437C304.996 310.33 310.145 310.318 315.342 310.306C320.539 310.294 325.641 310.318 330.837 310.425Z" fill="#000152"/>
<path d="M329.646 305.252C324.604 305.359 319.538 305.371 314.472 305.383C309.406 305.395 304.329 305.383 299.251 305.264C304.293 305.157 309.359 305.145 314.425 305.133C319.49 305.121 324.497 305.145 329.646 305.252Z" fill="#000152"/>
<path d="M328.251 300.103C325.259 300.198 322.291 300.234 319.228 300.234C316.165 300.234 313.185 300.234 310.146 300.115C313.149 300.008 316.105 299.984 319.169 299.972C322.232 299.96 325.2 299.972 328.251 300.103Z" fill="#000152"/>
<path d="M280.775 331.094C276.651 331.213 272.527 331.213 268.403 331.237C264.279 331.261 260.143 331.237 256.019 331.106C260.143 330.998 264.267 330.986 268.391 330.974C272.515 330.963 276.663 331.022 280.775 331.094Z" fill="#000152"/>
<path d="M280.525 325.968C276.46 326.076 272.396 326.076 268.331 326.1C264.267 326.123 260.202 326.1 256.138 325.968C260.202 325.861 264.267 325.849 268.331 325.837C272.396 325.825 276.46 325.861 280.525 325.968Z" fill="#000152"/>
<path d="M280.263 320.795C276.258 320.903 272.253 320.915 268.248 320.926C264.243 320.938 260.238 320.926 256.233 320.795C260.238 320.688 264.243 320.676 268.248 320.664C272.253 320.652 276.246 320.688 280.263 320.795Z" fill="#000152"/>
<path d="M279.988 315.598C276.043 315.706 272.11 315.718 268.164 315.729C264.219 315.741 260.273 315.729 256.328 315.61C260.273 315.491 264.219 315.491 268.152 315.467C272.086 315.443 276.007 315.515 279.988 315.598Z" fill="#000152"/>
<path d="M279.691 310.449C275.829 310.556 271.943 310.568 268.069 310.58C264.195 310.592 260.309 310.58 256.436 310.461C260.309 310.354 264.183 310.342 268.057 310.318C271.931 310.294 275.817 310.342 279.691 310.449Z" fill="#000152"/>
<path d="M279.381 305.276C275.579 305.383 271.764 305.395 267.962 305.407C264.16 305.419 260.345 305.407 256.531 305.288C260.345 305.181 264.148 305.169 267.95 305.157C271.752 305.145 275.567 305.169 279.381 305.276Z" fill="#000152"/>
<path d="M279.034 300.103C275.304 300.21 271.573 300.222 267.842 300.246C264.111 300.27 260.369 300.246 256.638 300.115C260.369 300.008 264.099 299.996 267.83 299.984C271.561 299.972 275.292 299.996 279.034 300.103Z" fill="#000152"/>
<path d="M245.017 331.094C240.892 331.201 236.756 331.213 232.632 331.237C228.508 331.261 224.372 331.237 220.26 331.106C224.396 330.998 228.532 330.986 232.656 330.975C236.78 330.963 240.904 331.094 245.017 331.094Z" fill="#000152"/>
<path d="M239.057 300.103C237.865 300.21 236.673 300.234 235.481 300.234C234.289 300.234 233.097 300.234 231.905 300.103C233.097 300.008 234.289 299.984 235.481 299.972C236.673 299.96 237.865 300.031 239.057 300.103Z" fill="#000152"/>
<path d="M238.58 305.3C237.388 305.395 236.196 305.419 234.921 305.431C233.645 305.443 232.537 305.431 231.285 305.3C232.477 305.193 233.729 305.169 234.944 305.169C236.16 305.169 237.376 305.193 238.58 305.3Z" fill="#000152"/>
<path d="M238.151 310.473C236.96 310.568 235.672 310.592 234.433 310.604C233.193 310.616 231.953 310.604 230.726 310.473C231.977 310.366 233.217 310.342 234.456 310.342C235.696 310.342 236.924 310.366 238.151 310.473Z" fill="#000152"/>
<path d="M237.758 315.598C236.483 315.706 235.219 315.73 233.968 315.73C232.716 315.73 231.453 315.73 230.201 315.61C231.465 315.503 232.728 315.479 233.992 315.467C235.255 315.455 236.507 315.598 237.758 315.598Z" fill="#000152"/>
<path d="M237.364 320.807C236.077 320.915 234.802 320.938 233.514 320.938C232.227 320.938 230.964 320.938 229.7 320.807C230.988 320.712 232.263 320.688 233.538 320.676C234.814 320.664 236.101 320.7 237.364 320.807Z" fill="#000152"/>
<path d="M236.984 325.98C235.684 326.076 234.373 326.1 233.074 326.111C231.775 326.123 230.488 326.111 229.2 325.98C230.499 325.873 231.799 325.849 233.098 325.849C234.397 325.849 235.696 325.873 236.984 325.98Z" fill="#000152"/>
<path d="M237.471 294.954C235.397 295.061 233.335 295.085 231.273 295.097C229.211 295.109 227.149 295.097 225.099 294.966C227.185 294.858 229.247 294.835 231.309 294.835C233.371 294.835 235.481 294.858 237.471 294.954Z" fill="#000152"/>
<path d="M209.258 331.153C205.11 331.261 200.986 331.273 196.85 331.284C192.714 331.296 188.601 331.284 184.501 331.165C188.649 331.046 192.773 331.046 196.897 331.022C201.021 330.998 205.134 331.094 209.258 331.153Z" fill="#000152"/>
<path d="M210.045 325.98C205.956 326.099 201.892 326.099 197.827 326.123C193.763 326.147 189.698 326.123 185.657 325.992C189.746 325.885 193.81 325.873 197.875 325.861C201.939 325.849 205.992 325.885 210.045 325.98Z" fill="#000152"/>
<path d="M210.832 320.819C206.803 320.926 202.798 320.938 198.793 320.95C194.788 320.962 190.783 320.95 186.802 320.831C190.831 320.712 194.836 320.712 198.84 320.688C202.845 320.664 206.874 320.712 210.832 320.819Z" fill="#000152"/>
<path d="M211.642 315.598C207.685 315.706 203.74 315.718 199.794 315.741C195.849 315.765 191.916 315.741 187.994 315.61C191.963 315.503 195.897 315.491 199.842 315.479C203.788 315.467 207.697 315.598 211.642 315.598Z" fill="#000152"/>
<path d="M212.452 310.485C208.555 310.592 204.669 310.604 200.795 310.616C196.921 310.628 193.036 310.616 189.186 310.485C193.083 310.378 196.969 310.366 200.843 310.354C204.717 310.342 208.591 310.378 212.452 310.485Z" fill="#000152"/>
<path d="M213.335 305.312C209.509 305.419 205.695 305.431 201.88 305.443C198.066 305.455 194.276 305.443 190.485 305.324C194.323 305.216 198.138 305.205 201.94 305.181C205.742 305.157 209.557 305.205 213.335 305.312Z" fill="#000152"/>
<path d="M214.301 300.103C210.546 300.222 206.816 300.222 203.073 300.246C199.33 300.27 195.611 300.246 191.904 300.115C195.671 300.008 199.402 299.996 203.132 299.984C206.863 299.972 210.594 300.032 214.301 300.103Z" fill="#000152"/>
<path d="M215.349 294.978C211.678 295.085 208.031 295.097 204.371 295.109C200.712 295.121 197.077 295.109 193.453 294.99C197.136 294.882 200.784 294.87 204.443 294.847C208.102 294.823 211.726 294.87 215.349 294.978Z" fill="#000152"/>
<path d="M352.221 355.719C346.678 355.827 341.112 355.874 335.533 355.922C329.955 355.97 324.365 355.922 318.786 355.982C313.208 356.041 307.594 355.982 302.004 355.922L293.601 355.851C290.799 355.851 288.01 355.779 285.257 355.719C288.046 355.66 290.823 355.636 293.601 355.6L301.944 355.517C307.511 355.517 313.089 355.517 318.631 355.457C324.174 355.398 329.788 355.457 335.378 355.517C340.969 355.576 346.595 355.612 352.221 355.719Z" fill="white"/>
<path d="M353.377 358.27C347 358.378 340.599 358.425 334.187 358.473C327.774 358.521 321.349 358.473 314.925 358.473C308.5 358.473 302.052 358.473 295.615 358.473L285.972 358.401L276.317 358.282C279.524 358.223 282.73 358.187 285.936 358.151L295.544 358.068C301.956 358.068 308.369 358.068 314.782 358.008C321.194 357.948 327.607 358.008 334.044 358.068C340.48 358.127 346.905 358.163 353.377 358.27Z" fill="white"/>
<path d="M346.893 340.629C343.854 340.713 340.802 340.749 337.739 340.772C334.676 340.796 331.612 340.772 328.549 340.772H319.335C316.26 340.772 313.185 340.701 310.109 340.617C313.161 340.534 316.212 340.498 319.275 340.474C322.339 340.451 325.402 340.474 328.454 340.474C331.505 340.474 334.592 340.474 337.655 340.474C340.719 340.474 343.806 340.546 346.893 340.629Z" fill="#000152"/>
<path d="M346.333 338.424C342.113 338.508 337.882 338.543 333.65 338.579H320.944C316.701 338.579 312.469 338.579 308.226 338.579C303.983 338.579 299.739 338.579 295.496 338.436C299.716 338.353 303.947 338.317 308.178 338.281C312.41 338.245 316.641 338.281 320.873 338.281C325.104 338.281 329.348 338.281 333.579 338.281C337.81 338.281 342.018 338.341 346.333 338.424Z" fill="#000152"/>
<path d="M332.506 288.314C329.932 288.398 327.333 288.434 324.747 288.469C322.16 288.505 319.538 288.469 316.927 288.469C314.317 288.469 311.707 288.469 309.084 288.469C306.462 288.469 303.852 288.41 301.229 288.326C303.816 288.243 306.414 288.207 309.013 288.171C311.611 288.136 314.21 288.171 316.808 288.171C319.407 288.171 322.017 288.171 324.639 288.171C327.262 288.171 329.872 288.183 332.506 288.314Z" fill="#000152"/>
<path d="M331.636 286.11C328.692 286.193 325.676 286.241 322.756 286.264C319.836 286.288 316.796 286.264 313.828 286.324C310.86 286.384 307.868 286.324 304.877 286.324C301.885 286.324 298.917 286.324 295.913 286.181C298.869 286.098 301.873 286.062 304.805 286.026C307.737 285.99 310.765 286.026 313.709 286.026H322.649C325.628 286.002 328.62 286.038 331.636 286.11Z" fill="#000152"/>
<path d="M327.726 277.325C323.34 277.412 318.942 277.464 314.531 277.48L301.265 277.539L287.927 277.456C283.493 277.456 279.071 277.396 274.637 277.325C279.047 277.241 283.457 277.194 287.867 277.158L301.098 277.098H314.364C318.834 277.218 323.268 277.241 327.726 277.325Z" fill="#000152"/>
<path d="M330.719 283.904C328.955 283.988 327.143 284.024 325.403 284.059C323.662 284.095 321.827 284.059 320.027 284.059C318.227 284.059 316.451 284.059 314.639 284.059C312.828 284.059 311.064 283.988 309.204 283.916C310.98 283.833 312.78 283.785 314.532 283.761C316.284 283.738 318.108 283.761 319.896 283.702C321.684 283.642 323.472 283.702 325.284 283.702C327.095 283.702 328.895 283.833 330.719 283.904Z" fill="#000152"/>
<path d="M241.047 281.807C236.637 281.89 232.227 281.926 227.816 281.962L214.598 282.021H201.391C197.004 282.021 192.618 281.961 188.279 281.878C192.713 281.795 197.124 281.759 201.534 281.723L214.741 281.664H227.852C232.274 281.687 236.673 281.723 241.047 281.807Z" fill="#000152"/>
<path d="M240.773 283.976C237.15 284.063 233.518 284.115 229.879 284.131C226.303 284.131 222.62 284.131 218.996 284.131H208.126C204.55 284.131 200.902 284.059 197.303 283.988C200.958 283.9 204.597 283.849 208.221 283.833C211.856 283.833 215.468 283.833 219.092 283.773C222.715 283.714 226.327 283.773 229.938 283.773C233.55 283.773 237.162 283.904 240.773 283.976Z" fill="#000152"/>
<path d="M241.333 279.601C238.019 279.685 234.694 279.721 231.38 279.756C228.067 279.792 224.741 279.756 221.427 279.816C218.114 279.876 214.8 279.816 211.498 279.816C208.197 279.816 204.895 279.744 201.617 279.673C204.955 279.589 208.28 279.542 211.594 279.506C214.907 279.47 218.221 279.506 221.535 279.506H231.44C234.742 279.482 238.043 279.518 241.333 279.601Z" fill="#000152"/>
<path d="M241.631 277.456C239.247 277.539 236.947 277.575 234.599 277.611C232.251 277.647 229.915 277.611 227.566 277.67C225.218 277.73 222.894 277.67 220.57 277.67C218.245 277.67 215.909 277.67 213.597 277.527C215.981 277.444 218.364 277.408 220.653 277.372C222.942 277.337 225.325 277.372 227.662 277.372C229.998 277.372 232.322 277.372 234.658 277.372C236.995 277.372 239.307 277.325 241.631 277.456Z" fill="#000152"/>
<path d="M327.166 279.137C326.07 279.566 324.913 279.971 323.709 280.329C322.411 280.752 321.079 281.067 319.728 281.27H319.156C318.916 281.307 318.671 281.269 318.453 281.163C318.218 281.039 318.039 280.83 317.952 280.579C317.815 280.197 317.75 279.793 317.762 279.387C317.755 278.644 317.815 277.902 317.94 277.17C318.182 275.697 318.582 274.254 319.132 272.867C319.269 272.498 319.462 272.152 319.704 271.842C319.784 271.745 319.881 271.664 319.991 271.603C320.091 271.542 320.207 271.513 320.324 271.52C320.423 271.501 320.524 271.501 320.622 271.52L320.789 271.592C321.054 271.725 321.27 271.938 321.409 272.199C321.743 272.904 321.848 273.697 321.707 274.464C321.595 275.215 321.335 275.936 320.944 276.586C320.488 277.459 319.783 278.177 318.918 278.648C318.3 278.938 317.632 279.108 316.951 279.149C316.555 279.192 316.155 279.192 315.759 279.149C315.392 279.077 315.043 278.931 314.734 278.719C314.472 278.547 314.197 278.396 313.912 278.266C313.598 278.125 313.252 278.071 312.91 278.112C312.306 278.226 311.717 278.414 311.158 278.672C310.884 278.791 310.622 278.91 310.336 279.017L309.871 279.172C309.66 279.231 309.438 279.231 309.227 279.172C308.858 278.982 308.87 278.791 308.667 278.624C308.544 278.526 308.402 278.454 308.251 278.411C308.1 278.368 307.941 278.355 307.785 278.374C307.255 278.541 306.753 278.786 306.295 279.101C305.854 279.375 305.425 279.661 304.996 279.947C304.138 280.519 303.279 281.139 302.373 281.675C301.909 281.95 301.444 282.236 300.931 282.498C300.66 282.639 300.381 282.766 300.097 282.879L299.596 283.034C299.481 283.042 299.366 283.042 299.251 283.034C299.114 283.033 298.979 283 298.857 282.939C298.755 282.876 298.672 282.786 298.617 282.679C298.562 282.571 298.538 282.451 298.547 282.331C298.524 282.141 298.524 281.949 298.547 281.759C298.636 281.383 298.76 281.016 298.917 280.662C299.234 279.889 299.682 279.175 300.24 278.553C300.417 278.368 300.617 278.208 300.836 278.076C301.038 277.973 301.265 277.928 301.491 277.945C301.707 277.96 301.922 277.988 302.135 278.028C302.832 278.139 303.478 278.464 303.983 278.958C304.025 279.008 304.049 279.071 304.049 279.137C304.049 279.202 304.025 279.266 303.983 279.315C303.911 279.387 303.82 279.437 303.72 279.458C303.59 279.476 303.458 279.476 303.327 279.458C302.927 279.439 302.529 279.395 302.135 279.327C301.348 279.196 300.586 279.041 299.823 278.886L297.558 278.445C297.188 278.374 296.807 278.314 296.438 278.266C296.264 278.236 296.089 278.216 295.913 278.207C295.775 278.188 295.634 278.188 295.496 278.207C295.003 278.402 294.538 278.663 294.113 278.982C293.765 279.17 293.377 279.272 292.981 279.28C292.811 279.287 292.641 279.263 292.48 279.208C292.301 279.125 292.278 279.029 292.266 278.97C292.247 278.867 292.247 278.762 292.266 278.66C292.337 278.493 292.337 278.278 292.266 278.266C291.973 278.226 291.676 278.226 291.384 278.266C290.743 278.364 290.116 278.532 289.512 278.767C289.226 278.874 288.928 278.994 288.583 279.101C288.171 279.23 287.738 279.279 287.307 279.244C286.564 279.126 285.844 278.893 285.174 278.553C284.884 278.413 284.586 278.293 284.28 278.195C284.137 278.195 284.006 278.135 283.982 278.195C283.836 278.229 283.693 278.273 283.553 278.326C282.98 278.541 282.432 278.791 281.896 279.041C280.904 279.511 279.962 280.078 279.083 280.734C278.713 281.044 278.368 281.389 278.427 281.711C278.487 282.033 279.214 282.212 279.989 282.271C281.547 282.403 283.114 282.403 284.673 282.271C285.417 282.207 286.157 282.104 286.89 281.962C287.218 281.899 287.541 281.811 287.856 281.699C288.13 281.592 288.368 281.449 288.261 281.318C288.019 281.139 287.736 281.024 287.438 280.984C287.093 280.901 286.699 280.853 286.318 280.782C285.555 280.662 284.792 280.543 284.005 280.46C280.894 280.114 277.724 280.114 274.577 280.043C277.712 280.043 280.895 280.043 284.053 280.364C284.84 280.436 285.627 280.543 286.437 280.662L287.629 280.877C287.997 280.925 288.347 281.069 288.642 281.294C288.821 281.556 288.451 281.747 288.165 281.854C287.829 281.982 287.482 282.077 287.128 282.14C286.377 282.297 285.617 282.408 284.852 282.474C283.24 282.641 281.617 282.665 280.001 282.546C279.599 282.514 279.2 282.45 278.809 282.355C278.403 282.236 278.093 282.009 278.058 281.795C277.986 281.354 278.379 280.996 278.749 280.662C279.638 279.973 280.602 279.385 281.622 278.91C282.158 278.648 282.706 278.398 283.314 278.171C283.485 278.103 283.66 278.047 283.839 278.004C284.11 277.959 284.388 277.979 284.649 278.064C284.991 278.17 285.325 278.297 285.65 278.445C286.228 278.744 286.847 278.957 287.486 279.077C288.052 279.037 288.606 278.891 289.119 278.648C289.772 278.38 290.457 278.195 291.157 278.1C291.613 277.999 292.085 277.999 292.54 278.1C292.85 278.207 292.897 278.374 292.897 278.481C292.89 278.582 292.87 278.683 292.838 278.779C292.822 278.862 292.822 278.947 292.838 279.029C292.838 279.029 292.838 279.029 292.909 279.029C293.185 279.022 293.455 278.948 293.696 278.815C294.163 278.47 294.677 278.193 295.222 277.992C295.444 277.94 295.673 277.92 295.901 277.933C296.113 277.939 296.324 277.959 296.533 277.992L297.725 278.195L299.99 278.648L302.254 279.077C302.616 279.144 302.983 279.183 303.351 279.196C303.613 279.196 303.72 279.101 303.601 278.946C303.187 278.534 302.653 278.262 302.075 278.171C301.907 278.135 301.735 278.111 301.563 278.1C301.451 278.097 301.341 278.122 301.241 278.171C301.039 278.288 300.855 278.432 300.693 278.6C300.13 279.204 299.671 279.897 299.334 280.65C299.175 281 299.048 281.363 298.953 281.735C298.91 281.915 298.89 282.099 298.893 282.283C298.881 282.379 298.893 282.476 298.929 282.566C298.964 282.655 299.021 282.734 299.096 282.796C299.239 282.891 299.668 282.796 299.918 282.665C300.196 282.565 300.467 282.445 300.729 282.307C301.241 282.045 301.718 281.771 302.183 281.497C303.101 280.936 303.959 280.305 304.841 279.792C305.27 279.506 305.711 279.22 306.164 278.946C306.644 278.619 307.17 278.365 307.725 278.195C308.12 278.146 308.517 278.253 308.834 278.493C309.037 278.672 309.108 278.898 309.346 279.005C309.491 279.046 309.643 279.046 309.787 279.005C309.934 278.963 310.077 278.911 310.217 278.851L311.027 278.517C311.604 278.233 312.218 278.033 312.851 277.921C313.257 277.877 313.667 277.939 314.043 278.1C314.344 278.232 314.635 278.388 314.913 278.564C315.181 278.744 315.48 278.873 315.795 278.946C316.16 278.982 316.527 278.982 316.891 278.946C317.649 278.91 318.385 278.678 319.026 278.273C319.668 277.867 320.193 277.303 320.551 276.634C320.919 275.986 321.158 275.274 321.254 274.536C321.376 273.789 321.264 273.023 320.932 272.342C320.818 272.141 320.654 271.973 320.455 271.854H320.384H320.3C320.218 271.904 320.146 271.969 320.086 272.044C319.852 272.345 319.663 272.678 319.526 273.034C318.972 274.404 318.572 275.831 318.334 277.289C318.189 278.012 318.109 278.746 318.095 279.482C318.092 279.862 318.149 280.24 318.262 280.603C318.326 280.813 318.467 280.991 318.656 281.103C318.795 281.149 318.945 281.149 319.085 281.103H319.633C320.976 280.904 322.303 280.606 323.602 280.209C324.794 279.852 325.986 279.458 327.178 279.017L327.166 279.137Z" fill="#000152"/>
<path d="M374.321 339.64H141.58C151.604 327.899 157.135 316.147 161.355 304.406C165.431 293.07 168.292 281.759 172.797 270.411C173.393 268.922 173.989 267.42 174.681 265.93H343.044C353.223 290.496 353.998 315.074 374.321 339.64Z" fill="white"/>
<path d="M375.19 339.64C354.652 315.074 353.818 290.496 343.519 265.93H342.578C350.302 284.775 352.507 303.619 362.197 322.464C363.234 324.49 364.355 326.517 365.594 328.543L366.357 329.735C366.822 330.474 367.299 331.225 367.799 331.964L368.527 333.037C368.777 333.418 369.039 333.788 369.313 334.169C369.587 334.55 369.838 334.92 370.124 335.289C371.089 336.613 372.114 337.947 373.199 339.282H374.033L373.449 339.592L373.199 339.282L142.366 339.437L142.175 339.652C142.032 339.592 141.913 339.509 141.77 339.437H142.366C143.867 337.713 145.262 335.977 146.549 334.229C147.968 332.345 149.243 330.462 150.423 328.579C155.065 321.015 158.737 312.898 161.353 304.418C162.784 300.032 164.059 295.645 165.346 291.306C167.575 284.345 169.9 277.42 172.796 270.471C173.416 268.981 174.06 267.479 174.751 265.989H174.453C170.719 274.19 167.471 282.604 164.727 291.187C159.804 307.35 155.358 323.525 140.983 339.7L140.78 339.926H141.376L374.606 340.033H375.476L375.19 339.64Z" fill="#000152"/>
<path d="M150.005 328.567H366.154C367.346 330.45 368.538 332.333 369.933 334.229H146.084C147.522 332.337 148.829 330.45 150.005 328.567Z" fill="#000152"/>
<path d="M366.156 328.555H248.152C251.573 326.529 254.887 324.502 258.141 322.476H362.806C363.823 324.494 364.94 326.521 366.156 328.555Z" fill="#000152"/>
<path d="M370.779 335.337H247.662L252.859 333.096H369.134C369.658 333.843 370.207 334.59 370.779 335.337Z" fill="#FF7F00"/>
<path d="M368.384 332.024H304.019L308.333 329.783H366.918C367.395 330.522 367.883 331.273 368.384 332.024Z" fill="#FF7F00"/>
<path d="M181.093 295.335H335.88L336.988 300.103H179.865C180.282 298.458 180.652 296.873 181.093 295.335Z" fill="white"/>
<path d="M179.866 300.103H336.989C337.37 301.688 337.752 303.274 338.181 304.871H178.626C179.031 303.214 179.46 301.629 179.866 300.103Z" fill="#FF7F00"/>
<path d="M182.32 290.567L334.771 290.508L335.88 295.276H181.093C181.498 293.702 181.903 292.117 182.32 290.567Z" fill="#97C2F4"/>
<path d="M183.572 285.8L333.615 285.728C334.008 287.313 334.39 288.911 334.807 290.496L182.32 290.567C182.726 288.978 183.143 287.389 183.572 285.8Z" fill="white"/>
<path d="M184.918 281.032L332.398 280.948C332.816 282.546 333.221 284.131 333.59 285.716L183.571 285.8C184.012 284.19 184.453 282.605 184.918 281.032Z" fill="#97C2F4"/>
<path d="M186.349 276.264L331.064 276.181C331.529 277.766 331.97 279.351 332.399 280.948L184.919 281.032C185.42 279.435 185.861 277.849 186.349 276.264Z" fill="white"/>
<path d="M187.934 271.496L329.645 271.413C330.158 272.998 330.646 274.595 331.111 276.181L186.349 276.264C186.861 274.679 187.386 273.081 187.934 271.496Z" fill="#97C2F4"/>
<path d="M189.663 266.728L286.509 266.669C286.724 268.254 286.926 269.839 287.129 271.437L187.935 271.496C188.483 269.911 189.067 268.325 189.663 266.728Z" fill="#FF7F00"/>
<path d="M287.129 271.496H329.598C333.174 282.617 335.296 293.726 338.144 304.871H290.311C289.251 293.667 288.464 282.546 287.129 271.496Z" fill="#97C2F4"/>
<path d="M335.88 295.228L258.486 295.335H181.093L258.486 295.252L335.88 295.228Z" fill="#000152"/>
<path d="M334.771 290.472L258.486 290.555H182.261L258.486 290.46L334.771 290.472Z" fill="#000152"/>
<path d="M333.614 285.704L258.593 285.8H183.571L258.593 285.704H333.614Z" fill="#000152"/>
<path d="M332.399 280.936L258.653 281.044H184.919L258.653 280.948L332.399 280.936Z" fill="#000152"/>
<path d="M331.064 276.181L258.712 276.276H186.349L258.712 276.169L331.064 276.181Z" fill="#000152"/>
<path d="M329.645 271.413L258.819 271.52H187.981L258.819 271.425L329.645 271.413Z" fill="#000152"/>
<path d="M329.085 302.38C324.043 302.487 318.989 302.487 313.935 302.511C308.882 302.535 303.828 302.511 298.75 302.392C303.792 302.284 308.846 302.284 313.9 302.26C318.954 302.237 324.007 302.284 329.085 302.38Z" fill="#000152"/>
<path d="M328.084 297.612C324.329 297.719 320.563 297.731 316.796 297.743C313.029 297.755 309.263 297.743 305.484 297.624C309.227 297.528 312.994 297.517 316.76 297.505C320.527 297.493 324.293 297.517 328.084 297.612Z" fill="#000152"/>
<path d="M327.094 292.856C322.207 292.951 317.308 292.963 312.398 292.975C307.487 292.987 302.588 292.975 297.665 292.868C302.564 292.761 307.463 292.761 312.362 292.737C317.261 292.713 322.172 292.761 327.094 292.856Z" fill="#000152"/>
<path d="M326.07 288.088C322.112 288.195 318.143 288.195 314.15 288.219C310.157 288.243 306.2 288.219 302.23 288.1C306.188 288.005 310.169 287.993 314.15 287.981C318.131 287.969 322.1 287.993 326.07 288.088Z" fill="#000152"/>
<path d="M325.044 283.332C320.276 283.428 315.568 283.439 310.824 283.451C306.08 283.463 301.288 283.451 296.521 283.344C301.288 283.237 306.056 283.225 310.752 283.213C315.449 283.201 320.276 283.225 325.044 283.332Z" fill="#000152"/>
<path d="M323.925 278.564C319.276 278.672 314.616 278.672 309.943 278.696C305.271 278.719 300.61 278.696 295.926 278.576C300.574 278.481 305.235 278.469 309.895 278.457C314.556 278.445 319.228 278.469 323.925 278.564Z" fill="#000152"/>
<path d="M322.684 273.797C319.931 273.892 317.154 273.916 314.341 273.928C311.528 273.94 308.786 273.928 305.997 273.809C308.75 273.713 311.528 273.689 314.341 273.689C317.154 273.689 319.883 273.713 322.684 273.797Z" fill="#000152"/>
<path d="M279 302.392C275.21 302.499 271.407 302.499 267.605 302.523C263.803 302.547 260 302.523 256.21 302.404C260.012 302.296 263.803 302.296 267.605 302.272C271.407 302.249 275.198 302.296 279 302.392Z" fill="#000152"/>
<path d="M278.749 297.636C275.007 297.731 271.264 297.743 267.521 297.755C263.778 297.767 260.036 297.755 256.293 297.636C260.036 297.54 263.778 297.528 267.521 297.516C271.264 297.505 275.007 297.54 278.749 297.636Z" fill="#000152"/>
<path d="M278.498 292.868C274.815 292.975 271.132 292.975 267.449 292.999C263.766 293.023 260.071 292.999 256.388 292.88C260.071 292.784 263.754 292.773 267.437 292.761C271.12 292.749 274.815 292.772 278.498 292.868Z" fill="#000152"/>
<path d="M278.249 288.112C274.673 288.207 270.99 288.219 267.366 288.231C263.743 288.243 260.107 288.231 256.472 288.124C260.048 288.017 263.731 288.017 267.366 287.993C271.002 287.969 274.613 288.017 278.249 288.112Z" fill="#000152"/>
<path d="M277.986 283.344C274.411 283.451 270.835 283.463 267.259 283.475C263.683 283.487 260.107 283.475 256.531 283.356C260.107 283.261 263.683 283.249 267.259 283.237C270.835 283.225 274.411 283.249 277.986 283.344Z" fill="#000152"/>
<path d="M277.7 278.648C274.196 278.755 270.691 278.755 267.175 278.779C263.659 278.803 260.166 278.779 256.662 278.66C260.166 278.553 263.671 278.553 267.175 278.529C270.679 278.505 274.184 278.493 277.7 278.648Z" fill="#000152"/>
<path d="M277.379 273.88C273.946 273.975 270.501 273.987 267.068 273.999C263.635 274.011 260.191 273.999 256.758 273.892C260.191 273.785 263.623 273.773 267.068 273.761C270.513 273.749 273.934 273.725 277.379 273.88Z" fill="#000152"/>
<path d="M246.066 302.403C242.251 302.499 238.449 302.511 234.659 302.523C230.868 302.535 227.054 302.523 223.264 302.415C227.078 302.308 230.88 302.296 234.671 302.284C238.461 302.272 242.263 302.308 246.066 302.403Z" fill="#000152"/>
<path d="M240.559 273.88C239.451 273.975 238.354 273.999 237.257 274.011C236.161 274.023 235.064 274.011 233.979 273.892C235.088 273.797 236.185 273.773 237.281 273.761C238.378 273.749 239.474 273.761 240.559 273.88Z" fill="#000152"/>
<path d="M240.131 278.648C239.01 278.743 237.89 278.755 236.769 278.767C235.649 278.779 234.528 278.767 233.42 278.648C234.552 278.553 235.673 278.529 236.793 278.529C237.914 278.529 239.058 278.517 240.131 278.648Z" fill="#000152"/>
<path d="M239.736 283.416C238.544 283.511 237.448 283.535 236.304 283.535C235.159 283.535 234.027 283.535 232.895 283.416C234.086 283.32 235.195 283.296 236.327 283.296C237.46 283.296 238.604 283.273 239.736 283.416Z" fill="#000152"/>
<path d="M239.367 288.183C238.175 288.279 237.043 288.303 235.887 288.315C234.73 288.326 233.503 288.315 232.418 288.195C233.61 288.1 234.742 288.076 235.898 288.064C237.055 288.052 238.223 288.029 239.367 288.183Z" fill="#000152"/>
<path d="M239.057 292.951C237.865 293.047 236.673 293.059 235.481 293.071C234.289 293.082 233.097 293.071 231.905 292.951C233.097 292.856 234.289 292.832 235.481 292.832C236.673 292.832 237.865 292.796 239.057 292.951Z" fill="#000152"/>
<path d="M238.663 297.648C237.471 297.743 236.28 297.767 235.088 297.767C233.896 297.767 232.704 297.767 231.512 297.648C232.704 297.552 233.896 297.528 235.088 297.528C236.28 297.528 237.471 297.552 238.663 297.648Z" fill="#000152"/>
<path d="M239.057 269.112C237.15 269.208 235.255 269.231 233.348 269.243C231.44 269.255 229.557 269.243 227.674 269.124C229.593 269.029 231.488 269.005 233.383 268.993C235.278 268.981 237.221 268.993 239.057 269.112Z" fill="#000152"/>
<path d="M213.12 302.415C209.306 302.511 205.504 302.523 201.701 302.535C197.899 302.547 194.109 302.535 190.33 302.415C194.144 302.32 197.947 302.308 201.749 302.296C205.551 302.284 209.342 302.32 213.12 302.415Z" fill="#000152"/>
<path d="M213.859 297.719C210.092 297.814 206.349 297.826 202.607 297.838C198.864 297.85 195.121 297.838 191.402 297.719C195.169 297.624 198.912 297.612 202.654 297.6C206.397 297.588 210.128 297.552 213.859 297.719Z" fill="#000152"/>
<path d="M214.575 292.951C210.88 293.059 207.184 293.059 203.501 293.082C199.818 293.106 196.123 293.082 192.464 292.963C196.171 292.868 199.854 292.856 203.549 292.844C207.244 292.832 210.915 292.796 214.575 292.951Z" fill="#000152"/>
<path d="M215.313 288.184C211.666 288.291 208.03 288.291 204.395 288.315C200.759 288.338 197.148 288.315 193.536 288.195C197.184 288.088 200.819 288.088 204.443 288.064C208.066 288.04 211.701 288.04 215.313 288.184Z" fill="#000152"/>
<path d="M216.076 283.416C212.5 283.511 208.925 283.523 205.349 283.535C201.773 283.547 198.197 283.535 194.621 283.428C198.197 283.32 201.773 283.32 205.349 283.296C208.925 283.273 212.524 283.285 216.076 283.416Z" fill="#000152"/>
<path d="M216.898 278.648C213.322 278.743 209.854 278.755 206.35 278.767C202.845 278.779 199.341 278.767 195.86 278.66C199.436 278.553 202.893 278.541 206.397 278.529C209.902 278.517 213.406 278.529 216.898 278.648Z" fill="#000152"/>
<path d="M217.781 273.88C214.324 273.987 210.88 273.999 207.435 274.011C203.99 274.023 200.569 274.011 197.16 273.892C200.617 273.797 204.062 273.785 207.494 273.773C210.927 273.761 214.36 273.761 217.781 273.88Z" fill="#000152"/>
<path d="M218.794 269.112C215.408 269.22 212.047 269.231 208.686 269.243C205.325 269.255 201.963 269.243 198.638 269.124C202.023 269.029 205.384 269.017 208.745 269.005C212.107 268.993 215.408 269.005 218.794 269.112Z" fill="#000152"/>
<path d="M344.748 325.027C339.646 325.122 334.521 325.17 329.396 325.217C324.27 325.265 319.109 325.217 313.972 325.217C308.834 325.217 303.673 325.217 298.476 325.217L290.788 325.134L283.064 325.027C285.627 324.967 288.19 324.943 290.753 324.908L298.453 324.836C303.578 324.836 308.715 324.836 313.841 324.776C318.966 324.717 324.115 324.776 329.264 324.836C334.414 324.896 339.575 324.931 344.748 325.027Z" fill="white"/>
<path d="M345.82 327.375C339.956 327.482 334.055 327.518 328.155 327.566C322.255 327.613 316.331 327.566 310.419 327.566C304.507 327.566 298.571 327.566 292.647 327.566L283.755 327.518L274.875 327.399C277.831 327.339 280.775 327.315 283.731 327.28L292.575 327.208C298.535 327.208 304.376 327.208 310.276 327.148C316.176 327.089 322.1 327.148 328.012 327.208C333.924 327.268 339.86 327.28 345.82 327.375Z" fill="white"/>
<path d="M339.849 311.129C337.048 311.212 334.235 311.248 331.422 311.272C328.609 311.295 325.784 311.272 322.959 311.272C320.134 311.272 317.309 311.272 314.472 311.272C311.635 311.272 308.822 311.212 305.985 311.14C308.786 311.069 311.611 311.033 314.424 310.997C317.237 310.962 320.062 310.997 322.875 310.997C325.688 310.997 328.525 310.997 331.35 310.997C334.175 310.997 337.012 311.057 339.849 311.129Z" fill="#000152"/>
<path d="M339.288 309.102C335.403 309.174 331.517 309.21 327.619 309.245H315.914C312.017 309.245 308.107 309.245 304.197 309.245C300.288 309.245 296.39 309.186 292.48 309.114C296.366 309.043 300.264 309.007 304.162 308.971H315.855C319.752 308.971 323.65 308.971 327.548 308.971C331.445 308.971 335.367 309.031 339.288 309.102Z" fill="#000152"/>
<path d="M327.178 466.19C324.341 467.274 242.001 468.776 238.783 466.929C238.425 466.726 238.521 463.091 237.317 453.686C237.245 453.245 235.374 451.493 232.442 449.037C221.428 439.812 195.551 420.347 195.551 420.347L236.673 384.648L276.484 423.792L286.842 433.971C286.842 433.971 320.491 452.136 323.793 454.532C327.095 456.928 330.015 465.093 327.178 466.19Z" fill="#AD6359"/>
<path d="M327.178 466.178C324.342 467.286 242.002 468.776 238.783 466.929C238.426 466.726 238.533 463.091 237.305 453.686C237.305 453.245 235.374 451.505 232.442 449.037C228.616 445.831 226.792 444.365 221.095 439.919L273.338 420.717L276.473 423.792L286.819 433.971C286.819 433.971 320.468 452.136 323.77 454.532C327.071 456.928 330.015 465.093 327.178 466.178Z" fill="#E4EFFB"/>
<path d="M332.853 467.322C329.992 468.311 242.265 469.277 239.106 467.322C238.355 466.869 237.676 461.767 237.139 454.783C237.068 453.913 228.176 446.809 226.96 445.497L280.777 427.404L287.559 433.792C287.559 433.792 327.12 452.196 330.362 454.699C333.604 457.202 335.714 466.333 332.853 467.322Z" fill="#FF7F00"/>
<path d="M331.636 464.044C317.845 463.865 256.71 464.461 243.074 465.331C242.955 465.331 242.967 465.415 243.074 465.415C256.734 465.892 317.869 464.855 331.636 464.223C331.922 464.259 331.922 464.056 331.636 464.044Z" fill="#27273C"/>
<path d="M291.897 434.364C286.462 433.423 279.846 434.364 275.746 438.238C275.579 438.393 275.806 438.62 275.972 438.56C281.135 436.823 286.47 435.649 291.885 435.056C291.977 435.057 292.065 435.022 292.131 434.959C292.197 434.895 292.235 434.808 292.237 434.716C292.238 434.624 292.203 434.536 292.14 434.47C292.076 434.404 291.989 434.366 291.897 434.364Z" fill="#27273C"/>
<path d="M295.842 436.677C290.407 435.735 283.78 436.677 279.679 440.551C279.524 440.706 279.739 440.932 279.918 440.873C285.08 439.133 290.415 437.958 295.83 437.368C295.922 437.37 296.01 437.335 296.076 437.271C296.142 437.207 296.18 437.12 296.182 437.028C296.183 436.937 296.149 436.848 296.085 436.782C296.021 436.716 295.934 436.678 295.842 436.677Z" fill="#27273C"/>
<path d="M299.776 438.989C294.34 438.048 287.725 438.989 283.625 442.863C283.47 443.018 283.684 443.245 283.863 443.185C289.021 441.447 294.353 440.272 299.764 439.681C299.855 439.682 299.944 439.647 300.01 439.584C300.076 439.52 300.114 439.433 300.115 439.341C300.117 439.249 300.082 439.161 300.018 439.095C299.955 439.029 299.867 438.991 299.776 438.989Z" fill="#27273C"/>
<path d="M303.721 441.302C298.286 440.36 291.671 441.302 287.57 445.176C287.403 445.33 287.63 445.557 287.797 445.497C292.959 443.75 298.294 442.559 303.709 441.945C303.774 441.921 303.831 441.878 303.871 441.821C303.911 441.765 303.934 441.697 303.935 441.628C303.936 441.558 303.916 441.49 303.878 441.432C303.84 441.374 303.785 441.328 303.721 441.302Z" fill="#27273C"/>
<path d="M301.766 421.682C299.596 418.774 295.651 420.145 293.422 422.075C289.633 425.454 286.801 429.771 285.209 434.591C285.202 434.612 285.199 434.635 285.202 434.657C285.205 434.68 285.214 434.701 285.226 434.72C285.239 434.738 285.256 434.754 285.276 434.764C285.296 434.775 285.318 434.781 285.34 434.782C285.336 434.888 285.357 434.994 285.402 435.09C285.446 435.187 285.514 435.271 285.598 435.337C285.682 435.402 285.78 435.446 285.885 435.466C285.989 435.485 286.097 435.48 286.199 435.449C290.657 433.745 295.639 432.469 299.441 429.489C301.646 427.642 303.816 424.459 301.766 421.682ZM292.421 431.48C290.239 432.374 288.046 433.149 285.901 434.126C287.43 431.659 289.085 429.272 290.859 426.974C291.732 425.862 292.68 424.81 293.696 423.828C295.293 422.338 301.646 419.143 300.752 425.103C300.264 428.369 295.007 430.431 292.421 431.504V431.48Z" fill="#27273C"/>
<path d="M271.407 433.363C275.889 435.211 281.026 435.056 285.794 435.461C285.9 435.461 286.004 435.436 286.099 435.387C286.193 435.339 286.274 435.268 286.336 435.182C286.398 435.096 286.438 434.996 286.454 434.891C286.469 434.787 286.46 434.679 286.426 434.579C286.448 434.572 286.469 434.56 286.485 434.544C286.502 434.528 286.515 434.507 286.522 434.485C286.529 434.462 286.53 434.439 286.526 434.416C286.522 434.393 286.512 434.371 286.497 434.353C283.629 430.168 279.711 426.81 275.138 424.614C272.444 423.422 268.272 423.172 266.997 426.557C265.721 429.942 268.785 432.279 271.407 433.363ZM268.904 429.525C266.401 424.042 273.386 425.353 275.34 426.331C276.581 426.992 277.776 427.737 278.916 428.56C281.3 430.228 283.446 432.219 285.675 434.114C283.35 433.768 281.014 433.625 278.678 433.375C275.913 433.065 270.287 432.541 268.856 429.525H268.904Z" fill="#27273C"/>
<path d="M277.034 421.611L226.245 447.905C226.245 447.905 173.322 400.001 168.471 399.655C163.62 399.309 92.4481 447.619 56.5942 447.774C19.4768 447.929 17.6055 409.036 17.6055 409.036L71.7559 396.651C110.78 377.413 151.438 342.858 178.03 346.089C206.876 349.533 277.034 421.611 277.034 421.611Z" fill="#000285"/>
<path d="M264.625 414.9C256.055 419.143 258.451 417.808 249.928 422.135C245.756 424.257 224.754 434.853 221.19 437.475C221.173 437.489 221.161 437.508 221.157 437.529C221.152 437.551 221.155 437.573 221.164 437.593C221.174 437.612 221.19 437.628 221.21 437.637C221.23 437.646 221.253 437.648 221.274 437.642C225.469 436.236 246.233 425.186 250.369 422.993C258.82 418.512 256.329 419.715 264.744 415.138C264.776 415.122 264.8 415.095 264.811 415.061C264.822 415.028 264.82 414.991 264.804 414.959C264.788 414.928 264.76 414.904 264.727 414.893C264.693 414.881 264.657 414.884 264.625 414.9Z" fill="#A6C5FF"/>
<path d="M217.245 435.795C207.316 427.034 174.776 398.534 173.453 397.474C172.432 396.493 171.295 395.641 170.068 394.935C169.561 394.735 169.015 394.653 168.472 394.697C167.928 394.74 167.402 394.907 166.933 395.185C165.431 395.888 163.953 396.651 162.463 397.39L153.667 401.681C142.284 407.236 131.02 412.933 119.505 418.309C108.468 423.47 100.601 428.333 89.0868 432.302C77.6368 436.356 65.7906 439.189 53.7454 440.753C52.2674 440.932 50.7774 441.087 49.2875 441.23C49.1802 441.23 49.1802 441.409 49.2875 441.397C61.118 440.695 72.8144 438.517 84.1044 434.913C95.5114 431.337 103.259 426.843 114.094 421.801C125.322 416.628 136.395 411.074 147.469 405.603C153.309 402.694 159.138 399.762 165.002 396.89C166.325 396.246 168.22 394.827 169.77 395.531C170.408 395.882 170.997 396.314 171.522 396.818L173.465 398.439C175.98 400.537 215.863 434.889 217.174 435.878C217.21 435.986 217.341 435.878 217.245 435.795Z" fill="#A6C5FF"/>
<path d="M17.4982 409.036C17.4982 409.036 11.4193 444.15 28.9887 457.906C46.558 471.661 175.193 470.04 194.67 463.722C214.146 457.405 214.802 425.925 193.478 418.619C173.215 411.682 86.8341 408.308 84.7005 407.45C84.176 407.248 92.3648 402.337 92.329 402.039L72.6737 396.079L17.4982 409.036Z" fill="#000285"/>
<path d="M44.1489 408.153C44.1489 407.999 43.8867 408.046 43.8867 408.153C43.8912 412.233 42.4561 416.184 39.8341 419.31C36.8423 422.767 32.432 424.698 28.439 426.712C28.0576 426.915 28.3437 427.511 28.7489 427.392C31.2021 426.642 33.5647 425.622 35.7934 424.352C37.8452 423.261 39.6507 421.76 41.0975 419.942C42.3927 418.294 43.3325 416.396 43.8576 414.367C44.3828 412.338 44.482 410.223 44.1489 408.153Z" fill="#A6C5FF"/>
<path d="M83.3176 403.803C82.4236 402.611 81.4462 401.574 80.5165 400.477C78.3233 397.855 76.1182 395.233 73.8058 392.706C73.5913 392.467 73.1622 392.801 73.3648 393.063C74.9143 395.09 76.5592 397.056 78.1326 399.023L80.6238 402.063C81.5172 402.964 82.316 403.955 83.0077 405.019C83.6037 406.139 82.817 407.105 81.6489 407.224C80.6129 407.252 79.6059 406.88 78.8359 406.187C77.0929 404.641 75.4969 402.937 74.0681 401.097C73.1383 400.06 72.2086 399.011 71.267 397.986C70.3253 396.961 69.2049 395.853 68.2037 394.768C68.2037 394.696 68.0249 394.768 68.0725 394.875C68.9546 396.067 69.7532 397.319 70.6233 398.511C71.4934 399.703 72.3874 400.894 73.2814 402.086C74.1753 403.278 75.0216 404.292 75.9275 405.364C76.684 406.301 77.5902 407.107 78.6094 407.748C80.2781 408.726 83.1746 408.94 84.0685 406.783C84.2207 406.264 84.2313 405.714 84.0992 405.19C83.9672 404.666 83.6973 404.187 83.3176 403.803Z" fill="#A6C5FF"/>
<path d="M192.035 463.889C185.313 464.02 178.602 464.414 171.879 464.557C165.157 464.7 158.542 464.735 151.879 464.664C138.481 464.545 125.099 464.024 111.734 463.102C98.2288 462.173 83.675 460.826 70.2537 458.978C63.841 458.084 57.3329 457.345 50.9917 455.975C45.2885 454.894 40.0145 452.201 35.7943 448.215C27.1169 439.788 23.7318 427.403 22.3491 415.567C22.1584 413.982 22.0154 412.397 21.8842 410.8C21.8842 410.692 21.7054 410.692 21.7174 410.8C22.5041 422.934 24.3873 435.592 32.0158 445.366C35.2356 449.633 39.5238 452.976 44.4479 455.057C50.4077 457.441 57.1303 458.025 63.5191 458.883C76.9763 460.719 91.6015 462.125 105.142 463.174C118.683 464.223 132.438 464.89 146.098 465.093C159.757 465.296 173.441 465.093 187.101 464.425C188.758 464.354 190.426 464.247 192.083 464.104C192.131 464.032 192.131 463.889 192.035 463.889Z" fill="#A6C5FF"/>
<path d="M149.661 412.266C145.43 411.646 141.21 411.074 136.955 410.597C132.7 410.12 128.361 409.763 124.058 409.405C115.548 408.678 107.013 408.034 98.4788 407.641C93.6276 407.403 88.7882 407.379 83.937 407.45C83.782 407.45 83.794 407.665 83.937 407.689C92.4714 408.451 101.006 408.988 109.552 409.56C118.098 410.132 126.597 410.871 135.107 411.694C139.935 412.146 144.762 412.504 149.59 412.886C149.661 412.876 149.726 412.843 149.777 412.792C149.827 412.741 149.858 412.675 149.867 412.603C149.875 412.532 149.859 412.46 149.822 412.399C149.785 412.338 149.728 412.291 149.661 412.266Z" fill="#A6C5FF"/>
<path d="M93.3536 401.657C89.9455 403.121 86.6677 404.872 83.5557 406.89C80.3954 408.795 77.3688 410.914 74.4969 413.231C74.4134 413.303 74.4969 413.41 74.6041 413.362C77.9297 411.825 81.1122 409.906 84.2828 408.058C87.4918 406.261 90.5887 404.271 93.5562 402.098C93.7588 401.943 93.6396 401.538 93.3536 401.657Z" fill="#A6C5FF"/>
<path d="M58.7504 333.382C63.8758 355.898 74.508 382.896 79.0135 387.282C84.7707 392.837 122.961 403.076 124.868 403.29C129.636 403.767 139.171 369.82 134.106 369.081C126.453 367.961 98.6331 366.376 96.9763 364.659C95.3194 362.943 83.543 347.972 71.5042 331.284C63.244 319.699 55.5798 319.413 58.7504 333.382Z" fill="#A6675D"/>
<path d="M121.138 401.419C125.485 403.659 129.986 405.587 134.607 407.188C138.29 408.261 148.91 411.074 150.555 407.188C151.64 404.506 145.561 402.11 141.294 400.322C139.041 399.381 136.276 397.021 136.943 395.555C138.135 393.028 143.892 395.555 147.671 397.795C155.025 402.098 164.811 409.822 169.316 406.139C171.021 404.733 169.054 402.158 166.17 399.631C170.854 402.575 175.848 404.995 177.791 403.517C178.297 403.134 178.636 402.573 178.74 401.948C178.845 401.323 178.705 400.681 178.351 400.155C178.936 400.425 179.586 400.517 180.222 400.419C180.858 400.322 181.451 400.039 181.927 399.607C183.453 398.01 182.714 395.662 181.057 393.242C181.342 393.21 181.616 393.111 181.856 392.954C182.096 392.796 182.296 392.585 182.44 392.336C185.67 387.425 169.567 373.265 163.988 371.93C152.916 369.495 141.59 368.402 130.256 368.676C123.855 373.766 121.126 401.419 121.138 401.419Z" fill="#A6675D"/>
<path d="M145.322 386.376C149.233 387.001 152.966 388.447 156.277 390.62C160.436 393.385 163.19 396.58 166.67 399.857C166.766 399.941 166.67 400.084 166.551 400C164.882 398.451 157.993 392.646 156.217 391.323C153 388.889 149.27 387.222 145.311 386.448L145.322 386.376Z" fill="#27273C"/>
<path d="M148.469 379.416C152.853 380.461 157.118 381.951 161.199 383.861C165.586 386.102 169.007 389.821 172.38 393.266C174.394 395.376 176.373 397.533 178.34 399.738C178.423 399.822 178.34 399.977 178.208 399.881C174.799 396.25 171.279 392.726 167.648 389.309C164.297 386.117 160.353 383.615 156.038 381.942C153.571 381.001 151.032 380.25 148.493 379.487C148.338 379.475 148.362 379.404 148.469 379.416Z" fill="#27273C"/>
<path d="M153.035 373.325C157.23 374.195 160.878 374.946 164.597 377.198C168.753 379.982 172.545 383.273 175.884 386.996C177.72 388.963 179.46 390.989 181.224 393.051C181.296 393.135 181.153 393.254 181.081 393.171C177.104 388.665 172.84 384.421 168.316 380.464C166.187 378.551 163.774 376.979 161.164 375.804C158.517 374.758 155.785 373.94 152.999 373.36C152.999 373.36 153.011 373.325 153.035 373.325Z" fill="#27273C"/>
<path d="M127.682 367.234L115.846 404.435C115.846 404.435 84.045 395.28 78.2402 388.939C72.4353 382.598 61.7912 350.248 58.6683 334.55C55.5454 318.852 63.4361 319.258 70.7547 329.175C78.0733 339.092 96.1314 363.11 97.1445 363.634C98.1577 364.158 127.682 367.234 127.682 367.234Z" fill="#FF7F00"/>
<path d="M84.426 347.507C83.4248 349.402 82.5308 351.345 81.6846 353.312C80.0277 357.15 78.5497 361.071 76.9168 364.933C76.5592 365.744 76.2016 366.566 75.8202 367.317C75.8202 367.46 75.689 367.603 75.6294 367.734C74.4126 370.39 72.9268 372.915 71.1954 375.268C71.0881 375.005 70.9928 374.731 70.8736 374.469C72.5186 372.181 73.9282 369.733 75.0811 367.162C75.0811 367.019 75.2123 366.888 75.2719 366.757C75.6056 366.042 75.9274 365.315 76.2373 364.588C77.8822 360.75 79.3603 356.828 81.0051 352.966C81.8395 351.035 82.7096 349.128 83.687 347.257L83.9373 346.804L84.426 347.507ZM115.786 400.632C113.721 400.387 111.709 399.811 109.827 398.928C107.941 398.061 106.141 397.02 104.451 395.817L103.986 395.483L103.462 395.102C100.456 392.831 97.6121 390.354 94.951 387.688C88.9912 381.811 83.5082 375.458 77.7154 369.391C77.0717 368.712 76.4161 368.044 75.7486 367.365C75.5698 367.174 75.3911 366.984 75.2003 366.805C73.1025 364.671 70.9451 362.597 68.6804 360.63C67.4169 359.522 66.2249 358.509 64.8304 357.436C64.8304 357.615 64.9496 357.805 64.9972 357.984C66.1892 358.914 67.3811 359.891 68.4897 360.893C70.7663 362.907 72.9356 365.029 75.0573 367.21L75.6056 367.782C76.2254 368.414 76.7976 369.058 77.4412 369.701C83.1983 375.78 88.6456 382.157 94.5934 388.093C97.2059 390.726 99.9935 393.179 102.937 395.435L103.485 395.829C103.712 396.008 103.95 396.174 104.189 396.341C105.904 397.579 107.732 398.652 109.648 399.548C111.581 400.459 113.651 401.047 115.774 401.288C116.142 401.335 116.512 401.359 116.883 401.359L117.086 400.716C116.651 400.714 116.217 400.686 115.786 400.632ZM124.869 366.936C121.46 373.635 118.099 380.405 113.462 386.293C112.177 387.934 110.77 389.476 109.254 390.906C107.734 392.318 106.077 393.575 104.308 394.661L103.509 395.102L102.877 395.435C101.527 396.155 100.105 396.73 98.6341 397.152C97.687 397.472 96.7077 397.688 95.7138 397.795L96.9058 398.248C97.5479 398.124 98.181 397.956 98.801 397.748C100.4 397.278 101.943 396.634 103.402 395.829L104.01 395.483L104.582 395.161C106.383 394.05 108.069 392.76 109.612 391.311C111.14 389.855 112.554 388.285 113.843 386.615C118.528 380.596 121.865 373.742 125.274 366.983L124.869 366.936ZM72.1847 331.201C70.6468 332.067 69.208 333.098 67.8937 334.276C66.3385 335.717 64.9365 337.315 63.7099 339.044C62.6435 340.57 61.6761 342.162 60.8135 343.812C60.9088 344.158 60.9923 344.503 61.0876 344.861C62.049 343.012 63.1238 341.225 64.3059 339.509C65.4901 337.807 66.8483 336.233 68.3585 334.813C69.646 333.642 71.0568 332.615 72.5661 331.749L72.1847 331.201Z" fill="white"/>
<path d="M112.83 387.89C114.26 383.504 115.726 379.129 117.002 374.683C117.729 372.157 118.456 369.642 119.159 367.115C119.159 367.019 119.028 366.96 118.992 367.055C117.371 371.394 115.762 375.756 114.356 380.166C112.949 384.577 111.507 388.951 110.148 393.361C109.353 395.88 108.666 398.411 108.086 400.954C108.086 400.954 108.086 401.038 108.169 400.954C109.933 396.651 111.388 392.301 112.83 387.89Z" fill="#27273C"/>
<path d="M99.8015 399.273L98.395 398.785C95.7489 397.831 93.0431 396.806 90.5043 395.757L89.5388 395.364L88.025 394.708L87.286 394.386L87.0119 394.267L86.249 393.91C85.2478 393.445 84.2823 392.98 83.4003 392.503L82.7804 392.169C81.3842 391.45 80.0694 390.583 78.8589 389.583L78.5371 389.285L78.2391 388.987C72.4462 382.705 61.7902 350.296 58.6672 334.598L58.56 334.062C58.56 334.062 58.56 333.978 58.56 333.943C58.3454 332.751 58.1666 331.273 58.0117 329.675C57.5945 321.868 61.2895 320.605 65.8547 324.049C77.214 348.496 94.5569 388.903 99.8015 399.273Z" fill="#27273C"/>
<path d="M90.5049 395.757L15.0781 414.53C15.0781 412.981 23.7913 364.576 31.3721 347.543C41.0984 325.694 46.4265 323.787 49.6209 322.512C53.6855 320.891 61.0517 321.379 62.8277 322.142C64.8302 322.988 71.5051 333.764 74.044 341.75C79.1217 357.77 91.4823 394.744 90.5049 395.757Z" fill="#FF7F00"/>
<path d="M79.4905 358.628C78.6323 360.726 77.786 362.835 76.892 364.933C76.5344 365.744 76.1768 366.566 75.7954 367.317C75.7954 367.46 75.6643 367.603 75.6047 367.734C74.2886 370.636 72.6407 373.376 70.6939 375.899C69.5534 377.32 68.217 378.572 66.7247 379.618C66.5853 379.728 66.4378 379.828 66.2836 379.916L65.938 380.143C64.1069 381.247 62.0856 381.998 59.9782 382.36C55.7939 383.142 51.4888 382.996 47.3674 381.93C44.5063 381.187 41.7147 380.198 39.0237 378.974L37.9748 378.521L35.5909 377.449C31.8749 375.569 27.9556 374.121 23.9097 373.134L23.5641 373.074C23.5641 372.86 23.6714 372.645 23.7309 372.431H24.0289C28.1358 373.404 32.1129 374.86 35.8769 376.769C36.9259 377.246 37.9748 377.723 39.0237 378.176L40.0011 378.605C42.4475 379.669 44.9744 380.538 47.5581 381.203C51.5794 382.237 55.7784 382.375 59.859 381.609C61.8902 381.261 63.8386 380.538 65.6042 379.475L65.8188 379.332C65.9728 379.248 66.1202 379.152 66.2598 379.046C67.7297 378.017 69.0461 376.785 70.1694 375.387C72.1279 372.831 73.7801 370.055 75.0922 367.114C75.0922 366.971 75.2233 366.84 75.2829 366.709C75.6166 365.994 75.9384 365.267 76.2484 364.54C77.2615 362.156 78.2032 359.772 79.1686 357.388L79.4905 358.628ZM85.6529 377.89C83.0425 375.041 80.4321 372.192 77.7621 369.391C77.1185 368.712 76.4629 368.044 75.7954 367.365C75.6166 367.174 75.4378 366.983 75.2471 366.805C73.1493 364.671 70.9918 362.597 68.7271 360.63C65.6083 357.809 62.177 355.353 58.5002 353.312C58.1664 353.133 57.8446 352.966 57.499 352.811L56.8076 352.477C53.5637 350.911 49.9909 350.146 46.39 350.248C45.8655 350.248 45.341 350.308 44.8166 350.391L44.0299 350.499L43.267 350.666C42.23 350.892 41.2407 351.238 40.2276 351.524C39.572 351.762 38.9283 352.001 38.2847 352.263C38.1655 352.3 38.0498 352.348 37.939 352.406C36.7415 352.876 35.5819 353.438 34.4704 354.086C31.7633 355.597 29.2866 357.487 27.1161 359.701C27.0446 359.939 26.9731 360.177 26.9135 360.416C29.1579 358.012 31.7541 355.962 34.6135 354.337C35.7634 353.671 36.9582 353.085 38.1893 352.585L38.535 352.442L40.2872 351.774C41.2884 351.5 42.2777 351.142 43.2909 350.916L44.0537 350.749L44.8285 350.642C45.3416 350.561 45.859 350.509 46.378 350.487C49.9481 350.375 53.4903 351.149 56.6884 352.74L57.3798 353.061L58.3452 353.562C61.9912 355.616 65.3939 358.075 68.4887 360.893C70.7654 362.907 72.9347 365.029 75.0564 367.21L75.6047 367.782C76.2245 368.414 76.7967 369.057 77.4403 369.701C80.3368 372.764 83.1617 375.899 86.0104 379.022L85.6529 377.89ZM86.6541 396.091C84.7688 395.224 82.969 394.183 81.2784 392.98C77.8844 390.534 74.6953 387.815 71.7428 384.851C70.0264 383.158 68.3457 381.418 66.6889 379.666L66.1883 379.141C62.2787 374.969 58.4644 370.702 54.5071 366.554C53.8635 365.875 53.2079 365.207 52.5404 364.54C52.3659 364.338 52.1788 364.146 51.9802 363.968C49.8943 361.834 47.7369 359.76 45.4841 357.793C43.2907 355.85 40.9647 354.062 38.5231 352.442C38.4392 352.371 38.3472 352.311 38.2489 352.263C37.2715 351.619 36.2703 351.023 35.2452 350.475C33.8456 349.724 32.3864 349.09 30.8827 348.58C30.8561 348.665 30.8243 348.749 30.7873 348.83C32.274 349.35 33.7168 349.988 35.1022 350.737C36.0557 351.25 36.9974 351.81 37.9033 352.406C38.0015 352.454 38.0936 352.514 38.1774 352.585C40.6612 354.241 43.0233 356.074 45.2457 358.068C47.5104 360.07 49.6797 362.192 51.8014 364.373L52.3497 364.945C52.9695 365.577 53.5417 366.221 54.1853 366.864C58.0949 370.988 61.8615 375.208 65.7473 379.427C65.9062 379.602 66.0731 379.781 66.2479 379.964C67.9047 381.752 69.5973 383.54 71.3375 385.256C74.2844 388.262 77.4737 391.021 80.8731 393.504C82.5881 394.749 84.4205 395.822 86.3442 396.711H86.4515L87.5481 396.437L86.6541 396.091ZM70.0621 332.56C69.3161 333.092 68.5998 333.665 67.9166 334.276C66.3615 335.717 64.9594 337.315 63.7329 339.044C62.5225 340.774 61.4275 342.582 60.455 344.455C59.4895 346.327 58.6075 348.246 57.7731 350.165L56.8076 352.465L56.7003 352.728C55.5084 355.755 54.3164 358.807 52.9934 361.786C52.6835 362.514 52.3616 363.241 52.016 363.956C52.016 364.087 51.8968 364.218 51.8372 364.361C50.5251 367.301 48.8729 370.078 46.9144 372.633C45.641 374.244 44.1107 375.633 42.385 376.745C41.3342 377.395 40.2046 377.908 39.0237 378.271C38.6754 378.389 38.3213 378.488 37.9629 378.569C37.5338 378.688 37.0927 378.784 36.6517 378.867C32.5671 379.634 28.3642 379.495 24.3388 378.462C23.6952 378.307 23.0515 378.128 22.4198 377.926C22.4198 378.152 22.3125 378.378 22.2529 378.617C22.8847 378.819 23.5283 378.998 24.172 379.153C28.2951 380.208 32.5989 380.351 36.7828 379.57C37.5353 379.429 38.2794 379.245 39.0118 379.022C39.3455 378.927 39.6793 378.819 40.0011 378.7C40.965 378.343 41.8912 377.892 42.7664 377.353C44.5814 376.215 46.193 374.781 47.5342 373.11C49.481 370.587 51.129 367.847 52.4451 364.945C52.4451 364.814 52.5762 364.683 52.6358 364.54C53.0172 363.729 53.3748 362.919 53.7324 362.096C55.0316 359.093 56.2116 356.065 57.4513 353.061C57.4773 352.974 57.5133 352.89 57.5586 352.811C57.8685 352.024 58.1903 351.25 58.524 350.427C60.0907 346.581 62.0352 342.9 64.3288 339.437C65.5131 337.736 66.8713 336.162 68.3815 334.741C69.0251 334.169 69.6807 333.621 70.372 333.12C70.2767 332.953 70.1694 332.751 70.0621 332.56Z" fill="white"/>
<path d="M39.1795 330.164C26.8905 342.87 -3.48043 391.407 5.67376 400.537C14.828 409.667 66.7613 398.618 81.4223 391.979C85.7849 390.012 69.8842 362.752 64.8184 362.025C60.5989 361.417 38.7981 370.881 38.1902 369.63C37.5823 368.378 41.1462 357.901 46.7127 339.223C53.1134 317.684 44.6267 324.55 39.1795 330.164Z" fill="#A6675D"/>
<path d="M86.4883 353.741C97.0132 352.477 99.9097 353.741 108.229 347.996C113.701 344.205 118.468 346.053 115.274 352.191C110.053 362.228 96.7987 366.709 91.7686 366.936L86.4883 353.741Z" fill="#A6675D"/>
<path d="M58.3691 363.276C58.3691 363.276 70.2887 356.947 81.3857 354.504C89.05 352.799 106.143 350.928 122.139 368.116C125.929 372.18 128.456 380.667 119.85 376.281C113.735 373.158 110.803 369.332 106.917 368.163C106.917 368.163 108.836 379.332 104.617 382.979C100.924 386.163 97.0086 389.079 92.9 391.705C92.251 391.063 91.6419 390.382 91.0763 389.666C91.0763 389.666 86.8091 392.694 78.9065 391.788L58.3691 363.276Z" fill="#A6675D"/>
<path d="M88.9677 354.086C92.5435 356.065 100.16 360.368 105.142 366.006C110.673 372.323 119.625 385.983 114.916 390.012C111.472 392.968 107.598 388.057 107.598 388.057C107.598 388.057 110.101 394.482 106.406 396.472C103.033 398.284 100.255 394.303 100.255 394.303C100.255 394.303 101.114 398.463 97.5259 399.583C93.223 400.942 92.1383 392.002 86.5957 389.595C85.2965 389.106 88.9677 354.086 88.9677 354.086Z" fill="#A6675D"/>
<path d="M97.4893 370.786C102.541 375.338 106.087 381.321 107.657 387.938C107.657 388.117 107.573 388.224 107.514 388.081C104.869 381.945 101.483 376.157 97.4297 370.845L97.4893 370.786Z" fill="#27273C"/>
<path d="M91.2559 376.555C93.7113 378.939 99.1704 386.674 100.374 394.291C100.374 394.458 100.279 394.565 100.231 394.41C97.913 388.158 94.9024 382.185 91.2559 376.602C91.2559 376.602 91.2559 376.531 91.2559 376.555Z" fill="#27273C"/>
<path d="M106.918 368.128C110.315 369.2 112.508 370.929 115.357 372.991C116.758 374.028 118.214 374.987 119.72 375.863C121.102 376.65 123.129 377.83 124.643 376.674C124.995 376.315 125.244 375.867 125.363 375.379C125.483 374.89 125.469 374.378 125.322 373.897C124.937 372.497 124.329 371.169 123.522 369.963C123.522 369.963 123.522 369.856 123.594 369.904C124.378 371.003 125.045 372.182 125.584 373.42C125.937 374.264 126.028 375.194 125.846 376.09C125.31 377.973 123.069 378.176 121.508 377.628C120.574 377.266 119.679 376.811 118.838 376.269C118.015 375.78 117.217 375.244 116.454 374.695C114.845 373.563 113.307 372.311 111.686 371.191C110.139 370.105 108.522 369.122 106.847 368.247C106.847 368.247 106.847 368.116 106.918 368.128Z" fill="#27273C"/>
<path d="M113.903 380.309C111.828 376.131 109.487 372.09 106.895 368.211L106.966 368.152C109.588 370.726 113.736 377.532 114.702 379.702C115.844 381.963 116.517 384.432 116.68 386.961C116.609 390.536 114.225 391.168 113.343 391.323C112.299 391.487 111.231 391.289 110.315 390.763C109.241 390.077 108.319 389.176 107.61 388.117C107.61 388.117 107.61 387.998 107.681 388.117C108.873 389.547 110.923 390.977 112.866 390.763C113.3 390.723 113.722 390.597 114.107 390.393C114.491 390.188 114.832 389.909 115.107 389.571C115.655 388.72 115.876 387.699 115.727 386.698C115.487 384.48 114.871 382.32 113.903 380.309Z" fill="#27273C"/>
<path d="M58.3697 363.276L74.2465 398.415C74.2465 398.415 9.21356 411.705 3.83785 400.334C-1.53785 388.963 24.5063 345.397 36.0563 332.739C49.4777 318.102 51.063 323.203 47.9043 336.315C44.6145 350.07 38.3687 369.939 38.3687 369.939L58.3697 363.276Z" fill="#FF7F00"/>
<path d="M65.986 380.166C64.1549 381.27 62.1336 382.022 60.0262 382.383C55.8419 383.166 51.5368 383.02 47.4154 381.954C44.5543 381.211 41.7627 380.222 39.0717 378.998L38.0228 378.545L35.6389 377.473C31.9229 375.593 28.0036 374.145 23.9577 373.158C22.1527 372.803 20.3054 372.715 18.4748 372.895C18.3124 372.877 18.1485 372.877 17.9861 372.895H17.8073C17.2947 372.895 16.7941 373.086 16.2935 373.182C15.7929 373.277 15.328 373.491 14.8393 373.634C14.3506 373.778 13.9334 374.052 13.5043 374.29C13.2898 374.445 13.0633 374.588 12.8368 374.731C12.6306 374.863 12.4317 375.007 12.2409 375.16C10.5882 376.517 9.17416 378.141 8.0571 379.964C7.52072 380.786 7.00818 381.621 6.51948 382.479C6.87707 381.525 7.27041 380.548 7.71143 379.57C8.81554 377.815 10.1869 376.242 11.776 374.91L12.0978 374.648L12.7891 374.195L13.0991 373.992C13.5639 373.73 14.0526 373.503 14.5413 373.277C15.03 373.05 15.5545 372.907 16.0789 372.788C16.6034 372.669 17.1159 372.538 17.6523 372.478L18.2721 372.395C18.439 372.395 18.594 372.395 18.7608 372.395C20.5135 372.253 22.2771 372.346 24.0054 372.669C28.1123 373.642 32.0894 375.098 35.8534 377.008C36.9023 377.484 37.9513 377.961 39.0002 378.414L39.9776 378.843C42.424 379.908 44.9509 380.776 47.5346 381.442C51.5559 382.475 55.7549 382.613 59.8355 381.847C61.8667 381.5 63.8151 380.776 65.5807 379.713L65.6999 379.642L65.986 380.166ZM44.0302 350.499L43.2674 350.666C42.2304 350.892 41.2411 351.238 40.2279 351.524C39.5723 351.762 38.9287 352.001 38.285 352.263C38.1658 352.3 38.0501 352.348 37.9393 352.406C36.7418 352.876 35.5822 353.438 34.4708 354.086C30.7998 356.168 27.5432 358.908 24.8636 362.168C23.5249 363.791 22.2869 365.495 21.1567 367.269C20.1316 368.914 19.1542 370.583 18.2602 372.288C18.1768 372.431 18.1053 372.586 18.0218 372.741L17.9026 372.979C17.4139 373.897 16.9491 374.814 16.4961 375.744C16.3888 375.959 16.2816 376.161 16.1862 376.376C14.9347 378.927 13.7427 381.501 12.4792 384.028C11.5585 385.909 10.5317 387.735 9.40401 389.499C8.30067 391.252 6.92452 392.817 5.32753 394.136C4.94682 394.445 4.54886 394.731 4.13558 394.994C3.83759 395.161 3.52768 395.316 3.21777 395.459C3.21777 395.698 3.21777 395.924 3.21777 396.139C3.63496 395.936 4.05214 395.733 4.40973 395.507C4.86739 395.226 5.30909 394.919 5.73279 394.589C7.36434 393.231 8.76865 391.622 9.89271 389.821C11.0177 388.041 12.0405 386.199 12.956 384.302C14.2195 381.752 15.3399 379.165 16.6272 376.614C16.7226 376.4 16.8299 376.197 16.9371 375.983C17.4139 374.981 17.9145 373.98 18.4271 372.991L18.7847 372.323C19.631 370.702 20.5488 369.117 21.5142 367.556C22.6362 365.791 23.858 364.091 25.1735 362.466C27.8156 359.226 31.0269 356.495 34.6495 354.408C35.7995 353.742 36.9943 353.157 38.2254 352.656L38.5711 352.513L40.3232 351.846C41.3245 351.571 42.3138 351.214 43.327 350.987L44.0898 350.82L44.1613 350.558L44.0302 350.499ZM38.5592 352.442C38.4753 352.371 38.3833 352.311 38.285 352.263C37.3076 351.619 36.3064 351.023 35.2813 350.475C32.157 348.734 28.692 347.693 25.1259 347.423L24.9828 347.65C28.5552 347.912 32.0244 348.967 35.1383 350.737C36.0918 351.25 37.0335 351.81 37.9393 352.406C38.0376 352.454 38.1296 352.514 38.2135 352.585C39.7392 353.574 41.2053 354.671 42.6356 355.815C42.6745 355.702 42.7063 355.586 42.731 355.469C41.3841 354.396 40.0014 353.383 38.5592 352.442ZM64.8655 377.687C61.4327 373.992 58.0476 370.226 54.5551 366.566C54.0784 366.066 53.6016 365.565 53.101 365.076L52.66 365.231C53.1963 365.78 53.7089 366.328 54.2333 366.876C58.0595 370.917 61.7426 375.089 65.5449 379.177L64.8655 377.687ZM51.2058 365.66C50.0266 368.123 48.5882 370.452 46.9147 372.609C45.6433 374.228 44.1129 375.626 42.3853 376.745C41.3345 377.395 40.2049 377.908 39.024 378.271C38.6757 378.389 38.3217 378.488 37.9632 378.569C37.5341 378.688 37.0931 378.784 36.652 378.867C32.5675 379.634 28.3645 379.495 24.3392 378.462C21.8085 377.813 19.3333 376.964 16.9371 375.923L16.5319 375.744C15.4909 375.299 14.4658 374.846 13.4566 374.385L12.813 374.087L12.5865 374.004L10.5125 373.074L10.2026 373.694L12.0382 374.517L12.2885 374.636L12.67 374.814C13.8619 375.327 14.9704 375.852 16.1385 376.352L16.5438 376.531C18.9881 377.59 21.5107 378.459 24.0889 379.129C28.212 380.185 32.5158 380.327 36.6997 379.547C37.4522 379.405 38.1963 379.222 38.9287 378.998C39.2624 378.903 39.5962 378.796 39.918 378.676C40.8818 378.32 41.8081 377.868 42.6833 377.33C44.4983 376.191 46.1099 374.757 47.4511 373.086C49.3279 370.696 50.9274 368.101 52.2189 365.35L51.2058 365.66Z" fill="white"/>
<path d="M18.5467 378.855C21.5877 376.833 24.7751 375.04 28.0823 373.492C31.3578 371.958 34.7447 370.675 38.2139 369.653C40.1807 369.046 42.1712 368.533 44.1737 368.009C44.1737 368.009 44.2571 368.08 44.1737 368.104C40.6995 369.154 37.2888 370.404 33.9587 371.847C30.6291 373.253 27.3354 374.719 24.0774 376.245C22.2179 377.103 20.4181 378.057 18.5944 378.975C18.5811 378.973 18.5683 378.969 18.5575 378.961C18.5467 378.953 18.5384 378.942 18.5334 378.93C18.5285 378.917 18.5271 378.904 18.5294 378.891C18.5318 378.877 18.5378 378.865 18.5467 378.855Z" fill="#27273C"/>
<path d="M58.1909 363.205C57.8691 363.288 40.0494 368.783 39.4654 369.046C39.5369 368.783 42.8982 359.427 43.3988 358.056L43.5419 357.651C43.8756 357.043 44.2213 356.459 44.5312 355.815L45.7231 353.431L44.4358 355.815C44.2451 356.172 44.0544 356.542 43.8756 356.911C44.2093 355.946 44.5192 354.981 44.8411 354.003C45.3536 352.442 45.8066 350.88 46.2595 349.307C46.2595 349.307 46.2595 349.235 46.1761 349.307C45.1867 352.036 44.1021 354.73 43.1008 357.46C42.0996 360.189 38.2615 370.214 38.333 370.214C38.4045 370.214 57.9645 363.706 58.3459 363.563C58.3933 363.542 58.4306 363.504 58.4496 363.455C58.4686 363.407 58.4678 363.354 58.4472 363.306C58.4267 363.259 58.3881 363.222 58.3401 363.203C58.292 363.184 58.2384 363.184 58.1909 363.205Z" fill="#27273C"/>
<path d="M58.9546 385.924C57.2024 382.002 55.486 378.069 53.5908 374.207C52.518 372.013 51.4572 369.82 50.3606 367.639C50.3606 367.556 50.1699 367.639 50.2056 367.699C51.8029 371.704 53.412 375.72 55.1999 379.618C56.9878 383.516 58.7043 387.449 60.5279 391.347C61.5689 393.548 62.6695 395.725 63.8297 397.879C63.8297 397.879 63.925 397.879 63.9131 397.879C62.447 393.838 60.7067 389.893 58.9546 385.924Z" fill="#27273C"/>
<path d="M75.069 399.035C74.4372 397.95 73.6506 396.389 72.9831 395.328C72.8043 395.042 72.5897 395.102 72.7328 395.388C73.1976 396.377 73.591 397.474 74.0558 398.487L71.3143 398.964L68.1557 399.571C66.0936 399.953 64.0196 400.31 61.9575 400.656C57.7459 401.347 53.5344 401.951 49.3228 402.468C40.8542 403.534 32.3365 404.167 23.8031 404.363C21.4192 404.363 19.0353 404.363 16.6514 404.363C14.2966 404.326 11.9453 404.167 9.60698 403.886C9.60698 403.886 9.53546 403.994 9.60698 404.005C11.6182 404.468 13.6628 404.771 15.7217 404.911C17.8791 405.066 20.0366 405.15 22.194 405.174C26.5089 405.174 30.8118 405.007 35.1028 404.697C43.6134 404.089 52.1001 403.1 60.5391 401.776C62.923 401.403 65.2791 401.006 67.6074 400.585C68.7993 400.37 69.9913 400.155 71.1832 399.917C72.5008 399.732 73.8005 399.437 75.069 399.035Z" fill="#27273C"/>
<path d="M62.9949 337.614C58.5847 338.162 51.9217 330.796 49.5378 325.134C49.3828 324.753 50.3602 320.962 51.3257 316.302C51.9098 313.477 52.5177 310.342 52.8037 307.398C52.8037 306.79 70.683 313.834 70.683 313.834C69.2403 317.378 68.2356 321.085 67.6912 324.872C67.6568 325.268 67.6568 325.667 67.6912 326.064V326.326C67.8342 328.626 67.2621 337.054 62.9949 337.614Z" fill="#A6675D"/>
<path d="M53.9717 307.6C54.2816 312.642 56.0576 324.92 65.8197 326.195C66.4469 326.287 67.0812 326.323 67.7149 326.302C67.7275 326.235 67.7275 326.167 67.7149 326.1C67.6862 325.703 67.6862 325.304 67.7149 324.908C68.2606 321.119 69.2694 317.412 70.7186 313.87C70.7186 313.87 57.8813 308.769 53.9717 307.6Z" fill="#6B3128"/>
<path d="M49.0961 287.325C47.6539 294 52.672 312.547 57.6424 316.361C64.8776 321.892 75.927 321.558 80.4206 313.048C84.7832 304.799 77.8341 280.746 72.3392 277.361C64.2458 272.378 51.2416 277.456 49.0961 287.325Z" fill="#A6675D"/>
<path d="M68.4887 297.29C68.4887 297.29 68.4171 297.385 68.4291 297.433C68.8462 298.625 69.1204 300.127 68.1191 300.878C68.1191 300.878 68.1191 300.961 68.1191 300.949C69.466 300.341 69.0846 298.387 68.4887 297.29Z" fill="#27273C"/>
<path d="M66.9876 296.336C64.9612 296.789 66.0221 300.83 67.9054 300.413C69.7886 299.996 68.704 295.955 66.9876 296.336Z" fill="#27273C"/>
<path d="M75.5107 295.478C75.5107 295.478 75.618 295.478 75.6299 295.574C75.916 296.825 76.4643 298.22 77.7039 298.339C77.7039 298.339 77.7635 298.41 77.7039 298.41C76.2855 298.589 75.5823 296.73 75.5107 295.478Z" fill="#27273C"/>
<path d="M76.2731 293.881C78.2518 293.202 79.4676 297.195 77.6439 297.826C75.8202 298.458 74.6282 294.453 76.2731 293.881Z" fill="#27273C"/>
<path d="M64.2937 293.631C64.842 293.44 65.3188 293.178 65.8552 292.939C66.4413 292.764 66.9553 292.405 67.3213 291.914C67.4041 291.739 67.4268 291.541 67.3859 291.351C67.3449 291.162 67.2426 290.991 67.0948 290.865C66.7564 290.669 66.3718 290.565 65.9803 290.565C65.5888 290.565 65.2043 290.669 64.8659 290.865C64.1167 291.142 63.4994 291.691 63.1375 292.403C63.0768 292.567 63.0631 292.745 63.098 292.917C63.1329 293.089 63.2151 293.248 63.3352 293.375C63.4554 293.503 63.6088 293.594 63.7781 293.639C63.9474 293.685 64.126 293.682 64.2937 293.631Z" fill="#27273C"/>
<path d="M77.357 290.448C76.7854 290.484 76.2121 290.484 75.6406 290.448C75.037 290.535 74.4216 290.422 73.8884 290.126C73.7396 289.999 73.6368 289.826 73.5959 289.634C73.555 289.443 73.5782 289.243 73.6619 289.066C73.8834 288.746 74.1848 288.489 74.5361 288.322C74.8875 288.155 75.2764 288.082 75.6644 288.112C76.4629 288.065 77.251 288.311 77.8814 288.803C78.0193 288.924 78.1189 289.083 78.168 289.259C78.2171 289.436 78.2136 289.623 78.158 289.798C78.1023 289.972 77.9968 290.127 77.8545 290.242C77.7123 290.358 77.5393 290.43 77.357 290.448Z" fill="#27273C"/>
<path d="M69.4665 309.472C69.8479 309.686 70.2532 310.008 70.6584 309.925C71.1222 309.794 71.5528 309.567 71.9219 309.257C71.9219 309.257 72.0173 309.257 71.9934 309.257C71.8808 309.551 71.6904 309.808 71.4425 310.001C71.1947 310.194 70.8989 310.316 70.5869 310.354C70.3146 310.354 70.0483 310.274 69.8214 310.123C69.5945 309.973 69.4172 309.758 69.3115 309.507C69.3234 309.484 69.4069 309.436 69.4665 309.472Z" fill="#27273C"/>
<path d="M69.8006 305.371C70.2448 305.793 70.7723 306.117 71.3491 306.322C71.926 306.527 72.5394 306.61 73.15 306.563C73.681 306.535 74.204 306.423 74.6995 306.23C74.7991 306.206 74.8952 306.17 74.9856 306.122L75.2478 306.015C75.3136 305.984 75.367 305.932 75.3995 305.867C75.4319 305.803 75.4415 305.729 75.4266 305.658C75.4266 305.658 75.4266 305.574 75.4266 305.526V305.419C75.2002 304.454 74.7234 303.035 74.7234 303.035C75.1167 303.119 77.1073 303.452 76.9642 302.964C75.7043 298.648 74.0111 294.471 71.9104 290.496C71.8947 290.473 71.8714 290.456 71.8444 290.448C71.8175 290.44 71.7887 290.442 71.7631 290.454C71.7375 290.465 71.7167 290.485 71.7044 290.51C71.6921 290.535 71.689 290.564 71.6958 290.591C72.8282 294.584 74.6638 298.351 75.8676 302.344C75.1524 302.211 74.4216 302.183 73.6983 302.26C73.5791 302.344 74.6757 305.026 74.7472 305.479C73.9791 305.766 73.1608 305.896 72.3414 305.859C71.522 305.822 70.7185 305.62 69.9794 305.264C69.8006 305.181 69.6933 305.3 69.8006 305.371Z" fill="#27273C"/>
<path d="M73.9966 305.848C73.6453 306.675 73.087 307.397 72.3756 307.946C71.9818 308.26 71.4961 308.436 70.9929 308.447C69.932 308.447 69.6698 307.541 69.646 306.706C69.6357 306.262 69.6798 305.817 69.7771 305.383C71.096 305.992 72.5769 306.155 73.9966 305.848Z" fill="#27273C"/>
<path d="M72.3751 307.946C71.9814 308.26 71.4957 308.436 70.9924 308.447C69.9316 308.447 69.6693 307.541 69.6455 306.706C70.1736 306.569 70.7328 306.618 71.2295 306.843C71.7263 307.069 72.1307 307.458 72.3751 307.946Z" fill="#FF98B9"/>
<path d="M51.5153 305.562C54.829 303.989 54.6263 292.022 54.6263 292.022C54.6263 292.022 55.4249 296.98 56.3427 296.694C57.2606 296.408 59.9186 289.066 59.5253 284.167C62.5682 285.514 65.7737 286.46 69.0609 286.98C73.6856 287.552 78.5131 286.431 78.3819 285.68C78.0124 283.451 74.9968 277.968 71.6117 276.419C69.1191 275.123 66.3285 274.507 63.5219 274.635C60.7153 274.762 57.9921 275.629 55.6276 277.146C48.893 281.115 47.7965 286.062 47.2839 289.828C46.7714 293.595 50.2996 306.146 51.5153 305.562Z" fill="#27273C"/>
<path d="M54.4001 302.332C54.4001 302.332 49.5251 296.694 46.9147 298.494C44.3043 300.294 48.4285 308.78 51.7898 309.651C52.2136 309.792 52.6617 309.846 53.1069 309.809C53.5522 309.773 53.9855 309.646 54.3807 309.438C54.776 309.23 55.1251 308.944 55.407 308.598C55.6889 308.251 55.8978 307.851 56.0212 307.422L54.4001 302.332Z" fill="#A6675D"/>
<path d="M48.1543 300.902C48.1543 300.902 48.1543 300.973 48.1543 300.985C50.5382 301.664 51.9328 303.655 52.9936 305.753C52.8382 305.539 52.6383 305.361 52.4076 305.231C52.1769 305.101 51.9209 305.023 51.6571 305.001C51.3933 304.98 51.1279 305.016 50.8793 305.106C50.6306 305.197 50.4045 305.34 50.2164 305.526C50.2164 305.526 50.2164 305.669 50.2879 305.646C50.6755 305.477 51.1057 305.432 51.5196 305.518C51.9336 305.603 52.311 305.814 52.6003 306.122C53.0739 306.643 53.4932 307.21 53.8518 307.815C53.971 308.006 54.3286 307.815 54.2333 307.636C53.9591 304.68 51.3011 300.866 48.1543 300.902Z" fill="#27273C"/>
<path d="M67.5358 275.501C65.054 274.525 62.4447 273.911 59.7881 273.677C56.8202 273.487 47.5587 274.75 45.4847 276.741C43.4107 278.731 43.2915 287.528 43.3034 288.815C43.3153 290.103 44.3523 297.814 47.2607 299.543C50.1691 301.271 49.6446 288.064 53.8522 283.44C58.0598 278.815 67.5358 275.501 67.5358 275.501Z" fill="#FF7F00"/>
<path opacity="0.1" d="M67.5353 275.513C67.5353 275.513 57.9997 278.803 53.804 283.428C49.6083 288.052 50.1328 301.295 47.2125 299.531C45.9252 298.78 45.2577 297.588 44.626 295.562C44.9836 291.676 46.1994 285.621 49.1554 281.258C51.9326 277.218 56.9865 274.953 62.4814 273.999C64.2064 274.358 65.8973 274.864 67.5353 275.513Z" fill="black"/>
<path d="M48.4399 307.255C48.4399 303.738 51.5032 294.143 54.9241 288.541C58.345 282.939 69.2275 279.148 70.7175 279.148C74.4602 279.148 75.7952 280.197 76.3673 279.828C76.9395 279.458 72.9226 276.872 71.8379 276.312C70.7532 275.751 67.8329 274.428 66.2119 274.559C64.5908 274.691 54.65 276.276 51.2529 280.758C47.8558 285.239 43.4218 297.445 44.5422 300.508C44.8163 301.223 45.8176 301.641 46.199 302.666C46.6877 304.013 47.0691 305.574 47.534 306.504C47.9989 307.433 48.4399 307.6 48.4399 307.255Z" fill="#FF7F00"/>
<path d="M48.2014 303.798C48.0822 303.548 47.9034 303.333 47.7723 303.095C47.6163 302.827 47.4885 302.543 47.3909 302.249C47.2898 301.672 47.1259 301.109 46.9022 300.568C46.6451 300.164 46.3454 299.788 46.0082 299.447C45.5951 299.092 45.3208 298.603 45.2335 298.065C45.2335 297.993 45.1143 297.993 45.1143 298.065C45.3293 299.045 45.7885 299.955 46.4492 300.711C46.696 301.285 46.8914 301.879 47.0333 302.487C47.2145 303.051 47.5691 303.543 48.0465 303.893C48.118 303.953 48.2372 303.882 48.2014 303.798Z" fill="#27273C"/>
<path d="M49.1912 299.936C48.8336 299.555 48.4522 299.221 48.1304 298.804C47.8273 298.398 47.5525 297.972 47.3079 297.528C47.0576 297.099 46.8431 296.646 46.6047 296.217C46.3663 295.788 45.9729 295.204 45.7226 294.68C45.7226 294.608 45.5915 294.68 45.6273 294.739C45.8895 295.287 46.0564 295.931 46.3067 296.444C46.5287 296.923 46.7794 297.389 47.0576 297.838C47.3219 298.263 47.6251 298.662 47.9635 299.03C48.2944 299.417 48.6997 299.733 49.1554 299.96C49.1554 299.96 49.215 299.96 49.1912 299.936Z" fill="#27273C"/>
<path d="M50.2639 296.432C49.4895 295.85 48.803 295.159 48.2257 294.382C47.6774 293.619 47.1529 292.832 46.6523 291.998C46.6523 291.938 46.5212 291.998 46.557 291.998C46.8995 292.913 47.3561 293.782 47.9158 294.584C48.1928 294.976 48.5171 295.332 48.8813 295.645C49.286 295.961 49.726 296.229 50.1924 296.444C50.1924 296.444 50.3235 296.527 50.2639 296.432Z" fill="#27273C"/>
<path d="M58.2147 283.952C57.8452 283.547 57.4876 283.141 57.0228 282.76C56.6032 282.377 56.1614 282.019 55.6997 281.687C54.8222 281.029 53.8749 280.469 52.8748 280.019C52.8748 280.019 52.7556 280.019 52.8032 280.114C54.5554 281.437 56.3791 282.689 58.0836 284.024C58.2028 284.083 58.2743 284.012 58.2147 283.952Z" fill="#27273C"/>
<path d="M60.1698 280.829C59.7939 280.425 59.3696 280.069 58.9064 279.768C57.931 279.157 56.8919 278.653 55.8073 278.266C55.7358 278.266 55.6881 278.338 55.7477 278.374C56.6893 278.922 57.6548 279.458 58.5607 280.066C59.017 280.357 59.4549 280.675 59.8719 281.02C60.289 281.366 60.6228 281.795 61.0638 282.152C61.0638 282.152 61.1592 282.152 61.1353 282.152C60.9058 281.651 60.5774 281.201 60.1698 280.829Z" fill="#27273C"/>
<path d="M63.0064 279.28C62.6475 278.885 62.248 278.529 61.8144 278.219C61.0154 277.62 60.1207 277.16 59.1683 276.86C59.0968 276.86 59.061 276.943 59.1683 276.967C60.0477 277.457 60.885 278.019 61.6714 278.648C62.0647 278.946 62.4462 279.268 62.8633 279.59C63.2805 279.911 63.5785 280.317 63.9957 280.603C63.9957 280.603 64.0553 280.603 63.9957 280.603C63.7124 280.129 63.3809 279.685 63.0064 279.28Z" fill="#27273C"/>
<path d="M65.0326 277.456C64.6511 277.182 64.2459 276.92 63.8406 276.669C63.4536 276.399 63.0275 276.19 62.5771 276.049V276.157L64.8061 277.778C65.4526 278.327 66.0399 278.942 66.5583 279.613C66.5583 279.613 66.6417 279.613 66.6179 279.613C66.3265 278.747 65.7723 277.993 65.0326 277.456Z" fill="#27273C"/>
<path d="M67.6074 276.693C66.9077 276.099 66.0975 275.65 65.2235 275.37C65.2235 275.37 65.1162 275.453 65.2235 275.477C66.0237 275.859 66.7628 276.357 67.4166 276.955C68.0896 277.545 68.6935 278.208 69.2165 278.934C69.2165 278.934 69.3119 278.934 69.288 278.934C68.9138 278.064 68.3377 277.296 67.6074 276.693Z" fill="#27273C"/>
<path d="M71.1477 278.052C71.0518 277.874 70.9443 277.703 70.8259 277.539C70.5753 277.209 70.2917 276.906 69.9796 276.633C69.3386 276.091 68.6436 275.616 67.9056 275.215C67.8341 275.215 67.7864 275.286 67.9056 275.322C68.5927 275.735 69.2288 276.227 69.8008 276.788C70.0924 277.062 70.3634 277.357 70.6113 277.67L70.957 278.147C71.0419 278.321 71.1458 278.485 71.2669 278.636C71.2736 278.643 71.2819 278.65 71.2911 278.654C71.3004 278.658 71.3104 278.66 71.3205 278.66C71.3307 278.66 71.3407 278.658 71.35 278.654C71.3592 278.65 71.3675 278.643 71.3742 278.636C71.3377 278.428 71.2607 278.23 71.1477 278.052Z" fill="#27273C"/>
<path d="M73.2692 278.123C73.0546 277.861 72.8281 277.611 72.5897 277.372C72.3455 277.138 72.0868 276.919 71.815 276.717C71.5408 276.502 71.2548 276.312 70.9806 276.085C70.9806 276.085 70.8495 276.085 70.9091 276.18C71.1901 276.389 71.4532 276.62 71.6958 276.872L72.399 277.575L73.1023 278.266C73.3204 278.52 73.5511 278.763 73.7936 278.994L73.8651 278.934C73.7019 278.639 73.5016 278.367 73.2692 278.123Z" fill="#27273C"/>
<path d="M153.536 412.778H75.2842V416.283H153.536V412.778Z" fill="#A9C1CC"/>
<path d="M153.535 412.778V416.295H100.338L103.02 412.778H153.535Z" fill="#7991A7"/>
<path d="M106.405 416.295H182.666L189.019 364.492H112.746L106.405 416.295Z" fill="#A1B5CC"/>
<path d="M143.07 390.393C143.055 390.999 143.163 391.602 143.385 392.165C143.608 392.729 143.941 393.242 144.366 393.674C144.791 394.107 145.298 394.449 145.857 394.682C146.416 394.915 147.017 395.033 147.623 395.03C148.865 395.031 150.058 394.546 150.949 393.68C151.839 392.814 152.357 391.635 152.391 390.393C152.402 389.787 152.292 389.184 152.067 388.621C151.843 388.057 151.508 387.544 151.083 387.111C150.658 386.678 150.151 386.335 149.592 386.1C149.033 385.865 148.432 385.745 147.826 385.745C146.583 385.747 145.392 386.235 144.503 387.103C143.615 387.971 143.101 389.152 143.07 390.393Z" fill="white"/>
</svg>
