<svg width="541" height="531" viewBox="0 0 541 531" fill="none" xmlns="http://www.w3.org/2000/svg">
<path d="M153.542 43.6564H272.129C272.129 43.6564 260.371 11.5415 242.307 11.5415C224.244 11.5415 218.549 33.7073 218.549 33.7073C218.549 33.7073 206.345 21.669 196.32 21.669C186.294 21.669 177.568 37.5799 177.568 37.5799C177.568 37.5799 163.326 29.0193 153.542 43.6564Z" fill="#EBEBEB"/>
<path opacity="0.5" d="M266.944 150.816H322.359C322.359 150.816 309.976 132.88 300.218 132.88C290.46 132.88 287.581 144.829 287.581 144.829C287.581 144.829 280.702 139.249 274.32 140.243C267.938 141.237 266.944 150.816 266.944 150.816Z" fill="#EBEBEB"/>
<path opacity="0.5" d="M9.93604 114.893H65.3504C65.3504 114.893 52.9682 96.9561 43.2102 96.9561C33.4521 96.9561 30.5731 108.918 30.5731 108.918C30.5731 108.918 23.6814 103.338 17.3119 104.332C10.9424 105.326 9.93604 114.893 9.93604 114.893Z" fill="#EBEBEB"/>
<path d="M422.792 165.148H530.73C530.73 165.148 515.952 132.141 500.156 130.09C484.36 128.039 476.767 154.638 476.767 154.638C476.767 154.638 466.576 145.25 458.551 145.25C450.525 145.25 444.334 157.619 444.334 157.619C444.334 157.619 428.296 149.109 422.792 165.148Z" fill="#EBEBEB"/>
<path opacity="0.5" d="M398.461 71.3636H471.366C471.366 71.3636 458.844 47.4526 445.252 47.1596C431.659 46.8666 424.474 65.1979 424.474 65.1979C424.474 65.1979 403.391 48.2424 398.461 71.3636Z" fill="#EBEBEB"/>
<path d="M311.009 296.13C309.646 299.599 308.842 303.262 308.627 306.983H299.021V306.728L299.098 305.989C299.213 304.701 299.426 303.424 299.735 302.168C300.226 300.122 300.939 298.135 301.862 296.244C301.879 296.198 301.911 296.16 301.953 296.134C301.994 296.109 302.043 296.098 302.092 296.104H311.009V296.13Z" fill="#EBEBEB"/>
<path d="M310.716 320.372H301.888C301.841 320.377 301.794 320.366 301.754 320.34C301.715 320.315 301.685 320.276 301.671 320.232C300.645 318.115 299.908 315.87 299.48 313.556C299.26 312.442 299.115 311.314 299.047 310.181C299.04 310.138 299.04 310.095 299.047 310.053V309.798H308.486C308.665 309.798 308.652 309.798 308.665 309.964C308.728 310.741 308.779 311.518 308.843 312.283C308.973 313.507 309.173 314.724 309.442 315.926C309.771 317.392 310.196 318.835 310.716 320.244C310.719 320.287 310.719 320.329 310.716 320.372Z" fill="#EBEBEB"/>
<path d="M347.863 323.174C347.863 323.174 347.863 323.263 347.786 323.302C347.021 324.448 346.17 325.534 345.239 326.55C344.167 327.793 342.972 328.924 341.672 329.926C340.363 330.907 338.964 331.76 337.493 332.474C336.081 333.185 334.606 333.76 333.086 334.194C331.878 334.54 330.648 334.803 329.404 334.983H329.047H328.831L328.627 334.856L328.856 334.69C331.55 332.858 333.908 330.574 335.824 327.939C336.909 326.45 337.86 324.869 338.665 323.213C338.682 323.167 338.714 323.128 338.756 323.103C338.797 323.077 338.846 323.067 338.895 323.072H347.926L347.863 323.174Z" fill="#EBEBEB"/>
<path d="M339.022 306.97H326.614V296.13H336.308C336.35 296.125 336.392 296.135 336.427 296.158C336.462 296.182 336.487 296.217 336.499 296.257C337.391 298.301 338.053 300.437 338.474 302.626C338.694 303.763 338.851 304.912 338.945 306.066L339.022 306.97Z" fill="#EBEBEB"/>
<path d="M338.945 309.862C338.945 310.117 338.945 310.372 338.945 310.626C338.945 311.238 338.856 311.837 338.767 312.435C338.652 313.263 338.525 314.104 338.359 314.92C337.991 316.732 337.454 318.507 336.754 320.219C336.742 320.268 336.712 320.312 336.669 320.34C336.627 320.368 336.575 320.38 336.525 320.372H326.576V309.862H338.945Z" fill="#EBEBEB"/>
<path d="M323.837 296.193V307.047H311.722C311.722 306.779 311.722 306.512 311.722 306.244C311.786 305.633 311.837 304.97 311.926 304.423C312.079 303.505 312.232 302.575 312.436 301.671C312.838 299.834 313.422 298.042 314.181 296.321C314.195 296.279 314.223 296.244 314.26 296.221C314.297 296.198 314.341 296.188 314.385 296.193H323.837Z" fill="#EBEBEB"/>
<path d="M323.837 310.053C323.837 313.467 323.837 316.869 323.837 320.244V320.397H314.155C314.109 320.402 314.062 320.391 314.022 320.366C313.983 320.34 313.953 320.302 313.939 320.257C313.197 318.494 312.642 316.658 312.283 314.779C312.104 313.824 311.964 312.843 311.85 311.875C311.76 311.238 311.748 310.601 311.709 309.951H323.684C323.837 309.849 323.837 309.888 323.837 310.053Z" fill="#EBEBEB"/>
<path d="M352.181 307.047H341.99C341.79 303.304 340.99 299.618 339.621 296.13H349.098C349.145 296.124 349.192 296.135 349.232 296.161C349.271 296.187 349.301 296.225 349.315 296.27C350.405 298.414 351.194 300.699 351.659 303.06C351.907 304.321 352.073 305.598 352.156 306.881L352.181 307.047Z" fill="#EBEBEB"/>
<path d="M352.194 309.786V310.499C352.131 311.416 352.016 312.321 351.863 313.238C351.482 315.339 350.853 317.387 349.99 319.34L349.557 320.27C349.557 320.346 349.494 320.372 349.404 320.372H339.965C340.079 320.053 340.194 319.735 340.296 319.416C340.853 317.802 341.279 316.144 341.57 314.461C341.791 313.244 341.936 312.014 342.003 310.779C342.003 310.486 342.003 310.193 342.003 309.9C342.003 309.824 342.003 309.786 342.118 309.798H352.194V309.786Z" fill="#EBEBEB"/>
<path d="M347.583 293.352H338.563C338.52 293.358 338.476 293.348 338.439 293.325C338.402 293.302 338.374 293.266 338.36 293.225C337.169 290.864 335.684 288.664 333.939 286.677C332.907 285.536 331.772 284.492 330.551 283.556C329.952 283.098 329.277 282.652 328.704 282.206L328.589 282.129L328.716 282.04C328.716 282.04 328.716 281.938 328.653 281.849C331.788 282.202 334.835 283.117 337.646 284.55C341.667 286.571 345.092 289.605 347.583 293.352Z" fill="#EBEBEB"/>
<path d="M322.104 334.958C322.016 334.967 321.926 334.967 321.837 334.958C320.863 334.829 319.897 334.642 318.945 334.397C315.111 333.421 311.548 331.587 308.525 329.034C307.38 328.072 306.319 327.016 305.353 325.875C304.666 325.014 304.033 324.112 303.455 323.174V323.085H311.888C312.002 323.085 312.041 323.085 312.092 323.225C312.951 324.968 313.97 326.627 315.136 328.181C316.209 329.597 317.403 330.919 318.703 332.13C319.774 333.141 320.924 334.066 322.143 334.894L322.104 334.958Z" fill="#EBEBEB"/>
<path d="M321.99 282.168C321.608 282.448 321.162 282.754 320.716 283.085C319.275 284.212 317.936 285.466 316.716 286.83C315.048 288.632 313.63 290.65 312.5 292.83C312.423 292.97 312.36 293.11 312.283 293.238C312.252 293.281 312.207 293.313 312.156 293.327H303.608C305.696 290.268 308.403 287.681 311.554 285.734C314.706 283.788 318.231 282.525 321.901 282.028L321.837 282.129L321.99 282.168Z" fill="#EBEBEB"/>
<path d="M335.302 323.174C334.161 325.179 332.784 327.039 331.2 328.716C329.805 330.222 328.236 331.556 326.525 332.69V323.174H335.302Z" fill="#EBEBEB"/>
<path d="M323.837 323.174V332.512C320.338 330.101 317.454 326.903 315.417 323.174H323.837Z" fill="#EBEBEB"/>
<path d="M335.047 293.314H326.614V284.397C328.346 285.538 329.937 286.881 331.353 288.397C332.746 289.908 333.984 291.555 335.047 293.314Z" fill="#EBEBEB"/>
<path d="M323.837 284.703V293.391H315.748C317.727 289.902 320.498 286.926 323.837 284.703Z" fill="#EBEBEB"/>
<path d="M224.639 256.078C224.639 257.288 224.28 258.47 223.608 259.475C222.936 260.481 221.981 261.265 220.864 261.727C219.747 262.19 218.517 262.311 217.331 262.075C216.145 261.84 215.055 261.257 214.2 260.402C213.345 259.547 212.763 258.457 212.527 257.271C212.291 256.085 212.412 254.856 212.875 253.738C213.337 252.621 214.121 251.666 215.127 250.994C216.132 250.322 217.314 249.964 218.524 249.964C220.146 249.964 221.701 250.608 222.848 251.755C223.994 252.901 224.639 254.457 224.639 256.078Z" fill="#EBEBEB"/>
<path d="M202.549 269.658C202.549 270.87 202.19 272.055 201.517 273.062C200.843 274.07 199.886 274.855 198.767 275.319C197.647 275.783 196.415 275.904 195.226 275.668C194.038 275.431 192.946 274.848 192.089 273.991C191.232 273.134 190.649 272.042 190.412 270.853C190.176 269.665 190.297 268.433 190.761 267.313C191.225 266.193 192.01 265.237 193.018 264.563C194.025 263.89 195.21 263.531 196.422 263.531C197.227 263.529 198.025 263.686 198.769 263.994C199.513 264.301 200.189 264.752 200.758 265.321C201.328 265.891 201.779 266.567 202.086 267.311C202.394 268.055 202.551 268.853 202.549 269.658Z" fill="#EBEBEB"/>
<path d="M224.639 283.225C224.639 284.434 224.28 285.617 223.608 286.622C222.936 287.628 221.981 288.411 220.864 288.874C219.747 289.337 218.517 289.458 217.331 289.222C216.145 288.986 215.055 288.404 214.2 287.549C213.345 286.694 212.763 285.604 212.527 284.418C212.291 283.232 212.412 282.002 212.875 280.885C213.337 279.768 214.121 278.813 215.127 278.141C216.132 277.469 217.314 277.11 218.524 277.11C220.146 277.11 221.701 277.755 222.848 278.901C223.994 280.048 224.639 281.603 224.639 283.225Z" fill="#EBEBEB"/>
<path d="M218.524 256.078L196.422 269.658L218.524 283.913" stroke="#EBEBEB" stroke-width="2" stroke-miterlimit="10"/>
<path d="M539.303 227.25H266.269C245.658 227.25 266.116 234.155 283.187 234.893C300.257 235.632 351.9 239.327 351.722 244.116C351.544 248.906 324.41 254.448 324.41 261.632C324.41 268.817 403.391 274.512 406.933 278.664C410.474 282.817 398.436 284.117 403.697 288.473C407.633 291.735 463.468 294.843 486.755 299.442C494.513 300.958 482.029 308.576 494.398 314.881C499.978 317.709 539.252 320.041 539.252 320.041L539.303 227.25Z" fill="#EBEBEB"/>
<path d="M539.303 227.25H298.537C280.358 227.25 298.397 234.155 313.454 234.893C328.512 235.632 374.028 239.327 373.875 244.116C373.722 248.906 349.798 254.448 349.798 261.632C349.798 268.817 419.468 274.512 422.551 278.664C425.633 282.817 415.06 284.117 419.697 288.473C423.175 291.735 472.411 294.843 492.933 299.442C499.774 300.958 488.768 308.576 499.723 314.881C504.64 317.709 539.214 320.041 539.214 320.041L539.303 227.25Z" fill="#DBDBDB"/>
<path d="M304.435 228.983C305.299 229.264 306.192 229.452 307.097 229.543L309.798 229.887L315.224 230.448L326.091 231.492C333.339 232.167 340.575 232.919 347.823 233.67C355.072 234.422 362.295 235.314 369.48 236.588C371.315 236.861 373.117 237.326 374.855 237.976C375.721 238.341 376.539 238.812 377.289 239.378C378.124 239.932 378.716 240.784 378.945 241.76C378.99 242.251 378.934 242.746 378.781 243.215C378.627 243.684 378.38 244.116 378.053 244.486C377.474 245.193 376.806 245.822 376.066 246.358C374.6 247.447 373.039 248.402 371.403 249.212C372.963 248.282 374.454 247.238 375.862 246.091C376.549 245.526 377.161 244.875 377.684 244.155C377.95 243.834 378.147 243.461 378.261 243.059C378.375 242.658 378.404 242.237 378.346 241.823C378.115 241.022 377.593 240.335 376.881 239.9C376.164 239.38 375.385 238.952 374.562 238.626C372.865 238.065 371.115 237.677 369.34 237.467C362.167 236.397 354.932 235.607 347.683 234.842C340.435 234.078 333.212 233.25 326.027 232.371L315.186 230.97L309.798 230.129C307.977 229.923 306.181 229.539 304.435 228.983Z" fill="white"/>
<path d="M380.346 259.39C382.095 259.976 383.902 260.373 385.735 260.575C387.556 260.843 389.391 261.034 391.225 261.199C394.894 261.531 398.563 261.747 402.244 261.951C409.608 262.371 416.971 262.664 424.334 262.996C431.697 263.327 439.073 263.709 446.436 264.359C448.27 264.537 450.117 264.728 451.952 265.008C452.882 265.148 453.799 265.301 454.729 265.505C455.702 265.697 456.636 266.05 457.493 266.55C457.773 266.7 458.018 266.906 458.213 267.156C458.409 267.406 458.549 267.694 458.627 268.002C458.651 268.334 458.593 268.667 458.457 268.972C458.322 269.276 458.113 269.543 457.85 269.747C457.097 270.371 456.271 270.901 455.391 271.327C453.71 272.193 452.016 272.906 450.359 273.671C448.699 274.395 447.098 275.247 445.57 276.219C444.836 276.674 444.175 277.236 443.608 277.887C443.342 278.16 443.136 278.486 443.004 278.844C442.873 279.202 442.818 279.583 442.843 279.964C442.843 280.524 443.57 281.059 444.308 281.454C445.102 281.853 445.929 282.181 446.78 282.435C448.521 282.958 450.29 283.384 452.079 283.709C459.277 285.085 466.627 285.836 473.939 286.715C481.251 287.594 488.602 288.282 495.888 289.518C497.718 289.816 499.53 290.215 501.315 290.715C502.21 290.953 503.067 291.313 503.863 291.786C504.262 292.06 504.593 292.421 504.831 292.843C505.096 293.243 505.318 293.67 505.494 294.117C506.118 295.886 506.206 297.8 505.748 299.62C505.34 301.415 504.652 303.134 503.71 304.716C504.605 303.105 505.241 301.364 505.596 299.556C505.993 297.77 505.864 295.908 505.226 294.193C505.05 293.777 504.833 293.38 504.576 293.008C504.354 292.627 504.044 292.304 503.672 292.066C502.872 291.627 502.014 291.301 501.124 291.098C499.342 290.659 497.54 290.31 495.723 290.053C488.449 288.996 481.099 288.371 473.761 287.645C466.423 286.919 459.073 286.18 451.786 284.83C449.951 284.505 448.135 284.08 446.347 283.556C445.427 283.285 444.532 282.935 443.672 282.512C443.21 282.282 442.781 281.99 442.398 281.645C441.927 281.261 441.626 280.708 441.557 280.104C441.503 279.561 441.566 279.013 441.742 278.497C441.918 277.98 442.202 277.508 442.576 277.11C443.221 276.369 443.967 275.721 444.793 275.187C446.37 274.176 448.023 273.285 449.735 272.524C451.417 271.734 453.111 271.008 454.729 270.193C455.507 269.823 456.239 269.361 456.907 268.817C457.213 268.562 457.353 268.269 457.315 268.18C457.277 268.091 457.073 267.785 456.742 267.582C455.14 266.814 453.415 266.34 451.646 266.18C449.85 265.9 448.015 265.696 446.194 265.518C438.882 264.804 431.506 264.448 424.155 263.989C416.805 263.531 409.429 263.136 402.079 262.588C398.397 262.295 394.728 261.964 391.06 261.531C389.225 261.314 387.391 261.072 385.582 260.766C383.793 260.493 382.038 260.032 380.346 259.39Z" fill="white"/>
<path d="M430.028 253.862C437.391 253.964 444.75 254.388 452.104 255.136C455.773 255.467 459.442 255.964 463.085 256.588C466.795 257.119 470.424 258.112 473.888 259.543C474.845 259.963 475.669 260.637 476.27 261.492C476.79 262.435 476.969 263.528 476.78 264.588C476.555 265.6 476.063 266.533 475.353 267.289C474.709 267.999 473.991 268.639 473.213 269.199C472.449 269.773 471.671 270.282 470.92 270.792C470.189 271.252 469.517 271.799 468.92 272.422C468.678 272.741 468.627 272.945 468.716 273.123C468.905 273.405 469.183 273.616 469.506 273.722C470.325 274.073 471.179 274.338 472.054 274.512C475.646 275.218 479.28 275.698 482.933 275.951C486.602 276.295 490.27 276.512 493.952 276.728C486.562 276.946 479.166 276.519 471.85 275.454C470.901 275.304 469.973 275.043 469.085 274.677C468.838 274.577 468.603 274.449 468.385 274.295C468.126 274.107 467.912 273.863 467.761 273.582C467.602 273.253 467.562 272.879 467.646 272.524C467.731 272.231 467.874 271.958 468.066 271.722C468.72 270.995 469.47 270.361 470.296 269.836C471.06 269.301 471.812 268.792 472.538 268.257C473.988 267.353 475.075 265.969 475.608 264.346C475.729 263.575 475.59 262.786 475.213 262.104C474.721 261.469 474.077 260.97 473.34 260.652C469.999 259.239 466.494 258.251 462.907 257.709C459.302 257.034 455.659 256.562 452.015 256.066C448.372 255.569 444.716 255.212 441.047 254.855C437.378 254.499 433.697 254.18 430.028 253.862Z" fill="white"/>
<path d="M185.11 227.085C185.11 227.085 193.174 214.014 193.518 204.842C193.887 194.83 187.772 184.142 187.772 184.142L188.244 183.759C188.244 183.759 196.881 194.753 196.053 206.333C195.263 217.543 188.74 227.085 188.74 227.085H185.11Z" fill="#263238"/>
<path d="M187.861 183.759C187.861 183.759 192.957 179.161 195.377 179.301C197.798 179.441 202.588 184.868 202.588 185.059C202.588 185.25 198.447 182.18 198.447 182.18L200.868 185.314L197.403 182.103L198.524 184.791L196.447 181.81L197.008 184.638L195.173 181.912L196.129 184.014L194.613 182.307L195.173 183.823L193.9 182.473L194.944 184.422L193.148 182.664L193.849 184.231L192.804 183.148C192.664 182.995 193.11 184.192 193.11 184.192L191.645 182.664L191.989 184.014L191.237 183.224L191.39 184.014L190.638 183.224L190.804 183.938L189.67 183.186L189.823 183.556L187.861 183.759Z" fill="#263238"/>
<path d="M187.9 183.721C187.9 183.721 196.129 184.6 198.091 186.103C200.053 187.607 202.945 192.664 202.945 192.664L198.804 188.435L200.855 192.664L197.913 188.154L198.511 191.887L196.346 187.67L197.161 191.364L195.594 187.148L196.104 191.173L194.218 186.766L194.741 189.938L193.136 186.396L193.734 189.53L191.569 185.428L192.384 188.931L190.792 185.11L191.008 186.944L189.734 184.702L190.167 186.192L188.804 184.282L188.983 185.556L187.9 183.721Z" fill="#263238"/>
<path d="M187.938 183.759C187.938 183.759 188.383 178.091 189.874 176.778C191.364 175.466 196.243 173.989 196.243 173.989L193.339 175.403L196.243 175.148L192.294 175.963L195.466 176.154L192.039 176.562L195.275 177.415L191.695 177.161L193.594 177.836L191.211 178.052L193.976 178.422L190.727 178.88H192.995L189.823 179.696C190.561 179.638 191.302 179.638 192.039 179.696C191.239 180.018 190.412 180.269 189.568 180.447L190.918 180.626L189.377 180.893L190.536 181.339H189.046L190.205 181.632L188.931 181.976L189.453 182.192L188.485 182.664L187.938 183.759Z" fill="#263238"/>
<path d="M188.014 183.696C188.014 183.696 185.466 188.001 186.014 190.995C186.562 193.989 189.976 199.314 189.976 199.314L188.294 195.925L190.638 198.091L188.014 194.689L190.638 196.218L188.282 193.836L190.422 194.613L188.473 192.779L190.638 193.607L188.473 191.925L190.422 192.409L187.874 190.766L190.269 191.505L188.435 190.396L190.154 190.651L188.014 189.377L189.785 189.454L187.619 188.065L189.632 188.587L187.658 187.428L189.301 187.543C189.301 187.543 187.951 186.536 187.874 186.536L189.148 186.766L188.014 185.492L188.626 185.377L188.014 183.696Z" fill="#263238"/>
<path d="M187.938 183.759C187.938 183.759 185.505 178.192 183.161 176.995C181.079 176.207 178.863 175.835 176.639 175.899L179.607 176.549L176.893 176.778L181.301 177.199L177.097 177.568L182.295 178.141L177.645 178.485L181.543 179.161L179.479 179.683L182.562 179.556L180.015 180.078L183.352 180.46L181.008 181.033H184.983L182.639 181.696H185.187L183.645 182.103C183.645 182.103 185.836 182.575 186.015 182.575C186.193 182.575 184.741 182.677 184.741 182.677L187.161 183.173L186.333 183.25L187.938 183.759Z" fill="#263238"/>
<path d="M187.9 183.696C187.9 183.696 187.989 176.791 186.97 175.02C186.178 173.869 185.019 173.021 183.683 172.613L185.454 173.989L183.708 173.747L185.556 174.868L183.568 174.715L185.951 175.759L184.014 175.53L185.798 176.358H184.613L186.269 177.326L184.855 176.995L186.447 178.116L184.982 177.721L186.779 178.995L185.505 178.575L187.224 179.849L185.951 179.466L187.224 180.307L186.447 180.167L187.466 181.008L186.6 180.613L187.619 181.657L186.995 181.428L187.9 183.696Z" fill="#263238"/>
<path d="M188.014 183.938C188.014 183.938 180.192 181.492 176.689 182.664C173.186 183.836 171.504 188.027 171.504 188.027L174.052 185.479L173.25 188.231L175.492 184.931L174.867 188.014L176.358 184.906L175.836 188.116L177.555 184.728L177.186 188.231L178.88 184.524L178.434 187.212L180.116 184.129L179.199 187.759L181.148 184.129L180.6 187.288C180.6 187.135 181.989 184.307 181.989 184.307L181.734 186.371L182.804 184.422L182.613 185.925L183.887 184.129L183.466 185.823L184.74 184.129L184.536 185.148C184.963 184.764 185.41 184.403 185.874 184.065C185.899 183.938 188.014 183.938 188.014 183.938Z" fill="#263238"/>
<path d="M188.014 183.759C188.014 183.759 183.517 184.931 182.116 186.893C180.715 188.855 181.989 196.282 181.989 196.282V192.001L182.944 194.04L182.167 190.906L183.708 193.097L182.32 189.607L183.963 192.154L182.766 188.702L184.282 191.186L183.339 187.849L184.613 190.396L184.129 187.237L185.059 189.161L184.626 186.689L185.428 188.142L185.173 186.027L185.67 187.186L185.9 185.67V186.498L186.396 184.868V185.696L186.97 184.6L188.014 183.759Z" fill="#263238"/>
<path d="M184.307 227.084H193.415C193.415 227.084 192.829 223.849 197.007 222.307C196.127 222.396 195.28 222.689 194.534 223.165C193.789 223.641 193.165 224.285 192.714 225.046C192.714 225.046 194.765 219.569 199.186 218.575C197.544 218.947 196.005 219.681 194.683 220.724C193.361 221.766 192.288 223.091 191.542 224.6C191.542 224.6 190.651 219.811 197.211 217.161C197.211 217.161 191.275 217.607 189.02 224.995C189.02 224.995 190.218 218.626 185.288 215.887C185.288 215.887 188.383 218.919 187.925 222.753C187.421 221.324 186.451 220.106 185.171 219.295C183.89 218.484 182.375 218.127 180.867 218.282C180.867 218.282 186.434 220.065 186.88 223.849C186.305 222.996 185.551 222.279 184.671 221.747C183.791 221.215 182.806 220.88 181.784 220.766C181.784 220.766 184.561 222.155 184.982 223.428C184.982 223.428 183.186 221.785 181.644 222.626C181.67 222.651 184.982 223.11 184.307 227.084Z" fill="#263238"/>
<path d="M81.478 227.084C81.478 227.084 87.3125 217.645 87.5545 211.008C87.8348 203.785 83.4143 196.052 83.4143 196.052L83.7456 195.785C83.7456 195.785 89.9876 203.734 89.3889 212.091C88.8246 217.434 87.0138 222.569 84.1022 227.084H81.478Z" fill="#263238"/>
<path d="M83.478 195.785C83.478 195.785 87.1851 192.447 88.9048 192.562C90.6246 192.677 94.115 196.575 94.115 196.715C94.115 196.855 91.1214 194.638 91.1214 194.638L92.8794 196.906L90.3316 194.587L91.1341 196.524L89.6819 194.371L90.0895 196.422L88.7137 194.447L89.4016 195.963L88.3061 194.689L88.7137 195.785L87.7583 194.817L88.5226 196.218L87.2488 194.944L87.7583 196.078C87.7583 196.078 87.1214 195.403 87.0067 195.301C86.8921 195.199 87.2233 196.052 87.2233 196.052L86.1787 194.982L86.4207 195.951L85.8729 195.377L85.9876 195.951L85.4398 195.377L85.5672 195.9L84.7392 195.352L84.8538 195.619L83.478 195.785Z" fill="#263238"/>
<path d="M83.5034 195.759C83.5034 195.759 89.4525 196.396 90.8793 197.466C92.2554 198.886 93.4338 200.484 94.3825 202.218L91.3888 199.161L92.8793 202.218L90.7137 198.957L91.1468 201.658L89.5799 198.6L90.1786 201.275L89.0449 198.231L89.4143 201.135L88.0512 197.951L88.4207 200.244L87.2614 197.696L87.6945 199.963L86.1276 196.995L86.7264 199.543L85.5799 196.817L85.7327 198.091L84.8538 196.473L85.1595 197.556L84.1658 196.142L84.2932 197.008L83.5034 195.759Z" fill="#263238"/>
<path d="M83.5293 195.785C83.5293 195.785 83.8478 191.683 84.9306 190.689C86.3712 189.813 87.922 189.132 89.5421 188.664L87.4402 189.696L89.5421 189.505L86.6885 190.091L88.9816 190.231L86.5102 190.524L88.8414 191.148L86.2936 190.957L87.6695 191.441L85.937 191.607L87.937 191.874L85.593 192.205H87.2363L84.9433 192.791C85.4774 192.747 86.0143 192.747 86.5484 192.791C85.9671 193.027 85.366 193.21 84.7522 193.339L85.7331 193.466L84.6121 193.658L85.4529 193.976H84.3701L85.2108 194.193L84.2936 194.435L84.6758 194.6L83.9752 194.944L83.5293 195.785Z" fill="#263238"/>
<path d="M83.5802 195.734C83.5802 195.734 81.7076 198.855 82.1407 201.008C82.8332 203.125 83.7921 205.145 84.9942 207.021L83.7203 204.562L85.4146 206.129L83.5165 203.683L85.4146 204.779L83.784 203.046L85.3254 203.607L83.9242 202.333L85.4783 202.919L83.9242 201.709L85.3254 202.052L83.491 200.868L85.2108 201.403L83.9369 200.6L85.2108 200.791L83.6566 199.874H84.9305L83.3636 198.88L84.8159 199.25L83.3891 198.422L84.5738 198.498C84.5738 198.498 83.6057 197.772 83.5547 197.772L84.4719 197.938L83.6439 197.046L84.0898 196.957L83.5802 195.734Z" fill="#263238"/>
<path d="M83.5289 195.785C83.5289 195.785 81.771 191.759 80.0767 190.893C78.5724 190.324 76.971 190.055 75.3633 190.103L77.5034 190.575L75.5416 190.728L78.7264 191.033L75.6945 191.301L79.5162 191.721L76.1531 191.976L78.9684 192.46L77.478 192.829L79.7073 192.74L77.8601 193.122L80.2678 193.39L78.5735 193.81H81.4907L79.7964 194.294H81.6054L80.4843 194.587C80.4843 194.587 82.064 194.919 82.1914 194.919L81.2614 194.995L83.0066 195.352H82.4079L83.5289 195.785Z" fill="#263238"/>
<path d="M83.5039 195.734C83.5039 195.734 83.5039 190.74 82.8288 189.466C82.2685 188.66 81.4582 188.06 80.523 187.759L81.7969 188.753L80.523 188.587L81.7969 189.403L80.3574 189.288L82.0899 190.052L80.6886 189.887L81.9625 190.473H81.109L82.3065 191.173L81.2874 190.944L82.4339 191.747L81.3765 191.466L82.6504 192.358L81.7077 192.052L82.9816 192.944L82.0644 192.664L82.9944 193.275L82.4466 193.173L83.1855 193.785L82.5485 193.492L83.2874 194.256L82.8415 194.091L83.5039 195.734Z" fill="#263238"/>
<path d="M83.5808 195.874C83.5808 195.874 77.9757 194.129 75.4279 194.97C73.7429 195.727 72.4055 197.091 71.6826 198.791L73.4788 196.944L72.8801 198.982L74.4979 196.6L74.0521 198.83L75.1349 196.575L74.7527 198.893L76.0266 196.447L75.7591 198.995L77.033 196.32L76.7145 198.256L77.9884 196.04L77.326 198.664L78.7273 196.04C78.7273 196.04 78.3069 198.422 78.3323 198.32C78.3578 198.218 79.3387 196.154 79.3387 196.154L79.1604 197.645L79.9247 196.243L79.7846 197.326L80.6891 196.052L80.3706 197.263L81.275 196.052L81.1349 196.779C81.1349 196.779 82.0012 196.027 82.0903 196.001C82.1795 195.976 83.5808 195.874 83.5808 195.874Z" fill="#263238"/>
<path d="M83.5804 195.785C83.5804 195.785 80.332 196.626 79.3256 198.04C78.3193 199.454 79.2365 204.83 79.2365 204.83V201.734L79.9244 203.212L79.3638 200.944L80.4849 202.524L79.4785 199.976L80.6632 201.836L79.797 199.288L80.8925 201.084L80.2174 198.677L81.1346 200.537L80.7906 198.256L81.453 199.645L81.1473 197.861L81.7206 198.906L81.5422 197.377L81.8989 198.218L82.0645 197.123V197.721L82.4212 196.549V197.148L82.8416 196.345L83.5804 195.785Z" fill="#263238"/>
<path d="M80.9052 227.085H87.4912C87.4912 227.085 87.0709 224.753 90.039 223.632C89.4037 223.693 88.7919 223.904 88.2539 224.247C87.7158 224.591 87.2667 225.056 86.9435 225.607C86.9435 225.607 88.4212 221.658 91.6187 220.932C90.4266 221.198 89.3092 221.727 88.3482 222.481C87.3872 223.235 86.6069 224.194 86.0645 225.288C86.0645 225.288 85.4148 221.823 90.1664 219.913C90.1664 219.913 85.8734 220.231 84.2555 225.581C84.2555 225.581 85.1091 220.932 81.5549 218.995C82.1949 219.649 82.6936 220.428 83.0201 221.282C83.3466 222.137 83.494 223.049 83.453 223.963C83.0918 222.929 82.3922 222.047 81.4675 221.46C80.5428 220.873 79.447 220.615 78.3574 220.728C78.3574 220.728 82.3829 222.002 82.7014 224.753C82.2849 224.133 81.7368 223.611 81.0962 223.226C80.4555 222.84 79.738 222.601 78.9944 222.524C78.9944 222.524 81.0453 223.492 81.3765 224.46C81.3765 224.46 80.1027 223.276 78.9689 223.887C79.0071 223.887 81.3766 224.206 80.9052 227.085Z" fill="#263238"/>
<path d="M120.179 227.25H126.382C126.382 227.25 115.822 218.333 114.153 209.416C112.484 200.498 115.491 196.677 115.491 196.677L114.854 196.294C112.77 200.384 112.137 205.059 113.058 209.556C114.675 216.944 120.179 227.25 120.179 227.25Z" fill="#263238"/>
<path d="M114.918 197.008C114.918 197.008 109.288 199.097 107.491 200.83C105.695 202.562 105.275 209.237 105.275 209.237L106.46 204.537L105.95 208.549L107.402 203.39L107.275 208.486L108.256 202.116L108.345 207.326L108.982 201.823L109.453 206.014L109.67 201.556L110.09 204.982L110.6 200.83L110.472 204.549L111.632 200.282L111.415 202.97L112.689 200.027L112.243 202.244L113.173 199.466L112.969 201.008L114.918 197.008Z" fill="#263238"/>
<path d="M114.918 197.008C114.918 197.008 118.204 198.931 118.739 201.619C119.274 204.307 118.051 209.81 118.051 209.81V205.454L116.956 208.358L117.58 204.142L116.51 207.25L116.956 203.084L115.962 205.288L116.637 201.747L115.567 203.416L116.191 200.498L115.083 202.205L115.72 199.123L114.867 200.575L115.287 198.231L114.612 199.173L115.083 197.683L114.918 197.008Z" fill="#263238"/>
<path d="M114.638 197.517C114.638 197.517 112.408 193.505 108.867 192.269C106.414 191.605 103.805 191.817 101.491 192.868L105.631 192.613L102.854 193.683L106.867 193.288L103.797 194.919L108.065 193.849C108.065 193.849 105.377 196.498 105.517 196.32C105.657 196.142 108.803 194.142 108.803 194.142L106.969 197.008L109.822 194.677L108.077 197.517L110.714 195.39L108.549 197.861L111.708 196.32L110.065 197.951L112.408 196.97L111.389 197.951L113.402 196.97L114.638 197.517Z" fill="#263238"/>
<path d="M114.918 197.008C114.918 197.008 115.262 190.435 113.759 187.364C112.256 184.294 107.186 182.753 107.186 182.753L110.6 185.441L107.186 184.167L111.007 186.256C111.007 186.256 107.848 185.708 107.721 185.657L111.542 187.11L107.721 187.021L111.644 187.874L108.103 188.014L111.81 188.868L108.103 188.995L112.689 189.925L108.867 189.632L112.689 190.779L109.466 190.651L113.096 191.925L110.103 191.67L113.262 192.651L111.338 192.524L113.695 193.505L111.937 193.594L113.899 194.154L112.625 194.358L114.179 195.008H112.434L114.179 195.9L114.918 197.008Z" fill="#263238"/>
<path d="M114.918 197.517C114.918 197.517 118.243 195.683 120.931 196.065C123.619 196.447 127.084 199.403 127.084 199.403L124.867 198.282L125.924 200.129L124.09 198.065L124.689 200.766L123.491 198.218L123.415 200.524L122.141 197.976V200.371L121.109 197.976L121.198 200.753L119.924 197.976L119.759 199.938L119.109 197.632L118.74 199.224L118.154 197.772L117.682 199.046L117.338 197.428L117.033 198.702L116.447 197.543L114.918 197.517Z" fill="#263238"/>
<path d="M114.918 196.791C114.918 196.791 114.51 190.817 115.784 188.256C117.058 185.696 121.211 182.957 121.211 182.957L118.74 185.696L121.44 184.97L118.141 186.677H121.288L117.835 187.403C118.591 187.777 119.375 188.092 120.179 188.345C120.434 188.345 117.402 187.963 117.402 187.963L119.555 189.492L116.931 188.817L119.287 190.091L116.74 189.708L118.638 190.587L116.396 190.498C116.396 190.498 117.963 191.25 118.026 191.25L116.065 191.148L117.772 192.205L116.014 192.103L117.555 192.829H116.001L117.045 193.212L115.772 193.505L117.045 193.632L115.772 193.951L116.893 194.193L115.721 194.358L116.561 194.638L115.466 194.829L116.103 195.212L115.275 195.492L115.721 195.683L114.918 196.791Z" fill="#263238"/>
<path d="M114.918 197.517C114.918 197.517 117.364 192.04 120.014 190.371C122.663 188.702 128.854 189.314 128.854 189.314L123.886 190.18L127.657 191.581L123.02 190.97L126.192 192.473L121.937 191.454L124.816 193.186L120.625 191.912L123.95 193.989L119.848 192.447L122.472 194.855L119.275 192.931L121.733 195.237L118.74 193.505L120.345 195.747L118.166 194.129L119.517 196.027L117.657 194.677L118.765 196.307L117.173 195.377L118.166 196.779L116.498 195.836L117.593 196.995C117.593 196.995 116.154 196.307 116.052 196.307C115.95 196.307 116.701 196.995 116.701 196.995L115.708 196.779L114.918 197.517Z" fill="#263238"/>
<path d="M116.421 227.25C116.421 227.25 116.804 224.817 113.415 222.155C114.883 222.738 116.081 223.846 116.778 225.263C116.689 224.08 116.234 222.954 115.476 222.041C114.718 221.128 113.695 220.473 112.549 220.167C113.719 220.265 114.834 220.705 115.756 221.432C116.678 222.16 117.365 223.142 117.734 224.256C117.734 224.256 117.479 219.747 113.912 217.76C113.912 217.76 117.339 219.034 119.007 224.014C120.591 221.861 122.938 220.393 125.568 219.912C125.568 219.912 121.606 221.505 121.555 224.575C121.555 224.575 124.447 220.753 128.039 220.995C128.039 220.995 123.937 222.091 123.937 224.995C124.369 224.235 125.007 223.612 125.778 223.199C126.549 222.786 127.422 222.601 128.294 222.664C128.294 222.664 123.785 224.448 125.746 227.174L116.421 227.25Z" fill="#263238"/>
<path d="M218.575 227.25H223.862C223.862 227.25 214.855 219.607 213.441 212.078C212.027 204.549 214.588 201.275 214.588 201.275L214.04 200.944C212.261 204.428 211.722 208.413 212.511 212.244C213.874 218.46 218.575 227.25 218.575 227.25Z" fill="#263238"/>
<path d="M214.065 201.466C214.065 201.466 209.262 203.25 207.695 204.664C206.129 206.078 205.797 211.836 205.797 211.836L206.816 207.836L206.383 211.25L207.657 206.855L207.543 211.174L208.383 205.721L208.46 210.154L209.008 205.467L209.402 209.046L209.581 205.224L209.95 208.129L210.383 204.6L210.281 207.772L211.262 204.129L211.071 206.422L212.141 203.874L211.772 205.772L212.562 203.403L212.383 204.677L214.065 201.466Z" fill="#263238"/>
<path d="M214.065 201.466C214.065 201.466 216.855 203.097 217.263 205.39C217.378 207.737 217.181 210.089 216.677 212.384V208.664L215.747 211.212L216.282 207.607L215.365 210.256L215.747 206.715L214.893 208.588L215.479 205.568L214.537 206.868L215.186 204.396L214.244 205.849L214.791 203.237L214.065 204.511L214.422 202.511L213.836 203.314L214.244 202.04L214.065 201.466Z" fill="#263238"/>
<path d="M213.836 201.9C212.716 199.928 210.999 198.362 208.932 197.428C206.839 196.86 204.613 197.04 202.639 197.938L206.167 197.721L203.798 198.626L207.225 198.294L204.6 199.683L208.244 198.779C208.244 198.779 205.951 201.033 206.053 200.88C206.155 200.728 208.855 199.021 208.855 199.021L207.288 201.466L209.734 199.479L208.244 201.9L210.499 200.078L208.677 202.193L211.365 200.919L209.951 202.345L211.951 201.505L211.072 202.345L212.792 201.505L213.836 201.9Z" fill="#263238"/>
<path d="M214.065 201.466C214.065 201.466 214.345 195.861 213.071 193.237C211.797 190.613 207.479 189.314 207.479 189.314L210.383 191.607L207.479 190.473L210.778 192.256C210.778 192.256 208.09 191.785 207.988 191.747L211.186 193.021H207.912L211.262 193.747L208.243 193.849L211.402 194.575L208.243 194.689L212.141 195.492L208.893 195.237L212.141 196.218L209.402 196.103L212.498 197.161L209.95 196.944L212.638 197.785L211.007 197.67L213.007 198.511L211.517 198.587L213.186 199.059L212.141 199.237L213.479 199.785H211.988L213.479 200.549L214.065 201.466Z" fill="#263238"/>
<path d="M214.065 201.9C215.619 201.026 217.379 200.586 219.161 200.626C221.454 200.957 224.409 203.467 224.409 203.467L222.511 202.524L223.415 204.078L221.925 202.371L222.434 204.664L221.415 202.486L221.339 204.447L220.282 202.307V204.32L219.415 202.295L219.479 204.651L218.358 202.295L218.205 203.963L217.657 202.002L217.39 203.377L216.893 202.103L216.498 203.199L216.205 201.81L215.95 202.919L215.441 201.925L214.065 201.9Z" fill="#263238"/>
<path d="M214.091 201.288C214.091 201.288 213.734 196.193 214.83 194.001C215.926 191.81 219.441 189.492 219.441 189.492L217.352 191.823L219.658 191.199L216.83 192.664H219.467L216.524 193.275C217.168 193.597 217.837 193.865 218.524 194.078C218.741 194.078 216.155 193.747 216.155 193.747L217.989 195.021L215.76 194.435L217.76 195.517L215.645 195.186L217.263 195.938L215.352 195.861C215.352 195.861 216.69 196.498 216.741 196.498L215.059 196.409L216.524 197.314L215.034 197.224L216.308 197.849H215.034L215.926 198.167L214.855 198.422L215.887 198.537L214.817 198.804L215.785 199.008L214.779 199.148L215.492 199.39L214.562 199.556L215.11 199.887L214.397 200.116L214.779 200.282L214.091 201.288Z" fill="#263238"/>
<path d="M214.065 201.9C214.065 201.9 216.141 197.224 218.46 195.81C220.778 194.396 225.989 194.906 225.989 194.906L221.759 195.645L224.906 196.919L220.944 196.409L223.645 197.683L220.027 196.817L222.473 198.282L218.893 197.224L221.734 198.995L218.243 197.721L220.485 199.772L217.746 198.129L219.848 200.103L217.301 198.575L218.689 200.486L216.829 199.021L217.989 200.638L216.396 199.492L217.339 200.88L215.989 200.091L216.829 201.288L215.428 200.498L216.358 201.492L215.084 200.906L215.632 201.492L214.791 201.314L214.065 201.9Z" fill="#263238"/>
<path d="M215.365 227.25C215.365 227.25 215.696 225.174 212.817 222.944C214.067 223.436 215.089 224.376 215.683 225.581C215.597 224.58 215.205 223.63 214.56 222.86C213.915 222.089 213.048 221.536 212.078 221.276C213.076 221.358 214.028 221.734 214.814 222.355C215.601 222.975 216.186 223.814 216.499 224.766C216.416 223.656 216.081 222.579 215.518 221.618C214.955 220.657 214.179 219.839 213.25 219.225C214.31 219.761 215.247 220.512 215.999 221.432C216.751 222.351 217.303 223.417 217.62 224.562C218.955 222.706 220.952 221.434 223.199 221.008C223.199 221.008 219.823 222.358 219.785 224.97C219.785 224.97 222.257 221.658 225.314 221.925C225.314 221.925 221.823 222.855 221.823 225.327C222.191 224.68 222.734 224.15 223.39 223.798C224.046 223.447 224.788 223.288 225.53 223.339C225.53 223.339 221.709 224.868 223.314 227.161L215.365 227.25Z" fill="#263238"/>
<path d="M27.6687 227.25H33.3885C33.3885 227.25 23.6559 219.008 22.1272 210.868C20.5986 202.728 23.4011 199.199 23.4011 199.199L22.8151 198.855C20.8941 202.613 20.3101 206.912 21.1591 211.046C22.5986 217.76 27.6687 227.25 27.6687 227.25Z" fill="#263238"/>
<path d="M22.8029 199.415C22.8029 199.415 17.6054 201.339 15.9621 202.868C14.3187 204.396 13.9238 210.613 13.9238 210.613L15.0194 206.295L14.548 209.976L15.8219 205.224L15.7073 209.9L16.599 204.014L16.6882 208.804L17.2742 203.709L17.7073 207.53L17.8984 203.428L18.2933 206.562L18.7646 202.74L18.65 206.167L19.7073 202.231L19.5162 204.702L20.6627 202.002L20.2551 204.04L21.1213 201.492L20.9939 203.046L22.8029 199.415Z" fill="#263238"/>
<path d="M22.803 199.415C22.803 199.415 25.8222 201.186 26.2553 203.658C26.6884 206.129 25.6311 211.199 25.6311 211.199V207.199L24.6247 209.861L25.2107 206.04L24.2171 208.906L24.6247 205.084L23.7075 207.11L24.3444 203.849L23.3635 205.377L24.0642 202.715L23.0451 204.282L23.6311 201.454L22.854 202.791L23.1979 200.498L22.5737 201.365L23.0069 199.989L22.803 199.415Z" fill="#263238"/>
<path d="M22.5605 199.887C22.5605 199.887 20.5223 196.193 17.2611 195.059C14.9991 194.442 12.5927 194.636 10.4585 195.607L14.2802 195.365L11.7324 196.345L15.4267 196.002L12.5986 197.492L16.5222 196.511C16.5222 196.511 14.0509 198.944 14.1655 198.791C14.2802 198.638 17.1974 196.779 17.1974 196.779L15.5541 199.416L18.1019 197.275L16.484 199.887L18.9426 197.951L16.9808 200.231L19.8853 198.817L18.3566 200.345L20.5223 199.441L19.5796 200.345L21.4267 199.441L22.5605 199.887Z" fill="#263238"/>
<path d="M22.8027 199.415C22.8027 199.415 23.1084 193.364 21.7326 190.498C20.3568 187.632 15.6816 186.256 15.6816 186.256L18.8282 188.728L15.6816 187.517L19.2613 189.441C19.2613 189.441 16.3568 188.931 16.2422 188.893L19.6944 190.167L16.153 190.091L19.7708 190.88L16.5097 190.995L19.9237 191.785L16.5097 191.9L20.7263 192.766L17.2231 192.486L20.7263 193.556L17.7708 193.428L21.1084 194.575L18.3568 194.333L21.2613 195.237L19.4906 195.122L21.6562 196.027L20.0511 196.103L21.8473 196.613L20.7263 196.817L22.1658 197.403H20.5607L22.1658 198.231L22.8027 199.415Z" fill="#263238"/>
<path d="M22.8027 199.887C24.4809 198.959 26.3765 198.498 28.2932 198.549C30.7773 198.906 33.9493 201.619 33.9493 201.619L31.9111 200.587L32.892 202.282L31.1977 200.396L31.7582 202.868L30.6881 200.498L30.6117 202.626L29.4779 200.307V202.511L28.5353 200.307L28.6117 202.855L27.3378 200.307L27.1849 202.116L26.5989 199.989L26.3059 201.479L25.7709 200.205L25.3378 201.377L25.0193 199.887L24.7391 201.072L24.204 200.001L22.8027 199.887Z" fill="#263238"/>
<path d="M22.8286 199.224C22.8286 199.224 22.4464 193.721 23.6184 191.364C24.7904 189.008 28.6121 186.485 28.6121 186.485L26.3573 189.033L28.9051 188.358L25.8732 189.938H28.714L25.5292 190.6C26.2265 190.947 26.9508 191.237 27.6949 191.466C27.9242 191.466 25.1471 191.11 25.1471 191.11L27.0197 192.498L24.5993 191.874L26.7649 193.033L24.4719 192.677L26.2171 193.479L24.1662 193.403C24.1662 193.403 25.5929 194.091 25.6566 194.091L23.8477 193.989L25.4146 194.982L23.8095 194.88L25.2235 195.543H23.784L24.7522 195.9L23.5929 196.167L24.714 196.294L23.5547 196.587L24.5866 196.804L23.5165 196.957L24.2808 197.212L23.2745 197.39L23.8604 197.747L23.0961 198.001L23.5165 198.18L22.8286 199.224Z" fill="#263238"/>
<path d="M22.8027 199.887C22.8027 199.887 25.0448 194.791 27.5544 193.301C30.0639 191.81 35.6818 192.333 35.6818 192.333L31.1085 193.135L34.4971 194.409L30.2295 193.849L33.1468 195.224L29.2359 194.282L31.8856 195.874L28.0639 194.728L31.1213 196.638L27.2996 195.224L29.72 197.441L26.7645 195.67L29.0448 197.798L26.3442 196.142L27.8346 198.205L25.7964 196.728L27.0703 198.473L25.3505 197.199L26.3696 198.702L24.8919 197.951L25.8091 199.224L24.2805 198.345L25.2868 199.416C25.2868 199.416 24.0129 198.791 23.8728 198.791C23.7327 198.791 24.4588 199.416 24.4588 199.416L23.5416 199.224L22.8027 199.887Z" fill="#263238"/>
<path d="M24.2041 227.25C24.2041 227.25 24.5608 225.008 21.4397 222.6C22.7894 223.135 23.8925 224.152 24.5353 225.454C24.4587 224.362 24.0432 223.321 23.3467 222.476C22.6502 221.631 21.7075 221.024 20.6499 220.741C21.7344 220.835 22.7667 221.248 23.6168 221.928C24.4669 222.609 25.0967 223.525 25.427 224.562C25.427 224.562 25.185 220.409 21.9238 218.575C23.0672 219.153 24.0771 219.964 24.8888 220.956C25.7005 221.948 26.296 223.098 26.6372 224.333C28.0823 222.335 30.239 220.967 32.6627 220.511C32.6627 220.511 29.0194 221.976 28.9684 224.792C28.9684 224.792 31.6436 221.212 34.943 221.505C34.943 221.505 31.1213 222.511 31.1213 225.186C31.5177 224.487 32.1034 223.914 32.8111 223.534C33.5187 223.153 34.3195 222.979 35.1213 223.034C35.1213 223.034 31.0067 224.702 32.7774 227.25H24.2041Z" fill="#263238"/>
<path d="M0 227.25C0 227.25 37.427 221.9 55.5036 220.881C73.5801 219.862 146.651 224.193 149.046 224.626C151.441 225.059 221.237 222.792 238.549 222.078C255.862 221.365 540.462 227.352 540.462 227.352L0 227.25Z" fill="#263238"/>
<path d="M389.391 118.651C388.475 118.177 387.526 117.772 386.55 117.44C385.56 117.061 384.523 116.821 383.467 116.727C383.141 116.695 382.812 116.73 382.499 116.829C382.396 116.863 382.297 116.91 382.206 116.969L382.015 117.109C381.888 117.198 381.798 117.288 381.684 117.377C381.276 117.746 380.919 118.128 380.563 118.51C379.862 119.3 379.289 120.116 378.626 120.944L379.391 120.676C378.354 120.385 377.298 120.163 376.231 120.014C375.687 119.942 375.138 119.904 374.588 119.899C374.294 119.896 374 119.917 373.709 119.963C373.55 119.99 373.392 120.029 373.238 120.077C373.076 120.139 372.919 120.211 372.766 120.294C372.285 120.628 371.856 121.031 371.493 121.491C371.149 121.924 370.856 122.37 370.563 122.765C369.999 123.663 369.509 124.604 369.098 125.581C369.773 124.765 370.372 123.95 371.123 123.186C371.456 122.798 371.809 122.428 372.18 122.077C372.51 121.741 372.883 121.45 373.289 121.211C373.699 121.078 374.134 121.035 374.563 121.084C375.047 121.084 375.544 121.198 376.04 121.288C377.034 121.466 378.04 121.721 379.021 121.975L379.505 122.116L379.786 121.708C380.359 120.893 380.97 120.09 381.582 119.313C381.88 118.931 382.199 118.565 382.537 118.217L382.779 117.988L382.894 117.899C383.07 117.837 383.255 117.803 383.442 117.797C384.421 117.793 385.398 117.887 386.359 118.077C387.378 118.256 388.384 118.459 389.391 118.651Z" fill="#263238"/>
<path d="M378.245 148.778C377.029 147.825 375.752 146.953 374.423 146.167C373.073 145.327 371.616 144.671 370.092 144.218C369.623 144.092 369.136 144.049 368.652 144.09C368.49 144.11 368.331 144.153 368.181 144.218L367.862 144.358C367.666 144.449 367.475 144.551 367.289 144.664C366.576 145.084 365.939 145.542 365.302 146.001C364.028 146.944 362.907 147.963 361.748 149.02L362.958 148.842C361.519 148.113 360.034 147.479 358.512 146.944C357.732 146.678 356.937 146.461 356.13 146.294C355.709 146.213 355.283 146.158 354.856 146.128C354.614 146.104 354.371 146.104 354.13 146.128C353.87 146.17 353.614 146.234 353.365 146.32C352.571 146.666 351.836 147.134 351.187 147.708C350.575 148.231 349.992 148.789 349.442 149.377C348.347 150.528 347.35 151.768 346.461 153.084C347.735 152.09 348.894 151.084 350.142 150.154C350.742 149.694 351.367 149.269 352.015 148.88C352.6 148.482 353.234 148.161 353.9 147.925C354.523 147.852 355.153 147.918 355.748 148.116C356.467 148.312 357.174 148.554 357.862 148.842C359.264 149.39 360.678 150.116 362.028 150.715L362.703 151.058L363.238 150.549C364.308 149.517 365.455 148.511 366.576 147.555C367.149 147.084 367.722 146.613 368.295 146.218C368.436 146.128 368.588 146.027 368.716 145.963L368.92 145.848C368.92 145.848 368.92 145.848 368.996 145.848C369.27 145.801 369.55 145.801 369.824 145.848C371.262 146.141 372.67 146.567 374.028 147.122C375.404 147.619 376.805 148.269 378.245 148.778Z" fill="#263238"/>
<path d="M176.485 64.3954C175.652 63.7858 174.78 63.2326 173.873 62.7393C172.959 62.1839 171.973 61.7554 170.944 61.4654C170.624 61.4036 170.295 61.4036 169.975 61.4654C169.871 61.485 169.768 61.5149 169.67 61.5546L169.453 61.6565L169.084 61.8731C168.639 62.1598 168.214 62.4747 167.81 62.8158C167.001 63.4673 166.228 64.1603 165.491 64.8922L166.294 64.7521C165.319 64.2958 164.314 63.9043 163.287 63.5801C162.761 63.4184 162.225 63.2908 161.682 63.1979C161.391 63.1518 161.098 63.1263 160.803 63.1215C160.642 63.1099 160.48 63.1099 160.319 63.1215C160.151 63.1564 159.985 63.2032 159.822 63.2616C159.299 63.5133 158.818 63.8441 158.396 64.2425C157.996 64.6022 157.617 64.985 157.262 65.389C156.556 66.1846 155.917 67.0367 155.351 67.9368C156.154 67.2489 156.931 66.5483 157.746 65.9113C158.153 65.5777 158.578 65.2672 159.02 64.9814C159.414 64.707 159.843 64.4844 160.294 64.319C160.719 64.2488 161.154 64.275 161.568 64.3954C162.049 64.5109 162.521 64.6599 162.982 64.8413C163.937 65.1725 164.893 65.5801 165.81 66.0005L166.268 66.2171L166.612 65.8604C167.3 65.147 168.039 64.4591 168.778 63.7967C169.13 63.4619 169.505 63.1512 169.899 62.8667C169.982 62.7986 170.072 62.7389 170.166 62.6884L170.294 62.612C170.479 62.5774 170.669 62.5774 170.854 62.612C171.82 62.7715 172.768 63.0276 173.682 63.3763C174.561 63.682 175.517 64.0515 176.485 64.3954Z" fill="#263238"/>
<path d="M201.746 60.3699C200.87 59.0987 199.913 57.886 198.88 56.7393C197.83 55.5423 196.631 54.4848 195.313 53.5928C194.904 53.3295 194.451 53.1438 193.975 53.045C193.814 53.0313 193.652 53.0313 193.491 53.045H193.147C192.918 53.045 192.714 53.1215 192.51 53.1597C191.733 53.3492 190.967 53.5831 190.217 53.8603C188.739 54.3826 187.338 55.0196 185.924 55.682L187.134 55.8731C185.979 54.7427 184.749 53.6915 183.453 52.7266C182.786 52.2555 182.088 51.8299 181.364 51.4527C180.979 51.2397 180.579 51.0565 180.166 50.9049C179.937 50.8262 179.703 50.7623 179.465 50.7138C179.203 50.6948 178.939 50.6948 178.676 50.7138C177.796 50.8012 176.936 51.0291 176.128 51.389C175.376 51.7074 174.663 52.0769 173.962 52.459C172.58 53.2441 171.259 54.1342 170.013 55.1215C171.491 54.5355 172.93 53.924 174.395 53.4145C175.122 53.1597 175.86 52.9049 176.586 52.7138C177.261 52.5085 177.959 52.3929 178.663 52.3699C179.282 52.4848 179.869 52.7325 180.383 53.096C181.008 53.4816 181.608 53.9071 182.179 54.3699C183.351 55.3126 184.51 56.3572 185.606 57.4018L186.255 57.8221L186.905 57.4909C188.179 56.8285 189.618 56.217 190.981 55.631C191.645 55.336 192.326 55.0807 193.02 54.8667L193.504 54.7393H193.72C193.72 54.7393 193.72 54.7393 193.81 54.7393C194.086 54.7704 194.353 54.8525 194.599 54.9814C195.888 55.6778 197.105 56.5014 198.23 57.44C199.376 58.3572 200.548 59.3381 201.746 60.3699Z" fill="#263238"/>
<path d="M414.283 141.377C413.415 140.108 412.462 138.899 411.43 137.759C410.387 136.556 409.187 135.497 407.863 134.612C407.475 134.354 407.043 134.168 406.589 134.065C406.429 134.039 406.265 134.039 406.105 134.065C405.986 134.058 405.867 134.058 405.748 134.065C405.537 134.092 405.329 134.135 405.124 134.192C404.347 134.376 403.581 134.605 402.831 134.88C401.353 135.415 399.952 136.039 398.538 136.702L399.735 136.893C398.587 135.764 397.361 134.717 396.067 133.759C395.396 133.294 394.698 132.868 393.977 132.485C393.59 132.27 393.185 132.086 392.767 131.937C392.54 131.854 392.306 131.794 392.067 131.759C391.808 131.74 391.548 131.74 391.289 131.759C390.41 131.855 389.55 132.087 388.742 132.447C387.99 132.765 387.277 133.135 386.576 133.517C385.191 134.293 383.87 135.179 382.627 136.167C384.092 135.593 385.544 134.982 387.009 134.472C387.725 134.197 388.457 133.963 389.2 133.772C389.873 133.56 390.572 133.444 391.277 133.428C391.899 133.533 392.487 133.782 392.996 134.154C393.622 134.539 394.222 134.965 394.793 135.428C395.965 136.37 397.124 137.415 398.207 138.46L398.754 138.982L399.417 138.651C400.691 137.988 402.13 137.377 403.493 136.791C404.158 136.499 404.839 136.244 405.532 136.027C405.697 136.027 405.863 135.925 406.016 135.899H406.232C406.232 135.899 406.232 135.899 406.309 135.899C406.585 135.93 406.852 136.012 407.098 136.141C408.387 136.845 409.607 137.668 410.742 138.6C411.927 139.428 413.099 140.409 414.283 141.377Z" fill="#263238"/>
<path d="M270.333 530.424C411.649 530.424 526.207 519.206 526.207 505.367C526.207 491.528 411.649 480.309 270.333 480.309C129.017 480.309 14.4585 491.528 14.4585 505.367C14.4585 519.206 129.017 530.424 270.333 530.424Z" fill="#EBEBEB"/>
<path d="M133.356 130.694L126.856 132.908L219.787 405.734L226.286 403.52L133.356 130.694Z" fill="#A6A6A6"/>
<path d="M130.217 116.65L120.778 119.861L114.064 93.9115L119.695 91.9879L130.217 116.65Z" fill="#A6A6A6"/>
<path d="M286.894 129.377C286.894 129.377 265.48 136.383 252.346 141.148C239.212 145.912 215.11 153.886 215.11 153.886C215.11 153.886 193.454 161.721 179.785 166.065C166.116 170.409 145.708 177.53 145.708 177.53C145.708 177.53 125.109 184.167 111.632 189.033C98.1538 193.899 76.2938 201.071 76.2938 201.071C76.2938 201.071 52.3573 209.543 39.0324 213.81C25.7075 218.078 4.48438 225.581 4.48438 225.581C15.287 185.39 56.0134 134.727 123.301 111.81C190.588 88.8923 253.773 104.128 286.894 129.377Z" fill="#FF9933"/>
<g opacity="0.1">
<path opacity="0.1" d="M286.895 129.377C280.869 126.829 274.793 124.459 268.602 122.179C262.41 119.899 256.219 117.644 249.888 115.58C237.07 111.191 223.936 107.784 210.601 105.389C203.649 104.117 196.583 103.579 189.518 103.784C182.244 103.988 174.894 104.574 167.543 105.224C160.193 105.873 152.817 106.803 145.454 107.899C138.091 108.994 130.69 110.243 123.339 111.721C137.914 108.176 152.706 105.593 167.62 103.988C175.021 103.147 182.41 102.612 189.76 102.332C196.978 102.065 204.204 102.569 211.315 103.835C218.101 105.01 224.824 106.532 231.455 108.396C237.99 110.205 244.423 112.217 250.665 114.408C263.009 118.724 275.104 123.721 286.895 129.377Z" fill="black"/>
<path opacity="0.1" d="M215.047 153.835C212.575 150.765 209.951 147.772 207.199 144.918C204.448 142.065 201.594 139.211 198.55 136.536C192.435 131.249 185.887 126.128 178.027 122.523C170.167 118.918 160.97 116.918 151.76 115.249C147.135 114.408 142.435 113.733 137.67 113.173C132.906 112.612 128.129 112.115 123.301 111.759C133.012 111.863 142.703 112.637 152.307 114.077C161.53 115.301 170.564 117.671 179.199 121.135C181.201 122.009 183.131 123.039 184.97 124.217C186.817 125.326 188.55 126.523 190.257 127.733C193.59 130.155 196.765 132.789 199.76 135.619C205.546 141.076 210.676 147.19 215.047 153.835Z" fill="black"/>
<path opacity="0.1" d="M4.48486 225.556C10.3881 213.88 16.9288 202.538 24.0774 191.581C27.6697 186.001 31.5551 180.511 35.6188 175.097C39.7376 169.574 44.1339 164.263 48.7909 159.186C53.6529 153.847 59.0675 149.038 64.9439 144.842C70.9312 140.574 77.1223 136.485 83.4918 132.638C96.2922 124.81 109.59 117.827 123.301 111.733C116.507 115.02 109.883 118.502 103.428 122.179C96.9739 125.857 90.6044 129.644 84.3198 133.542C78.1032 137.517 71.9248 141.53 66.0394 145.823C60.3187 149.973 55.0498 154.712 50.3196 159.963C41.216 169.989 32.8903 180.696 25.415 191.989C21.5933 197.479 18.0773 203.046 14.6123 208.638C11.1473 214.231 7.72056 219.9 4.48486 225.556Z" fill="black"/>
<path opacity="0.1" d="M76.2942 201.097C75.6991 193.17 76.0369 185.2 77.3006 177.352C77.9447 173.285 78.851 169.263 80.014 165.313C80.6254 163.313 81.2879 161.3 82.0395 159.3C82.7884 157.244 83.6912 155.247 84.7401 153.326C89.4673 145.314 95.1761 137.924 101.734 131.326C108.465 124.324 115.671 117.795 123.301 111.784C119.683 115.02 116.154 118.307 112.766 121.682C109.377 125.058 106.027 128.434 102.88 131.874C96.6001 138.829 90.6255 146.026 86.5108 153.683C82.3962 161.339 80.4089 169.352 78.791 177.275C78.014 181.25 77.5171 185.224 77.0585 189.186C76.5999 193.148 76.3706 197.148 76.2942 201.097Z" fill="black"/>
</g>
<path d="M286.894 129.377C286.894 129.377 290.983 139.275 289.862 141.211C288.741 143.147 223.951 165.848 221.849 165.619C219.747 165.39 215.084 153.835 215.084 153.835C215.084 153.835 218.817 166.294 215.989 168.052C213.161 169.81 88.3828 211.021 84.6248 212.804C80.8668 214.588 76.3317 201.097 76.3317 201.097C76.3317 201.097 77.6056 214.282 73.2744 216.931C68.9431 219.581 14.8281 237.237 10.8535 238.218C6.87899 239.199 4.57324 225.556 4.57324 225.556L286.894 129.377Z" fill="#FF9933"/>
<path opacity="0.2" d="M286.894 129.377C286.894 129.377 290.983 139.275 289.862 141.211C288.741 143.147 223.951 165.848 221.849 165.619C219.747 165.39 215.084 153.835 215.084 153.835C215.084 153.835 218.817 166.294 215.989 168.052C213.161 169.81 88.3828 211.021 84.6248 212.804C80.8668 214.588 76.3317 201.097 76.3317 201.097C76.3317 201.097 77.6056 214.282 73.2744 216.931C68.9431 219.581 14.8281 237.237 10.8535 238.218C6.87899 239.199 4.57324 225.556 4.57324 225.556L286.894 129.377Z" fill="black"/>
<path d="M306.894 244.486L303.786 247.632C303.2 248.218 302.626 248.817 302.028 249.403C298.107 245.464 293.447 242.338 288.315 240.205C283.183 238.072 277.68 236.975 272.123 236.975C266.565 236.975 261.063 238.072 255.931 240.205C250.799 242.338 246.139 245.464 242.218 249.403L240.549 247.632C239.53 246.601 238.511 245.581 237.479 244.562C237.479 244.562 237.479 244.562 237.39 244.499V244.435L237.619 244.244C238.893 243.085 240.167 241.887 241.543 240.766C247.681 235.807 254.942 232.431 262.69 230.932C264.677 230.575 266.69 230.384 268.702 230.142C269.378 230.053 273.798 230.04 273.964 230.053C275.327 230.142 276.69 230.206 278.053 230.358C281.824 230.782 285.529 231.667 289.085 232.995C291.669 233.942 294.166 235.11 296.55 236.486C299.073 237.921 301.457 239.589 303.671 241.467C304.779 242.422 305.849 243.429 306.945 244.422L306.894 244.486Z" fill="#FF9933"/>
<path d="M252.065 259.097L247.161 254.231C252.521 248.781 259.536 245.259 267.11 244.218C278.702 242.651 288.664 246.18 297.11 254.167L292.18 259.097C286.86 253.779 279.645 250.791 272.123 250.791C264.6 250.791 257.385 253.779 252.065 259.097Z" fill="#FF9933"/>
<path d="M287.288 263.976L282.409 268.855C281.06 267.503 279.458 266.431 277.694 265.699C275.93 264.967 274.039 264.59 272.129 264.59C270.219 264.59 268.328 264.967 266.564 265.699C264.8 266.431 263.198 267.503 261.849 268.855L256.982 263.989C258.964 261.984 261.323 260.392 263.923 259.306C266.524 258.219 269.314 257.658 272.133 257.657C274.951 257.656 277.742 258.214 280.344 259.299C282.945 260.383 285.306 261.973 287.288 263.976Z" fill="#FF9933"/>
<path d="M276.537 273.289C276.537 274.16 276.278 275.013 275.794 275.737C275.309 276.462 274.621 277.027 273.816 277.361C273.01 277.694 272.124 277.782 271.269 277.612C270.414 277.442 269.629 277.022 269.012 276.405C268.396 275.789 267.976 275.004 267.806 274.149C267.636 273.294 267.723 272.407 268.057 271.602C268.39 270.796 268.955 270.108 269.68 269.624C270.405 269.139 271.257 268.881 272.129 268.881C273.298 268.881 274.419 269.345 275.246 270.172C276.072 270.999 276.537 272.12 276.537 273.289Z" fill="#FF9933"/>
<path d="M525.278 501.201H513.775L489.125 473.507H152.881L128.218 501.201H116.715L138.626 461.57H503.38L525.278 501.201Z" fill="#FF9933"/>
<path opacity="0.5" d="M525.278 501.201H513.775L489.125 473.507H152.881L128.218 501.201H116.715L138.626 461.57H503.38L525.278 501.201Z" fill="black"/>
<path d="M186.41 441.94L71.9629 461.914L24.7778 324.193L139.225 317.544L186.41 441.94Z" fill="#455A64"/>
<path d="M71.9629 461.914L186.41 441.94L508.82 442.729L416.641 461.914H71.9629Z" fill="#455A64"/>
<path d="M71.9628 461.914L24.7778 324.193L15.3892 330.639L49.1856 461.914H71.9628Z" fill="#37474F"/>
<path d="M49.1855 461.914V471.685H416.64L508.819 451.927V442.729L416.64 461.914H49.1855Z" fill="#37474F"/>
<path d="M509.813 451.71L416.64 471.685H38.6377V481.392H416.64L509.813 461.698V451.71Z" fill="#FF9933"/>
<path opacity="0.3" d="M509.813 451.71L416.64 471.685H38.6377V481.392H416.64L509.813 461.698V451.71Z" fill="black"/>
<path d="M437.188 521.01H425.685L401.035 493.316H64.7909L40.1283 521.01H28.625L50.536 481.379H415.29L437.188 521.01Z" fill="#FF9933"/>
<path opacity="0.5" d="M437.188 521.01H425.685L401.035 493.316H64.7909L40.1283 521.01H28.625L50.536 481.379H415.29L437.188 521.01Z" fill="black"/>
<path d="M452.309 453.214C449.29 454.385 361.481 455.978 358.041 454.016C357.672 453.799 357.774 449.914 356.474 439.889C356.411 439.417 354.436 437.532 351.29 434.933C316.55 406.27 313.073 403.659 313.073 403.659L355.761 366.27L398.233 408.016L409.277 418.857C409.277 418.857 445.15 438.233 448.704 440.793C452.258 443.354 455.329 452.054 452.309 453.214Z" fill="#D3766A"/>
<path d="M386.411 396.398L349.124 433.15C349.124 433.15 293.697 385.353 283.684 384.958C278.588 384.767 198.257 429.659 160.231 433.583C133.275 436.373 118.651 392.283 118.651 392.283L176.397 379.022C218.015 358.499 264.907 321.697 293.264 325.098C324.066 328.83 386.411 396.398 386.411 396.398Z" fill="#D3766A"/>
<path d="M118.651 392.283C118.651 392.283 133.275 436.373 160.231 433.583C186.218 430.895 232.027 409.073 260.002 395.583L163.887 381.888L118.651 392.283Z" fill="#263238"/>
<path d="M118.651 392.283C118.651 392.283 112.179 429.723 130.906 444.436C149.632 459.15 286.805 457.379 307.62 450.653C328.436 443.927 329.085 410.334 306.346 402.551C284.69 395.149 192.626 391.544 190.422 390.64C189.849 390.411 187.377 382.003 187.479 376.742L177.594 378.461L118.651 392.283Z" fill="#D3766A"/>
<path d="M188.244 372.844L118.651 392.283C118.651 392.283 110.664 434.793 133.211 445.876C133.211 445.876 129.938 400.755 190.346 390.64C190.346 390.64 185.479 377.914 188.244 372.844Z" fill="#FF9933"/>
<path d="M130.205 436.487C129.868 436.446 129.544 436.337 129.25 436.169C128.995 436.003 128.787 435.773 128.646 435.503C128.506 435.233 128.437 434.932 128.447 434.627C128.438 434.165 128.289 433.716 128.021 433.339C127.753 432.961 127.378 432.674 126.944 432.513C126.536 432.363 126.096 432.327 125.67 432.411C125.275 432.513 124.906 432.564 124.536 432.653C124.91 432.75 125.288 432.827 125.67 432.882C126.002 432.906 126.325 433.006 126.613 433.175C126.872 433.33 127.088 433.548 127.242 433.808C127.395 434.069 127.481 434.364 127.492 434.666C127.489 435.122 127.62 435.57 127.869 435.952C128.118 436.335 128.474 436.636 128.893 436.819C129.299 436.975 129.741 437.01 130.167 436.92C130.546 436.873 130.921 436.797 131.288 436.691C130.982 436.602 130.613 436.551 130.205 436.487ZM140.396 403.048C140.065 402.994 139.746 402.882 139.453 402.716C139.2 402.551 138.992 402.324 138.849 402.057C138.707 401.79 138.634 401.491 138.638 401.188C138.633 400.726 138.488 400.276 138.222 399.898C137.956 399.521 137.581 399.233 137.148 399.073C136.74 398.925 136.3 398.89 135.874 398.971C135.492 399.073 135.122 399.111 134.753 399.2C135.122 399.301 135.496 399.381 135.874 399.442C136.213 399.452 136.543 399.554 136.829 399.735C137.089 399.887 137.306 400.102 137.46 400.36C137.614 400.619 137.699 400.912 137.708 401.213C137.698 401.671 137.827 402.122 138.077 402.506C138.327 402.89 138.687 403.189 139.109 403.366C139.515 403.522 139.956 403.562 140.383 403.481C140.767 403.428 141.146 403.347 141.517 403.239C141.16 403.175 140.791 403.137 140.396 403.048ZM188.804 390.003C188.795 389.54 188.648 389.091 188.383 388.712C188.117 388.334 187.745 388.042 187.314 387.875C186.901 387.747 186.463 387.725 186.04 387.812C185.67 387.875 185.301 387.939 184.906 388.028C185.301 388.13 185.67 388.181 186.04 388.245C186.378 388.287 186.707 388.39 187.008 388.551C187.265 388.703 187.478 388.919 187.628 389.178C187.777 389.437 187.858 389.73 187.861 390.028C187.853 390.367 187.922 390.702 188.065 391.009L188.995 390.844C188.87 390.59 188.805 390.311 188.804 390.028V390.003ZM121.428 413.927C121.378 413.544 121.302 413.165 121.198 412.793C121.097 413.162 121.058 413.532 120.969 413.927C120.943 414.257 120.848 414.578 120.689 414.869C120.54 415.13 120.325 415.346 120.065 415.496C119.806 415.646 119.511 415.724 119.211 415.723C118.591 415.732 117.999 415.978 117.555 416.411C117.555 416.793 117.619 417.162 117.67 417.544C117.827 417.284 118.053 417.072 118.322 416.93C118.592 416.789 118.895 416.724 119.198 416.742C119.662 416.722 120.109 416.569 120.487 416.3C120.865 416.03 121.156 415.657 121.326 415.226C121.486 414.822 121.535 414.382 121.466 413.952L121.428 413.927ZM118.205 395.952L118.039 396.079C118.039 396.334 118.039 396.602 117.95 396.882C118.179 396.723 118.377 396.525 118.536 396.296C118.74 395.965 118.995 395.672 119.186 395.315C118.867 395.532 118.574 395.761 118.243 395.977L118.205 395.952ZM163.836 392.946C163.575 393.163 163.264 393.312 162.931 393.379C162.638 393.438 162.334 393.424 162.047 393.338C161.76 393.251 161.499 393.094 161.288 392.882C160.959 392.557 160.539 392.34 160.084 392.26C159.629 392.18 159.16 392.242 158.74 392.436C158.358 392.624 158.036 392.916 157.81 393.277C157.578 393.575 157.361 393.886 157.161 394.207C157.498 394.018 157.822 393.805 158.129 393.57C158.395 393.367 158.691 393.208 159.008 393.098C159.3 393.028 159.605 393.033 159.895 393.113C160.185 393.194 160.449 393.346 160.664 393.557C160.99 393.884 161.406 394.109 161.859 394.201C162.312 394.294 162.782 394.252 163.212 394.079C163.613 393.913 163.958 393.634 164.205 393.277C164.409 392.946 164.638 392.64 164.829 392.296C164.499 392.504 164.181 392.73 163.874 392.971L163.836 392.946Z" fill="white"/>
<path d="M143.849 257.518C141.657 258.526 139.766 260.088 138.361 262.049C136.956 264.01 136.086 266.303 135.836 268.703C135.631 271.809 135.023 274.875 134.027 277.824C132.698 280.747 130.942 283.456 128.817 285.862C125.619 289.824 123.39 293.773 122.893 299.034C122.254 304.602 122.784 310.242 124.447 315.595C123.064 309.917 122.856 304.017 123.836 298.257C124.829 292.435 128.116 288.779 131.479 284.346C134.172 280.908 135.884 276.805 136.434 272.473C136.766 269.824 136.727 267.072 137.785 264.575C139.059 261.594 141.606 259.696 144.154 258.015C144.19 257.964 144.209 257.904 144.211 257.842C144.213 257.78 144.196 257.719 144.164 257.666C144.131 257.614 144.084 257.571 144.028 257.545C143.972 257.519 143.91 257.509 143.849 257.518Z" fill="#263238"/>
<path d="M190.805 288.13C187.607 283.977 184.282 280.486 182.41 275.263C180.703 270.563 179.722 265.594 177.989 260.894H177.875C180.55 269.238 181.072 277.658 186.461 284.665C189.403 288.486 192.333 292.015 194.257 296.588C196.222 301.381 197.255 306.504 197.301 311.684C197.301 311.862 197.543 311.849 197.556 311.684C198.341 303.263 195.931 294.855 190.805 288.13Z" fill="#263238"/>
<path d="M187.301 372.78C179.085 389.965 117.721 403.863 117.721 403.863C117.721 403.863 115.849 362.385 129.569 327.429C141.836 296.04 158.231 303.862 164.193 308.779C171.327 314.537 185.684 336.474 186.805 340.767C188.652 347.862 182.868 356.054 182.868 356.054L187.301 372.78Z" fill="#D3766A"/>
<path d="M187.301 372.78C179.085 389.965 117.709 403.863 117.709 403.863C117.709 403.863 116.295 372.015 125.135 340.665C126.409 336.206 127.861 331.748 129.568 327.391C141.836 296.04 158.231 303.862 164.193 308.779C168.282 312.079 174.754 320.716 179.734 328.283C183.429 333.901 186.295 338.907 186.779 340.729C188.626 347.824 182.843 356.015 182.843 356.015L187.301 372.78Z" fill="#D3766A"/>
<path d="M187.301 372.78C179.085 389.965 117.709 403.863 117.709 403.863C117.709 403.863 116.295 372.015 125.135 340.665L144.244 337.799C144.244 337.799 149.734 330.474 156.817 329.837C163.9 329.2 170.359 333.34 170.359 333.34C175.123 327.748 179.709 328.244 179.709 328.244C183.403 333.862 186.27 338.869 186.754 340.69C188.601 347.786 182.817 355.977 182.817 355.977L187.301 372.78Z" fill="#FF9933"/>
<path d="M186.804 340.703C186.547 340.541 186.337 340.315 186.194 340.047C186.051 339.779 185.98 339.478 185.989 339.174C185.989 338.945 185.95 338.716 185.874 338.499L185.696 338.143C185.676 338.083 185.646 338.027 185.607 337.977C185.609 337.947 185.609 337.918 185.607 337.888C185.351 337.507 184.981 337.217 184.55 337.06C184.139 336.921 183.7 336.894 183.276 336.983C182.89 337.044 182.507 337.125 182.129 337.225C182.511 337.315 182.881 337.353 183.276 337.429C183.61 337.463 183.935 337.562 184.231 337.722C184.486 337.88 184.697 338.1 184.846 338.36C184.995 338.62 185.077 338.913 185.085 339.213C185.085 339.672 185.221 340.121 185.475 340.503C185.728 340.886 186.089 341.186 186.511 341.366C186.673 341.439 186.845 341.486 187.021 341.506C186.932 341.225 186.868 340.971 186.804 340.703ZM151.607 341.901C151.277 341.856 150.96 341.744 150.677 341.569C150.421 341.407 150.212 341.18 150.071 340.912C149.931 340.644 149.863 340.343 149.874 340.041C149.856 339.579 149.704 339.132 149.437 338.755C149.17 338.377 148.8 338.085 148.371 337.913C147.959 337.784 147.52 337.763 147.097 337.85C146.702 337.913 146.333 337.977 145.938 338.079C146.333 338.168 146.702 338.219 147.097 338.296C147.427 338.331 147.748 338.43 148.04 338.588C148.298 338.743 148.511 338.961 148.661 339.222C148.81 339.483 148.89 339.778 148.893 340.079C148.894 340.538 149.032 340.987 149.288 341.368C149.544 341.749 149.908 342.045 150.333 342.219C150.735 342.389 151.177 342.437 151.607 342.359C152.002 342.27 152.371 342.219 152.74 342.117C152.367 342.024 151.988 341.952 151.607 341.901ZM135.912 398.997C135.53 399.098 135.161 399.137 134.791 399.226L135.059 399.29L136.154 398.971L135.912 398.997ZM159.161 372.245C158.834 372.204 158.518 372.1 158.231 371.939C157.979 371.776 157.773 371.551 157.632 371.286C157.492 371.02 157.422 370.723 157.428 370.423C157.418 369.959 157.269 369.509 157.002 369.13C156.734 368.751 156.359 368.46 155.925 368.296C155.523 368.123 155.074 368.091 154.651 368.207C154.256 368.296 153.887 368.334 153.492 368.423C153.873 368.528 154.26 368.609 154.651 368.665C154.984 368.677 155.309 368.773 155.594 368.945C155.852 369.097 156.066 369.313 156.215 369.572C156.365 369.831 156.445 370.124 156.447 370.423C156.449 370.886 156.586 371.337 156.841 371.722C157.097 372.108 157.461 372.409 157.887 372.589C158.291 372.75 158.734 372.79 159.161 372.703C159.548 372.648 159.931 372.568 160.307 372.461C159.925 372.334 159.505 372.296 159.161 372.207V372.245ZM120.549 369.926C120.221 369.891 119.904 369.786 119.619 369.621L119.466 369.506C119.466 369.773 119.466 370.041 119.364 370.296C119.744 370.431 120.153 370.462 120.549 370.385C120.94 370.333 121.327 370.256 121.708 370.156C121.288 370.028 120.944 369.99 120.549 369.926ZM186.027 368.015L185.913 368.092C185.653 368.308 185.355 368.472 185.034 368.576C184.741 368.652 184.433 368.65 184.141 368.572C183.848 368.494 183.581 368.342 183.365 368.13C183.039 367.801 182.623 367.576 182.17 367.483C181.717 367.39 181.246 367.434 180.817 367.608C180.416 367.769 180.074 368.049 179.836 368.41C179.62 368.742 179.39 369.035 179.186 369.391C179.53 369.175 179.836 368.945 180.167 368.742C180.415 368.524 180.713 368.371 181.034 368.296C181.332 368.242 181.639 368.26 181.93 368.349C182.22 368.437 182.485 368.594 182.702 368.805C183.036 369.123 183.455 369.335 183.909 369.414C184.362 369.493 184.829 369.437 185.25 369.251C185.599 369.08 185.901 368.827 186.129 368.512L186.027 368.015ZM138.384 376.933C138.338 376.55 138.266 376.171 138.167 375.799C138.065 376.168 138.027 376.538 137.925 376.933C137.91 377.263 137.818 377.586 137.658 377.875C137.508 378.135 137.292 378.35 137.033 378.5C136.774 378.65 136.479 378.729 136.18 378.729C135.727 378.734 135.284 378.867 134.903 379.113C134.522 379.359 134.219 379.707 134.027 380.117C133.872 380.523 133.832 380.964 133.912 381.391C133.989 381.786 134.027 382.156 134.142 382.551C134.249 382.171 134.325 381.783 134.371 381.391C134.403 381.063 134.517 380.748 134.702 380.474C134.857 380.215 135.081 380.003 135.348 379.861C135.615 379.72 135.916 379.654 136.218 379.672C136.682 379.655 137.131 379.503 137.51 379.233C137.888 378.964 138.178 378.589 138.345 378.156C138.477 377.756 138.49 377.327 138.384 376.92V376.933ZM172.244 348.818C172.155 348.448 172.116 348.079 172.027 347.684C171.925 348.057 171.844 348.436 171.785 348.818C171.767 349.16 171.667 349.492 171.492 349.786C171.341 350.045 171.126 350.261 170.867 350.413C170.608 350.565 170.314 350.647 170.014 350.652C169.554 350.646 169.102 350.779 168.718 351.034C168.334 351.288 168.036 351.652 167.862 352.079C167.674 352.477 167.633 352.928 167.747 353.353C167.823 353.748 167.862 354.117 167.951 354.487C168.058 354.115 168.139 353.736 168.193 353.353C168.227 353.023 168.336 352.705 168.511 352.423C168.673 352.166 168.899 351.957 169.168 351.816C169.436 351.675 169.737 351.608 170.04 351.62C170.502 351.608 170.949 351.458 171.326 351.19C171.702 350.923 171.991 350.549 172.155 350.117C172.296 349.699 172.327 349.251 172.244 348.818ZM139.122 355.098C138.875 355.323 138.571 355.477 138.244 355.544C137.949 355.61 137.642 355.597 137.354 355.508C137.066 355.418 136.806 355.255 136.6 355.034C136.266 354.719 135.845 354.51 135.392 354.433C134.938 354.355 134.472 354.414 134.052 354.601C133.661 354.781 133.33 355.068 133.097 355.429C132.906 355.748 132.638 356.054 132.447 356.398C132.804 356.194 133.097 355.952 133.428 355.748C133.676 355.527 133.973 355.37 134.294 355.289C134.585 355.205 134.892 355.2 135.186 355.274C135.479 355.348 135.747 355.498 135.963 355.71C136.197 355.953 136.482 356.141 136.798 356.261C137.113 356.38 137.451 356.428 137.788 356.402C138.124 356.375 138.45 356.274 138.743 356.106C139.035 355.937 139.287 355.706 139.479 355.429C139.683 355.098 139.912 354.805 140.103 354.461C139.619 354.64 139.314 354.894 138.995 355.098H139.122ZM118.371 395.977C118.191 396.137 117.984 396.262 117.759 396.347V397.111C118.141 396.941 118.467 396.667 118.702 396.321C118.906 395.99 119.161 395.697 119.352 395.341C118.868 395.532 118.575 395.761 118.243 395.977H118.371Z" fill="white"/>
<path d="M182.142 356.219C178.536 356.151 174.946 356.707 171.53 357.862C171.53 357.862 171.53 357.952 171.53 357.939C173.288 357.608 175.033 357.289 176.804 357.022C178.575 356.754 180.358 356.55 182.129 356.308C182.205 356.308 182.193 356.219 182.142 356.219Z" fill="#263238"/>
<path d="M148.676 307.607C148.893 309.072 154.982 318.945 161.555 319.174C163.708 319.251 164.613 307.569 164.613 307.569L164.88 306.716L168.574 294.856L155.135 284.575L153.135 283.212C153.135 283.212 152.332 286.524 151.39 290.652C151.39 290.843 151.288 291.034 151.25 291.238C151.211 291.442 151.135 291.696 151.084 291.913C150.931 292.524 150.778 293.187 150.651 293.786C150.523 294.384 150.434 294.728 150.345 295.238C150.256 295.747 150.141 296.244 150.039 296.741C149.343 300.329 148.887 303.959 148.676 307.607Z" fill="#D3766A"/>
<path d="M151.441 290.652C152.38 294.145 154.068 297.392 156.389 300.166C158.71 302.94 161.608 305.175 164.881 306.716L168.575 294.856L155.136 284.575L153.136 283.212C153.136 283.212 152.384 286.524 151.441 290.652Z" fill="#263238"/>
<path d="M187.53 277.314C187.798 299.123 174.791 301.747 170.078 301.798C165.81 301.798 151.275 301.48 148.74 279.824C146.205 258.167 156.269 251.148 166.027 250.524C175.785 249.9 187.199 255.518 187.53 277.314Z" fill="#D3766A"/>
<path d="M184.206 274.512C183.716 274.41 183.231 274.282 182.754 274.129C182.224 274.059 181.732 273.818 181.353 273.441C181.247 273.307 181.19 273.141 181.19 272.97C181.19 272.799 181.247 272.633 181.353 272.499C181.613 272.274 181.929 272.123 182.267 272.062C182.606 272.002 182.954 272.034 183.276 272.155C183.961 272.298 184.568 272.688 184.983 273.25C185.07 273.38 185.117 273.532 185.12 273.688C185.122 273.844 185.08 273.997 184.999 274.13C184.917 274.263 184.799 274.369 184.658 274.437C184.518 274.504 184.361 274.53 184.206 274.512Z" fill="#263238"/>
<path d="M169.148 274.83C169.658 274.83 170.129 274.677 170.626 274.601C171.164 274.601 171.686 274.417 172.104 274.078C172.209 273.944 172.266 273.778 172.266 273.607C172.266 273.436 172.209 273.27 172.104 273.136C171.871 272.886 171.577 272.702 171.25 272.603C170.923 272.505 170.576 272.495 170.244 272.575C169.541 272.636 168.886 272.959 168.409 273.48C168.304 273.607 168.238 273.764 168.223 273.929C168.207 274.094 168.241 274.26 168.32 274.406C168.4 274.551 168.521 274.669 168.669 274.745C168.817 274.821 168.984 274.85 169.148 274.83Z" fill="#263238"/>
<path d="M172.04 278.282C172.04 278.219 171.925 278.346 171.925 278.41C171.925 279.887 171.671 281.594 170.308 282.04C170.308 282.04 170.308 282.129 170.308 282.117C171.964 281.951 172.244 279.684 172.04 278.282Z" fill="#263238"/>
<path d="M170.767 276.677C168.385 276.422 168.041 281.2 170.244 281.442C172.448 281.684 172.767 276.932 170.767 276.677Z" fill="#263238"/>
<path d="M169.811 276.932C169.378 277.174 168.932 277.62 168.422 277.633C167.913 277.645 167.429 277.11 167.085 276.601H167.008C166.919 277.518 167.212 278.486 168.18 278.69C169.148 278.894 169.773 278.117 170.066 277.212C170.117 277.034 169.989 276.766 169.811 276.932Z" fill="#263238"/>
<path d="M180.791 278.371C180.791 278.371 180.906 278.448 180.893 278.512C180.728 279.989 180.791 281.709 182.091 282.333C182.091 282.333 182.091 282.422 182.091 282.41C180.46 282.028 180.396 279.747 180.791 278.371Z" fill="#263238"/>
<path d="M182.244 276.932C184.639 276.932 184.435 281.735 182.244 281.722C180.053 281.709 180.231 276.932 182.244 276.932Z" fill="#263238"/>
<path d="M183.225 277.289C183.594 277.556 183.951 278.04 184.397 278.078C184.843 278.117 185.327 277.645 185.671 277.161H185.747C185.747 278.078 185.39 279.021 184.473 279.161C183.556 279.301 183.097 278.473 182.919 277.556C182.944 277.429 183.085 277.187 183.225 277.289Z" fill="#263238"/>
<path d="M171.556 290.945C171.862 291.34 172.167 291.849 172.69 291.964C173.24 292.02 173.795 291.959 174.32 291.786C174.32 291.786 174.409 291.786 174.32 291.862C174.076 292.127 173.765 292.322 173.42 292.425C173.075 292.528 172.708 292.536 172.358 292.448C172.067 292.331 171.816 292.131 171.637 291.873C171.459 291.615 171.359 291.31 171.352 290.996C171.39 290.945 171.505 290.945 171.556 290.945Z" fill="#263238"/>
<path d="M178.078 286.002C178.078 286.002 178.244 288.231 178.18 289.276C178.18 289.378 177.926 289.403 177.569 289.403C176.661 289.513 175.741 289.37 174.909 288.99C174.078 288.61 173.367 288.008 172.855 287.251C172.855 287.149 172.932 287.047 173.021 287.123C174.3 288.112 175.864 288.662 177.48 288.69C177.569 288.41 177.059 284.868 177.225 284.868C178.028 284.993 178.811 285.219 179.556 285.543C179.34 280.894 178.371 276.308 178.282 271.658C178.291 271.63 178.309 271.605 178.333 271.587C178.357 271.569 178.386 271.56 178.416 271.56C178.446 271.56 178.475 271.569 178.499 271.587C178.523 271.605 178.541 271.63 178.55 271.658C179.745 276.543 180.441 281.537 180.626 286.563C180.588 287.123 178.486 286.206 178.078 286.002Z" fill="#263238"/>
<path d="M176.804 288.97C176.241 289.651 175.513 290.177 174.69 290.499C174.23 290.645 173.736 290.645 173.276 290.499C172.269 290.193 172.282 289.225 172.498 288.473C172.619 288.053 172.786 287.647 172.995 287.263C174.049 288.226 175.384 288.825 176.804 288.97Z" fill="#263238"/>
<path d="M174.69 290.499C174.23 290.645 173.736 290.645 173.276 290.499C172.269 290.193 172.282 289.225 172.498 288.473C173.039 288.513 173.55 288.735 173.948 289.103C174.346 289.471 174.607 289.963 174.69 290.499Z" fill="#FF9BBC"/>
<path d="M148.613 281.008C150.097 280.522 151.43 279.658 152.48 278.501C153.529 277.344 154.26 275.934 154.6 274.41C158.616 273.254 162.255 271.056 165.148 268.04C164.932 268.473 163.454 271.543 162.6 273.136C176.702 272.448 182.384 262.499 182.384 262.499C184.688 265.274 186.33 268.537 187.186 272.04C187.186 272.04 188.46 263.62 184.881 257.378C183.741 255.224 182.049 253.411 179.979 252.127C177.908 250.842 175.533 250.13 173.097 250.066C169.814 248.779 166.245 248.402 162.765 248.973C159.286 249.545 156.025 251.045 153.326 253.314C143.11 261.811 148.613 281.008 148.613 281.008Z" fill="#263238"/>
<path d="M173.403 272.27C171.026 273.178 168.527 273.728 165.989 273.9C170.001 273.381 173.787 271.748 176.919 269.187C178.242 268.085 179.426 266.827 180.447 265.441C181.616 263.96 182.482 262.263 182.995 260.448C183.003 260.425 183.018 260.406 183.037 260.392C183.057 260.378 183.08 260.371 183.104 260.371C183.127 260.371 183.151 260.378 183.17 260.392C183.189 260.406 183.204 260.425 183.212 260.448C182.9 262.292 182.279 264.07 181.377 265.709C180.414 267.299 179.171 268.702 177.709 269.849C176.394 270.844 174.95 271.654 173.416 272.257" fill="#263238"/>
<path d="M166.766 255.76C166.384 257.951 162.46 259.097 158.002 258.308C153.543 257.518 150.244 255.11 150.626 252.919C151.008 250.728 154.932 249.581 159.39 250.371C163.849 251.161 167.148 253.556 166.766 255.76Z" fill="#FF9933"/>
<path d="M165.072 254.995C164.779 256.664 161.798 257.543 158.409 256.945C155.021 256.346 152.511 254.511 152.804 252.855C153.097 251.199 156.078 250.308 159.466 250.906C162.855 251.505 165.365 253.327 165.072 254.995Z" fill="#263238"/>
<path d="M165.326 253.301L164.154 252.537C166.116 249.556 169.887 249.989 171.607 250.664L171.11 251.938C170.97 251.925 167.148 250.524 165.326 253.301Z" fill="#FF9933"/>
<path d="M146.052 281.327C146.052 281.098 146.052 275.696 146.116 274.639C146.205 273.365 154.358 256.257 154.434 256.155L154.982 256.601L155.594 256.945C155.097 257.9 147.747 273.505 147.517 274.779C147.454 275.76 147.454 281.289 147.454 281.34L146.052 281.327Z" fill="#FF9933"/>
<path d="M185.403 252.435C185.021 254.626 181.085 255.773 176.639 254.983C172.193 254.193 168.868 251.798 169.263 249.594C169.658 247.39 173.569 246.257 178.027 247.046C182.486 247.836 185.785 250.244 185.403 252.435Z" fill="#FF9933"/>
<path d="M183.709 251.798C183.416 253.454 180.435 254.346 177.046 253.734C173.658 253.123 171.148 251.314 171.441 249.645C171.734 247.976 174.715 247.097 178.104 247.696C181.492 248.295 183.938 250.18 183.709 251.798Z" fill="#263238"/>
<path d="M152.18 281.454C152.18 281.454 147.938 274.308 144.727 275.773C141.517 277.238 144.371 287.34 147.887 288.958C148.325 289.198 148.807 289.347 149.305 289.395C149.802 289.444 150.304 289.391 150.781 289.239C151.257 289.088 151.698 288.842 152.076 288.515C152.455 288.189 152.763 287.789 152.982 287.34L152.18 281.454Z" fill="#D3766A"/>
<path d="M145.619 278.652V278.741C148.078 280.015 149.237 282.41 149.989 284.919C149.861 284.654 149.677 284.42 149.45 284.233C149.222 284.046 148.957 283.91 148.672 283.836C148.387 283.762 148.089 283.751 147.8 283.804C147.51 283.857 147.235 283.972 146.995 284.142C146.995 284.142 146.995 284.282 147.059 284.282C147.513 284.173 147.989 284.208 148.423 284.381C148.856 284.555 149.226 284.858 149.479 285.25C149.903 285.911 150.253 286.616 150.524 287.352C150.626 287.594 151.046 287.493 150.982 287.225C151.237 283.938 149.059 279.238 145.619 278.652Z" fill="#263238"/>
<path d="M138.129 328.181C142.97 348.792 161.823 381.506 170.435 382.818C184.155 384.92 224.104 368.691 234.321 360.933C237.849 358.245 218.639 334.423 214.155 335.99C197.594 341.824 179.263 350.334 177.008 348.512C174.269 346.296 162.715 333.811 152.116 321.047C138.778 305.021 135.95 318.97 138.129 328.181Z" fill="#D3766A"/>
<path d="M234.321 360.933C236.308 360.079 249.697 349.022 253.531 343.99C257.703 338.766 260.994 332.897 263.276 326.614C266.831 316.665 268.372 309.454 267.098 306.333C265.697 302.716 265.327 302.142 256.639 318.83C251.722 328.27 246.55 329.62 242.015 329.811C230.84 330.293 219.944 333.452 210.244 339.022C210.244 339.022 226.665 364.206 234.321 360.933Z" fill="#D3766A"/>
<path d="M273.353 293.849L251.047 325.926C250.723 326.364 250.282 326.702 249.776 326.902C249.269 327.103 248.716 327.157 248.181 327.06L230.945 322.499C230.736 322.444 230.545 322.336 230.389 322.186C230.233 322.037 230.118 321.85 230.055 321.644C229.991 321.437 229.981 321.218 230.025 321.007C230.069 320.796 230.167 320.599 230.308 320.435L252.626 288.397C252.948 287.959 253.386 287.621 253.89 287.42C254.395 287.22 254.946 287.165 255.48 287.263L272.716 291.824C272.918 291.882 273.102 291.989 273.253 292.136C273.403 292.283 273.515 292.465 273.578 292.666C273.641 292.866 273.653 293.079 273.614 293.286C273.575 293.492 273.485 293.686 273.353 293.849Z" fill="#37474F"/>
<path d="M271.174 291.378L253.939 286.817C253.403 286.718 252.85 286.772 252.343 286.973C251.836 287.173 251.396 287.512 251.072 287.951L228.766 320.015C228.622 320.178 228.522 320.374 228.475 320.587C228.428 320.799 228.437 321.019 228.499 321.227C228.562 321.436 228.677 321.624 228.833 321.775C228.989 321.927 229.181 322.036 229.391 322.092L246.626 326.614C247.164 326.715 247.719 326.66 248.226 326.457C248.734 326.254 249.173 325.911 249.493 325.467L271.799 293.493C271.952 293.331 272.061 293.131 272.113 292.914C272.165 292.697 272.159 292.47 272.096 292.255C272.033 292.041 271.914 291.847 271.753 291.693C271.591 291.539 271.391 291.431 271.174 291.378ZM249.098 324.232C248.808 324.644 248.409 324.966 247.945 325.162C247.481 325.358 246.971 325.42 246.474 325.34L231.047 321.251C230.181 321.021 229.951 320.155 230.55 319.314L251.327 289.454C252.512 287.735 253.276 287.836 254.142 288.066L257.225 288.894C257.404 288.894 257.429 289.161 257.225 289.391L257.162 289.48C256.792 290.015 257.162 290.104 257.506 290.219L264.652 292.104C265.06 292.206 265.378 292.295 265.748 291.76L265.824 291.658C265.885 291.552 265.975 291.466 266.083 291.409C266.191 291.353 266.314 291.329 266.436 291.34L269.518 292.155C270.385 292.384 270.92 292.792 269.824 294.372L249.098 324.232Z" fill="#263238"/>
<path d="M262.563 290.754L260.614 290.231C260.603 290.223 260.595 290.212 260.589 290.2C260.583 290.188 260.58 290.175 260.58 290.161C260.58 290.148 260.583 290.135 260.589 290.122C260.595 290.11 260.603 290.1 260.614 290.091C260.638 290.062 260.67 290.039 260.706 290.026C260.741 290.012 260.78 290.008 260.818 290.015L262.767 290.537C262.767 290.537 262.843 290.614 262.767 290.677C262.743 290.707 262.711 290.73 262.675 290.743C262.64 290.756 262.601 290.76 262.563 290.754Z" fill="white"/>
<path d="M269.862 294.372L249.098 324.232C248.808 324.644 248.409 324.966 247.945 325.162C247.481 325.358 246.971 325.42 246.474 325.34L231.047 321.251C230.181 321.034 229.964 320.155 230.55 319.314L251.327 289.454C252.512 287.735 253.276 287.836 254.142 288.066L257.225 288.894C257.404 288.894 257.429 289.161 257.225 289.391L257.162 289.48C256.792 290.015 257.162 290.104 257.506 290.219L264.652 292.104C265.06 292.206 265.378 292.295 265.748 291.76L265.824 291.658C265.886 291.553 265.976 291.467 266.084 291.411C266.192 291.355 266.314 291.33 266.436 291.34L269.518 292.155C270.423 292.384 270.971 292.792 269.862 294.372Z" fill="white"/>
<path d="M269.862 294.372L268.321 296.601L249.773 291.684L251.327 289.454C252.512 287.735 253.276 287.836 254.142 288.066L257.225 288.894C257.404 288.894 257.429 289.161 257.225 289.391L257.162 289.48C256.792 290.015 257.162 290.104 257.505 290.219L264.652 292.104C265.06 292.206 265.378 292.295 265.748 291.76L265.824 291.658C265.886 291.553 265.976 291.467 266.084 291.411C266.192 291.355 266.314 291.33 266.435 291.34L269.518 292.155C270.423 292.384 270.958 292.792 269.862 294.372Z" fill="#FF9933"/>
<path d="M252.41 291.098L252.181 290.486L253.047 290.168L253.085 290.27L252.359 290.537L252.55 291.034L252.41 291.098Z" fill="white"/>
<path d="M268.206 294.499C268.188 294.529 268.161 294.552 268.129 294.566C268.097 294.58 268.062 294.583 268.028 294.575C268.017 294.568 268.009 294.559 268.003 294.548C267.997 294.537 267.994 294.524 267.994 294.512C267.994 294.499 267.997 294.487 268.003 294.476C268.009 294.464 268.017 294.455 268.028 294.448C268.048 294.421 268.075 294.399 268.107 294.385C268.138 294.372 268.172 294.367 268.206 294.372C268.217 294.379 268.225 294.388 268.231 294.399C268.237 294.41 268.24 294.423 268.24 294.435C268.24 294.448 268.237 294.46 268.231 294.471C268.225 294.483 268.217 294.492 268.206 294.499Z" fill="white"/>
<path d="M267.964 294.856C267.943 294.881 267.915 294.9 267.884 294.911C267.852 294.922 267.819 294.925 267.786 294.919C267.722 294.919 267.71 294.843 267.786 294.792C267.813 294.775 267.844 294.766 267.875 294.766C267.907 294.766 267.938 294.775 267.964 294.792C267.964 294.792 268.003 294.766 267.964 294.856Z" fill="white"/>
<path d="M267.786 295.2C267.765 295.225 267.737 295.244 267.705 295.255C267.674 295.266 267.641 295.269 267.608 295.263C267.544 295.263 267.531 295.187 267.608 295.136C267.629 295.111 267.657 295.092 267.689 295.08C267.72 295.069 267.753 295.066 267.786 295.072C267.797 295.079 267.805 295.089 267.811 295.1C267.817 295.111 267.82 295.123 267.82 295.136C267.82 295.149 267.817 295.161 267.811 295.172C267.805 295.183 267.797 295.193 267.786 295.2Z" fill="white"/>
<path d="M256.23 289.416C256.213 289.37 256.184 289.329 256.146 289.298C256.108 289.267 256.063 289.246 256.014 289.238C255.897 289.206 255.774 289.206 255.657 289.238H255.785H256.078H256.167L256.23 289.416Z" fill="white"/>
<path d="M255.607 289.403C255.69 289.379 255.778 289.379 255.862 289.403C255.912 289.407 255.96 289.424 256 289.453C256.041 289.483 256.072 289.523 256.091 289.569H256.015C256.002 289.539 255.982 289.512 255.958 289.49C255.934 289.468 255.906 289.452 255.874 289.442C255.791 289.402 255.698 289.388 255.607 289.403Z" fill="white"/>
<path d="M255.926 289.531H255.849C255.849 289.531 255.849 289.531 255.773 289.467C255.753 289.458 255.731 289.453 255.709 289.453C255.687 289.453 255.665 289.458 255.646 289.467V289.403C255.672 289.393 255.701 289.388 255.729 289.389C255.758 289.39 255.786 289.397 255.812 289.409C255.838 289.42 255.862 289.437 255.881 289.458C255.901 289.479 255.916 289.504 255.926 289.531Z" fill="white"/>
<path d="M255.759 289.594H255.696H255.759C255.759 289.594 255.772 289.569 255.759 289.594Z" fill="white"/>
<path d="M253.264 288.728C253.284 288.695 253.316 288.669 253.352 288.655C253.389 288.641 253.43 288.64 253.467 288.652C253.531 288.652 253.557 288.728 253.467 288.792C253.447 288.825 253.415 288.851 253.378 288.865C253.342 288.879 253.301 288.88 253.264 288.868C253.264 288.868 253.225 288.792 253.264 288.728Z" fill="white"/>
<path d="M253.646 288.83C253.668 288.798 253.699 288.774 253.736 288.76C253.772 288.746 253.812 288.744 253.85 288.754C253.86 288.762 253.869 288.773 253.875 288.785C253.881 288.797 253.884 288.81 253.884 288.824C253.884 288.837 253.881 288.851 253.875 288.863C253.869 288.875 253.86 288.886 253.85 288.894C253.827 288.926 253.796 288.95 253.76 288.964C253.723 288.978 253.684 288.98 253.646 288.97C253.635 288.962 253.627 288.951 253.621 288.939C253.615 288.927 253.612 288.914 253.612 288.9C253.612 288.887 253.615 288.873 253.621 288.861C253.627 288.849 253.635 288.839 253.646 288.83Z" fill="white"/>
<path d="M254.041 288.932C254.059 288.9 254.088 288.874 254.123 288.861C254.158 288.847 254.196 288.845 254.232 288.856C254.308 288.856 254.321 288.932 254.232 288.996C254.211 289.029 254.18 289.055 254.143 289.069C254.106 289.082 254.066 289.084 254.028 289.072C254.015 289.059 253.99 288.996 254.041 288.932Z" fill="white"/>
<path d="M254.422 289.034C254.446 289.003 254.477 288.98 254.513 288.966C254.549 288.953 254.589 288.95 254.626 288.958C254.69 288.958 254.715 289.034 254.626 289.098C254.608 289.13 254.579 289.155 254.544 289.169C254.509 289.183 254.471 289.185 254.435 289.174C254.397 289.161 254.384 289.098 254.422 289.034Z" fill="white"/>
<path d="M254.805 289.136C254.829 289.106 254.861 289.084 254.897 289.07C254.932 289.057 254.971 289.053 255.009 289.059C255.019 289.068 255.028 289.078 255.034 289.091C255.04 289.103 255.043 289.116 255.043 289.13C255.043 289.143 255.04 289.156 255.034 289.168C255.028 289.181 255.019 289.191 255.009 289.2C254.987 289.232 254.955 289.256 254.919 289.27C254.882 289.283 254.843 289.286 254.805 289.276C254.794 289.268 254.786 289.257 254.78 289.245C254.774 289.233 254.771 289.219 254.771 289.206C254.771 289.192 254.774 289.179 254.78 289.167C254.786 289.155 254.794 289.144 254.805 289.136Z" fill="white"/>
<path d="M269.162 293.531L267.557 293.098L268.206 292.18L269.811 292.601L269.162 293.531Z" fill="white"/>
<path d="M269.009 292.779L268.359 292.601L268.168 292.881L268.818 293.047L269.009 292.779Z" fill="white"/>
<path d="M269.2 293.123L269.111 293.098L269.264 292.868L269.353 292.894L269.2 293.123Z" fill="white"/>
<path d="M233.569 319.76L233.429 319.722L233.021 320.308L232.753 320.244L232.97 319.939L232.499 319.824L232.295 320.117L232.027 320.053L232.435 319.467L232.295 319.429L233.352 318.996L233.569 319.76Z" fill="#EBEBEB"/>
<path d="M248.04 323.123L246.499 322.716L246.639 322.525L248.167 322.92L248.04 323.123Z" fill="#EBEBEB"/>
<path d="M247.696 323.62L246.155 323.213L246.295 323.009L247.836 323.416L247.696 323.62Z" fill="#EBEBEB"/>
<path d="M247.353 324.104L245.812 323.697L245.952 323.506L247.493 323.913L247.353 324.104Z" fill="#EBEBEB"/>
<path d="M240.524 321.506L239.798 321.811L239.645 321.276L239.772 321.225L239.887 321.671L240.486 321.416L240.524 321.506Z" fill="#EBEBEB"/>
<path d="M239.76 322.869C239.633 322.882 239.505 322.882 239.378 322.869C239.193 322.825 239.021 322.737 238.877 322.613C238.733 322.489 238.621 322.332 238.55 322.155C238.491 321.964 238.477 321.762 238.51 321.566C238.544 321.369 238.623 321.182 238.741 321.021C238.951 320.73 239.241 320.507 239.576 320.378C239.911 320.249 240.276 320.22 240.626 320.295C240.811 320.337 240.982 320.424 241.125 320.548C241.267 320.673 241.376 320.831 241.442 321.009C241.509 321.198 241.528 321.4 241.497 321.598C241.466 321.796 241.386 321.984 241.263 322.142C241.085 322.37 240.856 322.554 240.596 322.68C240.335 322.806 240.05 322.87 239.76 322.869ZM240.053 321.506H239.951H240.053Z" fill="#EBEBEB"/>
<path d="M258.334 292.295C258.427 292.172 258.553 292.078 258.697 292.024C258.841 291.97 258.998 291.958 259.149 291.989C259.249 292.016 259.336 292.08 259.391 292.168C259.403 292.182 259.41 292.2 259.41 292.219C259.41 292.238 259.403 292.256 259.391 292.27C259.391 292.27 259.289 292.27 259.276 292.27C259.257 292.238 259.231 292.21 259.2 292.188C259.169 292.166 259.135 292.15 259.098 292.142C258.998 292.111 258.892 292.111 258.792 292.142C258.69 292.179 258.602 292.246 258.537 292.333C258.519 292.371 258.51 292.412 258.51 292.454C258.51 292.496 258.519 292.538 258.537 292.575C258.554 292.613 258.578 292.646 258.609 292.672C258.64 292.699 258.676 292.718 258.716 292.728C258.804 292.747 258.895 292.747 258.983 292.728C258.983 292.728 259.072 292.728 259.085 292.728C259.083 292.753 259.073 292.775 259.057 292.794C259.041 292.812 259.02 292.825 258.996 292.83C258.871 292.862 258.739 292.862 258.614 292.83C258.554 292.825 258.496 292.806 258.445 292.772C258.395 292.739 258.354 292.694 258.326 292.64C258.298 292.587 258.284 292.527 258.285 292.467C258.287 292.406 258.303 292.347 258.334 292.295Z" fill="white"/>
<path d="M259.174 292.97L259.671 292.244C259.691 292.233 259.713 292.227 259.735 292.227C259.757 292.227 259.779 292.233 259.799 292.244V292.333L259.595 292.626L259.951 292.716L260.155 292.423C260.175 292.411 260.197 292.405 260.219 292.405C260.241 292.405 260.263 292.411 260.283 292.423V292.512L259.773 293.238C259.754 293.249 259.732 293.255 259.709 293.255C259.687 293.255 259.665 293.249 259.646 293.238V293.149L259.85 292.856L259.506 292.766L259.289 293.059C259.271 293.068 259.251 293.072 259.232 293.072C259.212 293.072 259.192 293.068 259.174 293.059C259.174 293.059 259.149 293.009 259.174 292.97Z" fill="white"/>
<path d="M260.627 293.187L260.295 293.11L260.117 293.251C260.084 293.263 260.048 293.263 260.015 293.251C260.003 293.237 259.996 293.218 259.996 293.2C259.996 293.181 260.003 293.163 260.015 293.149L260.818 292.499C260.851 292.488 260.886 292.488 260.92 292.499C260.92 292.499 260.92 292.499 260.92 292.563L260.716 293.365C260.716 293.365 260.716 293.442 260.614 293.442C260.614 293.442 260.614 293.442 260.614 293.378L260.627 293.187ZM260.627 293.047L260.703 292.754L260.41 292.983L260.627 293.047Z" fill="white"/>
<path d="M243.124 304.69L256.385 308.206L259.009 304.435L245.748 300.919L243.124 304.69Z" fill="#455A64"/>
<path d="M257.62 308.525L256.385 308.206L257.2 307.047L257.62 308.525Z" fill="#455A64"/>
<path d="M257.747 304.958L246.002 301.849L246.053 301.773L257.798 304.881L257.747 304.958Z" fill="white"/>
<path d="M255.034 304.703L245.735 302.231L245.786 302.168L255.085 304.626L255.034 304.703Z" fill="white"/>
<path d="M255.977 305.862L245.2 303.009L245.251 302.932L256.028 305.786L255.977 305.862Z" fill="white"/>
<path d="M256.677 306.499L244.932 303.391L244.97 303.314L256.716 306.435L256.677 306.499Z" fill="white"/>
<path d="M256.397 306.894L244.652 303.773L244.703 303.709L256.448 306.818L256.397 306.894Z" fill="white"/>
<path d="M252.881 306.41L244.384 304.168L244.435 304.091L252.932 306.346L252.881 306.41Z" fill="white"/>
<path d="M236.945 313.569L250.206 317.085L252.818 313.327L239.556 309.811L236.945 313.569Z" fill="#455A64"/>
<path d="M251.429 317.416L250.206 317.085L251.009 315.939L251.429 317.416Z" fill="#455A64"/>
<path d="M251.556 313.849L239.811 310.741L239.862 310.665L251.607 313.773L251.556 313.849Z" fill="white"/>
<path d="M248.856 313.582L239.543 311.123L239.594 311.047L248.907 313.518L248.856 313.582Z" fill="white"/>
<path d="M249.786 314.754L239.009 311.888L239.06 311.824L249.837 314.677L249.786 314.754Z" fill="white"/>
<path d="M250.486 315.391L238.741 312.283L238.792 312.206L250.537 315.314L250.486 315.391Z" fill="white"/>
<path d="M250.219 315.773L238.474 312.665L238.525 312.601L250.27 315.709L250.219 315.773Z" fill="white"/>
<path d="M246.69 315.302L238.206 313.06L238.257 312.983L246.741 315.225L246.69 315.302Z" fill="white"/>
<path d="M262.831 301.034L249.569 297.518L251.786 294.346L265.047 297.849L262.831 301.034Z" fill="#FF9933"/>
<path d="M248.346 297.187L249.569 297.518L250.372 296.359L248.346 297.187Z" fill="#FF9933"/>
<path d="M261.875 297.798L252.104 295.2L252.143 295.136L261.926 297.722L261.875 297.798Z" fill="white"/>
<path d="M263.569 298.703L251.824 295.582L251.875 295.518L263.62 298.626L263.569 298.703Z" fill="white"/>
<path d="M263.302 299.085L251.557 295.977L251.608 295.9L263.353 299.009L263.302 299.085Z" fill="white"/>
<path d="M262.104 299.225L251.289 296.359L251.34 296.282L262.155 299.149L262.104 299.225Z" fill="white"/>
<path d="M262.767 299.862L251.021 296.754L251.072 296.677L262.818 299.786L262.767 299.862Z" fill="white"/>
<path d="M259.429 299.429L250.754 297.136L250.805 297.059L259.48 299.365L259.429 299.429Z" fill="white"/>
<path d="M260.843 303.9L247.569 300.384L249.212 298.028L262.473 301.544L260.843 303.9Z" fill="#FF9933"/>
<path d="M246.346 300.053L247.569 300.384L248.384 299.225L246.346 300.053Z" fill="#FF9933"/>
<path d="M261.251 302.002L249.531 298.894L249.582 298.817L261.302 301.926L261.251 302.002Z" fill="white"/>
<path d="M258.907 301.837L249.264 299.276L249.315 299.212L258.958 301.76L258.907 301.837Z" fill="white"/>
<path d="M259.608 302.474L248.996 299.658L249.047 299.595L259.659 302.41L259.608 302.474Z" fill="white"/>
<path d="M256.92 302.219L248.729 300.053L248.779 299.977L256.971 302.142L256.92 302.219Z" fill="white"/>
<path d="M254.665 312.767L241.404 309.251L243.71 305.939L256.971 309.442L254.665 312.767Z" fill="#DBDBDB"/>
<path d="M240.168 308.932L241.404 309.251L242.206 308.091L240.168 308.932Z" fill="#DBDBDB"/>
<path d="M254.321 310.881L243.225 307.939L243.276 307.875L254.372 310.805L254.321 310.881Z" fill="white"/>
<path d="M253.149 311.034L242.958 308.333L243.008 308.257L253.2 310.958L253.149 311.034Z" fill="white"/>
<path d="M254.219 309.939L243.773 307.174L243.824 307.098L254.27 309.875L254.219 309.939Z" fill="white"/>
<path d="M255.633 309.862L244.041 306.792L244.091 306.716L255.684 309.786L255.633 309.862Z" fill="white"/>
<path d="M253.251 311.505L242.69 308.716L242.741 308.639L253.289 311.442L253.251 311.505Z" fill="white"/>
<path d="M248.83 321.162L235.569 317.646L237.492 314.881L250.754 318.397L248.83 321.162Z" fill="#FF9933"/>
<path d="M234.333 317.314L235.569 317.646L236.372 316.486L234.333 317.314Z" fill="#FF9933"/>
<path d="M249.569 318.83L237.824 315.722L237.875 315.646L249.62 318.754L249.569 318.83Z" fill="white"/>
<path d="M249.301 319.213L237.556 316.104L237.607 316.028L249.352 319.149L249.301 319.213Z" fill="white"/>
<path d="M248.104 319.353L237.289 316.486L237.327 316.423L248.155 319.289L248.104 319.353Z" fill="white"/>
<path d="M248.754 319.99L237.009 316.881L237.06 316.805L248.805 319.913L248.754 319.99Z" fill="white"/>
<path d="M245.429 319.556L236.741 317.263L236.792 317.187L245.48 319.493L245.429 319.556Z" fill="white"/>
<path d="M244.321 329.582C239.646 329.939 254.283 319.493 254.181 314.142C254.079 308.792 248.983 310.805 245.072 314.066C231.505 325.404 220.741 325.531 214.155 335.99C207.569 346.448 244.321 329.582 244.321 329.582Z" fill="#D3766A"/>
<path d="M187.696 380.818C194.83 378.474 201.875 375.939 208.83 373.175C215.793 370.472 222.546 367.257 229.034 363.557C232.255 361.685 235.341 359.591 238.27 357.289C241.251 355.034 244.104 352.627 246.843 350.104C252.367 345.051 257.058 339.157 260.741 332.639C259.111 336.032 257.179 339.272 254.971 342.321C252.709 345.337 250.222 348.177 247.531 350.818C244.832 353.449 241.978 355.917 238.983 358.206C236.035 360.566 232.928 362.72 229.684 364.652C226.416 366.525 223.052 368.225 219.607 369.748C216.21 371.302 212.733 372.737 209.174 374.054C205.645 375.328 202.104 376.601 198.524 377.722C194.945 378.844 191.352 379.926 187.696 380.818Z" fill="#263238"/>
<path d="M139.785 334.346C139.008 332.525 138.142 330.741 137.237 328.945C137.237 328.945 137.161 328.945 137.174 328.945C137.645 330.219 138.104 331.493 138.588 332.767L138.206 332.219L137.263 330.83C137.263 330.83 137.161 330.83 137.174 330.83C137.427 331.321 137.708 331.798 138.015 332.257L138.499 332.945L138.753 333.289L138.843 333.391C138.983 333.735 139.097 334.079 139.237 334.423C139.989 336.245 140.83 338.041 141.645 339.85C141.645 339.977 141.938 339.926 141.887 339.786C141.238 338.002 140.55 336.168 139.785 334.346Z" fill="#263238"/>
<path d="M156.384 326.002C155.212 324.41 154.129 322.741 153.021 321.098C153.021 321.098 153.021 321.021 153.021 321.098C153.875 322.155 154.741 323.213 155.569 324.27L155.301 323.658C155.072 323.149 154.83 322.639 154.588 322.142C154.588 322.142 154.588 322.041 154.664 322.079C154.945 322.55 155.212 323.021 155.454 323.531C155.582 323.786 155.696 324.041 155.798 324.295L155.951 324.69C155.956 324.737 155.956 324.784 155.951 324.83L156.639 325.697C157.811 327.276 158.932 328.92 160.066 330.537C160.142 330.652 159.976 330.83 159.887 330.729C158.766 329.162 157.543 327.595 156.384 326.002Z" fill="#263238"/>
</svg>
