<svg width="98" height="98" viewBox="0 0 98 98" fill="none" xmlns="http://www.w3.org/2000/svg">
<path d="M93.4062 27.5625H84.2188C83.8126 27.5625 83.4232 27.7238 83.136 28.011C82.8488 28.2982 82.6875 28.6876 82.6875 29.0938V87.2812C82.6875 87.6874 82.8488 88.0768 83.136 88.364C83.4232 88.6512 83.8126 88.8125 84.2188 88.8125H93.4062C93.8124 88.8125 94.2018 88.6512 94.489 88.364C94.7762 88.0768 94.9375 87.6874 94.9375 87.2812V29.0938C94.9375 28.6876 94.7762 28.2982 94.489 28.011C94.2018 27.7238 93.8124 27.5625 93.4062 27.5625ZM91.875 85.75H85.75V30.625H91.875V85.75Z" fill="#A6C5FF"/>
<path d="M78.0938 88.8125C78.4999 88.8125 78.8893 88.6512 79.1765 88.364C79.4637 88.0768 79.625 87.6874 79.625 87.2812V41.3438C79.625 40.9376 79.4637 40.5482 79.1765 40.261C78.8893 39.9738 78.4999 39.8125 78.0938 39.8125H68.9062C68.5001 39.8125 68.1107 39.9738 67.8235 40.261C67.5363 40.5482 67.375 40.9376 67.375 41.3438V87.2812C67.375 87.6874 67.5363 88.0768 67.8235 88.364C68.1107 88.6512 68.5001 88.8125 68.9062 88.8125H78.0938ZM70.4375 42.875H76.5625V85.75H70.4375V42.875Z" fill="#A6C5FF"/>
<path d="M62.7812 88.8125C63.1874 88.8125 63.5768 88.6512 63.864 88.364C64.1512 88.0768 64.3125 87.6874 64.3125 87.2812V52.0625C64.3125 51.6564 64.1512 51.2669 63.864 50.9797C63.5768 50.6926 63.1874 50.5312 62.7812 50.5312H53.5938C53.1876 50.5312 52.7982 50.6926 52.511 50.9797C52.2238 51.2669 52.0625 51.6564 52.0625 52.0625V87.2812C52.0625 87.6874 52.2238 88.0768 52.511 88.364C52.7982 88.6512 53.1876 88.8125 53.5938 88.8125H62.7812ZM55.125 53.5938H61.25V85.75H55.125V53.5938Z" fill="#A6C5FF"/>
<path d="M47.4688 88.8125C47.8749 88.8125 48.2643 88.6512 48.5515 88.364C48.8387 88.0768 49 87.6874 49 87.2812V64.3125C49 63.9064 48.8387 63.5169 48.5515 63.2297C48.2643 62.9426 47.8749 62.7812 47.4688 62.7812H38.2812C37.8751 62.7812 37.4857 62.9426 37.1985 63.2297C36.9113 63.5169 36.75 63.9064 36.75 64.3125V87.2812C36.75 87.6874 36.9113 88.0768 37.1985 88.364C37.4857 88.6512 37.8751 88.8125 38.2812 88.8125H47.4688ZM39.8125 65.8438H45.9375V85.75H39.8125V65.8438Z" fill="#A6C5FF"/>
<path d="M32.1562 88.8125C32.5624 88.8125 32.9518 88.6512 33.239 88.364C33.5262 88.0768 33.6875 87.6874 33.6875 87.2812V70.4375C33.6875 70.0314 33.5262 69.6419 33.239 69.3547C32.9518 69.0676 32.5624 68.9062 32.1562 68.9062H22.9688C22.5626 68.9062 22.1732 69.0676 21.886 69.3547C21.5988 69.6419 21.4375 70.0314 21.4375 70.4375V87.2812C21.4375 87.6874 21.5988 88.0768 21.886 88.364C22.1732 88.6512 22.5626 88.8125 22.9688 88.8125H32.1562ZM24.5 71.9688H30.625V85.75H24.5V71.9688Z" fill="#A6C5FF"/>
<path d="M16.8438 88.8125C17.2499 88.8125 17.6393 88.6512 17.9265 88.364C18.2137 88.0768 18.375 87.6874 18.375 87.2812V78.0938C18.375 77.6876 18.2137 77.2982 17.9265 77.011C17.6393 76.7238 17.2499 76.5625 16.8438 76.5625H7.65625C7.25014 76.5625 6.86066 76.7238 6.57349 77.011C6.28633 77.2982 6.125 77.6876 6.125 78.0938V87.2812C6.125 87.6874 6.28633 88.0768 6.57349 88.364C6.86066 88.6512 7.25014 88.8125 7.65625 88.8125H16.8438ZM9.1875 79.625H15.3125V85.75H9.1875V79.625Z" fill="#A6C5FF"/>
<path d="M41.3438 27.5625H44.4062C44.8124 27.5625 45.2018 27.4012 45.489 27.114C45.7762 26.8268 45.9375 26.4374 45.9375 26.0312C45.9375 25.6251 45.7762 25.2357 45.489 24.9485C45.2018 24.6613 44.8124 24.5 44.4062 24.5H42.875V22.9688C42.875 22.5626 42.7137 22.1732 42.4265 21.886C42.1393 21.5988 41.7499 21.4375 41.3438 21.4375C40.9376 21.4375 40.5482 21.5988 40.261 21.886C39.9738 22.1732 39.8125 22.5626 39.8125 22.9688V24.7634C38.7913 25.1249 37.9307 25.8357 37.3828 26.7703C36.8348 27.7048 36.6348 28.8029 36.818 29.8706C37.0012 30.9383 37.5559 31.9069 38.384 32.6054C39.2121 33.3038 40.2604 33.6871 41.3438 33.6875C41.7499 33.6875 42.1393 33.8488 42.4265 34.136C42.7137 34.4232 42.875 34.8126 42.875 35.2188C42.875 35.6249 42.7137 36.0143 42.4265 36.3015C42.1393 36.5887 41.7499 36.75 41.3438 36.75H38.2812C37.8751 36.75 37.4857 36.9113 37.1985 37.1985C36.9113 37.4857 36.75 37.8751 36.75 38.2812C36.75 38.6874 36.9113 39.0768 37.1985 39.364C37.4857 39.6512 37.8751 39.8125 38.2812 39.8125H39.8125V41.3438C39.8125 41.7499 39.9738 42.1393 40.261 42.4265C40.5482 42.7137 40.9376 42.875 41.3438 42.875C41.7499 42.875 42.1393 42.7137 42.4265 42.4265C42.7137 42.1393 42.875 41.7499 42.875 41.3438V39.5491C43.8962 39.1876 44.7568 38.4768 45.3047 37.5422C45.8527 36.6077 46.0527 35.5096 45.8695 34.4419C45.6863 33.3742 45.1316 32.4056 44.3035 31.7071C43.4754 31.0087 42.4271 30.6254 41.3438 30.625C40.9376 30.625 40.5482 30.4637 40.261 30.1765C39.9738 29.8893 39.8125 29.4999 39.8125 29.0938C39.8125 28.6876 39.9738 28.2982 40.261 28.011C40.5482 27.7238 40.9376 27.5625 41.3438 27.5625Z" fill="#A6C5FF"/>
<path d="M93.4063 9.1875H84.2188C83.8127 9.1875 83.4232 9.34883 83.136 9.63599C82.8489 9.92316 82.6875 10.3126 82.6875 10.7187C82.6875 11.1249 82.8489 11.5143 83.136 11.8015C83.4232 12.0887 83.8127 12.25 84.2188 12.25H89.7095L68.272 33.6875H59.6545C59.6964 33.1824 59.7188 32.6719 59.7188 32.1562C59.7187 28.6668 58.725 25.2496 56.8539 22.3042C54.9829 19.3588 52.3119 17.0071 49.1533 15.5241C45.9947 14.041 42.4791 13.488 39.0178 13.9297C35.5564 14.3714 32.2924 15.7896 29.6075 18.0183C26.9226 20.247 24.9278 23.1942 23.8564 26.5151C22.785 29.8359 22.6813 33.3932 23.5575 36.7708C24.4337 40.1485 26.2535 43.2068 28.8041 45.5881C31.3547 47.9694 34.5306 49.5752 37.9603 50.2177L31.5222 56.6562H19.9063C19.7052 56.6562 19.5061 56.6958 19.3203 56.7728C19.1345 56.8497 18.9657 56.9625 18.8235 57.1047L3.511 72.4172C3.22383 72.7044 3.0625 73.0939 3.0625 73.5C3.0625 73.9061 3.22383 74.2956 3.511 74.5828C3.79818 74.87 4.18767 75.0313 4.59379 75.0313C4.99991 75.0313 5.3894 74.87 5.67657 74.5828L20.5404 59.7187H32.1563C32.3574 59.7188 32.5565 59.6792 32.7423 59.6022C32.9281 59.5253 33.0969 59.4125 33.2391 59.2703L41.9907 50.5186C45.9498 50.3738 49.7565 48.9559 52.8455 46.4755C55.9346 43.995 58.1411 40.5843 59.1375 36.75H68.9063C69.1074 36.75 69.3065 36.7104 69.4923 36.6335C69.6781 36.5565 69.8469 36.4437 69.9891 36.3015L91.875 14.4156V19.9062C91.875 20.3124 92.0364 20.7018 92.3235 20.989C92.6107 21.2762 93.0002 21.4375 93.4063 21.4375C93.8124 21.4375 94.2019 21.2762 94.4891 20.989C94.7762 20.7018 94.9375 20.3124 94.9375 19.9062V10.7187C94.9375 10.3126 94.7762 9.92316 94.4891 9.63599C94.2019 9.34883 93.8124 9.1875 93.4063 9.1875ZM41.3438 47.4687C38.3153 47.4687 35.3548 46.5707 32.8366 44.8881C30.3185 43.2056 28.3559 40.8141 27.1969 38.0161C26.0379 35.2181 25.7347 32.1393 26.3255 29.1689C26.9164 26.1986 28.3747 23.4702 30.5162 21.3287C32.6577 19.1872 35.3861 17.7288 38.3565 17.138C41.3268 16.5471 44.4056 16.8504 47.2036 18.0093C50.0016 19.1683 52.3931 21.131 54.0757 23.6491C55.7582 26.1672 56.6563 29.1277 56.6563 32.1562C56.6517 36.216 55.0369 40.1081 52.1663 42.9787C49.2956 45.8494 45.4035 47.4641 41.3438 47.4687Z" fill="#A6C5FF"/>
</svg>
