<svg width="24" height="23" viewBox="0 0 24 23" fill="none" xmlns="http://www.w3.org/2000/svg">
<g clip-path="url(#clip0)">
<path d="M6.61469 21.207C7.04393 22.1775 8.01535 22.8566 9.14293 22.8566C10.2705 22.8566 11.2419 22.1775 11.6712 21.207H6.61469Z" fill="#59597A"/>
<path d="M9.14269 6.31831C9.88678 6.31831 10.6012 6.4496 11.2643 6.68996V6.60829C11.2643 5.48508 10.3505 4.57129 9.2273 4.57129H9.05848C7.93528 4.57129 7.02148 5.48508 7.02148 6.60829V6.68892C7.68415 6.44928 8.3984 6.31831 9.14269 6.31831Z" fill="#59597A"/>
<path d="M15.8386 20.1343H2.44726C2.19392 20.1343 1.96186 19.9635 1.90916 19.7156C1.857 19.4703 1.96883 19.2281 2.19571 19.1233C2.24954 19.0884 2.65478 18.805 3.06049 17.9477C3.80561 16.3733 3.96201 14.1555 3.96201 12.5723C3.96201 9.71561 6.28609 7.3916 9.14273 7.3916C11.9926 7.3916 14.3124 9.70442 14.3234 12.5517C14.3237 12.5586 14.3238 12.5654 14.3238 12.5723C14.3238 14.1555 14.4802 16.3733 15.2253 17.9477C15.631 18.805 16.0362 19.0884 16.0901 19.1233C16.317 19.2281 16.4289 19.4702 16.3767 19.7156C16.324 19.9634 16.0919 20.1343 15.8386 20.1343ZM16.0961 19.1271H16.0965H16.0961Z" fill="#59597A"/>
</g>
<circle cx="21.1429" cy="2.85714" r="2.85714" fill="#59597A"/>
<defs>
<clipPath id="clip0">
<rect width="18.2857" height="18.2857" fill="white" transform="translate(0 4.57129)"/>
</clipPath>
</defs>
</svg>
