<svg width="111" height="111" viewBox="0 0 111 111" fill="none" xmlns="http://www.w3.org/2000/svg">
<g clip-path="url(#clip0)">
<path d="M20.0122 14.7921C20.0122 11.7849 17.5665 9.33911 14.5593 9.33911C11.5521 9.33911 9.10547 11.7849 9.10547 14.7921C9.10547 17.7993 11.5521 20.2459 14.5584 20.2459C17.5656 20.2459 20.0122 17.7993 20.0122 14.7921ZM14.5593 16.9939C13.3449 16.9939 12.3574 16.0056 12.3574 14.7921C12.3574 13.5785 13.3449 12.5911 14.5584 12.5911C15.7728 12.5911 16.7603 13.5785 16.7603 14.7921C16.7603 16.0056 15.7728 16.9939 14.5593 16.9939Z" fill="white"/>
<path d="M27.5146 20.2459C30.5218 20.2459 32.9684 17.7993 32.9684 14.7921C32.9684 11.7849 30.5218 9.33911 27.5146 9.33911C24.5082 9.33911 22.0616 11.7849 22.0616 14.7921C22.0616 17.7993 24.5074 20.2459 27.5146 20.2459ZM27.5146 12.5911C28.729 12.5911 29.7164 13.5785 29.7164 14.7921C29.7164 16.0056 28.729 16.9939 27.5146 16.9939C26.301 16.9939 25.3136 16.0056 25.3136 14.7921C25.3136 13.5785 26.301 12.5911 27.5146 12.5911Z" fill="white"/>
<path d="M40.4707 20.2459C43.4771 20.2459 45.9237 17.7993 45.9237 14.7921C45.9237 11.7849 43.4771 9.33911 40.4707 9.33911C37.4635 9.33911 35.0169 11.7849 35.0169 14.7921C35.0169 17.7993 37.4635 20.2459 40.4707 20.2459ZM40.4707 12.5911C41.6843 12.5911 42.6717 13.5785 42.6717 14.7921C42.6717 16.0056 41.6843 16.9939 40.4707 16.9939C39.2563 16.9939 38.2689 16.0056 38.2689 14.7921C38.2689 13.5785 39.2563 12.5911 40.4707 12.5911Z" fill="white"/>
<path d="M58.4632 16.4182H98.0642C98.9627 16.4182 99.6902 15.6908 99.6902 14.7922C99.6902 13.8946 98.9627 13.1663 98.0642 13.1663H58.4632C57.5647 13.1663 56.8372 13.8946 56.8372 14.7922C56.8372 15.6908 57.5647 16.4182 58.4632 16.4182Z" fill="white"/>
<path d="M104.211 3.46875H6.7893C3.03431 3.46875 0 6.52592 0 10.258V100.717C0 104.461 3.04617 107.506 6.7893 107.506H104.211C107.955 107.506 111 104.46 111 100.717V10.258C111 6.51407 107.954 3.46875 104.211 3.46875V3.46875ZM104.211 104.254H6.7893C4.83897 104.254 3.25195 102.667 3.25195 100.717V26.1164H12.3159C13.2144 26.1164 13.9419 25.3881 13.9419 24.4904C13.9419 23.5919 13.2144 22.8644 12.3159 22.8644H3.25195V10.258C3.25195 8.30772 4.83897 6.7207 6.7893 6.7207H104.211C106.161 6.7207 107.748 8.30772 107.748 10.258V22.8644H18.3862C17.4886 22.8644 16.7603 23.5919 16.7603 24.4904C16.7603 25.3881 17.4886 26.1164 18.3862 26.1164H107.748V100.717C107.748 102.667 106.161 104.254 104.211 104.254Z" fill="white"/>
<path d="M39.1649 35.3499C37.1307 32.9676 33.4494 32.971 31.4186 35.3499L16.5358 52.7783C15.1792 54.3679 14.9276 56.5917 15.8956 58.4447L21.1318 68.4664C19.4363 69.3251 18.2719 71.0849 18.2719 73.1115V74.3589C18.2719 77.2281 20.6067 79.562 23.475 79.562H23.514V90.1444C23.514 94.2144 26.8244 97.5257 30.8944 97.5257H39.6882C43.7582 97.5257 47.0695 94.2144 47.0695 90.1444V88.9309C47.0695 88.0332 46.3412 87.3049 45.4435 87.3049C44.545 87.3049 43.8175 88.0332 43.8175 88.9309V90.1444C43.8175 92.4216 41.9654 94.2737 39.6882 94.2737H30.8944C28.618 94.2737 26.7659 92.4216 26.7659 90.1444V79.562H43.8175V83.3577C43.8175 84.2562 44.5458 84.9836 45.4435 84.9836C46.3412 84.9836 47.0695 84.2562 47.0695 83.3577V79.562H47.1076C49.9768 79.562 52.3107 77.2281 52.3107 74.3589V73.1115C52.3107 71.0849 51.1463 69.3251 49.4509 68.4664L54.6879 58.4438C55.6558 56.5917 55.4043 54.3679 54.0468 52.7783L39.1649 35.3499ZM34.9932 52.1321C35.0898 52.1508 35.1897 52.1601 35.2913 52.1601C35.3938 52.1601 35.4937 52.1508 35.5902 52.1321C36.9706 52.282 38.0487 53.4541 38.0487 54.8734C38.0487 56.3935 36.8114 57.63 35.2913 57.63C33.772 57.63 32.5348 56.3935 32.5348 54.8734C32.5348 53.4541 33.6128 52.282 34.9932 52.1321ZM49.0596 74.3581C49.0596 75.4344 48.1839 76.3101 47.1076 76.3101H23.4759C22.3995 76.3101 21.5239 75.4344 21.5239 74.3581V73.1115C21.5239 72.0351 22.3995 71.1603 23.4759 71.1603H47.1076C48.1839 71.1603 49.0596 72.0351 49.0596 73.1115V74.3581ZM51.806 56.9381L46.0736 67.9083H24.5099L18.7775 56.9381C18.4277 56.2691 18.5192 55.4645 19.0095 54.8904L33.6653 37.7261V49.0877C31.14 49.7982 29.2828 52.1228 29.2828 54.8734C29.2828 58.1864 31.9784 60.8819 35.2913 60.8819C38.6051 60.8819 41.3006 58.1864 41.3006 54.8734C41.3006 52.1228 39.4435 49.7982 36.9173 49.0877V37.7261L51.5739 54.8904C52.0643 55.4645 52.1557 56.2691 51.806 56.9381Z" fill="white"/>
<path d="M81.1396 35.3024C79.705 33.9779 77.4575 33.9787 76.0237 35.3024C70.5919 40.3167 61.4789 49.8066 61.4789 57.0253C61.4789 61.0885 62.9465 64.9993 65.5235 68.0582C63.2522 68.6163 61.5618 70.6699 61.5618 73.1114V74.358C61.5618 77.2272 63.8958 79.562 66.7658 79.562H66.8039V90.1444C66.8039 94.2135 70.1143 97.5248 74.1843 97.5248H82.9782C87.0482 97.5248 90.3594 94.2144 90.3594 90.1444V88.9308C90.3594 88.0323 89.632 87.3048 88.7334 87.3048C87.8349 87.3048 87.1075 88.0323 87.1075 88.9308V90.1444C87.1075 92.4207 85.2554 94.2728 82.9782 94.2728H74.1843C71.908 94.2728 70.0559 92.4207 70.0559 90.1444V79.562H87.1075V83.3576C87.1075 84.2553 87.8349 84.9836 88.7334 84.9836C89.632 84.9836 90.3594 84.2553 90.3594 83.3576V79.562H90.3975C93.2667 79.562 95.6015 77.2272 95.6015 74.358V73.1114C95.6015 70.6699 93.9112 68.6163 91.6399 68.0582C94.2169 64.9993 95.6836 61.0885 95.6836 57.0253C95.6836 49.8066 86.5714 40.3167 81.1396 35.3024ZM78.2298 37.6922C78.4305 37.5068 78.7328 37.5068 78.9335 37.6922C85.4586 43.716 92.4317 51.9576 92.4317 57.0253C92.4317 61.2596 90.4644 65.2898 87.1439 67.9074H70.0195C66.6989 65.2898 64.7308 61.2596 64.7308 57.0253C64.7308 51.9576 71.7039 43.716 78.2298 37.6922ZM92.3495 73.1114V74.358C92.3495 75.4344 91.4739 76.31 90.3975 76.31H66.7658C65.6895 76.31 64.8138 75.4344 64.8138 74.358V73.1114C64.8138 72.0351 65.6895 71.1602 66.7658 71.1602H90.3975C91.4739 71.1602 92.3495 72.0351 92.3495 73.1114Z" fill="white"/>
</g>
<defs>
<clipPath id="clip0">
<rect width="111" height="111" fill="white"/>
</clipPath>
</defs>
</svg>
