<svg width="51" height="50" viewBox="0 0 51 50" fill="none" xmlns="http://www.w3.org/2000/svg">
<g clip-path="url(#clip0)">
<path d="M5.70075 29.1668H21.5341C22.4853 29.1328 23.2303 28.3364 23.2008 27.3849V10.1893C23.2268 9.33397 22.6265 8.5869 21.7855 8.42831L5.953 5.85419C5.48982 5.77997 5.01745 5.91395 4.66228 6.2204C4.25808 6.5705 4.02839 7.08055 4.03405 7.61522V27.3849C4.00447 28.3364 4.74948 29.1329 5.70075 29.1668ZM5.70075 7.61532C5.70075 7.55223 5.72195 7.51356 5.70564 7.50262L21.4926 10.064C21.5222 10.0988 21.5371 10.1437 21.5341 10.1893V23.6418L16.3233 17.7797C16.1709 17.6082 15.9544 17.5072 15.7251 17.5006C15.4958 17.4939 15.2738 17.582 15.1116 17.7443L12.6303 20.2252L10.4948 17.7846C10.3377 17.6054 10.1114 17.5018 9.87302 17.5002C9.63718 17.5091 9.41355 17.6078 9.24802 17.7761L5.70075 21.7174V7.61532ZM5.70075 24.2085L9.85847 19.5888L15.0733 25.549C15.3767 25.8944 15.9025 25.929 16.2486 25.6263C16.5946 25.3235 16.6302 24.7978 16.3282 24.4512L13.7302 21.482L15.6649 19.5476L21.5341 26.1502V27.385C21.5358 27.4258 21.5248 27.4661 21.5023 27.5002L5.74226 27.5107C5.71238 27.476 5.69743 27.4307 5.70075 27.385V24.2085Z" fill="#000285"/>
<path d="M46.4168 8.34199L28.9168 10.842C28.484 10.9037 28.1725 11.2894 28.2033 11.7256C28.2341 12.1617 28.5968 12.4999 29.034 12.5001C29.0738 12.5001 29.1135 12.4972 29.1529 12.4916L46.6529 9.9916C46.9481 9.95 47.1985 9.7539 47.3097 9.47734C47.4209 9.20078 47.3758 8.88584 47.1916 8.65156C47.0073 8.41718 46.7119 8.29921 46.4168 8.34199Z" fill="#000285"/>
<path d="M29.0333 17.5002C29.0594 17.5002 29.0863 17.499 29.1131 17.4966L46.6131 15.8299C47.0704 15.7852 47.4052 15.3788 47.3617 14.9215C47.3181 14.4642 46.9127 14.1282 46.4552 14.1705L28.9552 15.8372C28.5126 15.8796 28.1813 16.2618 28.2021 16.706C28.223 17.15 28.5887 17.4995 29.0333 17.5002Z" fill="#000285"/>
<path d="M46.5345 20.8335H29.0345C28.5742 20.8335 28.2012 21.2066 28.2012 21.6668C28.2012 22.1271 28.5742 22.5001 29.0345 22.5001H46.5345C46.9947 22.5001 47.3678 22.1271 47.3678 21.6668C47.3678 21.2066 46.9947 20.8335 46.5345 20.8335Z" fill="#000285"/>
<path d="M46.5345 25.8336H29.0345C28.5742 25.8336 28.2012 26.2067 28.2012 26.6669C28.2012 27.1271 28.5742 27.5002 29.0345 27.5002H46.5345C46.9947 27.5002 47.3678 27.127 47.3678 26.6669C47.3679 26.2066 46.9947 25.8336 46.5345 25.8336Z" fill="#000285"/>
<path d="M49.8361 0.613853C49.2936 0.140025 48.572 -0.0748186 47.8586 0.0250837L25.7012 3.11249L3.54375 0.0250837C2.83037 -0.0755999 2.1084 0.139342 1.56621 0.613853C1.01582 1.09344 0.700295 1.78807 0.701174 2.51815V47.4832C0.700295 48.2133 1.01582 48.9079 1.56621 49.3875C2.01934 49.7823 2.6001 50 3.20117 50.0003C3.31582 50.0004 3.43028 49.9924 3.54375 49.9763L25.7012 46.8888L47.8586 49.9763C47.9721 49.9924 48.0866 50.0004 48.2012 50.0002C48.8022 49.9999 49.3829 49.7822 49.8361 49.3874C50.3865 48.9078 50.7021 48.2132 50.7012 47.4831V2.51815C50.702 1.78807 50.3865 1.09344 49.8361 0.613853ZM3.31426 48.3259C3.07822 48.3603 2.83906 48.2887 2.66074 48.1302C2.47276 47.9681 2.36563 47.7314 2.36778 47.4832V35.8974L14.9947 35.2899C17.1945 35.1788 19.2661 36.3283 20.3357 38.2538L24.373 45.3915L3.31426 48.3259ZM24.8679 42.8821L21.786 37.4335C20.4014 34.9656 17.7417 33.4913 14.9151 33.6249L2.36797 34.2287V2.51815C2.36582 2.26991 2.47295 2.03329 2.66094 1.87118C2.80908 1.73993 3.0001 1.66737 3.19805 1.66727C3.23701 1.66737 3.27588 1.6701 3.31446 1.67538L24.868 4.6787V42.8821H24.8679ZM49.0345 47.4831C49.0366 47.7313 48.9295 47.968 48.7415 48.1301C48.5636 48.2891 48.3241 48.3608 48.088 48.3258L27.0293 45.3914L31.0665 38.2537C32.1375 36.3296 34.2081 35.1806 36.4075 35.2898L49.0345 35.8974V47.4831ZM49.0345 34.2286L36.4873 33.6249C33.6599 33.4879 30.9985 34.9631 29.6164 37.4335L26.5346 42.8821V4.67879L48.0881 1.67547C48.324 1.64227 48.5627 1.71376 48.7416 1.87118C48.9296 2.03329 49.0367 2.26991 49.0346 2.51815V34.2286H49.0345Z" fill="#000285"/>
<path d="M17.3682 16.6668C18.7488 16.6668 19.8682 15.5475 19.8682 14.1668C19.8682 12.7861 18.7489 11.6668 17.3682 11.6668C15.9874 11.6668 14.8682 12.786 14.8682 14.1668C14.8696 15.5469 15.9881 16.6653 17.3682 16.6668ZM17.3682 13.3335C17.8284 13.3335 18.2015 13.7066 18.2015 14.1668C18.2015 14.6271 17.8284 15.0001 17.3682 15.0001C16.9079 15.0001 16.5349 14.627 16.5349 14.1668C16.5353 13.7068 16.9081 13.334 17.3682 13.3335Z" fill="#000285"/>
</g>
<defs>
<clipPath id="clip0">
<rect width="50" height="50" fill="white" transform="translate(0.701172)"/>
</clipPath>
</defs>
</svg>
