<svg width="45" height="45" viewBox="0 0 45 45" fill="none" xmlns="http://www.w3.org/2000/svg">
<g clip-path="url(#clip0)">
<path d="M23.055 28.9585C23.5917 29.6714 24.605 29.8143 25.318 29.2771C26.0309 28.7402 26.1737 27.7272 25.6366 27.0142L21.5423 21.577C20.8649 20.6775 19.8331 20.1629 18.7084 20.1629C18.7009 20.1629 18.6934 20.1629 18.6858 20.1629C17.5521 20.1698 16.5173 20.6981 15.8461 21.6125L11.8561 27.0513C11.3282 27.7709 11.4836 28.7822 12.203 29.3101C12.491 29.5212 12.8259 29.6232 13.1577 29.6232C13.6547 29.6232 14.1453 29.3946 14.4618 28.963L17.0977 25.3701L17.1089 37.5241C17.1098 38.4161 17.833 39.1385 18.7248 39.1385H18.7263C19.6189 39.1377 20.3416 38.4135 20.3407 37.5211L20.3295 25.339L23.055 28.9585Z" fill="#9999BA"/>
<path d="M34.8814 14.3643H28.6556C28.3033 12.2716 27.3223 10.3468 25.8133 8.82866C23.911 6.9152 21.3783 5.8614 18.6817 5.8614C13.6151 5.8614 9.40355 9.61033 8.67445 14.482C6.51558 14.8088 4.52693 15.8014 2.96768 17.3516C1.05401 19.2539 0 21.7866 0 24.4832C0 30.0579 4.53857 34.5973 10.1191 34.6021H14.0119C14.9046 34.6021 15.6278 33.8786 15.6278 32.9862C15.6278 32.0937 14.9046 31.3702 14.0119 31.3702H10.1206C6.32211 31.367 3.23183 28.2774 3.23183 24.4832C3.23183 20.6839 6.26242 17.6606 10.1331 17.5962H10.1813C11.072 17.5947 11.7934 16.8725 11.7942 15.9818C11.7977 12.1835 14.8871 9.09324 18.6815 9.09324C22.4841 9.09324 25.5093 12.1292 25.5687 16.005C25.5823 16.8878 26.3015 17.5962 27.1844 17.5962H34.8814C38.679 17.5962 41.7684 20.6856 41.7684 24.4832C41.7684 28.2808 38.6788 31.3702 34.8814 31.3702H23.2759C22.3832 31.3702 21.6599 32.0937 21.6599 32.9862C21.6599 33.8786 22.3834 34.6021 23.2759 34.6021H34.8814C40.4608 34.6021 45.0002 30.0629 45.0002 24.4832C45.0002 18.9036 40.4608 14.3643 34.8814 14.3643Z" fill="#9999BA"/>
</g>
<defs>
<clipPath id="clip0">
<rect width="45" height="45" fill="white"/>
</clipPath>
</defs>
</svg>
