<svg width="106" height="110" viewBox="0 0 106 110" fill="none" xmlns="http://www.w3.org/2000/svg">
<path d="M88.8263 57.8179V49.5131C94.8849 49.35 99.7642 44.3674 99.7642 38.2617V31.3047C101.698 31.2941 103.268 29.718 103.268 27.7808V19.4255C103.268 17.4818 101.688 15.9008 99.7451 15.9008H96.4124V2.14844C96.4124 0.96207 95.4503 0 94.264 0C93.0776 0 92.1155 0.96207 92.1155 2.14844V15.9008H81.2404V2.14844C81.2404 0.96207 80.2783 0 79.0919 0C77.9055 0 76.9435 0.96207 76.9435 2.14844V15.9008H73.6168C71.6706 15.9008 70.0874 17.4818 70.0874 19.4255V27.781C70.0874 29.7161 71.657 31.2907 73.5917 31.3045V38.2617C73.5917 44.3676 78.471 49.3503 84.5296 49.5131V57.8179C75.0275 58.8897 67.6175 66.9816 67.6175 76.7744C67.6175 86.5704 75.0275 94.6647 84.5296 95.737V97.4314C84.5296 101.992 80.824 105.703 76.2693 105.703H37.907C33.3523 105.703 29.6467 101.992 29.6467 97.4314V91.3524H48.8572C52.1047 91.3524 54.7471 88.7083 54.7471 85.4586V60.0877C54.7471 58.9013 53.785 57.9393 52.5987 57.9393C51.4123 57.9393 50.4502 58.9013 50.4502 60.0877V85.4586C50.4502 86.3242 49.7208 87.0555 48.8574 87.0555H6.14559C5.28213 87.0555 4.55273 86.3244 4.55273 85.4586V15.4185C4.55273 14.5529 5.28213 13.8215 6.14559 13.8215H12.3507H42.646H48.8572C49.7206 13.8215 50.45 14.5527 50.45 15.4185V40.7952C50.45 41.9815 51.4119 42.9436 52.5985 42.9436C53.785 42.9436 54.7469 41.9815 54.7469 40.7952V15.4185C54.7469 12.1687 52.1047 9.52467 48.857 9.52467H44.7943V6.91066C44.7945 3.1002 41.6966 0 37.8888 0H17.1078C13.3001 0 10.2023 3.1002 10.2023 6.91066V9.52467H6.14559C2.89801 9.52467 0.255859 12.1687 0.255859 15.4185V85.459C0.255859 88.7088 2.89801 91.3529 6.14559 91.3529H25.3498V97.4316C25.3498 104.362 30.983 110 37.907 110H76.2691C83.1933 110 88.8263 104.362 88.8263 97.4316V95.7372C98.3318 94.6653 105.744 86.5706 105.744 76.7744C105.744 66.9814 98.3318 58.8895 88.8263 57.8179ZM14.4991 6.91066C14.4991 5.46949 15.6694 4.29688 17.1078 4.29688H37.8888C39.3273 4.29688 40.4976 5.46949 40.4976 6.91066V9.52467H14.4991V6.91066ZM74.384 20.1977H98.9712V27.0089H74.384V20.1977ZM77.8884 38.2617V31.3057H95.4673V38.2617C95.4673 42.1008 92.3512 45.224 88.521 45.224H84.8345C81.0044 45.224 77.8884 42.1008 77.8884 38.2617ZM86.6778 91.5623C78.5372 91.5623 71.9142 84.9286 71.9142 76.7746C71.9142 68.6239 78.5372 61.993 86.6778 61.993C94.8217 61.993 101.447 68.6239 101.447 76.7746C101.447 84.9286 94.8217 91.5623 86.6778 91.5623Z" fill="#000285"/>
<path d="M90.2244 74.6262H86.5992L89.465 68.8645C89.9935 67.8023 89.5606 66.5126 88.4982 65.9843C87.4358 65.4556 86.1461 65.8887 85.618 66.9511L81.2077 75.8179C80.5111 77.2213 81.5684 78.923 83.1357 78.923H86.7594L83.8956 84.6924C83.3679 85.7553 83.8017 87.0446 84.8647 87.572C85.1718 87.7243 85.4975 87.7965 85.8182 87.7965C86.6086 87.7965 87.3692 87.3589 87.7443 86.6028L92.1488 77.7298C92.1888 77.6492 92.2225 77.5644 92.2521 77.4795C92.7278 76.1107 91.6781 74.6262 90.2244 74.6262Z" fill="#000285"/>
<path d="M11.4199 18.55C10.2333 18.55 9.27148 19.5121 9.27148 20.6985V80.1788C9.27148 81.3652 10.2333 82.3273 11.4199 82.3273H43.5829C44.7695 82.3273 45.7313 81.3652 45.7313 80.1788V20.6985C45.7313 19.5121 44.7695 18.55 43.5829 18.55H11.4199ZM41.4345 78.0304H13.5684V67.7235H41.4345V78.0304ZM41.4345 63.4268H13.5684V53.8506H41.4345V63.4268ZM41.4345 49.5537H13.5684V38.711H41.4345V49.5537ZM41.4345 34.4143H13.5684V22.8469H41.4345V34.4143Z" fill="#000285"/>
<path d="M52.5986 48.2932C51.4121 48.2932 50.4502 49.2553 50.4502 50.4417V50.4477C50.4502 51.634 51.4121 52.5931 52.5986 52.5931C53.7852 52.5931 54.7471 51.628 54.7471 50.4414C54.7471 49.2549 53.7852 48.2932 52.5986 48.2932Z" fill="#000285"/>
</svg>
