<svg width="16" height="16" viewBox="0 0 16 16" fill="none" xmlns="http://www.w3.org/2000/svg">
<path d="M10.4322 13.7139H8.14652C8.06314 13.7139 7.99475 13.7406 7.94115 13.7943C7.8877 13.8478 7.86084 13.9163 7.86084 13.9996V15.7138C7.86084 15.7974 7.88758 15.8656 7.94115 15.9193C7.99478 15.9728 8.06314 15.9996 8.14652 15.9996H10.4322C10.5155 15.9996 10.584 15.9728 10.6374 15.9193C10.6911 15.8656 10.7175 15.7974 10.7175 15.7138V13.9996C10.7175 13.9163 10.6911 13.8478 10.6374 13.7943C10.584 13.7406 10.5155 13.7139 10.4322 13.7139Z" fill="#000285"/>
<path d="M6.14638 12.5714H4.4321V0.285708C4.4321 0.202429 4.40539 0.133848 4.35179 0.0803398C4.29819 0.0268633 4.2298 0 4.14639 0H2.43208C2.3488 0 2.28022 0.0267382 2.22671 0.0803085C2.17327 0.133941 2.1464 0.202429 2.1464 0.285677V12.5713H0.432092C0.301247 12.5713 0.211931 12.6308 0.164272 12.7499C0.116581 12.8631 0.137534 12.9672 0.226723 13.0625L3.08384 15.9197C3.14932 15.9731 3.21772 15.9998 3.2892 15.9998C3.36657 15.9998 3.43509 15.9731 3.49457 15.9197L6.34277 13.0714C6.40238 13.0002 6.43209 12.9285 6.43209 12.8574C6.43209 12.7737 6.40522 12.7054 6.35178 12.6515C6.29821 12.5981 6.22982 12.5714 6.14638 12.5714Z" fill="#000285"/>
<path d="M12.1464 9.14355H8.14639C8.06302 9.14355 7.99463 9.17029 7.94103 9.2238C7.88755 9.27731 7.86072 9.3458 7.86072 9.42904V11.1435C7.86072 11.2268 7.88746 11.2953 7.94103 11.3488C7.99463 11.4023 8.06302 11.429 8.14639 11.429H12.1464C12.2298 11.429 12.2982 11.4023 12.3516 11.3488C12.4053 11.2952 12.4321 11.2268 12.4321 11.1435V9.42904C12.4321 9.3458 12.4053 9.27728 12.3516 9.2238C12.2982 9.17032 12.2298 9.14355 12.1464 9.14355Z" fill="#000285"/>
<path d="M15.7804 0.0803085C15.7268 0.0268633 15.6584 0 15.575 0H8.14652C8.06314 0 7.99475 0.0267382 7.94115 0.0803085C7.8877 0.133941 7.86084 0.202429 7.86084 0.285677V1.99999C7.86084 2.08336 7.88758 2.15176 7.94115 2.20536C7.99478 2.2588 8.06314 2.28567 8.14652 2.28567H15.575C15.6584 2.28567 15.7268 2.25893 15.7804 2.20536C15.8339 2.15176 15.8606 2.08336 15.8606 1.99999V0.285708C15.8608 0.202429 15.8339 0.133816 15.7804 0.0803085Z" fill="#000285"/>
<path d="M13.8607 4.57129H8.14639C8.06302 4.57129 7.99463 4.59803 7.94103 4.65166C7.88755 4.70523 7.86072 4.77362 7.86072 4.85703V6.57128C7.86072 6.65468 7.88746 6.72308 7.94103 6.77665C7.99463 6.83015 8.06302 6.85702 8.14639 6.85702H13.8607C13.944 6.85702 14.0125 6.83028 14.0662 6.77665C14.1196 6.72308 14.1464 6.65468 14.1464 6.57128V4.85703C14.1464 4.77362 14.1196 4.70511 14.0662 4.65166C14.0124 4.59815 13.9439 4.57129 13.8607 4.57129Z" fill="#000285"/>
</svg>
