<svg width="50" height="50" viewBox="0 0 50 50" fill="none" xmlns="http://www.w3.org/2000/svg">
<g clip-path="url(#clip0)">
<path d="M23.787 35.6913H10.9424C10.5459 35.6913 10.2246 36.0191 10.2246 36.4237C10.2246 36.8283 10.5459 37.1562 10.9424 37.1562H23.787C24.1835 37.1562 24.5048 36.8283 24.5048 36.4237C24.5048 36.0191 24.1835 35.6913 23.787 35.6913Z" fill="#000285"/>
<path d="M23.787 39.7595H10.9424C10.5459 39.7595 10.2246 40.0873 10.2246 40.4919C10.2246 40.8965 10.5459 41.2243 10.9424 41.2243H23.787C24.1835 41.2243 24.5048 40.8965 24.5048 40.4919C24.5048 40.0873 24.1835 39.7595 23.787 39.7595Z" fill="#000285"/>
<path d="M23.787 43.8277H10.9424C10.5459 43.8277 10.2246 44.1556 10.2246 44.5602C10.2246 44.9647 10.5459 45.2926 10.9424 45.2926H23.787C24.1835 45.2926 24.5048 44.9647 24.5048 44.5602C24.5048 44.1556 24.1835 43.8277 23.787 43.8277Z" fill="#000285"/>
<path d="M43.2766 4.97074C43.2766 4.11097 42.5911 3.41156 41.7487 3.41156H36.1198C35.2772 3.41156 34.5918 4.11097 34.5918 4.97074V10.7145C34.5918 11.5742 35.2772 12.2736 36.1198 12.2736H41.7487C42.5911 12.2736 43.2766 11.5742 43.2766 10.7145V4.97074ZM41.841 10.7146C41.841 10.7665 41.7996 10.8088 41.7487 10.8088H36.1198C36.0689 10.8088 36.0273 10.7665 36.0273 10.7146V4.97074C36.0273 4.91879 36.0689 4.8764 36.1198 4.8764H41.7487C41.7996 4.8764 41.841 4.91879 41.841 4.97074V10.7146Z" fill="#000285"/>
<path d="M42.5582 16.0441H34.7217C34.3252 16.0441 34.0039 16.372 34.0039 16.7766C34.0039 17.1811 34.3252 17.509 34.7217 17.509H42.5582C42.9547 17.509 43.276 17.1811 43.276 16.7766C43.276 16.372 42.9546 16.0441 42.5582 16.0441Z" fill="#000285"/>
<path d="M42.5582 20.3448H34.7217C34.3252 20.3448 34.0039 20.6726 34.0039 21.0772C34.0039 21.4818 34.3252 21.8096 34.7217 21.8096H42.5582C42.9547 21.8096 43.276 21.4818 43.276 21.0772C43.276 20.6726 42.9546 20.3448 42.5582 20.3448Z" fill="#000285"/>
<path d="M42.5582 24.6452H34.7217C34.3252 24.6452 34.0039 24.9731 34.0039 25.3777C34.0039 25.7822 34.3252 26.1101 34.7217 26.1101H42.5582C42.9547 26.1101 43.276 25.7822 43.276 25.3777C43.276 24.9731 42.9546 24.6452 42.5582 24.6452Z" fill="#000285"/>
<path d="M42.5582 28.9457H34.7217C34.3252 28.9457 34.0039 29.2735 34.0039 29.6781C34.0039 30.0827 34.3252 30.4105 34.7217 30.4105H42.5582C42.9547 30.4105 43.276 30.0827 43.276 29.6781C43.276 29.2735 42.9546 28.9457 42.5582 28.9457Z" fill="#000285"/>
<path d="M9.80406 20.109H13.54C13.9365 20.109 14.2578 19.7811 14.2578 19.3766C14.2578 18.972 13.9365 18.6441 13.54 18.6441H9.80406C8.94283 18.6441 8.24219 19.3591 8.24219 20.2379V30.8444C8.24219 31.7232 8.94283 32.4382 9.80406 32.4382H24.925C25.7862 32.4382 26.4868 31.7232 26.4868 30.8444V20.2379C26.4868 19.3591 25.7862 18.6441 24.925 18.6441H16.4099C16.0134 18.6441 15.6921 18.972 15.6921 19.3766C15.6921 19.7811 16.0134 20.109 16.4099 20.109H24.925C24.9946 20.109 25.0513 20.1669 25.0513 20.2379V30.8444C25.0513 30.9155 24.9945 30.9733 24.925 30.9733H9.80406C9.73439 30.9733 9.67773 30.9154 9.67773 30.8444V20.2379C9.67764 20.1669 9.73439 20.109 9.80406 20.109Z" fill="#000285"/>
<path d="M46.7817 25.6896C47.1782 25.6896 47.4994 25.3617 47.4994 24.9571V1.19873C47.4994 0.537793 46.9724 0 46.3246 0H20.0891C19.6915 0 19.3713 0.332227 19.3713 0.732422V13.4117H4.47554C3.82772 13.4117 3.30078 13.9495 3.30078 14.6104V48.8012C3.30078 49.4622 3.82782 49.9999 4.47554 49.9999H7.5677C7.9642 49.9999 8.28548 49.6721 8.28548 49.2675C8.28548 48.8629 7.9642 48.5351 7.5677 48.5351H4.73623V14.8766H29.9931V48.5352H10.4375C10.041 48.5352 9.71969 48.863 9.71969 49.2676C9.71969 49.6722 10.041 50 10.4375 50H30.2539C30.9018 50 31.4287 49.4622 31.4287 48.8013V36.5882H46.3246C46.9724 36.5882 47.4994 36.0504 47.4994 35.3895V27.8855C47.4994 27.481 47.1781 27.1531 46.7816 27.1531C46.3851 27.1531 46.0638 27.481 46.0638 27.8855V35.1233H31.4287V14.1441C31.4287 13.8994 31.3094 13.756 31.2643 13.6776L21.5921 1.46484H46.0639V24.9571C46.0639 25.3616 46.3852 25.6896 46.7817 25.6896ZM20.807 13.4117V2.804L29.2079 13.4117H20.807Z" fill="#000285"/>
</g>
<defs>
<clipPath id="clip0">
<rect width="49" height="50" fill="white" transform="translate(0.900391)"/>
</clipPath>
</defs>
</svg>
