<svg width="131" height="33" viewBox="0 0 131 33" fill="none" xmlns="http://www.w3.org/2000/svg">
<path d="M58.2266 24.9121H57.5958V25.5119H58.2266V24.9121Z" fill="#FF7F00"/>
<path d="M59.1728 24.9121H58.542V25.5119H59.1728V24.9121Z" fill="#FF7F00"/>
<path d="M60.1583 24.9121H59.5275V25.5119H60.1583V24.9121Z" fill="#FF7F00"/>
<path d="M60.7102 25.5124H62.9178V25.0726H61.2227V23.673H62.7602V23.2731H61.2227V21.9135H62.9178V21.4736H60.7102V25.5124Z" fill="#FF7F00"/>
<path d="M67.3726 22.3135C67.1361 22.3135 66.8995 22.3935 66.7024 22.5134C66.5053 22.6334 66.3476 22.8333 66.2688 23.1132C66.1899 22.8333 66.0323 22.6334 65.8746 22.5134C65.7169 22.3935 65.4409 22.3135 65.2044 22.3135C64.9679 22.3135 64.7313 22.3935 64.5342 22.5134C64.3371 22.6334 64.2188 22.8333 64.14 23.0733V22.3935H63.6275V25.5125H64.14V23.873C64.14 23.5131 64.2188 23.2732 64.3765 23.0733C64.5342 22.8733 64.7707 22.7933 65.0467 22.7933C65.2832 22.7933 65.5198 22.8733 65.638 23.0333C65.7957 23.1932 65.8746 23.4331 65.8746 23.753V25.5125H66.3871V23.873C66.3871 23.5131 66.4659 23.2732 66.6236 23.0733C66.7813 22.8733 67.0178 22.7933 67.2543 22.7933C67.5303 22.7933 67.7274 22.8733 67.8457 23.0333C68.0034 23.1932 68.0822 23.4331 68.0822 23.753V25.5125H68.5947V23.7131C68.5947 23.2732 68.4764 22.9533 68.2793 22.7134C68.0034 22.4334 67.7274 22.3135 67.3726 22.3135Z" fill="#FF7F00"/>
<path d="M71.7879 22.5134C71.5908 22.3935 71.3148 22.3135 71.0388 22.3135C70.7235 22.3135 70.4869 22.3935 70.2898 22.5534C70.0927 22.7134 69.935 22.9133 69.8562 23.1532V22.3535H69.3437V26.9521H69.8562V24.6728C69.935 24.9127 70.0927 25.1126 70.2898 25.2726C70.4869 25.4326 70.7629 25.5125 71.0388 25.5125C71.3148 25.5125 71.5513 25.4325 71.7879 25.3126C71.985 25.1926 72.1821 24.9927 72.3003 24.7528C72.4186 24.5128 72.4975 24.2329 72.4975 23.913C72.4975 23.5931 72.4186 23.3132 72.3003 23.0733C72.1821 22.8333 72.0244 22.6734 71.7879 22.5134ZM71.6696 24.7927C71.4725 24.9927 71.236 25.1126 70.9206 25.1126C70.7235 25.1126 70.5264 25.0727 70.3687 24.9527C70.211 24.8727 70.0927 24.7128 69.9744 24.5528C69.8956 24.3929 69.8562 24.1929 69.8562 23.953C69.8562 23.7131 69.8956 23.5131 69.9744 23.3532C70.0533 23.1932 70.1716 23.0333 70.3687 22.9533C70.5264 22.8733 70.7235 22.8333 70.9206 22.8333C71.236 22.8333 71.5119 22.9533 71.6696 23.1532C71.8667 23.3532 71.9456 23.6331 71.9456 23.993C71.9456 24.3529 71.8667 24.5928 71.6696 24.7927Z" fill="#FF7F00"/>
<path d="M75.3359 22.5134C75.0993 22.3935 74.8234 22.3135 74.5474 22.3135C74.232 22.3135 73.9955 22.3935 73.759 22.5134C73.5224 22.6334 73.3253 22.8333 73.2071 23.0733C73.0888 23.3132 73.0099 23.5931 73.0099 23.913C73.0099 24.2329 73.0888 24.5128 73.2071 24.7528C73.3253 24.9927 73.5224 25.1926 73.759 25.3126C73.9955 25.4325 74.2715 25.5125 74.5474 25.5125C74.8628 25.5125 75.0993 25.4325 75.3359 25.3126C75.5724 25.1926 75.7695 24.9927 75.8878 24.7528C76.006 24.5128 76.0849 24.2329 76.0849 23.913C76.0849 23.5931 76.006 23.3132 75.8878 23.0733C75.7695 22.8333 75.5724 22.6734 75.3359 22.5134ZM75.4147 24.5928C75.3359 24.7528 75.1782 24.9127 75.0205 24.9927C74.8628 25.0727 74.7051 25.1126 74.508 25.1126C74.3109 25.1126 74.1532 25.0727 73.9955 24.9927C73.8378 24.9127 73.7195 24.7927 73.6013 24.5928C73.5224 24.4328 73.4436 24.1929 73.4436 23.953C73.4436 23.7131 73.483 23.4731 73.6013 23.3132C73.7195 23.1532 73.8378 22.9933 73.9955 22.9133C74.1532 22.8333 74.3109 22.7933 74.508 22.7933C74.7051 22.7933 74.8628 22.8333 75.0205 22.9133C75.1782 22.9933 75.2964 23.1132 75.4147 23.3132C75.4936 23.4731 75.5724 23.7131 75.5724 23.953C75.5724 24.1929 75.533 24.3929 75.4147 24.5928Z" fill="#FF7F00"/>
<path d="M79.8694 24.9928L79.0021 22.3936H78.4502L77.5829 24.9928L76.9522 22.3936H76.4397L77.307 25.5126H77.8589L78.7262 22.9534L79.5541 25.5126H80.106L81.0127 22.3936H80.5002L79.8694 24.9928Z" fill="#FF7F00"/>
<path d="M83.6145 22.5134C83.378 22.3935 83.1415 22.3135 82.8261 22.3135C82.5107 22.3135 82.2742 22.3935 82.0377 22.5134C81.8011 22.6334 81.6434 22.8333 81.4857 23.0733C81.3281 23.3132 81.2886 23.5931 81.2886 23.913C81.2886 24.2329 81.3675 24.5128 81.4857 24.7528C81.604 24.9927 81.8011 25.1926 82.0377 25.3126C82.2742 25.4325 82.5107 25.5125 82.8261 25.5125C83.1021 25.5125 83.2992 25.4725 83.5357 25.3526C83.7328 25.2726 83.8905 25.1126 84.0482 24.9527C84.2059 24.7927 84.2453 24.5928 84.2847 24.3529H83.7328C83.6934 24.5528 83.5751 24.7528 83.4174 24.8727C83.2597 24.9927 83.0626 25.0727 82.7867 25.0727C82.5107 25.0727 82.2742 24.9927 82.0771 24.7927C81.88 24.6328 81.8011 24.3529 81.7617 23.993H84.2453C84.2453 23.913 84.2847 23.833 84.2847 23.7131C84.2847 23.4331 84.2453 23.1932 84.127 22.9933C84.0088 22.8333 83.8511 22.6734 83.6145 22.5134ZM81.8405 23.793C81.8405 23.4331 81.9588 23.1932 82.1559 23.0333C82.353 22.8733 82.5896 22.7533 82.8655 22.7533C83.0232 22.7533 83.2203 22.7933 83.3386 22.8733C83.4963 22.9533 83.6145 23.0732 83.6934 23.2332C83.7722 23.3932 83.8117 23.5931 83.8117 23.833H81.8405V23.793Z" fill="#FF7F00"/>
<path d="M85.5067 22.9933V22.3935H84.9943V25.5125H85.5067V23.873C85.5067 23.5131 85.5856 23.2732 85.7827 23.1132C85.9798 22.9533 86.2163 22.8733 86.4923 22.8733H86.65V22.3135C86.374 22.3135 86.1375 22.3535 85.9404 22.4734C85.7433 22.6334 85.5856 22.7933 85.5067 22.9933Z" fill="#FF7F00"/>
<path d="M87.675 22.3936H87.1625V25.5126H87.675V22.3936Z" fill="#FF7F00"/>
<path d="M87.3991 21.1533C87.2808 21.1533 87.202 21.1933 87.1625 21.2333C87.0837 21.2733 87.0837 21.3533 87.0837 21.4732C87.0837 21.5532 87.1231 21.6332 87.1625 21.7132C87.2414 21.7531 87.3202 21.7931 87.3991 21.7931C87.5173 21.7931 87.5962 21.7531 87.6356 21.7132C87.7144 21.6732 87.7144 21.5932 87.7144 21.4732C87.7144 21.3932 87.675 21.3133 87.6356 21.2333C87.5962 21.1533 87.5173 21.1533 87.3991 21.1533Z" fill="#FF7F00"/>
<path d="M90.1192 22.3135C89.8433 22.3135 89.6068 22.3935 89.4096 22.5134C89.2125 22.6334 89.0548 22.8333 88.976 23.1132V22.3935H88.4635V25.5125H88.976V23.873C88.976 23.5131 89.0548 23.2332 89.2125 23.0733C89.3702 22.8733 89.6068 22.7933 89.8827 22.7933C90.1587 22.7933 90.3558 22.8733 90.5135 23.0333C90.6712 23.1932 90.75 23.4331 90.75 23.753V25.5125H91.2625V23.7131C91.2625 23.2732 91.1442 22.9533 90.9471 22.7134C90.75 22.4334 90.474 22.3135 90.1192 22.3135Z" fill="#FF7F00"/>
<path d="M94.5739 23.1532C94.4951 22.9133 94.3374 22.7134 94.1403 22.5534C93.9431 22.3935 93.6672 22.3135 93.3912 22.3135C93.1153 22.3135 92.8787 22.3935 92.6422 22.5134C92.4057 22.6334 92.248 22.8333 92.1297 23.0733C92.0115 23.3132 91.9326 23.5931 91.9326 23.913C91.9326 24.2329 92.0115 24.5128 92.1297 24.7528C92.248 24.9927 92.4057 25.1926 92.6422 25.3126C92.8393 25.4325 93.1153 25.5125 93.3912 25.5125C93.7066 25.5125 93.9431 25.4326 94.1403 25.2726C94.3374 25.1126 94.4951 24.9127 94.5739 24.6728V25.5125C94.5739 25.8324 94.4951 26.0724 94.2979 26.2723C94.1008 26.4722 93.9037 26.5522 93.6278 26.5522C93.3518 26.5522 93.1547 26.5122 92.997 26.3923C92.8393 26.2723 92.7211 26.1123 92.6422 25.9124H92.1297C92.2086 26.2723 92.3663 26.5522 92.6422 26.7522C92.9182 26.9521 93.2335 27.0721 93.6672 27.0721C93.9431 27.0721 94.2191 26.9921 94.4162 26.8721C94.6527 26.7522 94.8104 26.5522 94.9287 26.3523C95.047 26.1123 95.1258 25.8724 95.1258 25.5925V22.3935H94.6133V23.1532H94.5739ZM94.4162 24.5528C94.3374 24.7128 94.2191 24.8727 94.0614 24.9527C93.9037 25.0327 93.7066 25.1126 93.5095 25.1126C93.1941 25.1126 92.9576 24.9927 92.7605 24.7927C92.5634 24.5928 92.4845 24.3129 92.4845 23.953C92.4845 23.5931 92.5634 23.3132 92.7605 23.1132C92.9576 22.9133 93.1941 22.7933 93.5095 22.7933C93.7066 22.7933 93.9037 22.8333 94.0614 22.9133C94.2191 22.9933 94.3374 23.1532 94.4162 23.3132C94.4951 23.4731 94.5345 23.6731 94.5345 23.913C94.5345 24.1529 94.5345 24.3529 94.4162 24.5528Z" fill="#FF7F00"/>
<path d="M98.4767 24.8328L97.4911 22.3936H96.8998L98.2007 25.4726L97.57 26.9922H98.1613L99.9747 22.3936H99.4228L98.4767 24.8328Z" fill="#FF7F00"/>
<path d="M102.655 22.5134C102.419 22.3935 102.143 22.3135 101.867 22.3135C101.552 22.3135 101.315 22.3935 101.079 22.5134C100.842 22.6334 100.645 22.8333 100.527 23.0733C100.408 23.3132 100.33 23.5931 100.33 23.913C100.33 24.2329 100.408 24.5128 100.527 24.7528C100.645 24.9927 100.842 25.1926 101.079 25.3126C101.315 25.4325 101.591 25.5125 101.867 25.5125C102.182 25.5125 102.419 25.4325 102.655 25.3126C102.892 25.1926 103.089 24.9927 103.207 24.7528C103.326 24.5128 103.404 24.2329 103.404 23.913C103.404 23.5931 103.326 23.3132 103.207 23.0733C103.089 22.8333 102.892 22.6734 102.655 22.5134ZM102.734 24.5928C102.655 24.7528 102.498 24.9127 102.34 24.9927C102.182 25.0727 102.025 25.1126 101.828 25.1126C101.63 25.1126 101.473 25.0727 101.315 24.9927C101.157 24.9127 101.039 24.7927 100.921 24.5928C100.842 24.4328 100.763 24.1929 100.763 23.953C100.763 23.7131 100.803 23.4731 100.921 23.3132C101 23.1532 101.157 22.9933 101.315 22.9133C101.473 22.8333 101.63 22.7933 101.828 22.7933C102.025 22.7933 102.182 22.8333 102.34 22.9133C102.498 22.9933 102.616 23.1132 102.734 23.3132C102.813 23.4731 102.892 23.7131 102.892 23.953C102.892 24.1929 102.853 24.3929 102.734 24.5928Z" fill="#FF7F00"/>
<path d="M106.322 24.0331C106.322 24.393 106.243 24.6729 106.085 24.8328C105.927 25.0328 105.691 25.1127 105.415 25.1127C105.139 25.1127 104.942 25.0328 104.784 24.8728C104.627 24.7129 104.548 24.4729 104.548 24.153V22.3936H104.035V24.233C104.035 24.6729 104.153 24.9928 104.351 25.2327C104.587 25.4726 104.863 25.5926 105.218 25.5926C105.494 25.5926 105.73 25.5126 105.927 25.3927C106.125 25.2727 106.282 25.0728 106.361 24.7928V25.5126H106.874V22.3936H106.361V24.0331H106.322Z" fill="#FF7F00"/>
<path d="M111.486 23.1529C111.407 22.9129 111.249 22.713 111.052 22.5531C110.855 22.3931 110.579 22.3131 110.303 22.3131C110.027 22.3131 109.791 22.3931 109.554 22.5131C109.318 22.633 109.16 22.833 109.042 23.0729C108.924 23.3128 108.845 23.5927 108.845 23.9127C108.845 24.2326 108.924 24.5125 109.042 24.7524C109.16 24.9923 109.318 25.1923 109.554 25.3122C109.751 25.4322 110.027 25.5122 110.303 25.5122C110.619 25.5122 110.855 25.4322 111.052 25.2722C111.249 25.1123 111.407 24.9124 111.486 24.6724V25.4722H111.998V21.2734H111.486V23.1529ZM111.368 24.5525C111.289 24.7124 111.171 24.8724 111.013 24.9523C110.855 25.0323 110.658 25.1123 110.461 25.1123C110.146 25.1123 109.909 24.9923 109.712 24.7924C109.515 24.5924 109.436 24.3125 109.436 23.9526C109.436 23.5927 109.515 23.3128 109.712 23.1129C109.909 22.9129 110.146 22.793 110.461 22.793C110.658 22.793 110.855 22.833 111.013 22.9129C111.171 22.9929 111.289 23.1529 111.368 23.3128C111.447 23.4728 111.486 23.6727 111.486 23.9127C111.486 24.1526 111.447 24.3525 111.368 24.5525Z" fill="#FF7F00"/>
<path d="M113.339 22.3936H112.826V25.5126H113.339V22.3936Z" fill="#FF7F00"/>
<path d="M113.063 21.1533C112.945 21.1533 112.866 21.1933 112.826 21.2333C112.748 21.2733 112.747 21.3533 112.747 21.4732C112.747 21.5532 112.787 21.6332 112.826 21.7132C112.905 21.7531 112.984 21.7931 113.063 21.7931C113.181 21.7931 113.26 21.7531 113.299 21.7132C113.378 21.6732 113.378 21.5932 113.378 21.4732C113.378 21.3932 113.339 21.3133 113.299 21.2333C113.26 21.1533 113.181 21.1533 113.063 21.1533Z" fill="#FF7F00"/>
<path d="M116.611 23.1532C116.532 22.9133 116.374 22.7134 116.177 22.5534C115.98 22.3935 115.704 22.3135 115.428 22.3135C115.152 22.3135 114.916 22.3935 114.679 22.5134C114.443 22.6334 114.285 22.8333 114.167 23.0733C114.048 23.3132 113.97 23.5931 113.97 23.913C113.97 24.2329 114.048 24.5128 114.167 24.7528C114.285 24.9927 114.443 25.1926 114.679 25.3126C114.876 25.4325 115.152 25.5125 115.428 25.5125C115.744 25.5125 115.98 25.4326 116.177 25.2726C116.374 25.1126 116.532 24.9127 116.611 24.6728V25.5125C116.611 25.8324 116.532 26.0724 116.335 26.2723C116.138 26.4722 115.941 26.5522 115.665 26.5522C115.389 26.5522 115.192 26.5122 115.034 26.3923C114.876 26.2723 114.758 26.1123 114.679 25.9124H114.167C114.245 26.2723 114.403 26.5522 114.679 26.7522C114.955 26.9521 115.27 27.0721 115.704 27.0721C115.98 27.0721 116.256 26.9921 116.453 26.8721C116.69 26.7522 116.847 26.5522 116.966 26.3523C117.084 26.1123 117.163 25.8724 117.163 25.5925V22.3935H116.65V23.1532H116.611ZM116.493 24.5528C116.414 24.7128 116.295 24.8727 116.138 24.9527C115.98 25.0327 115.783 25.1126 115.586 25.1126C115.27 25.1126 115.034 24.9927 114.837 24.7927C114.64 24.5928 114.561 24.3129 114.561 23.953C114.561 23.5931 114.64 23.3132 114.837 23.1132C115.034 22.9133 115.27 22.7933 115.586 22.7933C115.783 22.7933 115.98 22.8333 116.138 22.9133C116.295 22.9933 116.414 23.1532 116.493 23.3132C116.571 23.4731 116.611 23.6731 116.611 23.913C116.611 24.1529 116.571 24.3529 116.493 24.5528Z" fill="#FF7F00"/>
<path d="M118.188 21.1533C118.07 21.1533 117.991 21.1933 117.951 21.2333C117.872 21.2733 117.872 21.3533 117.872 21.4732C117.872 21.5532 117.912 21.6332 117.951 21.7132C118.03 21.7531 118.109 21.7931 118.188 21.7931C118.306 21.7931 118.385 21.7531 118.424 21.7132C118.503 21.6732 118.503 21.5932 118.503 21.4732C118.503 21.3932 118.464 21.3133 118.424 21.2333C118.385 21.1533 118.306 21.1533 118.188 21.1533Z" fill="#FF7F00"/>
<path d="M118.464 22.3936H117.951V25.5126H118.464V22.3936Z" fill="#FF7F00"/>
<path d="M120.041 24.9528C119.962 24.8728 119.922 24.7528 119.922 24.5529V22.8734H120.711V22.3935H119.922V21.5938H119.41V22.3935H118.937V22.8334H119.41V24.5129C119.41 24.8728 119.489 25.1127 119.646 25.2727C119.804 25.4326 120.041 25.5126 120.356 25.5126H120.75V25.0727H120.435C120.238 25.0327 120.119 24.9927 120.041 24.9528Z" fill="#FF7F00"/>
<path d="M123.825 23.1532C123.746 22.9133 123.589 22.7134 123.392 22.5534C123.194 22.3935 122.918 22.3135 122.643 22.3135C122.367 22.3135 122.13 22.3935 121.894 22.5134C121.657 22.6334 121.499 22.8333 121.381 23.0733C121.263 23.3132 121.184 23.5931 121.184 23.913C121.184 24.2329 121.263 24.5128 121.381 24.7528C121.499 24.9927 121.657 25.1926 121.894 25.3126C122.091 25.4325 122.367 25.5125 122.643 25.5125C122.958 25.5125 123.194 25.4325 123.392 25.2726C123.589 25.1126 123.746 24.9127 123.825 24.6728V25.4725H124.338V22.3935H123.825V23.1532ZM123.707 24.5528C123.628 24.7128 123.51 24.8727 123.352 24.9527C123.194 25.0327 122.997 25.1126 122.8 25.1126C122.485 25.1126 122.248 24.9927 122.051 24.7927C121.854 24.5928 121.775 24.3129 121.775 23.953C121.775 23.5931 121.854 23.3132 122.051 23.1132C122.248 22.9133 122.485 22.7933 122.8 22.7933C122.997 22.7933 123.194 22.8333 123.352 22.9133C123.51 22.9933 123.628 23.1532 123.707 23.3132C123.786 23.4731 123.825 23.6731 123.825 23.913C123.825 24.1529 123.786 24.3529 123.707 24.5528Z" fill="#FF7F00"/>
<path d="M125.678 21.2734H125.166V25.5122H125.678V21.2734Z" fill="#FF7F00"/>
<path d="M127.018 21.2734H126.506V25.5122H127.018V21.2734Z" fill="#FF7F00"/>
<path d="M129.029 24.8328L128.043 22.3936H127.452L128.753 25.4726L128.122 26.9922H128.713L130.527 22.3936H129.975L129.029 24.8328Z" fill="#FF7F00"/>
<path d="M37.8847 14.0359C38.3183 13.916 38.6731 13.716 38.9097 13.3961C39.1856 13.0762 39.3039 12.6363 39.3039 12.1565C39.3039 11.4767 39.0673 10.9568 38.6337 10.5969C38.1606 10.237 37.5299 10.0371 36.702 10.0371H32.9569V18.3546H36.7809C37.6482 18.3546 38.3183 18.1547 38.7914 17.7548C39.2645 17.3549 39.501 16.7951 39.501 16.0753C39.501 15.5955 39.3433 15.1556 39.0673 14.7957C38.7914 14.4358 38.3972 14.1559 37.8847 14.0359ZM34.9674 11.6366H36.229C36.9386 11.6366 37.2933 11.9165 37.2933 12.5164C37.2933 13.1162 36.9386 13.3961 36.2684 13.3961H34.9674V11.6366ZM36.3866 16.7151H34.9674V14.8357H36.3866C36.7414 14.8357 37.0174 14.9157 37.2145 15.0756C37.4116 15.2356 37.4905 15.4755 37.4905 15.7954C37.4905 16.3952 37.0962 16.7151 36.3866 16.7151Z" fill="#FF7F00"/>
<path d="M42.5366 9.99707H40.5655V18.3546H45.1779V16.795H42.5366V9.99707Z" fill="#FF7F00"/>
<path d="M50.8941 14.7956C50.8941 15.3555 50.7758 15.7554 50.5393 16.0753C50.3028 16.3552 49.948 16.5151 49.4749 16.5151C49.0018 16.5151 48.647 16.3552 48.4105 16.0753C48.174 15.7953 48.0557 15.3555 48.0557 14.7956V9.99707H46.0846V14.7956C46.0846 15.5954 46.2423 16.2352 46.5182 16.795C46.7942 17.3549 47.1884 17.7548 47.7009 17.9947C48.2134 18.2346 48.8047 18.3946 49.4355 18.3946C50.1057 18.3946 50.697 18.2746 51.2095 17.9947C51.722 17.7148 52.1556 17.3149 52.4316 16.795C52.7469 16.2752 52.8652 15.5954 52.8652 14.7956V9.99707H50.8941V14.7956Z" fill="#FF7F00"/>
<path d="M54.2056 18.3546H59.291V16.7151H56.1767V14.8756H58.9757V13.3561H56.1767V11.5966H59.291V9.99707H54.2056V18.3546Z" fill="#FF7F00"/>
<path d="M64.9284 13.3564H59.8035V15.0359H64.9284V13.3564Z" fill="#FF7F00"/>
<path d="M74.1138 14.1558C74.1138 13.3561 73.9561 12.6363 73.6013 11.9965C73.2465 11.3567 72.7734 10.8768 72.1032 10.5169C71.4725 10.157 70.684 9.99707 69.8168 9.99707H66.7024V18.3146H69.8168C70.684 18.3146 71.4331 18.1546 72.1032 17.7947C72.7734 17.4349 73.2465 16.955 73.6013 16.3152C73.9561 15.7154 74.1138 14.9556 74.1138 14.1558ZM71.4725 15.9153C71.0388 16.3152 70.4475 16.5551 69.6591 16.5551H68.7129V11.7965H69.6591C70.4475 11.7965 71.0388 11.9965 71.4725 12.4363C71.9061 12.8362 72.1032 13.436 72.1032 14.1958C72.1032 14.9556 71.9061 15.4754 71.4725 15.9153Z" fill="#FF7F00"/>
<path d="M78.5291 14.3557C78.8445 14.5156 79.2781 14.7156 79.7906 14.8755C80.1454 14.9955 80.4214 15.1154 80.6185 15.1954C80.8156 15.2754 80.9733 15.3954 81.131 15.5553C81.2492 15.7153 81.3281 15.8752 81.3281 16.0752C81.3281 16.3151 81.2492 16.515 81.0915 16.635C80.9339 16.755 80.7367 16.8349 80.5002 16.8349C80.2243 16.8349 79.9483 16.755 79.7906 16.555C79.5935 16.3551 79.4752 16.1151 79.4752 15.7952H77.3464C77.3859 16.595 77.7407 17.2348 78.332 17.7147C78.9233 18.1545 79.6723 18.3945 80.6185 18.3945C81.2492 18.3945 81.7617 18.2745 82.1954 18.0746C82.629 17.8746 82.9444 17.5547 83.1809 17.1948C83.4175 16.8349 83.4963 16.4351 83.4963 15.9952C83.4963 15.4353 83.378 14.9955 83.1415 14.6756C82.905 14.3557 82.629 14.0758 82.2742 13.9158C81.9588 13.7558 81.5252 13.5559 80.9733 13.396C80.6185 13.276 80.3425 13.156 80.1454 13.0761C79.9483 12.9961 79.7906 12.8761 79.6723 12.7561C79.5541 12.6362 79.4752 12.4362 79.4752 12.2363C79.4752 11.9964 79.5541 11.7964 79.6723 11.6765C79.83 11.5565 79.9877 11.4765 80.2243 11.4765C80.5002 11.4765 80.6973 11.5565 80.855 11.7165C81.0127 11.8764 81.131 12.0763 81.1704 12.3563H83.3386C83.2598 11.5965 82.9838 10.9967 82.4319 10.5568C81.88 10.1169 81.1704 9.91699 80.2637 9.91699C79.7118 9.91699 79.1993 9.99697 78.7656 10.1969C78.332 10.3968 77.9772 10.6768 77.7407 11.0367C77.5041 11.3966 77.3859 11.8364 77.3859 12.3163C77.3859 12.8361 77.5041 13.276 77.7407 13.6359C77.9378 13.9158 78.2137 14.1557 78.5291 14.3557Z" fill="#FF7F00"/>
<path d="M89.6855 16.7151H86.5711V14.8756H89.3307V13.3561H86.5711V11.5966H89.6855V9.99707H84.6V18.3546H89.6855V16.7151Z" fill="#FF7F00"/>
<path d="M92.7999 15.1955H93.2335L95.0075 18.3546H97.2152L95.2835 15.0756C95.9142 14.9156 96.3873 14.6357 96.7027 14.1958C97.0181 13.756 97.2152 13.2761 97.2152 12.6363C97.2152 12.1164 97.0969 11.6766 96.8604 11.2767C96.6238 10.8768 96.3085 10.5569 95.8354 10.357C95.4018 10.117 94.8498 9.99707 94.1797 9.99707H90.7894V18.3146H92.7605V15.1955H92.7999ZM92.7999 11.7166H94.022C94.4162 11.7166 94.6922 11.7965 94.8893 11.9965C95.0864 12.1964 95.1652 12.4363 95.1652 12.7562C95.1652 13.1161 95.0864 13.3561 94.8893 13.556C94.6922 13.716 94.4162 13.8359 94.022 13.8359H92.7999V11.7166Z" fill="#FF7F00"/>
<path d="M103.01 18.3546L105.888 9.99707H103.759L101.749 16.2752L99.7382 9.99707H97.6094L100.448 18.3546H103.01Z" fill="#FF7F00"/>
<path d="M108.608 9.99707H106.637V18.3146H108.608V9.99707Z" fill="#FF7F00"/>
<path d="M113.733 11.7964C114.167 11.7964 114.561 11.9164 114.876 12.1163C115.192 12.3563 115.428 12.6362 115.586 13.0361H117.675C117.478 12.0763 117.045 11.3166 116.335 10.7567C115.625 10.1969 114.798 9.91699 113.733 9.91699C112.945 9.91699 112.235 10.0769 111.644 10.4368C111.052 10.7967 110.579 11.2766 110.264 11.9564C109.949 12.5962 109.751 13.316 109.751 14.1557C109.751 14.9955 109.909 15.7153 110.264 16.3551C110.579 16.9949 111.052 17.5147 111.644 17.8746C112.235 18.2345 112.945 18.3945 113.733 18.3945C114.798 18.3945 115.625 18.1146 116.335 17.5547C117.045 16.9949 117.478 16.2351 117.675 15.3154H115.586C115.428 15.6753 115.192 15.9952 114.876 16.1951C114.561 16.3951 114.167 16.515 113.733 16.515C113.142 16.515 112.669 16.3151 112.314 15.8752C111.959 15.4354 111.762 14.8755 111.762 14.1557C111.762 13.4359 111.959 12.8761 112.314 12.4362C112.669 11.9964 113.142 11.7964 113.733 11.7964Z" fill="#FF7F00"/>
<path d="M123.904 16.7151H120.79V14.8756H123.549V13.3561H120.79V11.5966H123.904V9.99707H118.779V18.3546H123.904V16.7151Z" fill="#FF7F00"/>
<path d="M130.566 14.6756C130.33 14.3557 130.054 14.0758 129.699 13.9158C129.384 13.7559 128.95 13.5559 128.398 13.396C128.043 13.276 127.767 13.156 127.57 13.0761C127.373 12.9961 127.215 12.8761 127.097 12.7561C126.979 12.6362 126.9 12.4362 126.9 12.2363C126.9 11.9964 126.979 11.7964 127.097 11.6765C127.255 11.5565 127.413 11.4765 127.649 11.4765C127.925 11.4765 128.122 11.5565 128.28 11.7165C128.438 11.8764 128.556 12.0764 128.595 12.3563H130.763C130.685 11.5965 130.409 10.9967 129.857 10.5568C129.305 10.1169 128.595 9.91699 127.688 9.91699C127.137 9.91699 126.624 9.99697 126.19 10.1969C125.757 10.3968 125.402 10.6768 125.165 11.0367C124.929 11.3966 124.811 11.8364 124.811 12.3163C124.811 12.8361 124.929 13.276 125.165 13.6359C125.402 13.9558 125.678 14.2357 126.033 14.3957C126.348 14.5556 126.782 14.7556 127.294 14.9155C127.649 15.0355 127.925 15.1554 128.122 15.2354C128.319 15.3154 128.477 15.4354 128.635 15.5953C128.753 15.7553 128.832 15.9152 128.832 16.1151C128.832 16.3551 128.753 16.555 128.595 16.675C128.438 16.7949 128.24 16.8749 128.004 16.8749C127.728 16.8749 127.452 16.7949 127.294 16.595C127.097 16.3951 126.979 16.1551 126.979 15.8352H124.85C124.89 16.635 125.244 17.2748 125.836 17.7547C126.427 18.1945 127.176 18.4345 128.122 18.4345C128.753 18.4345 129.265 18.3145 129.699 18.1146C130.133 17.9146 130.448 17.5947 130.685 17.2348C130.921 16.8749 131 16.475 131 16.0352C130.921 15.4354 130.803 14.9955 130.566 14.6756Z" fill="#FF7F00"/>
<path d="M27.8715 12.5163C27.0831 11.7565 26.2947 10.9967 25.5456 10.2769L17.3852 2.39929C16.7545 1.79946 16.1237 1.15965 15.493 0.559833C15.217 0.279917 14.8622 0.119964 14.468 0.0399881C14.3891 0.0399881 14.3103 0 14.192 0H14.1132C14.0738 0 13.9949 0.0399881 13.9555 0.0399881C13.4824 0.0799762 13.0882 0.319905 12.7334 0.63981C11.7084 1.63951 10.7229 2.59923 9.6979 3.59893C9.02773 4.23874 8.39697 4.87855 7.72679 5.51836C7.68737 5.55835 7.64795 5.55835 7.64795 5.63832H7.80564C9.89502 5.63832 11.9844 5.63832 14.0738 5.63832C14.4286 5.63832 14.8228 5.63832 15.1776 5.67831C15.6901 5.7183 16.2026 5.75829 16.7151 5.83826C17.74 5.99821 18.7256 6.27813 19.6323 6.79798C20.2631 7.15787 20.815 7.59774 21.2486 8.19756C21.7217 8.83737 21.9976 9.59714 22.0765 10.3969C22.0765 10.4769 22.1159 10.5169 22.1947 10.5569C22.2736 10.5968 22.3919 10.6368 22.4707 10.6768C23.3774 11.0767 24.1264 11.6765 24.7572 12.4763C25.3091 13.1961 25.6245 14.0358 25.7822 14.9156C25.9004 15.4354 25.9399 15.9552 25.9793 16.4751C26.0187 16.915 25.9793 17.3548 25.9399 17.7947C25.9399 17.9547 25.9004 18.1146 25.9004 18.2746C26.0187 18.1146 25.861 18.3945 26.5706 16.9949C26.886 16.3951 27.2802 15.9153 27.7533 15.4754C28.1081 15.1555 28.3446 14.7556 28.384 14.3157C28.384 14.2757 28.384 14.2757 28.4235 14.2358V13.7559C28.4235 13.6759 28.384 13.6359 28.384 13.556C28.3446 13.0761 28.1475 12.7562 27.8715 12.5163Z" fill="#FF7F00"/>
<path d="M5.95275 7.27754C5.95275 7.27754 5.95275 7.23755 5.95275 7.27754C5.91333 7.31753 5.87391 7.31753 5.83449 7.35751L2.68071 10.3966C1.97111 11.0764 1.30093 11.7562 0.591333 12.436C0.197111 12.7959 0 13.2358 0 13.7556C0 14.1955 0.118267 14.5554 0.394222 14.9153C0.7096 15.3551 1.02498 15.755 1.34036 16.1949C2.8384 18.1943 4.33644 20.1937 5.83449 22.1931C5.87391 22.2331 5.87391 22.2731 5.91333 22.3131V22.2731C5.95275 17.2746 5.95275 12.2761 5.95275 7.27754Z" fill="#FF7F00"/>
<path d="M17.9372 27.9913C16.9122 28.2712 15.8478 28.3912 14.7834 28.3912C13.3642 28.3912 11.9844 28.3912 10.5652 28.3912H10.4075C10.5652 28.5911 10.3287 28.3512 11.5902 29.6308C12.221 30.2706 12.694 31.0704 13.0882 31.9102C13.719 33.2697 15.5324 33.3497 16.3603 32.1901C17.4247 30.5905 18.4891 29.031 19.5929 27.4315C19.5929 27.3915 19.6323 27.3915 19.6323 27.3115C19.5929 27.3515 19.5535 27.3515 19.5141 27.3515C19.0016 27.6314 18.4891 27.8314 17.9372 27.9913Z" fill="#FF7F00"/>
<path d="M11.1171 24.3928H11.2353C11.2353 24.3928 12.8911 24.4728 13.6795 24.4728C13.916 24.4728 14.192 24.4728 14.4285 24.4328C14.8228 24.3928 15.2564 24.3128 15.6506 24.1929C15.69 24.1929 15.69 24.1529 15.7295 24.1529V23.9929H12.694V20.7939C12.694 20.7939 12.694 19.9141 12.694 19.5542C12.694 19.1943 12.694 18.7945 12.694 18.4346H11.1171V24.3928Z" fill="#FF7F00"/>
<path d="M21.288 13.7957C21.2486 13.7558 21.2486 13.7158 21.2091 13.6758C21.1697 13.7158 21.1697 13.7158 21.1303 13.7558C20.4995 14.5955 19.7111 15.1953 18.765 15.6352C18.4496 15.7951 18.0948 15.9151 17.74 16.0351C17.7006 16.0351 17.6611 16.0351 17.6611 16.1151C17.7006 16.1151 17.74 16.1151 17.7794 16.155C18.2919 16.235 18.8044 16.355 19.2774 16.5149C20.3813 16.9148 21.3274 17.5546 21.9976 18.5143C21.9976 18.5143 22.037 18.5543 22.037 18.5943C22.0764 18.5143 22.0764 18.4744 22.0764 18.4344C22.313 17.5546 22.3524 16.6349 22.1553 15.7552C22.0764 14.9954 21.8005 14.3156 21.288 13.7957Z" fill="#FF7F00"/>
<path d="M15.5717 9.5972C15.5323 9.5972 15.5323 9.55721 15.5717 9.5972C15.4929 9.55721 15.4535 9.55721 15.4535 9.51722C14.8621 9.31728 14.2708 9.2373 13.64 9.2373C12.8516 9.2373 12.0237 9.2373 11.2353 9.2373C11.1959 9.2373 11.1959 9.2373 11.1564 9.2373V9.27729C11.1564 11.0768 11.1564 12.9162 11.1564 14.7157V14.7557H12.7333V11.6366C12.7333 11.2767 12.7333 10.9568 12.7333 10.5969C12.7333 10.237 12.7333 9.9171 12.7333 9.55721L15.5717 9.5972Z" fill="#FF7F00"/>
<path d="M15.8478 21.5934H17.5035C17.5035 21.0335 17.4247 20.5137 17.1093 20.0338C16.7939 19.554 16.3603 19.2341 15.8478 18.9941V21.5934Z" fill="#FF7F00"/>
<path d="M15.9266 12.3965C15.8872 12.6364 15.9266 13.7561 15.9266 13.8361C16.3208 13.4362 16.5573 12.9563 16.6362 12.3965H15.9266Z" fill="#FF7F00"/>
</svg>
