<svg width="164" height="153" viewBox="0 0 164 153" fill="none" xmlns="http://www.w3.org/2000/svg">
<path d="M51.8368 150.113H89.3077V121.251H51.8368V150.113Z" fill="#EEEEEE"/>
<path d="M79.9198 149.908C79.868 149.908 79.826 143.475 79.826 135.54C79.826 127.603 79.868 121.171 79.9198 121.171C79.9713 121.171 80.0134 127.603 80.0134 135.54C80.0134 143.475 79.9713 149.908 79.9198 149.908Z" fill="#E3E3E2"/>
<path d="M83.2581 146.787H86.1305V143.544H83.2581V146.787Z" fill="#FCFDFD"/>
<path d="M63.268 121.326V127.484H67.5244V121.326H63.268Z" fill="#E3E3E2"/>
<path d="M63.268 143.868V150.027H67.5244V143.868H63.268Z" fill="#E3E3E2"/>
<path d="M110.051 150.406H157.297V114.015H110.051V150.406Z" fill="#EEEEEE"/>
<path d="M145.46 150.148C145.408 150.148 145.366 142.037 145.366 132.033C145.366 122.025 145.408 113.915 145.46 113.915C145.512 113.915 145.553 122.025 145.553 132.033C145.553 142.037 145.512 150.148 145.46 150.148Z" fill="#E3E3E2"/>
<path d="M153.291 146.211H149.669V142.122H153.291V146.211Z" fill="#FCFDFD"/>
<path d="M124.464 121.873H129.831V114.108H124.464V121.873Z" fill="#E3E3E2"/>
<path d="M124.464 150.299H129.831V142.533H124.464V150.299Z" fill="#E3E3E2"/>
<path d="M21.0586 115.086C22.9709 114.101 25.2225 113.972 27.3456 114.323C28.486 114.511 29.6751 114.852 30.4511 115.707C31.2271 116.563 31.3742 118.069 30.4831 118.804C29.9526 119.241 29.2128 119.308 28.5249 119.3C26.863 119.28 25.019 118.988 23.6914 119.987C22.9338 120.556 22.4297 121.504 21.5239 121.784C20.638 122.058 19.638 121.536 19.1681 120.737C18.6985 119.939 18.6826 118.94 18.9017 118.04C18.9017 118.04 19.1323 116.078 21.0586 115.086Z" fill="#EEEEEE"/>
<path d="M16.6776 106.638C17.8468 108.306 20.1194 107.754 21.1733 106.736C22.2269 105.718 22.6722 104.242 23.0777 102.836C24.0039 99.6207 24.9381 96.2485 24.2491 92.975C24.0431 91.996 23.6769 91.0198 22.988 90.2941C22.2994 89.5676 21.2405 89.1358 20.2722 89.3912C19.1264 89.6937 18.4142 90.8143 17.8995 91.8807C16.3864 95.0143 15.5855 98.4886 15.5735 101.968C15.5678 103.593 15.7596 105.297 16.6776 106.638Z" fill="#EEEEEE"/>
<path d="M13.4665 109.032C14.7361 107.527 14.9771 105.332 14.4122 103.447C13.8472 101.562 12.571 99.9584 11.1001 98.6492C9.37544 97.114 7.34837 95.9198 5.16897 95.1545C4.31142 94.8534 3.40666 94.6159 2.5019 94.7018C1.59686 94.7884 0.685492 95.2504 0.263327 96.0545C-0.360784 97.2433 0.237609 98.6851 0.884771 99.8618C2.02521 101.934 3.32908 103.917 4.78024 105.786C5.94794 107.289 7.28555 108.772 9.065 109.451C10.8443 110.131 12.6929 110.051 13.636 108.818" fill="#EEEEEE"/>
<path d="M16.5983 131.797C16.6203 131.798 16.6558 131.528 16.704 131.039C16.758 130.488 16.8255 129.795 16.9057 128.971C17.0022 128.1 17.1296 127.065 17.3715 125.937C17.6129 124.812 17.9906 123.593 18.4757 122.357C18.978 121.128 19.5906 120.011 20.3065 119.117C21.0173 118.22 21.8439 117.57 22.6211 117.196C23.3957 116.813 24.0902 116.658 24.5703 116.59C25.0544 116.54 25.3256 116.502 25.3258 116.48C25.3261 116.459 25.0544 116.455 24.5569 116.468C24.0642 116.501 23.3407 116.626 22.5245 116.997C21.7055 117.359 20.8286 118.019 20.0829 118.935C19.3312 119.847 18.6964 120.989 18.1851 122.24C17.6917 123.498 17.3194 124.73 17.0889 125.879C16.859 127.026 16.7538 128.073 16.685 128.951C16.6193 129.829 16.5946 130.54 16.5826 131.032C16.5715 131.523 16.5771 131.796 16.5983 131.797Z" fill="#E3E3E2"/>
<path d="M16.7411 130.207C16.7519 130.206 16.7585 130.085 16.7615 129.855C16.7608 129.591 16.7599 129.258 16.7588 128.849C16.7564 127.977 16.7567 126.714 16.8036 125.154C16.8809 122.036 17.1499 118.679 17.6692 113.947C18.1611 109.497 18.8211 104.318 19.5179 100.951C19.6673 100.185 19.8178 99.496 19.9593 98.8928C20.0945 98.2881 20.2096 97.7668 20.3211 97.3446C20.4166 96.9473 20.4945 96.6239 20.5565 96.3674C20.6069 96.1428 20.6283 96.0232 20.618 96.0203C20.6076 96.0174 20.5658 96.131 20.4955 96.3501C20.4188 96.6031 20.3221 96.9218 20.2032 97.3137C20.0736 97.7316 19.9408 98.2493 19.789 98.8518C19.6309 99.4529 19.4649 100.14 19.3014 100.905C18.612 103.956 17.8823 108.22 17.3579 112.964C16.8374 117.706 16.6028 122.023 16.5822 125.15C16.5635 126.714 16.5969 127.979 16.6368 128.853C16.662 129.261 16.6822 129.594 16.6983 129.857C16.7158 130.087 16.7303 130.207 16.7411 130.207Z" fill="#E3E3E2"/>
<path d="M16.7621 121.879C16.7837 121.878 16.7799 121.505 16.7548 120.828C16.7158 120.153 16.6229 119.177 16.4325 117.982C16.2307 116.79 15.9487 115.374 15.5057 113.836C15.3137 113.133 14.8626 111.448 13.7695 108.93C12.3292 105.518 10.3727 102.728 8.67066 101.001C8.27125 100.542 7.82676 100.211 7.4712 99.8873C7.2871 99.7317 7.12434 99.5772 6.95882 99.4543C6.79228 99.3397 6.63711 99.233 6.49335 99.1339C5.93319 98.7512 5.61936 98.5493 5.60785 98.5676C5.55756 98.6362 6.86269 99.403 8.51046 101.154C10.1518 102.901 12.0536 105.671 13.482 109.054C14.2785 110.889 14.8339 112.526 15.2281 113.915C15.6835 115.438 15.9857 116.84 16.2143 118.021C16.4314 119.203 16.5572 120.169 16.633 120.838C16.6956 121.508 16.7404 121.88 16.7621 121.879Z" fill="#E3E3E2"/>
<path d="M8.14349 135.304L8.97913 146.736H23.6862L24.5218 135.304H8.14349Z" fill="#EEEEEE"/>
<path d="M6.72284 130.797V135.303H26.2767V130.797H6.72284Z" fill="#EEEEEE"/>
<path d="M6.72284 146.298V147.547H25.9535V146.298H6.72284Z" fill="#E3E3E2"/>
<path d="M8.54222 149.607L7.64165 147.409H25.253L24.2022 149.607H8.54222Z" fill="#E3E3E2"/>
<path d="M24.2486 139.041C24.252 139.043 24.2286 139.079 24.1801 139.146C24.1218 139.223 24.0495 139.318 23.9603 139.436C23.7515 139.703 23.4647 140.07 23.1037 140.531L23.0656 140.58L23.0286 140.529C22.4902 139.785 21.7707 138.792 20.9238 137.622H21.045C20.4188 138.507 19.7213 139.493 18.9726 140.553L18.9077 140.644L18.8349 140.558C18.07 139.649 17.2395 138.662 16.3771 137.638L16.5189 137.636C16.4762 137.689 16.4301 137.747 16.3836 137.805C15.6215 138.76 14.8838 139.683 14.1861 140.557L14.1128 140.648L14.0452 140.553C13.2991 139.499 12.6021 138.514 11.9719 137.623L12.0924 137.629C11.0707 138.792 10.2042 139.778 9.53912 140.535L9.49376 140.586L9.45918 140.528C9.12258 139.963 8.85416 139.513 8.65953 139.186C8.57606 139.041 8.50846 138.923 8.4545 138.829C8.40909 138.747 8.38787 138.704 8.39182 138.702C8.3956 138.699 8.42485 138.738 8.47756 138.815C8.53713 138.906 8.61189 139.019 8.7045 139.159C8.90856 139.479 9.19033 139.922 9.54362 140.476L9.46397 140.47C10.1183 139.703 10.9709 138.706 11.9763 137.529L12.0397 137.454L12.097 137.534C12.7329 138.421 13.4363 139.401 14.1889 140.451L14.0482 140.447C14.7441 139.572 15.4799 138.647 16.2405 137.692C16.2869 137.634 16.333 137.576 16.3757 137.522L16.4457 137.434L16.5175 137.52C17.3775 138.547 18.2056 139.535 18.9683 140.446L18.8307 140.451C19.5869 139.398 20.2914 138.417 20.9237 137.536L20.9851 137.451L21.045 137.536C21.874 138.718 22.5782 139.723 23.1053 140.475L23.0304 140.472C23.4059 140.023 23.7044 139.665 23.9217 139.405C24.0185 139.294 24.0971 139.203 24.1605 139.129C24.2154 139.068 24.2454 139.038 24.2486 139.041Z" fill="#F8F8F9"/>
<path d="M24.7266 135.229C24.7266 135.279 21.0413 135.32 16.4966 135.32C11.9502 135.32 8.26591 135.279 8.26591 135.229C8.26591 135.178 11.9502 135.137 16.4966 135.137C21.0413 135.137 24.7266 135.178 24.7266 135.229Z" fill="#F8F8F9"/>
<path d="M127.975 20.5698L124.96 20.5859L124.88 5.6039L127.895 5.58809L127.975 20.5698Z" fill="#E3E3E2"/>
<path d="M106.612 13.8978L98.8052 13.9395L98.7606 5.6688L106.568 5.62711L106.612 13.8978Z" fill="#EEEEEE"/>
<path d="M114.383 13.8564L106.575 13.8984L106.531 5.62741L114.339 5.58575L114.383 13.8564Z" fill="#F8F8F9"/>
<path d="M98.7728 7.95312C103.961 7.99623 109.163 7.96606 114.351 7.88162C114.458 7.87983 114.457 7.71671 114.35 7.71599C109.161 7.68761 103.96 7.71276 98.7721 7.8112C98.6807 7.81299 98.6811 7.9524 98.7728 7.95312Z" fill="#E3E3E2"/>
<path d="M108.114 20.5004L93.9289 20.5762L93.8929 13.8361L108.077 13.7602L108.114 20.5004Z" fill="#EEEEEE"/>
<path d="M122.232 20.4238L108.047 20.5L108.011 13.7595L122.195 13.6837L122.232 20.4238Z" fill="#F8F8F9"/>
<path d="M93.903 15.7106C103.326 15.817 112.782 15.7218 122.206 15.5709C122.312 15.5691 122.312 15.4059 122.205 15.4056C112.781 15.3556 103.323 15.3614 93.9022 15.5683C93.8105 15.5705 93.8112 15.7095 93.903 15.7106Z" fill="#E3E3E2"/>
<path d="M143.555 22.9902H88.5982V20.5751H143.555V22.9902Z" fill="#E3E3E2"/>
<path d="M99.8269 29.9766H97.5956V21.7368H99.8269V29.9766Z" fill="#E3E3E2"/>
<path d="M133.131 29.9766H130.9V21.7368H133.131V29.9766Z" fill="#E3E3E2"/>
<path d="M130.948 20.6049L127.933 20.6211L127.822 0.0159588L130.837 -0.000217438L130.948 20.6049Z" fill="#EEEEEE"/>
<path d="M135.637 20.5334L130.953 20.5586L130.863 3.86063L135.548 3.83547L135.637 20.5334Z" fill="#F8F8F9"/>
<path d="M135.516 7.05393C135.516 7.09848 134.468 7.13477 133.174 7.13477C131.88 7.13477 130.831 7.09848 130.831 7.05393C130.831 7.00902 131.88 6.97273 133.174 6.97273C134.468 6.97273 135.516 7.00902 135.516 7.05393Z" fill="#E3E3E2"/>
<path d="M135.516 6.3524C135.516 6.39731 134.468 6.43359 133.174 6.43359C131.88 6.43359 130.831 6.39731 130.831 6.3524C130.831 6.30785 131.88 6.27156 133.174 6.27156C134.468 6.27156 135.516 6.30785 135.516 6.3524Z" fill="#E3E3E2"/>
<path d="M135.516 18.0227C135.516 18.0676 134.468 18.1035 133.174 18.1035C131.88 18.1035 130.831 18.0676 130.831 18.0227C130.831 17.9778 131.88 17.9415 133.174 17.9415C134.468 17.9415 135.516 17.9778 135.516 18.0227Z" fill="#E3E3E2"/>
<path d="M135.516 17.3211C135.516 17.3661 134.468 17.4023 133.174 17.4023C131.88 17.4023 130.831 17.3661 130.831 17.3211C130.831 17.2766 131.88 17.2403 133.174 17.2403C134.468 17.2403 135.516 17.2766 135.516 17.3211Z" fill="#E3E3E2"/>
<path d="M133.249 15.791C133.204 15.791 133.168 14.1063 133.168 12.0286C133.168 9.95054 133.204 8.26587 133.249 8.26587C133.294 8.26587 133.331 9.95054 133.331 12.0286C133.331 14.1063 133.294 15.791 133.249 15.791Z" fill="#E3E3E2"/>
<path d="M140.666 20.541H135.567V7.93742H140.666V20.541Z" fill="#EEEEEE"/>
<path d="M130.152 3.51926C130.152 3.99747 129.764 4.38477 129.285 4.38477C128.806 4.38477 128.418 3.99747 128.418 3.51926C128.418 3.04142 128.806 2.65411 129.285 2.65411C129.764 2.65411 130.152 3.04142 130.152 3.51926Z" fill="#E3E3E2"/>
<path d="M129.553 18.1562H129.017V5.89828H129.553V18.1562Z" fill="#E3E3E2"/>
<path d="M158.92 150.209C158.92 150.261 124.341 150.303 81.6971 150.303C39.0376 150.303 4.46669 150.261 4.46669 150.209C4.46669 150.158 39.0376 150.116 81.6971 150.116C124.341 150.116 158.92 150.158 158.92 150.209Z" fill="#1D2A30"/>
<path d="M45.4318 18.3517C47.1206 20.3981 48.0574 23.05 48.0286 25.7018C48.0121 27.2169 47.7325 28.8883 48.6154 30.121C49.2853 31.0566 50.507 31.5247 51.0514 32.5386C51.7058 33.7576 51.1478 35.2972 51.5507 36.6208C52.1217 38.4973 54.322 39.2816 55.6269 40.7471C56.7584 42.0179 57.1771 43.8775 56.7213 45.5162C56.2659 47.1545 54.9574 48.5259 53.3481 49.0817C52.484 49.3803 51.4964 49.4446 50.6779 49.0371C49.7954 48.5981 49.2504 47.6967 48.8082 46.8164C47.9394 45.0865 40.3224 35.7247 39.891 33.8378" fill="#1D2A30"/>
<path d="M39.891 16.1461C36.7765 15.6456 33.7829 17.7107 32.4707 20.5753C31.1584 23.4406 31.1224 26.6985 31.0256 29.848C30.9288 32.9967 30.7074 36.2842 29.0976 38.9939C28.0761 40.7134 26.4941 42.222 26.2458 44.2059C26.0238 45.9826 26.9446 47.7718 26.6389 49.5359C26.3728 51.0718 25.2007 52.408 25.2471 53.9662C25.303 55.8406 27.2336 57.2529 29.1106 57.3028C30.9876 57.3531 32.7413 56.3709 34.2129 55.2064C36.6006 53.3166 38.5361 50.8606 39.814 48.0988" fill="#1D2A30"/>
<path d="M34.7669 23.5623C34.3556 20.2821 36.7315 17.2842 40.0669 16.967C43.2106 16.6677 46.0046 19.0052 46.4759 22.1237C46.8889 24.8572 47.2436 27.6168 47.231 28.6188C47.1925 31.6411 45.4217 32.8177 44.704 33.1709C44.5403 33.2514 44.0884 33.343 43.9078 33.3689L43.8909 33.3922L44.563 36.8615C44.8673 39.1346 43.597 41.1617 41.3247 41.4926C39.0445 41.8246 37.2622 40.0788 36.9143 37.8042L34.7669 23.5623Z" fill="#F9AD95"/>
<path d="M45.8567 23.448C45.8067 23.5188 45.407 23.305 44.895 23.3809C44.3824 23.4495 44.0449 23.7671 43.9801 23.7125C43.9488 23.6888 43.9927 23.568 44.1392 23.4254C44.2827 23.2835 44.541 23.1283 44.8601 23.083C45.1796 23.0385 45.4653 23.1164 45.6369 23.2141C45.8121 23.3119 45.8819 23.4164 45.8567 23.448Z" fill="#1D2A30"/>
<path d="M41.3013 24.5535C41.2513 24.6239 40.8513 24.4102 40.3397 24.486C39.827 24.5546 39.4895 24.8726 39.4248 24.8179C39.3935 24.7942 39.4366 24.6735 39.5834 24.5305C39.7273 24.3886 39.9853 24.2334 40.3044 24.1881C40.6239 24.1436 40.9095 24.2219 41.0815 24.3193C41.256 24.4173 41.3262 24.5215 41.3013 24.5535Z" fill="#1D2A30"/>
<path d="M43.1689 27.2966C43.1624 27.2678 43.4729 27.1665 43.9791 27.0257C44.1079 26.993 44.228 26.9491 44.237 26.8568C44.2539 26.758 44.1787 26.6251 44.0931 26.4821C43.924 26.1839 43.747 25.8713 43.561 25.544C42.817 24.2057 42.2583 23.0976 42.3126 23.0682C42.3666 23.0387 43.0138 24.0997 43.7578 25.4376C43.9377 25.7682 44.11 26.0829 44.2744 26.3843C44.3453 26.5255 44.455 26.6815 44.4169 26.887C44.396 26.9901 44.3104 27.0745 44.2298 27.1097C44.1496 27.1475 44.0762 27.1593 44.0122 27.1726C43.497 27.2764 43.175 27.3253 43.1689 27.2966Z" fill="#1D2A30"/>
<path d="M43.887 33.3723C43.887 33.3723 41.9327 33.8222 39.242 32.6976C39.242 32.6976 40.4037 35.195 44.0679 34.3072L43.887 33.3723Z" fill="#F6865E"/>
<path d="M41.0437 23.2131C41.0135 23.3594 40.4922 23.368 39.9018 23.5279C39.3082 23.6759 38.8491 23.922 38.7513 23.8092C38.7067 23.7546 38.7722 23.6112 38.9484 23.4477C39.1233 23.2854 39.4143 23.1122 39.7694 23.0198C40.1245 22.9279 40.4631 22.9369 40.6951 22.994C40.9286 23.0507 41.0556 23.1438 41.0437 23.2131Z" fill="#1D2A30"/>
<path d="M45.4368 22.3146C45.3634 22.4439 44.9929 22.375 44.5676 22.431C44.1406 22.472 43.7952 22.6232 43.6949 22.5136C43.6502 22.4601 43.6898 22.3351 43.8308 22.2025C43.9694 22.0703 44.2151 21.9431 44.5079 21.9093C44.8008 21.8763 45.0692 21.9449 45.2339 22.0423C45.4012 22.14 45.4681 22.2524 45.4368 22.3146Z" fill="#1D2A30"/>
<path d="M40.1911 25.215C40.2263 25.437 40.4436 25.5908 40.6764 25.5581C40.9092 25.5261 41.0696 25.3203 41.0344 25.0979C40.9995 24.8758 40.7822 24.7221 40.5494 24.7544C40.3166 24.7867 40.1562 24.993 40.1911 25.215Z" fill="#1D2A30"/>
<path d="M44.727 24.2346C44.7619 24.4566 44.9792 24.6101 45.212 24.5777C45.4444 24.5454 45.6052 24.3395 45.57 24.1175C45.5351 23.8954 45.3174 23.7417 45.085 23.774C44.8522 23.8063 44.6918 24.0126 44.727 24.2346Z" fill="#1D2A30"/>
<path d="M43.9748 28.2916C43.6452 28.1964 43.3614 28.3631 43.2275 28.6016C43.0937 28.8406 43.1257 29.1668 43.3182 29.3611C43.5107 29.5562 43.8535 29.5868 44.0658 29.4143C44.21 29.2972 44.2824 29.11 44.3007 28.9257C44.318 28.755 44.2899 28.5725 44.1845 28.4371C44.0791 28.302 43.8841 28.229 43.7272 28.2987" fill="#F6865E"/>
<path d="M46.0765 19.6785C45.8419 18.5417 45.0584 17.572 44.1043 16.9095C43.2937 16.3465 42.3349 15.9743 41.3484 15.9441C40.3616 15.9139 39.3503 16.2452 38.6372 16.9274C38.1102 17.4315 37.8403 18.1454 37.8155 18.8737L37.8731 18.371C37.7249 18.7839 37.7252 19.2315 37.8792 19.6372L37.8799 19.6397L37.8796 19.6379C37.963 19.8578 38.063 20.078 38.1515 20.2986C38.4034 20.9266 38.8912 21.4566 39.4967 21.7601C39.7755 21.8999 40.0846 21.9937 40.3961 21.9789C40.7077 21.9642 41.0221 21.8302 41.2114 21.5823C41.4816 21.2284 41.4503 20.7376 41.4064 20.2946C41.674 20.7121 41.9582 21.1451 42.3882 21.3926C42.8185 21.6394 43.4401 21.6308 43.7427 21.2381C44.0359 20.8576 43.9201 20.3112 43.7503 19.8624C44.0251 20.281 44.4191 20.6209 44.8738 20.8318C45.1253 20.9485 45.4217 21.0254 45.6768 20.9155C45.8927 20.8221 46.038 20.6061 46.0934 20.3776C46.1485 20.1491 46.124 19.9084 46.0765 19.6785Z" fill="#1D2A30"/>
<path d="M43.4768 20.6172C43.4445 20.6183 43.4499 20.1911 43.3113 19.5286C43.1725 18.8772 42.8422 17.9567 42.0691 17.2762C41.6881 16.9403 41.2499 16.7078 40.8243 16.6051C40.3979 16.4998 39.9921 16.5124 39.6658 16.576C39.0042 16.7103 38.6836 17.024 38.6639 16.9909C38.6574 16.9838 38.7265 16.8997 38.8848 16.7854C39.042 16.6712 39.2956 16.5339 39.6367 16.447C39.977 16.3629 40.4066 16.3345 40.8638 16.4373C41.3215 16.5379 41.791 16.7811 42.1932 17.1361C43.0106 17.8561 43.3336 18.8323 43.4416 19.5038C43.4966 19.8462 43.5089 20.126 43.5063 20.3186C43.5038 20.5112 43.4887 20.6172 43.4768 20.6172Z" fill="#365462"/>
<path d="M76.6115 62.5058L62.778 57.0293C62.778 57.0293 55.6913 47.7487 55.8392 47.5687L50.865 53.0089L58.0949 62.7832L74.8479 66.6997L82.7825 66.7637C82.1688 63.7159 76.6115 62.5058 76.6115 62.5058Z" fill="#F9AD95"/>
<path d="M46.4604 36.0314L44.5766 35.302L36.4387 36.3328V37.7685L36.2055 37.7973C36.2055 37.7973 33.6777 38.2561 31.2202 39.7295C28.2444 41.5137 26.6978 44.9549 27.249 48.3774C27.5799 50.4325 28.2215 52.9305 29.4573 54.3741C31.8208 57.1352 33.9795 53.7228 33.9795 53.7228C33.9795 53.7228 35.463 57.1022 35.3778 58.7002C35.3062 60.0386 34.7135 62.8273 34.5229 63.6982C34.4907 63.8452 34.5873 63.9867 34.7353 64.014L51.9029 67.1836L51.9868 62.9933L51.4406 45.7579L50.6833 39.0641C50.6833 39.0641 50.7071 35.8661 46.4604 36.0314Z" fill="#2553A7"/>
<path d="M50.42 37.9508L56.9656 47.3956L51.6957 53.8066L50.42 37.9508Z" fill="#2553A7"/>
<path d="M51.8231 57.8262C51.8101 57.8258 51.8015 57.6088 51.7975 57.2165C51.7921 56.7929 51.7853 56.2335 51.7767 55.557C51.7428 54.1572 51.6637 52.2217 51.3845 50.1041C51.1133 47.9855 50.701 46.0924 50.3854 44.7275C50.2304 44.0689 50.102 43.5239 50.0052 43.1118C49.9152 42.7299 49.8717 42.5168 49.8843 42.5136C49.8965 42.5104 49.9642 42.7166 50.0757 43.0931C50.1876 43.4693 50.3394 44.0165 50.5142 44.6962C50.8632 46.055 51.2978 47.9513 51.5702 50.0804C51.8508 52.2074 51.9091 54.1525 51.9091 55.5555C51.9022 56.2579 51.8921 56.8256 51.8702 57.2179C51.8522 57.6099 51.836 57.8265 51.8231 57.8262Z" fill="#1D2A30"/>
<path d="M35.7162 43.4658C35.7152 43.4959 35.2194 43.4898 34.4224 43.5322C33.6256 43.5742 32.527 43.6831 31.3356 43.9285C30.1443 44.176 29.0925 44.5116 28.3447 44.7897C27.5964 45.0667 27.144 45.269 27.1311 45.2417C27.1253 45.2298 27.2327 45.1673 27.4321 45.0635C27.6306 44.9582 27.9255 44.8213 28.2964 44.6665C29.037 44.355 30.0938 43.9953 31.2976 43.7453C32.5013 43.4974 33.6144 43.4083 34.4179 43.4C34.8199 43.3953 35.1451 43.404 35.3691 43.4219C35.5934 43.4377 35.7166 43.4528 35.7162 43.4658Z" fill="#FCFDFD"/>
<path d="M50.8787 47.7901C50.8823 47.8138 50.5722 47.8889 50.0624 47.9669C49.5533 48.0452 48.8438 48.1203 48.0574 48.1476C47.2706 48.1742 46.5575 48.1476 46.0441 48.1045C45.5304 48.0613 45.2159 48.0078 45.2181 47.9834C45.2202 47.9561 45.5383 47.9633 46.051 47.9722C46.5633 47.9816 47.2706 47.987 48.0509 47.9607C48.8312 47.9334 49.5364 47.8799 50.0469 47.8357C50.5574 47.7915 50.8744 47.7628 50.8787 47.7901Z" fill="#FCFDFD"/>
<path d="M53.8838 43.5153C53.9169 43.5498 53.3373 44.1283 52.4793 44.6496C51.6234 45.1752 50.8442 45.4271 50.8283 45.3815C50.8078 45.3304 51.5421 45.006 52.3814 44.4901C53.2233 43.9788 53.8471 43.4733 53.8838 43.5153Z" fill="#FCFDFD"/>
<path d="M51.2381 39.1368C51.2701 39.1685 50.4984 39.8619 49.3317 40.3505C48.1682 40.8474 47.1328 40.9185 47.1324 40.8732C47.1223 40.8158 48.1236 40.6638 49.2587 40.178C50.3977 39.7016 51.2036 39.0894 51.2381 39.1368Z" fill="#FCFDFD"/>
<path d="M51.5953 55.102C51.6004 55.1139 51.4791 55.1767 51.2554 55.2802C51.0323 55.3858 50.7013 55.5213 50.2865 55.6733C49.4583 55.9776 48.2794 56.3171 46.9446 56.5233C45.6092 56.7267 44.3824 56.7561 43.5006 56.7137C43.0595 56.6936 42.7033 56.6634 42.4587 56.6297C42.214 56.598 42.0795 56.5743 42.0809 56.5614C42.0838 56.5309 42.6267 56.5747 43.5038 56.5819C44.3809 56.5898 45.5941 56.5399 46.9162 56.3383C48.238 56.1342 49.4098 55.8184 50.2437 55.5479C51.0787 55.2781 51.5831 55.0736 51.5953 55.102Z" fill="#FCFDFD"/>
<path d="M51.7284 59.9738C51.7313 59.9796 51.6784 60.0094 51.5752 60.0604C51.4511 60.1193 51.301 60.1905 51.1194 60.2767C50.7236 60.4643 50.1376 60.7075 49.4036 60.9813C48.6708 61.2583 47.7814 61.5446 46.7816 61.8191C45.7797 62.0835 44.6651 62.3304 43.4833 62.5172C42.2993 62.6968 41.1624 62.7989 40.127 62.8502C39.0909 62.8912 38.1566 62.8872 37.3737 62.8449C36.5912 62.8061 35.959 62.7514 35.5249 62.6925C35.3261 62.6652 35.1611 62.6429 35.0253 62.6246C34.9114 62.607 34.8519 62.5948 34.8528 62.5883C34.8536 62.5819 34.9143 62.5819 35.0296 62.5873C35.1662 62.5962 35.3318 62.607 35.532 62.6199C35.967 62.6566 36.5988 62.6907 37.3788 62.713C38.1587 62.7381 39.0884 62.7281 40.1184 62.6778C41.148 62.6178 42.2774 62.5111 43.4545 62.3325C44.6299 62.1468 45.7383 61.9064 46.7378 61.6524C47.7343 61.3887 48.6233 61.1167 49.359 60.857C50.0955 60.5997 50.6873 60.3759 51.0909 60.2095C51.2777 60.1366 51.4324 60.0759 51.5597 60.0263C51.6677 59.986 51.7259 59.9681 51.7284 59.9738Z" fill="#FCFDFD"/>
<path d="M20.1614 136.349L18.2169 145.128L14.6743 151.628C14.4189 152.097 14.6144 152.683 15.0997 152.905C15.3715 153.03 15.6842 153.017 15.9433 152.868C17.5914 151.916 23.6371 148.388 23.7435 147.738C23.8666 146.984 26.41 138.614 26.41 138.614L20.1614 136.349Z" fill="#2553A7"/>
<path d="M15.5052 153C15.3665 153 15.2276 152.969 15.0997 152.906C15.2229 152.963 15.3547 152.991 15.486 152.991C15.6441 152.991 15.8016 152.95 15.9433 152.868C16.7481 152.404 18.6019 151.324 20.3006 150.266C20.3021 150.266 20.3053 150.266 20.3069 150.266C19.2175 150.948 17.7988 151.809 15.9696 152.875C15.8268 152.958 15.6662 153 15.5052 153ZM20.4828 150.152C20.7763 149.968 21.0641 149.786 21.3393 149.608H21.344C21.086 149.774 20.8017 149.955 20.4884 150.152C20.4869 150.152 20.4844 150.152 20.4828 150.152Z" fill="white"/>
<path d="M21.344 149.607H21.3393C22.4159 148.911 23.3031 148.287 23.62 147.935C23.5268 148.081 23.4064 148.21 23.2632 148.313C22.9355 148.55 22.3366 148.968 21.344 149.607Z" fill="#F6F7F7"/>
<path d="M23.8243 147.41H23.8194C23.8392 147.334 23.8621 147.247 23.8881 147.15H23.8884L23.8243 147.41Z" fill="#F6F7F7"/>
<path d="M23.7662 147.627C23.7794 147.568 23.7973 147.495 23.8194 147.409H23.8243L23.7974 147.518C23.7884 147.555 23.778 147.591 23.7662 147.627Z" fill="#F6F7F7"/>
<path d="M20.3069 150.266C20.3053 150.266 20.3021 150.266 20.3006 150.266C20.3616 150.228 20.4224 150.19 20.4828 150.152C20.4844 150.152 20.4869 150.152 20.4885 150.152C20.429 150.189 20.3683 150.227 20.3069 150.266Z" fill="#A5ADAD"/>
<path d="M15.486 152.99C15.3547 152.99 15.2229 152.962 15.0997 152.905L23.8884 147.149C23.8621 147.245 23.8392 147.332 23.8194 147.409C23.7973 147.495 23.7794 147.568 23.7662 147.627C23.7299 147.735 23.6808 147.839 23.62 147.935C23.3031 148.287 22.4159 148.911 21.3393 149.607C21.0641 149.785 20.7763 149.968 20.4828 150.152C20.4224 150.189 20.3616 150.227 20.3006 150.265C18.6019 151.324 16.7481 152.403 15.9433 152.868C15.8016 152.949 15.6441 152.99 15.486 152.99Z" fill="#F9A8BF"/>
<path d="M22.9697 144.914C22.7526 144.914 22.5338 144.771 22.4638 144.563C22.3825 144.32 22.511 144.03 22.7376 143.913L22.737 143.914C22.7976 143.874 22.8691 143.856 22.9436 143.856C23.1498 143.856 23.3791 143.993 23.464 144.175C23.5795 144.424 23.3846 144.794 23.1267 144.887C23.0758 144.905 23.0229 144.914 22.9697 144.914Z" fill="#F9A8BF"/>
<path d="M18.0353 149.58C17.9799 149.592 17.895 149.086 17.4354 148.713C16.9871 148.326 16.474 148.331 16.4761 148.274C16.4738 148.251 16.6011 148.21 16.8128 148.232C17.0229 148.251 17.3116 148.352 17.5625 148.561C17.8127 148.771 17.9628 149.038 18.0187 149.241C18.0767 149.446 18.0586 149.578 18.0353 149.58Z" fill="#1D2A30"/>
<path d="M17.1253 150.598C17.0743 150.626 16.8635 150.273 16.443 150.033C16.0279 149.783 15.6168 149.771 15.6161 149.714C15.6019 149.663 16.0684 149.581 16.5431 149.863C17.0209 150.139 17.1766 150.586 17.1253 150.598Z" fill="#1D2A30"/>
<path d="M19.5628 148.366C19.5116 148.397 19.1898 147.853 18.5688 147.422C17.9543 146.982 17.3335 146.861 17.346 146.803C17.3433 146.752 18.0226 146.79 18.6827 147.261C19.3477 147.725 19.6108 148.351 19.5628 148.366Z" fill="#1D2A30"/>
<path d="M20.3771 145.747C20.3409 145.793 19.9074 145.474 19.2845 145.297C18.6637 145.112 18.1264 145.149 18.1209 145.09C18.1071 145.042 18.6722 144.91 19.3398 145.108C20.0087 145.299 20.4147 145.713 20.3771 145.747Z" fill="#1D2A30"/>
<path d="M21.0132 143.184C20.9737 143.228 20.5596 142.818 19.8882 142.686C19.2198 142.539 18.6761 142.748 18.6574 142.693C18.6476 142.671 18.7699 142.585 19.0002 142.517C19.2286 142.45 19.5678 142.418 19.9286 142.493C20.289 142.568 20.5869 142.734 20.7694 142.887C20.9533 143.04 21.0309 143.168 21.0132 143.184Z" fill="#1D2A30"/>
<path d="M20.0234 142.202C20.0125 142.2 20.0213 142.077 20.0927 141.869C20.164 141.662 20.302 141.366 20.5683 141.068C20.7025 140.929 20.8522 140.744 21.1244 140.689C21.26 140.661 21.4354 140.728 21.5106 140.869C21.5858 141.006 21.5831 141.158 21.552 141.297C21.4067 141.849 20.7985 142.268 20.1547 142.195C19.511 142.11 19.0311 141.613 18.9004 141.074C18.8766 140.937 18.8764 140.776 18.9805 140.645C19.0837 140.512 19.2761 140.496 19.3961 140.549C19.6461 140.651 19.7731 140.841 19.8985 140.989C20.1403 141.305 20.2643 141.604 20.3285 141.813C20.3928 142.023 20.3999 142.146 20.3887 142.148C20.3526 142.164 20.2732 141.665 19.7895 141.077C19.6653 140.938 19.5248 140.766 19.3421 140.703C19.2532 140.672 19.1659 140.689 19.1154 140.755C19.0647 140.817 19.0561 140.931 19.0795 141.04C19.1929 141.483 19.6329 141.935 20.178 141.999C20.7199 142.066 21.2541 141.697 21.3751 141.253C21.4026 141.146 21.4005 141.031 21.3588 140.954C21.3176 140.877 21.2358 140.838 21.1472 140.852C20.9601 140.878 20.801 141.034 20.6702 141.163C20.1443 141.714 20.0603 142.22 20.0234 142.202Z" fill="#1D2A30"/>
<path d="M25.8792 140.371C26.1913 139.335 26.41 138.615 26.41 138.615L25.8792 140.371Z" fill="#B2B1B0"/>
<path d="M19.6738 138.551L19.9346 137.302L20.1614 136.349L19.6738 138.551Z" fill="#A2A1A0"/>
<path d="M25.8792 140.371L19.514 139.317L19.6738 138.552L20.1614 136.35L26.41 138.615C26.41 138.615 26.1913 139.335 25.8791 140.371" fill="#6165D7"/>
<path d="M48.6031 139.599L48.0775 146.614C48.0775 146.614 55.0405 149.503 55.07 150.809L41.4139 150.28L41.7838 139.317L48.6031 139.599Z" fill="#2553A7"/>
<path d="M43.9859 146.9C43.747 146.9 43.5124 146.717 43.4675 146.479C43.42 146.227 43.5869 145.958 43.8272 145.873C43.8751 145.85 43.9269 145.84 43.9801 145.84C44.2018 145.84 44.446 146.02 44.5112 146.231C44.5917 146.493 44.3482 146.834 44.0802 146.891C44.0489 146.897 44.0172 146.9 43.9859 146.9Z" fill="#F9A8BF"/>
<path d="M55.07 150.809L41.6722 150.29L55.07 150.809C55.0664 150.657 54.97 150.485 54.8016 150.297C54.8174 150.297 54.8344 150.297 54.8505 150.297C54.9873 150.422 55.1121 150.599 55.07 150.809Z" fill="white"/>
<path d="M54.8505 150.297C54.8343 150.297 54.8174 150.297 54.8016 150.297C54.7602 150.251 54.7149 150.205 54.6656 150.157C54.7192 150.191 54.7861 150.238 54.8505 150.297Z" fill="#A5ADAD"/>
<path d="M55.07 150.809L41.6722 150.29L41.4139 150.28L41.4945 149.176L54.5577 150.096C54.5577 150.096 54.6023 150.118 54.6656 150.158C54.7149 150.205 54.7602 150.252 54.8016 150.297C54.97 150.485 55.0664 150.657 55.07 150.809Z" fill="#F9A8BF"/>
<path d="M48.3013 146.552C48.2966 146.618 47.9621 146.636 47.6257 146.837C47.2839 147.03 47.1036 147.312 47.0432 147.283C46.9824 147.268 47.0972 146.873 47.5091 146.637C47.9182 146.396 48.3182 146.492 48.3013 146.552Z" fill="#1D2A30"/>
<path d="M49.7109 147.2C49.7238 147.265 49.4306 147.367 49.1928 147.64C48.9475 147.906 48.8784 148.208 48.8122 148.203C48.7492 148.211 48.7183 147.819 49.0198 147.485C49.3187 147.149 49.712 147.136 49.7109 147.2Z" fill="#1D2A30"/>
<path d="M50.4578 148.943C50.3966 148.955 50.3167 148.619 50.5024 148.26C50.6851 147.901 51.0053 147.769 51.0312 147.826C51.0668 147.882 50.8567 148.07 50.7089 148.366C50.5545 148.659 50.5243 148.939 50.4578 148.943Z" fill="#1D2A30"/>
<path d="M48.2438 144.941C48.2135 145 47.911 144.897 47.5332 144.908C47.1551 144.911 46.8569 145.026 46.8241 144.968C46.7874 144.918 47.0835 144.683 47.5289 144.676C47.9739 144.666 48.2783 144.89 48.2438 144.941Z" fill="#1D2A30"/>
<path d="M41.696 141.918L41.7413 140.473L41.7449 140.473L41.696 141.918Z" fill="#B2B1B0"/>
<path d="M48.4053 142.238L41.696 141.917L41.7449 140.472L48.497 140.988L48.4053 142.238Z" fill="#6165D7"/>
<path d="M48.3236 143.523C48.3233 143.55 48.0581 143.581 47.6397 143.493C47.4314 143.448 47.1875 143.37 46.9328 143.246C46.8058 143.183 46.6759 143.109 46.5482 143.022C46.4867 142.979 46.4136 142.936 46.3478 142.854C46.2765 142.781 46.2417 142.603 46.3309 142.498C46.405 142.396 46.5305 142.356 46.6291 142.357C46.7299 142.358 46.8104 142.381 46.8842 142.402C47.0349 142.445 47.1756 142.501 47.3037 142.565C47.5602 142.693 47.7664 142.851 47.9182 143.002C48.224 143.307 48.3222 143.561 48.2992 143.573C48.2679 143.593 48.1218 143.379 47.8088 143.125C47.6527 142.998 47.4523 142.866 47.2123 142.758C47.0921 142.705 46.9619 142.658 46.8241 142.621C46.6809 142.578 46.5582 142.573 46.5183 142.635C46.5039 142.659 46.5018 142.669 46.5305 142.712C46.5604 142.753 46.6172 142.793 46.6777 142.835C46.7953 142.919 46.9144 142.992 47.031 143.056C47.2648 143.183 47.4893 143.272 47.6825 143.334C48.0693 143.458 48.3261 143.487 48.3236 143.523Z" fill="#1D2A30"/>
<path d="M48.233 143.615C48.2092 143.624 48.0858 143.381 48.0783 142.948C48.075 142.734 48.1074 142.475 48.2006 142.204C48.2477 142.069 48.3103 141.931 48.3909 141.796C48.4762 141.664 48.5809 141.488 48.8406 141.468C48.9759 141.468 49.0842 141.578 49.1187 141.67C49.1604 141.764 49.1662 141.843 49.1791 141.923C49.1982 142.083 49.1892 142.239 49.1619 142.383C49.1076 142.671 48.9791 142.908 48.8424 143.077C48.5618 143.42 48.2804 143.489 48.2758 143.466C48.2549 143.432 48.4923 143.312 48.7097 142.981C48.8169 142.817 48.9147 142.6 48.9511 142.347C48.969 142.221 48.9723 142.087 48.9536 141.952C48.9377 141.806 48.8881 141.687 48.833 141.7C48.7651 141.696 48.6456 141.801 48.5852 141.914C48.5103 142.034 48.4495 142.157 48.4013 142.278C48.3063 142.521 48.2599 142.756 48.2423 142.955C48.2081 143.354 48.2697 143.606 48.233 143.615Z" fill="#1D2A30"/>
<path d="M34.464 63.9652C34.464 63.9652 32.2959 64.06 30.8671 71.4328C29.4385 78.806 18.457 138.543 18.457 138.543L26.4102 138.615L41.4139 81.8211L40.417 140.371L48.497 140.988C48.497 140.988 54.5606 76.2149 54.6178 72.446C54.689 67.7473 51.9868 62.9944 51.9868 62.9944L34.464 63.9652Z" fill="#1D2A30"/>
<path d="M45.3955 63.3342C45.4462 63.3446 44.6209 67.5568 43.5524 72.7412C42.4835 77.9275 41.5762 82.1221 41.5255 82.1113C41.4747 82.1009 42.3 77.8894 43.3689 72.7035C44.4374 67.5191 45.3451 63.3238 45.3955 63.3342Z" fill="#365462"/>
<path d="M46.6359 64.3856C46.6223 64.3673 46.8514 64.2994 47.0979 64.5197C47.2116 64.6256 47.3231 64.8021 47.3148 65.0277C47.3105 65.2562 47.1375 65.4786 46.9076 65.5727C46.6798 65.6712 46.3996 65.6396 46.2326 65.4833C46.065 65.3316 46.0168 65.1283 46.02 64.9734C46.0344 64.6432 46.2431 64.5268 46.2463 64.5495C46.2715 64.5678 46.1294 64.7033 46.1524 64.9698C46.1643 65.097 46.2201 65.2519 46.3442 65.3518C46.4643 65.4538 46.6597 65.4736 46.8349 65.4003C47.0097 65.3263 47.1321 65.1728 47.1425 65.0158C47.158 64.8574 47.0857 64.709 47.0029 64.6116C46.8277 64.4094 46.6316 64.4162 46.6359 64.3856Z" fill="#365462"/>
<path d="M46.2913 67.3058C46.2863 67.2835 46.5151 67.3134 46.6399 67.6051C46.6949 67.7427 46.7201 67.9421 46.6176 68.134C46.5172 68.3301 46.2708 68.4462 46.0337 68.4253C45.7959 68.4095 45.57 68.2565 45.5016 68.047C45.43 67.8415 45.4858 67.6486 45.5617 67.521C45.7301 67.2526 45.9607 67.258 45.9524 67.2796C45.9639 67.308 45.7829 67.3522 45.6786 67.5832C45.63 67.6935 45.6045 67.8472 45.6624 67.9849C45.7153 68.1225 45.8696 68.2245 46.0481 68.2389C46.2265 68.2522 46.3945 68.1753 46.4683 68.0477C46.5467 67.9205 46.5456 67.7646 46.5147 67.6482C46.4474 67.4039 46.2755 67.332 46.2913 67.3058Z" fill="#365462"/>
<path d="M38.6696 64.4595C38.6804 64.4627 38.652 64.5956 38.5746 64.8284C38.4984 65.0616 38.3638 65.3922 38.1555 65.7798C37.7454 66.5534 36.9805 67.5507 35.8476 68.2959C34.7146 69.0417 33.4949 69.3504 32.6215 69.4219C32.1825 69.4603 31.8255 69.4531 31.5809 69.4316C31.3362 69.4104 31.2028 69.3841 31.2039 69.3726C31.2056 69.3378 31.7472 69.3989 32.607 69.2904C33.4616 69.1865 34.6422 68.8653 35.7446 68.1399C36.8467 67.4146 37.6079 66.4581 38.04 65.7148C38.4793 64.9686 38.6365 64.4472 38.6696 64.4595Z" fill="#365462"/>
<path d="M54.1447 69.6998C54.1371 69.7103 54.0529 69.6589 53.9062 69.5561C53.7569 69.4566 53.5575 69.2888 53.3291 69.0632C52.8711 68.6148 52.3311 67.8855 51.9738 66.9661C51.6206 66.0452 51.531 65.1424 51.5695 64.5028C51.5871 64.1827 51.622 63.9244 51.6655 63.7509C51.7055 63.5763 51.7335 63.4818 51.7461 63.4843C51.7799 63.4904 51.7033 63.8777 51.7019 64.5061C51.6983 65.133 51.8058 66.0043 52.1487 66.8989C52.4959 67.7917 53.0013 68.5099 53.4255 68.9719C53.8486 69.4369 54.1655 69.6725 54.1447 69.6998Z" fill="#365462"/>
<path d="M31.3015 49.7554L34.8351 49.9505C35.0584 51.0944 35.8341 52.8434 35.8341 52.8434C38.6782 47.913 40.8836 41.3072 41.4312 38.6525C41.3513 38.3873 41.2567 38.0938 41.1391 37.7661C41.0031 37.3875 41.1196 36.6711 41.1837 36.273C41.2794 35.682 41.4449 34.8865 41.4945 34.5186C41.646 33.3966 41.8269 33.2205 42.2187 33.3473C42.7519 33.5198 42.0003 36.4979 42.4371 36.5625C42.672 36.597 42.9588 35.577 43.0422 34.7399C43.1253 33.9028 43.5045 31.3278 43.7816 31.1561C44.1877 30.9046 44.5417 31.3027 44.4392 32.1362C44.3352 32.9798 44.2043 35.4958 44.6475 35.53C45.0839 35.5634 45.4502 31.2944 45.4502 31.2944C45.4502 31.2944 45.3814 30.3653 45.8941 30.3876C46.8194 30.4278 46.0963 34.9285 46.0171 35.355C45.9617 35.6514 46.4424 35.7057 46.4848 35.3841C46.5284 35.0525 46.7514 31.1148 47.6933 31.1464C48.4164 31.1708 47.1335 34.8552 47.5393 35.7096C47.9451 36.5633 48.2272 32.8084 48.9176 32.8602C49.1745 32.8796 49.3644 32.9298 48.8921 35.0546C48.6384 36.1968 47.893 38.2964 47.2414 40.035C46.1477 45.9272 41.347 64.7762 33.8204 61.3257C29.6089 59.3952 27.6436 49.8362 27.6436 49.8362L31.3015 49.7554Z" fill="#F9AD95"/>
<path d="M47.2418 40.039C47.2378 40.0376 47.2501 39.9938 47.2774 39.9101C47.3098 39.8149 47.3515 39.6927 47.4033 39.5393C47.521 39.1994 47.6857 38.7234 47.8958 38.1169C48.1056 37.4982 48.3632 36.7408 48.6193 35.8509C48.7507 35.4065 48.8568 34.925 48.9561 34.4087C49.0039 34.1511 49.0529 33.8856 49.0831 33.6129C49.0957 33.4775 49.1101 33.3381 49.1018 33.2044C49.0921 33.0643 49.0705 32.9497 48.9597 32.9479C48.8453 32.917 48.7683 33.0115 48.6899 33.1304C48.6175 33.2501 48.5614 33.388 48.5111 33.5289C48.4103 33.8116 48.3315 34.1131 48.2535 34.4213C48.175 34.7296 48.1027 35.0465 48.0085 35.3695C47.952 35.5326 47.9268 35.6899 47.793 35.8653C47.7678 35.8865 47.7451 35.9145 47.6944 35.9246C47.639 35.9386 47.5976 35.9174 47.5591 35.894C47.5073 35.848 47.4825 35.8017 47.4598 35.7586C47.4192 35.6677 47.3943 35.5746 47.3839 35.4844C47.3195 34.7634 47.4839 34.0664 47.5965 33.3428C47.6584 32.982 47.7239 32.617 47.7714 32.2473C47.7944 32.063 47.8138 31.8765 47.816 31.6929C47.8228 31.5226 47.793 31.2927 47.7181 31.26C47.626 31.2255 47.4594 31.3297 47.3713 31.482C47.2724 31.6319 47.1986 31.8097 47.136 31.9911C47.0112 32.3569 46.9295 32.7463 46.8594 33.1408C46.7906 33.5364 46.737 33.9395 46.6928 34.348C46.673 34.5525 46.6528 34.7583 46.6327 34.9649L46.6054 35.2768C46.5978 35.3612 46.5978 35.5376 46.4625 35.6389C46.3373 35.7327 46.1704 35.7424 46.0369 35.6558C45.97 35.6127 45.9178 35.5326 45.9078 35.4514C45.8991 35.4101 45.9067 35.3723 45.9096 35.3364L45.9232 35.2592C45.9549 35.0508 45.9873 34.8417 46.0193 34.6311C46.0787 34.2093 46.1301 33.7829 46.1711 33.3528C46.2114 32.9228 46.2413 32.4884 46.2481 32.0526C46.2488 31.6214 46.2456 31.1695 46.1211 30.7746C46.0805 30.6546 46.0139 30.5458 45.9398 30.5145C45.8635 30.4868 45.7534 30.5149 45.6969 30.5917C45.5721 30.7667 45.5516 31.0552 45.5613 31.2898L45.562 31.3013L45.5613 31.3078C45.4843 32.1521 45.3922 32.9817 45.2706 33.7972C45.208 34.205 45.1411 34.6089 45.0386 35.0077C45.013 35.1076 44.9824 35.2074 44.9472 35.3069C44.8993 35.4065 44.886 35.5078 44.7432 35.6174C44.6198 35.6763 44.5281 35.6091 44.4791 35.5592C44.4266 35.5042 44.4054 35.4499 44.3809 35.3968C44.3395 35.2911 44.3187 35.1891 44.3003 35.0871C44.1859 34.2773 44.233 33.498 44.2787 32.7338C44.2938 32.3497 44.3877 31.9696 44.337 31.6326C44.3129 31.4655 44.2474 31.2977 44.1363 31.2234C44.0816 31.1874 44.0193 31.1792 43.9521 31.195C43.9182 31.2054 43.8848 31.2172 43.8517 31.2374C43.819 31.264 43.8258 31.2539 43.801 31.2992C43.661 31.5927 43.593 31.9638 43.5175 32.2998C43.4466 32.6432 43.3862 32.9853 43.3311 33.323C43.2764 33.6604 43.2278 33.9938 43.1847 34.3222C43.1401 34.648 43.1178 34.9782 43.0534 35.299C42.9926 35.6188 42.9184 35.9299 42.8019 36.2282C42.7724 36.3029 42.7386 36.3765 42.6979 36.4491C42.6475 36.5166 42.6191 36.6047 42.4813 36.6467C42.4025 36.6683 42.3342 36.6147 42.2989 36.5698C42.2687 36.5235 42.254 36.4793 42.2421 36.4369C42.2237 36.3543 42.2162 36.2749 42.2133 36.1976C42.2054 35.5854 42.2964 35.0238 42.3266 34.4817C42.3439 34.2129 42.3561 33.9471 42.3248 33.7013C42.3086 33.586 42.2716 33.4509 42.2057 33.424C42.1093 33.3855 41.9849 33.3654 41.9125 33.4175C41.7535 33.5321 41.6981 33.7947 41.6463 34.0053C41.5952 34.2277 41.5722 34.4479 41.5315 34.6602C41.3819 35.5103 41.2232 36.24 41.1462 36.8364C41.1113 37.1346 41.0969 37.4037 41.1347 37.6279C41.1847 37.8453 41.2578 38.0378 41.2998 38.1887C41.3423 38.3321 41.3761 38.4464 41.4031 38.5362C41.425 38.6145 41.4344 38.6551 41.4312 38.6562C41.4276 38.6572 41.411 38.6188 41.3819 38.5426C41.3502 38.4546 41.3096 38.3429 41.2588 38.2024C41.2088 38.0493 41.1336 37.8744 41.0721 37.6398C41.0253 37.4044 41.034 37.1303 41.0631 36.8274C41.1282 36.2202 41.2736 35.4956 41.4117 34.6441C41.4499 34.4325 41.4704 34.2072 41.5197 33.9787C41.5456 33.8641 41.5708 33.7477 41.6143 33.6305C41.66 33.5174 41.7089 33.3866 41.8399 33.3007C41.9791 33.2141 42.1338 33.2458 42.2644 33.2953C42.4331 33.3916 42.4392 33.5533 42.4687 33.6801C42.5054 33.9489 42.4939 34.2172 42.4795 34.4914C42.4533 35.0368 42.368 35.6098 42.3802 36.1901C42.3835 36.2616 42.3917 36.3316 42.4061 36.3956C42.4216 36.4656 42.4572 36.4922 42.45 36.4789C42.4626 36.4814 42.5177 36.4193 42.5486 36.3625C42.5824 36.3011 42.613 36.2343 42.64 36.1646C42.7472 35.8843 42.8188 35.5779 42.876 35.2667C42.9364 34.9559 42.9562 34.6322 43.0001 34.2988C43.0415 33.9679 43.0886 33.6327 43.1419 33.2928C43.1955 32.9529 43.2545 32.6084 43.3246 32.2602C43.4045 31.9099 43.4552 31.564 43.6258 31.1996C43.6362 31.163 43.7103 31.0811 43.752 31.0613C43.7974 31.034 43.8488 31.0139 43.9031 30.9981C44.0129 30.969 44.1474 30.9852 44.2471 31.0523C44.4449 31.1914 44.5075 31.4087 44.5406 31.601C44.5705 31.7982 44.5604 31.998 44.5381 32.188C44.5169 32.3723 44.5014 32.5602 44.4881 32.7485C44.4442 33.5005 44.4029 34.2877 44.5133 35.0501C44.5299 35.1428 44.5504 35.2365 44.5824 35.3159C44.5986 35.3533 44.6176 35.3928 44.636 35.4093L44.6536 35.4234L44.6551 35.4237L44.6558 35.4248C44.6493 35.5092 44.6547 35.4428 44.6533 35.4593L44.6385 35.4284C44.6572 35.4133 44.7148 35.3145 44.7425 35.2311C44.7741 35.1413 44.8029 35.0483 44.827 34.9527C44.9252 34.5693 44.9911 34.168 45.0526 33.7646C45.172 32.9562 45.2634 32.1273 45.3393 31.2888V31.3064C45.335 31.0301 45.3303 30.7405 45.5214 30.4541C45.6329 30.3129 45.834 30.2364 46.0233 30.3076C46.2103 30.3949 46.2794 30.5619 46.3319 30.7006C46.4748 31.1605 46.4701 31.611 46.4712 32.0558C46.464 32.5006 46.4334 32.9393 46.3924 33.3737C46.3506 33.808 46.2985 34.2374 46.238 34.6624C46.2053 34.8744 46.1726 35.086 46.1398 35.2965C46.1132 35.4302 46.1197 35.4345 46.1596 35.474C46.2028 35.5067 46.2862 35.5017 46.3269 35.4675C46.3729 35.4366 46.3783 35.3741 46.3881 35.2574L46.4158 34.9455C46.4366 34.7375 46.4571 34.5305 46.478 34.3247C46.5233 33.9126 46.5784 33.5051 46.6489 33.1038C46.7219 32.7029 46.8054 32.3066 46.9374 31.9229C47.0047 31.7317 47.082 31.542 47.1993 31.3656C47.2591 31.2783 47.3285 31.1914 47.4303 31.1274C47.5343 31.0678 47.6483 31.0135 47.8045 31.0732C47.952 31.154 47.9775 31.2905 48.0005 31.3901C48.016 31.4946 48.0228 31.5966 48.0196 31.6951C48.0164 31.8931 47.9951 32.0842 47.971 32.2732C47.921 32.6501 47.8538 33.0158 47.7901 33.3765C47.6728 34.0922 47.5109 34.8047 47.567 35.4589C47.576 35.539 47.5972 35.6127 47.6246 35.6777C47.6411 35.7104 47.6595 35.7377 47.671 35.7496L47.6624 35.7654L47.6584 35.7636L47.6609 35.7399C47.7365 35.6468 47.7901 35.4668 47.8372 35.3184C47.9304 35.0048 48.0056 34.6876 48.0862 34.3786C48.1671 34.0692 48.2488 33.7653 48.3556 33.4725C48.4096 33.3262 48.4686 33.1822 48.5521 33.046C48.5974 32.9792 48.642 32.9105 48.7158 32.8556C48.7485 32.8261 48.7971 32.8053 48.8442 32.792C48.9003 32.7834 48.9457 32.7848 48.9823 32.7916C49.0673 32.7952 49.1817 32.8692 49.2097 32.958C49.2446 33.042 49.2522 33.1207 49.2558 33.1962C49.2633 33.3474 49.2464 33.4893 49.2324 33.6302C49.1986 33.9101 49.1464 34.177 49.0953 34.4361C48.9906 34.9527 48.8769 35.4406 48.7395 35.8854C48.4704 36.7768 48.2006 37.5305 47.9779 38.1456C47.7537 38.7604 47.5721 39.2343 47.4458 39.5547C47.385 39.7049 47.3364 39.8249 47.299 39.918C47.2645 39.9992 47.245 40.0401 47.2418 40.039Z" fill="#F6865E"/>
<path d="M27.6037 50.1636C28.2873 52.5722 29.6225 56.2936 31.0582 60.2166C31.2659 60.7839 32.0557 60.8209 32.3141 60.2752L35.8341 52.8434C35.8341 52.8434 34.9866 46.7382 35.0584 46.9537C35.1302 47.1693 27.7962 47.7438 27.7962 47.7438L27.6037 50.1636Z" fill="#2553A7"/>
<path d="M35.531 48.9656C35.539 48.9955 35.0936 49.1241 34.397 49.3896C33.7002 49.654 32.7579 50.0744 31.7857 50.6615C30.8146 51.2514 30.0056 51.8916 29.4489 52.3864C28.8911 52.8807 28.5707 53.2152 28.5481 53.1944C28.5387 53.1858 28.6092 53.0934 28.7454 52.9332C28.8802 52.7722 29.0892 52.5509 29.359 52.2894C29.8976 51.7652 30.7046 51.0991 31.6885 50.5016C32.6735 49.9066 33.638 49.4999 34.3522 49.2653C34.7095 49.1471 35.0026 49.0641 35.208 49.0195C35.4131 48.9728 35.5277 48.9531 35.531 48.9656Z" fill="#FCFDFD"/>
<path d="M36.9262 50.8199C36.9075 50.8332 36.6679 50.5511 36.339 50.0524C36.0099 49.5545 35.6024 48.832 35.2516 47.9891C34.9022 47.1451 34.6786 46.3468 34.5585 45.7623C34.4375 45.1773 34.407 44.8087 34.4295 44.8055C34.458 44.8005 34.5346 45.1601 34.6872 45.7317C34.8393 46.303 35.08 47.0844 35.4249 47.9176C35.771 48.7497 36.1545 49.4715 36.452 49.9831C36.7492 50.4947 36.9496 50.803 36.9262 50.8199Z" fill="#1D2A30"/>
<path d="M39.274 17.904C38.0429 19.8915 37.7813 22.4622 38.5865 24.6617C38.9481 25.6483 39.5208 26.6238 39.4161 27.6711C39.3086 28.7439 38.4937 29.7574 38.7815 30.7954C38.952 31.409 39.4795 31.8642 39.6816 32.4682C39.9191 33.1763 39.6716 33.9434 39.5586 34.6824C39.2708 36.564 39.873 38.456 40.0223 40.3541C40.1716 42.2521 39.6586 44.4736 37.9637 45.3014C37.4482 45.5529 36.7751 45.6254 36.3466 45.2417C35.8026 44.7545 35.9541 43.8797 36.103 43.1604C37.5925 35.9683 32.9912 28.9623 34.042 21.6912C34.2104 20.5257 34.8623 18.5482 35.7026 17.7326C36.5427 16.9174 38.8664 17.0166 39.6615 17.8767" fill="#1D2A30"/>
<path d="M32.1875 38.7478C32.1725 38.7356 32.4035 38.4891 32.7276 37.9793C33.0501 37.4731 33.4556 36.6827 33.6675 35.6268C33.7702 35.0993 33.8158 34.5119 33.7782 33.8792C33.7507 33.2469 33.6615 32.566 33.7042 31.8381C33.7191 31.4738 33.7971 31.103 33.9106 30.7369C34.0381 30.3759 34.2038 30.0216 34.4046 29.6817C34.8072 29.002 35.3172 28.3689 35.7837 27.6927C36.2502 27.0187 36.6373 26.3048 36.7628 25.5507C36.8888 24.7966 36.7528 24.0496 36.6373 23.3462C36.5124 22.642 36.4268 21.9485 36.4783 21.3044C36.5193 20.6605 36.6484 20.0695 36.8233 19.5511C37.1766 18.5109 37.6989 17.7741 38.0951 17.3153C38.2944 17.0846 38.4631 16.9175 38.5847 16.8133C38.7049 16.707 38.7696 16.6538 38.7739 16.6588C38.788 16.6732 38.5314 16.8931 38.1512 17.362C37.7763 17.8297 37.2798 18.567 36.9492 19.5924C36.7855 20.1036 36.6671 20.6839 36.6333 21.313C36.5898 21.9439 36.6783 22.6121 36.8074 23.317C36.9265 24.0191 37.0733 24.784 36.9438 25.5802C36.8139 26.376 36.4103 27.1165 35.9382 27.7984C35.4653 28.4832 34.9579 29.1119 34.5627 29.7751C34.3655 30.1064 34.2046 30.4481 34.0801 30.7941C33.9705 31.144 33.8932 31.4957 33.8763 31.8493C33.8298 32.5542 33.9117 33.2329 33.9337 33.8727C33.9647 34.5137 33.9106 35.1184 33.7973 35.6533C33.5643 36.7269 33.1333 37.5198 32.7886 38.0196C32.6157 38.2711 32.4653 38.4539 32.3592 38.5739C32.2512 38.6925 32.1922 38.7521 32.1875 38.7478Z" fill="#365462"/>
<path d="M28.7751 39.2851C28.7694 39.2818 28.8081 39.1989 28.8868 39.044C28.9752 38.8737 29.0913 38.6495 29.2364 38.3696C29.5375 37.7836 29.9884 36.9408 30.4317 35.8521C30.8661 34.7675 31.297 33.4087 31.3102 31.8595C31.3125 31.4739 31.2844 31.0791 31.2223 30.6806C31.1604 30.2818 31.0676 29.8744 31.0073 29.449C30.9496 29.0254 30.9219 28.5738 31.0346 28.128C31.146 27.6803 31.4275 27.2826 31.7667 26.9743C32.445 26.3589 33.263 25.9575 33.6857 25.2368C34.1187 24.5283 34.2143 23.6973 34.3236 22.9327C34.4172 22.1599 34.5656 21.4159 34.8189 20.762C35.0637 20.1048 35.3906 19.5339 35.7317 19.0478C36.4185 18.0713 37.1823 17.4566 37.7317 17.0908C38.0084 16.9083 38.2325 16.7811 38.3901 16.706C38.5462 16.6292 38.6293 16.5911 38.6322 16.5972C38.6419 16.6151 38.3098 16.7721 37.7731 17.1508C37.2417 17.5313 36.502 18.1532 35.8407 19.1233C35.512 19.6062 35.1979 20.1702 34.9646 20.8162C34.7225 21.4611 34.5843 22.1808 34.4947 22.9557C34.3885 23.7203 34.3006 24.5736 33.8423 25.3327C33.384 26.1084 32.5372 26.5213 31.8942 27.1116C31.5702 27.4072 31.3185 27.7662 31.2149 28.1743C31.1112 28.5821 31.1338 29.0107 31.1892 29.4239C31.2465 29.8392 31.3376 30.2459 31.3993 30.6537C31.4611 31.0618 31.4875 31.4668 31.4829 31.8605C31.4593 33.4435 31.0075 34.8153 30.5542 35.9024C30.0916 36.9932 29.6216 37.8282 29.3005 38.4045C29.1426 38.6772 29.0161 38.896 28.9198 39.0623C28.8304 39.2114 28.7808 39.288 28.7751 39.2851Z" fill="#365462"/>
<path d="M147.809 140.807C147.806 140.805 147.827 140.753 147.872 140.655C147.922 140.547 147.99 140.404 148.076 140.221C148.249 139.837 148.474 139.256 148.675 138.483C149.071 136.939 149.209 134.578 148.624 131.774C148.352 130.369 147.913 128.863 147.378 127.267C146.85 125.667 146.238 123.97 145.737 122.135C145.242 120.305 144.852 118.318 144.927 116.236C145.003 114.149 145.622 112.066 146.302 109.993C146.981 107.916 147.683 105.886 147.893 103.844C148.132 101.806 147.694 99.8051 146.764 98.1657C145.864 96.509 144.731 95.0916 143.883 93.6236C143.022 92.161 142.484 90.6567 142.151 89.2576C141.508 86.4369 141.733 84.0595 142.042 82.4934C142.376 80.9184 142.748 80.1042 142.748 80.1042C142.752 80.1057 142.738 80.1595 142.707 80.263C142.671 80.3762 142.624 80.5278 142.564 80.7211C142.439 81.1231 142.277 81.7242 142.124 82.5092C141.843 84.0721 141.643 86.433 142.3 89.2228C142.639 90.6064 143.18 92.0909 144.037 93.5334C144.884 94.9842 146.021 96.3951 146.94 98.0715C147.889 99.7292 148.346 101.795 148.104 103.865C147.892 105.942 147.184 107.985 146.507 110.059C145.827 112.131 145.216 114.192 145.138 116.244C145.061 118.294 145.442 120.262 145.929 122.083C146.421 123.909 147.027 125.607 147.548 127.211C148.076 128.812 148.51 130.33 148.773 131.744C149.344 134.57 149.181 136.954 148.756 138.504C148.541 139.28 148.302 139.86 148.115 140.239C148.021 140.419 147.947 140.56 147.892 140.665C147.84 140.761 147.812 140.809 147.809 140.807Z" fill="#1D2A30"/>
<path d="M145.035 95.0723C145.035 95.0723 143.313 89.5738 146.402 86.3543C146.51 86.2415 146.701 86.2947 146.729 86.4488C146.894 87.3567 147.1 90.1225 145.035 95.0723Z" fill="#2553A7"/>
<path d="M146.066 88.1866C146.096 88.192 146.046 88.579 145.951 89.2009C145.837 89.8993 145.705 90.7196 145.558 91.626C145.414 92.5322 145.283 93.3524 145.172 94.0508C145.078 94.6717 145.022 95.0572 144.99 95.0547C144.962 95.0525 144.965 94.6613 145.021 94.0325C145.078 93.4041 145.189 92.5401 145.345 91.5912C145.5 90.6427 145.666 89.7887 145.801 89.1729C145.935 88.5574 146.037 88.1805 146.066 88.1866Z" fill="#1D2A30"/>
<path d="M147.058 108.039C147.058 108.039 148.111 102.375 152.348 100.972C152.497 100.923 152.64 101.059 152.593 101.208C152.313 102.088 151.201 104.629 147.058 108.039Z" fill="#2553A7"/>
<path d="M151.194 102.435C151.217 102.454 150.992 102.773 150.616 103.278C150.189 103.842 149.687 104.506 149.133 105.238C148.582 105.972 148.082 106.635 147.657 107.201C147.283 107.706 147.053 108.02 147.026 108.003C147.002 107.989 147.188 107.644 147.532 107.114C147.876 106.586 148.379 105.873 148.961 105.108C149.543 104.342 150.089 103.664 150.497 103.183C150.904 102.702 151.171 102.416 151.194 102.435Z" fill="#1D2A30"/>
<path d="M145.912 122.25C145.912 122.25 145.273 116.525 148.919 113.953C149.047 113.863 149.224 113.952 149.223 114.108C149.211 115.031 148.885 117.785 145.912 122.25Z" fill="#2553A7"/>
<path d="M148.24 115.688C148.268 115.699 148.146 116.069 147.933 116.661C147.688 117.325 147.401 118.105 147.084 118.967C146.769 119.829 146.484 120.61 146.242 121.274C146.031 121.865 145.902 122.233 145.871 122.224C145.844 122.217 145.922 121.834 146.097 121.227C146.273 120.621 146.547 119.794 146.882 118.892C147.215 117.991 147.541 117.184 147.791 116.605C148.04 116.027 148.213 115.676 148.24 115.688Z" fill="#1D2A30"/>
<path d="M149.104 136.541C149.104 136.541 148.67 130.797 152.407 128.357C152.538 128.271 152.712 128.367 152.704 128.523C152.66 129.445 152.235 132.185 149.104 136.541Z" fill="#2553A7"/>
<path d="M151.666 130.067C151.694 130.08 151.558 130.445 151.324 131.03C151.056 131.685 150.741 132.454 150.393 133.303C150.048 134.154 149.735 134.924 149.469 135.579C149.237 136.163 149.095 136.525 149.064 136.515C149.038 136.507 149.129 136.127 149.326 135.527C149.523 134.927 149.827 134.111 150.193 133.222C150.559 132.333 150.914 131.538 151.184 130.969C151.454 130.399 151.639 130.055 151.666 130.067Z" fill="#1D2A30"/>
<path d="M142.561 90.2402C142.561 90.2402 137.447 87.574 137.347 83.1164C137.344 82.9601 137.516 82.8627 137.645 82.9518C138.405 83.4764 140.511 85.2843 142.561 90.2402Z" fill="#2553A7"/>
<path d="M138.409 84.6485C138.433 84.632 138.673 84.9403 139.046 85.4472C139.461 86.0206 139.949 86.6939 140.487 87.438C141.028 88.1799 141.517 88.8514 141.934 89.4234C142.308 89.9285 142.54 90.2404 142.516 90.2609C142.495 90.2792 142.22 90.0007 141.814 89.5175C141.409 89.0332 140.874 88.3445 140.312 87.5637C139.749 86.7841 139.261 86.0634 138.92 85.5338C138.579 85.0035 138.384 84.6654 138.409 84.6485Z" fill="#1D2A30"/>
<path d="M148.051 102.049C148.051 102.049 142.785 99.697 142.414 95.2537C142.401 95.0982 142.567 94.9904 142.702 95.0716C143.492 95.5494 145.704 97.2262 148.051 102.049Z" fill="#2553A7"/>
<path d="M143.567 96.7187C143.591 96.7004 143.848 96.9932 144.251 97.4768C144.701 98.024 145.229 98.6667 145.811 99.3763C146.396 100.084 146.925 100.725 147.376 101.27C147.78 101.752 148.031 102.049 148.008 102.071C147.988 102.091 147.697 101.829 147.262 101.372C146.828 100.913 146.253 100.258 145.644 99.5128C145.035 98.7687 144.504 98.0789 144.131 97.5705C143.759 97.0625 143.543 96.7363 143.567 96.7187Z" fill="#1D2A30"/>
<path d="M145.021 115.221C145.021 115.221 141.406 110.732 143.102 106.608C143.161 106.463 143.358 106.443 143.44 106.576C143.927 107.361 145.131 109.86 145.021 115.221Z" fill="#2553A7"/>
<path d="M143.46 108.435C143.489 108.429 143.585 108.807 143.724 109.421C143.874 110.113 144.051 110.925 144.246 111.822C144.444 112.718 144.623 113.529 144.775 114.22C144.915 114.832 145.003 115.211 144.973 115.221C144.946 115.228 144.805 114.863 144.627 114.258C144.45 113.652 144.237 112.808 144.035 111.867C143.832 110.928 143.674 110.072 143.574 109.45C143.474 108.828 143.431 108.44 143.46 108.435Z" fill="#1D2A30"/>
<path d="M148.603 130.721C148.603 130.721 143.377 128.281 143.08 123.833C143.07 123.676 143.239 123.572 143.371 123.655C144.154 124.146 146.337 125.86 148.603 130.721Z" fill="#2553A7"/>
<path d="M144.209 125.314C144.233 125.297 144.485 125.594 144.88 126.084C145.321 126.639 145.837 127.29 146.408 128.01C146.981 128.727 147.499 129.377 147.94 129.93C148.336 130.418 148.583 130.719 148.56 130.741C148.539 130.76 148.252 130.494 147.825 130.029C147.399 129.563 146.835 128.899 146.239 128.143C145.642 127.389 145.123 126.69 144.759 126.176C144.395 125.662 144.185 125.332 144.209 125.314Z" fill="#1D2A30"/>
<path d="M159.012 108.071C159.017 108.071 159.019 108.114 159.018 108.198C159.016 108.298 159.013 108.419 159.009 108.566C158.994 108.912 158.973 109.38 158.948 109.963C158.88 111.191 158.786 112.903 158.674 114.951L158.673 114.956L158.672 114.963C158.299 117.048 157.236 119.358 155.808 121.601C154.761 123.254 153.663 124.756 152.715 126.154C151.762 127.547 150.958 128.838 150.397 129.981C149.833 131.123 149.504 132.104 149.312 132.79C149.221 133.134 149.151 133.402 149.112 133.586C149.069 133.769 149.043 133.865 149.035 133.863C149.028 133.862 149.04 133.764 149.069 133.578C149.095 133.391 149.151 133.118 149.231 132.769C149.399 132.073 149.708 131.075 150.26 129.915C150.808 128.753 151.605 127.445 152.551 126.043C153.491 124.636 154.584 123.131 155.625 121.487C157.046 119.254 158.104 116.979 158.49 114.928L158.489 114.94C158.633 112.893 158.754 111.183 158.84 109.956C158.887 109.374 158.925 108.908 158.953 108.563C158.967 108.416 158.98 108.296 158.99 108.196C158.999 108.113 159.007 108.07 159.012 108.071Z" fill="#1D2A30"/>
<path d="M155.9 121.172C155.9 121.172 158.113 115.852 155.329 112.367C155.232 112.245 155.037 112.28 154.995 112.431C154.748 113.321 154.292 116.056 155.9 121.172Z" fill="#2553A7"/>
<path d="M155.497 114.221C155.527 114.218 155.594 114.602 155.673 115.227C155.751 115.852 155.838 116.718 155.908 117.677C155.977 118.636 156.009 119.507 156.009 120.137C156.007 120.769 155.974 121.158 155.946 121.158C155.915 121.158 155.894 120.769 155.856 120.142C155.809 119.436 155.753 118.608 155.692 117.693C155.628 116.777 155.57 115.948 155.52 115.241C155.482 114.614 155.468 114.224 155.497 114.221Z" fill="#1D2A30"/>
<path d="M155.9 121.172C154.991 118.279 154.742 116.148 154.742 114.68C154.741 113.553 154.888 112.818 154.995 112.431C155.02 112.342 155.098 112.293 155.178 112.293C155.233 112.293 155.289 112.317 155.329 112.367C156.403 113.711 156.734 115.329 156.734 116.808C156.735 118.709 156.192 120.383 155.982 120.959C155.997 120.784 156.008 120.501 156.009 120.138C156.009 119.507 155.977 118.636 155.908 117.678C155.838 116.719 155.751 115.853 155.673 115.228C155.595 114.605 155.527 114.221 155.497 114.221H155.497C155.468 114.225 155.482 114.614 155.52 115.242C155.57 115.948 155.628 116.777 155.692 117.693C155.753 118.608 155.809 119.437 155.856 120.143C155.886 120.633 155.905 120.978 155.927 121.105C155.91 121.149 155.9 121.172 155.9 121.172Z" fill="#6165D7"/>
<path d="M155.927 121.105C155.905 120.979 155.886 120.634 155.856 120.144C155.809 119.438 155.753 118.609 155.692 117.694C155.628 116.778 155.57 115.949 155.52 115.243C155.482 114.615 155.468 114.225 155.497 114.222H155.497C155.527 114.222 155.595 114.606 155.673 115.229C155.751 115.853 155.838 116.72 155.908 117.679C155.977 118.637 156.009 119.508 156.009 120.139C156.008 120.501 155.997 120.784 155.982 120.959C155.96 121.021 155.941 121.07 155.927 121.105Z" fill="#161C1E"/>
<path d="M149.045 133.992C149.045 133.992 150.819 128.51 147.761 125.262C147.654 125.148 147.463 125.199 147.433 125.353C147.259 126.259 147.027 129.023 149.045 133.992Z" fill="#2553A7"/>
<path d="M148.079 127.099C148.109 127.093 148.207 127.471 148.336 128.088C148.465 128.704 148.622 129.56 148.769 130.51C148.915 131.46 149.018 132.326 149.069 132.954C149.119 133.584 149.118 133.975 149.09 133.977C149.059 133.979 149.006 133.593 148.918 132.971C148.813 132.272 148.691 131.451 148.555 130.543C148.417 129.635 148.292 128.814 148.185 128.114C148.096 127.491 148.05 127.104 148.079 127.099Z" fill="#1D2A30"/>
<path d="M149.045 133.992C147.634 130.518 147.323 128.122 147.323 126.684C147.323 126.067 147.381 125.626 147.433 125.353C147.452 125.257 147.534 125.2 147.62 125.2C147.67 125.2 147.721 125.22 147.761 125.262C149.177 126.766 149.557 128.748 149.557 130.443C149.557 131.974 149.247 133.272 149.109 133.772C149.11 133.596 149.098 133.313 149.069 132.953C149.018 132.324 148.915 131.459 148.769 130.508C148.622 129.558 148.465 128.702 148.336 128.086C148.208 127.474 148.11 127.097 148.08 127.097C148.08 127.097 148.079 127.097 148.079 127.097C148.05 127.103 148.096 127.49 148.185 128.113C148.292 128.812 148.417 129.634 148.555 130.541C148.691 131.449 148.813 132.27 148.918 132.97C148.987 133.455 149.034 133.797 149.067 133.922C149.053 133.968 149.045 133.992 149.045 133.992Z" fill="#6165D7"/>
<path d="M149.067 133.924C149.034 133.799 148.987 133.457 148.918 132.971C148.813 132.272 148.691 131.451 148.555 130.543C148.417 129.635 148.292 128.814 148.185 128.114C148.096 127.491 148.05 127.104 148.079 127.099C148.079 127.099 148.08 127.099 148.08 127.099C148.11 127.099 148.208 127.475 148.336 128.088C148.465 128.704 148.622 129.56 148.769 130.51C148.915 131.46 149.018 132.326 149.069 132.954C149.098 133.315 149.11 133.598 149.109 133.773C149.092 133.837 149.077 133.887 149.067 133.924Z" fill="#161C1E"/>
<path d="M158.719 114.67C158.719 114.67 163.445 111.366 162.968 106.933C162.951 106.778 162.767 106.704 162.651 106.808C161.965 107.427 160.11 109.491 158.719 114.67Z" fill="#2553A7"/>
<path d="M158.719 114.67C160.11 109.491 161.965 107.427 162.651 106.808C162.688 106.775 162.733 106.759 162.776 106.759C162.868 106.759 162.956 106.828 162.968 106.933C162.991 107.145 163.001 107.355 163.001 107.562C163.003 111.675 158.719 114.67 158.719 114.67Z" fill="#6165D7"/>
<path d="M162.113 108.59C162.139 108.603 161.99 108.964 161.72 109.533C161.45 110.103 161.059 110.881 160.602 111.726C160.146 112.573 159.705 113.324 159.366 113.857C159.026 114.389 158.788 114.7 158.765 114.685C158.739 114.668 158.929 114.328 159.235 113.779C159.574 113.158 159.972 112.429 160.412 111.624C160.85 110.817 161.246 110.086 161.584 109.464C161.889 108.913 162.086 108.577 162.113 108.59Z" fill="#1D2A30"/>
<path d="M150.951 128.559C150.951 128.559 156.651 127.671 158.177 123.481C158.231 123.334 158.099 123.187 157.948 123.23C157.06 123.483 154.484 124.521 150.951 128.559Z" fill="#2553A7"/>
<path d="M150.951 128.559C154.484 124.521 157.06 123.483 157.948 123.23C157.966 123.225 157.984 123.222 158.001 123.222C158.106 123.222 158.19 123.31 158.19 123.414C158.19 123.436 158.186 123.459 158.177 123.481C156.841 127.148 152.308 128.285 151.198 128.512C151.085 128.535 151.007 128.549 150.972 128.555C150.958 128.557 150.951 128.559 150.951 128.559Z" fill="#6165D7"/>
<path d="M156.68 124.592C156.698 124.615 156.405 124.874 155.911 125.266C155.418 125.659 154.724 126.185 153.941 126.743C153.157 127.302 152.43 127.784 151.891 128.112C151.351 128.44 151.001 128.616 150.987 128.592C150.97 128.564 151.291 128.344 151.807 127.985C152.386 127.576 153.065 127.097 153.815 126.568C154.564 126.036 155.243 125.555 155.82 125.144C156.336 124.784 156.662 124.568 156.68 124.592Z" fill="#1D2A30"/>
<path d="M145.513 139.034L143.851 150.209H154.212L152.869 139.034H145.513Z" fill="#365462"/>
<path d="M153.283 142.496C153.283 142.555 151.412 142.604 149.105 142.604C146.797 142.604 144.927 142.555 144.927 142.496C144.927 142.437 146.797 142.388 149.105 142.388C151.412 142.388 153.283 142.437 153.283 142.496Z" fill="#1D2A30"/>
<path d="M153.488 143.386C153.488 143.446 151.557 143.494 149.174 143.494C146.79 143.494 144.858 143.446 144.858 143.386C144.858 143.327 146.79 143.279 149.174 143.279C151.557 143.279 153.488 143.327 153.488 143.386Z" fill="#1D2A30"/>
<path d="M113.197 30.6366C113.197 30.6366 113.101 30.6384 112.916 30.633C112.73 30.6251 112.454 30.6122 112.092 30.6373C111.374 30.6776 110.296 30.8127 109.026 31.3433C107.771 31.8729 106.302 32.8088 105.133 34.3735C104.553 35.1521 104.069 36.0887 103.774 37.1504C103.489 38.2135 103.393 39.3927 103.529 40.6067C103.682 41.8164 104.053 43.0685 104.732 44.2182C105.069 44.7912 105.468 45.3485 105.956 45.8396C106.428 46.3451 106.984 46.7924 107.611 47.1327C108.238 47.4711 108.955 47.6845 109.688 47.6551C110.416 47.6314 111.166 47.3752 111.699 46.8449C112.236 46.3186 112.5 45.5454 112.501 44.774C112.505 43.9965 112.235 43.2237 111.771 42.5727C110.837 41.2617 109.327 40.3796 107.72 39.9043C106.097 39.4322 104.315 39.42 102.61 39.8339C101.76 40.0548 100.93 40.3789 100.149 40.8108C99.3682 41.2451 98.6584 41.8117 98.036 42.466C97.8885 42.637 97.7205 42.7918 97.5891 42.9772L97.183 43.5248C96.9459 43.9135 96.7027 44.3015 96.5206 44.7237C96.1393 45.5569 95.8716 46.4504 95.7381 47.3712C95.4967 49.2115 95.7201 51.107 96.4649 52.7612C97.184 54.4178 98.4105 55.8399 99.9384 56.6968C100.701 57.1225 101.544 57.397 102.399 57.4433C103.252 57.4962 104.102 57.2766 104.826 56.8613C105.549 56.447 106.152 55.8244 106.469 55.0742C106.783 54.3248 106.778 53.4693 106.506 52.7253C106.239 51.9729 105.738 51.3305 105.153 50.815C104.565 50.2997 103.879 49.9139 103.163 49.6602C101.712 49.187 100.166 49.2126 98.7836 49.5844C97.3974 49.9613 96.1616 50.6741 95.1913 51.5849C94.2224 52.5011 93.5425 53.6249 93.1316 54.7724C92.3016 57.0855 92.5128 59.4334 93.2259 61.2273C93.9598 63.0366 95.1254 64.325 96.19 65.1765C97.2643 66.0341 98.2421 66.4969 98.9134 66.7606C99.2516 66.8892 99.5125 66.9805 99.6913 67.0308C99.8686 67.0861 99.9582 67.1191 99.9582 67.1191C99.9582 67.1191 99.865 67.0983 99.6859 67.0491C99.5045 67.0049 99.2416 66.919 98.8994 66.7958C98.222 66.5425 97.2333 66.088 96.1443 65.2333C95.0654 64.3843 93.8807 63.093 93.1284 61.2664C92.3973 59.4539 92.1728 57.0783 93.0068 54.7279C93.4198 53.562 94.1069 52.4163 95.092 51.48C96.0774 50.5505 97.3319 49.8219 98.7433 49.4346C100.151 49.053 101.725 49.0211 103.217 49.5047C103.954 49.7644 104.658 50.1589 105.264 50.6881C105.867 51.2177 106.387 51.8802 106.669 52.667C106.954 53.446 106.963 54.3499 106.631 55.1421C106.298 55.9344 105.666 56.5847 104.915 57.0161C104.164 57.4487 103.277 57.6787 102.389 57.6244C101.502 57.577 100.632 57.2932 99.8492 56.857C98.2813 55.9789 97.029 54.5263 96.294 52.8359C95.5341 51.1487 95.3064 49.2197 95.5528 47.3447C95.6885 46.4069 95.9612 45.4958 96.3508 44.6454C96.5368 44.2146 96.7851 43.8179 97.0275 43.4209L97.4431 42.8612C97.5776 42.6718 97.7489 42.5134 97.9 42.3388C98.536 41.6698 99.2617 41.0924 100.058 40.6498C100.854 40.2097 101.7 39.8802 102.565 39.656C104.302 39.2357 106.115 39.2497 107.77 39.7329C109.409 40.2212 110.945 41.1154 111.913 42.4742C112.392 43.1479 112.676 43.9609 112.67 44.7744C112.668 45.5817 112.389 46.3997 111.815 46.962C111.245 47.5265 110.453 47.7916 109.694 47.815C108.926 47.8437 108.18 47.6191 107.538 47.2692C106.893 46.9175 106.327 46.459 105.848 45.9435C105.352 45.4419 104.947 44.8742 104.607 44.2904C103.92 43.1206 103.548 41.8491 103.397 40.6221C103.263 39.3905 103.366 38.1955 103.659 37.1188C103.962 36.0438 104.458 35.096 105.049 34.3106C106.24 32.7338 107.729 31.7996 108.998 31.2762C110.282 30.7516 111.369 30.628 112.091 30.6C112.454 30.5806 112.731 30.6 112.916 30.614C113.102 30.6259 113.197 30.6366 113.197 30.6366Z" fill="#1D2A30"/>
<path d="M74.7687 105.439H125.212V66.586H74.7687V105.439Z" fill="#2553A7"/>
<path d="M74.7687 66.5872L84.086 75.2656H133.674L125.212 66.5872H74.7687Z" fill="#2553A7"/>
<path d="M74.7687 66.5875C75.6789 66.5857 96.5134 66.548 125.212 66.4956H125.251L125.278 66.5236C127.981 69.2944 130.785 72.1697 133.654 75.1115L133.741 75.2006L133.896 75.3594H133.674C113.34 75.3439 95.2935 75.3306 84.086 75.3224H84.0637L84.0475 75.3069C78.2174 69.8282 75.0749 66.875 74.7687 66.5875C75.077 66.8717 78.2459 69.7977 84.1245 75.2246L84.086 75.2096C95.2935 75.2013 113.34 75.1876 133.674 75.1722L133.607 75.331L133.52 75.2419C130.651 72.2994 127.848 69.4233 125.146 66.6515L125.212 66.6791C96.5134 66.627 75.6782 66.589 74.7687 66.5875Z" fill="#1D2A30"/>
<path d="M89.92 84.5034C89.3861 84.5045 88.8989 84.9831 88.8896 85.5162C88.8806 86.049 89.3508 86.5445 89.8844 86.5639C90.4175 86.5829 90.9227 86.1231 90.9518 85.5906C90.9813 85.0585 90.5302 84.5455 89.9973 84.5063" fill="#1D2A30"/>
<path d="M101.83 84.5034C101.297 84.5045 100.809 84.9831 100.8 85.5162C100.791 86.049 101.261 86.5445 101.795 86.5639C102.328 86.5829 102.833 86.1231 102.862 85.5906C102.892 85.0585 102.441 84.5455 101.908 84.5063" fill="#1D2A30"/>
<path d="M101.907 93.8024C101.853 93.8246 101.774 92.8301 100.908 91.5691C100.483 90.9436 99.8474 90.2807 99.003 89.7432C98.1637 89.2057 97.0977 88.8184 95.9461 88.7767C94.793 88.7555 93.7076 89.0836 92.8398 89.5743C91.967 90.0648 91.2954 90.6921 90.8367 91.2935C89.9041 92.505 89.7699 93.4937 89.7174 93.4686C89.7109 93.4672 89.7214 93.409 89.7466 93.2987C89.7771 93.1901 89.8005 93.0224 89.8786 92.8215C90.0088 92.4116 90.2733 91.8371 90.7309 91.2134C91.186 90.5893 91.8638 89.9361 92.7546 89.4245C93.6403 88.9122 94.7585 88.5673 95.9511 88.5899C97.143 88.633 98.24 89.0383 99.0958 89.598C99.9578 90.1578 100.598 90.8469 101.018 91.4951C101.441 92.1425 101.674 92.731 101.781 93.1474C101.848 93.3525 101.862 93.521 101.887 93.631C101.906 93.7424 101.913 93.8016 101.907 93.8024Z" fill="#1D2A30"/>
<path d="M125.212 78.3086H115.322C115.31 76.7892 115.295 75.7437 115.28 75.3442C118.486 75.3463 121.804 75.3488 125.212 75.3514V78.3086Z" fill="#000152"/>
<path d="M125.212 75.3516C121.804 75.349 118.486 75.3465 115.28 75.3444C115.279 75.3138 115.277 75.2873 115.276 75.2646H125.212V75.3516Z" fill="#151717"/>
<path d="M115.208 78.3086H83.8039L74.8831 67.0131L82.2979 73.6613C82.8516 74.1815 83.4344 74.7294 84.0475 75.3054L84.0637 75.3208H84.086C91.757 75.3266 102.631 75.3345 115.251 75.3442C115.235 75.7437 115.22 76.7892 115.208 78.3086Z" fill="#000152"/>
<path d="M115.251 75.3457C102.631 75.336 91.757 75.3281 84.086 75.3223H84.0637L84.0475 75.3069C83.4344 74.731 82.8516 74.1831 82.2979 73.6628L84.086 75.2659H115.254C115.253 75.2886 115.252 75.3152 115.251 75.3457Z" fill="#151717"/>
<path d="M115.265 105.352C115.213 105.352 115.171 98.5935 115.171 90.2589C115.171 81.9214 115.213 75.1647 115.265 75.1647C115.317 75.1647 115.359 81.9214 115.359 90.2589C115.359 98.5935 115.317 105.352 115.265 105.352Z" fill="#1D2A30"/>
<path d="M123.186 101.562H118.739V96.543H123.186V101.562Z" fill="#F8F8F9"/>
<path d="M74.7687 66.5872L64.4128 75.2656H74.7687V66.5872Z" fill="#2553A7"/>
<path d="M74.7687 75.2656H64.4128L74.7687 66.5872V75.2656Z" fill="#000152"/>
<path d="M68.703 150.113H126.701V105.441H68.703V150.113Z" fill="#2553A7"/>
<path d="M126.701 150.113H68.703V105.441H126.701V114.109V121.874V150.113Z" fill="#6165D7"/>
<path d="M112.169 149.797C112.118 149.797 112.076 139.839 112.076 127.559C112.076 115.275 112.118 105.319 112.169 105.319C112.222 105.319 112.263 115.275 112.263 127.559C112.263 139.839 112.222 149.797 112.169 149.797Z" fill="#1D2A30"/>
<path d="M121.783 144.963H117.337V139.943H121.783V144.963Z" fill="#F8F8F9"/>
<path d="M86.3968 105.555V115.088H92.9841V105.555H86.3968Z" fill="#1D2A30"/>
<path d="M86.3968 140.449V149.98H92.9841V140.449H86.3968Z" fill="#1D2A30"/>
<path d="M126.195 105.44C126.195 105.443 126.145 105.447 126.047 105.449C125.94 105.452 125.795 105.455 125.611 105.459C125.218 105.464 124.656 105.469 123.936 105.477C122.471 105.484 120.369 105.494 117.775 105.506C112.565 105.513 105.383 105.523 97.4503 105.533C89.5152 105.523 82.3325 105.513 77.122 105.506C74.5284 105.494 72.4263 105.484 70.962 105.477C70.2425 105.469 69.6798 105.464 69.2869 105.459C69.1027 105.455 68.9585 105.452 68.8516 105.449C68.7534 105.447 68.703 105.443 68.703 105.44C68.703 105.437 68.7534 105.434 68.8516 105.431C68.9585 105.428 69.1027 105.425 69.2869 105.421C69.6798 105.418 70.2425 105.411 70.962 105.404C72.4263 105.397 74.5284 105.387 77.122 105.374C82.3325 105.367 89.5152 105.357 97.4503 105.346C105.383 105.357 112.565 105.367 117.775 105.374C120.369 105.387 122.471 105.397 123.936 105.404C124.656 105.411 125.218 105.418 125.611 105.421C125.795 105.425 125.94 105.428 126.047 105.431C126.145 105.434 126.195 105.437 126.195 105.44Z" fill="#1D2A30"/>
<path d="M26.7991 28.0948C26.3819 27.9924 24.372 27.4991 20.4837 26.5449L20.5303 26.5377C19.1414 27.4223 17.2601 28.1361 15.0789 28.1699C13.9938 28.166 12.846 28.0359 11.7007 27.6773C10.5565 27.3213 9.4311 26.731 8.40856 25.9345C6.36253 24.354 4.76955 21.8211 4.42554 18.9058C4.25001 17.4576 4.36747 15.9349 4.81873 14.477C5.27844 13.0233 6.07133 11.6455 7.13912 10.4857C7.68029 9.8728 8.3179 9.36405 8.96815 8.89411C9.30967 8.68357 9.64624 8.46477 9.99813 8.27974L10.5354 8.02178L10.8028 7.89315L11.0811 7.79147C12.5526 7.22165 14.1187 7.00105 15.6218 7.10093C17.1266 7.19758 18.5678 7.61794 19.8284 8.28046C21.0912 8.94154 22.1735 9.83902 23.0236 10.8579C23.8755 11.8776 24.4949 13.0169 24.889 14.1673C25.2826 15.3191 25.462 16.4778 25.4724 17.5726C25.4853 19.7717 24.7971 21.6583 23.9595 23.0358L23.9601 22.9787C25.7162 26.1429 26.6034 27.7417 26.7991 28.0948C26.5966 27.7456 25.6787 26.1644 23.8614 23.0343L23.8451 23.0063L23.8621 22.9772C24.6788 21.6069 25.3442 19.7408 25.3195 17.5733C25.3033 16.4943 25.121 15.3547 24.7289 14.223C24.3367 13.0927 23.7236 11.9746 22.883 10.9758C22.0446 9.97663 20.9789 9.09855 19.7379 8.45256C18.499 7.80549 17.0847 7.39555 15.6084 7.30322C14.1335 7.20729 12.5987 7.42573 11.1567 7.98513L10.8841 8.08465L10.6217 8.21112L10.0954 8.46441C9.75064 8.64585 9.42081 8.86069 9.08608 9.06692C8.44904 9.52824 7.82394 10.0266 7.29354 10.6276C6.24657 11.7644 5.46901 13.1146 5.01746 14.5391C4.57423 15.9673 4.45716 17.4608 4.62748 18.8814C4.96055 21.7406 6.51708 24.2297 8.52268 25.7893C9.5251 26.5747 10.629 27.1593 11.753 27.5139C12.8782 27.871 14.0073 28.0039 15.0765 28.0136C17.2257 27.9914 19.0859 27.3001 20.4667 26.4371L20.4889 26.4231L20.5132 26.4296C24.3834 27.4549 26.3843 27.9849 26.7991 28.0948Z" fill="#1D2A30"/>
<path d="M14.0428 12.9449L14.377 18.2131C14.4043 18.6438 14.7489 18.9866 15.1803 19.0121C15.6355 19.0394 16.032 18.7053 16.082 18.253L16.6678 12.9582C16.712 12.5573 16.3945 12.208 15.9907 12.2138L14.7039 12.2318C14.3198 12.2371 14.0187 12.5623 14.0428 12.9449Z" fill="#2553A7"/>
<path d="M16.5786 21.9765C16.3545 22.6505 15.6258 23.0152 14.9511 22.7917C14.2761 22.5679 13.9106 21.8403 14.1348 21.1663C14.3588 20.4923 15.0876 20.1272 15.7623 20.3511C16.4373 20.5746 16.8027 21.3025 16.5786 21.9765Z" fill="#2553A7"/>
</svg>
