<svg width="119" height="119" viewBox="0 0 119 119" fill="none" xmlns="http://www.w3.org/2000/svg">
<g clip-path="url(#clip0)">
<path d="M116.676 20.926H2.34792C1.06472 20.926 0.0241689 21.9666 0.0241689 23.2498V77.8401C-0.0081377 78.0625 -0.0081377 78.288 0.0241689 78.5099V95.7505C0.0241689 97.0337 1.06472 98.0743 2.34792 98.0743H23.3954C24.6786 98.0743 25.7191 97.0337 25.7191 95.7505C25.7191 94.4673 24.6786 93.4268 23.3954 93.4268H7.95812L32.53 68.8547C33.8857 70.0516 35.6217 70.8396 37.5633 71.0204C37.5708 71.0211 37.5782 71.0218 37.5859 71.0225C37.8525 71.0466 38.1172 71.0585 38.3805 71.0585C42.4502 71.0583 46.07 68.2211 46.9832 64.1879C47.4856 61.9696 47.1166 59.7591 46.086 57.9208C48.0051 57.0393 49.6065 55.4639 50.505 53.3665C50.5085 53.3586 50.5118 53.3507 50.515 53.3426C52.2333 49.3003 50.6863 44.5633 46.9095 42.3156C45.5877 41.5291 44.1457 41.1237 42.7122 41.0703L58.1924 25.5903C58.1977 25.5849 58.2022 25.5789 58.2075 25.5735H69.2387L60.6916 34.1204C59.7843 35.0278 59.7843 36.4992 60.6916 37.4068C61.1455 37.8605 61.7401 38.0874 62.3348 38.0874C62.9296 38.0874 63.5242 37.8603 63.9781 37.4068L75.7951 25.5898C75.8004 25.5845 75.8049 25.5786 75.81 25.5733H114.352V93.4268H41.6193C40.3361 93.4268 39.2956 94.4673 39.2956 95.7505C39.2956 97.0337 40.3361 98.0743 41.6193 98.0743H116.676C117.959 98.0743 119 97.0337 119 95.7505V23.2498C119 21.9666 117.959 20.926 116.676 20.926ZM4.67168 90.1403V79.1107L17.5448 66.2376C18.8046 68.7001 21.1704 70.4442 23.8904 70.9216L4.67168 90.1403ZM17.559 51.5318C16.7397 49.6236 17.4623 47.3833 19.2401 46.3132C19.2455 46.31 19.2508 46.307 19.2562 46.3037C21.1009 45.2032 23.4339 45.6685 24.7202 47.3763C24.735 47.3973 24.7487 47.4189 24.7639 47.4398L28.1335 52.0792L22.68 53.8465C22.6549 53.8546 22.6305 53.8642 22.6054 53.8725C20.5642 54.4945 18.4046 53.5011 17.559 51.5318ZM29.5657 62.3141C29.5269 64.4477 27.9139 66.1932 25.7798 66.3889C23.7063 66.576 21.7942 65.1915 21.3324 63.161C21.3312 63.1557 21.3298 63.1501 21.3287 63.145C20.8613 61.0578 22.0217 58.9918 24.0361 58.2962C24.0624 58.2878 24.0887 58.2809 24.1149 58.2723L29.5682 56.5014L29.5638 62.2339C29.5638 62.2609 29.5655 62.2874 29.5657 62.3141ZM31.8962 49.3477L28.5302 44.7077C28.5144 44.6858 28.4972 44.6651 28.4814 44.6435C27.2589 42.8945 27.5378 40.5345 29.1492 39.1219C29.9325 38.4351 30.9151 38.0915 31.8983 38.0915C32.8798 38.0915 33.8615 38.4344 34.6448 39.1193C34.6483 39.1226 34.6515 39.1254 34.6553 39.1286C36.262 40.5429 36.5379 42.8987 35.3151 44.6461C35.2993 44.6675 35.2823 44.6879 35.2668 44.7095L31.8962 49.3477ZM42.4507 63.1615C41.9914 65.188 40.0898 66.5746 38.0207 66.3954C38.0154 66.3947 38.01 66.3942 38.0047 66.3938C35.8669 66.1997 34.2525 64.4528 34.2151 62.3155C34.2153 62.2894 34.2169 62.2636 34.2169 62.2374L34.2178 56.5033L39.6681 58.2785C39.6951 58.2874 39.7221 58.2946 39.749 58.3032C41.7637 59.0014 42.9234 61.0732 42.4507 63.1615ZM44.5327 46.3097C46.3221 47.3747 47.0536 49.6213 46.2334 51.5353C46.2308 51.5411 46.2285 51.5471 46.2262 51.553C45.376 53.5158 43.2219 54.5035 41.1831 53.8809C41.1582 53.8725 41.1343 53.863 41.1092 53.8549L35.6563 52.0824L39.0292 47.4472C39.0452 47.4251 39.0599 47.4021 39.0759 47.3798C40.3619 45.678 42.6919 45.2134 44.5327 46.3097ZM39.4755 37.7343C39.0108 36.9631 38.4217 36.2482 37.7067 35.6228C37.7018 35.6183 37.6967 35.6142 37.6919 35.6097C34.3782 32.7224 29.3918 32.7286 26.0856 35.6269C24.3752 37.1265 23.3744 39.1316 23.1278 41.2244C21.0644 40.8109 18.8515 41.1405 16.8971 42.2991C16.8896 42.3035 16.8822 42.3079 16.8745 42.3126C13.093 44.5677 11.5516 49.3194 13.2887 53.3651C14.1863 55.4551 15.784 57.0267 17.6978 57.9078C17.2531 58.699 16.9317 59.5592 16.7495 60.4598L4.67144 72.5379V25.5735H51.636L39.4755 37.7343Z" fill="white"/>
<path d="M34.4317 94.1078C33.9996 93.6752 33.4002 93.427 32.7889 93.427C32.1776 93.427 31.5782 93.6755 31.1459 94.1078C30.7136 94.5403 30.4651 95.1395 30.4651 95.7507C30.4651 96.362 30.7136 96.9614 31.1459 97.3935C31.5782 97.8258 32.1776 98.0745 32.7889 98.0745C33.3999 98.0745 33.9996 97.8258 34.4317 97.3935C34.864 96.9614 35.1127 96.362 35.1127 95.7507C35.1127 95.1395 34.8642 94.5398 34.4317 94.1078Z" fill="white"/>
<path d="M57.5765 40.5223C57.1442 40.09 56.5448 39.8413 55.9335 39.8413C55.3201 39.8413 54.7205 40.09 54.2905 40.5223C53.8584 40.9544 53.6097 41.5538 53.6097 42.1651C53.6097 42.7763 53.8584 43.3757 54.2905 43.8081C54.7226 44.2404 55.3201 44.4888 55.9335 44.4888C56.5443 44.4886 57.1442 44.2401 57.5765 43.8081C58.0086 43.3757 58.2572 42.7787 58.2572 42.1651C58.2572 41.5538 58.0088 40.9541 57.5765 40.5223Z" fill="white"/>
<path d="M75.4365 52.5286H72.6298C71.3466 52.5286 70.306 53.5692 70.306 54.8524C70.306 56.1356 71.3466 57.1761 72.6298 57.1761H73.1127V58.9986C73.1127 59.0188 73.0965 59.035 73.0762 59.035H68.6112C68.591 59.035 68.5747 59.0188 68.5747 58.9986V50.706C68.5747 50.6858 68.591 50.6695 68.6112 50.6695H73.7779C75.0611 50.6695 76.1017 49.6289 76.1017 48.3457C76.1017 47.0625 75.0611 46.022 73.7779 46.022H68.6112C66.0285 46.022 63.9272 48.1233 63.9272 50.706V58.9986C63.9272 61.5812 66.0285 63.6826 68.6112 63.6826H73.0762C75.6589 63.6826 77.7602 61.5812 77.7602 58.9986V54.8524C77.7602 53.5692 76.7197 52.5286 75.4365 52.5286Z" fill="white"/>
<path d="M95.3278 52.5194H92.7417V50.67H95.3278C96.611 50.67 97.6516 49.6294 97.6516 48.3462C97.6516 47.063 96.611 46.0225 95.3278 46.0225H90.4179C89.1347 46.0225 88.0942 47.063 88.0942 48.3462V61.3593C88.0942 62.6425 89.1347 63.683 90.4179 63.683C91.7011 63.683 92.7417 62.6425 92.7417 61.3593V57.1671H95.3278C96.611 57.1671 97.6516 56.1265 97.6516 54.8433C97.6516 53.5601 96.611 52.5194 95.3278 52.5194Z" fill="white"/>
<path d="M82.9821 46.0225C81.6989 46.0225 80.6583 47.063 80.6583 48.3462V61.3414C80.6583 62.6246 81.6989 63.6651 82.9821 63.6651C84.2653 63.6651 85.3058 62.6246 85.3058 61.3414V48.3462C85.3058 47.063 84.2653 46.0225 82.9821 46.0225Z" fill="white"/>
<path d="M107.445 46.0225H100.811C99.5279 46.0225 98.4874 47.063 98.4874 48.3462C98.4874 49.6294 99.5279 50.67 100.811 50.67H101.804V61.3414C101.804 62.6246 102.845 63.6651 104.128 63.6651C105.411 63.6651 106.452 62.6246 106.452 61.3414V50.67H107.445C108.728 50.67 109.769 49.6294 109.769 48.3462C109.769 47.063 108.728 46.0225 107.445 46.0225Z" fill="white"/>
<path d="M60.068 80.4135H55.6657C55.2241 80.4135 54.8648 80.0539 54.8648 79.6126V72.8493C54.8648 72.4077 55.2243 72.0484 55.6657 72.0484H60.068C61.3512 72.0484 62.3918 71.0078 62.3918 69.7246C62.3918 68.4414 61.3512 67.4009 60.068 67.4009H55.6657C52.6617 67.4009 50.2173 69.8453 50.2173 72.8493V79.6126C50.2173 82.6169 52.6617 85.061 55.6657 85.061H60.068C61.3512 85.061 62.3918 84.0204 62.3918 82.7372C62.3918 81.454 61.3512 80.4135 60.068 80.4135Z" fill="white"/>
<path d="M101.714 67.4009H97.1568C95.8736 67.4006 94.833 68.4412 94.833 69.7244V82.7375C94.833 84.0207 95.8736 85.0612 97.1568 85.0612H101.714C104.718 85.0612 107.162 82.6169 107.162 79.6128V72.8496C107.163 69.845 104.718 67.4009 101.714 67.4009ZM102.515 79.6123C102.515 80.0539 102.155 80.4133 101.714 80.4133H99.4807V72.0479H101.714C102.156 72.0479 102.515 72.4075 102.515 72.8489V79.6123Z" fill="white"/>
<path d="M78.2664 81.9393L73.508 68.9263C73.1731 68.0103 72.3013 67.4006 71.3258 67.4006C70.3504 67.4006 69.4785 68.01 69.1434 68.9263L64.385 81.9393C63.9444 83.1449 64.5642 84.4792 65.7693 84.9197C66.9749 85.361 68.3092 84.7405 68.7497 83.5354L71.3256 76.4909L73.9015 83.5354C74.246 84.4774 75.1362 85.0617 76.0842 85.0617C76.3492 85.0617 76.6185 85.0159 76.8821 84.9197C78.0875 84.4792 78.7071 83.1447 78.2664 81.9393Z" fill="white"/>
<path d="M92.7417 73.4955V72.5279C92.7417 69.7007 90.4419 67.4009 87.6147 67.4009H82.9818C81.6986 67.4009 80.6581 68.4414 80.6581 69.7246C80.6581 69.7244 80.6581 76.2989 80.6581 76.2996V82.7193C80.6581 84.0026 81.6986 85.0431 82.9818 85.0431C84.265 85.0431 85.3056 84.0026 85.3056 82.7193V81.9087L87.7597 84.3628C88.2137 84.8165 88.8082 85.0433 89.403 85.0433C89.9975 85.0433 90.5923 84.8163 91.0462 84.3628C91.9536 83.4554 91.9536 81.984 91.0462 81.0764L88.5119 78.542C90.9125 78.1165 92.7417 76.0163 92.7417 73.4955ZM88.0942 73.4952C88.0942 73.7597 87.879 73.9747 87.6147 73.9747H85.3056V73.0113V72.0484H87.6147C87.8792 72.0484 88.0942 72.2636 88.0942 72.5279V73.4952Z" fill="white"/>
</g>
<defs>
<clipPath id="clip0">
<rect width="119" height="119" fill="white"/>
</clipPath>
</defs>
</svg>
