<svg width="1139" height="59" viewBox="0 0 1139 59" fill="none" xmlns="http://www.w3.org/2000/svg">
<rect opacity="0.12" x="209" width="930" height="59" rx="10" fill="#9999BA"/>
<rect opacity="0.12" width="189" height="59" rx="10" fill="#9999BA"/>
<path d="M49.111 20.2664C49.0679 19.3193 49.0679 18.4152 49.0679 17.5112C49.0679 16.7794 48.5083 16.2197 47.7765 16.2197C42.3953 16.2197 38.3056 14.67 34.9047 11.3552C34.3881 10.8816 33.6132 10.8816 33.0966 11.3552C29.6958 14.67 25.6061 16.2197 20.2249 16.2197C19.4931 16.2197 18.9334 16.7794 18.9334 17.5112C18.9334 18.4152 18.9334 19.3193 18.8904 20.2664C18.7182 29.3067 18.4599 41.7049 33.5702 46.9139L34.0007 47L34.4312 46.9139C49.4984 41.7049 49.2832 29.3498 49.111 20.2664ZM32.9675 32.7937C32.7092 33.009 32.4079 33.1381 32.0635 33.1381H32.0204C31.676 33.1381 31.3316 32.9659 31.1164 32.7076L27.1128 28.2735L29.05 26.5516L32.1926 30.0386L39.1666 23.409L40.9316 25.3031L32.9675 32.7937Z" fill="#4FA747"/>
<path d="M68.46 25L65.016 21.184V25H63.924V16.636H65.016V20.512L68.472 16.636H69.852L66.06 20.824L69.888 25H68.46ZM76.9636 16.636L74.2396 21.844V25H73.1476V21.844L70.4116 16.636H71.6236L73.6876 20.872L75.7516 16.636H76.9636ZM77.7074 20.812C77.7074 19.996 77.8914 19.264 78.2594 18.616C78.6274 17.96 79.1274 17.448 79.7594 17.08C80.3994 16.712 81.1074 16.528 81.8834 16.528C82.7954 16.528 83.5914 16.748 84.2714 17.188C84.9514 17.628 85.4474 18.252 85.7594 19.06H84.4514C84.2194 18.556 83.8834 18.168 83.4434 17.896C83.0114 17.624 82.4914 17.488 81.8834 17.488C81.2994 17.488 80.7754 17.624 80.3114 17.896C79.8474 18.168 79.4834 18.556 79.2194 19.06C78.9554 19.556 78.8234 20.14 78.8234 20.812C78.8234 21.476 78.9554 22.06 79.2194 22.564C79.4834 23.06 79.8474 23.444 80.3114 23.716C80.7754 23.988 81.2994 24.124 81.8834 24.124C82.4914 24.124 83.0114 23.992 83.4434 23.728C83.8834 23.456 84.2194 23.068 84.4514 22.564H85.7594C85.4474 23.364 84.9514 23.984 84.2714 24.424C83.5914 24.856 82.7954 25.072 81.8834 25.072C81.1074 25.072 80.3994 24.892 79.7594 24.532C79.1274 24.164 78.6274 23.656 78.2594 23.008C77.8914 22.36 77.7074 21.628 77.7074 20.812ZM97.4962 16.636L94.3402 25H93.0802L89.9242 16.636H91.0882L93.7162 23.848L96.3442 16.636H97.4962ZM104.694 21.46C104.694 21.668 104.682 21.888 104.658 22.12H99.4015C99.4415 22.768 99.6615 23.276 100.062 23.644C100.47 24.004 100.962 24.184 101.538 24.184C102.01 24.184 102.402 24.076 102.714 23.86C103.034 23.636 103.258 23.34 103.386 22.972H104.562C104.386 23.604 104.034 24.12 103.506 24.52C102.978 24.912 102.322 25.108 101.538 25.108C100.914 25.108 100.354 24.968 99.8575 24.688C99.3695 24.408 98.9855 24.012 98.7055 23.5C98.4255 22.98 98.2855 22.38 98.2855 21.7C98.2855 21.02 98.4215 20.424 98.6935 19.912C98.9655 19.4 99.3455 19.008 99.8335 18.736C100.33 18.456 100.898 18.316 101.538 18.316C102.162 18.316 102.714 18.452 103.194 18.724C103.674 18.996 104.042 19.372 104.298 19.852C104.562 20.324 104.694 20.86 104.694 21.46ZM103.566 21.232C103.566 20.816 103.474 20.46 103.29 20.164C103.106 19.86 102.854 19.632 102.534 19.48C102.222 19.32 101.874 19.24 101.49 19.24C100.938 19.24 100.466 19.416 100.074 19.768C99.6895 20.12 99.4695 20.608 99.4135 21.232H103.566ZM107.227 19.492C107.419 19.116 107.691 18.824 108.043 18.616C108.403 18.408 108.839 18.304 109.351 18.304V19.432H109.063C107.839 19.432 107.227 20.096 107.227 21.424V25H106.135V18.424H107.227V19.492ZM111.176 17.356C110.968 17.356 110.792 17.284 110.648 17.14C110.504 16.996 110.432 16.82 110.432 16.612C110.432 16.404 110.504 16.228 110.648 16.084C110.792 15.94 110.968 15.868 111.176 15.868C111.376 15.868 111.544 15.94 111.68 16.084C111.824 16.228 111.896 16.404 111.896 16.612C111.896 16.82 111.824 16.996 111.68 17.14C111.544 17.284 111.376 17.356 111.176 17.356ZM111.704 18.424V25H110.612V18.424H111.704ZM116.241 19.324H114.861V25H113.769V19.324H112.917V18.424H113.769V17.956C113.769 17.22 113.957 16.684 114.333 16.348C114.717 16.004 115.329 15.832 116.169 15.832V16.744C115.689 16.744 115.349 16.84 115.149 17.032C114.957 17.216 114.861 17.524 114.861 17.956V18.424H116.241V19.324ZM118.078 17.356C117.87 17.356 117.694 17.284 117.55 17.14C117.406 16.996 117.334 16.82 117.334 16.612C117.334 16.404 117.406 16.228 117.55 16.084C117.694 15.94 117.87 15.868 118.078 15.868C118.278 15.868 118.446 15.94 118.582 16.084C118.726 16.228 118.798 16.404 118.798 16.612C118.798 16.82 118.726 16.996 118.582 17.14C118.446 17.284 118.278 17.356 118.078 17.356ZM118.606 18.424V25H117.514V18.424H118.606ZM120.059 21.7C120.059 21.02 120.195 20.428 120.467 19.924C120.739 19.412 121.115 19.016 121.595 18.736C122.083 18.456 122.639 18.316 123.263 18.316C124.071 18.316 124.735 18.512 125.255 18.904C125.783 19.296 126.131 19.84 126.299 20.536H125.123C125.011 20.136 124.791 19.82 124.463 19.588C124.143 19.356 123.743 19.24 123.263 19.24C122.639 19.24 122.135 19.456 121.751 19.888C121.367 20.312 121.175 20.916 121.175 21.7C121.175 22.492 121.367 23.104 121.751 23.536C122.135 23.968 122.639 24.184 123.263 24.184C123.743 24.184 124.143 24.072 124.463 23.848C124.783 23.624 125.003 23.304 125.123 22.888H126.299C126.123 23.56 125.771 24.1 125.243 24.508C124.715 24.908 124.055 25.108 123.263 25.108C122.639 25.108 122.083 24.968 121.595 24.688C121.115 24.408 120.739 24.012 120.467 23.5C120.195 22.988 120.059 22.388 120.059 21.7ZM127.348 21.688C127.348 21.016 127.484 20.428 127.756 19.924C128.028 19.412 128.4 19.016 128.872 18.736C129.352 18.456 129.884 18.316 130.468 18.316C131.044 18.316 131.544 18.44 131.968 18.688C132.392 18.936 132.708 19.248 132.916 19.624V18.424H134.02V25H132.916V23.776C132.7 24.16 132.376 24.48 131.944 24.736C131.52 24.984 131.024 25.108 130.456 25.108C129.872 25.108 129.344 24.964 128.872 24.676C128.4 24.388 128.028 23.984 127.756 23.464C127.484 22.944 127.348 22.352 127.348 21.688ZM132.916 21.7C132.916 21.204 132.816 20.772 132.616 20.404C132.416 20.036 132.144 19.756 131.8 19.564C131.464 19.364 131.092 19.264 130.684 19.264C130.276 19.264 129.904 19.36 129.568 19.552C129.232 19.744 128.964 20.024 128.764 20.392C128.564 20.76 128.464 21.192 128.464 21.688C128.464 22.192 128.564 22.632 128.764 23.008C128.964 23.376 129.232 23.66 129.568 23.86C129.904 24.052 130.276 24.148 130.684 24.148C131.092 24.148 131.464 24.052 131.8 23.86C132.144 23.66 132.416 23.376 132.616 23.008C132.816 22.632 132.916 22.196 132.916 21.7ZM137.197 19.324V23.2C137.197 23.52 137.265 23.748 137.401 23.884C137.537 24.012 137.773 24.076 138.109 24.076H138.913V25H137.929C137.321 25 136.865 24.86 136.561 24.58C136.257 24.3 136.105 23.84 136.105 23.2V19.324H135.253V18.424H136.105V16.768H137.197V18.424H138.913V19.324H137.197ZM140.801 17.356C140.593 17.356 140.417 17.284 140.273 17.14C140.129 16.996 140.057 16.82 140.057 16.612C140.057 16.404 140.129 16.228 140.273 16.084C140.417 15.94 140.593 15.868 140.801 15.868C141.001 15.868 141.169 15.94 141.305 16.084C141.449 16.228 141.521 16.404 141.521 16.612C141.521 16.82 141.449 16.996 141.305 17.14C141.169 17.284 141.001 17.356 140.801 17.356ZM141.329 18.424V25H140.237V18.424H141.329ZM146.058 25.108C145.442 25.108 144.882 24.968 144.378 24.688C143.882 24.408 143.49 24.012 143.202 23.5C142.922 22.98 142.782 22.38 142.782 21.7C142.782 21.028 142.926 20.436 143.214 19.924C143.51 19.404 143.91 19.008 144.414 18.736C144.918 18.456 145.482 18.316 146.106 18.316C146.73 18.316 147.294 18.456 147.798 18.736C148.302 19.008 148.698 19.4 148.986 19.912C149.282 20.424 149.43 21.02 149.43 21.7C149.43 22.38 149.278 22.98 148.974 23.5C148.678 24.012 148.274 24.408 147.762 24.688C147.25 24.968 146.682 25.108 146.058 25.108ZM146.058 24.148C146.45 24.148 146.818 24.056 147.162 23.872C147.506 23.688 147.782 23.412 147.99 23.044C148.206 22.676 148.314 22.228 148.314 21.7C148.314 21.172 148.21 20.724 148.002 20.356C147.794 19.988 147.522 19.716 147.186 19.54C146.85 19.356 146.486 19.264 146.094 19.264C145.694 19.264 145.326 19.356 144.99 19.54C144.662 19.716 144.398 19.988 144.198 20.356C143.998 20.724 143.898 21.172 143.898 21.7C143.898 22.236 143.994 22.688 144.186 23.056C144.386 23.424 144.65 23.7 144.978 23.884C145.306 24.06 145.666 24.148 146.058 24.148ZM154.069 18.304C154.869 18.304 155.517 18.548 156.013 19.036C156.509 19.516 156.757 20.212 156.757 21.124V25H155.677V21.28C155.677 20.624 155.513 20.124 155.185 19.78C154.857 19.428 154.409 19.252 153.841 19.252C153.265 19.252 152.805 19.432 152.461 19.792C152.125 20.152 151.957 20.676 151.957 21.364V25H150.865V18.424H151.957V19.36C152.173 19.024 152.465 18.764 152.833 18.58C153.209 18.396 153.621 18.304 154.069 18.304ZM63.516 37.812C63.516 36.996 63.7 36.264 64.068 35.616C64.436 34.96 64.936 34.448 65.568 34.08C66.208 33.712 66.916 33.528 67.692 33.528C68.604 33.528 69.4 33.748 70.08 34.188C70.76 34.628 71.256 35.252 71.568 36.06H70.26C70.028 35.556 69.692 35.168 69.252 34.896C68.82 34.624 68.3 34.488 67.692 34.488C67.108 34.488 66.584 34.624 66.12 34.896C65.656 35.168 65.292 35.556 65.028 36.06C64.764 36.556 64.632 37.14 64.632 37.812C64.632 38.476 64.764 39.06 65.028 39.564C65.292 40.06 65.656 40.444 66.12 40.716C66.584 40.988 67.108 41.124 67.692 41.124C68.3 41.124 68.82 40.992 69.252 40.728C69.692 40.456 70.028 40.068 70.26 39.564H71.568C71.256 40.364 70.76 40.984 70.08 41.424C69.4 41.856 68.604 42.072 67.692 42.072C66.916 42.072 66.208 41.892 65.568 41.532C64.936 41.164 64.436 40.656 64.068 40.008C63.7 39.36 63.516 38.628 63.516 37.812ZM76.4575 35.304C76.9535 35.304 77.4015 35.412 77.8015 35.628C78.2015 35.836 78.5135 36.152 78.7375 36.576C78.9695 37 79.0855 37.516 79.0855 38.124V42H78.0055V38.28C78.0055 37.624 77.8415 37.124 77.5135 36.78C77.1855 36.428 76.7375 36.252 76.1695 36.252C75.5935 36.252 75.1335 36.432 74.7895 36.792C74.4535 37.152 74.2855 37.676 74.2855 38.364V42H73.1935V33.12H74.2855V36.36C74.5015 36.024 74.7975 35.764 75.1735 35.58C75.5575 35.396 75.9855 35.304 76.4575 35.304ZM86.8693 38.46C86.8693 38.668 86.8573 38.888 86.8333 39.12H81.5773C81.6173 39.768 81.8373 40.276 82.2373 40.644C82.6453 41.004 83.1373 41.184 83.7133 41.184C84.1853 41.184 84.5773 41.076 84.8893 40.86C85.2093 40.636 85.4333 40.34 85.5613 39.972H86.7373C86.5613 40.604 86.2093 41.12 85.6813 41.52C85.1533 41.912 84.4973 42.108 83.7133 42.108C83.0893 42.108 82.5293 41.968 82.0333 41.688C81.5453 41.408 81.1613 41.012 80.8813 40.5C80.6013 39.98 80.4613 39.38 80.4613 38.7C80.4613 38.02 80.5973 37.424 80.8693 36.912C81.1413 36.4 81.5213 36.008 82.0093 35.736C82.5053 35.456 83.0733 35.316 83.7133 35.316C84.3373 35.316 84.8893 35.452 85.3693 35.724C85.8493 35.996 86.2173 36.372 86.4733 36.852C86.7373 37.324 86.8693 37.86 86.8693 38.46ZM85.7413 38.232C85.7413 37.816 85.6493 37.46 85.4653 37.164C85.2813 36.86 85.0293 36.632 84.7093 36.48C84.3973 36.32 84.0493 36.24 83.6653 36.24C83.1133 36.24 82.6413 36.416 82.2493 36.768C81.8653 37.12 81.6453 37.608 81.5893 38.232H85.7413ZM87.9027 38.7C87.9027 38.02 88.0387 37.428 88.3107 36.924C88.5827 36.412 88.9587 36.016 89.4387 35.736C89.9267 35.456 90.4827 35.316 91.1067 35.316C91.9147 35.316 92.5787 35.512 93.0987 35.904C93.6267 36.296 93.9747 36.84 94.1427 37.536H92.9667C92.8547 37.136 92.6347 36.82 92.3067 36.588C91.9867 36.356 91.5867 36.24 91.1067 36.24C90.4827 36.24 89.9787 36.456 89.5947 36.888C89.2107 37.312 89.0187 37.916 89.0187 38.7C89.0187 39.492 89.2107 40.104 89.5947 40.536C89.9787 40.968 90.4827 41.184 91.1067 41.184C91.5867 41.184 91.9867 41.072 92.3067 40.848C92.6267 40.624 92.8467 40.304 92.9667 39.888H94.1427C93.9667 40.56 93.6147 41.1 93.0867 41.508C92.5587 41.908 91.8987 42.108 91.1067 42.108C90.4827 42.108 89.9267 41.968 89.4387 41.688C88.9587 41.408 88.5827 41.012 88.3107 40.5C88.0387 39.988 87.9027 39.388 87.9027 38.7ZM99.2718 42L96.6918 39.096V42H95.5998V33.12H96.6918V38.34L99.2238 35.424H100.748L97.6518 38.7L100.76 42H99.2718ZM102.868 33.12V42H101.776V33.12H102.868ZM105.293 34.356C105.085 34.356 104.909 34.284 104.765 34.14C104.621 33.996 104.549 33.82 104.549 33.612C104.549 33.404 104.621 33.228 104.765 33.084C104.909 32.94 105.085 32.868 105.293 32.868C105.493 32.868 105.661 32.94 105.797 33.084C105.941 33.228 106.013 33.404 106.013 33.612C106.013 33.82 105.941 33.996 105.797 34.14C105.661 34.284 105.493 34.356 105.293 34.356ZM105.821 35.424V42H104.729V35.424H105.821ZM110.01 42.108C109.506 42.108 109.054 42.024 108.654 41.856C108.254 41.68 107.938 41.44 107.706 41.136C107.474 40.824 107.346 40.468 107.322 40.068H108.45C108.482 40.396 108.634 40.664 108.906 40.872C109.186 41.08 109.55 41.184 109.998 41.184C110.414 41.184 110.742 41.092 110.982 40.908C111.222 40.724 111.342 40.492 111.342 40.212C111.342 39.924 111.214 39.712 110.958 39.576C110.702 39.432 110.306 39.292 109.77 39.156C109.282 39.028 108.882 38.9 108.57 38.772C108.266 38.636 108.002 38.44 107.778 38.184C107.562 37.92 107.454 37.576 107.454 37.152C107.454 36.816 107.554 36.508 107.754 36.228C107.954 35.948 108.238 35.728 108.606 35.568C108.974 35.4 109.394 35.316 109.866 35.316C110.594 35.316 111.182 35.5 111.63 35.868C112.078 36.236 112.318 36.74 112.35 37.38H111.258C111.234 37.036 111.094 36.76 110.838 36.552C110.59 36.344 110.254 36.24 109.83 36.24C109.438 36.24 109.126 36.324 108.894 36.492C108.662 36.66 108.546 36.88 108.546 37.152C108.546 37.368 108.614 37.548 108.75 37.692C108.894 37.828 109.07 37.94 109.278 38.028C109.494 38.108 109.79 38.2 110.166 38.304C110.638 38.432 111.022 38.56 111.318 38.688C111.614 38.808 111.866 38.992 112.074 39.24C112.29 39.488 112.402 39.812 112.41 40.212C112.41 40.572 112.31 40.896 112.11 41.184C111.91 41.472 111.626 41.7 111.258 41.868C110.898 42.028 110.482 42.108 110.01 42.108ZM115.283 36.324V40.2C115.283 40.52 115.351 40.748 115.487 40.884C115.623 41.012 115.859 41.076 116.195 41.076H116.999V42H116.015C115.407 42 114.951 41.86 114.647 41.58C114.343 41.3 114.191 40.84 114.191 40.2V36.324H113.339V35.424H114.191V33.768H115.283V35.424H116.999V36.324H115.283ZM118.67 42.072C118.462 42.072 118.286 42 118.142 41.856C117.998 41.712 117.926 41.536 117.926 41.328C117.926 41.12 117.998 40.944 118.142 40.8C118.286 40.656 118.462 40.584 118.67 40.584C118.87 40.584 119.038 40.656 119.174 40.8C119.318 40.944 119.39 41.12 119.39 41.328C119.39 41.536 119.318 41.712 119.174 41.856C119.038 42 118.87 42.072 118.67 42.072Z" fill="#000152"/>
<path d="M239.5 12C234.262 12 230 16.2615 230 21.5C230 26.7385 234.262 31 239.5 31C244.738 31 249 26.7385 249 21.5C249 16.2615 244.738 12 239.5 12ZM244.315 19.4868L239.169 24.6326C239.015 24.787 238.812 24.8646 238.609 24.8646C238.407 24.8646 238.204 24.787 238.05 24.6326L235.477 22.0597C235.167 21.7502 235.167 21.2498 235.477 20.9403C235.786 20.6308 236.287 20.6308 236.596 20.9403L238.609 22.9535L243.195 18.3674C243.505 18.0578 244.005 18.0578 244.315 18.3674C244.624 18.6769 244.624 19.1772 244.315 19.4868Z" fill="#4FA747"/>
<path d="M258.68 35.77V38.1H261.22V38.85H258.68V41.25H261.52V42H257.77V35.02H261.52V35.77H258.68ZM269.487 36.42C269.914 36.42 270.294 36.51 270.627 36.69C270.96 36.8633 271.224 37.1267 271.417 37.48C271.61 37.8333 271.707 38.2633 271.707 38.77V42H270.807V38.9C270.807 38.3533 270.67 37.9367 270.397 37.65C270.13 37.3567 269.767 37.21 269.307 37.21C268.834 37.21 268.457 37.3633 268.177 37.67C267.897 37.97 267.757 38.4067 267.757 38.98V42H266.857V38.9C266.857 38.3533 266.72 37.9367 266.447 37.65C266.18 37.3567 265.817 37.21 265.357 37.21C264.884 37.21 264.507 37.3633 264.227 37.67C263.947 37.97 263.807 38.4067 263.807 38.98V42H262.897V36.52H263.807V37.31C263.987 37.0233 264.227 36.8033 264.527 36.65C264.834 36.4967 265.17 36.42 265.537 36.42C265.997 36.42 266.404 36.5233 266.757 36.73C267.11 36.9367 267.374 37.24 267.547 37.64C267.7 37.2533 267.954 36.9533 268.307 36.74C268.66 36.5267 269.054 36.42 269.487 36.42ZM272.86 39.24C272.86 38.68 272.973 38.19 273.2 37.77C273.426 37.3433 273.736 37.0133 274.13 36.78C274.53 36.5467 274.973 36.43 275.46 36.43C275.94 36.43 276.356 36.5333 276.71 36.74C277.063 36.9467 277.326 37.2067 277.5 37.52V36.52H278.42V42H277.5V40.98C277.32 41.3 277.05 41.5667 276.69 41.78C276.336 41.9867 275.923 42.09 275.45 42.09C274.963 42.09 274.523 41.97 274.13 41.73C273.736 41.49 273.426 41.1533 273.2 40.72C272.973 40.2867 272.86 39.7933 272.86 39.24ZM277.5 39.25C277.5 38.8367 277.416 38.4767 277.25 38.17C277.083 37.8633 276.856 37.63 276.57 37.47C276.29 37.3033 275.98 37.22 275.64 37.22C275.3 37.22 274.99 37.3 274.71 37.46C274.43 37.62 274.206 37.8533 274.04 38.16C273.873 38.4667 273.79 38.8267 273.79 39.24C273.79 39.66 273.873 40.0267 274.04 40.34C274.206 40.6467 274.43 40.8833 274.71 41.05C274.99 41.21 275.3 41.29 275.64 41.29C275.98 41.29 276.29 41.21 276.57 41.05C276.856 40.8833 277.083 40.6467 277.25 40.34C277.416 40.0267 277.5 39.6633 277.5 39.25ZM280.428 35.63C280.254 35.63 280.108 35.57 279.988 35.45C279.868 35.33 279.808 35.1833 279.808 35.01C279.808 34.8367 279.868 34.69 279.988 34.57C280.108 34.45 280.254 34.39 280.428 34.39C280.594 34.39 280.734 34.45 280.848 34.57C280.968 34.69 281.028 34.8367 281.028 35.01C281.028 35.1833 280.968 35.33 280.848 35.45C280.734 35.57 280.594 35.63 280.428 35.63ZM280.868 36.52V42H279.958V36.52H280.868ZM283.328 34.6V42H282.418V34.6H283.328ZM287.205 39.24C287.205 38.68 287.319 38.19 287.545 37.77C287.772 37.3433 288.082 37.0133 288.475 36.78C288.875 36.5467 289.319 36.43 289.805 36.43C290.285 36.43 290.702 36.5333 291.055 36.74C291.409 36.9467 291.672 37.2067 291.845 37.52V36.52H292.765V42H291.845V40.98C291.665 41.3 291.395 41.5667 291.035 41.78C290.682 41.9867 290.269 42.09 289.795 42.09C289.309 42.09 288.869 41.97 288.475 41.73C288.082 41.49 287.772 41.1533 287.545 40.72C287.319 40.2867 287.205 39.7933 287.205 39.24ZM291.845 39.25C291.845 38.8367 291.762 38.4767 291.595 38.17C291.429 37.8633 291.202 37.63 290.915 37.47C290.635 37.3033 290.325 37.22 289.985 37.22C289.645 37.22 289.335 37.3 289.055 37.46C288.775 37.62 288.552 37.8533 288.385 38.16C288.219 38.4667 288.135 38.8267 288.135 39.24C288.135 39.66 288.219 40.0267 288.385 40.34C288.552 40.6467 288.775 40.8833 289.055 41.05C289.335 41.21 289.645 41.29 289.985 41.29C290.325 41.29 290.635 41.21 290.915 41.05C291.202 40.8833 291.429 40.6467 291.595 40.34C291.762 40.0267 291.845 39.6633 291.845 39.25ZM293.963 39.24C293.963 38.68 294.077 38.19 294.303 37.77C294.53 37.3433 294.84 37.0133 295.233 36.78C295.633 36.5467 296.08 36.43 296.573 36.43C297 36.43 297.397 36.53 297.763 36.73C298.13 36.9233 298.41 37.18 298.603 37.5V34.6H299.523V42H298.603V40.97C298.423 41.2967 298.157 41.5667 297.803 41.78C297.45 41.9867 297.037 42.09 296.563 42.09C296.077 42.09 295.633 41.97 295.233 41.73C294.84 41.49 294.53 41.1533 294.303 40.72C294.077 40.2867 293.963 39.7933 293.963 39.24ZM298.603 39.25C298.603 38.8367 298.52 38.4767 298.353 38.17C298.187 37.8633 297.96 37.63 297.673 37.47C297.393 37.3033 297.083 37.22 296.743 37.22C296.403 37.22 296.093 37.3 295.813 37.46C295.533 37.62 295.31 37.8533 295.143 38.16C294.977 38.4667 294.893 38.8267 294.893 39.24C294.893 39.66 294.977 40.0267 295.143 40.34C295.31 40.6467 295.533 40.8833 295.813 41.05C296.093 41.21 296.403 41.29 296.743 41.29C297.083 41.29 297.393 41.21 297.673 41.05C297.96 40.8833 298.187 40.6467 298.353 40.34C298.52 40.0267 298.603 39.6633 298.603 39.25ZM300.721 39.24C300.721 38.68 300.834 38.19 301.061 37.77C301.288 37.3433 301.598 37.0133 301.991 36.78C302.391 36.5467 302.838 36.43 303.331 36.43C303.758 36.43 304.154 36.53 304.521 36.73C304.888 36.9233 305.168 37.18 305.361 37.5V34.6H306.281V42H305.361V40.97C305.181 41.2967 304.914 41.5667 304.561 41.78C304.208 41.9867 303.794 42.09 303.321 42.09C302.834 42.09 302.391 41.97 301.991 41.73C301.598 41.49 301.288 41.1533 301.061 40.72C300.834 40.2867 300.721 39.7933 300.721 39.24ZM305.361 39.25C305.361 38.8367 305.278 38.4767 305.111 38.17C304.944 37.8633 304.718 37.63 304.431 37.47C304.151 37.3033 303.841 37.22 303.501 37.22C303.161 37.22 302.851 37.3 302.571 37.46C302.291 37.62 302.068 37.8533 301.901 38.16C301.734 38.4667 301.651 38.8267 301.651 39.24C301.651 39.66 301.734 40.0267 301.901 40.34C302.068 40.6467 302.291 40.8833 302.571 41.05C302.851 41.21 303.161 41.29 303.501 41.29C303.841 41.29 304.151 41.21 304.431 41.05C304.718 40.8833 304.944 40.6467 305.111 40.34C305.278 40.0267 305.361 39.6633 305.361 39.25ZM308.729 37.41C308.889 37.0967 309.115 36.8533 309.409 36.68C309.709 36.5067 310.072 36.42 310.499 36.42V37.36H310.259C309.239 37.36 308.729 37.9133 308.729 39.02V42H307.819V36.52H308.729V37.41ZM316.549 39.05C316.549 39.2233 316.539 39.4067 316.519 39.6H312.139C312.173 40.14 312.356 40.5633 312.689 40.87C313.029 41.17 313.439 41.32 313.919 41.32C314.313 41.32 314.639 41.23 314.899 41.05C315.166 40.8633 315.353 40.6167 315.459 40.31H316.439C316.293 40.8367 315.999 41.2667 315.559 41.6C315.119 41.9267 314.573 42.09 313.919 42.09C313.399 42.09 312.933 41.9733 312.519 41.74C312.113 41.5067 311.793 41.1767 311.559 40.75C311.326 40.3167 311.209 39.8167 311.209 39.25C311.209 38.6833 311.323 38.1867 311.549 37.76C311.776 37.3333 312.093 37.0067 312.499 36.78C312.913 36.5467 313.386 36.43 313.919 36.43C314.439 36.43 314.899 36.5433 315.299 36.77C315.699 36.9967 316.006 37.31 316.219 37.71C316.439 38.1033 316.549 38.55 316.549 39.05ZM315.609 38.86C315.609 38.5133 315.533 38.2167 315.379 37.97C315.226 37.7167 315.016 37.5267 314.749 37.4C314.489 37.2667 314.199 37.2 313.879 37.2C313.419 37.2 313.026 37.3467 312.699 37.64C312.379 37.9333 312.196 38.34 312.149 38.86H315.609ZM319.69 42.09C319.27 42.09 318.894 42.02 318.56 41.88C318.227 41.7333 317.964 41.5333 317.77 41.28C317.577 41.02 317.47 40.7233 317.45 40.39H318.39C318.417 40.6633 318.544 40.8867 318.77 41.06C319.004 41.2333 319.307 41.32 319.68 41.32C320.027 41.32 320.3 41.2433 320.5 41.09C320.7 40.9367 320.8 40.7433 320.8 40.51C320.8 40.27 320.694 40.0933 320.48 39.98C320.267 39.86 319.937 39.7433 319.49 39.63C319.084 39.5233 318.75 39.4167 318.49 39.31C318.237 39.1967 318.017 39.0333 317.83 38.82C317.65 38.6 317.56 38.3133 317.56 37.96C317.56 37.68 317.644 37.4233 317.81 37.19C317.977 36.9567 318.214 36.7733 318.52 36.64C318.827 36.5 319.177 36.43 319.57 36.43C320.177 36.43 320.667 36.5833 321.04 36.89C321.414 37.1967 321.614 37.6167 321.64 38.15H320.73C320.71 37.8633 320.594 37.6333 320.38 37.46C320.174 37.2867 319.894 37.2 319.54 37.2C319.214 37.2 318.954 37.27 318.76 37.41C318.567 37.55 318.47 37.7333 318.47 37.96C318.47 38.14 318.527 38.29 318.64 38.41C318.76 38.5233 318.907 38.6167 319.08 38.69C319.26 38.7567 319.507 38.8333 319.82 38.92C320.214 39.0267 320.534 39.1333 320.78 39.24C321.027 39.34 321.237 39.4933 321.41 39.7C321.59 39.9067 321.684 40.1767 321.69 40.51C321.69 40.81 321.607 41.08 321.44 41.32C321.274 41.56 321.037 41.75 320.73 41.89C320.43 42.0233 320.084 42.09 319.69 42.09ZM324.915 42.09C324.495 42.09 324.118 42.02 323.785 41.88C323.452 41.7333 323.188 41.5333 322.995 41.28C322.802 41.02 322.695 40.7233 322.675 40.39H323.615C323.642 40.6633 323.768 40.8867 323.995 41.06C324.228 41.2333 324.532 41.32 324.905 41.32C325.252 41.32 325.525 41.2433 325.725 41.09C325.925 40.9367 326.025 40.7433 326.025 40.51C326.025 40.27 325.918 40.0933 325.705 39.98C325.492 39.86 325.162 39.7433 324.715 39.63C324.308 39.5233 323.975 39.4167 323.715 39.31C323.462 39.1967 323.242 39.0333 323.055 38.82C322.875 38.6 322.785 38.3133 322.785 37.96C322.785 37.68 322.868 37.4233 323.035 37.19C323.202 36.9567 323.438 36.7733 323.745 36.64C324.052 36.5 324.402 36.43 324.795 36.43C325.402 36.43 325.892 36.5833 326.265 36.89C326.638 37.1967 326.838 37.6167 326.865 38.15H325.955C325.935 37.8633 325.818 37.6333 325.605 37.46C325.398 37.2867 325.118 37.2 324.765 37.2C324.438 37.2 324.178 37.27 323.985 37.41C323.792 37.55 323.695 37.7333 323.695 37.96C323.695 38.14 323.752 38.29 323.865 38.41C323.985 38.5233 324.132 38.6167 324.305 38.69C324.485 38.7567 324.732 38.8333 325.045 38.92C325.438 39.0267 325.758 39.1333 326.005 39.24C326.252 39.34 326.462 39.4933 326.635 39.7C326.815 39.9067 326.908 40.1767 326.915 40.51C326.915 40.81 326.832 41.08 326.665 41.32C326.498 41.56 326.262 41.75 325.955 41.89C325.655 42.0233 325.308 42.09 324.915 42.09ZM332.906 41.16L334.606 36.52H335.576L333.426 42H332.366L330.216 36.52H331.196L332.906 41.16ZM341.471 39.05C341.471 39.2233 341.461 39.4067 341.441 39.6H337.061C337.095 40.14 337.278 40.5633 337.611 40.87C337.951 41.17 338.361 41.32 338.841 41.32C339.235 41.32 339.561 41.23 339.821 41.05C340.088 40.8633 340.275 40.6167 340.381 40.31H341.361C341.215 40.8367 340.921 41.2667 340.481 41.6C340.041 41.9267 339.495 42.09 338.841 42.09C338.321 42.09 337.855 41.9733 337.441 41.74C337.035 41.5067 336.715 41.1767 336.481 40.75C336.248 40.3167 336.131 39.8167 336.131 39.25C336.131 38.6833 336.245 38.1867 336.471 37.76C336.698 37.3333 337.015 37.0067 337.421 36.78C337.835 36.5467 338.308 36.43 338.841 36.43C339.361 36.43 339.821 36.5433 340.221 36.77C340.621 36.9967 340.928 37.31 341.141 37.71C341.361 38.1033 341.471 38.55 341.471 39.05ZM340.531 38.86C340.531 38.5133 340.455 38.2167 340.301 37.97C340.148 37.7167 339.938 37.5267 339.671 37.4C339.411 37.2667 339.121 37.2 338.801 37.2C338.341 37.2 337.948 37.3467 337.621 37.64C337.301 37.9333 337.118 38.34 337.071 38.86H340.531ZM343.582 37.41C343.742 37.0967 343.969 36.8533 344.262 36.68C344.562 36.5067 344.926 36.42 345.352 36.42V37.36H345.112C344.092 37.36 343.582 37.9133 343.582 39.02V42H342.672V36.52H343.582V37.41ZM346.873 35.63C346.699 35.63 346.553 35.57 346.433 35.45C346.313 35.33 346.253 35.1833 346.253 35.01C346.253 34.8367 346.313 34.69 346.433 34.57C346.553 34.45 346.699 34.39 346.873 34.39C347.039 34.39 347.179 34.45 347.293 34.57C347.413 34.69 347.473 34.8367 347.473 35.01C347.473 35.1833 347.413 35.33 347.293 35.45C347.179 35.57 347.039 35.63 346.873 35.63ZM347.313 36.52V42H346.403V36.52H347.313ZM351.094 37.27H349.944V42H349.034V37.27H348.324V36.52H349.034V36.13C349.034 35.5167 349.19 35.07 349.504 34.79C349.824 34.5033 350.334 34.36 351.034 34.36V35.12C350.634 35.12 350.35 35.2 350.184 35.36C350.024 35.5133 349.944 35.77 349.944 36.13V36.52H351.094V37.27ZM352.625 35.63C352.451 35.63 352.305 35.57 352.185 35.45C352.065 35.33 352.005 35.1833 352.005 35.01C352.005 34.8367 352.065 34.69 352.185 34.57C352.305 34.45 352.451 34.39 352.625 34.39C352.791 34.39 352.931 34.45 353.045 34.57C353.165 34.69 353.225 34.8367 353.225 35.01C353.225 35.1833 353.165 35.33 353.045 35.45C352.931 35.57 352.791 35.63 352.625 35.63ZM353.065 36.52V42H352.155V36.52H353.065ZM359.616 39.05C359.616 39.2233 359.606 39.4067 359.586 39.6H355.206C355.239 40.14 355.422 40.5633 355.756 40.87C356.096 41.17 356.506 41.32 356.986 41.32C357.379 41.32 357.706 41.23 357.966 41.05C358.232 40.8633 358.419 40.6167 358.526 40.31H359.506C359.359 40.8367 359.066 41.2667 358.626 41.6C358.186 41.9267 357.639 42.09 356.986 42.09C356.466 42.09 355.999 41.9733 355.586 41.74C355.179 41.5067 354.859 41.1767 354.626 40.75C354.392 40.3167 354.276 39.8167 354.276 39.25C354.276 38.6833 354.389 38.1867 354.616 37.76C354.842 37.3333 355.159 37.0067 355.566 36.78C355.979 36.5467 356.452 36.43 356.986 36.43C357.506 36.43 357.966 36.5433 358.366 36.77C358.766 36.9967 359.072 37.31 359.286 37.71C359.506 38.1033 359.616 38.55 359.616 39.05ZM358.676 38.86C358.676 38.5133 358.599 38.2167 358.446 37.97C358.292 37.7167 358.082 37.5267 357.816 37.4C357.556 37.2667 357.266 37.2 356.946 37.2C356.486 37.2 356.092 37.3467 355.766 37.64C355.446 37.9333 355.262 38.34 355.216 38.86H358.676ZM360.477 39.24C360.477 38.68 360.59 38.19 360.817 37.77C361.044 37.3433 361.354 37.0133 361.747 36.78C362.147 36.5467 362.594 36.43 363.087 36.43C363.514 36.43 363.91 36.53 364.277 36.73C364.644 36.9233 364.924 37.18 365.117 37.5V34.6H366.037V42H365.117V40.97C364.937 41.2967 364.67 41.5667 364.317 41.78C363.964 41.9867 363.55 42.09 363.077 42.09C362.59 42.09 362.147 41.97 361.747 41.73C361.354 41.49 361.044 41.1533 360.817 40.72C360.59 40.2867 360.477 39.7933 360.477 39.24ZM365.117 39.25C365.117 38.8367 365.034 38.4767 364.867 38.17C364.7 37.8633 364.474 37.63 364.187 37.47C363.907 37.3033 363.597 37.22 363.257 37.22C362.917 37.22 362.607 37.3 362.327 37.46C362.047 37.62 361.824 37.8533 361.657 38.16C361.49 38.4667 361.407 38.8267 361.407 39.24C361.407 39.66 361.49 40.0267 361.657 40.34C361.824 40.6467 362.047 40.8833 362.327 41.05C362.607 41.21 362.917 41.29 363.257 41.29C363.597 41.29 363.907 41.21 364.187 41.05C364.474 40.8833 364.7 40.6467 364.867 40.34C365.034 40.0267 365.117 39.6633 365.117 39.25ZM367.865 42.06C367.691 42.06 367.545 42 367.425 41.88C367.305 41.76 367.245 41.6133 367.245 41.44C367.245 41.2667 367.305 41.12 367.425 41C367.545 40.88 367.691 40.82 367.865 40.82C368.031 40.82 368.171 40.88 368.285 41C368.405 41.12 368.465 41.2667 368.465 41.44C368.465 41.6133 368.405 41.76 368.285 41.88C368.171 42 368.031 42.06 367.865 42.06Z" fill="#858585"/>
<path d="M259.352 17.278V20.54H262.908V21.59H259.352V24.95H263.328V26H258.078V16.228H263.328V17.278H259.352ZM274.482 18.188C275.079 18.188 275.611 18.314 276.078 18.566C276.544 18.8087 276.913 19.1773 277.184 19.672C277.454 20.1667 277.59 20.7687 277.59 21.478V26H276.33V21.66C276.33 20.8947 276.138 20.3113 275.756 19.91C275.382 19.4993 274.874 19.294 274.23 19.294C273.567 19.294 273.04 19.5087 272.648 19.938C272.256 20.358 272.06 20.9693 272.06 21.772V26H270.8V21.66C270.8 20.8947 270.608 20.3113 270.226 19.91C269.852 19.4993 269.344 19.294 268.7 19.294C268.037 19.294 267.51 19.5087 267.118 19.938C266.726 20.358 266.53 20.9693 266.53 21.772V26H265.256V18.328H266.53V19.434C266.782 19.0327 267.118 18.7247 267.538 18.51C267.967 18.2953 268.438 18.188 268.952 18.188C269.596 18.188 270.165 18.3327 270.66 18.622C271.154 18.9113 271.523 19.336 271.766 19.896C271.98 19.3547 272.335 18.9347 272.83 18.636C273.324 18.3373 273.875 18.188 274.482 18.188ZM279.204 22.136C279.204 21.352 279.362 20.666 279.68 20.078C279.997 19.4807 280.431 19.0187 280.982 18.692C281.542 18.3653 282.162 18.202 282.844 18.202C283.516 18.202 284.099 18.3467 284.594 18.636C285.088 18.9253 285.457 19.2893 285.7 19.728V18.328H286.988V26H285.7V24.572C285.448 25.02 285.07 25.3933 284.566 25.692C284.071 25.9813 283.492 26.126 282.83 26.126C282.148 26.126 281.532 25.958 280.982 25.622C280.431 25.286 279.997 24.8147 279.68 24.208C279.362 23.6013 279.204 22.9107 279.204 22.136ZM285.7 22.15C285.7 21.5713 285.583 21.0673 285.35 20.638C285.116 20.2087 284.799 19.882 284.398 19.658C284.006 19.4247 283.572 19.308 283.096 19.308C282.62 19.308 282.186 19.42 281.794 19.644C281.402 19.868 281.089 20.1947 280.856 20.624C280.622 21.0533 280.506 21.5573 280.506 22.136C280.506 22.724 280.622 23.2373 280.856 23.676C281.089 24.1053 281.402 24.4367 281.794 24.67C282.186 24.894 282.62 25.006 283.096 25.006C283.572 25.006 284.006 24.894 284.398 24.67C284.799 24.4367 285.116 24.1053 285.35 23.676C285.583 23.2373 285.7 22.7287 285.7 22.15ZM289.799 17.082C289.556 17.082 289.351 16.998 289.183 16.83C289.015 16.662 288.931 16.4567 288.931 16.214C288.931 15.9713 289.015 15.766 289.183 15.598C289.351 15.43 289.556 15.346 289.799 15.346C290.032 15.346 290.228 15.43 290.387 15.598C290.555 15.766 290.639 15.9713 290.639 16.214C290.639 16.4567 290.555 16.662 290.387 16.83C290.228 16.998 290.032 17.082 289.799 17.082ZM290.415 18.328V26H289.141V18.328H290.415ZM293.86 15.64V26H292.586V15.64H293.86Z" fill="#000152"/>
<path d="M829.5 12C824.262 12 820 16.2615 820 21.5C820 26.7385 824.262 31 829.5 31C834.738 31 839 26.7385 839 21.5C839 16.2615 834.738 12 829.5 12ZM834.315 19.4868L829.169 24.6326C829.015 24.787 828.812 24.8646 828.609 24.8646C828.407 24.8646 828.204 24.787 828.05 24.6326L825.477 22.0597C825.167 21.7502 825.167 21.2498 825.477 20.9403C825.786 20.6308 826.287 20.6308 826.596 20.9403L828.609 22.9535L833.195 18.3674C833.505 18.0578 834.005 18.0578 834.315 18.3674C834.624 18.6769 834.624 19.1772 834.315 19.4868Z" fill="#4FA747"/>
<path d="M851.26 38.41C851.513 38.45 851.743 38.5533 851.95 38.72C852.163 38.8867 852.33 39.0933 852.45 39.34C852.577 39.5867 852.64 39.85 852.64 40.13C852.64 40.4833 852.55 40.8033 852.37 41.09C852.19 41.37 851.927 41.5933 851.58 41.76C851.24 41.92 850.837 42 850.37 42H847.77V35.03H850.27C850.743 35.03 851.147 35.11 851.48 35.27C851.813 35.4233 852.063 35.6333 852.23 35.9C852.397 36.1667 852.48 36.4667 852.48 36.8C852.48 37.2133 852.367 37.5567 852.14 37.83C851.92 38.0967 851.627 38.29 851.26 38.41ZM848.68 38.04H850.21C850.637 38.04 850.967 37.94 851.2 37.74C851.433 37.54 851.55 37.2633 851.55 36.91C851.55 36.5567 851.433 36.28 851.2 36.08C850.967 35.88 850.63 35.78 850.19 35.78H848.68V38.04ZM850.29 41.25C850.743 41.25 851.097 41.1433 851.35 40.93C851.603 40.7167 851.73 40.42 851.73 40.04C851.73 39.6533 851.597 39.35 851.33 39.13C851.063 38.9033 850.707 38.79 850.26 38.79H848.68V41.25H850.29ZM859.663 35.03L857.033 42H855.983L853.353 35.03H854.323L856.513 41.04L858.703 35.03H859.663ZM866.141 42H865.231L861.571 36.45V42H860.661V35.02H861.571L865.231 40.56V35.02H866.141V42ZM876.118 35.03L873.488 42H872.438L869.808 35.03H870.778L872.968 41.04L875.158 35.03H876.118ZM882.116 39.05C882.116 39.2233 882.106 39.4067 882.086 39.6H877.706C877.739 40.14 877.922 40.5633 878.256 40.87C878.596 41.17 879.006 41.32 879.486 41.32C879.879 41.32 880.206 41.23 880.466 41.05C880.732 40.8633 880.919 40.6167 881.026 40.31H882.006C881.859 40.8367 881.566 41.2667 881.126 41.6C880.686 41.9267 880.139 42.09 879.486 42.09C878.966 42.09 878.499 41.9733 878.086 41.74C877.679 41.5067 877.359 41.1767 877.126 40.75C876.892 40.3167 876.776 39.8167 876.776 39.25C876.776 38.6833 876.889 38.1867 877.116 37.76C877.342 37.3333 877.659 37.0067 878.066 36.78C878.479 36.5467 878.952 36.43 879.486 36.43C880.006 36.43 880.466 36.5433 880.866 36.77C881.266 36.9967 881.572 37.31 881.786 37.71C882.006 38.1033 882.116 38.55 882.116 39.05ZM881.176 38.86C881.176 38.5133 881.099 38.2167 880.946 37.97C880.792 37.7167 880.582 37.5267 880.316 37.4C880.056 37.2667 879.766 37.2 879.446 37.2C878.986 37.2 878.592 37.3467 878.266 37.64C877.946 37.9333 877.762 38.34 877.716 38.86H881.176ZM884.227 37.41C884.387 37.0967 884.614 36.8533 884.907 36.68C885.207 36.5067 885.57 36.42 885.997 36.42V37.36H885.757C884.737 37.36 884.227 37.9133 884.227 39.02V42H883.317V36.52H884.227V37.41ZM887.517 35.63C887.344 35.63 887.197 35.57 887.077 35.45C886.957 35.33 886.897 35.1833 886.897 35.01C886.897 34.8367 886.957 34.69 887.077 34.57C887.197 34.45 887.344 34.39 887.517 34.39C887.684 34.39 887.824 34.45 887.937 34.57C888.057 34.69 888.117 34.8367 888.117 35.01C888.117 35.1833 888.057 35.33 887.937 35.45C887.824 35.57 887.684 35.63 887.517 35.63ZM887.957 36.52V42H887.047V36.52H887.957ZM891.738 37.27H890.588V42H889.678V37.27H888.968V36.52H889.678V36.13C889.678 35.5167 889.835 35.07 890.148 34.79C890.468 34.5033 890.978 34.36 891.678 34.36V35.12C891.278 35.12 890.995 35.2 890.828 35.36C890.668 35.5133 890.588 35.77 890.588 36.13V36.52H891.738V37.27ZM893.269 35.63C893.096 35.63 892.949 35.57 892.829 35.45C892.709 35.33 892.649 35.1833 892.649 35.01C892.649 34.8367 892.709 34.69 892.829 34.57C892.949 34.45 893.096 34.39 893.269 34.39C893.436 34.39 893.576 34.45 893.689 34.57C893.809 34.69 893.869 34.8367 893.869 35.01C893.869 35.1833 893.809 35.33 893.689 35.45C893.576 35.57 893.436 35.63 893.269 35.63ZM893.709 36.52V42H892.799V36.52H893.709ZM900.26 39.05C900.26 39.2233 900.25 39.4067 900.23 39.6H895.85C895.884 40.14 896.067 40.5633 896.4 40.87C896.74 41.17 897.15 41.32 897.63 41.32C898.024 41.32 898.35 41.23 898.61 41.05C898.877 40.8633 899.064 40.6167 899.17 40.31H900.15C900.004 40.8367 899.71 41.2667 899.27 41.6C898.83 41.9267 898.284 42.09 897.63 42.09C897.11 42.09 896.644 41.9733 896.23 41.74C895.824 41.5067 895.504 41.1767 895.27 40.75C895.037 40.3167 894.92 39.8167 894.92 39.25C894.92 38.6833 895.034 38.1867 895.26 37.76C895.487 37.3333 895.804 37.0067 896.21 36.78C896.624 36.5467 897.097 36.43 897.63 36.43C898.15 36.43 898.61 36.5433 899.01 36.77C899.41 36.9967 899.717 37.31 899.93 37.71C900.15 38.1033 900.26 38.55 900.26 39.05ZM899.32 38.86C899.32 38.5133 899.244 38.2167 899.09 37.97C898.937 37.7167 898.727 37.5267 898.46 37.4C898.2 37.2667 897.91 37.2 897.59 37.2C897.13 37.2 896.737 37.3467 896.41 37.64C896.09 37.9333 895.907 38.34 895.86 38.86H899.32ZM901.121 39.24C901.121 38.68 901.235 38.19 901.461 37.77C901.688 37.3433 901.998 37.0133 902.391 36.78C902.791 36.5467 903.238 36.43 903.731 36.43C904.158 36.43 904.555 36.53 904.921 36.73C905.288 36.9233 905.568 37.18 905.761 37.5V34.6H906.681V42H905.761V40.97C905.581 41.2967 905.315 41.5667 904.961 41.78C904.608 41.9867 904.195 42.09 903.721 42.09C903.235 42.09 902.791 41.97 902.391 41.73C901.998 41.49 901.688 41.1533 901.461 40.72C901.235 40.2867 901.121 39.7933 901.121 39.24ZM905.761 39.25C905.761 38.8367 905.678 38.4767 905.511 38.17C905.345 37.8633 905.118 37.63 904.831 37.47C904.551 37.3033 904.241 37.22 903.901 37.22C903.561 37.22 903.251 37.3 902.971 37.46C902.691 37.62 902.468 37.8533 902.301 38.16C902.135 38.4667 902.051 38.8267 902.051 39.24C902.051 39.66 902.135 40.0267 902.301 40.34C902.468 40.6467 902.691 40.8833 902.971 41.05C903.251 41.21 903.561 41.29 903.901 41.29C904.241 41.29 904.551 41.21 904.831 41.05C905.118 40.8833 905.345 40.6467 905.511 40.34C905.678 40.0267 905.761 39.6633 905.761 39.25ZM908.509 42.06C908.336 42.06 908.189 42 908.069 41.88C907.949 41.76 907.889 41.6133 907.889 41.44C907.889 41.2667 907.949 41.12 908.069 41C908.189 40.88 908.336 40.82 908.509 40.82C908.676 40.82 908.816 40.88 908.929 41C909.049 41.12 909.109 41.2667 909.109 41.44C909.109 41.6133 909.049 41.76 908.929 41.88C908.816 42 908.676 42.06 908.509 42.06Z" fill="#858585"/>
<path d="M852.964 20.974C853.319 21.03 853.641 21.1747 853.93 21.408C854.229 21.6413 854.462 21.9307 854.63 22.276C854.807 22.6213 854.896 22.99 854.896 23.382C854.896 23.8767 854.77 24.3247 854.518 24.726C854.266 25.118 853.897 25.4307 853.412 25.664C852.936 25.888 852.371 26 851.718 26H848.078V16.242H851.578C852.241 16.242 852.805 16.354 853.272 16.578C853.739 16.7927 854.089 17.0867 854.322 17.46C854.555 17.8333 854.672 18.2533 854.672 18.72C854.672 19.2987 854.513 19.7793 854.196 20.162C853.888 20.5353 853.477 20.806 852.964 20.974ZM849.352 20.456H851.494C852.091 20.456 852.553 20.316 852.88 20.036C853.207 19.756 853.37 19.3687 853.37 18.874C853.37 18.3793 853.207 17.992 852.88 17.712C852.553 17.432 852.082 17.292 851.466 17.292H849.352V20.456ZM851.606 24.95C852.241 24.95 852.735 24.8007 853.09 24.502C853.445 24.2033 853.622 23.788 853.622 23.256C853.622 22.7147 853.435 22.29 853.062 21.982C852.689 21.6647 852.189 21.506 851.564 21.506H849.352V24.95H851.606ZM864.728 16.242L861.046 26H859.576L855.894 16.242H857.252L860.318 24.656L863.384 16.242H864.728ZM873.797 26H872.523L867.399 18.23V26H866.125V16.228H867.399L872.523 23.984V16.228H873.797V26Z" fill="#000152"/>
<path d="M422.5 12C417.262 12 413 16.2615 413 21.5C413 26.7385 417.262 31 422.5 31C427.738 31 432 26.7385 432 21.5C432 16.2615 427.738 12 422.5 12ZM427.315 19.4868L422.169 24.6326C422.015 24.787 421.812 24.8646 421.609 24.8646C421.407 24.8646 421.204 24.787 421.05 24.6326L418.477 22.0597C418.167 21.7502 418.167 21.2498 418.477 20.9403C418.786 20.6308 419.287 20.6308 419.596 20.9403L421.609 22.9535L426.195 18.3674C426.505 18.0578 427.005 18.0578 427.315 18.3674C427.624 18.6769 427.624 19.1772 427.315 19.4868Z" fill="#4FA747"/>
<path d="M448.84 35.08V42H447.93V36.84L445.63 42H444.99L442.68 36.83V42H441.77V35.08H442.75L445.31 40.8L447.87 35.08H448.84ZM452.773 42.09C452.26 42.09 451.793 41.9733 451.373 41.74C450.96 41.5067 450.633 41.1767 450.393 40.75C450.16 40.3167 450.043 39.8167 450.043 39.25C450.043 38.69 450.163 38.1967 450.403 37.77C450.65 37.3367 450.983 37.0067 451.403 36.78C451.823 36.5467 452.293 36.43 452.813 36.43C453.333 36.43 453.803 36.5467 454.223 36.78C454.643 37.0067 454.973 37.3333 455.213 37.76C455.46 38.1867 455.583 38.6833 455.583 39.25C455.583 39.8167 455.457 40.3167 455.203 40.75C454.957 41.1767 454.62 41.5067 454.193 41.74C453.767 41.9733 453.293 42.09 452.773 42.09ZM452.773 41.29C453.1 41.29 453.407 41.2133 453.693 41.06C453.98 40.9067 454.21 40.6767 454.383 40.37C454.563 40.0633 454.653 39.69 454.653 39.25C454.653 38.81 454.567 38.4367 454.393 38.13C454.22 37.8233 453.993 37.5967 453.713 37.45C453.433 37.2967 453.13 37.22 452.803 37.22C452.47 37.22 452.163 37.2967 451.883 37.45C451.61 37.5967 451.39 37.8233 451.223 38.13C451.057 38.4367 450.973 38.81 450.973 39.25C450.973 39.6967 451.053 40.0733 451.213 40.38C451.38 40.6867 451.6 40.9167 451.873 41.07C452.147 41.2167 452.447 41.29 452.773 41.29ZM457.69 37.54C457.876 37.2133 458.15 36.9467 458.51 36.74C458.87 36.5333 459.28 36.43 459.74 36.43C460.233 36.43 460.676 36.5467 461.07 36.78C461.463 37.0133 461.773 37.3433 462 37.77C462.226 38.19 462.34 38.68 462.34 39.24C462.34 39.7933 462.226 40.2867 462 40.72C461.773 41.1533 461.46 41.49 461.06 41.73C460.666 41.97 460.226 42.09 459.74 42.09C459.266 42.09 458.85 41.9867 458.49 41.78C458.136 41.5733 457.87 41.31 457.69 40.99V42H456.78V34.6H457.69V37.54ZM461.41 39.24C461.41 38.8267 461.326 38.4667 461.16 38.16C460.993 37.8533 460.766 37.62 460.48 37.46C460.2 37.3 459.89 37.22 459.55 37.22C459.216 37.22 458.906 37.3033 458.62 37.47C458.34 37.63 458.113 37.8667 457.94 38.18C457.773 38.4867 457.69 38.8433 457.69 39.25C457.69 39.6633 457.773 40.0267 457.94 40.34C458.113 40.6467 458.34 40.8833 458.62 41.05C458.906 41.21 459.216 41.29 459.55 41.29C459.89 41.29 460.2 41.21 460.48 41.05C460.766 40.8833 460.993 40.6467 461.16 40.34C461.326 40.0267 461.41 39.66 461.41 39.24ZM464.008 35.63C463.834 35.63 463.688 35.57 463.568 35.45C463.448 35.33 463.388 35.1833 463.388 35.01C463.388 34.8367 463.448 34.69 463.568 34.57C463.688 34.45 463.834 34.39 464.008 34.39C464.174 34.39 464.314 34.45 464.428 34.57C464.548 34.69 464.608 34.8367 464.608 35.01C464.608 35.1833 464.548 35.33 464.428 35.45C464.314 35.57 464.174 35.63 464.008 35.63ZM464.448 36.52V42H463.538V36.52H464.448ZM466.909 34.6V42H465.999V34.6H466.909ZM473.459 39.05C473.459 39.2233 473.449 39.4067 473.429 39.6H469.049C469.083 40.14 469.266 40.5633 469.599 40.87C469.939 41.17 470.349 41.32 470.829 41.32C471.223 41.32 471.549 41.23 471.809 41.05C472.076 40.8633 472.263 40.6167 472.369 40.31H473.349C473.203 40.8367 472.909 41.2667 472.469 41.6C472.029 41.9267 471.483 42.09 470.829 42.09C470.309 42.09 469.843 41.9733 469.429 41.74C469.023 41.5067 468.703 41.1767 468.469 40.75C468.236 40.3167 468.119 39.8167 468.119 39.25C468.119 38.6833 468.233 38.1867 468.459 37.76C468.686 37.3333 469.003 37.0067 469.409 36.78C469.823 36.5467 470.296 36.43 470.829 36.43C471.349 36.43 471.809 36.5433 472.209 36.77C472.609 36.9967 472.916 37.31 473.129 37.71C473.349 38.1033 473.459 38.55 473.459 39.05ZM472.519 38.86C472.519 38.5133 472.443 38.2167 472.289 37.97C472.136 37.7167 471.926 37.5267 471.659 37.4C471.399 37.2667 471.109 37.2 470.789 37.2C470.329 37.2 469.936 37.3467 469.609 37.64C469.289 37.9333 469.106 38.34 469.059 38.86H472.519ZM479.997 36.42C480.663 36.42 481.203 36.6233 481.617 37.03C482.03 37.43 482.237 38.01 482.237 38.77V42H481.337V38.9C481.337 38.3533 481.2 37.9367 480.927 37.65C480.653 37.3567 480.28 37.21 479.807 37.21C479.327 37.21 478.943 37.36 478.657 37.66C478.377 37.96 478.237 38.3967 478.237 38.97V42H477.327V36.52H478.237V37.3C478.417 37.02 478.66 36.8033 478.967 36.65C479.28 36.4967 479.623 36.42 479.997 36.42ZM488.583 36.52V42H487.673V41.19C487.5 41.47 487.256 41.69 486.943 41.85C486.636 42.0033 486.296 42.08 485.923 42.08C485.496 42.08 485.113 41.9933 484.773 41.82C484.433 41.64 484.163 41.3733 483.963 41.02C483.77 40.6667 483.673 40.2367 483.673 39.73V36.52H484.573V39.61C484.573 40.15 484.71 40.5667 484.983 40.86C485.256 41.1467 485.63 41.29 486.103 41.29C486.59 41.29 486.973 41.14 487.253 40.84C487.533 40.54 487.673 40.1033 487.673 39.53V36.52H488.583ZM496.71 36.42C497.136 36.42 497.516 36.51 497.85 36.69C498.183 36.8633 498.446 37.1267 498.64 37.48C498.833 37.8333 498.93 38.2633 498.93 38.77V42H498.03V38.9C498.03 38.3533 497.893 37.9367 497.62 37.65C497.353 37.3567 496.99 37.21 496.53 37.21C496.056 37.21 495.68 37.3633 495.4 37.67C495.12 37.97 494.98 38.4067 494.98 38.98V42H494.08V38.9C494.08 38.3533 493.943 37.9367 493.67 37.65C493.403 37.3567 493.04 37.21 492.58 37.21C492.106 37.21 491.73 37.3633 491.45 37.67C491.17 37.97 491.03 38.4067 491.03 38.98V42H490.12V36.52H491.03V37.31C491.21 37.0233 491.45 36.8033 491.75 36.65C492.056 36.4967 492.393 36.42 492.76 36.42C493.22 36.42 493.626 36.5233 493.98 36.73C494.333 36.9367 494.596 37.24 494.77 37.64C494.923 37.2533 495.176 36.9533 495.53 36.74C495.883 36.5267 496.276 36.42 496.71 36.42ZM501.332 37.54C501.519 37.2133 501.792 36.9467 502.152 36.74C502.512 36.5333 502.922 36.43 503.382 36.43C503.876 36.43 504.319 36.5467 504.712 36.78C505.106 37.0133 505.416 37.3433 505.642 37.77C505.869 38.19 505.982 38.68 505.982 39.24C505.982 39.7933 505.869 40.2867 505.642 40.72C505.416 41.1533 505.102 41.49 504.702 41.73C504.309 41.97 503.869 42.09 503.382 42.09C502.909 42.09 502.492 41.9867 502.132 41.78C501.779 41.5733 501.512 41.31 501.332 40.99V42H500.422V34.6H501.332V37.54ZM505.052 39.24C505.052 38.8267 504.969 38.4667 504.802 38.16C504.636 37.8533 504.409 37.62 504.122 37.46C503.842 37.3 503.532 37.22 503.192 37.22C502.859 37.22 502.549 37.3033 502.262 37.47C501.982 37.63 501.756 37.8667 501.582 38.18C501.416 38.4867 501.332 38.8433 501.332 39.25C501.332 39.6633 501.416 40.0267 501.582 40.34C501.756 40.6467 501.982 40.8833 502.262 41.05C502.549 41.21 502.859 41.29 503.192 41.29C503.532 41.29 503.842 41.21 504.122 41.05C504.409 40.8833 504.636 40.6467 504.802 40.34C504.969 40.0267 505.052 39.66 505.052 39.24ZM512.18 39.05C512.18 39.2233 512.17 39.4067 512.15 39.6H507.77C507.803 40.14 507.987 40.5633 508.32 40.87C508.66 41.17 509.07 41.32 509.55 41.32C509.943 41.32 510.27 41.23 510.53 41.05C510.797 40.8633 510.983 40.6167 511.09 40.31H512.07C511.923 40.8367 511.63 41.2667 511.19 41.6C510.75 41.9267 510.203 42.09 509.55 42.09C509.03 42.09 508.563 41.9733 508.15 41.74C507.743 41.5067 507.423 41.1767 507.19 40.75C506.957 40.3167 506.84 39.8167 506.84 39.25C506.84 38.6833 506.953 38.1867 507.18 37.76C507.407 37.3333 507.723 37.0067 508.13 36.78C508.543 36.5467 509.017 36.43 509.55 36.43C510.07 36.43 510.53 36.5433 510.93 36.77C511.33 36.9967 511.637 37.31 511.85 37.71C512.07 38.1033 512.18 38.55 512.18 39.05ZM511.24 38.86C511.24 38.5133 511.163 38.2167 511.01 37.97C510.857 37.7167 510.647 37.5267 510.38 37.4C510.12 37.2667 509.83 37.2 509.51 37.2C509.05 37.2 508.657 37.3467 508.33 37.64C508.01 37.9333 507.827 38.34 507.78 38.86H511.24ZM514.291 37.41C514.451 37.0967 514.678 36.8533 514.971 36.68C515.271 36.5067 515.635 36.42 516.061 36.42V37.36H515.821C514.801 37.36 514.291 37.9133 514.291 39.02V42H513.381V36.52H514.291V37.41ZM521.818 41.16L523.518 36.52H524.488L522.338 42H521.278L519.128 36.52H520.108L521.818 41.16ZM530.383 39.05C530.383 39.2233 530.373 39.4067 530.353 39.6H525.973C526.007 40.14 526.19 40.5633 526.523 40.87C526.863 41.17 527.273 41.32 527.753 41.32C528.147 41.32 528.473 41.23 528.733 41.05C529 40.8633 529.187 40.6167 529.293 40.31H530.273C530.127 40.8367 529.833 41.2667 529.393 41.6C528.953 41.9267 528.407 42.09 527.753 42.09C527.233 42.09 526.767 41.9733 526.353 41.74C525.947 41.5067 525.627 41.1767 525.393 40.75C525.16 40.3167 525.043 39.8167 525.043 39.25C525.043 38.6833 525.157 38.1867 525.383 37.76C525.61 37.3333 525.927 37.0067 526.333 36.78C526.747 36.5467 527.22 36.43 527.753 36.43C528.273 36.43 528.733 36.5433 529.133 36.77C529.533 36.9967 529.84 37.31 530.053 37.71C530.273 38.1033 530.383 38.55 530.383 39.05ZM529.443 38.86C529.443 38.5133 529.367 38.2167 529.213 37.97C529.06 37.7167 528.85 37.5267 528.583 37.4C528.323 37.2667 528.033 37.2 527.713 37.2C527.253 37.2 526.86 37.3467 526.533 37.64C526.213 37.9333 526.03 38.34 525.983 38.86H529.443ZM532.494 37.41C532.654 37.0967 532.881 36.8533 533.174 36.68C533.474 36.5067 533.838 36.42 534.264 36.42V37.36H534.024C533.004 37.36 532.494 37.9133 532.494 39.02V42H531.584V36.52H532.494V37.41ZM535.785 35.63C535.612 35.63 535.465 35.57 535.345 35.45C535.225 35.33 535.165 35.1833 535.165 35.01C535.165 34.8367 535.225 34.69 535.345 34.57C535.465 34.45 535.612 34.39 535.785 34.39C535.952 34.39 536.092 34.45 536.205 34.57C536.325 34.69 536.385 34.8367 536.385 35.01C536.385 35.1833 536.325 35.33 536.205 35.45C536.092 35.57 535.952 35.63 535.785 35.63ZM536.225 36.52V42H535.315V36.52H536.225ZM540.006 37.27H538.856V42H537.946V37.27H537.236V36.52H537.946V36.13C537.946 35.5167 538.103 35.07 538.416 34.79C538.736 34.5033 539.246 34.36 539.946 34.36V35.12C539.546 35.12 539.263 35.2 539.096 35.36C538.936 35.5133 538.856 35.77 538.856 36.13V36.52H540.006V37.27ZM541.537 35.63C541.364 35.63 541.217 35.57 541.097 35.45C540.977 35.33 540.917 35.1833 540.917 35.01C540.917 34.8367 540.977 34.69 541.097 34.57C541.217 34.45 541.364 34.39 541.537 34.39C541.704 34.39 541.844 34.45 541.957 34.57C542.077 34.69 542.137 34.8367 542.137 35.01C542.137 35.1833 542.077 35.33 541.957 35.45C541.844 35.57 541.704 35.63 541.537 35.63ZM541.977 36.52V42H541.067V36.52H541.977ZM548.528 39.05C548.528 39.2233 548.518 39.4067 548.498 39.6H544.118C544.151 40.14 544.334 40.5633 544.668 40.87C545.008 41.17 545.418 41.32 545.898 41.32C546.291 41.32 546.618 41.23 546.878 41.05C547.144 40.8633 547.331 40.6167 547.438 40.31H548.418C548.271 40.8367 547.978 41.2667 547.538 41.6C547.098 41.9267 546.551 42.09 545.898 42.09C545.378 42.09 544.911 41.9733 544.498 41.74C544.091 41.5067 543.771 41.1767 543.538 40.75C543.304 40.3167 543.188 39.8167 543.188 39.25C543.188 38.6833 543.301 38.1867 543.528 37.76C543.754 37.3333 544.071 37.0067 544.478 36.78C544.891 36.5467 545.364 36.43 545.898 36.43C546.418 36.43 546.878 36.5433 547.278 36.77C547.678 36.9967 547.984 37.31 548.198 37.71C548.418 38.1033 548.528 38.55 548.528 39.05ZM547.588 38.86C547.588 38.5133 547.511 38.2167 547.358 37.97C547.204 37.7167 546.994 37.5267 546.728 37.4C546.468 37.2667 546.178 37.2 545.858 37.2C545.398 37.2 545.004 37.3467 544.678 37.64C544.358 37.9333 544.174 38.34 544.128 38.86H547.588ZM549.389 39.24C549.389 38.68 549.502 38.19 549.729 37.77C549.956 37.3433 550.266 37.0133 550.659 36.78C551.059 36.5467 551.506 36.43 551.999 36.43C552.426 36.43 552.822 36.53 553.189 36.73C553.556 36.9233 553.836 37.18 554.029 37.5V34.6H554.949V42H554.029V40.97C553.849 41.2967 553.582 41.5667 553.229 41.78C552.876 41.9867 552.462 42.09 551.989 42.09C551.502 42.09 551.059 41.97 550.659 41.73C550.266 41.49 549.956 41.1533 549.729 40.72C549.502 40.2867 549.389 39.7933 549.389 39.24ZM554.029 39.25C554.029 38.8367 553.946 38.4767 553.779 38.17C553.612 37.8633 553.386 37.63 553.099 37.47C552.819 37.3033 552.509 37.22 552.169 37.22C551.829 37.22 551.519 37.3 551.239 37.46C550.959 37.62 550.736 37.8533 550.569 38.16C550.402 38.4667 550.319 38.8267 550.319 39.24C550.319 39.66 550.402 40.0267 550.569 40.34C550.736 40.6467 550.959 40.8833 551.239 41.05C551.519 41.21 551.829 41.29 552.169 41.29C552.509 41.29 552.819 41.21 553.099 41.05C553.386 40.8833 553.612 40.6467 553.779 40.34C553.946 40.0267 554.029 39.6633 554.029 39.25ZM556.777 42.06C556.603 42.06 556.457 42 556.337 41.88C556.217 41.76 556.157 41.6133 556.157 41.44C556.157 41.2667 556.217 41.12 556.337 41C556.457 40.88 556.603 40.82 556.777 40.82C556.943 40.82 557.083 40.88 557.197 41C557.317 41.12 557.377 41.2667 557.377 41.44C557.377 41.6133 557.317 41.76 557.197 41.88C557.083 42 556.943 42.06 556.777 42.06Z" fill="#858585"/>
<path d="M451.976 16.312V26H450.702V18.776L447.482 26H446.586L443.352 18.762V26H442.078V16.312H443.45L447.034 24.32L450.618 16.312H451.976ZM457.483 26.126C456.764 26.126 456.111 25.9627 455.523 25.636C454.944 25.3093 454.487 24.8473 454.151 24.25C453.824 23.6433 453.661 22.9433 453.661 22.15C453.661 21.366 453.829 20.6753 454.165 20.078C454.51 19.4713 454.977 19.0093 455.565 18.692C456.153 18.3653 456.811 18.202 457.539 18.202C458.267 18.202 458.925 18.3653 459.513 18.692C460.101 19.0093 460.563 19.4667 460.899 20.064C461.244 20.6613 461.417 21.3567 461.417 22.15C461.417 22.9433 461.239 23.6433 460.885 24.25C460.539 24.8473 460.068 25.3093 459.471 25.636C458.873 25.9627 458.211 26.126 457.483 26.126ZM457.483 25.006C457.94 25.006 458.369 24.8987 458.771 24.684C459.172 24.4693 459.494 24.1473 459.737 23.718C459.989 23.2887 460.115 22.766 460.115 22.15C460.115 21.534 459.993 21.0113 459.751 20.582C459.508 20.1527 459.191 19.8353 458.799 19.63C458.407 19.4153 457.982 19.308 457.525 19.308C457.058 19.308 456.629 19.4153 456.237 19.63C455.854 19.8353 455.546 20.1527 455.313 20.582C455.079 21.0113 454.963 21.534 454.963 22.15C454.963 22.7753 455.075 23.3027 455.299 23.732C455.532 24.1613 455.84 24.4833 456.223 24.698C456.605 24.9033 457.025 25.006 457.483 25.006ZM464.366 19.756C464.627 19.2987 465.01 18.9253 465.514 18.636C466.018 18.3467 466.592 18.202 467.236 18.202C467.926 18.202 468.547 18.3653 469.098 18.692C469.648 19.0187 470.082 19.4807 470.4 20.078C470.717 20.666 470.876 21.352 470.876 22.136C470.876 22.9107 470.717 23.6013 470.4 24.208C470.082 24.8147 469.644 25.286 469.084 25.622C468.533 25.958 467.917 26.126 467.236 26.126C466.573 26.126 465.99 25.9813 465.486 25.692C464.991 25.4027 464.618 25.034 464.366 24.586V26H463.092V15.64H464.366V19.756ZM469.574 22.136C469.574 21.5573 469.457 21.0533 469.224 20.624C468.99 20.1947 468.673 19.868 468.272 19.644C467.88 19.42 467.446 19.308 466.97 19.308C466.503 19.308 466.069 19.4247 465.668 19.658C465.276 19.882 464.958 20.2133 464.716 20.652C464.482 21.0813 464.366 21.5807 464.366 22.15C464.366 22.7287 464.482 23.2373 464.716 23.676C464.958 24.1053 465.276 24.4367 465.668 24.67C466.069 24.894 466.503 25.006 466.97 25.006C467.446 25.006 467.88 24.894 468.272 24.67C468.673 24.4367 468.99 24.1053 469.224 23.676C469.457 23.2373 469.574 22.724 469.574 22.136ZM473.211 17.082C472.968 17.082 472.763 16.998 472.595 16.83C472.427 16.662 472.343 16.4567 472.343 16.214C472.343 15.9713 472.427 15.766 472.595 15.598C472.763 15.43 472.968 15.346 473.211 15.346C473.444 15.346 473.64 15.43 473.799 15.598C473.967 15.766 474.051 15.9713 474.051 16.214C474.051 16.4567 473.967 16.662 473.799 16.83C473.64 16.998 473.444 17.082 473.211 17.082ZM473.827 18.328V26H472.553V18.328H473.827ZM477.272 15.64V26H475.998V15.64H477.272ZM486.443 21.87C486.443 22.1127 486.429 22.3693 486.401 22.64H480.269C480.316 23.396 480.573 23.9887 481.039 24.418C481.515 24.838 482.089 25.048 482.761 25.048C483.312 25.048 483.769 24.922 484.133 24.67C484.507 24.4087 484.768 24.0633 484.917 23.634H486.289C486.084 24.3713 485.673 24.9733 485.057 25.44C484.441 25.8973 483.676 26.126 482.761 26.126C482.033 26.126 481.38 25.9627 480.801 25.636C480.232 25.3093 479.784 24.8473 479.457 24.25C479.131 23.6433 478.967 22.9433 478.967 22.15C478.967 21.3567 479.126 20.6613 479.443 20.064C479.761 19.4667 480.204 19.0093 480.773 18.692C481.352 18.3653 482.015 18.202 482.761 18.202C483.489 18.202 484.133 18.3607 484.693 18.678C485.253 18.9953 485.683 19.434 485.981 19.994C486.289 20.5447 486.443 21.17 486.443 21.87ZM485.127 21.604C485.127 21.1187 485.02 20.7033 484.805 20.358C484.591 20.0033 484.297 19.7373 483.923 19.56C483.559 19.3733 483.153 19.28 482.705 19.28C482.061 19.28 481.511 19.4853 481.053 19.896C480.605 20.3067 480.349 20.876 480.283 21.604H485.127Z" fill="#000152"/>
<path d="M612.537 12C607.319 12 603 16.2449 603 21.4629C603 26.6808 607.319 31 612.537 31C617.755 31 622 26.6808 622 21.4629C622 16.2449 617.755 12 612.537 12ZM617.221 24.5723C617.655 25.0065 617.655 25.7127 617.221 26.1472C616.79 26.5777 616.084 26.5847 615.646 26.1472L612.537 23.0371L609.353 26.1476C608.919 26.5818 608.213 26.5818 607.779 26.1476C607.344 25.7134 607.344 25.0072 607.779 24.5727L610.888 21.4629L607.779 18.3531C607.344 17.9186 607.344 17.2124 607.779 16.7782C608.213 16.344 608.919 16.344 609.353 16.7782L612.537 19.8887L615.646 16.7782C616.08 16.3448 616.786 16.3433 617.221 16.7782C617.655 17.2124 617.655 17.9186 617.221 18.3531L614.111 21.4629L617.221 24.5723Z" fill="#FF1C1C"/>
<path d="M637.43 37.07C637.43 37.65 637.23 38.1333 636.83 38.52C636.437 38.9 635.833 39.09 635.02 39.09H633.68V42H632.77V35.03H635.02C635.807 35.03 636.403 35.22 636.81 35.6C637.223 35.98 637.43 36.47 637.43 37.07ZM635.02 38.34C635.527 38.34 635.9 38.23 636.14 38.01C636.38 37.79 636.5 37.4767 636.5 37.07C636.5 36.21 636.007 35.78 635.02 35.78H633.68V38.34H635.02ZM638.221 39.24C638.221 38.68 638.334 38.19 638.561 37.77C638.788 37.3433 639.098 37.0133 639.491 36.78C639.891 36.5467 640.334 36.43 640.821 36.43C641.301 36.43 641.718 36.5333 642.071 36.74C642.424 36.9467 642.688 37.2067 642.861 37.52V36.52H643.781V42H642.861V40.98C642.681 41.3 642.411 41.5667 642.051 41.78C641.698 41.9867 641.284 42.09 640.811 42.09C640.324 42.09 639.884 41.97 639.491 41.73C639.098 41.49 638.788 41.1533 638.561 40.72C638.334 40.2867 638.221 39.7933 638.221 39.24ZM642.861 39.25C642.861 38.8367 642.778 38.4767 642.611 38.17C642.444 37.8633 642.218 37.63 641.931 37.47C641.651 37.3033 641.341 37.22 641.001 37.22C640.661 37.22 640.351 37.3 640.071 37.46C639.791 37.62 639.568 37.8533 639.401 38.16C639.234 38.4667 639.151 38.8267 639.151 39.24C639.151 39.66 639.234 40.0267 639.401 40.34C639.568 40.6467 639.791 40.8833 640.071 41.05C640.351 41.21 640.661 41.29 641.001 41.29C641.341 41.29 641.651 41.21 641.931 41.05C642.218 40.8833 642.444 40.6467 642.611 40.34C642.778 40.0267 642.861 39.6633 642.861 39.25ZM650.039 36.52L646.739 44.58H645.799L646.879 41.94L644.669 36.52H645.679L647.399 40.96L649.099 36.52H650.039ZM657.544 36.42C657.97 36.42 658.35 36.51 658.684 36.69C659.017 36.8633 659.28 37.1267 659.474 37.48C659.667 37.8333 659.764 38.2633 659.764 38.77V42H658.864V38.9C658.864 38.3533 658.727 37.9367 658.454 37.65C658.187 37.3567 657.824 37.21 657.364 37.21C656.89 37.21 656.514 37.3633 656.234 37.67C655.954 37.97 655.814 38.4067 655.814 38.98V42H654.914V38.9C654.914 38.3533 654.777 37.9367 654.504 37.65C654.237 37.3567 653.874 37.21 653.414 37.21C652.94 37.21 652.564 37.3633 652.284 37.67C652.004 37.97 651.864 38.4067 651.864 38.98V42H650.954V36.52H651.864V37.31C652.044 37.0233 652.284 36.8033 652.584 36.65C652.89 36.4967 653.227 36.42 653.594 36.42C654.054 36.42 654.46 36.5233 654.814 36.73C655.167 36.9367 655.43 37.24 655.604 37.64C655.757 37.2533 656.01 36.9533 656.364 36.74C656.717 36.5267 657.11 36.42 657.544 36.42ZM666.256 39.05C666.256 39.2233 666.246 39.4067 666.226 39.6H661.846C661.88 40.14 662.063 40.5633 662.396 40.87C662.736 41.17 663.146 41.32 663.626 41.32C664.02 41.32 664.346 41.23 664.606 41.05C664.873 40.8633 665.06 40.6167 665.166 40.31H666.146C666 40.8367 665.706 41.2667 665.266 41.6C664.826 41.9267 664.28 42.09 663.626 42.09C663.106 42.09 662.64 41.9733 662.226 41.74C661.82 41.5067 661.5 41.1767 661.266 40.75C661.033 40.3167 660.916 39.8167 660.916 39.25C660.916 38.6833 661.03 38.1867 661.256 37.76C661.483 37.3333 661.8 37.0067 662.206 36.78C662.62 36.5467 663.093 36.43 663.626 36.43C664.146 36.43 664.606 36.5433 665.006 36.77C665.406 36.9967 665.713 37.31 665.926 37.71C666.146 38.1033 666.256 38.55 666.256 39.05ZM665.316 38.86C665.316 38.5133 665.24 38.2167 665.086 37.97C664.933 37.7167 664.723 37.5267 664.456 37.4C664.196 37.2667 663.906 37.2 663.586 37.2C663.126 37.2 662.733 37.3467 662.406 37.64C662.086 37.9333 661.903 38.34 661.856 38.86H665.316ZM670.128 36.42C670.794 36.42 671.334 36.6233 671.748 37.03C672.161 37.43 672.368 38.01 672.368 38.77V42H671.468V38.9C671.468 38.3533 671.331 37.9367 671.058 37.65C670.784 37.3567 670.411 37.21 669.938 37.21C669.458 37.21 669.074 37.36 668.788 37.66C668.508 37.96 668.368 38.3967 668.368 38.97V42H667.458V36.52H668.368V37.3C668.548 37.02 668.791 36.8033 669.098 36.65C669.411 36.4967 669.754 36.42 670.128 36.42ZM674.964 37.27V40.5C674.964 40.7667 675.021 40.9567 675.134 41.07C675.247 41.1767 675.444 41.23 675.724 41.23H676.394V42H675.574C675.067 42 674.687 41.8833 674.434 41.65C674.181 41.4167 674.054 41.0333 674.054 40.5V37.27H673.344V36.52H674.054V35.14H674.964V36.52H676.394V37.27H674.964ZM686.753 36.42C687.179 36.42 687.559 36.51 687.893 36.69C688.226 36.8633 688.489 37.1267 688.683 37.48C688.876 37.8333 688.973 38.2633 688.973 38.77V42H688.073V38.9C688.073 38.3533 687.936 37.9367 687.663 37.65C687.396 37.3567 687.033 37.21 686.573 37.21C686.099 37.21 685.723 37.3633 685.443 37.67C685.163 37.97 685.023 38.4067 685.023 38.98V42H684.123V38.9C684.123 38.3533 683.986 37.9367 683.713 37.65C683.446 37.3567 683.083 37.21 682.623 37.21C682.149 37.21 681.773 37.3633 681.493 37.67C681.213 37.97 681.073 38.4067 681.073 38.98V42H680.163V36.52H681.073V37.31C681.253 37.0233 681.493 36.8033 681.793 36.65C682.099 36.4967 682.436 36.42 682.803 36.42C683.263 36.42 683.669 36.5233 684.023 36.73C684.376 36.9367 684.639 37.24 684.813 37.64C684.966 37.2533 685.219 36.9533 685.573 36.74C685.926 36.5267 686.319 36.42 686.753 36.42ZM695.465 39.05C695.465 39.2233 695.455 39.4067 695.435 39.6H691.055C691.089 40.14 691.272 40.5633 691.605 40.87C691.945 41.17 692.355 41.32 692.835 41.32C693.229 41.32 693.555 41.23 693.815 41.05C694.082 40.8633 694.269 40.6167 694.375 40.31H695.355C695.209 40.8367 694.915 41.2667 694.475 41.6C694.035 41.9267 693.489 42.09 692.835 42.09C692.315 42.09 691.849 41.9733 691.435 41.74C691.029 41.5067 690.709 41.1767 690.475 40.75C690.242 40.3167 690.125 39.8167 690.125 39.25C690.125 38.6833 690.239 38.1867 690.465 37.76C690.692 37.3333 691.009 37.0067 691.415 36.78C691.829 36.5467 692.302 36.43 692.835 36.43C693.355 36.43 693.815 36.5433 694.215 36.77C694.615 36.9967 694.922 37.31 695.135 37.71C695.355 38.1033 695.465 38.55 695.465 39.05ZM694.525 38.86C694.525 38.5133 694.449 38.2167 694.295 37.97C694.142 37.7167 693.932 37.5267 693.665 37.4C693.405 37.2667 693.115 37.2 692.795 37.2C692.335 37.2 691.942 37.3467 691.615 37.64C691.295 37.9333 691.112 38.34 691.065 38.86H694.525ZM697.776 37.27V40.5C697.776 40.7667 697.833 40.9567 697.946 41.07C698.06 41.1767 698.256 41.23 698.536 41.23H699.206V42H698.386C697.88 42 697.5 41.8833 697.246 41.65C696.993 41.4167 696.866 41.0333 696.866 40.5V37.27H696.156V36.52H696.866V35.14H697.776V36.52H699.206V37.27H697.776ZM703.029 36.42C703.442 36.42 703.816 36.51 704.149 36.69C704.482 36.8633 704.742 37.1267 704.929 37.48C705.122 37.8333 705.219 38.2633 705.219 38.77V42H704.319V38.9C704.319 38.3533 704.182 37.9367 703.909 37.65C703.636 37.3567 703.262 37.21 702.789 37.21C702.309 37.21 701.926 37.36 701.639 37.66C701.359 37.96 701.219 38.3967 701.219 38.97V42H700.309V34.6H701.219V37.3C701.399 37.02 701.646 36.8033 701.959 36.65C702.279 36.4967 702.636 36.42 703.029 36.42ZM709.096 42.09C708.582 42.09 708.116 41.9733 707.696 41.74C707.282 41.5067 706.956 41.1767 706.716 40.75C706.482 40.3167 706.366 39.8167 706.366 39.25C706.366 38.69 706.486 38.1967 706.726 37.77C706.972 37.3367 707.306 37.0067 707.726 36.78C708.146 36.5467 708.616 36.43 709.136 36.43C709.656 36.43 710.126 36.5467 710.546 36.78C710.966 37.0067 711.296 37.3333 711.536 37.76C711.782 38.1867 711.906 38.6833 711.906 39.25C711.906 39.8167 711.779 40.3167 711.526 40.75C711.279 41.1767 710.942 41.5067 710.516 41.74C710.089 41.9733 709.616 42.09 709.096 42.09ZM709.096 41.29C709.422 41.29 709.729 41.2133 710.016 41.06C710.302 40.9067 710.532 40.6767 710.706 40.37C710.886 40.0633 710.976 39.69 710.976 39.25C710.976 38.81 710.889 38.4367 710.716 38.13C710.542 37.8233 710.316 37.5967 710.036 37.45C709.756 37.2967 709.452 37.22 709.126 37.22C708.792 37.22 708.486 37.2967 708.206 37.45C707.932 37.5967 707.712 37.8233 707.546 38.13C707.379 38.4367 707.296 38.81 707.296 39.25C707.296 39.6967 707.376 40.0733 707.536 40.38C707.702 40.6867 707.922 40.9167 708.196 41.07C708.469 41.2167 708.769 41.29 709.096 41.29ZM712.762 39.24C712.762 38.68 712.875 38.19 713.102 37.77C713.329 37.3433 713.639 37.0133 714.032 36.78C714.432 36.5467 714.879 36.43 715.372 36.43C715.799 36.43 716.195 36.53 716.562 36.73C716.929 36.9233 717.209 37.18 717.402 37.5V34.6H718.322V42H717.402V40.97C717.222 41.2967 716.955 41.5667 716.602 41.78C716.249 41.9867 715.835 42.09 715.362 42.09C714.875 42.09 714.432 41.97 714.032 41.73C713.639 41.49 713.329 41.1533 713.102 40.72C712.875 40.2867 712.762 39.7933 712.762 39.24ZM717.402 39.25C717.402 38.8367 717.319 38.4767 717.152 38.17C716.985 37.8633 716.759 37.63 716.472 37.47C716.192 37.3033 715.882 37.22 715.542 37.22C715.202 37.22 714.892 37.3 714.612 37.46C714.332 37.62 714.109 37.8533 713.942 38.16C713.775 38.4667 713.692 38.8267 713.692 39.24C713.692 39.66 713.775 40.0267 713.942 40.34C714.109 40.6467 714.332 40.8833 714.612 41.05C714.892 41.21 715.202 41.29 715.542 41.29C715.882 41.29 716.192 41.21 716.472 41.05C716.759 40.8833 716.985 40.6467 717.152 40.34C717.319 40.0267 717.402 39.6633 717.402 39.25Z" fill="#858585"/>
<path d="M727.886 36.42V42H726.176V41.24C726.003 41.4867 725.766 41.6867 725.466 41.84C725.173 41.9867 724.846 42.06 724.486 42.06C724.059 42.06 723.683 41.9667 723.356 41.78C723.029 41.5867 722.776 41.31 722.596 40.95C722.416 40.59 722.326 40.1667 722.326 39.68V36.42H724.026V39.45C724.026 39.8233 724.123 40.1133 724.316 40.32C724.509 40.5267 724.769 40.63 725.096 40.63C725.429 40.63 725.693 40.5267 725.886 40.32C726.079 40.1133 726.176 39.8233 726.176 39.45V36.42H727.886ZM732.514 36.36C733.167 36.36 733.687 36.5733 734.074 37C734.467 37.42 734.664 38 734.664 38.74V42H732.964V38.97C732.964 38.5967 732.867 38.3067 732.674 38.1C732.481 37.8933 732.221 37.79 731.894 37.79C731.567 37.79 731.307 37.8933 731.114 38.1C730.921 38.3067 730.824 38.5967 730.824 38.97V42H729.114V36.42H730.824V37.16C730.997 36.9133 731.231 36.72 731.524 36.58C731.817 36.4333 732.147 36.36 732.514 36.36ZM738.362 40.4L739.572 36.42H741.392L739.412 42H737.302L735.322 36.42H737.152L738.362 40.4ZM747.372 39.12C747.372 39.28 747.362 39.4467 747.342 39.62H743.472C743.499 39.9667 743.609 40.2333 743.802 40.42C744.002 40.6 744.246 40.69 744.532 40.69C744.959 40.69 745.256 40.51 745.422 40.15H747.242C747.149 40.5167 746.979 40.8467 746.732 41.14C746.492 41.4333 746.189 41.6633 745.822 41.83C745.456 41.9967 745.046 42.08 744.592 42.08C744.046 42.08 743.559 41.9633 743.132 41.73C742.706 41.4967 742.372 41.1633 742.132 40.73C741.892 40.2967 741.772 39.79 741.772 39.21C741.772 38.63 741.889 38.1233 742.122 37.69C742.362 37.2567 742.696 36.9233 743.122 36.69C743.549 36.4567 744.039 36.34 744.592 36.34C745.132 36.34 745.612 36.4533 746.032 36.68C746.452 36.9067 746.779 37.23 747.012 37.65C747.252 38.07 747.372 38.56 747.372 39.12ZM745.622 38.67C745.622 38.3767 745.522 38.1433 745.322 37.97C745.122 37.7967 744.872 37.71 744.572 37.71C744.286 37.71 744.042 37.7933 743.842 37.96C743.649 38.1267 743.529 38.3633 743.482 38.67H745.622ZM749.984 37.35C750.184 37.0433 750.434 36.8033 750.734 36.63C751.034 36.45 751.368 36.36 751.734 36.36V38.17H751.264C750.838 38.17 750.518 38.2633 750.304 38.45C750.091 38.63 749.984 38.95 749.984 39.41V42H748.274V36.42H749.984V37.35ZM753.412 35.84C753.112 35.84 752.865 35.7533 752.672 35.58C752.485 35.4 752.392 35.18 752.392 34.92C752.392 34.6533 752.485 34.4333 752.672 34.26C752.865 34.08 753.112 33.99 753.412 33.99C753.705 33.99 753.945 34.08 754.132 34.26C754.325 34.4333 754.422 34.6533 754.422 34.92C754.422 35.18 754.325 35.4 754.132 35.58C753.945 35.7533 753.705 35.84 753.412 35.84ZM754.262 36.42V42H752.552V36.42H754.262ZM758.301 37.84H757.381V42H755.671V37.84H755.051V36.42H755.671V36.26C755.671 35.5733 755.868 35.0533 756.261 34.7C756.654 34.34 757.231 34.16 757.991 34.16C758.118 34.16 758.211 34.1633 758.271 34.17V35.62C757.944 35.6 757.714 35.6467 757.581 35.76C757.448 35.8733 757.381 36.0767 757.381 36.37V36.42H758.301V37.84ZM759.964 35.84C759.664 35.84 759.418 35.7533 759.224 35.58C759.038 35.4 758.944 35.18 758.944 34.92C758.944 34.6533 759.038 34.4333 759.224 34.26C759.418 34.08 759.664 33.99 759.964 33.99C760.258 33.99 760.498 34.08 760.684 34.26C760.878 34.4333 760.974 34.6533 760.974 34.92C760.974 35.18 760.878 35.4 760.684 35.58C760.498 35.7533 760.258 35.84 759.964 35.84ZM760.814 36.42V42H759.104V36.42H760.814ZM767.314 39.12C767.314 39.28 767.304 39.4467 767.284 39.62H763.414C763.44 39.9667 763.55 40.2333 763.744 40.42C763.944 40.6 764.187 40.69 764.474 40.69C764.9 40.69 765.197 40.51 765.364 40.15H767.184C767.09 40.5167 766.92 40.8467 766.674 41.14C766.434 41.4333 766.13 41.6633 765.764 41.83C765.397 41.9967 764.987 42.08 764.534 42.08C763.987 42.08 763.5 41.9633 763.074 41.73C762.647 41.4967 762.314 41.1633 762.074 40.73C761.834 40.2967 761.714 39.79 761.714 39.21C761.714 38.63 761.83 38.1233 762.064 37.69C762.304 37.2567 762.637 36.9233 763.064 36.69C763.49 36.4567 763.98 36.34 764.534 36.34C765.074 36.34 765.554 36.4533 765.974 36.68C766.394 36.9067 766.72 37.23 766.954 37.65C767.194 38.07 767.314 38.56 767.314 39.12ZM765.564 38.67C765.564 38.3767 765.464 38.1433 765.264 37.97C765.064 37.7967 764.814 37.71 764.514 37.71C764.227 37.71 763.984 37.7933 763.784 37.96C763.59 38.1267 763.47 38.3633 763.424 38.67H765.564ZM767.876 39.2C767.876 38.6267 767.982 38.1233 768.196 37.69C768.416 37.2567 768.712 36.9233 769.086 36.69C769.459 36.4567 769.876 36.34 770.336 36.34C770.702 36.34 771.036 36.4167 771.336 36.57C771.642 36.7233 771.882 36.93 772.056 37.19V34.6H773.766V42H772.056V41.2C771.896 41.4667 771.666 41.68 771.366 41.84C771.072 42 770.729 42.08 770.336 42.08C769.876 42.08 769.459 41.9633 769.086 41.73C768.712 41.49 768.416 41.1533 768.196 40.72C767.982 40.28 767.876 39.7733 767.876 39.2ZM772.056 39.21C772.056 38.7833 771.936 38.4467 771.696 38.2C771.462 37.9533 771.176 37.83 770.836 37.83C770.496 37.83 770.206 37.9533 769.966 38.2C769.732 38.44 769.616 38.7733 769.616 39.2C769.616 39.6267 769.732 39.9667 769.966 40.22C770.206 40.4667 770.496 40.59 770.836 40.59C771.176 40.59 771.462 40.4667 771.696 40.22C771.936 39.9733 772.056 39.6367 772.056 39.21Z" fill="#FF1C1C"/>
<path d="M639.602 19.098C639.602 19.91 639.322 20.5867 638.762 21.128C638.211 21.66 637.367 21.926 636.228 21.926H634.352V26H633.078V16.242H636.228C637.329 16.242 638.165 16.508 638.734 17.04C639.313 17.572 639.602 18.258 639.602 19.098ZM636.228 20.876C636.937 20.876 637.46 20.722 637.796 20.414C638.132 20.106 638.3 19.6673 638.3 19.098C638.3 17.894 637.609 17.292 636.228 17.292H634.352V20.876H636.228ZM640.709 22.136C640.709 21.352 640.868 20.666 641.185 20.078C641.503 19.4807 641.937 19.0187 642.487 18.692C643.047 18.3653 643.668 18.202 644.349 18.202C645.021 18.202 645.605 18.3467 646.099 18.636C646.594 18.9253 646.963 19.2893 647.205 19.728V18.328H648.493V26H647.205V24.572C646.953 25.02 646.575 25.3933 646.071 25.692C645.577 25.9813 644.998 26.126 644.335 26.126C643.654 26.126 643.038 25.958 642.487 25.622C641.937 25.286 641.503 24.8147 641.185 24.208C640.868 23.6013 640.709 22.9107 640.709 22.136ZM647.205 22.15C647.205 21.5713 647.089 21.0673 646.855 20.638C646.622 20.2087 646.305 19.882 645.903 19.658C645.511 19.4247 645.077 19.308 644.601 19.308C644.125 19.308 643.691 19.42 643.299 19.644C642.907 19.868 642.595 20.1947 642.361 20.624C642.128 21.0533 642.011 21.5573 642.011 22.136C642.011 22.724 642.128 23.2373 642.361 23.676C642.595 24.1053 642.907 24.4367 643.299 24.67C643.691 24.894 644.125 25.006 644.601 25.006C645.077 25.006 645.511 24.894 645.903 24.67C646.305 24.4367 646.622 24.1053 646.855 23.676C647.089 23.2373 647.205 22.7287 647.205 22.15ZM657.254 18.328L652.634 29.612H651.318L652.83 25.916L649.736 18.328H651.15L653.558 24.544L655.938 18.328H657.254ZM667.761 18.188C668.358 18.188 668.89 18.314 669.357 18.566C669.824 18.8087 670.192 19.1773 670.463 19.672C670.734 20.1667 670.869 20.7687 670.869 21.478V26H669.609V21.66C669.609 20.8947 669.418 20.3113 669.035 19.91C668.662 19.4993 668.153 19.294 667.509 19.294C666.846 19.294 666.319 19.5087 665.927 19.938C665.535 20.358 665.339 20.9693 665.339 21.772V26H664.079V21.66C664.079 20.8947 663.888 20.3113 663.505 19.91C663.132 19.4993 662.623 19.294 661.979 19.294C661.316 19.294 660.789 19.5087 660.397 19.938C660.005 20.358 659.809 20.9693 659.809 21.772V26H658.535V18.328H659.809V19.434C660.061 19.0327 660.397 18.7247 660.817 18.51C661.246 18.2953 661.718 18.188 662.231 18.188C662.875 18.188 663.444 18.3327 663.939 18.622C664.434 18.9113 664.802 19.336 665.045 19.896C665.26 19.3547 665.614 18.9347 666.109 18.636C666.604 18.3373 667.154 18.188 667.761 18.188ZM679.959 21.87C679.959 22.1127 679.945 22.3693 679.917 22.64H673.785C673.832 23.396 674.088 23.9887 674.555 24.418C675.031 24.838 675.605 25.048 676.277 25.048C676.828 25.048 677.285 24.922 677.649 24.67C678.022 24.4087 678.284 24.0633 678.433 23.634H679.805C679.6 24.3713 679.189 24.9733 678.573 25.44C677.957 25.8973 677.192 26.126 676.277 26.126C675.549 26.126 674.896 25.9627 674.317 25.636C673.748 25.3093 673.3 24.8473 672.973 24.25C672.646 23.6433 672.483 22.9433 672.483 22.15C672.483 21.3567 672.642 20.6613 672.959 20.064C673.276 19.4667 673.72 19.0093 674.289 18.692C674.868 18.3653 675.53 18.202 676.277 18.202C677.005 18.202 677.649 18.3607 678.209 18.678C678.769 18.9953 679.198 19.434 679.497 19.994C679.805 20.5447 679.959 21.17 679.959 21.87ZM678.643 21.604C678.643 21.1187 678.536 20.7033 678.321 20.358C678.106 20.0033 677.812 19.7373 677.439 19.56C677.075 19.3733 676.669 19.28 676.221 19.28C675.577 19.28 675.026 19.4853 674.569 19.896C674.121 20.3067 673.864 20.876 673.799 21.604H678.643ZM685.379 18.188C686.312 18.188 687.068 18.4727 687.647 19.042C688.225 19.602 688.515 20.414 688.515 21.478V26H687.255V21.66C687.255 20.8947 687.063 20.3113 686.681 19.91C686.298 19.4993 685.775 19.294 685.113 19.294C684.441 19.294 683.904 19.504 683.503 19.924C683.111 20.344 682.915 20.9553 682.915 21.758V26H681.641V18.328H682.915V19.42C683.167 19.028 683.507 18.7247 683.937 18.51C684.375 18.2953 684.856 18.188 685.379 18.188ZM692.15 19.378V23.9C692.15 24.2733 692.229 24.5393 692.388 24.698C692.546 24.8473 692.822 24.922 693.214 24.922H694.152V26H693.004C692.294 26 691.762 25.8367 691.408 25.51C691.053 25.1833 690.876 24.6467 690.876 23.9V19.378H689.882V18.328H690.876V16.396H692.15V18.328H694.152V19.378H692.15ZM709.326 16.312V26H708.052V18.776L704.832 26H703.936L700.702 18.762V26H699.428V16.312H700.8L704.384 24.32L707.968 16.312H709.326ZM718.486 21.87C718.486 22.1127 718.472 22.3693 718.444 22.64H712.312C712.359 23.396 712.616 23.9887 713.082 24.418C713.558 24.838 714.132 25.048 714.804 25.048C715.355 25.048 715.812 24.922 716.176 24.67C716.55 24.4087 716.811 24.0633 716.96 23.634H718.332C718.127 24.3713 717.716 24.9733 717.1 25.44C716.484 25.8973 715.719 26.126 714.804 26.126C714.076 26.126 713.423 25.9627 712.844 25.636C712.275 25.3093 711.827 24.8473 711.5 24.25C711.174 23.6433 711.01 22.9433 711.01 22.15C711.01 21.3567 711.169 20.6613 711.486 20.064C711.804 19.4667 712.247 19.0093 712.816 18.692C713.395 18.3653 714.058 18.202 714.804 18.202C715.532 18.202 716.176 18.3607 716.736 18.678C717.296 18.9953 717.726 19.434 718.024 19.994C718.332 20.5447 718.486 21.17 718.486 21.87ZM717.17 21.604C717.17 21.1187 717.063 20.7033 716.848 20.358C716.634 20.0033 716.34 19.7373 715.966 19.56C715.602 19.3733 715.196 19.28 714.748 19.28C714.104 19.28 713.554 19.4853 713.096 19.896C712.648 20.3067 712.392 20.876 712.326 21.604H717.17ZM721.722 19.378V23.9C721.722 24.2733 721.801 24.5393 721.96 24.698C722.119 24.8473 722.394 24.922 722.786 24.922H723.724V26H722.576C721.867 26 721.335 25.8367 720.98 25.51C720.625 25.1833 720.448 24.6467 720.448 23.9V19.378H719.454V18.328H720.448V16.396H721.722V18.328H723.724V19.378H721.722ZM729.075 18.188C729.654 18.188 730.177 18.314 730.643 18.566C731.11 18.8087 731.474 19.1773 731.735 19.672C732.006 20.1667 732.141 20.7687 732.141 21.478V26H730.881V21.66C730.881 20.8947 730.69 20.3113 730.307 19.91C729.925 19.4993 729.402 19.294 728.739 19.294C728.067 19.294 727.531 19.504 727.129 19.924C726.737 20.344 726.541 20.9553 726.541 21.758V26H725.267V15.64H726.541V19.42C726.793 19.028 727.139 18.7247 727.577 18.51C728.025 18.2953 728.525 18.188 729.075 18.188ZM737.569 26.126C736.85 26.126 736.197 25.9627 735.609 25.636C735.03 25.3093 734.573 24.8473 734.237 24.25C733.91 23.6433 733.747 22.9433 733.747 22.15C733.747 21.366 733.915 20.6753 734.251 20.078C734.596 19.4713 735.063 19.0093 735.651 18.692C736.239 18.3653 736.897 18.202 737.625 18.202C738.353 18.202 739.011 18.3653 739.599 18.692C740.187 19.0093 740.649 19.4667 740.985 20.064C741.33 20.6613 741.503 21.3567 741.503 22.15C741.503 22.9433 741.325 23.6433 740.971 24.25C740.625 24.8473 740.154 25.3093 739.557 25.636C738.959 25.9627 738.297 26.126 737.569 26.126ZM737.569 25.006C738.026 25.006 738.455 24.8987 738.857 24.684C739.258 24.4693 739.58 24.1473 739.823 23.718C740.075 23.2887 740.201 22.766 740.201 22.15C740.201 21.534 740.079 21.0113 739.837 20.582C739.594 20.1527 739.277 19.8353 738.885 19.63C738.493 19.4153 738.068 19.308 737.611 19.308C737.144 19.308 736.715 19.4153 736.323 19.63C735.94 19.8353 735.632 20.1527 735.399 20.582C735.165 21.0113 735.049 21.534 735.049 22.15C735.049 22.7753 735.161 23.3027 735.385 23.732C735.618 24.1613 735.926 24.4833 736.309 24.698C736.691 24.9033 737.111 25.006 737.569 25.006ZM742.702 22.136C742.702 21.352 742.86 20.666 743.178 20.078C743.495 19.4807 743.929 19.0187 744.48 18.692C745.04 18.3653 745.665 18.202 746.356 18.202C746.953 18.202 747.508 18.342 748.022 18.622C748.535 18.8927 748.927 19.252 749.198 19.7V15.64H750.486V26H749.198V24.558C748.946 25.0153 748.572 25.3933 748.078 25.692C747.583 25.9813 747.004 26.126 746.342 26.126C745.66 26.126 745.04 25.958 744.48 25.622C743.929 25.286 743.495 24.8147 743.178 24.208C742.86 23.6013 742.702 22.9107 742.702 22.136ZM749.198 22.15C749.198 21.5713 749.081 21.0673 748.848 20.638C748.614 20.2087 748.297 19.882 747.896 19.658C747.504 19.4247 747.07 19.308 746.594 19.308C746.118 19.308 745.684 19.42 745.292 19.644C744.9 19.868 744.587 20.1947 744.354 20.624C744.12 21.0533 744.004 21.5573 744.004 22.136C744.004 22.724 744.12 23.2373 744.354 23.676C744.587 24.1053 744.9 24.4367 745.292 24.67C745.684 24.894 746.118 25.006 746.594 25.006C747.07 25.006 747.504 24.894 747.896 24.67C748.297 24.4367 748.614 24.1053 748.848 23.676C749.081 23.2373 749.198 22.7287 749.198 22.15Z" fill="#000152"/>
</svg>
