<svg width="695" height="794" viewBox="0 0 695 794" fill="none" xmlns="http://www.w3.org/2000/svg">
<path d="M31.2651 319.783V327.186L35.0687 327.545C35.579 329.971 36.5414 332.28 37.9059 334.353L35.4593 337.295L40.6816 342.504L43.6319 340.064C45.7074 341.429 48.0236 342.389 50.4578 342.894L50.7971 346.667H58.1781L58.5379 342.873C60.9721 342.369 63.2883 341.409 65.3638 340.043L68.3142 342.484L73.5364 337.275L71.1001 334.363C72.4647 332.291 73.4271 329.981 73.9374 327.555L77.7409 327.196V319.834L73.9374 319.475C73.4289 317.051 72.4663 314.745 71.1001 312.677L73.5467 309.734L68.3245 304.526L65.3741 306.956C63.2964 305.595 60.981 304.635 58.5482 304.126L58.1884 300.332H50.7971L50.4373 304.126C48.0045 304.635 45.6891 305.595 43.6114 306.956L40.661 304.526L35.4388 309.734L37.8854 312.677C36.5192 314.745 35.5565 317.051 35.0481 319.475L31.2651 319.783ZM54.5081 313.497C56.4869 313.497 58.4212 314.083 60.0663 315.179C61.7114 316.276 62.9934 317.835 63.7502 319.658C64.507 321.482 64.7044 323.488 64.3176 325.424C63.9309 327.36 62.9772 329.137 61.5773 330.532C60.1774 331.927 58.3942 332.876 56.4532 333.26C54.5123 333.644 52.5008 333.445 50.6732 332.688C48.8457 331.931 47.2843 330.651 46.1864 329.009C45.0886 327.367 44.5037 325.437 44.5057 323.464C44.5084 320.821 45.5621 318.288 47.4354 316.419C49.3087 314.551 51.8486 313.5 54.4979 313.497H54.5081Z" fill="#CEDAF2"/>
<path d="M36.0234 373.531C37.9297 373.131 39.7433 372.376 41.369 371.306L43.682 373.223L47.794 369.122L45.882 366.815C46.9501 365.192 47.7033 363.383 48.1024 361.483L51.0836 361.196V355.424L48.1024 355.147C47.7052 353.246 46.9518 351.437 45.882 349.815L47.794 347.508L43.682 343.407L41.369 345.314C39.7427 344.247 37.9291 343.495 36.0234 343.099L35.7459 340.125H29.9583L29.6807 343.099C27.775 343.495 25.9614 344.247 24.3351 345.314L22.0118 343.448L17.8998 347.549L19.8119 349.856C18.742 351.478 17.9887 353.287 17.5914 355.188L14.6102 355.465V361.237L17.5914 361.524C17.9906 363.424 18.7437 365.233 19.8119 366.856L17.8998 369.143L22.0118 373.244L24.3248 371.327C25.9506 372.397 27.7641 373.152 29.6704 373.552L29.948 376.515H35.7356L36.0234 373.531ZM25.0136 358.336C25.0115 356.788 25.4698 355.274 26.3305 353.986C27.1911 352.698 28.4154 351.694 29.8485 351.1C31.2815 350.507 32.8589 350.35 34.3811 350.651C35.9033 350.952 37.3019 351.696 38.3998 352.79C39.4978 353.883 40.2459 355.277 40.5494 356.795C40.8528 358.313 40.6981 359.887 40.1048 361.317C39.5114 362.747 38.5061 363.969 37.216 364.829C35.9259 365.689 34.409 366.149 32.8572 366.149C30.7787 366.149 28.7852 365.326 27.3145 363.861C25.8439 362.396 25.0163 360.409 25.0136 358.336Z" fill="#CEDAF2"/>
<path d="M23.1125 342.289L25.0554 343.888L28.4992 340.464L26.8852 338.526C27.7867 337.163 28.4215 335.643 28.7562 334.045L31.2542 333.809V328.97L28.7562 328.734C28.4215 327.136 27.7867 325.615 26.8852 324.253L28.4992 322.315L25.0965 318.89L23.1536 320.49C21.7902 319.593 20.2697 318.96 18.6715 318.624L18.4351 316.132H13.5726L13.3362 318.624C11.7341 318.958 10.2099 319.591 8.84383 320.49L6.9009 318.89L3.46738 322.315L5.07106 324.253C4.17302 325.616 3.54169 327.136 3.21038 328.734L0.702057 328.97V333.809L3.21038 334.045C3.54169 335.642 4.17302 337.163 5.07106 338.526L3.42628 340.515L6.8598 343.939L8.8027 342.34C10.1671 343.24 11.6922 343.87 13.2951 344.196L13.5315 346.698H18.394L18.6304 344.196C20.2331 343.852 21.7547 343.205 23.1125 342.289ZM9.37838 331.389C9.37838 330.091 9.76426 328.823 10.4872 327.744C11.2101 326.664 12.2376 325.823 13.4398 325.327C14.642 324.83 15.9649 324.7 17.2411 324.953C18.5174 325.206 19.6897 325.831 20.6098 326.749C21.5299 327.667 22.1565 328.836 22.4104 330.109C22.6642 331.382 22.5339 332.702 22.036 333.901C21.538 335.1 20.6947 336.125 19.6128 336.846C18.5309 337.567 17.2588 337.952 15.9576 337.952C14.2127 337.952 12.5392 337.26 11.3054 336.03C10.0715 334.799 9.37838 333.13 9.37838 331.389Z" fill="#CEDAF2"/>
<path d="M59.9105 576.631H67.528L68.1551 559.037H60.5376L59.9105 576.631Z" fill="#B97964"/>
<path d="M68.5759 575.75H59.3239C59.1715 575.747 59.0231 575.798 58.9046 575.893C58.7861 575.989 58.7053 576.123 58.6763 576.273L57.1754 583.03C57.1437 583.174 57.141 583.323 57.1673 583.468C57.1936 583.613 57.2485 583.752 57.3288 583.876C57.4091 583.999 57.5131 584.106 57.635 584.19C57.7569 584.273 57.8942 584.332 58.0389 584.363H58.2856C61.2771 584.311 63.4256 584.127 67.2087 584.127C69.532 584.127 76.4607 584.373 79.7092 584.373C82.9576 584.373 83.3174 581.225 82.0119 580.938C76.142 579.656 71.7319 577.862 69.8506 576.211C69.4996 575.902 69.0441 575.737 68.5759 575.75Z" fill="#1D2436"/>
<path d="M69.1005 576.806C69.0656 576.796 69.0343 576.776 69.0105 576.749C68.9868 576.722 68.9716 576.688 68.9669 576.652C68.9604 576.618 68.9649 576.583 68.9797 576.551C68.9944 576.52 69.0187 576.494 69.0491 576.478C69.3267 576.303 71.7836 574.796 72.6266 575.227C72.7218 575.271 72.8018 575.342 72.8567 575.432C72.9115 575.521 72.9388 575.624 72.935 575.729C72.9631 575.909 72.9426 576.093 72.8758 576.262C72.8089 576.432 72.6981 576.58 72.5546 576.693C72.129 576.99 71.6122 577.128 71.0949 577.083C70.4221 577.062 69.7535 576.969 69.1005 576.806ZM69.6248 576.549C70.5137 576.85 71.4838 576.802 72.3387 576.416C72.4277 576.336 72.4958 576.235 72.537 576.122C72.5782 576.01 72.5913 575.889 72.5752 575.77C72.5752 575.627 72.5135 575.555 72.4621 575.555C72.3891 575.518 72.3076 575.5 72.2257 575.504C71.3002 575.685 70.4176 576.04 69.6248 576.549Z" fill="#0836D9"/>
<path d="M69.0502 576.836C69.0233 576.819 69.0016 576.794 68.9872 576.765C68.9728 576.737 68.9661 576.705 68.9679 576.672C68.9679 576.57 69.1633 574.386 69.9959 573.668C70.098 573.577 70.2193 573.509 70.3508 573.47C70.4824 573.431 70.621 573.422 70.7567 573.443C70.8933 573.444 71.0256 573.491 71.1319 573.577C71.2383 573.662 71.3125 573.781 71.3426 573.914C71.4968 574.714 69.9754 576.385 69.1838 576.816H69.1016L69.0502 576.836ZM70.2735 573.894C69.7401 574.578 69.4281 575.407 69.3791 576.273C70.1604 575.678 71.1268 574.417 71.0342 573.925C71.0342 573.925 71.0342 573.74 70.7669 573.74H70.6847C70.5332 573.738 70.3865 573.793 70.2735 573.894Z" fill="#0836D9"/>
<path opacity="0.2" d="M60.5365 559.047H68.154L67.8251 568.121H60.2076L60.5365 559.047Z" fill="black"/>
<path d="M72.9963 566.655H56.5689V561.764L73.6131 561.446L72.9963 566.655Z" fill="#FF7F00"/>
<path d="M78.1772 422.822L29.6654 415.15L24.921 444.994L73.4328 452.666L78.1772 422.822Z" fill="#FF9933"/>
<path d="M46.8244 426.512L36.9659 431.608L44.7581 439.492" stroke="white" stroke-width="2" stroke-linecap="round" stroke-linejoin="round"/>
<path d="M56.2415 441.307L66.0898 436.212L58.3078 428.327" stroke="white" stroke-width="2" stroke-linecap="round" stroke-linejoin="round"/>
<path d="M48.1912 440.036L54.8732 427.783" stroke="white" stroke-width="2" stroke-linecap="round" stroke-linejoin="round"/>
<path d="M74.1477 345.633C74.1477 345.633 55.8595 363.935 53.3718 367.493C50.884 371.051 46.1141 410.496 46.1141 410.496C46.1141 410.496 45.0861 410.845 45.0244 411.696C44.9627 412.547 44.8599 423.62 45.0244 424.133C45.1889 424.646 53.5979 429.824 54.8418 428.593C56.0857 427.363 57.8127 414.823 57.8127 414.823L53.3718 410.496C53.3718 410.496 58.5118 381.448 61.7705 376.742C65.0293 372.036 78.3111 361.967 78.3111 361.967L74.1477 345.633Z" fill="#B97964"/>
<path d="M58.5129 359.219L57.4027 360.726L66.7677 372.938L68.0939 371.994L58.5129 359.219Z" fill="#FF7F00"/>
<path d="M164.212 556.873H141.503V558.339H164.212V556.873Z" fill="white"/>
<path d="M170.102 561.374H141.503V562.84H170.102V561.374Z" fill="white"/>
<path d="M151.578 565.865H141.503V567.331H151.578V565.865Z" fill="white"/>
<path d="M148.031 570.366H141.503V571.833H148.031V570.366Z" fill="white"/>
<path d="M183.938 388.769V463.998" stroke="#0836D9" stroke-miterlimit="10"/>
<path d="M185.574 424.758H182.315V428.008H185.574V424.758Z" fill="white" stroke="#0836D9" stroke-miterlimit="10"/>
<path d="M184.782 388.769C184.782 388.935 184.732 389.098 184.64 389.236C184.547 389.374 184.415 389.482 184.261 389.546C184.107 389.609 183.938 389.626 183.774 389.593C183.611 389.561 183.461 389.481 183.343 389.363C183.225 389.246 183.145 389.096 183.112 388.933C183.079 388.77 183.096 388.601 183.16 388.447C183.224 388.293 183.332 388.162 183.47 388.07C183.609 387.977 183.772 387.928 183.939 387.928C184.162 387.931 184.374 388.02 184.532 388.177C184.689 388.334 184.779 388.547 184.782 388.769Z" fill="white" stroke="#0836D9" stroke-miterlimit="10"/>
<path d="M184.782 463.998C184.782 464.164 184.733 464.326 184.64 464.464C184.548 464.602 184.417 464.71 184.264 464.774C184.11 464.837 183.941 464.855 183.778 464.823C183.615 464.791 183.465 464.712 183.346 464.596C183.228 464.479 183.147 464.33 183.113 464.168C183.08 464.006 183.095 463.837 183.157 463.683C183.219 463.529 183.326 463.397 183.463 463.304C183.6 463.21 183.762 463.159 183.928 463.157C184.04 463.156 184.151 463.176 184.254 463.218C184.358 463.26 184.452 463.321 184.531 463.4C184.611 463.478 184.674 463.571 184.717 463.674C184.76 463.776 184.782 463.887 184.782 463.998Z" fill="white" stroke="#0836D9" stroke-miterlimit="10"/>
<path opacity="0.4" d="M143.681 340.065H137.904V345.828H143.681V340.065Z" fill="black"/>
<path opacity="0.4" d="M153.426 340.065H150.609C149.792 340.065 149.129 340.726 149.129 341.542V344.351C149.129 345.167 149.792 345.828 150.609 345.828H153.426C154.244 345.828 154.906 345.167 154.906 344.351V341.542C154.906 340.726 154.244 340.065 153.426 340.065Z" fill="black"/>
<path opacity="0.4" d="M163.502 340.065H163.009C161.549 340.065 160.367 341.245 160.367 342.7V343.192C160.367 344.648 161.549 345.828 163.009 345.828H163.502C164.961 345.828 166.144 344.648 166.144 343.192V342.7C166.144 341.245 164.961 340.065 163.502 340.065Z" fill="black"/>
<path opacity="0.9" d="M155.607 482.126V479.88L154.456 479.778C154.291 479.049 153.999 478.354 153.592 477.727L154.332 476.835L152.739 475.246L151.844 475.984C151.215 475.578 150.519 475.286 149.788 475.123L149.686 473.974H147.434L147.321 475.123C146.591 475.287 145.895 475.579 145.265 475.984L144.371 475.246L142.777 476.835L143.518 477.727C143.103 478.35 142.81 479.046 142.654 479.778L141.492 479.88V482.126L142.654 482.238C142.81 482.97 143.103 483.666 143.518 484.289L142.777 485.191L144.371 486.77L145.265 486.032C145.89 486.445 146.588 486.738 147.321 486.893L147.434 488.052H149.686L149.788 486.893C150.522 486.738 151.22 486.446 151.844 486.032L152.739 486.77L154.332 485.191L153.592 484.289C154.002 483.663 154.295 482.969 154.456 482.238L155.607 482.126ZM148.524 484.043C147.914 484.043 147.318 483.863 146.811 483.525C146.303 483.187 145.908 482.706 145.675 482.144C145.441 481.582 145.38 480.964 145.499 480.367C145.618 479.77 145.912 479.222 146.343 478.792C146.775 478.362 147.324 478.069 147.922 477.95C148.521 477.831 149.141 477.892 149.704 478.125C150.268 478.358 150.749 478.752 151.088 479.258C151.427 479.764 151.608 480.359 151.608 480.967C151.608 481.783 151.283 482.565 150.705 483.142C150.126 483.719 149.342 484.043 148.524 484.043Z" fill="white"/>
<path opacity="0.6" d="M164.736 488.462V486.74L163.831 486.647C163.708 486.07 163.478 485.52 163.153 485.027L163.728 484.32L162.484 483.079L161.785 483.664C161.287 483.339 160.733 483.109 160.151 482.987L160.069 482.074H158.3L158.218 482.987C157.636 483.109 157.082 483.339 156.584 483.664L155.885 483.079L154.63 484.32L155.216 485.027C154.891 485.52 154.661 486.07 154.538 486.647L153.633 486.74V488.493L154.538 488.585C154.661 489.163 154.891 489.712 155.216 490.205L154.63 490.913L155.885 492.153L156.584 491.569C157.082 491.894 157.636 492.123 158.218 492.246L158.3 493.148H160.069L160.151 492.246C160.733 492.123 161.287 491.894 161.785 491.569L162.484 492.153L163.728 490.913L163.153 490.205C163.478 489.712 163.708 489.163 163.831 488.585L164.736 488.462ZM159.184 489.97C158.71 489.972 158.246 489.833 157.851 489.572C157.456 489.311 157.147 488.938 156.964 488.502C156.781 488.066 156.732 487.585 156.824 487.121C156.915 486.657 157.142 486.23 157.477 485.895C157.811 485.56 158.238 485.331 158.703 485.238C159.168 485.145 159.65 485.192 160.088 485.372C160.527 485.553 160.901 485.859 161.165 486.252C161.429 486.645 161.569 487.108 161.569 487.581C161.571 487.894 161.51 488.204 161.391 488.494C161.272 488.784 161.096 489.047 160.875 489.269C160.653 489.491 160.39 489.667 160.1 489.787C159.809 489.908 159.499 489.97 159.184 489.97Z" fill="white"/>
<path opacity="0.4" d="M155.607 493.456V491.979L154.846 491.908C154.744 491.422 154.552 490.959 154.281 490.544L154.774 489.959L153.746 488.934L153.15 489.416C152.733 489.145 152.27 488.954 151.783 488.852L151.711 488.093H150.21L150.138 488.852C149.651 488.954 149.187 489.145 148.771 489.416L148.174 488.934L147.146 489.959L147.64 490.544C147.368 490.959 147.176 491.422 147.074 491.908L146.303 491.979V493.456L147.074 493.528C147.174 494.017 147.366 494.483 147.64 494.902L147.146 495.486L148.174 496.511L148.771 496.019C149.185 496.297 149.649 496.493 150.138 496.593L150.21 497.352H151.69L151.762 496.593C152.251 496.493 152.715 496.297 153.129 496.019L153.726 496.511L154.754 495.486L154.26 494.902C154.534 494.483 154.725 494.017 154.826 493.528L155.607 493.456ZM150.95 494.717C150.556 494.707 150.173 494.581 149.851 494.355C149.528 494.13 149.279 493.814 149.135 493.448C148.991 493.082 148.959 492.681 149.042 492.297C149.125 491.913 149.32 491.561 149.602 491.287C149.884 491.012 150.241 490.827 150.629 490.754C151.016 490.681 151.417 490.723 151.78 490.876C152.143 491.028 152.453 491.285 152.671 491.612C152.889 491.94 153.006 492.324 153.006 492.718C153.006 492.984 152.953 493.249 152.849 493.495C152.745 493.741 152.592 493.963 152.401 494.15C152.209 494.336 151.982 494.482 151.733 494.58C151.484 494.677 151.217 494.724 150.95 494.717Z" fill="white"/>
<path d="M171.037 383.611L182.006 387.713L176.259 381.981C176.047 382.103 175.8 382.152 175.557 382.12C175.313 382.089 175.087 381.979 174.913 381.807C174.7 381.594 174.581 381.307 174.581 381.007C174.581 380.707 174.7 380.419 174.913 380.207C175.125 379.995 175.414 379.876 175.714 379.876C176.015 379.876 176.304 379.995 176.516 380.207C176.689 380.381 176.799 380.607 176.831 380.849C176.863 381.092 176.813 381.338 176.691 381.55L182.438 387.282L178.326 376.341L174.686 377.141L174.553 375.839L173.864 375.152L169.834 379.171L170.523 379.858L171.839 379.992L171.037 383.611Z" fill="#1D2436"/>
<path opacity="0.2" d="M171.037 383.611L182.006 387.713L176.259 381.981C176.047 382.103 175.8 382.152 175.557 382.12C175.313 382.089 175.087 381.979 174.913 381.807C174.7 381.594 174.581 381.307 174.581 381.007C174.581 380.707 174.7 380.419 174.913 380.207C175.125 379.995 175.414 379.876 175.714 379.876C176.015 379.876 176.304 379.995 176.516 380.207C176.689 380.381 176.799 380.607 176.831 380.849C176.863 381.092 176.813 381.338 176.691 381.55L182.438 387.282L178.326 376.341L174.686 377.141L174.553 375.839L173.864 375.152L169.834 379.171L170.523 379.858L171.839 379.992L171.037 383.611Z" fill="white"/>
<g opacity="0.1">
<path opacity="0.1" d="M167.788 332.775L129.156 476.753V332.775H167.788Z" fill="white"/>
</g>
<path d="M99.1077 577.195L106.972 578.026L108.442 561.128L100.588 560.298L99.1077 577.195Z" fill="#B97964"/>
<path d="M107.796 575.504H98.6053C98.4539 575.505 98.3074 575.557 98.1897 575.652C98.0721 575.747 97.9902 575.879 97.9576 576.027L96.4568 582.794C96.4199 582.936 96.4117 583.084 96.4327 583.229C96.4536 583.374 96.5033 583.514 96.5789 583.64C96.6545 583.766 96.7544 583.876 96.8728 583.963C96.9913 584.05 97.1259 584.113 97.2689 584.147H97.5156C100.507 584.096 102.656 583.911 106.449 583.911C108.762 583.911 115.701 584.147 118.939 584.147C122.177 584.147 122.547 581 121.242 580.712C115.372 579.441 110.962 577.636 109.081 575.986C108.727 575.671 108.269 575.499 107.796 575.504Z" fill="#1D2436"/>
<path d="M108.319 576.56C108.284 576.55 108.252 576.53 108.229 576.503C108.205 576.476 108.19 576.442 108.185 576.406C108.178 576.371 108.183 576.334 108.2 576.302C108.217 576.27 108.244 576.245 108.278 576.232C108.545 576.057 111.002 574.55 111.845 574.991C111.94 575.032 112.02 575.102 112.075 575.189C112.131 575.277 112.158 575.38 112.153 575.483C112.178 575.663 112.157 575.847 112.093 576.017C112.028 576.188 111.922 576.339 111.783 576.457C111.35 576.745 110.832 576.879 110.313 576.837C109.64 576.816 108.972 576.723 108.319 576.56ZM108.843 576.314C109.733 576.611 110.703 576.56 111.557 576.17C111.647 576.09 111.715 575.99 111.756 575.877C111.798 575.764 111.81 575.643 111.793 575.524C111.793 575.381 111.732 575.319 111.68 575.319C111.612 575.278 111.533 575.26 111.454 575.268C110.538 575.447 109.665 575.802 108.884 576.314H108.843Z" fill="#0836D9"/>
<path d="M108.277 576.601C108.249 576.584 108.226 576.559 108.209 576.531C108.193 576.502 108.185 576.47 108.184 576.437C108.184 576.324 108.38 574.15 109.264 573.432C109.368 573.345 109.49 573.279 109.62 573.238C109.751 573.198 109.888 573.184 110.024 573.197C110.162 573.196 110.295 573.243 110.401 573.329C110.508 573.414 110.582 573.534 110.61 573.668C110.765 574.478 109.243 576.15 108.452 576.57H108.369L108.277 576.601ZM109.49 573.648C108.957 574.328 108.645 575.154 108.595 576.016C109.377 575.432 110.343 574.16 110.251 573.668C110.251 573.668 110.251 573.484 109.983 573.484H109.911C109.756 573.488 109.607 573.546 109.49 573.648Z" fill="#0836D9"/>
<path opacity="0.2" d="M100.588 560.298L108.442 561.128L107.671 569.844L99.8174 569.013L100.588 560.298Z" fill="black"/>
<path d="M63.6528 404.764H104.084C107.918 425.692 119.946 499.731 111.28 565.742L97.5974 564.051C97.5974 564.051 98.8618 476.477 86.7931 444.086C85.4053 461.414 83.7091 479.85 82.3213 489.662C78.8055 513.809 71.2806 566.563 71.2806 566.563H57.3923C57.3923 566.563 60.2398 516.055 61.5557 492.328C62.9949 466.541 63.6528 410.055 63.6528 404.764Z" fill="#1D2436"/>
<path d="M112.884 568.88L95.9525 566.368L96.4768 561.692L114.086 563.999L112.884 568.88Z" fill="#FF7F00"/>
<path opacity="0.2" d="M86.8348 444.055C88.8187 449.732 90.3282 455.562 91.3477 461.486C92.4785 446.106 87.9554 429.701 87.9554 429.701L86.8348 444.055Z" fill="black"/>
<path d="M62.5325 411.778L61.6073 416.648C61.6073 416.648 89.8876 420.298 107.477 420.196L106.86 416.853L62.5325 411.778Z" fill="#FF7F00"/>
<path d="M119.925 369.606C119.925 369.606 129.701 400.366 136.373 402.416C143.045 404.467 160.017 379.049 160.017 379.049C160.017 379.049 175.262 378.905 175.94 377.87C176.619 376.834 171.983 366.119 170.872 366.109C169.762 366.099 156.48 371.082 155.977 371.923C155.473 372.764 140.228 387.303 139.529 386.872C138.83 386.442 133.032 368.16 133.032 368.16L119.925 369.606Z" fill="#B97964"/>
<path d="M162.032 377.388C162.153 377.363 162.273 377.332 162.392 377.295L162.217 377.183C162.161 377.256 162.099 377.324 162.032 377.388Z" fill="#B97964"/>
<path d="M114.373 366.058L115.566 368.242L121.127 378.495L122.289 380.617L137.904 375.204C137.904 375.204 131.407 351.026 129.156 348.545L114.373 366.058Z" fill="#FFB266"/>
<path opacity="0.2" d="M115.567 368.242L121.128 378.495C124.572 371.759 123.575 362.531 123.575 362.531L115.567 368.242Z" fill="black"/>
<g filter="url(#filter0_d)">
<path d="M129.157 348.555C126.215 345.167 122.613 342.41 118.569 340.454C114.526 338.497 110.126 337.381 105.636 337.174C90.3397 336.456 85.5287 337.974 79.9363 342.957C71.7637 350.237 61.5968 412.916 61.5968 412.916C76.5123 417.057 92.0068 418.737 107.466 417.889C107.466 417.889 107.651 400.458 113.172 388.759C119.389 375.726 124.729 362.295 129.157 348.555Z" fill="#FF7F00"/>
</g>
<path opacity="0.4" d="M61.5968 412.916C76.5123 417.058 92.0063 418.741 107.466 417.899C107.466 417.899 107.466 415.746 107.764 412.454C107.888 410.896 108.073 409.071 108.33 407.102C108.587 405.133 108.957 402.888 109.358 400.653C109.604 399.453 109.892 398.243 110.201 397.043C110.918 394.195 111.895 391.419 113.12 388.748C113.799 387.313 114.457 385.888 115.094 384.493C116.194 382.053 117.242 379.684 118.178 377.418C120.234 372.651 121.982 368.293 123.441 364.479C124.469 361.741 125.394 359.29 126.145 357.189C126.978 354.841 127.636 352.913 128.119 351.477C128.746 349.581 129.054 348.545 129.054 348.545C128.543 347.907 127.994 347.301 127.409 346.73C121.672 341.09 114.087 337.704 106.048 337.194H105.534C93.876 336.651 88.3145 337.4 83.853 339.994C82.4144 340.852 81.0676 341.856 79.8335 342.988C78.6731 344.242 77.7594 345.703 77.1402 347.294C75.2401 351.701 73.6799 356.246 72.4731 360.89L71.7946 363.382C70.7666 367.186 69.8003 371.236 68.8751 375.337C68.6078 376.506 68.3508 377.675 68.0938 378.833C67.7134 380.618 67.3331 382.391 66.9733 384.145C66.0481 388.564 65.2154 392.85 64.4855 396.705C63.4575 402.242 62.6248 406.876 62.1314 409.758C61.7921 411.788 61.5968 412.916 61.5968 412.916ZM106.52 337.758C107.552 337.784 108.581 337.863 109.604 337.994C113.716 338.548 120.039 341.839 119.884 343.398C119.73 344.956 117.325 348.935 111.177 347.971C109.035 347.576 107.003 346.731 105.215 345.489C101.822 343.254 99.3553 340.229 99.1085 339.245C98.8001 338.066 102.789 337.666 106.531 337.779L106.52 337.758Z" fill="white"/>
<path d="M93.3415 358.655C93.3415 358.655 85.2409 378.208 83.5755 394.46L105.482 397.249C105.482 397.249 115.31 370.826 117.345 362.561C117.345 362.541 99.8487 360.798 93.3415 358.655Z" fill="#FF7F00"/>
<path opacity="0.4" d="M113.069 363.31L116.112 363.607L113.881 365.33L113.069 363.31Z" fill="white"/>
<path d="M101.144 339.296C102.799 344.013 108.957 346.166 112.184 346.474C113.373 346.661 114.591 346.453 115.649 345.882C116.708 345.312 117.549 344.41 118.044 343.316C118.044 343.316 114.354 341.48 114.724 339.419C114.985 338.159 115.503 336.966 116.245 335.913C116.629 335.312 117.048 334.733 117.499 334.18L111.588 321.538C110.272 327.013 106.232 337.533 101.144 339.296Z" fill="#B97964"/>
<path opacity="0.2" d="M111.352 327.372C108.535 333.524 112.514 337.759 114.724 339.379C114.985 338.118 115.503 336.925 116.245 335.872L111.352 327.372Z" fill="black"/>
<path d="M131.171 310.956C131.171 310.956 133.063 321.373 127.615 325.547C122.166 329.72 121.611 310.259 121.611 310.259L131.171 310.956Z" fill="#B97964"/>
<path opacity="0.4" d="M131.171 310.956C131.171 310.956 133.063 321.373 127.615 325.547C122.166 329.72 121.611 310.259 121.611 310.259L131.171 310.956Z" fill="black"/>
<path d="M111.69 334.313C112.905 336.003 114.642 337.247 116.635 337.857C118.627 338.466 120.766 338.406 122.721 337.687C125.275 336.793 127.389 334.958 128.632 332.56C128.807 332.242 128.961 331.894 129.115 331.535C131.664 325.065 132.199 309.275 125.332 309.859C119.657 310.341 114.106 308.598 111.207 313.489C110.379 314.88 109.893 316.447 109.789 318.062C109.172 325.608 108.452 329.986 111.69 334.313Z" fill="#B97964"/>
<path d="M120.82 321.794C120.697 322.389 120.984 322.932 121.385 322.994C121.786 323.055 122.177 322.594 122.269 321.968C122.362 321.343 122.095 320.83 121.704 320.779C121.313 320.728 120.913 321.179 120.82 321.794Z" fill="#1D2436"/>
<path d="M127.697 322.768C127.574 323.363 127.872 323.906 128.262 323.968C128.653 324.029 129.054 323.568 129.136 322.942C129.218 322.317 128.972 321.804 128.571 321.743C128.17 321.681 127.779 322.194 127.697 322.768Z" fill="#1D2436"/>
<path d="M125.467 322.758C125.93 324.714 126.66 326.598 127.636 328.356C127.175 328.595 126.668 328.73 126.15 328.753C125.631 328.776 125.114 328.686 124.634 328.489L125.467 322.758Z" fill="#A24E3F"/>
<path d="M119.011 319.272C119.074 319.29 119.14 319.292 119.204 319.275C119.267 319.259 119.325 319.226 119.371 319.179C119.685 318.856 120.071 318.61 120.498 318.46C120.924 318.311 121.379 318.262 121.828 318.318C121.921 318.337 122.019 318.318 122.099 318.266C122.18 318.215 122.237 318.134 122.259 318.041C122.27 317.995 122.271 317.948 122.263 317.902C122.254 317.855 122.236 317.811 122.211 317.772C122.185 317.733 122.151 317.699 122.112 317.673C122.072 317.647 122.028 317.629 121.982 317.621C121.423 317.539 120.853 317.589 120.317 317.767C119.782 317.946 119.296 318.246 118.898 318.646C118.831 318.715 118.794 318.807 118.794 318.902C118.794 318.998 118.831 319.09 118.898 319.159C118.93 319.201 118.968 319.239 119.011 319.272Z" fill="#1D2436"/>
<path d="M130.986 320.82C131.052 320.845 131.125 320.845 131.192 320.82C131.237 320.808 131.28 320.787 131.317 320.758C131.354 320.729 131.385 320.693 131.407 320.652C131.43 320.61 131.443 320.564 131.446 320.517C131.45 320.471 131.444 320.423 131.428 320.379C131.265 319.832 130.973 319.333 130.575 318.922C130.178 318.512 129.688 318.203 129.146 318.021C129.101 318.007 129.053 318.002 129.006 318.007C128.959 318.012 128.913 318.026 128.872 318.049C128.831 318.072 128.794 318.103 128.765 318.141C128.737 318.178 128.716 318.221 128.704 318.267C128.678 318.358 128.69 318.455 128.736 318.538C128.782 318.62 128.859 318.681 128.951 318.708C129.376 318.864 129.759 319.116 130.069 319.446C130.38 319.775 130.609 320.172 130.739 320.605C130.76 320.658 130.793 320.705 130.836 320.743C130.879 320.78 130.93 320.807 130.986 320.82Z" fill="#1D2436"/>
<path d="M119.863 328.756C119.863 328.756 121.128 331.463 123.708 331.36" stroke="#1D2436" stroke-width="0.5" stroke-linecap="round" stroke-linejoin="round"/>
<path d="M116.585 309.593L116.688 312.935C116.102 313.147 115.618 313.573 115.334 314.127C115.05 314.68 114.986 315.321 115.156 315.919C115.958 318.79 113.974 322.953 111.681 324.47C111.681 324.47 111.681 323.26 110.653 323.445C109.625 323.629 109.307 329.925 111.003 333.093C111.003 333.093 107.374 329.761 106.295 323.024C105.267 316.801 105.462 312.853 106.295 309.869L116.585 309.593Z" fill="#B97964"/>
<path opacity="0.4" d="M116.585 309.593L116.688 312.935C116.102 313.147 115.618 313.573 115.334 314.127C115.05 314.68 114.986 315.321 115.156 315.919C115.958 318.79 113.974 322.953 111.681 324.47C111.681 324.47 111.681 323.26 110.653 323.445C109.625 323.629 109.307 329.925 111.003 333.093C111.003 333.093 107.374 329.761 106.295 323.024C105.267 316.801 105.462 312.853 106.295 309.869L116.585 309.593Z" fill="black"/>
<path d="M105.719 313.601C109.387 313.96 113.09 313.735 116.687 312.935C127.039 310.884 131.45 314.678 131.45 314.678C132.166 314.035 132.73 313.242 133.102 312.356C133.473 311.469 133.643 310.511 133.598 309.551C133.3 306.578 129.157 306.075 129.157 306.075C129.157 306.075 127.913 302.723 125.168 301.708C122.424 300.692 119.669 303.235 119.669 303.235C119.669 303.235 116.245 299.934 112.257 300.877C110.914 301.152 109.707 301.878 108.836 302.935C107.966 303.991 107.486 305.313 107.477 306.68C107.477 306.68 102.799 307.152 102.902 309.551C103.005 311.951 105.719 313.601 105.719 313.601Z" fill="#1D2436"/>
<path d="M121.622 326.162C123.479 326.162 124.984 324.431 124.984 322.296C124.984 320.162 123.479 318.431 121.622 318.431C119.766 318.431 118.261 320.162 118.261 322.296C118.261 324.431 119.766 326.162 121.622 326.162Z" stroke="#1D2436" stroke-width="0.5" stroke-linecap="round" stroke-linejoin="round"/>
<path d="M133.434 322.87C133.341 323.512 133.066 324.114 132.64 324.604C132.214 325.094 131.656 325.452 131.033 325.635C130.409 325.818 129.745 325.818 129.122 325.635C128.498 325.453 127.94 325.095 127.514 324.606C127.088 324.116 126.812 323.514 126.719 322.872C126.626 322.23 126.72 321.575 126.989 320.985C127.259 320.395 127.693 319.895 128.239 319.544C128.786 319.193 129.422 319.006 130.072 319.005C131.03 319.078 131.92 319.525 132.549 320.249C133.178 320.973 133.496 321.915 133.434 322.87Z" stroke="#1D2436" stroke-width="0.5" stroke-linecap="round" stroke-linejoin="round"/>
<path d="M124.974 322.758C124.974 322.758 126.064 322.081 126.711 322.871" stroke="#1D2436" stroke-width="0.5" stroke-linecap="round" stroke-linejoin="round"/>
<path d="M118.259 322.296L112.369 321.507C111.597 321.407 110.817 321.618 110.2 322.091L109.943 322.296" stroke="#1D2436" stroke-width="0.5" stroke-linecap="round" stroke-linejoin="round"/>
<path d="M105.656 323.711C106.247 325.515 107.529 327.011 109.223 327.874C111.474 328.992 113.078 327.105 112.852 324.737C112.646 322.624 111.238 319.446 108.74 319.323C108.207 319.305 107.677 319.42 107.2 319.658C106.723 319.896 106.312 320.248 106.006 320.684C105.7 321.12 105.508 321.625 105.446 322.153C105.385 322.682 105.457 323.217 105.656 323.711Z" fill="#B97964"/>
<path opacity="0.2" d="M68.0928 378.864C77.7971 374.845 85.466 358.245 85.466 358.245L79.9559 354.923L72.4721 360.921L71.7936 363.412C70.7656 367.216 69.7993 371.266 68.8741 375.368C68.6068 376.537 68.3498 377.706 68.0928 378.864Z" fill="black"/>
<path d="M121.54 380.628L138.276 374.496L138.759 375.911L122.013 381.858L121.54 380.628Z" fill="#FF7F00"/>
<path d="M88.2015 338.261C90.864 343.89 88.8389 355.743 83.925 359.926C78.7258 364.226 73.2296 368.156 67.477 371.687L58.5129 359.967C58.5129 359.967 68.0527 350.678 73.8301 345.325C77.7595 341.526 82.7869 339.055 88.2015 338.261Z" fill="#FFB266"/>
<rect x="305.55" y="444.064" width="544.166" height="544.166" rx="85.5" transform="rotate(-45 305.55 444.064)" stroke="#A6C5FF"/>
<rect x="305.55" y="397.201" width="544.166" height="544.166" rx="85.5" transform="rotate(-45 305.55 397.201)" stroke="#A6C5FF"/>
<rect x="305.55" y="349.996" width="544.166" height="544.166" rx="85.5" transform="rotate(-45 305.55 349.996)" stroke="#A6C5FF"/>
<path opacity="0.8" d="M261.387 274.356H240.817C240.323 274.356 239.922 274.755 239.922 275.248V286.824C239.922 287.317 240.323 287.716 240.817 287.716H261.387C261.881 287.716 262.281 287.317 262.281 286.824V275.248C262.281 274.755 261.881 274.356 261.387 274.356Z" fill="#FFB266"/>
<path d="M245.69 303.096H229.396C228.902 303.096 228.502 303.495 228.502 303.988V312.406C228.502 312.899 228.902 313.298 229.396 313.298H245.69C246.184 313.298 246.585 312.899 246.585 312.406V303.988C246.585 303.495 246.184 303.096 245.69 303.096Z" fill="#FFB266"/>
<path d="M273.127 303.096H256.833C256.339 303.096 255.938 303.495 255.938 303.988V312.406C255.938 312.899 256.339 313.298 256.833 313.298H273.127C273.62 313.298 274.021 312.899 274.021 312.406V303.988C274.021 303.495 273.62 303.096 273.127 303.096Z" fill="#FFB266"/>
<path d="M256.257 324.69H248.557C248.063 324.69 247.663 325.089 247.663 325.582V332.513C247.663 333.006 248.063 333.405 248.557 333.405H256.257C256.751 333.405 257.151 333.006 257.151 332.513V325.582C257.151 325.089 256.751 324.69 256.257 324.69Z" fill="#FFB266"/>
<path d="M268.306 324.69H260.607C260.113 324.69 259.712 325.089 259.712 325.582V332.513C259.712 333.006 260.113 333.405 260.607 333.405H268.306C268.8 333.405 269.201 333.006 269.201 332.513V325.582C269.201 325.089 268.8 324.69 268.306 324.69Z" fill="#FFB266"/>
<path d="M280.364 324.69H272.664C272.17 324.69 271.77 325.089 271.77 325.582V332.513C271.77 333.006 272.17 333.405 272.664 333.405H280.364C280.858 333.405 281.258 333.006 281.258 332.513V325.582C281.258 325.089 280.858 324.69 280.364 324.69Z" fill="#FFB266"/>
<path d="M228.367 324.69H220.668C220.174 324.69 219.773 325.089 219.773 325.582V332.513C219.773 333.006 220.174 333.405 220.668 333.405H228.367C228.861 333.405 229.262 333.006 229.262 332.513V325.582C229.262 325.089 228.861 324.69 228.367 324.69Z" fill="#FFB266"/>
<path d="M241.443 324.69H233.743C233.249 324.69 232.849 325.089 232.849 325.582V332.513C232.849 333.006 233.249 333.405 233.743 333.405H241.443C241.937 333.405 242.337 333.006 242.337 332.513V325.582C242.337 325.089 241.937 324.69 241.443 324.69Z" fill="#FFB266"/>
<path d="M263.947 303.096H264.975V295.919H251.611V287.716H250.583V295.919H237.219V303.096H238.247V296.944H263.947V303.096Z" fill="#FFB266"/>
<path d="M237.22 319.502H223.856V324.628H224.884V320.527H237.22V324.628H238.248V313.35H237.22V319.502Z" fill="#FFB266"/>
<path d="M264.975 320.527V313.35H263.947V320.527H251.611V324.628H252.639V321.552H263.947V324.628H264.975V321.552H276.283V324.628H277.311V320.527H264.975Z" fill="#FFB266"/>
<path d="M419.787 292.692H350.756V337.468H419.787V292.692Z" fill="#3C60A6"/>
<path d="M417.248 301.089H353.276V335.233H417.248V301.089Z" fill="white"/>
<path d="M405.816 306.196H358.487V307.662H405.816V306.196Z" fill="#3C60A6"/>
<path d="M381.195 310.687H358.487V312.153H381.195V310.687Z" fill="#3C60A6"/>
<path d="M387.086 315.188H358.487V316.654H387.086V315.188Z" fill="#3C60A6"/>
<path d="M368.561 319.689H358.487V321.155H368.561V319.689Z" fill="#3C60A6"/>
<path d="M365.014 324.19H358.487V325.656H365.014V324.19Z" fill="#3C60A6"/>
<path d="M259.999 596C370.08 596 459.318 590.803 459.318 584.393C459.318 577.983 370.08 572.786 259.999 572.786C149.918 572.786 60.6801 577.983 60.6801 584.393C60.6801 590.803 149.918 596 259.999 596Z" fill="#CEDAF2"/>
<path d="M346.742 584.393H354.297L364.577 527.754H357.022L346.742 584.393Z" fill="#1D2436"/>
<path opacity="0.2" d="M346.742 584.393H354.297L364.577 527.754H357.022L346.742 584.393Z" fill="white"/>
<path opacity="0.2" d="M346.742 584.393H352.241L362.521 527.754H357.022L346.742 584.393Z" fill="white"/>
<path d="M325.472 544.6H355.685C355.904 544.601 356.121 544.559 356.324 544.476C356.526 544.393 356.71 544.271 356.865 544.116C357.02 543.962 357.143 543.778 357.226 543.576C357.309 543.374 357.351 543.157 357.35 542.939C357.351 542.72 357.309 542.504 357.226 542.302C357.143 542.099 357.02 541.916 356.865 541.761C356.71 541.607 356.526 541.485 356.324 541.402C356.121 541.319 355.904 541.277 355.685 541.278H325.472C325.253 541.277 325.036 541.319 324.833 541.402C324.63 541.485 324.446 541.607 324.291 541.761C324.136 541.916 324.014 542.099 323.93 542.302C323.847 542.504 323.805 542.72 323.806 542.939C323.805 543.157 323.847 543.374 323.93 543.576C324.014 543.778 324.136 543.962 324.291 544.116C324.446 544.271 324.63 544.393 324.833 544.476C325.036 544.559 325.253 544.601 325.472 544.6Z" fill="#1D2436"/>
<path d="M322.111 563.569H352.334C352.777 563.566 353.2 563.389 353.512 563.076C353.824 562.762 353.999 562.339 353.999 561.897C353.997 561.458 353.82 561.037 353.509 560.726C353.197 560.415 352.775 560.239 352.334 560.236H322.111C321.67 560.239 321.248 560.415 320.936 560.726C320.624 561.037 320.448 561.458 320.445 561.897C320.445 562.339 320.621 562.762 320.933 563.076C321.245 563.389 321.668 563.566 322.111 563.569Z" fill="#1D2436"/>
<path d="M315.901 584.393H323.457L333.737 527.754H326.181L315.901 584.393Z" fill="#1D2436"/>
<path opacity="0.2" d="M315.901 584.393H323.457L333.737 527.754H326.181L315.901 584.393Z" fill="white"/>
<path opacity="0.2" d="M315.901 584.393H321.401L331.681 527.754H326.181L315.901 584.393Z" fill="white"/>
<path d="M386.165 584.393H378.609L368.329 527.754H375.885L386.165 584.393Z" fill="#1D2436"/>
<path opacity="0.4" d="M386.165 584.393H378.609L368.329 527.754H375.885L386.165 584.393Z" fill="white"/>
<path opacity="0.2" d="M384.109 584.393H378.609L368.329 527.754H373.829L384.109 584.393Z" fill="white"/>
<path d="M372.893 544.6H342.67C342.228 544.6 341.805 544.425 341.493 544.113C341.18 543.802 341.005 543.379 341.005 542.939C341.005 542.498 341.18 542.076 341.493 541.764C341.805 541.453 342.228 541.278 342.67 541.278H372.893C373.335 541.278 373.759 541.453 374.071 541.764C374.383 542.076 374.559 542.498 374.559 542.939C374.559 543.379 374.383 543.802 374.071 544.113C373.759 544.425 373.335 544.6 372.893 544.6Z" fill="#1D2436"/>
<path d="M376.246 563.569H346.033C345.813 563.569 345.596 563.525 345.393 563.441C345.191 563.357 345.006 563.234 344.852 563.079C344.697 562.923 344.574 562.739 344.491 562.536C344.408 562.333 344.366 562.116 344.368 561.897C344.368 561.457 344.543 561.034 344.855 560.723C345.168 560.411 345.591 560.236 346.033 560.236H376.246C376.687 560.236 377.111 560.411 377.423 560.723C377.736 561.034 377.911 561.457 377.911 561.897C377.913 562.116 377.87 562.333 377.787 562.536C377.704 562.739 377.582 562.923 377.427 563.079C377.272 563.234 377.088 563.357 376.886 563.441C376.683 563.525 376.465 563.569 376.246 563.569Z" fill="#1D2436"/>
<path opacity="0.2" d="M372.893 544.6H342.67C342.228 544.6 341.805 544.425 341.493 544.113C341.18 543.802 341.005 543.379 341.005 542.939C341.005 542.498 341.18 542.076 341.493 541.764C341.805 541.453 342.228 541.278 342.67 541.278H372.893C373.335 541.278 373.759 541.453 374.071 541.764C374.383 542.076 374.559 542.498 374.559 542.939C374.559 543.379 374.383 543.802 374.071 544.113C373.759 544.425 373.335 544.6 372.893 544.6Z" fill="white"/>
<path opacity="0.2" d="M376.246 563.569H346.033C345.813 563.569 345.596 563.525 345.393 563.441C345.191 563.357 345.006 563.234 344.852 563.079C344.697 562.923 344.574 562.739 344.491 562.536C344.408 562.333 344.366 562.116 344.368 561.897C344.368 561.457 344.543 561.034 344.855 560.723C345.168 560.411 345.591 560.236 346.033 560.236H376.246C376.687 560.236 377.111 560.411 377.423 560.723C377.736 561.034 377.911 561.457 377.911 561.897C377.913 562.116 377.87 562.333 377.787 562.536C377.704 562.739 377.582 562.923 377.427 563.079C377.272 563.234 377.088 563.357 376.886 563.441C376.683 563.525 376.465 563.569 376.246 563.569Z" fill="white"/>
<path d="M355.325 584.393H347.769L337.489 527.754H345.045L355.325 584.393Z" fill="#1D2436"/>
<path opacity="0.4" d="M355.325 584.393H347.769L337.489 527.754H345.045L355.325 584.393Z" fill="white"/>
<path opacity="0.2" d="M353.269 584.393H347.769L337.489 527.754H342.989L353.269 584.393Z" fill="white"/>
<path d="M378.825 525.047H324.249C323.573 525.047 323.025 525.593 323.025 526.267V529.23C323.025 529.904 323.573 530.45 324.249 530.45H378.825C379.501 530.45 380.049 529.904 380.049 529.23V526.267C380.049 525.593 379.501 525.047 378.825 525.047Z" fill="#1D2436"/>
<path opacity="0.2" d="M344.994 525.047H324.249C323.573 525.047 323.025 525.593 323.025 526.267V529.23C323.025 529.904 323.573 530.45 324.249 530.45H344.994C345.669 530.45 346.217 529.904 346.217 529.23V526.267C346.217 525.593 345.669 525.047 344.994 525.047Z" fill="white"/>
<path d="M202.792 538.878H133.762V583.655H202.792V538.878Z" fill="#BF5F00"/>
<path d="M200.274 547.276H136.292V581.42H200.274V547.276Z" fill="#FFB266"/>
<path d="M188.833 552.372H141.503V553.838H188.833V552.372Z" fill="white"/>
<path d="M288.095 584.393H231.905L241.414 509.882H278.586L288.095 584.393Z" fill="#0836D9"/>
<path opacity="0.6" d="M288.095 584.393H231.905L238.412 533.413L241.424 509.882H278.576L283.017 544.6L288.095 584.393Z" fill="white"/>
<path opacity="0.1" d="M283.017 544.6L238.412 533.413L241.424 509.882H278.576L283.017 544.6Z" fill="black"/>
<path d="M392.478 326.151H127.521C126.63 326.151 125.749 326.326 124.926 326.667C124.103 327.007 123.356 327.506 122.727 328.134C122.098 328.763 121.599 329.509 121.259 330.33C120.919 331.151 120.745 332.03 120.746 332.919V511.82C120.746 513.612 121.46 515.33 122.731 516.597C124.001 517.865 125.724 518.577 127.521 518.577H392.478C394.274 518.577 395.997 517.865 397.268 516.597C398.538 515.33 399.252 513.612 399.252 511.82V332.939C399.256 332.049 399.084 331.167 398.745 330.344C398.407 329.521 397.908 328.772 397.279 328.141C396.649 327.511 395.901 327.01 395.077 326.669C394.253 326.327 393.37 326.151 392.478 326.151Z" fill="#0836D9"/>
<path opacity="0.7" d="M392.478 326.151H127.521C126.63 326.151 125.749 326.326 124.926 326.667C124.103 327.007 123.356 327.506 122.727 328.134C122.098 328.763 121.599 329.509 121.259 330.33C120.919 331.151 120.745 332.03 120.746 332.919V511.82C120.746 513.612 121.46 515.33 122.731 516.597C124.001 517.865 125.724 518.577 127.521 518.577H392.478C394.274 518.577 395.997 517.865 397.268 516.597C398.538 515.33 399.252 513.612 399.252 511.82V332.939C399.256 332.049 399.084 331.167 398.745 330.344C398.407 329.521 397.908 328.772 397.279 328.141C396.649 327.511 395.901 327.01 395.077 326.669C394.253 326.327 393.37 326.151 392.478 326.151Z" fill="white"/>
<path d="M390.34 332.775H129.67V505.288H390.34V332.775Z" fill="#0836D9"/>
<path d="M307.184 578.795H212.804C212.213 578.795 211.735 579.272 211.735 579.861V583.234C211.735 583.823 212.213 584.301 212.804 584.301H307.184C307.775 584.301 308.253 583.823 308.253 583.234V579.861C308.253 579.272 307.775 578.795 307.184 578.795Z" fill="#0836D9"/>
<path opacity="0.7" d="M307.184 578.795H212.804C212.213 578.795 211.735 579.272 211.735 579.861V583.234C211.735 583.823 212.213 584.301 212.804 584.301H307.184C307.775 584.301 308.253 583.823 308.253 583.234V579.861C308.253 579.272 307.775 578.795 307.184 578.795Z" fill="white"/>
<path opacity="0.2" d="M390.34 332.939H129.67V358.655H390.34V332.939Z" fill="black"/>
<path opacity="0.4" d="M241.372 358.962H129.67V505.288H241.372V358.962Z" fill="white"/>
<path d="M350.217 396.284V398.848H347.647" stroke="white" stroke-miterlimit="10"/>
<path d="M342.22 398.848H258.026" stroke="white" stroke-miterlimit="10" stroke-dasharray="5.28 5.28"/>
<path d="M255.312 398.848H252.742V396.284" stroke="white" stroke-miterlimit="10"/>
<path d="M252.742 391.64V347.52" stroke="white" stroke-miterlimit="10" stroke-dasharray="4.53 4.53"/>
<path d="M252.742 345.202V342.639H255.312" stroke="white" stroke-miterlimit="10"/>
<path d="M260.74 342.639H344.933" stroke="white" stroke-miterlimit="10" stroke-dasharray="5.28 5.28"/>
<path d="M347.647 342.639H350.217V345.202" stroke="white" stroke-miterlimit="10"/>
<path d="M350.217 349.847V393.967" stroke="white" stroke-miterlimit="10" stroke-dasharray="4.53 4.53"/>
<path d="M351.852 341.009H348.593V344.259H351.852V341.009Z" fill="#0836D9" stroke="white" stroke-miterlimit="10"/>
<path d="M351.852 397.228H348.593V400.478H351.852V397.228Z" fill="#0836D9" stroke="white" stroke-miterlimit="10"/>
<path d="M254.367 341.009H251.108V344.259H254.367V341.009Z" fill="#0836D9" stroke="white" stroke-miterlimit="10"/>
<path d="M254.367 397.228H251.108V400.478H254.367V397.228Z" fill="#0836D9" stroke="white" stroke-miterlimit="10"/>
<path d="M303.114 341.009H299.855V344.259H303.114V341.009Z" fill="#0836D9" stroke="white" stroke-miterlimit="10"/>
<path d="M303.114 397.228H299.855V400.478H303.114V397.228Z" fill="#0836D9" stroke="white" stroke-miterlimit="10"/>
<path d="M351.852 369.113H348.593V372.363H351.852V369.113Z" fill="#0836D9" stroke="white" stroke-miterlimit="10"/>
<path d="M254.367 369.113H251.108V372.363H254.367V369.113Z" fill="#0836D9" stroke="white" stroke-miterlimit="10"/>
<path opacity="0.7" d="M341.366 361.515H317.506C316.433 361.515 315.563 362.383 315.563 363.453V369.821C315.563 370.891 316.433 371.759 317.506 371.759H341.366C342.439 371.759 343.309 370.891 343.309 369.821V363.453C343.309 362.383 342.439 361.515 341.366 361.515Z" fill="white"/>
<path opacity="0.7" d="M300.246 361.515H276.387C275.314 361.515 274.444 362.383 274.444 363.453V369.821C274.444 370.891 275.314 371.759 276.387 371.759H300.246C301.319 371.759 302.189 370.891 302.189 369.821V363.453C302.189 362.383 301.319 361.515 300.246 361.515Z" fill="white"/>
<path opacity="0.7" d="M247.313 486.186H223.454C222.381 486.186 221.511 487.054 221.511 488.124V494.492C221.511 495.562 222.381 496.429 223.454 496.429H247.313C248.387 496.429 249.256 495.562 249.256 494.492V488.124C249.256 487.054 248.387 486.186 247.313 486.186Z" fill="white"/>
<path d="M373.131 342.085H381.808" stroke="white" stroke-width="1.5" stroke-linecap="round" stroke-linejoin="round"/>
<path d="M373.131 346.187H381.808" stroke="white" stroke-width="1.5" stroke-linecap="round" stroke-linejoin="round"/>
<path d="M373.131 350.288H381.808" stroke="white" stroke-width="1.5" stroke-linecap="round" stroke-linejoin="round"/>
<path opacity="0.5" d="M234.773 381.643H147.341V468.848H234.773V381.643Z" fill="white"/>
<path d="M221.645 463.998C211.642 463.998 202.049 460.034 194.975 452.979C187.902 445.924 183.928 436.356 183.928 426.378V426.378C183.928 416.404 187.901 406.837 194.972 399.784C202.044 392.731 211.634 388.769 221.635 388.769V388.769" stroke="#0836D9" stroke-miterlimit="10"/>
<path d="M223.279 387.149H220.02V390.399H223.279V387.149Z" fill="white" stroke="#0836D9" stroke-miterlimit="10"/>
<path d="M223.279 462.368H220.02V465.618H223.279V462.368Z" fill="white" stroke="#0836D9" stroke-miterlimit="10"/>
<path opacity="0.7" d="M328.804 487.427H302.333C300.305 487.427 298.36 486.623 296.925 485.192C295.491 483.762 294.685 481.821 294.685 479.798C294.685 477.775 295.491 475.835 296.925 474.404C298.36 472.973 300.305 472.17 302.333 472.17H328.804C330.833 472.17 332.778 472.973 334.213 474.404C335.647 475.835 336.453 477.775 336.453 479.798C336.453 481.821 335.647 483.762 334.213 485.192C332.778 486.623 330.833 487.427 328.804 487.427Z" fill="white"/>
<path opacity="0.7" d="M352.057 422.369H270.279C269.835 422.369 269.409 422.193 269.094 421.88C268.78 421.566 268.603 421.141 268.603 420.698C268.612 420.261 268.792 419.845 269.106 419.54C269.419 419.234 269.841 419.065 270.279 419.068H352.046C352.266 419.066 352.483 419.108 352.687 419.191C352.89 419.274 353.075 419.396 353.23 419.551C353.386 419.705 353.51 419.888 353.594 420.091C353.678 420.293 353.722 420.51 353.722 420.729C353.714 421.165 353.535 421.581 353.224 421.887C352.913 422.194 352.494 422.367 352.057 422.369Z" fill="white"/>
<path opacity="0.7" d="M352.057 434.54H270.279C270.06 434.541 269.842 434.499 269.639 434.416C269.435 434.334 269.251 434.211 269.095 434.057C268.939 433.903 268.816 433.719 268.731 433.517C268.647 433.315 268.603 433.098 268.603 432.879C268.603 432.436 268.78 432.01 269.094 431.697C269.409 431.384 269.835 431.208 270.279 431.208H352.046C352.491 431.208 352.917 431.384 353.231 431.697C353.545 432.01 353.722 432.436 353.722 432.879C353.722 433.319 353.546 433.742 353.234 434.053C352.922 434.365 352.498 434.54 352.057 434.54Z" fill="white"/>
<path opacity="0.7" d="M352.058 446.752H301.12C300.678 446.752 300.253 446.577 299.939 446.266C299.625 445.955 299.447 445.532 299.445 445.091C299.445 444.647 299.621 444.222 299.935 443.909C300.25 443.596 300.676 443.419 301.12 443.419H352.048C352.492 443.419 352.918 443.596 353.232 443.909C353.547 444.222 353.723 444.647 353.723 445.091C353.72 445.53 353.544 445.951 353.232 446.262C352.921 446.573 352.499 446.749 352.058 446.752Z" fill="white"/>
<path d="M349.621 342.054L353.98 353.682L361.268 346.402L349.621 342.054Z" fill="#0836D9"/>
<path d="M356.641 347.431L355.013 349.055L358.625 352.658L360.254 351.034L356.641 347.431Z" fill="#0836D9"/>
<path opacity="0.4" d="M361.268 346.402L349.621 342.054L353.98 353.682L356.817 350.852L358.616 352.656L360.24 351.036L358.441 349.232L361.268 346.402Z" fill="white"/>
<path opacity="0.1" d="M211.386 332.775L165.096 505.288H133.207L179.488 332.775H211.386Z" fill="white"/>
<path opacity="0.1" d="M257.749 332.775L211.458 505.288H197.035L243.326 332.775H257.749Z" fill="white"/>
<path opacity="0.1" d="M300.442 332.775L254.151 505.288H248.99L295.281 332.775H300.442Z" fill="white"/>
<path d="M457.273 370.877C460.922 375.07 479.488 410.742 475.9 419.068C472.312 427.393 442.562 417.796 442.562 417.796L444.34 406.036C444.34 406.036 455.895 406.446 457.005 405.349C458.116 404.251 441.369 387.579 441.369 387.579L457.273 370.877Z" fill="#1D2436"/>
<g opacity="0.2">
<path opacity="0.2" d="M475.88 419.068C475.439 420.031 474.671 420.808 473.711 421.262L473.115 421.528H473.033C472.849 421.606 472.66 421.671 472.467 421.723C471.632 421.991 470.77 422.169 469.897 422.256L469.147 422.328C468.777 422.328 468.407 422.379 468.026 422.39H466.998C457.027 422.39 442.522 417.724 442.522 417.724L444.3 405.964C444.3 405.964 455.855 406.374 456.965 405.277C457.232 405.01 456.441 403.821 455.094 402.201C451.825 398.192 445.277 391.517 442.573 388.789L441.35 387.559L457.273 370.877C460.923 375.029 479.488 410.701 475.88 419.068Z" fill="white"/>
</g>
<path opacity="0.2" d="M473.731 421.231L473.135 421.498H473.052C472.868 421.575 472.68 421.64 472.487 421.692C471.652 421.96 470.79 422.139 469.917 422.226L469.167 422.297C468.796 422.297 468.426 422.349 468.046 422.359H467.018C457.046 422.359 442.541 417.694 442.541 417.694L444.32 405.933C444.32 405.933 457.334 407.03 458.445 405.933C458.65 405.502 457.211 404.046 455.083 402.191C451.814 398.181 445.266 391.507 442.562 388.779L450.087 380.761L455.813 380.146C455.813 380.146 468.488 400.611 473.731 421.231Z" fill="black"/>
<path d="M419.762 369.667C417.706 371.154 416.678 373.266 417.5 374.383L471.819 449.079C472.632 450.197 474.965 449.889 477.021 448.402C479.077 446.916 480.105 444.793 479.283 443.686L424.963 368.98C424.151 367.872 421.828 368.17 419.762 369.667Z" fill="#1D2436"/>
<path opacity="0.7" d="M424.963 368.98L479.282 443.676C480.094 444.783 479.077 446.895 477.021 448.392C474.965 449.889 472.631 450.176 471.829 449.069L417.51 374.363C417.302 373.973 417.21 373.533 417.245 373.094C417.28 372.654 417.439 372.234 417.705 371.881C417.982 371.388 418.329 370.935 418.733 370.538C419.048 370.214 419.392 369.919 419.761 369.656C421.827 368.18 424.151 367.872 424.963 368.98Z" fill="white"/>
<path opacity="0.3" d="M479.282 443.676C480.094 444.783 479.076 446.895 477.02 448.392C474.964 449.889 472.631 450.176 471.829 449.069C471.377 448.454 472.497 447.521 473.155 446.178L417.705 371.902C417.982 371.408 418.328 370.956 418.733 370.559L473.063 445.265C473.382 444.942 473.725 444.643 474.091 444.373C476.147 442.876 478.47 442.568 479.282 443.676Z" fill="black"/>
<path d="M413.039 367.596C411.302 369.441 410.706 371.697 411.713 372.65L479.253 435.719C480.281 436.662 482.491 435.924 484.228 434.068C485.966 432.212 486.562 429.967 485.555 429.003L418.015 365.934C417.007 365.001 414.777 365.75 413.039 367.596Z" fill="#0836D9"/>
<path opacity="0.7" d="M418.014 365.945L485.554 429.013C486.582 429.946 485.965 432.212 484.228 434.068C482.49 435.924 480.259 436.652 479.252 435.719L411.712 372.65C411.437 372.305 411.265 371.889 411.216 371.45C411.167 371.011 411.243 370.567 411.435 370.169C411.619 369.632 411.875 369.121 412.196 368.652C412.45 368.289 412.732 367.946 413.039 367.626C414.776 365.75 417.007 365.001 418.014 365.945Z" fill="white"/>
<path opacity="0.3" d="M485.554 429.013C486.582 429.946 485.965 432.212 484.228 434.068C482.491 435.924 480.26 436.652 479.253 435.719C478.697 435.196 479.623 434.078 480.013 432.643L411.435 370.19C411.62 369.652 411.876 369.142 412.196 368.672L479.746 431.751C479.994 431.387 480.273 431.044 480.579 430.726C482.316 428.808 484.547 428.07 485.554 429.013Z" fill="black"/>
<path d="M429.271 568.87L424.131 568.952C418.898 544.436 415.197 514.096 412.895 491.21C412.535 487.622 412.206 484.228 411.867 481.06C411.733 479.552 411.599 478.107 411.476 476.712C410.859 469.832 410.448 464.408 410.181 461.004C409.996 458.543 409.903 457.19 409.903 457.19H428.592L428.417 461.917L427.801 477.512L427.739 479.296L427.348 489.601L426.701 507.144C433.085 531.855 429.271 568.87 429.271 568.87Z" fill="#F7A955"/>
<path d="M471.007 567.557L465.939 568.51C455.793 543.215 446.263 510.825 440.064 488.196C439.108 484.689 438.224 481.408 437.433 478.434C437.433 478.281 437.361 478.137 437.32 477.994C435.757 472.088 434.554 467.381 433.804 464.398L432.909 460.778L451.208 457.62L452.236 465.31L453.768 476.589L454.066 478.804L455.094 486.504L457.88 507.154C468.447 530.429 471.007 567.557 471.007 567.557Z" fill="#F7A955"/>
<path opacity="0.2" d="M453.819 476.609L437.433 478.435C437.433 478.281 437.361 478.137 437.32 477.994C435.757 472.088 434.555 467.381 433.804 464.398L452.308 465.31L453.819 476.609Z" fill="black"/>
<path opacity="0.2" d="M428.377 461.916L427.801 477.512L427.74 479.296L411.909 481.049C411.775 479.542 411.641 478.096 411.518 476.702C410.901 469.822 410.49 464.398 410.223 460.994L428.377 461.916Z" fill="black"/>
<path d="M414.067 585.911C415.024 585.135 416.114 584.538 417.284 584.147C417.284 584.147 420.79 580.681 422.486 570.244L427.071 569.044C427.85 568.858 428.668 568.915 429.414 569.207C430.16 569.498 430.799 570.01 431.245 570.674C431.371 570.86 431.468 571.064 431.532 571.279C431.769 572.399 431.934 573.532 432.026 574.673C432.282 578.489 432.307 582.317 432.098 586.136H431.265L430.936 578.959C430.813 576.508 428.932 579.379 428.397 582.035C427.863 584.691 426.721 587.459 421.355 587.592C415.084 587.685 412.484 587.438 414.067 585.911Z" fill="#1D2436"/>
<path d="M431.41 570.818C431.708 568.377 431.8 564.132 431.8 564.132L421.603 565.26C421.603 565.26 422.836 570.09 421.819 573.719C426.959 572.315 431.41 570.818 431.41 570.818Z" fill="#1D2436"/>
<path d="M455.556 585.911C456.514 585.139 457.604 584.545 458.773 584.157C458.773 584.157 462.279 580.692 463.965 570.254L468.56 569.054C469.339 568.869 470.157 568.926 470.903 569.217C471.649 569.508 472.288 570.02 472.734 570.684C472.86 570.87 472.957 571.074 473.022 571.289C473.259 572.409 473.423 573.543 473.515 574.683C473.77 578.499 473.79 582.328 473.577 586.147H472.795L472.466 578.969C472.343 576.519 470.462 579.39 469.927 582.045C469.393 584.701 468.252 587.469 462.875 587.602C456.574 587.685 453.973 587.438 455.556 585.911Z" fill="#1D2436"/>
<path d="M472.889 570.818C473.197 568.377 473.29 564.132 473.29 564.132L463.092 565.26C463.092 565.26 464.326 570.09 463.308 573.719C468.448 572.315 472.889 570.818 472.889 570.818Z" fill="#1D2436"/>
<path d="M455.588 471.575L436.189 474.046L435.439 474.139L431.45 459.558L430.422 475.185L409.636 474.098C400.384 419.888 416.205 407.082 416.205 407.082L444.403 412.741C457.171 434.397 454.138 459.558 454.138 459.558L455.588 471.575Z" fill="#EF7700"/>
<path d="M428.88 339.542C428.88 341.675 427.934 343.398 426.824 343.398C425.714 343.398 424.707 341.675 424.707 339.542C424.707 337.41 425.652 335.687 426.824 335.687C427.996 335.687 428.88 337.41 428.88 339.542Z" stroke="#1D2436" stroke-width="0.5" stroke-linecap="round" stroke-linejoin="round"/>
<path d="M442.811 352.421C442.735 352.491 442.653 352.553 442.564 352.605C441.391 353.497 440.053 354.149 438.627 354.523C434.463 355.486 431.616 354.912 429.755 353.036C427.154 350.216 426.506 345.223 426.877 339.194C426.941 336.795 427.385 334.421 428.192 332.16C428.192 332.16 428.192 332.068 428.192 332.047C428.192 332.027 428.254 331.873 428.295 331.791C428.805 330.516 429.627 329.388 430.687 328.512C431.746 327.636 433.01 327.04 434.36 326.777C435.532 326.516 436.728 326.382 437.928 326.377C449.719 326.285 451.837 345.746 442.811 352.421Z" fill="#F7A955"/>
<path opacity="0.2" d="M442.563 352.636C441.381 353.476 440.042 354.072 438.626 354.389C434.463 355.353 431.615 354.646 429.754 352.738C432.246 353.353 434.871 353.137 437.228 352.123C438.099 351.803 439.031 351.683 439.954 351.771C440.878 351.86 441.77 352.156 442.563 352.636Z" fill="black"/>
<path d="M443.756 363.248C444.485 366.591 440.137 367.954 440.137 367.954C433.033 364.878 431.718 361.156 431.718 361.156C437.649 358.08 435.932 349.355 435.932 349.355L437.135 349.949L445.596 351.6C445.596 351.6 443.252 356.091 442.943 357.117C441.34 362.5 443.756 363.248 443.756 363.248Z" fill="#F7A955"/>
<path d="M428.181 332.109C428.181 332.109 427.533 340.311 435.377 343.89C435.377 343.89 438.739 352.451 443.683 352.564C450.437 352.728 456.379 343.162 454.045 333.411C450.992 320.758 431.779 319.733 428.181 332.109Z" fill="#1D2436"/>
<path d="M431.388 341.521C431.388 340.24 432.416 338.076 434.472 338.373C436.528 338.671 437.699 343.777 432.601 344.915C431.83 345.079 431.388 344.218 431.388 341.521Z" fill="#F7A955"/>
<path d="M442.563 323.352C442.563 323.352 434.688 321.363 430.329 324.531C425.241 328.223 423.308 332.037 429.301 337.963C429.301 337.963 442.532 333.688 446.932 334.59C449.503 335.107 452.027 335.838 454.477 336.774C455.433 328.059 446.962 321.568 442.563 323.352Z" fill="#1D2436"/>
<path d="M431.387 339.542C431.387 339.542 433.443 349.037 430.215 357.137C430.215 357.137 448.925 363.607 455.432 360.09C461.939 356.573 455.977 344.772 455.7 337.963C455.422 331.155 452.461 321.097 442.562 323.352C432.662 325.608 431.387 339.542 431.387 339.542Z" fill="#1D2436"/>
<path d="M424.656 338.938H432.562" stroke="#1D2436" stroke-width="0.5" stroke-linecap="round" stroke-linejoin="round"/>
<path opacity="0.2" d="M436.19 474.046L435.44 474.138L431.451 459.558C431.451 459.558 440.004 444.988 437.331 437.401C437.711 437.934 446.922 451.561 436.19 474.046Z" fill="black"/>
<path d="M420.174 362.51C420.174 362.51 429.581 359.167 443.757 363.248C457.933 367.329 458.467 373.348 458.467 373.348C458.467 373.348 449.483 393.66 448.064 416.658L411.118 415.284C411.118 415.284 406.708 382.822 420.174 362.51Z" fill="#1D2436"/>
<path opacity="0.2" d="M458.466 373.348C458.466 373.348 449.481 393.66 448.062 416.658L411.116 415.284C410.674 411.541 410.448 407.775 410.438 404.005C410.365 398.488 410.708 392.973 411.466 387.508C412.699 378.997 415.238 369.913 420.173 362.469C420.173 362.469 429.579 359.126 443.755 363.207C457.931 367.288 458.466 373.348 458.466 373.348Z" fill="white"/>
<path opacity="0.2" d="M419.659 388.933C419.659 388.933 418.127 398.284 410.407 404.046C410.334 398.529 410.678 393.014 411.435 387.549L419.659 388.933Z" fill="black"/>
<path d="M378.837 361.864L374.18 354.974C374.18 354.974 373.471 351.98 372.566 351.303C371.662 350.626 362.718 346.822 361.639 346.843C360.559 346.863 360.611 353.795 361.639 354.974C362.667 356.153 368.362 358.675 369.863 358.932C371.364 359.188 370.623 358.932 370.623 358.932L374.735 367.134L378.837 361.864Z" fill="#F7A955"/>
<path d="M420.173 362.51C410.197 366.677 400.571 371.635 391.389 377.336L376.349 356.83C376.349 356.83 372.299 358.081 370.798 365.114C370.798 365.114 378.518 394.449 388.552 397.361C398.585 400.273 419.68 388.882 419.68 388.882C419.68 388.882 425.786 373.645 420.173 362.51Z" fill="#1D2436"/>
<path opacity="0.2" d="M420.173 362.51C410.197 366.677 400.571 371.635 391.389 377.336L376.349 356.83C376.349 356.83 372.299 358.081 370.798 365.114C370.798 365.114 378.518 394.449 388.552 397.361C398.585 400.273 419.68 388.882 419.68 388.882C419.68 388.882 425.786 373.645 420.173 362.51Z" fill="white"/>
<path d="M429.682 361.218C429.682 361.218 432.961 384.637 443.355 385.58C453.748 386.523 458.404 369.175 456.647 367.124C454.889 365.073 441.494 361.064 429.682 361.218Z" fill="#1D2436"/>
<path opacity="0.3" d="M429.682 361.218C429.682 361.218 432.961 384.637 443.355 385.58C453.748 386.523 458.404 369.175 456.647 367.124C454.889 365.073 441.494 361.064 429.682 361.218Z" fill="white"/>
<path d="M300.296 417.988L251.179 418.21L251.316 448.427L300.433 448.205L300.296 417.988Z" fill="#407BFF"/>
<path d="M270.022 440.83C269.804 440.831 269.592 440.762 269.415 440.635L260.461 434.104C260.332 434.009 260.226 433.886 260.153 433.743C260.08 433.601 260.041 433.443 260.04 433.283C260.038 433.123 260.075 432.963 260.146 432.819C260.217 432.675 260.322 432.549 260.451 432.453L269.353 425.839C269.573 425.678 269.848 425.609 270.118 425.65C270.388 425.69 270.63 425.836 270.793 426.055C270.955 426.274 271.023 426.548 270.983 426.817C270.942 427.086 270.796 427.328 270.577 427.49L262.795 433.273L270.628 438.974C270.804 439.101 270.936 439.281 271.003 439.487C271.07 439.694 271.07 439.916 271.003 440.122C270.935 440.329 270.804 440.508 270.628 440.635C270.451 440.763 270.239 440.831 270.022 440.83Z" fill="#FAFAFA"/>
<path d="M281.658 440.768C281.497 440.77 281.337 440.734 281.193 440.662C281.048 440.591 280.922 440.487 280.825 440.358C280.745 440.25 280.687 440.127 280.654 439.996C280.621 439.865 280.615 439.729 280.635 439.596C280.655 439.463 280.701 439.334 280.771 439.219C280.841 439.103 280.932 439.003 281.041 438.923L288.823 433.14L280.99 427.439C280.77 427.277 280.624 427.035 280.584 426.766C280.543 426.497 280.612 426.222 280.774 426.003C280.936 425.785 281.179 425.639 281.449 425.599C281.719 425.558 281.994 425.626 282.213 425.788L291.167 432.309C291.298 432.405 291.404 432.53 291.478 432.674C291.551 432.818 291.589 432.978 291.589 433.14C291.589 433.299 291.551 433.456 291.48 433.598C291.409 433.741 291.305 433.865 291.177 433.96L282.275 440.574C282.096 440.703 281.879 440.771 281.658 440.768Z" fill="#FAFAFA"/>
<path d="M273.497 440.82C273.382 440.818 273.267 440.798 273.158 440.758C272.902 440.668 272.693 440.48 272.576 440.236C272.458 439.992 272.442 439.712 272.531 439.456L277.147 426.291C277.191 426.163 277.261 426.046 277.351 425.946C277.44 425.845 277.549 425.763 277.671 425.705C277.793 425.646 277.925 425.612 278.06 425.604C278.195 425.597 278.33 425.616 278.457 425.66C278.585 425.705 278.703 425.774 278.803 425.863C278.904 425.953 278.986 426.062 279.045 426.183C279.104 426.305 279.138 426.436 279.146 426.571C279.153 426.705 279.134 426.84 279.09 426.967L274.474 440.133C274.403 440.335 274.271 440.509 274.096 440.632C273.921 440.756 273.712 440.821 273.497 440.82Z" fill="#FAFAFA"/>
<defs>
<filter id="filter0_d" x="57.5968" y="337.006" width="75.5602" height="89.0967" filterUnits="userSpaceOnUse" color-interpolation-filters="sRGB">
<feFlood flood-opacity="0" result="BackgroundImageFix"/>
<feColorMatrix in="SourceAlpha" type="matrix" values="0 0 0 0 0 0 0 0 0 0 0 0 0 0 0 0 0 0 127 0"/>
<feOffset dy="4"/>
<feGaussianBlur stdDeviation="2"/>
<feColorMatrix type="matrix" values="0 0 0 0 0 0 0 0 0 0 0 0 0 0 0 0 0 0 0.25 0"/>
<feBlend mode="normal" in2="BackgroundImageFix" result="effect1_dropShadow"/>
<feBlend mode="normal" in="SourceGraphic" in2="effect1_dropShadow" result="shape"/>
</filter>
</defs>
</svg>
