<svg width="25" height="21" viewBox="0 0 25 21" fill="none" xmlns="http://www.w3.org/2000/svg">
<path d="M24.1683 3.7277C23.6692 3.20489 22.98 2.89595 22.1958 2.89595H18.251V2.84842C18.251 2.25432 18.0133 1.68397 17.6093 1.30374C17.2053 0.899752 16.6587 0.662109 16.0646 0.662109H8.93536C8.31749 0.662109 7.77091 0.899752 7.36692 1.30374C6.96293 1.70774 6.72529 2.25432 6.72529 2.84842V2.89595H2.80418C2.01996 2.89595 1.3308 3.20489 0.831749 3.7277C0.3327 4.22675 0 4.93968 0 5.70013V17.5347C0 18.319 0.308935 19.0081 0.831749 19.5072C1.3308 20.0062 2.04373 20.3389 2.80418 20.3389H22.1958C22.98 20.3389 23.6692 20.03 24.1683 19.5072C24.6673 19.0081 25 18.2952 25 17.5347V5.70013C25 4.91591 24.6911 4.22675 24.1683 3.7277ZM23.7643 17.5347H23.7405C23.7405 17.9625 23.5741 18.3427 23.289 18.6279C23.0038 18.9131 22.6236 19.0794 22.1958 19.0794H2.80418C2.37643 19.0794 1.9962 18.9131 1.71103 18.6279C1.42586 18.3427 1.25951 17.9625 1.25951 17.5347V5.70013C1.25951 5.27238 1.42586 4.89215 1.71103 4.60698C1.9962 4.32181 2.37643 4.15546 2.80418 4.15546H7.39068C7.74715 4.15546 8.03232 3.87029 8.03232 3.51382V2.82466C8.03232 2.56325 8.12738 2.32561 8.29373 2.15926C8.46008 1.99291 8.69772 1.89785 8.95913 1.89785H16.0646C16.326 1.89785 16.5637 1.99291 16.73 2.15926C16.8964 2.32561 16.9914 2.56325 16.9914 2.82466V3.51382C16.9914 3.87029 17.2766 4.15546 17.6331 4.15546H22.2196C22.6473 4.15546 23.0276 4.32181 23.3127 4.60698C23.5979 4.89215 23.7643 5.27238 23.7643 5.70013V17.5347Z" fill="white"/>
<path d="M12.5001 5.77148C10.8841 5.77148 9.41071 6.43688 8.36508 7.48251C7.29569 8.5519 6.65405 10.0015 6.65405 11.6175C6.65405 13.2335 7.31945 14.7069 8.36508 15.7525C9.43447 16.8219 10.8841 17.4635 12.5001 17.4635C14.116 17.4635 15.5894 16.7981 16.635 15.7525C17.7044 14.6831 18.3461 13.2335 18.3461 11.6175C18.3461 10.0015 17.6807 8.52814 16.635 7.48251C15.5894 6.43688 14.116 5.77148 12.5001 5.77148ZM15.732 14.8732C14.9003 15.6812 13.7596 16.204 12.5001 16.204C11.2406 16.204 10.0999 15.6812 9.26812 14.8732C8.43637 14.0415 7.93732 12.9008 7.93732 11.6413C7.93732 10.3818 8.46014 9.24107 9.26812 8.40932C10.0999 7.57757 11.2406 7.07852 12.5001 7.07852C13.7596 7.07852 14.9003 7.60133 15.732 8.40932C16.5638 9.24107 17.0628 10.3818 17.0628 11.6413C17.0866 12.9008 16.5638 14.0415 15.732 14.8732Z" fill="white"/>
<path d="M20.9601 8.07695C21.6032 8.07695 22.1245 7.5556 22.1245 6.9125C22.1245 6.26939 21.6032 5.74805 20.9601 5.74805C20.317 5.74805 19.7957 6.26939 19.7957 6.9125C19.7957 7.5556 20.317 8.07695 20.9601 8.07695Z" fill="white"/>
</svg>
