<svg width="34" height="40" viewBox="0 0 34 40" fill="none" xmlns="http://www.w3.org/2000/svg">
<path d="M33.3394 14.9716C32.3963 14.0628 31.4532 13.154 30.5572 12.293L20.7959 2.86996C20.0414 2.15247 19.2869 1.38715 18.5325 0.669658C18.2024 0.334829 17.778 0.143498 17.3064 0.0478327C17.2121 0.0478327 17.1178 0 16.9763 0H16.882C16.8348 0 16.7405 0.0478327 16.6934 0.0478327C16.1275 0.0956655 15.6559 0.382662 15.2315 0.765324C14.0055 1.96114 12.8266 3.10913 11.6005 4.30495C10.7989 5.07027 10.0444 5.83559 9.24275 6.60092C9.19559 6.64875 9.14844 6.64875 9.14844 6.74442H9.33706C11.8363 6.74442 14.3356 6.74442 16.8348 6.74442C17.2592 6.74442 17.7308 6.74442 18.1552 6.79225C18.7682 6.84008 19.3813 6.88792 19.9943 6.98358C21.2203 7.17491 22.3992 7.50974 23.4838 8.13157C24.2383 8.56206 24.8985 9.08822 25.4172 9.80571C25.9831 10.571 26.3132 11.4799 26.4075 12.4365C26.4075 12.5322 26.4546 12.58 26.5489 12.6278C26.6433 12.6757 26.7847 12.7235 26.879 12.7713C27.9636 13.2497 28.8596 13.9672 29.6141 14.9238C30.2743 15.7848 30.6515 16.7893 30.8401 17.8416C30.9816 18.4634 31.0288 19.0853 31.0759 19.7071C31.1231 20.2332 31.0759 20.7594 31.0288 21.2856C31.0288 21.4769 30.9816 21.6682 30.9816 21.8596C31.1231 21.6682 30.9344 22.0031 31.7832 20.3289C32.1605 19.6114 32.6321 19.0374 33.1979 18.5113C33.6223 18.1286 33.9053 17.6503 33.9524 17.1241C33.9524 17.0763 33.9524 17.0763 33.9996 17.0285V16.4545C33.9996 16.3588 33.9524 16.311 33.9524 16.2153C33.9053 15.6413 33.6695 15.2586 33.3394 14.9716Z" fill="#FF7F00"/>
<path d="M7.12053 8.70565C7.12053 8.70565 7.12053 8.65781 7.12053 8.70565C7.07338 8.75348 7.02622 8.75348 6.97906 8.80131L3.2066 12.4366C2.35779 13.2498 1.55614 14.0629 0.707338 14.8761C0.235779 15.3066 0 15.8327 0 16.4546C0 16.9807 0.141468 17.4112 0.471558 17.8417C0.848805 18.3679 1.22605 18.8462 1.6033 19.3723C3.39522 21.764 5.18714 24.1556 6.97906 26.5473C7.02622 26.5951 7.02622 26.6429 7.07338 26.6908V26.6429C7.12053 20.6638 7.12053 14.6847 7.12053 8.70565Z" fill="#FF7F00"/>
<path d="M21.456 33.4829C20.2299 33.8177 18.9567 33.9612 17.6835 33.9612C15.9859 33.9612 14.3355 33.9612 12.6378 33.9612H12.4492C12.6378 34.2004 12.3549 33.9134 13.8639 35.444C14.6184 36.2093 15.1843 37.166 15.6558 38.1705C16.4103 39.7968 18.5795 39.8924 19.5698 38.5053C20.843 36.592 22.1162 34.7265 23.4365 32.8132C23.4365 32.7654 23.4837 32.7654 23.4837 32.6697C23.4365 32.7175 23.3894 32.7175 23.3422 32.7175C22.7292 33.0524 22.1162 33.2915 21.456 33.4829Z" fill="#FF7F00"/>
<path d="M13.2988 29.1779H13.4403C13.4403 29.1779 15.4208 29.2736 16.364 29.2736C16.6469 29.2736 16.977 29.2736 17.2599 29.2257C17.7315 29.1779 18.2502 29.0822 18.7218 28.9387C18.7689 28.9387 18.7689 28.8909 18.8161 28.8909V28.6996H15.1851V24.8729C15.1851 24.8729 15.1851 23.8206 15.1851 23.3901C15.1851 22.9596 15.1851 22.4813 15.1851 22.0508H13.2988V29.1779Z" fill="#FF7F00"/>
<path d="M25.4633 16.5023C25.4162 16.4545 25.4162 16.4067 25.369 16.3588C25.3219 16.4067 25.3219 16.4067 25.2747 16.4545C24.5202 17.459 23.5771 18.1765 22.4454 18.7026C22.0681 18.894 21.6437 19.0375 21.2193 19.181C21.1722 19.181 21.125 19.181 21.125 19.2766C21.1722 19.2766 21.2193 19.2766 21.2665 19.3245C21.8795 19.4201 22.4925 19.5636 23.0584 19.755C24.3788 20.2333 25.5105 20.9986 26.3121 22.1466C26.3121 22.1466 26.3593 22.1944 26.3593 22.2423C26.4065 22.1466 26.4065 22.0988 26.4065 22.0509C26.6894 20.9986 26.7366 19.8985 26.5008 18.8461C26.4065 17.9373 26.0764 17.1242 25.4633 16.5023Z" fill="#FF7F00"/>
<path d="M18.6272 11.4799C18.58 11.4799 18.58 11.432 18.6272 11.4799C18.5328 11.432 18.4857 11.432 18.4857 11.3842C17.7784 11.145 17.071 11.0494 16.3165 11.0494C15.3734 11.0494 14.3831 11.0494 13.44 11.0494C13.3929 11.0494 13.3929 11.0494 13.3457 11.0494V11.0972C13.3457 13.2497 13.3457 15.45 13.3457 17.6024V17.6503H15.2319V13.9193C15.2319 13.4888 15.2319 13.1062 15.2319 12.6757C15.2319 12.2452 15.2319 11.8625 15.2319 11.432L18.6272 11.4799Z" fill="#FF7F00"/>
<path d="M18.957 25.8297H20.9376C20.9376 25.16 20.8433 24.5382 20.466 23.9642C20.0888 23.3902 19.5701 23.0076 18.957 22.7206V25.8297Z" fill="#FF7F00"/>
<path d="M19.0503 14.8281C19.0031 15.1151 19.0503 16.4544 19.0503 16.55C19.5218 16.0717 19.8047 15.4977 19.8991 14.8281H19.0503Z" fill="#FF7F00"/>
</svg>
