<svg width="577" height="944" viewBox="0 0 577 944" fill="none" xmlns="http://www.w3.org/2000/svg">
<rect x="-374.293" y="523.111" width="593.677" height="593.677" rx="85.5" transform="rotate(-45 -374.293 523.111)" stroke="#A6C5FF"/>
<rect x="-374.293" y="471.993" width="593.677" height="593.677" rx="85.5" transform="rotate(-45 -374.293 471.993)" stroke="#A6C5FF"/>
<rect x="-374.293" y="420.5" width="593.677" height="593.677" rx="85.5" transform="rotate(-45 -374.293 420.5)" stroke="#A6C5FF"/>
<path d="M268.176 384.302H292.141V374.164H268.176V384.302Z" fill="#D1E6FF"/>
<path d="M495.652 361.699L437.04 361.318L437.529 286L481.053 286.281L496.149 286.38L496.059 300.73L495.652 361.699Z" fill="#D1E6FF"/>
<path d="M443.146 300.633L490.896 300.942L490.909 299.003L443.159 298.694L443.146 300.633Z" fill="#407BFF"/>
<path d="M443.126 305.458L490.876 305.775L490.889 303.836L443.139 303.519L443.126 305.458Z" fill="#407BFF"/>
<path d="M443.083 310.4L490.833 310.708L490.845 308.77L443.096 308.461L443.083 310.4Z" fill="#407BFF"/>
<path d="M443.06 315.274L490.809 315.582L490.822 313.653L443.072 313.344L443.06 315.274Z" fill="#407BFF"/>
<path d="M443.034 320.107L490.783 320.424L490.796 318.486L443.047 318.169L443.034 320.107Z" fill="#407BFF"/>
<path d="M443.28 323.856L491.031 324.334L491.05 322.395L443.3 321.917L443.28 323.856Z" fill="#407BFF"/>
<path d="M442.971 329.865L490.721 330.182L490.734 328.243L442.984 327.926L442.971 329.865Z" fill="#407BFF"/>
<path d="M442.94 334.748L490.69 335.065L490.703 333.126L442.953 332.809L442.94 334.748Z" fill="#407BFF"/>
<path d="M442.91 339.631L490.659 339.948L490.672 338.01L442.923 337.693L442.91 339.631Z" fill="#407BFF"/>
<path d="M442.86 344.573L490.61 344.882L490.622 342.952L442.872 342.643L442.86 344.573Z" fill="#407BFF"/>
<path d="M442.847 349.389L490.597 349.706L490.61 347.767L442.86 347.45L442.847 349.389Z" fill="#407BFF"/>
<path d="M442.816 354.272L490.566 354.589L490.579 352.659L442.829 352.342L442.816 354.272Z" fill="#407BFF"/>
<path d="M504.756 385.914L447.375 373.893L462.798 300.169L505.399 309.092L517.237 326.241L504.756 385.914Z" fill="#D1E6FF"/>
<path d="M505.399 309.092L517.237 326.241L502.466 323.143L505.399 309.092Z" fill="#407BFF"/>
<path d="M465.425 315.593L497.323 322.281L497.719 320.392L465.82 313.704L465.425 315.593Z" fill="#407BFF"/>
<path d="M464.428 320.367L496.326 327.055L496.722 325.166L464.823 318.478L464.428 320.367Z" fill="#407BFF"/>
<path d="M463.421 325.148L495.319 331.836L495.717 329.938L463.818 323.25L463.421 325.148Z" fill="#407BFF"/>
<path d="M462.426 329.919L509.163 339.718L509.56 337.82L462.823 328.022L462.426 329.919Z" fill="#407BFF"/>
<path d="M460.495 336.355L507.291 345.914L507.678 344.014L460.882 334.455L460.495 336.355Z" fill="#407BFF"/>
<path d="M460.432 339.483L507.168 349.282L507.565 347.384L460.829 337.586L460.432 339.483Z" fill="#407BFF"/>
<path d="M459.435 344.257L506.172 354.056L506.569 352.158L459.832 342.36L459.435 344.257Z" fill="#407BFF"/>
<path d="M457.425 350.658L504.22 360.217L504.606 358.326L457.81 348.767L457.425 350.658Z" fill="#407BFF"/>
<path d="M457.431 353.81L504.168 363.609L504.565 361.711L457.828 351.912L457.431 353.81Z" fill="#407BFF"/>
<path d="M456.433 358.593L503.17 368.392L503.567 366.494L456.83 356.695L456.433 358.593Z" fill="#407BFF"/>
<path d="M455.427 363.365L502.164 373.164L502.561 371.266L455.824 361.467L455.427 363.365Z" fill="#407BFF"/>
<path d="M454.438 368.148L501.175 377.946L501.57 376.058L454.833 366.259L454.438 368.148Z" fill="#407BFF"/>
<path d="M277.579 364.253L347.286 365.395L348.001 318.731L278.294 317.589L277.579 364.253Z" fill="#97C2F4"/>
<path d="M280.52 361.4L344.444 362.442L345.059 321.585L281.135 320.543L280.52 361.4Z" fill="white"/>
<path d="M286.738 333.371C286.715 334.749 287.101 336.102 287.847 337.261C288.592 338.419 289.665 339.33 290.928 339.879C292.191 340.427 293.588 340.588 294.943 340.342C296.297 340.095 297.549 339.452 298.538 338.493C299.527 337.535 300.21 336.304 300.5 334.957C300.791 333.61 300.675 332.206 300.169 330.925C299.663 329.643 298.788 328.541 297.655 327.757C296.523 326.973 295.183 326.544 293.807 326.522C291.962 326.493 290.182 327.198 288.856 328.482C287.531 329.766 286.769 331.524 286.738 333.371Z" fill="#407BFF"/>
<path d="M300.368 361.789L344.399 362.505L322.868 332.274L300.368 361.789Z" fill="#407BFF"/>
<path d="M283.108 361.517L319.455 362.106L301.598 342.366L283.108 361.517Z" fill="#D1E6FF"/>
<path d="M251.93 397.972L319.872 382.327L309.364 336.849L241.422 352.495L251.93 397.972Z" fill="#97C2F4"/>
<path d="M254.101 394.493L316.396 380.143L307.192 340.337L244.897 354.678L254.101 394.493Z" fill="white"/>
<path d="M253.386 365.793C253.696 367.136 254.396 368.357 255.399 369.301C256.401 370.246 257.661 370.871 259.019 371.099C260.377 371.326 261.772 371.146 263.027 370.58C264.282 370.014 265.341 369.088 266.071 367.919C266.8 366.75 267.167 365.391 267.125 364.014C267.082 362.637 266.633 361.303 265.833 360.181C265.033 359.059 263.919 358.2 262.632 357.712C261.344 357.225 259.941 357.13 258.599 357.441C257.708 357.645 256.866 358.023 256.121 358.553C255.376 359.084 254.744 359.757 254.259 360.533C253.775 361.309 253.448 362.173 253.299 363.076C253.149 363.979 253.179 364.902 253.386 365.793Z" fill="#407BFF"/>
<path d="M273.461 390.099L316.369 380.207L288.222 356.046L273.461 390.099Z" fill="#407BFF"/>
<path d="M256.636 393.986L292.069 385.823L269.994 370.948L256.636 393.986Z" fill="#97C2F4"/>
<path d="M185 510.786L234 510.559L282.999 510.487L380.999 510.333L478.998 510.478L527.997 510.559L576.997 510.786L527.997 511.003L478.998 511.085L380.999 511.23L282.999 511.085L234 511.003L185 510.786Z" fill="#000152"/>
<path d="M551.276 452.617C550.515 455.403 550.012 458.254 549.773 461.132C549.855 461.268 549.837 461.803 549.773 461.658C549.773 462.12 549.04 462.038 549.04 461.576V460.67C547.384 458.605 544.968 457.3 543.022 455.507C541.449 454.097 540.305 452.273 539.718 450.243C538.098 444.672 539.619 438.756 537.673 433.194C535.998 428.392 532.985 424.225 530.432 419.877C527.717 415.275 525.762 410.446 525.563 405.056C525.409 400.934 525.898 395.444 529.039 392.373C532.36 389.094 536.487 391.549 538.994 394.475C546.379 402.954 549.791 413.671 551.176 424.633C551.936 430.693 552.733 436.799 552.543 442.923C552.447 446.189 552.022 449.436 551.276 452.617Z" fill="#FF7F00"/>
<path d="M549.81 463.361C550.213 457.627 550.143 451.87 549.602 446.148C549.605 446.127 549.605 446.106 549.602 446.085C549.692 441.438 550.064 436.808 549.873 432.161C549.653 427.132 548.972 422.135 547.837 417.231C547.837 417.168 547.738 417.186 547.747 417.231C548.649 422.052 549.188 426.933 549.358 431.835C549.46 434.462 549.439 437.086 549.294 439.707C549.249 440.559 549.177 441.419 549.113 442.28C547.185 429.243 542.478 416.773 535.311 405.717C535.212 405.563 534.94 405.717 535.04 405.88C540.158 414.286 543.949 423.431 546.28 432.994C542.724 426.408 537.366 421 533.383 414.668C533.383 414.668 533.302 414.668 533.32 414.668C536.94 421.716 542.805 427.269 546.57 434.208C547.222 437.035 547.756 439.888 548.154 442.76C548.685 446.7 548.969 450.67 549.005 454.646C546.851 450.605 544.597 446.728 542.832 442.452C542.787 442.334 542.624 442.452 542.66 442.534C544.095 447.172 546.231 451.562 548.996 455.552C548.996 458.366 548.917 461.181 548.76 463.995C548.317 471.496 547.041 478.897 546.443 486.371C546.44 486.394 546.442 486.417 546.448 486.439C546.454 486.461 546.464 486.481 546.478 486.5C546.492 486.518 546.509 486.533 546.529 486.544C546.548 486.556 546.57 486.563 546.593 486.566C546.615 486.569 546.638 486.567 546.66 486.562C546.682 486.556 546.703 486.545 546.721 486.532C546.739 486.518 546.754 486.5 546.765 486.481C546.777 486.461 546.784 486.439 546.787 486.417C548.311 478.808 549.321 471.105 549.81 463.361Z" fill="#000152"/>
<path d="M541.845 405.5C541.845 405.445 541.746 405.5 541.764 405.5C543.13 409.286 543.909 413.128 544.895 417.014C544.907 417.046 544.929 417.072 544.958 417.089C544.987 417.106 545.021 417.112 545.054 417.107C545.087 417.102 545.117 417.085 545.14 417.06C545.162 417.034 545.175 417.002 545.176 416.969C544.631 413.003 543.509 409.139 541.845 405.5Z" fill="#000152"/>
<path d="M576.608 421.381C575.699 423.604 574.65 425.767 573.468 427.858C570.997 432.333 568.427 436.446 567.965 441.664C567.884 443.998 567.55 446.315 566.969 448.576C566.332 450.51 565.418 452.341 564.254 454.012C561.584 457.907 558.245 461.259 555.765 465.309C553.197 469.52 551.295 474.104 550.126 478.898C550.063 479.16 549.656 479.088 549.71 478.825C549.715 478.804 549.715 478.782 549.71 478.762V478.707C549.321 467.519 550.217 456.25 553.62 445.533C555.129 440.818 556.943 436.206 559.05 431.726C560.768 427.77 563.25 424.192 566.354 421.2C568.436 419.324 572.952 415.764 575.911 417.648C577.278 418.554 577.169 419.986 576.608 421.381Z" fill="#FF7F00"/>
<path d="M565.857 441.954C563.405 445.099 561.282 448.486 559.521 452.064C559.521 452.109 559.521 452.164 559.594 452.119C561.739 448.758 563.838 445.379 565.974 442.018C565.992 441.963 565.893 441.909 565.857 441.954Z" fill="#000152"/>
<path d="M518.278 431.989C519.726 434.489 521.382 437.488 520.758 440.486C520.359 442.38 518.947 443.92 518.721 445.858C518.16 450.134 522.414 452.952 525.5 454.972C533.175 460.009 543.701 464.502 545.094 474.803C545.149 475.165 545.773 475.074 545.728 474.712C545.732 474.691 545.732 474.67 545.728 474.649C545.728 474.649 545.773 474.649 545.773 474.585C546.775 469.389 546.726 464.044 545.628 458.868C544.351 453.654 542.242 448.68 539.384 444.137C534.768 436.247 529.871 428.166 522.893 422.123C520.957 420.456 516.993 417.449 515.454 421.217C513.915 424.986 516.504 428.945 518.278 431.989Z" fill="#FF7F00"/>
<path d="M525.301 448.712C530.388 454.22 538.479 457.318 542.859 463.488C540.416 454.088 535.792 445.398 529.365 438.122C529.193 437.932 529.465 437.66 529.646 437.841C534.331 442.394 538.076 447.823 540.669 453.822C539.464 449.635 537.877 445.568 535.927 441.673C535.918 441.644 535.919 441.613 535.929 441.584C535.94 441.556 535.96 441.532 535.986 441.516C536.012 441.5 536.043 441.494 536.073 441.498C536.103 441.502 536.132 441.516 536.153 441.537C538.564 445.794 540.29 450.404 541.266 455.199C547.041 469.186 547.602 485.592 546.362 500.332C546.362 500.54 546.027 500.549 546.036 500.332C546.362 488.709 546.181 476.895 543.393 465.544C543.339 465.309 543.276 465.073 543.212 464.838C538.479 458.197 530.397 455.108 525.211 448.767C525.166 448.767 525.247 448.649 525.301 448.712Z" fill="#000152"/>
<path d="M524.124 443.974C526.794 446.429 529.419 448.939 532.098 451.385C532.098 451.385 532.098 451.457 532.098 451.439C529.054 449.399 526.312 446.941 523.952 444.137C523.931 444.115 523.919 444.084 523.92 444.053C523.921 444.021 523.934 443.991 523.957 443.97C523.98 443.948 524.01 443.936 524.041 443.937C524.073 443.938 524.103 443.951 524.124 443.974Z" fill="#000152"/>
<path d="M523.699 433.366C526.062 437.242 528.734 440.92 531.69 444.364C531.69 444.418 531.69 444.482 531.627 444.436C528.308 441.28 525.574 437.56 523.554 433.447C523.543 433.428 523.54 433.405 523.546 433.384C523.552 433.363 523.566 433.345 523.586 433.334C523.605 433.323 523.628 433.321 523.649 433.327C523.67 433.333 523.688 433.347 523.699 433.366Z" fill="#000152"/>
<path d="M535.727 510.723H559.123L555.973 479.215H539.329L535.727 510.723Z" fill="#3C60A6"/>
<path d="M538.741 484.333H556.489L555.973 479.215H539.329L538.741 484.333Z" fill="#000152"/>
<path d="M536.46 480.755H558.389V475.727H536.46V480.755Z" fill="#3C60A6"/>
<path d="M516.358 401.296H245.629V510.786H516.358V401.296Z" fill="#000285"/>
<path d="M245.629 407.339H239.937V510.786H245.629V407.339Z" fill="#000152"/>
<path d="M522.06 407.339H516.367V510.786H522.06V407.339Z" fill="#000152"/>
<path opacity="0.1" d="M473.124 401.296H288.873V510.786H473.124V401.296Z" fill="black"/>
<path d="M277.505 496.871H256.997V503.258H277.505V496.871Z" fill="#407BFF"/>
<path d="M452.669 466.876H309.327V510.786H452.669V466.876Z" fill="#407BFF"/>
<path d="M447.393 472.466H314.595V510.786H447.393V472.466Z" fill="#37474F"/>
<path d="M447.393 472.466H314.595V488.827H447.393V472.466Z" fill="#000152"/>
<path opacity="0.4" d="M516.358 407.339H245.629V417.947H516.358V407.339Z" fill="#407BFF"/>
<path opacity="0.4" d="M516.358 422.74H245.629V426.046H516.358V422.74Z" fill="#407BFF"/>
<path d="M494.746 446.466C498.774 446.466 502.04 443.196 502.04 439.164C502.04 435.131 498.774 431.862 494.746 431.862C490.717 431.862 487.451 435.131 487.451 439.164C487.451 443.196 490.717 446.466 494.746 446.466Z" fill="#407BFF"/>
<path d="M451.801 339.25H310.196V401.297H451.801V339.25Z" fill="#3C60A6"/>
<path d="M442.306 312.335H319.699V401.296H442.306V312.335Z" fill="white"/>
<path d="M442.298 312.335L380.908 312.552L319.699 312.661L320.025 312.335L320.152 401.296L319.699 400.843L442.298 401.016L442.026 401.296L442.126 356.906L442.298 312.335ZM442.298 312.335L442.47 356.725L442.542 401.296V401.577H442.261L319.663 401.749H319.21V401.296L319.337 312.335V311.973H319.663L381.053 312.081L442.298 312.335Z" fill="#000152"/>
<path d="M502.836 451.095H486.654V453.423H502.836V451.095Z" fill="#407BFF"/>
<path d="M502.836 455.543H486.654V457.871H502.836V455.543Z" fill="#407BFF"/>
<path d="M493.786 558.917H268.21L309.327 510.786H452.669L493.786 558.917Z" fill="#383956"/>
<path d="M242.525 391.196C242.178 389.972 241.941 388.72 241.819 387.454C241.554 384.967 241.554 382.458 241.819 379.971C241.941 378.705 242.177 377.453 242.525 376.23C242.883 377.451 243.119 378.704 243.231 379.971C243.37 381.213 243.437 382.463 243.43 383.713C243.432 384.962 243.365 386.211 243.231 387.454C243.114 388.721 242.877 389.973 242.525 391.196Z" fill="#000152"/>
<path d="M254.292 396.16C254.904 395.046 255.622 393.993 256.437 393.016C258.003 391.065 259.775 389.288 261.722 387.717C262.698 386.905 263.75 386.189 264.863 385.579C264.246 386.691 263.528 387.743 262.718 388.722C261.148 390.668 259.376 392.442 257.432 394.013C256.451 394.821 255.4 395.539 254.292 396.16Z" fill="#000152"/>
<path d="M225.737 407.81C224.516 408.164 223.265 408.401 221.999 408.517C220.758 408.651 219.51 408.718 218.261 408.716C217.012 408.722 215.764 408.655 214.523 408.517C213.26 408.404 212.011 408.168 210.794 407.81C212.013 407.462 213.261 407.225 214.523 407.104C215.765 406.974 217.013 406.908 218.261 406.904C219.51 406.906 220.758 406.975 221.999 407.113C223.264 407.226 224.516 407.459 225.737 407.81Z" fill="#000152"/>
<path d="M230.696 396.024C229.586 395.407 228.534 394.688 227.556 393.877C225.618 392.299 223.846 390.526 222.27 388.586C221.46 387.607 220.742 386.555 220.125 385.443C221.238 386.053 222.29 386.769 223.266 387.581C225.213 389.152 226.985 390.929 228.551 392.88C229.365 393.857 230.084 394.91 230.696 396.024Z" fill="#000152"/>
<path d="M323.663 488.31L439.972 488.192C460.643 514.899 454.752 541.624 476.826 568.348H284.873C307.608 541.66 302.322 514.99 323.663 488.31Z" fill="white"/>
<path d="M323.664 488.31L439.827 488.02H440.108L440.235 488.192C461.051 514.899 455.222 541.642 477.523 568.33L477.767 568.602H477.043L284.692 568.511H284.194L284.366 568.33C296.222 554.977 299.888 541.624 303.951 528.27C308.441 514.953 313.301 501.636 323.664 488.31ZM323.664 488.31C313.427 501.672 308.766 515.026 304.476 528.37C300.539 541.696 296.983 555.013 285.362 568.33L285.036 568.149L476.591 568.058L476.111 568.33C454.308 541.624 460.191 514.899 439.691 488.192L440.099 488.365L323.664 488.31Z" fill="#000152"/>
<path d="M317.463 531.713L445.121 531.667C445.429 532.972 445.727 534.286 446.026 535.599H316.431C316.793 534.331 317.128 533.017 317.463 531.713Z" fill="white"/>
<path d="M316.45 535.635H446.045C446.352 536.949 446.669 538.253 446.995 539.567H315.4C315.762 538.253 316.106 536.949 316.45 535.635Z" fill="#FF7F00"/>
<path d="M318.468 527.781L444.208 527.736C444.515 529.04 444.814 530.354 445.113 531.668L317.5 531.713L318.468 527.781Z" fill="#407BFF"/>
<path d="M321.808 516.004L441.157 515.932C441.537 517.245 441.899 518.559 442.252 519.872L320.613 519.927C320.993 518.622 321.391 517.309 321.808 516.004Z" fill="white"/>
<path d="M323.075 512.072L439.917 512C440.342 513.314 440.741 514.627 441.13 515.932L321.78 516.004C322.215 514.691 322.649 513.386 323.075 512.072Z" fill="#407BFF"/>
<path d="M324.532 508.15L404.403 508.095C404.584 509.4 404.756 510.713 404.919 512.027L323.102 512.072C323.555 510.768 324.034 509.463 324.532 508.15Z" fill="#FF7F00"/>
<path d="M404.919 512.027H439.944C442.868 521.204 444.641 530.381 446.995 539.558H407.543C406.665 530.372 406.023 521.24 404.919 512.027Z" fill="#C7C7C7"/>
<path d="M445.121 531.667L381.288 531.74H317.463L381.297 531.667H445.121Z" fill="#000152"/>
<path d="M444.207 527.736L381.342 527.808H318.468L381.342 527.736H444.207Z" fill="#000152"/>
<path d="M443.257 523.804L381.387 523.876H319.509L381.387 523.795L443.257 523.804Z" fill="#000152"/>
<path d="M442.252 519.872L381.433 519.945H320.613L381.433 519.863L442.252 519.872Z" fill="#000152"/>
<path d="M441.158 515.932L381.478 516.022H321.808L381.478 515.941L441.158 515.932Z" fill="#000152"/>
<path d="M439.945 512L381.523 512.091H323.102L381.523 512.009L439.945 512Z" fill="#000152"/>
<path d="M439.519 537.547C435.365 537.628 431.193 537.637 427.029 537.646C422.866 537.656 418.685 537.646 414.504 537.556C418.658 537.474 422.83 537.465 426.993 537.456C431.157 537.447 435.302 537.483 439.519 537.547Z" fill="#000152"/>
<path d="M438.695 533.633C435.6 533.715 432.496 533.724 429.391 533.733C426.287 533.742 423.174 533.733 420.051 533.642C423.147 533.552 426.251 533.552 429.355 533.534C432.46 533.516 435.573 533.552 438.695 533.633Z" fill="#000152"/>
<path d="M437.881 529.702C433.854 529.783 429.808 529.792 425.762 529.801C421.717 529.81 417.662 529.801 413.608 529.711C417.644 529.629 421.69 529.62 425.726 529.611C429.763 529.602 433.817 529.62 437.881 529.702Z" fill="#000152"/>
<path d="M437.057 525.77C433.79 525.852 430.514 525.861 427.237 525.87C423.961 525.879 420.676 525.87 417.381 525.779C420.648 525.698 423.925 525.688 427.201 525.67C430.477 525.652 433.763 525.688 437.057 525.77Z" fill="#000152"/>
<path d="M436.207 521.838C432.306 521.92 428.387 521.929 424.441 521.938C420.495 521.947 416.595 521.938 412.676 521.847C416.585 521.766 420.495 521.757 424.441 521.748C428.387 521.739 432.261 521.757 436.207 521.838Z" fill="#000152"/>
<path d="M435.302 517.906C431.473 517.988 427.627 517.997 423.78 518.006C419.934 518.015 416.078 518.006 412.223 517.915C416.051 517.834 419.898 517.825 423.744 517.816C427.591 517.807 431.392 517.825 435.302 517.906Z" fill="#000152"/>
<path d="M434.243 513.993C431.971 514.065 429.717 514.093 427.391 514.093C425.065 514.093 422.803 514.093 420.495 514.002C422.776 513.921 425.02 513.902 427.346 513.893C429.672 513.884 431.926 513.893 434.243 513.993Z" fill="#000152"/>
<path d="M398.194 537.547C395.062 537.637 391.931 537.637 388.8 537.656C385.668 537.674 382.527 537.656 379.396 537.556C382.527 537.474 385.659 537.465 388.79 537.456C391.922 537.447 395.072 537.492 398.194 537.547Z" fill="#000152"/>
<path d="M398.004 533.651C394.918 533.733 391.832 533.733 388.746 533.751C385.659 533.769 382.573 533.751 379.487 533.651C382.573 533.57 385.659 533.561 388.746 533.552C391.832 533.543 394.918 533.57 398.004 533.651Z" fill="#000152"/>
<path d="M397.805 529.72C394.764 529.801 391.723 529.81 388.682 529.819C385.641 529.828 382.6 529.819 379.559 529.72C382.6 529.638 385.641 529.629 388.682 529.62C391.723 529.611 394.755 529.638 397.805 529.72Z" fill="#000152"/>
<path d="M397.597 525.77C394.601 525.851 391.614 525.86 388.619 525.87C385.623 525.879 382.627 525.87 379.631 525.779C382.627 525.688 385.623 525.688 388.61 525.67C391.596 525.652 394.574 525.706 397.597 525.77Z" fill="#000152"/>
<path d="M397.371 521.856C394.439 521.938 391.488 521.947 388.547 521.956C385.605 521.965 382.655 521.956 379.713 521.865C382.655 521.784 385.596 521.775 388.538 521.757C391.479 521.739 394.43 521.775 397.371 521.856Z" fill="#000152"/>
<path d="M397.135 517.925C394.248 518.006 391.352 518.015 388.465 518.024C385.578 518.034 382.682 518.024 379.786 517.934C382.682 517.852 385.569 517.843 388.456 517.834C391.343 517.825 394.239 517.843 397.135 517.925Z" fill="#000152"/>
<path d="M396.873 513.993C394.04 514.074 391.207 514.083 388.374 514.102C385.541 514.12 382.7 514.102 379.867 514.002C382.7 513.92 385.532 513.911 388.365 513.902C391.198 513.893 394.031 513.911 396.873 513.993Z" fill="#000152"/>
<path d="M371.043 537.547C367.911 537.628 364.771 537.637 361.639 537.655C358.508 537.674 355.367 537.655 352.245 537.556C355.385 537.474 358.526 537.465 361.657 537.456C364.789 537.447 367.92 537.547 371.043 537.547Z" fill="#000152"/>
<path d="M366.517 513.993C365.612 514.075 364.707 514.093 363.802 514.093C362.897 514.093 361.992 514.093 361.087 513.993C361.992 513.92 362.897 513.902 363.802 513.893C364.707 513.884 365.612 513.939 366.517 513.993Z" fill="#000152"/>
<path d="M366.156 517.943C365.251 518.015 364.345 518.033 363.377 518.042C362.409 518.051 361.567 518.042 360.617 517.943C361.522 517.861 362.472 517.843 363.395 517.843C364.318 517.843 365.241 517.861 366.156 517.943Z" fill="#000152"/>
<path d="M365.83 521.875C364.925 521.947 363.947 521.965 363.006 521.974C362.065 521.983 361.124 521.974 360.191 521.875C361.142 521.793 362.083 521.775 363.024 521.775C363.966 521.775 364.898 521.793 365.83 521.875Z" fill="#000152"/>
<path d="M365.531 525.77C364.563 525.851 363.603 525.87 362.653 525.87C361.703 525.87 360.743 525.87 359.793 525.779C360.752 525.697 361.712 525.679 362.671 525.67C363.63 525.661 364.581 525.77 365.531 525.77Z" fill="#000152"/>
<path d="M365.232 529.729C364.255 529.81 363.286 529.828 362.309 529.828C361.331 529.828 360.372 529.828 359.412 529.729C360.39 529.656 361.358 529.638 362.327 529.629C363.295 529.62 364.273 529.647 365.232 529.729Z" fill="#000152"/>
<path d="M364.943 533.66C363.956 533.733 362.961 533.751 361.974 533.76C360.988 533.769 360.01 533.76 359.033 533.66C360.019 533.579 361.006 533.561 361.992 533.561C362.979 533.561 363.965 533.579 364.943 533.66Z" fill="#000152"/>
<path d="M365.314 510.079C363.739 510.161 362.173 510.179 360.607 510.188C359.042 510.197 357.476 510.188 355.919 510.088C357.503 510.007 359.069 509.989 360.634 509.989C362.2 509.989 363.802 510.007 365.314 510.079Z" fill="#000152"/>
<path d="M343.891 537.592C340.742 537.674 337.61 537.683 334.469 537.692C331.329 537.701 328.207 537.692 325.093 537.601C328.243 537.511 331.374 537.511 334.506 537.493C337.637 537.474 340.76 537.547 343.891 537.592Z" fill="#000152"/>
<path d="M344.488 533.66C341.384 533.751 338.298 533.751 335.212 533.769C332.125 533.787 329.039 533.769 325.971 533.669C329.075 533.588 332.162 533.579 335.248 533.57C338.334 533.561 341.411 533.588 344.488 533.66Z" fill="#000152"/>
<path d="M345.086 529.738C342.027 529.819 338.986 529.828 335.945 529.837C332.904 529.846 329.863 529.837 326.84 529.747C329.899 529.656 332.94 529.656 335.981 529.638C339.022 529.62 342.081 529.656 345.086 529.738Z" fill="#000152"/>
<path d="M345.702 525.77C342.697 525.851 339.701 525.86 336.705 525.879C333.71 525.897 330.723 525.879 327.745 525.779C330.759 525.697 333.746 525.688 336.741 525.679C339.737 525.67 342.706 525.77 345.702 525.77Z" fill="#000152"/>
<path d="M346.317 521.884C343.357 521.965 340.407 521.974 337.465 521.983C334.524 521.992 331.573 521.983 328.65 521.884C331.609 521.802 334.56 521.793 337.501 521.784C340.443 521.775 343.384 521.802 346.317 521.884Z" fill="#000152"/>
<path d="M346.986 517.952C344.081 518.033 341.185 518.042 338.289 518.052C335.392 518.061 332.514 518.052 329.636 517.961C332.551 517.879 335.447 517.87 338.334 517.852C341.221 517.834 344.117 517.87 346.986 517.952Z" fill="#000152"/>
<path d="M347.72 513.993C344.869 514.083 342.036 514.083 339.194 514.102C336.352 514.12 333.528 514.102 330.714 514.002C333.574 513.92 336.407 513.911 339.239 513.902C342.072 513.893 344.905 513.939 347.72 513.993Z" fill="#000152"/>
<path d="M348.516 510.098C345.729 510.179 342.959 510.188 340.181 510.197C337.402 510.206 334.642 510.197 331.89 510.107C334.687 510.025 337.456 510.016 340.235 509.998C343.013 509.98 345.765 510.016 348.516 510.098Z" fill="#000152"/>
<path d="M437.474 505.033C435.519 505.097 433.546 505.124 431.582 505.151C429.618 505.178 427.627 505.151 425.645 505.151C423.663 505.151 421.681 505.151 419.69 505.151C417.699 505.151 415.717 505.106 413.725 505.042C415.689 504.979 417.662 504.952 419.635 504.925C421.608 504.897 423.581 504.925 425.554 504.925C427.527 504.925 429.51 504.925 431.501 504.925C433.492 504.925 435.474 504.934 437.474 505.033Z" fill="#000152"/>
<path d="M436.813 503.357C434.577 503.421 432.287 503.457 430.07 503.475C427.853 503.493 425.545 503.475 423.291 503.521C421.038 503.566 418.766 503.521 416.494 503.521C414.222 503.521 411.969 503.521 409.688 503.412C411.933 503.348 414.213 503.321 416.44 503.294C418.666 503.267 420.965 503.294 423.201 503.294H429.989C432.251 503.276 434.523 503.303 436.813 503.357Z" fill="#000152"/>
<path d="M433.844 496.681C430.514 496.747 427.174 496.787 423.825 496.799L413.752 496.844L403.625 496.781C400.258 496.781 396.9 496.735 393.533 496.681C396.882 496.618 400.231 496.581 403.579 496.554L413.625 496.509H423.699C427.093 496.599 430.46 496.618 433.844 496.681Z" fill="#000152"/>
<path d="M436.116 501.681C434.777 501.745 433.401 501.772 432.08 501.799C430.758 501.826 429.365 501.799 427.998 501.799C426.631 501.799 425.283 501.799 423.907 501.799C422.532 501.799 421.192 501.745 419.78 501.691C421.129 501.627 422.495 501.591 423.826 501.573C425.156 501.555 426.541 501.573 427.899 501.527C429.256 501.482 430.614 501.527 431.989 501.527C433.365 501.527 434.732 501.627 436.116 501.681Z" fill="#000152"/>
<path d="M368.029 500.087C364.68 500.15 361.331 500.178 357.983 500.205L347.946 500.25H337.918C334.587 500.25 331.256 500.205 327.962 500.141C331.329 500.078 334.677 500.051 338.026 500.024L348.054 499.978H358.01C361.367 499.996 364.707 500.024 368.029 500.087Z" fill="#000152"/>
<path d="M367.821 501.736C365.069 501.802 362.312 501.842 359.549 501.854C356.833 501.854 354.037 501.854 351.285 501.854H343.031C340.316 501.854 337.547 501.799 334.813 501.745C337.589 501.679 340.352 501.639 343.104 501.627C345.864 501.627 348.607 501.627 351.358 501.582C354.109 501.537 356.852 501.582 359.594 501.582C362.336 501.582 365.079 501.682 367.821 501.736Z" fill="#000152"/>
<path d="M368.246 498.411C365.73 498.475 363.205 498.502 360.689 498.529C358.173 498.556 355.648 498.529 353.132 498.574C350.616 498.62 348.1 498.574 345.593 498.574C343.086 498.574 340.578 498.52 338.09 498.466C340.624 498.402 343.149 498.366 345.665 498.339C348.181 498.312 350.697 498.339 353.213 498.339H360.734C363.241 498.321 365.748 498.348 368.246 498.411Z" fill="#000152"/>
<path d="M368.472 496.78C366.662 496.844 364.915 496.871 363.132 496.898C361.349 496.925 359.575 496.898 357.792 496.943C356.009 496.989 354.245 496.943 352.48 496.943C350.715 496.943 348.941 496.943 347.185 496.835C348.995 496.771 350.805 496.744 352.543 496.717C354.281 496.69 356.091 496.717 357.865 496.717C359.639 496.717 361.404 496.717 363.177 496.717C364.951 496.717 366.707 496.681 368.472 496.78Z" fill="#000152"/>
<path d="M433.419 498.058C432.586 498.384 431.708 498.692 430.794 498.964C429.808 499.286 428.797 499.525 427.771 499.68H427.337C427.155 499.707 426.968 499.679 426.803 499.598C426.625 499.504 426.489 499.345 426.423 499.154C426.319 498.864 426.269 498.557 426.278 498.248C426.273 497.684 426.318 497.12 426.414 496.563C426.598 495.444 426.901 494.347 427.319 493.293C427.423 493.012 427.569 492.75 427.753 492.514C427.814 492.44 427.887 492.379 427.97 492.333C428.046 492.286 428.135 492.264 428.224 492.269C428.299 492.255 428.375 492.255 428.45 492.269L428.577 492.323C428.778 492.425 428.942 492.586 429.047 492.786C429.301 493.321 429.381 493.923 429.274 494.507C429.188 495.077 428.992 495.625 428.694 496.119C428.348 496.783 427.813 497.328 427.156 497.687C426.687 497.907 426.18 498.036 425.663 498.067C425.362 498.1 425.058 498.1 424.757 498.067C424.479 498.012 424.214 497.901 423.979 497.741C423.78 497.61 423.571 497.495 423.355 497.397C423.117 497.289 422.854 497.248 422.594 497.279C422.135 497.366 421.688 497.509 421.264 497.705C421.056 497.795 420.857 497.886 420.639 497.967L420.287 498.085C420.127 498.13 419.958 498.13 419.798 498.085C419.517 497.94 419.526 497.795 419.372 497.668C419.279 497.594 419.171 497.539 419.057 497.506C418.942 497.474 418.821 497.464 418.703 497.478C418.3 497.605 417.919 497.791 417.571 498.031C417.236 498.239 416.911 498.457 416.585 498.674C415.933 499.109 415.282 499.58 414.594 499.988C414.241 500.196 413.888 500.413 413.499 500.613C413.292 500.72 413.081 500.817 412.865 500.903L412.485 501.02C412.398 501.026 412.31 501.026 412.222 501.02C412.119 501.019 412.017 500.994 411.924 500.948C411.846 500.9 411.783 500.831 411.741 500.75C411.7 500.668 411.682 500.577 411.689 500.486C411.671 500.341 411.671 500.195 411.689 500.051C411.756 499.765 411.85 499.486 411.969 499.218C412.21 498.63 412.55 498.087 412.974 497.614C413.108 497.474 413.26 497.352 413.426 497.252C413.58 497.174 413.752 497.139 413.924 497.152C414.088 497.164 414.251 497.185 414.413 497.215C414.942 497.3 415.432 497.547 415.816 497.922C415.848 497.96 415.866 498.008 415.866 498.058C415.866 498.108 415.848 498.156 415.816 498.194C415.761 498.248 415.692 498.286 415.616 498.303C415.517 498.316 415.417 498.316 415.318 498.303C415.014 498.288 414.712 498.255 414.413 498.203C413.815 498.103 413.236 497.986 412.657 497.868L410.937 497.533C410.657 497.478 410.367 497.433 410.087 497.397C409.955 497.374 409.822 497.359 409.688 497.351C409.583 497.337 409.477 497.337 409.372 497.351C408.997 497.5 408.644 497.698 408.322 497.94C408.057 498.083 407.762 498.161 407.462 498.167C407.333 498.173 407.204 498.154 407.082 498.112C406.946 498.049 406.928 497.976 406.919 497.931C406.904 497.853 406.904 497.773 406.919 497.696C406.973 497.569 406.973 497.406 406.919 497.397C406.697 497.366 406.471 497.366 406.249 497.397C405.763 497.471 405.286 497.598 404.828 497.777C404.611 497.859 404.385 497.949 404.122 498.031C403.809 498.129 403.481 498.166 403.154 498.139C402.59 498.05 402.043 497.873 401.534 497.614C401.314 497.508 401.087 497.417 400.855 497.342C400.746 497.342 400.647 497.297 400.629 497.342C400.518 497.368 400.409 497.402 400.303 497.442C399.868 497.605 399.452 497.795 399.045 497.985C398.292 498.342 397.577 498.773 396.909 499.272C396.628 499.507 396.366 499.77 396.411 500.015C396.456 500.259 397.009 500.395 397.597 500.441C398.78 500.54 399.97 500.54 401.154 500.441C401.719 500.392 402.28 500.313 402.837 500.205C403.086 500.157 403.331 500.09 403.57 500.006C403.778 499.924 403.959 499.815 403.878 499.716C403.694 499.58 403.48 499.493 403.253 499.462C402.991 499.399 402.692 499.362 402.403 499.308C401.823 499.218 401.244 499.127 400.647 499.064C398.285 498.801 395.877 498.801 393.488 498.746C395.868 498.746 398.285 498.746 400.683 498.991C401.28 499.045 401.878 499.127 402.493 499.218L403.398 499.381C403.678 499.417 403.943 499.526 404.168 499.698C404.303 499.897 404.023 500.042 403.805 500.123C403.55 500.22 403.287 500.293 403.018 500.341C402.447 500.46 401.87 500.544 401.289 500.595C400.066 500.722 398.833 500.74 397.606 500.649C397.301 500.625 396.998 500.576 396.701 500.504C396.393 500.413 396.158 500.241 396.131 500.078C396.076 499.743 396.375 499.471 396.656 499.218C397.331 498.694 398.062 498.247 398.837 497.886C399.244 497.687 399.66 497.496 400.122 497.324C400.252 497.273 400.385 497.23 400.52 497.197C400.726 497.163 400.937 497.178 401.136 497.243C401.395 497.323 401.649 497.42 401.896 497.533C402.335 497.759 402.804 497.921 403.29 498.013C403.72 497.982 404.14 497.871 404.53 497.687C405.026 497.483 405.546 497.343 406.077 497.27C406.423 497.193 406.781 497.193 407.127 497.27C407.362 497.351 407.399 497.478 407.399 497.56C407.393 497.637 407.378 497.713 407.353 497.786C407.341 497.849 407.341 497.914 407.353 497.976C407.353 497.976 407.353 497.976 407.408 497.976C407.617 497.971 407.822 497.915 408.005 497.813C408.36 497.551 408.75 497.341 409.163 497.188C409.332 497.149 409.506 497.133 409.679 497.143C409.84 497.148 410 497.163 410.159 497.188L411.064 497.342L412.784 497.687L414.503 498.013C414.778 498.063 415.056 498.094 415.336 498.103C415.535 498.103 415.616 498.031 415.526 497.913C415.211 497.6 414.806 497.394 414.367 497.324C414.239 497.297 414.109 497.279 413.978 497.27C413.894 497.268 413.81 497.287 413.734 497.324C413.581 497.413 413.441 497.523 413.318 497.65C412.89 498.109 412.541 498.636 412.286 499.208C412.165 499.474 412.068 499.75 411.996 500.033C411.964 500.169 411.949 500.309 411.951 500.45C411.942 500.522 411.951 500.596 411.978 500.664C412.005 500.732 412.048 500.792 412.105 500.839C412.213 500.912 412.539 500.839 412.729 500.739C412.941 500.663 413.146 500.572 413.345 500.468C413.734 500.268 414.096 500.06 414.449 499.852C415.146 499.426 415.797 498.946 416.467 498.556C416.793 498.339 417.128 498.121 417.472 497.913C417.836 497.664 418.236 497.472 418.657 497.342C418.957 497.305 419.259 497.386 419.499 497.569C419.653 497.705 419.707 497.877 419.888 497.958C419.998 497.989 420.114 497.989 420.223 497.958C420.334 497.926 420.443 497.887 420.549 497.841L421.164 497.587C421.602 497.371 422.069 497.219 422.549 497.134C422.857 497.101 423.169 497.148 423.454 497.27C423.683 497.371 423.904 497.489 424.115 497.623C424.319 497.759 424.546 497.858 424.785 497.913C425.062 497.94 425.34 497.94 425.617 497.913C426.193 497.886 426.751 497.709 427.238 497.401C427.725 497.093 428.124 496.664 428.396 496.156C428.675 495.664 428.857 495.122 428.93 494.561C429.022 493.994 428.937 493.411 428.685 492.894C428.599 492.741 428.474 492.613 428.323 492.523H428.269H428.206C428.143 492.561 428.088 492.61 428.043 492.668C427.865 492.896 427.722 493.15 427.617 493.42C427.197 494.461 426.893 495.545 426.712 496.654C426.603 497.203 426.542 497.761 426.531 498.321C426.529 498.609 426.572 498.897 426.658 499.172C426.707 499.332 426.813 499.468 426.957 499.553C427.063 499.587 427.177 499.587 427.283 499.553H427.699C428.719 499.402 429.726 499.174 430.713 498.873C431.618 498.602 432.523 498.303 433.428 497.967L433.419 498.058Z" fill="#000152"/>
<path d="M469.223 544.042H292.502C300.114 535.119 304.313 526.187 307.517 517.263C310.612 508.648 312.785 500.051 316.206 491.427C316.658 490.294 317.111 489.153 317.636 488.02H445.475C453.204 506.691 453.792 525.371 469.223 544.042Z" fill="white"/>
<path d="M469.884 544.042C454.289 525.371 453.656 506.691 445.836 488.02H445.121C450.986 502.343 452.66 516.665 460.018 530.988C460.806 532.528 461.657 534.068 462.598 535.608L463.177 536.514C463.53 537.076 463.892 537.647 464.272 538.208L464.824 539.024C465.014 539.313 465.213 539.594 465.422 539.884C465.63 540.174 465.82 540.455 466.037 540.736C466.77 541.741 467.549 542.756 468.372 543.771H469.006L468.562 544.006L468.372 543.771L293.099 543.888L292.955 544.051C292.846 544.006 292.755 543.943 292.647 543.888H293.099C294.24 542.578 295.299 541.258 296.276 539.93C297.353 538.498 298.322 537.067 299.218 535.635C302.742 529.887 305.53 523.717 307.517 517.272C308.603 513.939 309.571 510.605 310.549 507.307C312.241 502.017 314.006 496.753 316.205 491.472C316.676 490.339 317.165 489.198 317.69 488.066H317.463C314.628 494.299 312.162 500.693 310.078 507.217C306.34 519.501 302.964 531.794 292.049 544.088L291.896 544.26H292.348L469.44 544.341H470.101L469.884 544.042Z" fill="#000152"/>
<path d="M298.901 535.626H463.023C463.928 537.058 464.833 538.489 465.892 539.93H295.923C297.015 538.492 298.008 537.058 298.901 535.626Z" fill="#000152"/>
<path d="M463.023 535.617H373.423C376.021 534.077 378.537 532.537 381.007 530.997H460.48C461.253 532.531 462.1 534.071 463.023 535.617Z" fill="#000152"/>
<path d="M466.535 540.772H373.052L376.998 539.069H465.286C465.684 539.637 466.1 540.204 466.535 540.772Z" fill="#FF7F00"/>
<path d="M464.716 538.253H415.843L419.119 536.55H463.603C463.965 537.112 464.336 537.683 464.716 538.253Z" fill="#FF7F00"/>
<path d="M322.505 510.369H440.035L440.877 513.993H321.573C321.889 512.743 322.17 511.538 322.505 510.369Z" fill="white"/>
<path d="M321.573 513.993H440.877C441.167 515.198 441.456 516.403 441.782 517.617H320.632C320.939 516.357 321.265 515.153 321.573 513.993Z" fill="#FF7F00"/>
<path d="M323.437 506.745L439.194 506.7L440.035 510.324H322.505C322.813 509.128 323.12 507.923 323.437 506.745Z" fill="#97C2F4"/>
<path d="M324.388 503.122L438.316 503.068C438.614 504.272 438.904 505.486 439.221 506.691L323.437 506.746C323.745 505.538 324.062 504.33 324.388 503.122Z" fill="white"/>
<path d="M325.41 499.498L437.392 499.435C437.709 500.649 438.017 501.854 438.297 503.059L324.387 503.122C324.722 501.899 325.057 500.694 325.41 499.498Z" fill="#97C2F4"/>
<path d="M326.496 495.874L436.379 495.811C436.732 497.016 437.067 498.221 437.393 499.435L325.41 499.498C325.79 498.284 326.125 497.079 326.496 495.874Z" fill="white"/>
<path d="M327.7 492.251L435.301 492.188C435.691 493.392 436.062 494.606 436.415 495.811L326.496 495.875C326.885 494.67 327.283 493.456 327.7 492.251Z" fill="#97C2F4"/>
<path d="M329.012 488.627L402.548 488.582C402.711 489.787 402.864 490.992 403.018 492.205L327.7 492.251C328.116 491.046 328.56 489.841 329.012 488.627Z" fill="#FF7F00"/>
<path d="M403.018 492.251H435.265C437.981 500.703 439.592 509.146 441.755 517.617H405.435C404.629 509.101 404.032 500.649 403.018 492.251Z" fill="#97C2F4"/>
<path d="M440.035 510.288L381.27 510.369H322.505L381.27 510.306L440.035 510.288Z" fill="#000152"/>
<path d="M439.193 506.673L381.27 506.737H323.392L381.27 506.664L439.193 506.673Z" fill="#000152"/>
<path d="M438.315 503.049L381.351 503.122H324.387L381.351 503.049H438.315Z" fill="#000152"/>
<path d="M437.393 499.426L381.397 499.507H325.41L381.397 499.435L437.393 499.426Z" fill="#000152"/>
<path d="M436.378 495.811L381.442 495.883H326.496L381.442 495.802L436.378 495.811Z" fill="#000152"/>
<path d="M435.301 492.188L381.523 492.269H327.735L381.523 492.197L435.301 492.188Z" fill="#000152"/>
<path d="M434.876 515.723C431.047 515.805 427.21 515.805 423.373 515.823C419.535 515.841 415.698 515.823 411.842 515.732C415.671 515.651 419.508 515.651 423.345 515.633C427.183 515.614 431.02 515.651 434.876 515.723Z" fill="#000152"/>
<path d="M434.116 512.1C431.265 512.181 428.405 512.19 425.545 512.199C422.685 512.208 419.825 512.199 416.956 512.109C419.798 512.036 422.658 512.027 425.518 512.018C428.378 512.009 431.238 512.027 434.116 512.1Z" fill="#000152"/>
<path d="M433.365 508.485C429.654 508.557 425.934 508.566 422.205 508.575C418.476 508.584 414.757 508.575 411.019 508.494C414.739 508.412 418.458 508.412 422.178 508.394C425.898 508.376 429.627 508.412 433.365 508.485Z" fill="#000152"/>
<path d="M432.587 504.861C429.582 504.943 426.568 504.943 423.536 504.961C420.504 504.979 417.499 504.961 414.486 504.87C417.49 504.798 420.513 504.789 423.536 504.78C426.559 504.771 429.573 504.789 432.587 504.861Z" fill="#000152"/>
<path d="M431.808 501.247C428.188 501.319 424.613 501.328 421.011 501.337C417.408 501.346 413.77 501.337 410.15 501.256C413.77 501.174 417.39 501.165 420.956 501.156C424.522 501.147 428.188 501.165 431.808 501.247Z" fill="#000152"/>
<path d="M430.958 497.623C427.428 497.705 423.889 497.705 420.341 497.723C416.794 497.741 413.255 497.723 409.698 497.632C413.228 497.56 416.766 497.551 420.305 497.541C423.844 497.532 427.392 497.551 430.958 497.623Z" fill="#000152"/>
<path d="M430.016 493.999C427.926 494.072 425.817 494.09 423.681 494.099C421.545 494.108 419.463 494.099 417.346 494.008C419.436 493.936 421.545 493.918 423.681 493.918C425.817 493.918 427.889 493.936 430.016 493.999Z" fill="#000152"/>
<path d="M396.846 515.732C393.968 515.814 391.081 515.814 388.194 515.832C385.306 515.85 382.419 515.832 379.541 515.741C382.428 515.66 385.306 515.66 388.194 515.642C391.081 515.624 393.959 515.66 396.846 515.732Z" fill="#000152"/>
<path d="M396.656 512.118C393.814 512.19 390.972 512.199 388.13 512.208C385.288 512.217 382.446 512.208 379.605 512.118C382.446 512.045 385.288 512.036 388.13 512.027C390.972 512.018 393.814 512.045 396.656 512.118Z" fill="#000152"/>
<path d="M396.466 508.494C393.669 508.576 390.872 508.576 388.076 508.594C385.279 508.612 382.473 508.594 379.677 508.503C382.473 508.431 385.27 508.422 388.067 508.413C390.863 508.403 393.669 508.422 396.466 508.494Z" fill="#000152"/>
<path d="M396.275 504.879C393.56 504.952 390.764 504.961 388.012 504.97C385.261 504.979 382.5 504.97 379.74 504.888C382.455 504.807 385.252 504.807 388.012 504.789C390.773 504.771 393.515 504.807 396.275 504.879Z" fill="#000152"/>
<path d="M396.076 501.256C393.361 501.337 390.646 501.346 387.931 501.355C385.216 501.365 382.501 501.355 379.786 501.265C382.501 501.192 385.216 501.183 387.931 501.174C390.646 501.165 393.361 501.183 396.076 501.256Z" fill="#000152"/>
<path d="M395.86 497.686C393.199 497.768 390.538 497.768 387.868 497.786C385.198 497.804 382.546 497.786 379.885 497.695C382.546 497.614 385.207 497.614 387.868 497.596C390.529 497.578 393.19 497.569 395.86 497.686Z" fill="#000152"/>
<path d="M395.615 494.063C393.008 494.135 390.393 494.144 387.786 494.153C385.18 494.162 382.564 494.153 379.958 494.072C382.564 493.99 385.171 493.981 387.786 493.972C390.402 493.963 392.999 493.945 395.615 494.063Z" fill="#000152"/>
<path d="M371.839 515.741C368.943 515.814 366.055 515.823 363.177 515.832C360.299 515.841 357.403 515.832 354.525 515.75C357.421 515.669 360.308 515.66 363.186 515.651C366.065 515.642 368.952 515.669 371.839 515.741Z" fill="#000152"/>
<path d="M367.658 494.063C366.816 494.135 365.983 494.153 365.151 494.162C364.318 494.172 363.485 494.163 362.662 494.072C363.504 493.999 364.336 493.981 365.169 493.972C366.001 493.963 366.834 493.972 367.658 494.063Z" fill="#000152"/>
<path d="M367.332 497.686C366.481 497.759 365.631 497.768 364.78 497.777C363.929 497.786 363.078 497.777 362.237 497.686C363.096 497.614 363.947 497.596 364.798 497.596C365.649 497.596 366.518 497.587 367.332 497.686Z" fill="#000152"/>
<path d="M367.033 501.31C366.128 501.382 365.296 501.401 364.427 501.401C363.558 501.401 362.698 501.401 361.838 501.31C362.743 501.238 363.585 501.219 364.445 501.219C365.305 501.219 366.174 501.201 367.033 501.31Z" fill="#000152"/>
<path d="M366.753 504.934C365.848 505.006 364.988 505.024 364.11 505.033C363.232 505.042 362.3 505.033 361.477 504.943C362.382 504.87 363.241 504.852 364.119 504.843C364.997 504.834 365.884 504.816 366.753 504.934Z" fill="#000152"/>
<path d="M366.517 508.557C365.612 508.63 364.707 508.639 363.802 508.648C362.897 508.657 361.992 508.648 361.087 508.557C361.992 508.485 362.897 508.467 363.802 508.467C364.707 508.467 365.612 508.44 366.517 508.557Z" fill="#000152"/>
<path d="M366.219 512.127C365.314 512.199 364.409 512.217 363.504 512.217C362.599 512.217 361.694 512.217 360.789 512.127C361.694 512.054 362.599 512.036 363.504 512.036C364.409 512.036 365.314 512.054 366.219 512.127Z" fill="#000152"/>
<path d="M366.518 490.439C365.07 490.512 363.63 490.53 362.182 490.539C360.734 490.548 359.304 490.539 357.874 490.448C359.331 490.376 360.771 490.358 362.21 490.348C363.649 490.339 365.124 490.348 366.518 490.439Z" fill="#000152"/>
<path d="M346.823 515.75C343.927 515.823 341.04 515.832 338.153 515.841C335.266 515.85 332.388 515.841 329.519 515.75C332.415 515.678 335.302 515.669 338.189 515.66C341.076 515.651 343.954 515.678 346.823 515.75Z" fill="#000152"/>
<path d="M347.385 512.181C344.525 512.254 341.683 512.263 338.841 512.272C335.999 512.281 333.157 512.272 330.333 512.181C333.193 512.109 336.035 512.1 338.877 512.091C341.719 512.082 344.552 512.054 347.385 512.181Z" fill="#000152"/>
<path d="M347.928 508.558C345.122 508.639 342.316 508.639 339.52 508.657C336.723 508.675 333.917 508.657 331.139 508.567C333.954 508.494 336.75 508.485 339.556 508.476C342.362 508.467 345.149 508.44 347.928 508.558Z" fill="#000152"/>
<path d="M348.489 504.934C345.719 505.015 342.959 505.015 340.199 505.033C337.438 505.052 334.696 505.033 331.954 504.943C334.723 504.861 337.484 504.861 340.235 504.843C342.986 504.825 345.747 504.825 348.489 504.934Z" fill="#000152"/>
<path d="M349.068 501.31C346.353 501.382 343.638 501.392 340.923 501.401C338.207 501.41 335.492 501.401 332.777 501.319C335.492 501.238 338.207 501.238 340.923 501.219C343.638 501.201 346.371 501.21 349.068 501.31Z" fill="#000152"/>
<path d="M349.692 497.686C346.977 497.759 344.344 497.768 341.683 497.777C339.022 497.786 336.361 497.777 333.718 497.695C336.433 497.614 339.058 497.605 341.719 497.596C344.38 497.587 347.041 497.596 349.692 497.686Z" fill="#000152"/>
<path d="M350.362 494.063C347.737 494.144 345.122 494.153 342.506 494.162C339.891 494.171 337.293 494.162 334.705 494.072C337.329 493.999 339.945 493.99 342.551 493.981C345.158 493.972 347.765 493.972 350.362 494.063Z" fill="#000152"/>
<path d="M351.131 490.439C348.561 490.521 346.009 490.53 343.456 490.539C340.904 490.548 338.352 490.539 335.827 490.448C338.397 490.376 340.949 490.367 343.502 490.358C346.054 490.349 348.561 490.358 351.131 490.439Z" fill="#000152"/>
<path d="M446.769 532.936C442.895 533.008 439.003 533.045 435.112 533.081C431.22 533.117 427.301 533.081 423.4 533.081C419.499 533.081 415.58 533.081 411.634 533.081L405.797 533.017L399.932 532.936C401.878 532.891 403.824 532.872 405.77 532.845L411.616 532.791C415.508 532.791 419.409 532.791 423.301 532.746C427.192 532.7 431.102 532.746 435.012 532.791C438.922 532.836 442.841 532.863 446.769 532.936Z" fill="white"/>
<path d="M447.583 534.72C443.13 534.802 438.65 534.829 434.17 534.865C429.69 534.902 425.192 534.865 420.703 534.865C416.214 534.865 411.707 534.865 407.209 534.865L400.457 534.829L393.714 534.739C395.959 534.693 398.194 534.675 400.439 534.648L407.154 534.594C411.68 534.594 416.114 534.594 420.594 534.548C425.074 534.503 429.573 534.548 434.062 534.594C438.551 534.639 443.058 534.648 447.583 534.72Z" fill="white"/>
<path d="M443.049 522.373C440.922 522.436 438.786 522.463 436.65 522.481C434.514 522.5 432.37 522.481 430.225 522.481C428.08 522.481 425.935 522.481 423.781 522.481C421.626 522.481 419.491 522.436 417.337 522.382C419.463 522.327 421.608 522.3 423.744 522.273C425.88 522.246 428.025 522.273 430.161 522.273C432.297 522.273 434.451 522.273 436.596 522.273C438.741 522.273 440.895 522.318 443.049 522.373Z" fill="#000152"/>
<path d="M442.624 520.833C439.673 520.887 436.723 520.914 433.763 520.942H424.876C421.916 520.942 418.948 520.942 415.979 520.942C413.01 520.942 410.051 520.896 407.082 520.842C410.033 520.788 412.992 520.76 415.952 520.733H424.83C427.79 520.733 430.75 520.733 433.709 520.733C436.669 520.733 439.646 520.778 442.624 520.833Z" fill="#000152"/>
<path d="M229.61 539.286C233.502 556.399 241.575 576.918 244.996 580.252C249.367 584.473 278.365 592.255 279.813 592.418C283.434 592.781 290.674 566.98 286.828 566.418C281.017 565.567 259.893 564.362 258.635 563.057C257.377 561.753 248.435 550.374 239.294 537.692C233.022 528.886 227.203 528.669 229.61 539.286Z" fill="#A6675D"/>
<path d="M281.95 565.014L272.963 593.288C272.963 593.288 248.816 586.33 244.408 581.511C240.001 576.691 231.918 552.105 229.547 540.174C227.176 528.243 233.167 528.551 238.724 536.088C244.281 543.625 257.993 561.88 258.762 562.278C259.532 562.677 281.95 565.014 281.95 565.014Z" fill="#FF7F00"/>
<path d="M249.105 550.021C248.345 551.462 247.666 552.938 247.023 554.433C245.765 557.35 244.643 560.331 243.403 563.266C243.132 563.882 242.86 564.507 242.57 565.078C242.57 565.186 242.471 565.295 242.426 565.395C241.502 567.413 240.373 569.332 239.059 571.12C238.977 570.921 238.905 570.712 238.814 570.513C240.063 568.774 241.134 566.914 242.009 564.96C242.009 564.851 242.109 564.751 242.154 564.652C242.408 564.108 242.652 563.556 242.887 563.003C244.136 560.086 245.258 557.105 246.507 554.17C247.141 552.703 247.802 551.253 248.544 549.831L248.734 549.487L249.105 550.021ZM272.917 590.398C271.349 590.211 269.821 589.774 268.392 589.103C266.96 588.444 265.593 587.652 264.31 586.738L263.957 586.484L263.559 586.195C261.276 584.469 259.117 582.586 257.097 580.56C252.571 576.094 248.408 571.265 244.009 566.654C243.521 566.137 243.023 565.63 242.516 565.114C242.38 564.969 242.245 564.824 242.1 564.688C240.507 563.066 238.869 561.49 237.149 559.995C236.19 559.153 235.285 558.383 234.226 557.567C234.226 557.703 234.316 557.848 234.353 557.984C235.258 558.691 236.163 559.434 237.004 560.195C238.733 561.726 240.38 563.338 241.991 564.996L242.408 565.431C242.878 565.911 243.313 566.4 243.801 566.889C248.173 571.51 252.309 576.356 256.825 580.868C258.809 582.869 260.925 584.733 263.16 586.448L263.577 586.747C263.749 586.883 263.93 587.01 264.111 587.137C265.413 588.077 266.801 588.893 268.256 589.574C269.724 590.267 271.295 590.713 272.908 590.896C273.187 590.932 273.468 590.951 273.75 590.951L273.903 590.461C273.574 590.46 273.244 590.439 272.917 590.398ZM279.813 564.788C277.225 569.879 274.673 575.025 271.152 579.5C270.176 580.747 269.108 581.919 267.957 583.006C266.802 584.079 265.544 585.035 264.201 585.859L263.595 586.195L263.115 586.448C262.09 586.995 261.01 587.432 259.893 587.753C259.174 587.996 258.43 588.16 257.676 588.242L258.581 588.586C259.068 588.491 259.549 588.364 260.02 588.206C261.234 587.848 262.405 587.359 263.513 586.747L263.975 586.484L264.409 586.24C265.777 585.395 267.057 584.415 268.229 583.314C269.389 582.207 270.463 581.014 271.442 579.744C274.999 575.169 277.533 569.96 280.121 564.824L279.813 564.788ZM239.81 537.628C238.642 538.286 237.55 539.07 236.552 539.965C235.371 541.061 234.306 542.275 233.375 543.589C232.565 544.749 231.831 545.959 231.176 547.213C231.248 547.476 231.312 547.738 231.384 548.01C232.114 546.605 232.93 545.247 233.828 543.942C234.727 542.649 235.758 541.453 236.905 540.373C237.882 539.484 238.954 538.703 240.1 538.045L239.81 537.628Z" fill="white"/>
<path d="M260.78 589.365L259.712 588.994C257.703 588.269 255.648 587.49 253.72 586.693L252.987 586.394L251.838 585.896L251.277 585.651L251.069 585.56L250.489 585.289C249.729 584.935 248.996 584.582 248.326 584.22L247.856 583.966C246.796 583.42 245.797 582.761 244.878 582L244.634 581.774L244.407 581.547C240.009 576.773 231.918 552.141 229.547 540.21L229.465 539.802C229.465 539.802 229.465 539.739 229.465 539.712C229.302 538.806 229.166 537.683 229.049 536.469C228.732 530.535 231.538 529.575 235.004 532.193C243.629 550.773 256.798 581.484 260.78 589.365Z" fill="#27273C"/>
<path d="M253.721 586.693L196.449 600.961C196.449 599.784 203.065 562.994 208.821 550.048C216.206 533.443 220.252 531.993 222.678 531.024C225.764 529.792 231.357 530.164 232.706 530.743C234.226 531.387 239.294 539.576 241.222 545.646C245.078 557.821 254.463 585.923 253.721 586.693Z" fill="#FF7F00"/>
<path d="M245.358 558.473C244.706 560.068 244.064 561.671 243.385 563.266C243.113 563.882 242.842 564.507 242.552 565.078C242.552 565.186 242.453 565.295 242.407 565.395C241.408 567.6 240.157 569.683 238.678 571.6C237.813 572.68 236.798 573.632 235.665 574.427C235.559 574.51 235.447 574.586 235.33 574.653L235.067 574.825C233.677 575.664 232.142 576.236 230.542 576.51C227.365 577.105 224.096 576.994 220.967 576.184C218.794 575.619 216.675 574.867 214.631 573.937L213.835 573.593L212.025 572.778C209.203 571.349 206.227 570.249 203.155 569.498L202.893 569.453C202.893 569.29 202.974 569.127 203.019 568.964H203.246C206.364 569.703 209.384 570.81 212.242 572.261C213.038 572.624 213.835 572.986 214.631 573.33L215.373 573.657C217.231 574.465 219.15 575.126 221.111 575.632C224.165 576.417 227.353 576.522 230.452 575.94C231.994 575.675 233.473 575.125 234.814 574.318L234.977 574.209C235.094 574.145 235.206 574.073 235.312 573.992C236.428 573.21 237.427 572.274 238.28 571.211C239.767 569.268 241.022 567.158 242.018 564.924C242.018 564.815 242.118 564.715 242.163 564.616C242.416 564.072 242.661 563.519 242.896 562.967C243.665 561.155 244.38 559.343 245.113 557.531L245.358 558.473ZM250.037 573.113C248.055 570.948 246.073 568.783 244.045 566.654C243.557 566.137 243.059 565.63 242.552 565.114C242.416 564.969 242.281 564.824 242.136 564.688C240.543 563.066 238.905 561.49 237.185 559.995C234.817 557.851 232.212 555.985 229.42 554.433C229.166 554.297 228.922 554.17 228.66 554.052L228.135 553.799C225.671 552.608 222.959 552.027 220.224 552.105C219.826 552.105 219.428 552.15 219.03 552.213L218.432 552.295L217.853 552.422C217.066 552.594 216.315 552.857 215.545 553.074C215.048 553.255 214.559 553.436 214.07 553.636C213.98 553.664 213.892 553.701 213.808 553.744C212.898 554.102 212.018 554.529 211.174 555.022C209.118 556.17 207.238 557.607 205.59 559.289C205.535 559.47 205.481 559.651 205.436 559.832C207.14 558.005 209.111 556.447 211.283 555.212C212.156 554.706 213.063 554.261 213.998 553.88L214.26 553.772L215.591 553.264C216.351 553.056 217.102 552.784 217.871 552.612L218.451 552.485L219.039 552.404C219.428 552.342 219.821 552.303 220.215 552.286C222.926 552.201 225.616 552.789 228.044 553.998L228.569 554.243L229.302 554.623C232.071 556.185 234.654 558.054 237.004 560.195C238.733 561.726 240.38 563.338 241.991 564.996L242.407 565.431C242.878 565.911 243.312 566.4 243.801 566.889C246 569.218 248.145 571.6 250.308 573.974L250.037 573.113ZM250.797 586.946C249.366 586.288 247.999 585.496 246.715 584.582C244.138 582.723 241.717 580.656 239.475 578.404C238.172 577.117 236.896 575.795 235.638 574.463L235.257 574.064C232.289 570.894 229.393 567.65 226.388 564.498C225.899 563.981 225.401 563.474 224.895 562.967C224.762 562.813 224.62 562.668 224.469 562.532C222.885 560.91 221.247 559.334 219.537 557.839C217.871 556.362 216.105 555.003 214.251 553.772C214.187 553.718 214.118 553.672 214.043 553.636C213.301 553.147 212.541 552.694 211.762 552.277C210.699 551.706 209.592 551.225 208.45 550.836C208.43 550.901 208.405 550.965 208.377 551.027C209.506 551.422 210.602 551.907 211.654 552.476C212.378 552.866 213.093 553.292 213.78 553.744C213.855 553.781 213.925 553.827 213.989 553.88C215.875 555.14 217.668 556.532 219.356 558.048C221.075 559.57 222.722 561.182 224.333 562.84L224.75 563.275C225.22 563.755 225.655 564.244 226.143 564.733C229.112 567.868 231.972 571.075 234.923 574.282C235.043 574.415 235.17 574.55 235.303 574.689C236.561 576.048 237.846 577.407 239.167 578.712C241.405 580.997 243.826 583.093 246.408 584.981C247.71 585.926 249.101 586.742 250.562 587.418H250.643L251.476 587.209L250.797 586.946ZM238.199 538.661C237.632 539.066 237.088 539.501 236.57 539.965C235.389 541.061 234.324 542.275 233.393 543.589C232.474 544.904 231.643 546.278 230.904 547.702C230.171 549.124 229.501 550.583 228.868 552.041L228.135 553.79L228.053 553.989C227.148 556.29 226.243 558.609 225.238 560.874C225.003 561.427 224.759 561.979 224.496 562.523C224.496 562.622 224.406 562.722 224.361 562.831C223.364 565.066 222.11 567.176 220.623 569.118C219.656 570.342 218.494 571.398 217.183 572.243C216.386 572.737 215.528 573.127 214.631 573.403C214.367 573.492 214.098 573.568 213.826 573.629C213.5 573.72 213.165 573.792 212.83 573.856C209.729 574.438 206.537 574.333 203.481 573.548C202.992 573.43 202.503 573.294 202.024 573.14C202.024 573.312 201.942 573.484 201.897 573.666C202.377 573.82 202.866 573.956 203.354 574.073C206.485 574.875 209.753 574.984 212.93 574.39C213.501 574.283 214.066 574.143 214.622 573.974C214.876 573.901 215.129 573.82 215.373 573.729C216.105 573.458 216.809 573.115 217.473 572.705C218.851 571.84 220.075 570.75 221.093 569.48C222.572 567.563 223.823 565.48 224.822 563.275C224.822 563.175 224.922 563.075 224.967 562.967C225.257 562.351 225.528 561.735 225.8 561.11C226.786 558.827 227.682 556.526 228.623 554.243C228.643 554.176 228.67 554.113 228.705 554.052C228.94 553.455 229.184 552.866 229.438 552.241C230.627 549.317 232.104 546.519 233.846 543.888C234.745 542.595 235.776 541.398 236.923 540.319C237.411 539.884 237.909 539.467 238.434 539.087C238.362 538.96 238.28 538.806 238.199 538.661Z" fill="white"/>
<path d="M214.75 536.84C205.418 546.497 182.358 583.386 189.308 590.326C196.259 597.265 235.693 588.867 246.825 583.821C250.137 582.326 238.064 561.608 234.217 561.055C231.013 560.593 214.46 567.786 213.998 566.835C213.537 565.884 216.243 557.921 220.469 543.725C225.33 527.355 218.886 532.573 214.75 536.84Z" fill="#A6675D"/>
<path d="M229.321 562.007L241.376 588.713C241.376 588.713 191.996 598.814 187.914 590.172C183.833 581.529 203.608 548.418 212.378 538.797C222.569 527.672 223.773 531.55 221.374 541.515C218.876 551.969 214.134 567.071 214.134 567.071L229.321 562.007Z" fill="#FF7F00"/>
<path d="M232.832 542.502C229.484 542.919 224.424 537.32 222.614 533.017C222.497 532.727 223.239 529.846 223.972 526.304C224.415 524.157 224.877 521.775 225.094 519.537C225.094 519.075 238.67 524.429 238.67 524.429C237.574 527.122 236.812 529.939 236.398 532.818C236.372 533.119 236.372 533.422 236.398 533.724V533.923C236.507 535.671 236.072 542.076 232.832 542.502Z" fill="#A6675D"/>
<path d="M225.981 519.691C226.216 523.523 227.565 532.854 234.977 533.823C235.453 533.894 235.935 533.921 236.416 533.905C236.426 533.854 236.426 533.802 236.416 533.751C236.394 533.449 236.394 533.146 236.416 532.845C236.831 529.966 237.597 527.148 238.697 524.456C238.697 524.456 228.95 520.579 225.981 519.691Z" fill="#6B3128"/>
<path d="M222.279 504.281C221.184 509.354 224.994 523.451 228.769 526.35C234.262 530.553 242.652 530.299 246.064 523.831C249.377 517.562 244.1 499.281 239.928 496.708C233.783 492.921 223.908 496.78 222.279 504.281Z" fill="#A6675D"/>
<path d="M237.004 511.855C237.004 511.855 236.95 511.927 236.959 511.963C237.276 512.869 237.484 514.011 236.724 514.582C236.724 514.582 236.724 514.645 236.724 514.636C237.746 514.174 237.457 512.688 237.004 511.855Z" fill="#27273C"/>
<path d="M235.864 511.13C234.326 511.474 235.131 514.545 236.561 514.228C237.991 513.911 237.167 510.84 235.864 511.13Z" fill="#27273C"/>
<path d="M242.335 510.478C242.335 510.478 242.417 510.478 242.426 510.55C242.643 511.501 243.059 512.561 244.001 512.652C244.001 512.652 244.046 512.706 244.001 512.706C242.924 512.842 242.39 511.429 242.335 510.478Z" fill="#27273C"/>
<path d="M242.915 509.264C244.417 508.747 245.34 511.782 243.956 512.262C242.571 512.742 241.666 509.699 242.915 509.264Z" fill="#27273C"/>
<path d="M233.819 509.073C234.235 508.929 234.597 508.729 235.005 508.548C235.45 508.415 235.84 508.142 236.118 507.769C236.181 507.636 236.198 507.485 236.167 507.341C236.136 507.197 236.058 507.067 235.946 506.972C235.689 506.822 235.397 506.743 235.1 506.743C234.802 506.743 234.51 506.822 234.253 506.972C233.685 507.182 233.216 507.599 232.941 508.14C232.895 508.265 232.885 508.401 232.911 508.531C232.938 508.662 233 508.782 233.091 508.879C233.183 508.976 233.299 509.046 233.428 509.08C233.556 509.114 233.692 509.112 233.819 509.073Z" fill="#27273C"/>
<path d="M243.738 506.655C243.304 506.682 242.869 506.682 242.435 506.655C241.976 506.721 241.509 506.635 241.104 506.41C240.991 506.313 240.913 506.182 240.882 506.036C240.851 505.89 240.869 505.739 240.932 505.604C241.1 505.361 241.329 505.166 241.596 505.039C241.863 504.912 242.158 504.857 242.453 504.879C243.059 504.844 243.657 505.03 244.136 505.405C244.241 505.496 244.316 505.617 244.354 505.751C244.391 505.885 244.388 506.028 244.346 506.16C244.304 506.293 244.224 506.411 244.116 506.498C244.008 506.586 243.876 506.641 243.738 506.655Z" fill="#27273C"/>
<path d="M237.747 521.113C238.036 521.276 238.344 521.521 238.652 521.458C239.004 521.358 239.331 521.185 239.611 520.95C239.611 520.95 239.684 520.95 239.666 520.95C239.58 521.173 239.435 521.369 239.247 521.515C239.059 521.662 238.835 521.755 238.598 521.784C238.391 521.784 238.189 521.723 238.016 521.608C237.844 521.494 237.709 521.331 237.629 521.14C237.638 521.122 237.702 521.086 237.747 521.113Z" fill="#27273C"/>
<path d="M238 517.997C238.337 518.317 238.738 518.563 239.176 518.719C239.614 518.875 240.079 518.938 240.543 518.903C240.946 518.881 241.343 518.796 241.72 518.649C241.795 518.632 241.868 518.604 241.937 518.568L242.136 518.486C242.186 518.463 242.226 518.423 242.251 518.374C242.276 518.325 242.283 518.268 242.272 518.214C242.272 518.214 242.272 518.151 242.272 518.115V518.033C242.1 517.299 241.738 516.221 241.738 516.221C242.036 516.285 243.548 516.538 243.439 516.167C242.483 512.887 241.197 509.712 239.602 506.691C239.59 506.673 239.572 506.661 239.552 506.655C239.531 506.649 239.509 506.65 239.49 506.659C239.47 506.668 239.455 506.683 239.445 506.702C239.436 506.721 239.434 506.743 239.439 506.764C240.299 509.798 241.692 512.661 242.607 515.696C242.063 515.595 241.509 515.574 240.959 515.633C240.869 515.696 241.702 517.734 241.756 518.079C241.173 518.297 240.551 518.396 239.929 518.368C239.307 518.34 238.697 518.186 238.136 517.915C238 517.852 237.918 517.943 238 517.997Z" fill="#27273C"/>
<path d="M241.186 518.359C240.919 518.988 240.495 519.537 239.955 519.954C239.656 520.192 239.287 520.326 238.905 520.334C238.1 520.334 237.901 519.646 237.882 519.011C237.875 518.673 237.908 518.336 237.982 518.006C238.983 518.468 240.108 518.592 241.186 518.359Z" fill="#27273C"/>
<path d="M239.955 519.954C239.656 520.192 239.287 520.326 238.905 520.334C238.099 520.334 237.9 519.646 237.882 519.012C238.283 518.908 238.708 518.944 239.085 519.116C239.462 519.287 239.769 519.583 239.955 519.954Z" fill="#FF98B9"/>
<path d="M224.116 518.142C226.632 516.946 226.478 507.851 226.478 507.851C226.478 507.851 227.085 511.619 227.782 511.402C228.479 511.184 230.497 505.604 230.198 501.881C232.509 502.905 234.943 503.624 237.439 504.019C240.95 504.453 244.616 503.602 244.516 503.031C244.236 501.337 241.946 497.17 239.375 495.992C237.483 495.007 235.364 494.539 233.233 494.636C231.102 494.733 229.034 495.391 227.239 496.545C222.125 499.561 221.292 503.321 220.903 506.184C220.514 509.046 223.193 518.586 224.116 518.142Z" fill="#27273C"/>
<path d="M226.307 515.687C226.307 515.687 222.605 511.402 220.623 512.77C218.641 514.138 221.773 520.588 224.325 521.249C224.647 521.356 224.987 521.397 225.325 521.37C225.663 521.342 225.992 521.246 226.292 521.088C226.592 520.93 226.857 520.712 227.071 520.449C227.285 520.185 227.444 519.881 227.538 519.555L226.307 515.687Z" fill="#A6675D"/>
<path d="M221.564 514.6C221.564 514.6 221.564 514.654 221.564 514.663C223.374 515.179 224.433 516.692 225.239 518.287C225.121 518.124 224.969 517.988 224.794 517.89C224.619 517.791 224.424 517.732 224.224 517.715C224.024 517.699 223.822 517.726 223.633 517.795C223.445 517.864 223.273 517.973 223.13 518.114C223.13 518.114 223.13 518.223 223.184 518.205C223.479 518.077 223.805 518.043 224.12 518.108C224.434 518.173 224.72 518.333 224.94 518.567C225.3 518.963 225.618 519.394 225.89 519.854C225.981 519.999 226.252 519.854 226.18 519.718C225.972 517.471 223.954 514.572 221.564 514.6Z" fill="#27273C"/>
<path d="M236.28 495.295C234.396 494.553 232.415 494.086 230.397 493.908C228.144 493.764 221.112 494.724 219.537 496.237C217.962 497.75 217.871 504.435 217.881 505.414C217.89 506.392 218.677 512.253 220.885 513.567C223.094 514.881 222.695 504.843 225.89 501.328C229.085 497.813 236.28 495.295 236.28 495.295Z" fill="#FF7F00"/>
<path opacity="0.1" d="M236.281 495.304C236.281 495.304 229.04 497.804 225.854 501.319C222.669 504.834 223.067 514.899 220.849 513.558C219.872 512.987 219.365 512.081 218.885 510.541C219.157 507.588 220.08 502.986 222.325 499.67C224.433 496.599 228.271 494.878 232.443 494.153C233.753 494.425 235.037 494.81 236.281 495.304Z" fill="black"/>
<path d="M221.781 519.428C221.781 516.756 224.107 509.463 226.705 505.205C229.302 500.948 237.565 498.067 238.697 498.067C241.539 498.067 242.552 498.864 242.987 498.583C243.421 498.302 240.371 496.336 239.547 495.911C238.724 495.485 236.507 494.479 235.276 494.579C234.045 494.679 226.497 495.883 223.917 499.29C221.338 502.696 217.971 511.973 218.822 514.301C219.03 514.844 219.79 515.161 220.08 515.941C220.451 516.964 220.74 518.151 221.093 518.858C221.446 519.564 221.781 519.691 221.781 519.428Z" fill="#FF7F00"/>
<path d="M221.6 516.801C221.51 516.611 221.374 516.448 221.274 516.267C221.156 516.063 221.059 515.847 220.985 515.623C220.908 515.185 220.784 514.757 220.614 514.346C220.418 514.039 220.191 513.753 219.935 513.494C219.621 513.224 219.413 512.852 219.347 512.444C219.347 512.389 219.256 512.389 219.256 512.444C219.419 513.189 219.768 513.88 220.27 514.455C220.457 514.891 220.606 515.342 220.713 515.805C220.851 516.233 221.12 516.607 221.483 516.874C221.537 516.919 221.627 516.864 221.6 516.801Z" fill="#27273C"/>
<path d="M222.351 513.866C222.08 513.576 221.79 513.322 221.546 513.005C221.316 512.697 221.107 512.373 220.921 512.036C220.731 511.71 220.568 511.365 220.387 511.039C220.206 510.713 219.908 510.269 219.718 509.871C219.718 509.816 219.618 509.871 219.645 509.916C219.844 510.333 219.971 510.822 220.161 511.211C220.33 511.576 220.52 511.93 220.731 512.271C220.932 512.594 221.162 512.897 221.419 513.177C221.67 513.471 221.978 513.712 222.324 513.884C222.324 513.884 222.37 513.884 222.351 513.866Z" fill="#27273C"/>
<path d="M223.166 511.202C222.578 510.76 222.057 510.235 221.618 509.644C221.202 509.064 220.804 508.467 220.424 507.832C220.424 507.787 220.324 507.832 220.351 507.832C220.611 508.528 220.958 509.189 221.383 509.798C221.593 510.096 221.839 510.367 222.116 510.604C222.423 510.845 222.757 511.048 223.112 511.211C223.112 511.211 223.211 511.275 223.166 511.202Z" fill="#27273C"/>
<path d="M229.203 501.718C228.922 501.41 228.651 501.102 228.298 500.812C227.979 500.52 227.644 500.248 227.293 499.996C226.627 499.496 225.908 499.071 225.148 498.728C225.148 498.728 225.058 498.728 225.094 498.801C226.424 499.806 227.809 500.757 229.103 501.772C229.194 501.817 229.248 501.763 229.203 501.718Z" fill="#27273C"/>
<path d="M230.687 499.344C230.402 499.037 230.08 498.766 229.728 498.538C228.987 498.073 228.198 497.69 227.375 497.396C227.321 497.396 227.284 497.451 227.33 497.478C228.045 497.894 228.778 498.302 229.466 498.764C229.812 498.985 230.145 499.227 230.461 499.489C230.778 499.752 231.031 500.078 231.366 500.35C231.366 500.35 231.439 500.35 231.42 500.35C231.246 499.968 230.997 499.626 230.687 499.344Z" fill="#27273C"/>
<path d="M232.841 498.166C232.568 497.866 232.265 497.596 231.936 497.36C231.329 496.905 230.65 496.555 229.927 496.327C229.872 496.327 229.845 496.391 229.927 496.409C230.594 496.781 231.23 497.208 231.827 497.686C232.126 497.913 232.416 498.157 232.732 498.402C233.049 498.646 233.275 498.954 233.592 499.172C233.592 499.172 233.637 499.172 233.592 499.172C233.377 498.812 233.125 498.475 232.841 498.166Z" fill="#27273C"/>
<path d="M234.38 496.78C234.09 496.572 233.782 496.373 233.475 496.182C233.181 495.977 232.857 495.818 232.515 495.711V495.793L234.208 497.025C234.699 497.442 235.145 497.91 235.538 498.42C235.538 498.42 235.602 498.42 235.584 498.42C235.362 497.762 234.942 497.188 234.38 496.78Z" fill="#27273C"/>
<path d="M236.335 496.2C235.804 495.749 235.188 495.407 234.525 495.195C234.525 495.195 234.443 495.258 234.525 495.276C235.132 495.566 235.694 495.945 236.19 496.4C236.701 496.848 237.16 497.352 237.557 497.904C237.557 497.904 237.629 497.904 237.611 497.904C237.327 497.242 236.889 496.659 236.335 496.2Z" fill="#27273C"/>
<path d="M239.023 497.233C238.95 497.098 238.869 496.968 238.779 496.844C238.588 496.593 238.373 496.362 238.136 496.155C237.649 495.743 237.122 495.382 236.561 495.077C236.507 495.077 236.471 495.132 236.561 495.159C237.083 495.472 237.566 495.846 238 496.273C238.222 496.481 238.428 496.705 238.616 496.943L238.878 497.306C238.943 497.438 239.022 497.562 239.114 497.677C239.119 497.683 239.125 497.688 239.132 497.691C239.139 497.694 239.147 497.696 239.154 497.696C239.162 497.696 239.17 497.694 239.177 497.691C239.184 497.688 239.19 497.683 239.195 497.677C239.167 497.519 239.109 497.369 239.023 497.233Z" fill="#27273C"/>
<path d="M240.634 497.287C240.471 497.088 240.299 496.898 240.118 496.717C239.932 496.538 239.736 496.372 239.529 496.218C239.321 496.055 239.104 495.91 238.896 495.738C238.896 495.738 238.796 495.738 238.842 495.811C239.055 495.969 239.255 496.145 239.439 496.336L239.973 496.871L240.507 497.396C240.673 497.589 240.848 497.773 241.032 497.949L241.086 497.903C240.962 497.68 240.81 497.473 240.634 497.287Z" fill="#27273C"/>
</svg>
