<svg width="34" height="34" viewBox="0 0 34 34" fill="none" xmlns="http://www.w3.org/2000/svg">
<rect width="34" height="34" rx="8" fill="#000285"/>
<path d="M22.3591 28H12.639C11.1438 27.9981 9.7103 27.4072 8.65314 26.3571C7.59598 25.307 7.00146 23.8833 7 22.3984V12.5998C7.00195 11.1152 7.59669 9.69201 8.65379 8.64227C9.71089 7.59253 11.1441 7.00194 12.639 7H22.3591C23.8547 7.00145 25.2887 7.59208 26.3462 8.64227C27.4038 9.69246 27.9985 11.1164 28 12.6016V22.4002C27.9981 23.8851 27.4031 25.3086 26.3456 26.3584C25.2881 27.4082 23.8544 27.9985 22.3591 28ZM12.639 8.85988C11.6405 8.86085 10.6831 9.25518 9.97707 9.95633C9.271 10.6575 8.8739 11.6082 8.87293 12.5998V22.3984C8.8739 23.39 9.271 24.3407 9.97707 25.0418C10.6831 25.743 11.6405 26.1373 12.639 26.1383H22.3591C23.3577 26.1373 24.315 25.743 25.0211 25.0418C25.7272 24.3407 26.1243 23.39 26.1252 22.3984V12.5998C26.1243 11.6082 25.7272 10.6575 25.0211 9.95633C24.315 9.25518 23.3577 8.86085 22.3591 8.85988H12.639Z" fill="white"/>
<path d="M17.5 23C16.4122 23 15.3488 22.6774 14.4444 22.0731C13.5399 21.4687 12.8349 20.6098 12.4187 19.6048C12.0024 18.5998 11.8935 17.4939 12.1057 16.427C12.3179 15.3601 12.8417 14.3801 13.6109 13.6109C14.3801 12.8417 15.3601 12.3179 16.427 12.1057C17.4939 11.8935 18.5998 12.0024 19.6048 12.4187C20.6098 12.8349 21.4687 13.5399 22.0731 14.4444C22.6774 15.3488 23 16.4122 23 17.5C22.9981 18.9581 22.418 20.3559 21.387 21.387C20.3559 22.418 18.9581 22.9981 17.5 23ZM17.5 13.9458C16.797 13.9458 16.1099 14.1542 15.5254 14.5448C14.9409 14.9353 14.4853 15.4904 14.2163 16.1399C13.9473 16.7893 13.8769 17.5039 14.0141 18.1934C14.1512 18.8828 14.4897 19.5161 14.9868 20.0132C15.4839 20.5103 16.1172 20.8488 16.8066 20.9859C17.4961 21.1231 18.2107 21.0527 18.8601 20.7837C19.5096 20.5147 20.0647 20.0591 20.4552 19.4746C20.8458 18.8901 21.0542 18.203 21.0542 17.5C21.0532 16.5577 20.6785 15.6542 20.0121 14.9879C19.3458 14.3215 18.4423 13.9468 17.5 13.9458Z" fill="white"/>
<path d="M23 13C23.5523 13 24 12.5523 24 12C24 11.4477 23.5523 11 23 11C22.4477 11 22 11.4477 22 12C22 12.5523 22.4477 13 23 13Z" fill="white"/>
</svg>
