<svg width="153" height="38" viewBox="0 0 153 38" fill="none" xmlns="http://www.w3.org/2000/svg">
<path d="M68.0051 28.6872H67.2684V29.3779H68.0051V28.6872Z" fill="#000285"/>
<path d="M69.1102 28.6872H68.3735V29.3779H69.1102V28.6872Z" fill="#000285"/>
<path d="M70.2612 28.6872H69.5245V29.3779H70.2612V28.6872Z" fill="#000285"/>
<path d="M70.9058 29.3779H73.4842V28.8714H71.5044V27.2598H73.3V26.7993H71.5044V25.2337H73.4842V24.7272H70.9058V29.3779Z" fill="#000285"/>
<path d="M78.6871 25.6942C78.4108 25.6942 78.1345 25.7862 77.9043 25.9244C77.6741 26.0625 77.4899 26.2928 77.3979 26.6151C77.3058 26.2928 77.1216 26.0625 76.9374 25.9244C76.7533 25.7862 76.431 25.6942 76.1547 25.6942C75.8784 25.6942 75.6022 25.7862 75.372 25.9244C75.1418 26.0625 75.0036 26.2928 74.9115 26.569V25.7862H74.313V29.3779H74.9115V27.49C74.9115 27.0756 75.0036 26.7993 75.1878 26.569C75.372 26.3388 75.6482 26.2467 75.9705 26.2467C76.2468 26.2467 76.523 26.3388 76.6612 26.523C76.8453 26.7072 76.9374 26.9835 76.9374 27.3518V29.3779H77.536V27.49C77.536 27.0756 77.6281 26.7993 77.8122 26.569C77.9964 26.3388 78.2727 26.2467 78.5489 26.2467C78.8712 26.2467 79.1014 26.3388 79.2396 26.523C79.4237 26.7072 79.5158 26.9835 79.5158 27.3518V29.3779H80.1144V27.3058C80.1144 26.7993 79.9763 26.4309 79.746 26.1546C79.4237 25.8323 79.1014 25.6942 78.6871 25.6942Z" fill="#000285"/>
<path d="M83.8439 25.9244C83.6136 25.7862 83.2913 25.6942 82.969 25.6942C82.6007 25.6942 82.3244 25.7862 82.0942 25.9704C81.864 26.1546 81.6798 26.3849 81.5878 26.6611V25.7402H80.9892V31.0356H81.5878V28.4109C81.6798 28.6872 81.864 28.9174 82.0942 29.1016C82.3244 29.2858 82.6467 29.3779 82.969 29.3779C83.2913 29.3779 83.5676 29.2858 83.8439 29.1477C84.0741 29.0095 84.3043 28.7793 84.4424 28.503C84.5805 28.2267 84.6726 27.9044 84.6726 27.536C84.6726 27.1677 84.5805 26.8453 84.4424 26.569C84.3043 26.2928 84.1201 26.1086 83.8439 25.9244ZM83.7057 28.5491C83.4755 28.7793 83.1992 28.9174 82.8309 28.9174C82.6007 28.9174 82.3705 28.8714 82.1863 28.7333C82.0021 28.6412 81.864 28.457 81.7259 28.2728C81.6338 28.0886 81.5878 27.8584 81.5878 27.5821C81.5878 27.3058 81.6338 27.0756 81.7259 26.8914C81.818 26.7072 81.9561 26.523 82.1863 26.4309C82.3705 26.3388 82.6007 26.2928 82.8309 26.2928C83.1992 26.2928 83.5216 26.4309 83.7057 26.6611C83.9359 26.8914 84.028 27.2137 84.028 27.6281C84.028 28.0425 83.9359 28.3188 83.7057 28.5491Z" fill="#000285"/>
<path d="M87.9877 25.9244C87.7115 25.7862 87.3892 25.6942 87.0669 25.6942C86.6985 25.6942 86.4223 25.7862 86.146 25.9244C85.8697 26.0625 85.6395 26.2928 85.5014 26.569C85.3633 26.8453 85.2712 27.1677 85.2712 27.536C85.2712 27.9044 85.3633 28.2267 85.5014 28.503C85.6395 28.7793 85.8697 29.0095 86.146 29.1477C86.4223 29.2858 86.7446 29.3779 87.0669 29.3779C87.4352 29.3779 87.7115 29.2858 87.9877 29.1477C88.264 29.0095 88.4942 28.7793 88.6323 28.503C88.7704 28.2267 88.8625 27.9044 88.8625 27.536C88.8625 27.1677 88.7704 26.8453 88.6323 26.569C88.4942 26.2928 88.264 26.1086 87.9877 25.9244ZM88.0798 28.3188C87.9877 28.503 87.8035 28.6872 87.6194 28.7793C87.4352 28.8714 87.251 28.9174 87.0208 28.9174C86.7906 28.9174 86.6064 28.8714 86.4222 28.7793C86.2381 28.6872 86.0999 28.5491 85.9618 28.3188C85.8697 28.1346 85.7777 27.8584 85.7777 27.5821C85.7777 27.3058 85.8237 27.0295 85.9618 26.8453C86.0999 26.6611 86.2381 26.4769 86.4222 26.3849C86.6064 26.2928 86.7906 26.2467 87.0208 26.2467C87.251 26.2467 87.4352 26.2928 87.6194 26.3849C87.8035 26.4769 87.9417 26.6151 88.0798 26.8453C88.1719 27.0295 88.264 27.3058 88.264 27.5821C88.264 27.8584 88.2179 28.0886 88.0798 28.3188Z" fill="#000285"/>
<path d="M93.2826 28.7793L92.2696 25.7863H91.625L90.6121 28.7793L89.8754 25.7863H89.2769L90.2898 29.3779H90.9344L91.9473 26.4309L92.9142 29.3779H93.5588L94.6178 25.7863H94.0193L93.2826 28.7793Z" fill="#000285"/>
<path d="M97.6566 25.9244C97.3804 25.7862 97.1041 25.6942 96.7358 25.6942C96.3674 25.6942 96.0912 25.7862 95.8149 25.9244C95.5387 26.0625 95.3545 26.2928 95.1703 26.569C94.9862 26.8453 94.9401 27.1677 94.9401 27.536C94.9401 27.9044 95.0322 28.2267 95.1703 28.503C95.3085 28.7793 95.5387 29.0095 95.8149 29.1477C96.0912 29.2858 96.3674 29.3779 96.7358 29.3779C97.0581 29.3779 97.2883 29.3319 97.5645 29.1937C97.7948 29.1016 97.9789 28.9174 98.1631 28.7332C98.3473 28.5491 98.3933 28.3188 98.4394 28.0425H97.7948C97.7487 28.2728 97.6106 28.503 97.4264 28.6412C97.2423 28.7793 97.012 28.8714 96.6897 28.8714C96.3674 28.8714 96.0912 28.7793 95.861 28.5491C95.6308 28.3649 95.5387 28.0425 95.4926 27.6281H98.3933C98.3933 27.536 98.4394 27.4439 98.4394 27.3058C98.4394 26.9835 98.3933 26.7072 98.2552 26.477C98.1171 26.2928 97.9329 26.1086 97.6566 25.9244ZM95.5847 27.3979C95.5847 26.9835 95.7228 26.7072 95.9531 26.523C96.1833 26.3388 96.4595 26.2007 96.7818 26.2007C96.966 26.2007 97.1962 26.2467 97.3343 26.3388C97.5185 26.4309 97.6566 26.569 97.7487 26.7532C97.8408 26.9374 97.8869 27.1677 97.8869 27.4439H95.5847V27.3979Z" fill="#000285"/>
<path d="M99.8666 26.477V25.7862H99.2681V29.3779H99.8666V27.49C99.8666 27.0756 99.9587 26.7993 100.189 26.6151C100.419 26.4309 100.695 26.3388 101.018 26.3388H101.202V25.6942C100.88 25.6942 100.603 25.7402 100.373 25.8783C100.143 26.0625 99.9587 26.2467 99.8666 26.477Z" fill="#000285"/>
<path d="M102.399 25.7863H101.8V29.3779H102.399V25.7863Z" fill="#000285"/>
<path d="M102.077 24.3588C101.939 24.3588 101.847 24.4049 101.801 24.4509C101.708 24.497 101.708 24.5891 101.708 24.7272C101.708 24.8193 101.754 24.9114 101.801 25.0035C101.893 25.0495 101.985 25.0956 102.077 25.0956C102.215 25.0956 102.307 25.0495 102.353 25.0035C102.445 24.9574 102.445 24.8653 102.445 24.7272C102.445 24.6351 102.399 24.543 102.353 24.4509C102.307 24.3588 102.215 24.3588 102.077 24.3588Z" fill="#000285"/>
<path d="M105.254 25.6942C104.931 25.6942 104.655 25.7862 104.425 25.9244C104.195 26.0625 104.011 26.2928 103.919 26.6151V25.7862H103.32V29.3779H103.919V27.49C103.919 27.0756 104.011 26.7532 104.195 26.569C104.379 26.3388 104.655 26.2467 104.977 26.2467C105.3 26.2467 105.53 26.3388 105.714 26.523C105.898 26.7072 105.99 26.9835 105.99 27.3518V29.3779H106.589V27.3058C106.589 26.7993 106.451 26.4309 106.221 26.1546C105.99 25.8323 105.668 25.6942 105.254 25.6942Z" fill="#000285"/>
<path d="M110.457 26.6611C110.364 26.3849 110.18 26.1546 109.95 25.9704C109.72 25.7862 109.398 25.6942 109.075 25.6942C108.753 25.6942 108.477 25.7862 108.2 25.9244C107.924 26.0625 107.74 26.2928 107.602 26.569C107.464 26.8453 107.372 27.1677 107.372 27.536C107.372 27.9044 107.464 28.2267 107.602 28.503C107.74 28.7793 107.924 29.0095 108.2 29.1477C108.431 29.2858 108.753 29.3779 109.075 29.3779C109.444 29.3779 109.72 29.2858 109.95 29.1016C110.18 28.9174 110.364 28.6872 110.457 28.4109V29.3779C110.457 29.7463 110.364 30.0226 110.134 30.2528C109.904 30.483 109.674 30.5751 109.352 30.5751C109.029 30.5751 108.799 30.5291 108.615 30.3909C108.431 30.2528 108.293 30.0686 108.2 29.8384H107.602C107.694 30.2528 107.878 30.5751 108.2 30.8054C108.523 31.0356 108.891 31.1737 109.398 31.1737C109.72 31.1737 110.042 31.0816 110.272 30.9435C110.549 30.8054 110.733 30.5751 110.871 30.3449C111.009 30.0686 111.101 29.7923 111.101 29.47V25.7862H110.503V26.6611H110.457ZM110.272 28.2728C110.18 28.457 110.042 28.6412 109.858 28.7333C109.674 28.8253 109.444 28.9174 109.213 28.9174C108.845 28.9174 108.569 28.7793 108.339 28.5491C108.108 28.3188 108.016 27.9965 108.016 27.5821C108.016 27.1677 108.108 26.8453 108.339 26.6151C108.569 26.3849 108.845 26.2467 109.213 26.2467C109.444 26.2467 109.674 26.2928 109.858 26.3849C110.042 26.477 110.18 26.6611 110.272 26.8453C110.364 27.0295 110.411 27.2597 110.411 27.536C110.411 27.8123 110.411 28.0425 110.272 28.2728Z" fill="#000285"/>
<path d="M115.015 28.5951L113.864 25.7863H113.173L114.692 29.3319L113.956 31.0816H114.646L116.764 25.7863H116.12L115.015 28.5951Z" fill="#000285"/>
<path d="M119.895 25.9244C119.619 25.7862 119.297 25.6942 118.974 25.6942C118.606 25.6942 118.33 25.7862 118.054 25.9244C117.777 26.0625 117.547 26.2928 117.409 26.569C117.271 26.8453 117.179 27.1677 117.179 27.536C117.179 27.9044 117.271 28.2267 117.409 28.503C117.547 28.7793 117.777 29.0095 118.054 29.1477C118.33 29.2858 118.652 29.3779 118.974 29.3779C119.343 29.3779 119.619 29.2858 119.895 29.1477C120.172 29.0095 120.402 28.7793 120.54 28.503C120.678 28.2267 120.77 27.9044 120.77 27.536C120.77 27.1677 120.678 26.8453 120.54 26.569C120.402 26.2928 120.172 26.1086 119.895 25.9244ZM119.987 28.3188C119.895 28.503 119.711 28.6872 119.527 28.7793C119.343 28.8714 119.159 28.9174 118.928 28.9174C118.698 28.9174 118.514 28.8714 118.33 28.7793C118.146 28.6872 118.008 28.5491 117.869 28.3188C117.777 28.1346 117.685 27.8584 117.685 27.5821C117.685 27.3058 117.731 27.0295 117.869 26.8453C117.961 26.6611 118.146 26.4769 118.33 26.3849C118.514 26.2928 118.698 26.2467 118.928 26.2467C119.159 26.2467 119.343 26.2928 119.527 26.3849C119.711 26.4769 119.849 26.6151 119.987 26.8453C120.079 27.0295 120.172 27.3058 120.172 27.5821C120.172 27.8584 120.126 28.0886 119.987 28.3188Z" fill="#000285"/>
<path d="M124.177 27.6742C124.177 28.0886 124.085 28.4109 123.901 28.5951C123.717 28.8253 123.441 28.9174 123.118 28.9174C122.796 28.9174 122.566 28.8254 122.382 28.6412C122.197 28.457 122.105 28.1807 122.105 27.8123V25.7863H121.507V27.9044C121.507 28.4109 121.645 28.7793 121.875 29.0556C122.151 29.3319 122.474 29.47 122.888 29.47C123.21 29.47 123.487 29.3779 123.717 29.2398C123.947 29.1016 124.131 28.8714 124.223 28.5491V29.3779H124.822V25.7863H124.223V27.6742H124.177Z" fill="#000285"/>
<path d="M130.209 26.6612C130.117 26.3849 129.933 26.1546 129.702 25.9704C129.472 25.7863 129.15 25.6942 128.828 25.6942C128.505 25.6942 128.229 25.7863 127.953 25.9244C127.676 26.0625 127.492 26.2928 127.354 26.5691C127.216 26.8453 127.124 27.1677 127.124 27.536C127.124 27.9044 127.216 28.2267 127.354 28.503C127.492 28.7793 127.676 29.0095 127.953 29.1477C128.183 29.2858 128.505 29.3779 128.828 29.3779C129.196 29.3779 129.472 29.2858 129.702 29.1016C129.933 28.9174 130.117 28.6872 130.209 28.4109V29.3319H130.807V24.4969H130.209V26.6612ZM130.071 28.2728C129.979 28.457 129.84 28.6412 129.656 28.7333C129.472 28.8254 129.242 28.9174 129.012 28.9174C128.643 28.9174 128.367 28.7793 128.137 28.5491C127.907 28.3188 127.815 27.9965 127.815 27.5821C127.815 27.1677 127.907 26.8453 128.137 26.6151C128.367 26.3849 128.643 26.2467 129.012 26.2467C129.242 26.2467 129.472 26.2928 129.656 26.3849C129.84 26.477 129.979 26.6612 130.071 26.8453C130.163 27.0295 130.209 27.2598 130.209 27.536C130.209 27.8123 130.163 28.0426 130.071 28.2728Z" fill="#000285"/>
<path d="M132.373 25.7863H131.774V29.3779H132.373V25.7863Z" fill="#000285"/>
<path d="M132.051 24.3588C131.912 24.3588 131.82 24.4049 131.774 24.4509C131.682 24.497 131.682 24.5891 131.682 24.7272C131.682 24.8193 131.728 24.9114 131.774 25.0035C131.866 25.0495 131.959 25.0956 132.051 25.0956C132.189 25.0956 132.281 25.0495 132.327 25.0035C132.419 24.9574 132.419 24.8653 132.419 24.7272C132.419 24.6351 132.373 24.543 132.327 24.4509C132.281 24.3588 132.189 24.3588 132.051 24.3588Z" fill="#000285"/>
<path d="M136.194 26.6611C136.102 26.3849 135.918 26.1546 135.688 25.9704C135.458 25.7862 135.135 25.6942 134.813 25.6942C134.491 25.6942 134.215 25.7862 133.938 25.9244C133.662 26.0625 133.478 26.2928 133.34 26.569C133.202 26.8453 133.109 27.1677 133.109 27.536C133.109 27.9044 133.202 28.2267 133.34 28.503C133.478 28.7793 133.662 29.0095 133.938 29.1477C134.168 29.2858 134.491 29.3779 134.813 29.3779C135.181 29.3779 135.458 29.2858 135.688 29.1016C135.918 28.9174 136.102 28.6872 136.194 28.4109V29.3779C136.194 29.7463 136.102 30.0226 135.872 30.2528C135.642 30.483 135.412 30.5751 135.089 30.5751C134.767 30.5751 134.537 30.5291 134.353 30.3909C134.168 30.2528 134.03 30.0686 133.938 29.8384H133.34C133.432 30.2528 133.616 30.5751 133.938 30.8054C134.261 31.0356 134.629 31.1737 135.135 31.1737C135.458 31.1737 135.78 31.0816 136.01 30.9435C136.286 30.8054 136.471 30.5751 136.609 30.3449C136.747 30.0686 136.839 29.7923 136.839 29.47V25.7862H136.24V26.6611H136.194ZM136.056 28.2728C135.964 28.457 135.826 28.6412 135.642 28.7333C135.458 28.8253 135.227 28.9174 134.997 28.9174C134.629 28.9174 134.353 28.7793 134.122 28.5491C133.892 28.3188 133.8 27.9965 133.8 27.5821C133.8 27.1677 133.892 26.8453 134.122 26.6151C134.353 26.3849 134.629 26.2467 134.997 26.2467C135.227 26.2467 135.458 26.2928 135.642 26.3849C135.826 26.477 135.964 26.6611 136.056 26.8453C136.148 27.0295 136.194 27.2597 136.194 27.536C136.194 27.8123 136.148 28.0425 136.056 28.2728Z" fill="#000285"/>
<path d="M138.036 24.3588C137.898 24.3588 137.806 24.4049 137.76 24.4509C137.668 24.497 137.668 24.5891 137.668 24.7272C137.668 24.8193 137.714 24.9114 137.76 25.0035C137.852 25.0495 137.944 25.0956 138.036 25.0956C138.174 25.0956 138.266 25.0495 138.312 25.0035C138.404 24.9574 138.404 24.8653 138.404 24.7272C138.404 24.6351 138.358 24.543 138.312 24.4509C138.266 24.3588 138.174 24.3588 138.036 24.3588Z" fill="#000285"/>
<path d="M138.358 25.7863H137.76V29.3779H138.358V25.7863Z" fill="#000285"/>
<path d="M140.2 28.7332C140.108 28.6411 140.062 28.503 140.062 28.2728V26.3388H140.983V25.7862H140.062V24.8653H139.463V25.7862H138.911V26.2927H139.463V28.2267C139.463 28.6411 139.556 28.9174 139.74 29.1016C139.924 29.2858 140.2 29.3779 140.568 29.3779H141.029V28.8714H140.661C140.43 28.8253 140.292 28.7793 140.2 28.7332Z" fill="#000285"/>
<path d="M144.62 26.6611C144.528 26.3849 144.344 26.1546 144.114 25.9704C143.884 25.7862 143.561 25.6942 143.239 25.6942C142.917 25.6942 142.64 25.7862 142.364 25.9244C142.088 26.0625 141.904 26.2928 141.766 26.569C141.627 26.8453 141.535 27.1677 141.535 27.536C141.535 27.9044 141.627 28.2267 141.766 28.503C141.904 28.7793 142.088 29.0095 142.364 29.1477C142.594 29.2858 142.917 29.3779 143.239 29.3779C143.607 29.3779 143.884 29.2858 144.114 29.1016C144.344 28.9174 144.528 28.6872 144.62 28.4109V29.3319H145.219V25.7862H144.62V26.6611ZM144.482 28.2728C144.39 28.457 144.252 28.6412 144.068 28.7332C143.884 28.8253 143.653 28.9174 143.423 28.9174C143.055 28.9174 142.779 28.7793 142.548 28.5491C142.318 28.3188 142.226 27.9965 142.226 27.5821C142.226 27.1677 142.318 26.8453 142.548 26.6151C142.779 26.3849 143.055 26.2467 143.423 26.2467C143.653 26.2467 143.884 26.2928 144.068 26.3849C144.252 26.4769 144.39 26.6611 144.482 26.8453C144.574 27.0295 144.62 27.2597 144.62 27.536C144.62 27.8123 144.574 28.0425 144.482 28.2728Z" fill="#000285"/>
<path d="M146.784 24.4969H146.186V29.3779H146.784V24.4969Z" fill="#000285"/>
<path d="M148.35 24.4969H147.751V29.3779H148.35V24.4969Z" fill="#000285"/>
<path d="M150.698 28.5951L149.547 25.7863H148.856L150.376 29.3319L149.639 31.0816H150.33L152.447 25.7863H151.803L150.698 28.5951Z" fill="#000285"/>
<path d="M44.247 16.1624C44.7535 16.0243 45.1679 15.7941 45.4441 15.4257C45.7664 15.0573 45.9046 14.5508 45.9046 13.9982C45.9046 13.2154 45.6283 12.6168 45.1219 12.2024C44.5693 11.788 43.8327 11.5577 42.8658 11.5577H38.4917V21.1355H42.9578C43.9708 21.1355 44.7535 20.9053 45.306 20.4448C45.8585 19.9843 46.1348 19.3397 46.1348 18.5108C46.1348 17.9583 45.9506 17.4517 45.6283 17.0373C45.306 16.6229 44.8456 16.3006 44.247 16.1624ZM40.8399 13.3996H42.3132C43.142 13.3996 43.5564 13.7219 43.5564 14.4126C43.5564 15.1033 43.142 15.4257 42.3593 15.4257H40.8399V13.3996ZM42.4974 19.2476H40.8399V17.0834H42.4974C42.9118 17.0834 43.2341 17.1755 43.4643 17.3596C43.6945 17.5438 43.7866 17.8201 43.7866 18.1885C43.7866 18.8792 43.3262 19.2476 42.4974 19.2476Z" fill="#000285"/>
<path d="M49.6801 11.5117H47.378V21.1355H52.765V19.3397H49.6801V11.5117Z" fill="#000285"/>
<path d="M59.4412 17.0373C59.4412 17.682 59.3031 18.1425 59.0268 18.5108C58.7505 18.8332 58.3362 19.0174 57.7836 19.0174C57.2311 19.0174 56.8168 18.8332 56.5405 18.5108C56.2642 18.1885 56.1261 17.682 56.1261 17.0373V11.5117H53.824V17.0373C53.824 17.9583 54.0081 18.695 54.3304 19.3397C54.6527 19.9843 55.1132 20.4448 55.7117 20.7211C56.3103 20.9974 57.0009 21.1816 57.7376 21.1816C58.5203 21.1816 59.211 21.0434 59.8095 20.7211C60.4081 20.3988 60.9145 19.9383 61.2368 19.3397C61.6052 18.7411 61.7433 17.9583 61.7433 17.0373V11.5117H59.4412V17.0373Z" fill="#000285"/>
<path d="M63.3088 21.1355H69.2483V19.2476H65.6109V17.1294H68.88V15.3797H65.6109V13.3536H69.2483V11.5117H63.3088V21.1355Z" fill="#000285"/>
<path d="M75.8324 15.3796H69.8469V17.3136H75.8324V15.3796Z" fill="#000285"/>
<path d="M86.5604 16.3006C86.5604 15.3797 86.3762 14.5508 85.9618 13.8141C85.5474 13.0773 84.9949 12.5248 84.2122 12.1103C83.4755 11.6959 82.5547 11.5117 81.5417 11.5117H77.9044V21.0895H81.5417C82.5547 21.0895 83.4295 20.9053 84.2122 20.4909C84.9949 20.0764 85.5474 19.5239 85.9618 18.7871C86.3762 18.0964 86.5604 17.2215 86.5604 16.3006ZM83.4755 18.3267C82.9691 18.7871 82.2784 19.0634 81.3576 19.0634H80.2525V13.5838H81.3576C82.2784 13.5838 82.9691 13.8141 83.4755 14.3206C83.982 14.781 84.2122 15.4718 84.2122 16.3466C84.2122 17.2215 83.982 17.8201 83.4755 18.3267Z" fill="#000285"/>
<path d="M91.7172 16.5308C92.0855 16.715 92.592 16.9452 93.1905 17.1294C93.6049 17.2676 93.9272 17.4057 94.1574 17.4978C94.3876 17.5899 94.5718 17.728 94.756 17.9122C94.8941 18.0964 94.9862 18.2806 94.9862 18.5108C94.9862 18.7871 94.8941 19.0174 94.7099 19.1555C94.5258 19.2936 94.2956 19.3857 94.0193 19.3857C93.697 19.3857 93.3747 19.2936 93.1905 19.0634C92.9603 18.8332 92.8222 18.5569 92.8222 18.1885H90.3359C90.3819 19.1094 90.7963 19.8462 91.4869 20.3988C92.1776 20.9053 93.0524 21.1816 94.1574 21.1816C94.8941 21.1816 95.4927 21.0434 95.9991 20.8132C96.5056 20.5829 96.8739 20.2146 97.1502 19.8002C97.4265 19.3857 97.5185 18.9253 97.5185 18.4187C97.5185 17.7741 97.3804 17.2676 97.1042 16.8992C96.8279 16.5308 96.5056 16.2085 96.0912 16.0243C95.7229 15.8401 95.2164 15.6099 94.5718 15.4257C94.1574 15.2876 93.8351 15.1494 93.6049 15.0573C93.3747 14.9652 93.1905 14.8271 93.0524 14.6889C92.9143 14.5508 92.8222 14.3206 92.8222 14.0903C92.8222 13.8141 92.9143 13.5838 93.0524 13.4457C93.2366 13.3075 93.4207 13.2154 93.697 13.2154C94.0193 13.2154 94.2495 13.3075 94.4337 13.4917C94.6179 13.6759 94.756 13.9061 94.802 14.2285H97.3344C97.2423 13.3536 96.92 12.6629 96.2754 12.1564C95.6308 11.6499 94.802 11.4196 93.743 11.4196C93.0984 11.4196 92.4999 11.5117 91.9934 11.7419C91.4869 11.9722 91.0726 12.2945 90.7963 12.7089C90.52 13.1234 90.3819 13.6299 90.3819 14.1824C90.3819 14.781 90.52 15.2876 90.7963 15.702C91.0265 16.0243 91.3488 16.3006 91.7172 16.5308Z" fill="#000285"/>
<path d="M104.747 19.2476H101.11V17.1294H104.333V15.3797H101.11V13.3536H104.747V11.5117H98.8077V21.1355H104.747V19.2476Z" fill="#000285"/>
<path d="M108.385 17.4978H108.891L110.963 21.1355H113.541L111.285 17.3597C112.022 17.1755 112.574 16.8532 112.943 16.3466C113.311 15.8401 113.541 15.2876 113.541 14.5508C113.541 13.9522 113.403 13.4457 113.127 12.9852C112.851 12.5248 112.482 12.1564 111.93 11.9261C111.423 11.6499 110.779 11.5117 109.996 11.5117H106.036V21.0895H108.339V17.4978H108.385ZM108.385 13.4917H109.812C110.272 13.4917 110.595 13.5838 110.825 13.8141C111.055 14.0443 111.147 14.3206 111.147 14.689C111.147 15.1034 111.055 15.3797 110.825 15.6099C110.595 15.7941 110.272 15.9322 109.812 15.9322H108.385V13.4917Z" fill="#000285"/>
<path d="M120.31 21.1355L123.671 11.5117H121.184L118.836 18.7411L116.488 11.5117H114.002L117.317 21.1355H120.31Z" fill="#000285"/>
<path d="M126.848 11.5117H124.546V21.0895H126.848V11.5117Z" fill="#000285"/>
<path d="M132.833 13.5838C133.34 13.5838 133.8 13.722 134.169 13.9522C134.537 14.2285 134.813 14.5508 134.997 15.0113H137.438C137.207 13.9061 136.701 13.0313 135.872 12.3866C135.043 11.7419 134.076 11.4196 132.833 11.4196C131.912 11.4196 131.084 11.6038 130.393 12.0182C129.702 12.4326 129.15 12.9852 128.782 13.768C128.413 14.5048 128.183 15.3336 128.183 16.3006C128.183 17.2676 128.367 18.0964 128.782 18.8332C129.15 19.5699 129.702 20.1685 130.393 20.5829C131.084 20.9974 131.912 21.1816 132.833 21.1816C134.076 21.1816 135.043 20.8592 135.872 20.2146C136.701 19.5699 137.207 18.695 137.438 17.6359H134.997C134.813 18.0504 134.537 18.4187 134.169 18.649C133.8 18.8792 133.34 19.0174 132.833 19.0174C132.143 19.0174 131.59 18.7871 131.176 18.2806C130.761 17.7741 130.531 17.1294 130.531 16.3006C130.531 15.4717 130.761 14.8271 131.176 14.3206C131.59 13.8141 132.143 13.5838 132.833 13.5838Z" fill="#000285"/>
<path d="M144.712 19.2476H141.075V17.1294H144.298V15.3797H141.075V13.3536H144.712V11.5117H138.727V21.1355H144.712V19.2476Z" fill="#000285"/>
<path d="M152.493 16.8992C152.217 16.5308 151.895 16.2085 151.481 16.0243C151.112 15.8401 150.606 15.6099 149.961 15.4257C149.547 15.2876 149.224 15.1494 148.994 15.0573C148.764 14.9652 148.58 14.8271 148.442 14.6889C148.304 14.5508 148.211 14.3206 148.211 14.0903C148.211 13.8141 148.304 13.5838 148.442 13.4457C148.626 13.3075 148.81 13.2154 149.086 13.2154C149.409 13.2154 149.639 13.3075 149.823 13.4917C150.007 13.6759 150.145 13.9062 150.191 14.2285H152.724C152.632 13.3536 152.309 12.6629 151.665 12.1564C151.02 11.6499 150.191 11.4196 149.132 11.4196C148.488 11.4196 147.889 11.5117 147.383 11.7419C146.876 11.9722 146.462 12.2945 146.186 12.7089C145.909 13.1234 145.771 13.6299 145.771 14.1824C145.771 14.781 145.909 15.2876 146.186 15.702C146.462 16.0704 146.784 16.3927 147.199 16.5769C147.567 16.7611 148.073 16.9913 148.672 17.1755C149.086 17.3136 149.409 17.4518 149.639 17.5439C149.869 17.636 150.053 17.7741 150.237 17.9583C150.376 18.1425 150.468 18.3267 150.468 18.5569C150.468 18.8332 150.376 19.0634 150.191 19.2015C150.007 19.3397 149.777 19.4318 149.501 19.4318C149.178 19.4318 148.856 19.3397 148.672 19.1095C148.442 18.8792 148.304 18.6029 148.304 18.2346H145.817C145.863 19.1555 146.278 19.8923 146.968 20.4448C147.659 20.9513 148.534 21.2276 149.639 21.2276C150.376 21.2276 150.974 21.0895 151.481 20.8592C151.987 20.629 152.355 20.2606 152.632 19.8462C152.908 19.4318 153 18.9713 153 18.4648C152.908 17.7741 152.77 17.2676 152.493 16.8992Z" fill="#000285"/>
<path d="M32.5522 14.4127C31.6314 13.5378 30.7105 12.6629 29.8357 11.8341L20.3049 2.76281C19.5682 2.07211 18.8315 1.33536 18.0948 0.644657C17.7725 0.322328 17.3581 0.138141 16.8977 0.0460469C16.8056 0.0460469 16.7135 0 16.5754 0H16.4833C16.4373 0 16.3452 0.0460469 16.2992 0.0460469C15.7466 0.0920938 15.2862 0.368375 14.8718 0.73675C13.6747 1.88792 12.5236 2.99305 11.3265 4.14422C10.5438 4.88097 9.80712 5.61772 9.0244 6.35447C8.97836 6.40052 8.93231 6.40052 8.93231 6.49261H9.11648C11.5567 6.49261 13.997 6.49261 16.4373 6.49261C16.8517 6.49261 17.3121 6.49261 17.7265 6.53866C18.325 6.58471 18.9236 6.63075 19.5221 6.72285C20.7193 6.90703 21.8703 7.22936 22.9293 7.82797C23.666 8.24239 24.3106 8.74891 24.8171 9.43961C25.3696 10.1764 25.6919 11.0513 25.784 11.9722C25.784 12.0643 25.83 12.1103 25.9221 12.1564C26.0142 12.2024 26.1523 12.2485 26.2444 12.2945C27.3034 12.755 28.1782 13.4457 28.9149 14.3666C29.5595 15.1955 29.9278 16.1625 30.112 17.1755C30.2501 17.7741 30.2961 18.3727 30.3422 18.9713C30.3882 19.4778 30.3422 19.9844 30.2961 20.4909C30.2961 20.6751 30.2501 20.8592 30.2501 21.0434C30.3882 20.8592 30.2041 21.1816 31.0328 19.5699C31.4012 18.8792 31.8616 18.3267 32.4141 17.8202C32.8285 17.4518 33.1047 16.9913 33.1508 16.4848C33.1508 16.4387 33.1508 16.4387 33.1968 16.3927V15.8401C33.1968 15.748 33.1508 15.702 33.1508 15.6099C33.1047 15.0573 32.8745 14.689 32.5522 14.4127Z" fill="#000285"/>
<path d="M6.95245 8.38051C6.95245 8.38051 6.95245 8.33446 6.95245 8.38051C6.90641 8.42656 6.86037 8.42656 6.81432 8.4726L3.13091 11.9722C2.30214 12.755 1.51941 13.5378 0.690641 14.3206C0.230214 14.735 0 15.2415 0 15.8401C0 16.3466 0.138128 16.761 0.460427 17.1755C0.828769 17.682 1.19711 18.1425 1.56545 18.649C3.31508 20.9513 5.0647 23.2537 6.81432 25.556C6.86037 25.6021 6.86037 25.6481 6.90641 25.6941V25.6481C6.95245 19.8922 6.95245 14.1364 6.95245 8.38051Z" fill="#000285"/>
<path d="M20.9495 32.2328C19.7524 32.5551 18.5092 32.6933 17.2661 32.6933C15.6085 32.6933 13.997 32.6933 12.3395 32.6933H12.1553C12.3395 32.9235 12.0632 32.6472 13.5366 34.1207C14.2733 34.8575 14.8258 35.7784 15.2862 36.7454C16.0229 38.311 18.1409 38.4031 19.1078 37.0677C20.3509 35.2259 21.5941 33.43 22.8833 31.5882C22.8833 31.5421 22.9293 31.5421 22.9293 31.45C22.8833 31.4961 22.8373 31.4961 22.7912 31.4961C22.1927 31.8184 21.5941 32.0486 20.9495 32.2328Z" fill="#000285"/>
<path d="M12.9841 28.0886H13.1222C13.1222 28.0886 15.056 28.1807 15.9768 28.1807C16.2531 28.1807 16.5754 28.1807 16.8517 28.1346C17.3121 28.0886 17.8186 27.9965 18.279 27.8584C18.325 27.8584 18.325 27.8123 18.3711 27.8123V27.6281H14.8258V23.9444C14.8258 23.9444 14.8258 22.9313 14.8258 22.5169C14.8258 22.1025 14.8258 21.642 14.8258 21.2276H12.9841V28.0886Z" fill="#000285"/>
<path d="M24.8631 15.8862C24.817 15.8401 24.817 15.7941 24.771 15.748C24.7249 15.7941 24.7249 15.7941 24.6789 15.8401C23.9422 16.8071 23.0214 17.4978 21.9163 18.0043C21.548 18.1885 21.1336 18.3267 20.7192 18.4648C20.6732 18.4648 20.6271 18.4648 20.6271 18.5569C20.6732 18.5569 20.7192 18.5569 20.7653 18.603C21.3638 18.695 21.9624 18.8332 22.5149 19.0174C23.8041 19.4778 24.9091 20.2146 25.6918 21.3197C25.6918 21.3197 25.7379 21.3658 25.7379 21.4118C25.7839 21.3197 25.7839 21.2737 25.7839 21.2276C26.0602 20.2146 26.1062 19.1555 25.876 18.1425C25.7839 17.2676 25.4616 16.4848 24.8631 15.8862Z" fill="#000285"/>
<path d="M18.1869 11.0513C18.1408 11.0513 18.1408 11.0052 18.1869 11.0513C18.0948 11.0052 18.0487 11.0052 18.0487 10.9592C17.3581 10.7289 16.6675 10.6368 15.9308 10.6368C15.0099 10.6368 14.043 10.6368 13.1222 10.6368C13.0761 10.6368 13.0761 10.6368 13.0301 10.6368V10.6829C13.0301 12.755 13.0301 14.8732 13.0301 16.9453V16.9913H14.8718V13.3997C14.8718 12.9852 14.8718 12.6169 14.8718 12.2024C14.8718 11.788 14.8718 11.4196 14.8718 11.0052L18.1869 11.0513Z" fill="#000285"/>
<path d="M18.5092 24.8653H20.443C20.443 24.2206 20.3509 23.622 19.9826 23.0695C19.6142 22.5169 19.1078 22.1485 18.5092 21.8723V24.8653Z" fill="#000285"/>
<path d="M18.6013 14.2745C18.5552 14.5508 18.6013 15.8401 18.6013 15.9322C19.0617 15.4718 19.338 14.9192 19.43 14.2745H18.6013Z" fill="#000285"/>
</svg>
