<svg width="19" height="13" viewBox="0 0 19 13" fill="none" xmlns="http://www.w3.org/2000/svg">
<path d="M2.49891 1.7538H16.5011L9.9415 6.67387L9.94094 6.67429C9.83934 6.75161 9.67428 6.80503 9.50042 6.80424L9.49952 6.80425C9.3257 6.80503 9.16066 6.75161 9.05902 6.67428L9.05847 6.67387L2.49891 1.7538ZM13.0912 7.15329L13.0912 7.1533L16.6744 11.5796H2.32564L5.90878 7.1533L5.9088 7.15327C6.05703 6.97002 6.02892 6.7013 5.84535 6.55275L5.84533 6.55274C5.66214 6.40457 5.39342 6.43256 5.24506 6.61594C5.24505 6.61595 5.24504 6.61596 5.24503 6.61597L1.75384 10.9287V2.26247L8.54637 7.35689L8.54664 7.35709C8.82813 7.56673 9.16797 7.65714 9.49966 7.65805L9.50014 7.65805C9.83145 7.65735 10.1716 7.56692 10.4532 7.35708L10.4535 7.35688L17.246 2.26247V10.9286L13.7549 6.61596C13.7549 6.61596 13.7549 6.61595 13.7549 6.61594C13.6066 6.43269 13.3378 6.40448 13.1547 6.55269C12.971 6.701 12.9429 6.97006 13.0912 7.15329ZM17.1282 0.9H1.87181C1.33707 0.9 0.9 1.33706 0.9 1.87178V11.4615C0.9 11.9962 1.33706 12.4334 1.87181 12.4334H17.1282C17.6629 12.4334 18.1 11.9963 18.1 11.4615V1.87178C18.1 1.33706 17.6629 0.9 17.1282 0.9Z" fill="white" stroke="white" stroke-width="0.2" stroke-linecap="round" stroke-linejoin="round"/>
</svg>
