<svg width="85" height="85" viewBox="0 0 85 85" fill="none" xmlns="http://www.w3.org/2000/svg">
<path d="M49.1407 32.4253L54.178 37.4626C54.9561 38.2389 56.0103 38.6748 57.1094 38.6748C58.2085 38.6748 59.2627 38.2389 60.0408 37.4626L73.9861 23.5173C74.2352 23.2682 74.3751 22.9304 74.3751 22.5781C74.3751 22.2259 74.2352 21.8881 73.9861 21.6389L55.3924 3.0452C55.1432 2.79621 54.8054 2.65634 54.4532 2.65634C54.1009 2.65634 53.7631 2.79621 53.514 3.0452L43.8282 12.731L38.7908 7.69363C38.0127 6.91747 36.9585 6.48159 35.8594 6.48159C34.7604 6.48159 33.7062 6.91747 32.928 7.69363L19.9219 20.6998L16.8767 17.6546C16.6276 17.4056 16.2898 17.2657 15.9375 17.2657C15.5853 17.2657 15.2475 17.4056 14.9984 17.6546L11.014 21.6389C10.7649 21.8881 10.625 22.2259 10.625 22.5781C10.625 22.9304 10.7649 23.2682 11.014 23.5173L36.6373 49.1406L34.9202 50.8577C34.6712 51.1068 34.5313 51.4446 34.5313 51.7969V59.2156L33.2032 60.5436L32.8142 60.1546C32.5651 59.9056 32.2273 59.7657 31.875 59.7657C31.5228 59.7657 31.185 59.9056 30.9359 60.1546L11.014 80.0765L12.8924 81.9548L31.875 62.972L44.6062 75.7031L40.2327 80.0765L42.1111 81.9548L47.4236 76.6423C47.6727 76.3932 47.8126 76.0554 47.8126 75.7031C47.8126 75.3509 47.6727 75.0131 47.4236 74.764L45.7065 73.0469L53.125 65.6284L65.4671 77.9705C65.7162 78.2195 66.054 78.3594 66.4063 78.3594C66.7585 78.3594 67.0964 78.2195 67.3455 77.9705L71.3299 73.9861C71.5789 73.737 71.7188 73.3991 71.7188 73.0469C71.7188 72.6946 71.5789 72.3568 71.3299 72.1077L58.9878 59.7656L60.7049 58.0486C60.9539 57.7995 61.0938 57.4616 61.0938 57.1094C61.0938 56.7571 60.9539 56.4193 60.7049 56.1702L50.0799 45.5452C49.8307 45.2962 49.4929 45.1563 49.1407 45.1563C48.7884 45.1563 48.4506 45.2962 48.2015 45.5452L48.0851 45.6616C47.9048 44.109 47.2034 42.6634 46.0955 41.5608C45.8463 41.3118 45.5085 41.172 45.1563 41.172C44.8041 41.172 44.4662 41.3118 44.2171 41.5608L42.5 43.2779L40.394 41.1719L49.1407 32.4253ZM55.5062 30.2718L54.178 31.5999C53.8178 31.9599 53.5274 32.3835 53.3215 32.8493L51.019 30.5469L53.4002 28.1658C53.6794 27.8865 54.0582 27.7296 54.4532 27.7296C54.8481 27.7296 55.2269 27.8865 55.5062 28.1658C55.7854 28.445 55.9423 28.8238 55.9423 29.2188C55.9423 29.6137 55.7854 29.9925 55.5062 30.2718ZM54.4532 5.8626L71.1687 22.5781L58.1624 35.5843C57.8831 35.8635 57.5044 36.0204 57.1094 36.0204C56.7145 36.0204 56.3357 35.8635 56.0564 35.5843C55.7771 35.305 55.6203 34.9262 55.6203 34.5313C55.6203 34.1363 55.7771 33.7575 56.0564 33.4783L57.3845 32.1501C58.1619 31.3726 58.5985 30.3182 58.5985 29.2188C58.5985 28.1193 58.1619 27.0649 57.3845 26.2874L45.7065 14.6094L54.4532 5.8626ZM34.8064 9.57201C35.0859 9.2931 35.4646 9.13646 35.8594 9.13646C36.2542 9.13646 36.6329 9.2931 36.9124 9.57201L52.7705 25.4299C52.3049 25.6363 51.8816 25.927 51.5218 26.2874L34.5313 43.2779L17.8158 26.5626L34.8064 9.57201ZM15.9375 20.472L18.0435 22.5781L15.9375 24.6842L13.8314 22.5781L15.9375 20.472ZM68.5125 73.0469L66.4063 75.1531L55.0034 63.75L57.1094 61.644L68.5125 73.0469ZM49.1407 48.3626L57.8875 57.1094L53.125 61.8718L44.3783 53.125L46.0954 51.4079L46.0955 51.408L46.0987 51.4045L49.1407 48.3626ZM45.0094 44.5251C45.4222 45.3362 45.5678 46.2571 45.4255 47.1559C45.2832 48.0548 44.8602 48.8857 44.2171 49.5296L41.5609 52.1858C41.3118 52.4349 41.1719 52.7728 41.1719 53.125C41.1719 53.4773 41.3118 53.8151 41.5609 54.0642C42.7191 55.2249 43.3696 56.7978 43.3696 58.4375C43.3696 60.0773 42.7191 61.6501 41.5609 62.8108L43.4392 64.6892C45.0763 63.0537 46.0042 60.8398 46.0224 58.5258L51.2467 63.75L43.8282 71.1685L35.0815 62.4219L36.7986 60.7048C37.0476 60.4557 37.1875 60.1179 37.1875 59.7656V52.347L45.0094 44.5251ZM40.6217 45.1563L38.5157 47.2623L36.4097 45.1563L38.5157 43.0503L40.6217 45.1563Z" fill="#A6C5FF"/>
</svg>
