<svg width="533" height="649" viewBox="0 0 533 649" fill="none" xmlns="http://www.w3.org/2000/svg">
<rect y="115.042" width="533" height="533" rx="266.5" fill="#E4EFFB"/>
<g clip-path="url(#clip0)">
<path d="M160.814 465.288H277.063V375.828H160.814V465.288Z" fill="#EEEEEE"/>
<path d="M247.942 464.657C247.781 464.657 247.65 444.715 247.65 420.122C247.65 395.521 247.781 375.585 247.942 375.585C248.101 375.585 248.232 395.521 248.232 420.122C248.232 444.715 248.101 464.657 247.942 464.657Z" fill="#E3E3E2"/>
<path d="M258.297 454.978H267.208V444.926H258.297V454.978Z" fill="#FCFDFD"/>
<path d="M196.281 376.058V395.147H209.486V376.058H196.281Z" fill="#E3E3E2"/>
<path d="M196.281 445.932V465.022H209.486V445.932H196.281Z" fill="#E3E3E2"/>
<path d="M341.42 466.197H487.997V353.398H341.42V466.197Z" fill="#EEEEEE"/>
<path d="M451.275 465.401C451.114 465.401 450.984 440.257 450.984 409.25C450.984 378.231 451.114 353.093 451.275 353.093C451.435 353.093 451.565 378.231 451.565 409.25C451.565 440.257 451.435 465.401 451.275 465.401Z" fill="#E3E3E2"/>
<path d="M475.569 453.197H464.332V440.523H475.569V453.197Z" fill="#FCFDFD"/>
<path d="M386.137 377.758H402.786V353.689H386.137V377.758Z" fill="#E3E3E2"/>
<path d="M386.137 465.862H402.786V441.792H386.137V465.862Z" fill="#E3E3E2"/>
<path d="M65.3328 356.717C71.2652 353.664 78.2507 353.266 84.8372 354.353C88.3753 354.935 92.0642 355.991 94.4717 358.644C96.8792 361.295 97.3357 365.962 94.5712 368.241C92.9253 369.597 90.6302 369.803 88.496 369.779C83.34 369.719 77.6194 368.812 73.5006 371.908C71.1502 373.673 69.5862 376.61 66.7763 377.477C64.0278 378.328 60.9254 376.709 59.4678 374.233C58.0107 371.759 57.9615 368.664 58.6412 365.874C58.6412 365.874 59.3566 359.793 65.3328 356.717Z" fill="#EEEEEE"/>
<path d="M51.7419 330.538C55.3693 335.708 62.4197 333.996 65.6892 330.84C68.9579 327.685 70.3395 323.112 71.5974 318.751C74.471 308.787 77.369 298.334 75.2318 288.188C74.5927 285.153 73.4564 282.128 71.3193 279.878C69.1829 277.626 65.8977 276.288 62.8936 277.08C59.3391 278.017 57.1295 281.491 55.5328 284.796C50.8386 294.509 48.3538 305.278 48.3168 316.062C48.2989 321.098 48.8941 326.381 51.7419 330.538Z" fill="#EEEEEE"/>
<path d="M41.7783 337.956C45.7171 333.292 46.4648 326.489 44.7121 320.645C42.9594 314.802 39.0002 309.832 34.4366 305.774C29.0862 301.016 22.7974 297.314 16.0361 294.942C13.3757 294.009 10.5687 293.272 7.76184 293.539C4.95405 293.807 2.12666 295.239 0.81694 297.731C-1.11929 301.416 0.737154 305.885 2.7449 309.533C6.28296 315.956 10.3281 322.102 14.8301 327.894C18.4528 332.555 22.6025 337.149 28.1231 339.255C33.6431 341.362 39.3782 341.114 42.304 337.294" fill="#EEEEEE"/>
<path d="M51.4919 408.518C51.56 408.522 51.6702 407.684 51.8198 406.169C51.9872 404.459 52.1965 402.312 52.4454 399.759C52.745 397.06 53.14 393.851 53.8907 390.355C54.6394 386.868 55.8113 383.09 57.3163 379.258C58.8746 375.447 60.775 371.986 62.996 369.215C65.2012 366.433 67.7657 364.421 70.1768 363.259C72.5799 362.075 74.7345 361.595 76.2239 361.381C77.7259 361.227 78.5673 361.109 78.5678 361.042C78.5687 360.976 77.7259 360.964 76.1825 361.006C74.6539 361.107 72.4094 361.494 69.8772 362.643C67.3362 363.767 64.6156 365.812 62.3023 368.652C59.9702 371.478 58.0008 375.017 56.4147 378.895C54.8839 382.795 53.7289 386.612 53.0139 390.175C52.3006 393.731 51.9742 396.976 51.7609 399.696C51.5568 402.418 51.4802 404.622 51.4431 406.146C51.4086 407.67 51.426 408.514 51.4919 408.518Z" fill="#E3E3E2"/>
<path d="M51.9354 403.586C51.969 403.584 51.9894 403.208 51.9986 402.495C51.9964 401.676 51.9938 400.645 51.9903 399.378C51.9829 396.674 51.9838 392.758 52.1294 387.925C52.3692 378.259 53.2037 367.854 54.8147 353.185C56.3407 339.392 58.3885 323.34 60.5502 312.904C61.0136 310.53 61.4806 308.394 61.9196 306.525C62.339 304.65 62.6961 303.034 63.0419 301.726C63.3383 300.494 63.5798 299.492 63.7721 298.697C63.9286 298.001 63.9949 297.63 63.9631 297.621C63.9309 297.612 63.8009 297.964 63.583 298.643C63.3449 299.427 63.0449 300.415 62.6761 301.63C62.2741 302.925 61.8621 304.53 61.3912 306.398C60.9007 308.261 60.3858 310.391 59.8783 312.761C57.7398 322.218 55.4757 335.434 53.849 350.139C52.2341 364.837 51.5063 378.22 51.4423 387.912C51.3844 392.758 51.488 396.68 51.6119 399.388C51.69 400.654 51.7527 401.685 51.8025 402.502C51.8569 403.214 51.9018 403.587 51.9354 403.586Z" fill="#E3E3E2"/>
<path d="M51.9996 377.773C52.0668 377.769 52.0549 376.613 51.9769 374.517C51.8561 372.424 51.568 369.399 50.9772 365.694C50.3511 361.999 49.4761 357.612 48.1018 352.843C47.5062 350.663 46.1067 345.44 42.7155 337.635C38.2471 327.06 32.1772 318.414 26.897 313.06C25.6579 311.638 24.2789 310.612 23.1758 309.608C22.6047 309.125 22.0997 308.646 21.5862 308.266C21.0695 307.91 20.5881 307.58 20.1421 307.272C18.4043 306.086 17.4307 305.46 17.395 305.517C17.239 305.73 21.288 308.106 26.4 313.533C31.4919 318.949 37.3921 327.535 41.8235 338.021C44.2948 343.708 46.0177 348.782 47.2407 353.088C48.6534 357.81 49.5912 362.154 50.3001 365.813C50.9737 369.48 51.3639 372.473 51.5993 374.548C51.7933 376.623 51.9325 377.775 51.9996 377.773Z" fill="#E3E3E2"/>
<path d="M25.2617 419.385L27.8542 454.822H73.4811L76.0735 419.385H25.2617Z" fill="#EEEEEE"/>
<path d="M20.8574 405.418V419.385H81.5208V405.418H20.8574Z" fill="#EEEEEE"/>
<path d="M20.8574 453.466V457.337H80.5184V453.466H20.8574Z" fill="#E3E3E2"/>
<path d="M26.5029 463.722L23.709 456.908H78.3461L75.0862 463.722H26.5029Z" fill="#E3E3E2"/>
<path d="M75.2264 430.968C75.2369 430.975 75.1645 431.086 75.014 431.293C74.8331 431.532 74.6086 431.829 74.3322 432.194C73.6842 433.022 72.7945 434.159 71.6744 435.589L71.5562 435.74L71.4416 435.582C69.7713 433.277 67.539 430.196 64.9117 426.57H65.2876C63.3448 429.315 61.181 432.371 58.8584 435.654L58.657 435.938L58.4311 435.67C56.0581 432.853 53.4814 429.795 50.8061 426.619L51.246 426.613C51.1135 426.78 50.9705 426.959 50.8262 427.139C48.4618 430.097 46.1733 432.96 44.0086 435.667L43.7814 435.951L43.5717 435.657C41.257 432.388 39.0945 429.335 37.1396 426.575L37.5132 426.593C34.3436 430.196 31.6552 433.252 29.5921 435.599L29.4513 435.758L29.3441 435.577C28.2998 433.828 27.467 432.431 26.8632 431.42C26.6043 430.968 26.3946 430.604 26.2271 430.313C26.0863 430.059 26.0204 429.926 26.0327 429.918C26.0444 429.91 26.1352 430.031 26.2987 430.27C26.4835 430.549 26.7154 430.9 27.0027 431.334C27.6358 432.328 28.51 433.699 29.606 435.417L29.3589 435.397C31.3888 433.022 34.0339 429.929 37.1531 426.282L37.3497 426.052L37.5276 426.299C39.5004 429.047 41.6826 432.086 44.0173 435.339L43.5808 435.328C45.7399 432.616 48.0227 429.749 50.3823 426.786C50.5262 426.607 50.6692 426.427 50.8018 426.261L51.0189 425.989L51.2416 426.255C53.9095 429.437 56.4788 432.501 58.8449 435.325L58.4181 435.34C60.7642 432.076 62.9498 429.033 64.9113 426.303L65.1018 426.039L65.2876 426.303C67.8595 429.969 70.0442 433.083 71.6796 435.414L71.4472 435.406C72.6122 434.013 73.5383 432.905 74.2123 432.099C74.5126 431.752 74.7564 431.47 74.9531 431.243C75.1235 431.053 75.2164 430.959 75.2264 430.968Z" fill="#F8F8F9"/>
<path d="M76.7097 419.151C76.7097 419.308 65.2767 419.436 51.1772 419.436C37.0725 419.436 25.6426 419.308 25.6426 419.151C25.6426 418.996 37.0725 418.869 51.1772 418.869C65.2767 418.869 76.7097 418.996 76.7097 419.151Z" fill="#F8F8F9"/>
<path d="M397.025 63.7565L387.672 63.8066L387.422 17.3684L396.775 17.3194L397.025 63.7565Z" fill="#E3E3E2"/>
<path d="M330.75 43.0769L306.529 43.2061L306.391 17.5704L330.613 17.4412L330.75 43.0769Z" fill="#EEEEEE"/>
<path d="M354.861 42.9471L330.638 43.0774L330.5 17.4406L354.723 17.3114L354.861 42.9471Z" fill="#F8F8F9"/>
<path d="M306.429 24.6494C322.526 24.783 338.663 24.6895 354.759 24.4278C355.09 24.4222 355.088 23.9166 354.755 23.9144C338.658 23.8264 322.521 23.9044 306.427 24.2095C306.143 24.2151 306.144 24.6472 306.429 24.6494Z" fill="#E3E3E2"/>
<path d="M335.41 63.5399L291.403 63.7749L291.291 42.8833L335.297 42.6483L335.41 63.5399Z" fill="#EEEEEE"/>
<path d="M379.208 63.3064L335.2 63.5425L335.088 42.6497L379.095 42.4148L379.208 63.3064Z" fill="#F8F8F9"/>
<path d="M291.324 48.6945C320.558 49.0241 349.895 48.729 379.13 48.2613C379.461 48.2557 379.46 47.7501 379.127 47.749C349.89 47.5942 320.55 47.612 291.322 48.2535C291.037 48.2602 291.039 48.6911 291.324 48.6945Z" fill="#E3E3E2"/>
<path d="M445.361 71.2612H274.863V63.7754H445.361V71.2612Z" fill="#E3E3E2"/>
<path d="M309.702 92.9146H302.779V67.3746H309.702V92.9146Z" fill="#E3E3E2"/>
<path d="M413.023 92.9146H406.102V67.3746H413.023V92.9146Z" fill="#E3E3E2"/>
<path d="M406.25 63.8701L396.897 63.9202L396.553 0.0526581L405.906 0.00252151L406.25 63.8701Z" fill="#EEEEEE"/>
<path d="M420.799 63.6484L406.264 63.7263L405.986 11.9694L420.521 11.8915L420.799 63.6484Z" fill="#F8F8F9"/>
<path d="M420.425 21.863C420.425 22.001 417.171 22.1135 413.158 22.1135C409.143 22.1135 405.891 22.001 405.891 21.863C405.891 21.7238 409.143 21.6113 413.158 21.6113C417.171 21.6113 420.425 21.7238 420.425 21.863Z" fill="#E3E3E2"/>
<path d="M420.425 19.6885C420.425 19.8277 417.171 19.9402 413.158 19.9402C409.143 19.9402 405.891 19.8277 405.891 19.6885C405.891 19.5504 409.143 19.4379 413.158 19.4379C417.171 19.4379 420.425 19.5504 420.425 19.6885Z" fill="#E3E3E2"/>
<path d="M420.425 55.8617C420.425 56.0009 417.171 56.1123 413.158 56.1123C409.143 56.1123 405.891 56.0009 405.891 55.8617C405.891 55.7225 409.143 55.6101 413.158 55.6101C417.171 55.6101 420.425 55.7225 420.425 55.8617Z" fill="#E3E3E2"/>
<path d="M420.425 53.6873C420.425 53.8265 417.171 53.939 413.158 53.939C409.143 53.939 405.891 53.8265 405.891 53.6873C405.891 53.5492 409.143 53.4367 413.158 53.4367C417.171 53.4367 420.425 53.5492 420.425 53.6873Z" fill="#E3E3E2"/>
<path d="M413.389 48.9429C413.249 48.9429 413.137 43.7211 413.137 37.281C413.137 30.8398 413.249 25.618 413.389 25.618C413.527 25.618 413.641 30.8398 413.641 37.281C413.641 43.7211 413.527 48.9429 413.389 48.9429Z" fill="#E3E3E2"/>
<path d="M436.399 63.6675H420.578V24.6015H436.399V63.6675Z" fill="#EEEEEE"/>
<path d="M403.78 10.9062C403.78 12.3884 402.577 13.5889 401.091 13.5889C399.606 13.5889 398.402 12.3884 398.402 10.9062C398.402 9.42504 399.606 8.22454 401.091 8.22454C402.577 8.22454 403.78 9.42504 403.78 10.9062Z" fill="#E3E3E2"/>
<path d="M401.925 56.2786H400.262V18.2839H401.925V56.2786Z" fill="#E3E3E2"/>
<path d="M493.031 465.587C493.031 465.747 385.755 465.876 253.456 465.876C121.11 465.876 13.8574 465.747 13.8574 465.587C13.8574 465.426 121.11 465.297 253.456 465.297C385.755 465.297 493.031 465.426 493.031 465.587Z" fill="#1D2A30"/>
<path d="M140.945 56.8851C146.185 63.2284 149.091 71.448 149.002 79.6677C148.95 84.3638 148.083 89.5444 150.822 93.3653C152.9 96.2651 156.691 97.7162 158.38 100.859C160.41 104.637 158.679 109.409 159.929 113.512C161.7 119.328 168.526 121.759 172.575 126.302C176.085 130.241 177.384 136.005 175.97 141.084C174.557 146.162 170.497 150.413 165.505 152.136C162.824 153.061 159.76 153.26 157.221 151.998C154.483 150.637 152.792 147.843 151.42 145.114C148.725 139.752 125.094 110.735 123.756 104.886" fill="#1D2A30"/>
<path d="M123.757 50.0442C114.095 48.4929 104.808 54.8941 100.737 63.773C96.6654 72.6542 96.5538 82.7525 96.2535 92.5146C95.9531 102.274 95.2663 112.464 90.2721 120.863C87.1029 126.193 82.1949 130.869 81.4249 137.018C80.7362 142.525 83.5927 148.071 82.6444 153.539C81.8187 158.3 78.1825 162.441 78.3264 167.271C78.4999 173.081 84.4892 177.459 90.3126 177.613C96.1357 177.769 101.576 174.725 106.142 171.115C113.549 165.258 119.554 157.645 123.519 149.085" fill="#1D2A30"/>
<path d="M107.86 73.0361C106.584 62.8687 113.955 53.5766 124.303 52.5932C134.056 51.6656 142.724 58.9108 144.186 68.5771C145.467 77.0496 146.568 85.6033 146.529 88.7092C146.409 98.0771 140.916 101.724 138.689 102.819C138.181 103.068 136.779 103.352 136.219 103.432L136.167 103.505L138.252 114.258C139.196 121.304 135.255 127.587 128.205 128.613C121.131 129.642 115.602 124.231 114.523 117.18L107.86 73.0361Z" fill="#F9AD95"/>
<path d="M142.265 72.6797C142.11 72.8991 140.87 72.2365 139.282 72.4714C137.691 72.6842 136.645 73.6686 136.444 73.4993C136.347 73.4258 136.483 73.0517 136.937 72.6095C137.382 72.1696 138.184 71.6886 139.174 71.5482C140.165 71.4101 141.051 71.6518 141.583 71.9547C142.127 72.2576 142.344 72.5817 142.265 72.6797Z" fill="#1D2A30"/>
<path d="M128.135 76.1067C127.98 76.325 126.739 75.6624 125.151 75.8974C123.561 76.1101 122.514 77.0956 122.313 76.9264C122.216 76.8529 122.35 76.4787 122.805 76.0354C123.252 75.5956 124.052 75.1145 125.042 74.9741C126.033 74.8361 126.919 75.0788 127.453 75.3806C127.994 75.6846 128.212 76.0076 128.135 76.1067Z" fill="#1D2A30"/>
<path d="M133.926 84.6069C133.905 84.5178 134.869 84.2037 136.439 83.7672C136.839 83.6658 137.211 83.53 137.239 83.2438C137.292 82.9375 137.059 82.5255 136.793 82.0823C136.268 81.158 135.719 80.1891 135.142 79.1746C132.834 75.0263 131.101 71.5919 131.269 71.5006C131.437 71.4093 133.444 74.6978 135.753 78.845C136.311 79.8695 136.845 80.845 137.355 81.7794C137.575 82.217 137.916 82.7003 137.797 83.3373C137.733 83.657 137.467 83.9187 137.217 84.0278C136.968 84.1447 136.74 84.1815 136.542 84.2227C134.943 84.5445 133.945 84.696 133.926 84.6069Z" fill="#1D2A30"/>
<path d="M136.155 103.442C136.155 103.442 130.092 104.836 121.744 101.35C121.744 101.35 125.348 109.091 136.716 106.339L136.155 103.442Z" fill="#F6865E"/>
<path d="M127.334 71.9529C127.24 72.4062 125.623 72.4329 123.791 72.9285C121.95 73.3873 120.525 74.1501 120.222 73.8004C120.083 73.6312 120.286 73.1868 120.833 72.6801C121.376 72.1768 122.279 71.64 123.38 71.3538C124.482 71.0687 125.532 71.0966 126.252 71.2736C126.977 71.4496 127.371 71.738 127.334 71.9529Z" fill="#1D2A30"/>
<path d="M140.962 69.1664C140.735 69.5673 139.585 69.3535 138.266 69.5272C136.941 69.6542 135.869 70.123 135.558 69.7833C135.42 69.6174 135.542 69.2299 135.98 68.8189C136.41 68.4091 137.172 68.0149 138.08 67.9102C138.989 67.8078 139.822 68.0205 140.333 68.3223C140.852 68.6252 141.059 68.9737 140.962 69.1664Z" fill="#1D2A30"/>
<path d="M124.687 78.1534C124.796 78.8416 125.47 79.3182 126.192 79.2169C126.914 79.1178 127.412 78.4797 127.303 77.7903C127.195 77.1021 126.52 76.6254 125.798 76.7257C125.076 76.8259 124.578 77.4651 124.687 78.1534Z" fill="#1D2A30"/>
<path d="M138.761 75.1167C138.869 75.805 139.544 76.2805 140.266 76.1803C140.987 76.08 141.486 75.4419 141.376 74.7537C141.268 74.0655 140.593 73.5888 139.872 73.6891C139.15 73.7893 138.652 74.4285 138.761 75.1167Z" fill="#1D2A30"/>
<path d="M136.428 87.694C135.406 87.3989 134.525 87.9156 134.11 88.6551C133.695 89.3956 133.794 90.4068 134.391 91.0093C134.988 91.614 136.052 91.7086 136.71 91.1741C137.158 90.811 137.382 90.2309 137.439 89.6596C137.493 89.1306 137.406 88.5649 137.079 88.145C136.752 87.7263 136.147 87.5002 135.66 87.7163" fill="#F6865E"/>
<path d="M142.949 60.9985C142.221 57.475 139.79 54.4693 136.83 52.4158C134.315 50.6708 131.341 49.5171 128.28 49.4235C125.219 49.33 122.081 50.3567 119.869 52.4715C118.234 54.0339 117.397 56.2467 117.32 58.504L117.498 56.9461C117.039 58.2256 117.04 59.6132 117.517 60.8705L117.52 60.8782L117.518 60.8727C117.777 61.5542 118.088 62.2369 118.362 62.9206C119.144 64.8673 120.657 66.5099 122.536 67.4509C123.401 67.8841 124.359 68.1747 125.326 68.1291C126.292 68.0834 127.268 67.668 127.855 66.8996C128.693 65.8027 128.596 64.2815 128.46 62.9084C129.29 64.2024 130.172 65.5443 131.506 66.3116C132.841 67.0767 134.769 67.05 135.708 65.8328C136.618 64.6534 136.258 62.9596 135.732 61.5687C136.584 62.8661 137.807 63.9196 139.217 64.5733C139.997 64.9352 140.917 65.1735 141.709 64.8327C142.378 64.5432 142.829 63.8739 143.001 63.1656C143.172 62.4574 143.096 61.7112 142.949 60.9985Z" fill="#1D2A30"/>
<path d="M134.884 63.9067C134.784 63.9101 134.8 62.586 134.371 60.5324C133.94 58.5134 132.915 55.6603 130.517 53.5511C129.335 52.5099 127.975 51.7894 126.655 51.4709C125.332 51.1446 124.073 51.1835 123.061 51.3806C121.008 51.7971 120.014 52.7693 119.952 52.6669C119.932 52.6446 120.147 52.384 120.638 52.0299C121.126 51.6758 121.912 51.2504 122.97 50.9809C124.026 50.7203 125.359 50.6323 126.778 50.9508C128.197 51.2626 129.654 52.0165 130.902 53.1168C133.438 55.3485 134.44 58.3742 134.775 60.4556C134.946 61.5169 134.983 62.3844 134.976 62.9813C134.968 63.5782 134.921 63.9067 134.884 63.9067Z" fill="#365462"/>
<path d="M237.678 193.746L194.761 176.771C194.761 176.771 172.776 148.005 173.234 147.447L157.803 164.309L180.233 194.605L232.207 206.745L256.823 206.943C254.919 197.496 237.678 193.746 237.678 193.746Z" fill="#F9AD95"/>
<path d="M144.138 111.684L138.294 109.424L113.047 112.619V117.069L112.324 117.158C112.324 117.158 104.482 118.58 96.8574 123.147C87.6252 128.677 82.8272 139.344 84.5371 149.952C85.5639 156.322 87.5543 164.065 91.3883 168.54C98.7208 177.098 105.418 166.521 105.418 166.521C105.418 166.521 110.02 176.995 109.756 181.949C109.534 186.097 107.695 194.741 107.104 197.44C107.004 197.896 107.303 198.335 107.762 198.419L161.023 208.244L161.283 195.255L159.589 141.833L157.239 121.085C157.239 121.085 157.313 111.172 144.138 111.684Z" fill="#2553A7"/>
<path d="M156.422 117.632L176.729 146.907L160.38 166.779L156.422 117.632Z" fill="#2553A7"/>
<path d="M160.775 179.239C160.735 179.238 160.708 178.566 160.696 177.349C160.679 176.036 160.658 174.303 160.631 172.206C160.526 167.867 160.281 161.868 159.415 155.304C158.573 148.737 157.294 142.869 156.315 138.639C155.834 136.597 155.436 134.908 155.136 133.631C154.857 132.447 154.721 131.787 154.761 131.777C154.798 131.766 155.008 132.406 155.354 133.573C155.701 134.739 156.172 136.435 156.715 138.542C157.798 142.754 159.146 148.631 159.991 155.231C160.861 161.823 161.042 167.852 161.042 172.201C161.021 174.378 160.99 176.138 160.922 177.354C160.866 178.569 160.816 179.24 160.775 179.239Z" fill="#1D2A30"/>
<path d="M110.805 134.727C110.802 134.821 109.264 134.802 106.791 134.933C104.319 135.063 100.911 135.401 97.2146 136.161C93.5187 136.929 90.2557 137.969 87.9358 138.831C85.6142 139.689 84.2107 140.316 84.1706 140.232C84.1527 140.195 84.4858 140.001 85.1045 139.679C85.7201 139.353 86.6353 138.929 87.7859 138.449C90.0835 137.483 93.3621 136.368 97.0968 135.593C100.831 134.825 104.284 134.549 106.777 134.523C108.024 134.509 109.033 134.535 109.728 134.591C110.424 134.64 110.806 134.687 110.805 134.727Z" fill="#FCFDFD"/>
<path d="M157.846 148.13C157.858 148.203 156.896 148.436 155.314 148.678C153.735 148.921 151.534 149.153 149.094 149.238C146.653 149.32 144.441 149.238 142.848 149.104C141.254 148.971 140.278 148.805 140.285 148.729C140.292 148.644 141.279 148.667 142.869 148.695C144.458 148.724 146.653 148.74 149.074 148.659C151.495 148.574 153.682 148.408 155.266 148.271C156.85 148.134 157.833 148.045 157.846 148.13Z" fill="#FCFDFD"/>
<path d="M167.168 134.881C167.271 134.988 165.473 136.781 162.811 138.396C160.155 140.026 157.738 140.806 157.689 140.665C157.625 140.507 159.903 139.501 162.507 137.902C165.119 136.317 167.054 134.75 167.168 134.881Z" fill="#FCFDFD"/>
<path d="M158.96 121.306C159.06 121.404 156.665 123.554 153.046 125.068C149.436 126.608 146.224 126.829 146.223 126.688C146.192 126.51 149.298 126.039 152.819 124.534C156.353 123.057 158.853 121.159 158.96 121.306Z" fill="#FCFDFD"/>
<path d="M160.066 170.794C160.082 170.831 159.706 171.026 159.011 171.346C158.319 171.674 157.293 172.094 156.006 172.565C153.436 173.508 149.779 174.56 145.638 175.199C141.495 175.83 137.689 175.921 134.953 175.79C133.585 175.727 132.48 175.634 131.721 175.529C130.962 175.431 130.544 175.358 130.549 175.318C130.558 175.223 132.242 175.359 134.963 175.381C137.684 175.406 141.448 175.251 145.55 174.626C149.65 173.993 153.286 173.015 155.873 172.176C158.463 171.34 160.028 170.706 160.066 170.794Z" fill="#FCFDFD"/>
<path d="M160.484 185.892C160.493 185.91 160.329 186.003 160.008 186.161C159.623 186.343 159.158 186.564 158.594 186.831C157.366 187.413 155.548 188.166 153.271 189.015C150.998 189.874 148.239 190.761 145.137 191.612C142.028 192.432 138.571 193.197 134.904 193.776C131.231 194.333 127.704 194.649 124.492 194.808C121.277 194.935 118.379 194.923 115.95 194.791C113.522 194.671 111.561 194.502 110.214 194.319C109.597 194.235 109.085 194.166 108.664 194.109C108.311 194.054 108.126 194.016 108.129 193.996C108.132 193.976 108.32 193.976 108.677 193.993C109.101 194.021 109.615 194.054 110.236 194.094C111.586 194.208 113.546 194.314 115.966 194.383C118.385 194.461 121.269 194.43 124.465 194.274C127.659 194.088 131.163 193.757 134.815 193.203C138.461 192.628 141.9 191.883 145.001 191.095C148.092 190.278 150.85 189.435 153.133 188.63C155.418 187.832 157.254 187.139 158.506 186.623C159.085 186.397 159.565 186.209 159.96 186.055C160.295 185.93 160.476 185.875 160.484 185.892Z" fill="#FCFDFD"/>
<path d="M62.5498 422.629L56.5171 449.839L45.5266 469.987C44.7343 471.439 45.3409 473.257 46.8463 473.946C47.6895 474.333 48.6596 474.292 49.4635 473.829C54.5764 470.88 73.3328 459.944 73.6628 457.929C74.0448 455.593 81.9353 429.649 81.9353 429.649L62.5498 422.629Z" fill="#2553A7"/>
<path d="M48.1039 474.238C47.6737 474.238 47.2425 474.141 46.8457 473.946C47.2281 474.122 47.637 474.209 48.0442 474.209C48.5348 474.209 49.0235 474.082 49.4629 473.829C51.9598 472.389 57.7111 469.044 62.9809 465.763C62.9857 465.763 62.9956 465.763 63.0004 465.763C59.6207 467.877 55.2193 470.545 49.5445 473.849C49.1015 474.107 48.6032 474.238 48.1039 474.238ZM63.5463 465.41C64.4566 464.84 65.3496 464.274 66.2033 463.723H66.218C65.4176 464.237 64.5356 464.8 63.5637 465.41C63.5589 465.41 63.5511 465.41 63.5463 465.41Z" fill="white"/>
<path d="M66.2179 463.722H66.2031C69.5432 461.564 72.2956 459.629 73.2787 458.537C72.9897 458.992 72.6161 459.392 72.1718 459.711C71.1551 460.444 69.2973 461.739 66.2179 463.722Z" fill="#F6F7F7"/>
<path d="M73.9137 456.909H73.8984C73.9599 456.672 74.031 456.402 74.1116 456.103H74.1125L73.9137 456.909Z" fill="#F6F7F7"/>
<path d="M73.7305 457.584C73.7714 457.403 73.8272 457.176 73.8957 456.909H73.911L73.8272 457.248C73.7993 457.362 73.7671 457.474 73.7305 457.584Z" fill="#F6F7F7"/>
<path d="M63 465.763C62.9952 465.763 62.9853 465.763 62.9805 465.763C63.1697 465.645 63.3584 465.527 63.5459 465.41C63.5507 465.41 63.5585 465.41 63.5633 465.41C63.3789 465.526 63.1905 465.644 63 465.763Z" fill="#A5ADAD"/>
<path d="M48.0442 474.208C47.637 474.208 47.2281 474.122 46.8457 473.946L74.1117 456.102C74.0302 456.402 73.9591 456.671 73.8976 456.908C73.8292 457.175 73.7734 457.403 73.7324 457.584C73.6199 457.921 73.4678 458.241 73.2789 458.538C72.2958 459.629 69.5433 461.564 66.2033 463.722C65.3496 464.274 64.4567 464.839 63.5463 465.41C63.3588 465.527 63.1701 465.645 62.9809 465.763C57.7111 469.043 51.9598 472.389 49.4629 473.828C49.0235 474.082 48.5348 474.208 48.0442 474.208Z" fill="#F9A8BF"/>
<path d="M71.2609 449.177C70.5874 449.177 69.9085 448.734 69.6913 448.088C69.439 447.335 69.8379 446.436 70.5407 446.075L70.5389 446.077C70.7269 445.952 70.9488 445.896 71.1798 445.896C71.8195 445.896 72.531 446.322 72.7943 446.887C73.1527 447.657 72.548 448.805 71.7479 449.093C71.5901 449.15 71.4258 449.177 71.2609 449.177Z" fill="#F9A8BF"/>
<path d="M55.9527 463.64C55.7809 463.678 55.5175 462.11 54.0914 460.952C52.7006 459.752 51.1087 459.768 51.1153 459.593C51.1083 459.519 51.5033 459.394 52.1599 459.461C52.8117 459.521 53.7073 459.833 54.4859 460.483C55.262 461.134 55.7277 461.961 55.9012 462.59C56.0812 463.223 56.025 463.634 55.9527 463.64Z" fill="#1D2A30"/>
<path d="M53.1284 466.791C52.9701 466.877 52.316 465.783 51.0116 465.039C49.7237 464.266 48.4484 464.229 48.4463 464.051C48.4022 463.893 49.8493 463.638 51.322 464.512C52.8044 465.368 53.2875 466.753 53.1284 466.791Z" fill="#1D2A30"/>
<path d="M60.6904 459.875C60.5317 459.972 59.5333 458.286 57.6066 456.951C55.7005 455.586 53.7742 455.211 53.8131 455.03C53.8047 454.874 55.9123 454.992 57.9602 456.45C60.0233 457.887 60.8395 459.831 60.6904 459.875Z" fill="#1D2A30"/>
<path d="M63.2192 451.757C63.1068 451.899 61.7618 450.909 59.8294 450.362C57.9036 449.787 56.2365 449.903 56.2195 449.72C56.1768 449.571 57.9299 449.161 60.0009 449.773C62.0761 450.367 63.3356 451.651 63.2192 451.757Z" fill="#1D2A30"/>
<path d="M65.1891 443.814C65.0665 443.949 63.7817 442.679 61.699 442.269C59.6254 441.812 57.9385 442.462 57.8806 442.29C57.85 442.222 58.2294 441.955 58.944 441.746C59.6525 441.539 60.7049 441.438 61.8242 441.67C62.9424 441.905 63.8667 442.417 64.4327 442.893C65.0034 443.367 65.244 443.764 65.1891 443.814Z" fill="#1D2A30"/>
<path d="M62.118 440.767C62.0841 440.761 62.1115 440.381 62.333 439.735C62.5541 439.094 62.9822 438.176 63.8084 437.253C64.2247 436.822 64.6892 436.251 65.5336 436.079C65.9544 435.991 66.4985 436.199 66.7317 436.636C66.965 437.062 66.9567 437.531 66.8604 437.963C66.4096 439.674 64.5225 440.974 62.5253 440.746C60.5284 440.483 59.0395 438.944 58.6341 437.273C58.56 436.847 58.5595 436.349 58.8825 435.942C59.2025 435.531 59.7995 435.482 60.1718 435.645C60.9474 435.962 61.3415 436.549 61.7305 437.008C62.4808 437.987 62.8654 438.916 63.0646 439.564C63.2638 440.215 63.286 440.594 63.2512 440.602C63.1392 440.65 62.8928 439.105 61.3922 437.281C61.0071 436.851 60.5712 436.319 60.0044 436.124C59.7284 436.027 59.4576 436.079 59.3011 436.282C59.1437 436.476 59.1172 436.828 59.1895 437.166C59.5413 438.539 60.9064 439.942 62.5976 440.139C64.2789 440.347 65.936 439.202 66.3115 437.828C66.3968 437.497 66.3904 437.14 66.2609 436.899C66.1331 436.661 65.8794 436.541 65.6043 436.583C65.024 436.665 64.5304 437.147 64.1245 437.549C62.493 439.256 62.2323 440.824 62.118 440.767Z" fill="#1D2A30"/>
<path d="M80.2871 435.091C81.2555 431.878 81.9339 429.648 81.9339 429.648L80.2871 435.091Z" fill="#B2B1B0"/>
<path d="M61.0352 429.452L61.8443 425.582L62.548 422.629L61.0352 429.452Z" fill="#A2A1A0"/>
<path d="M80.2864 435.091L60.5391 431.822L61.0349 429.452L62.5477 422.628L81.9332 429.648C81.9332 429.648 81.2548 431.878 80.286 435.091" fill="#6165D7"/>
<path d="M150.786 432.698L149.155 454.441C149.155 454.441 170.757 463.396 170.849 467.443L128.482 465.804L129.63 431.823L150.786 432.698Z" fill="#2553A7"/>
<path d="M136.46 455.332C135.719 455.332 134.991 454.764 134.851 454.027C134.704 453.246 135.222 452.411 135.967 452.149C136.116 452.077 136.277 452.045 136.442 452.045C137.129 452.045 137.887 452.605 138.089 453.258C138.339 454.07 137.584 455.125 136.752 455.302C136.655 455.323 136.557 455.332 136.46 455.332Z" fill="#F9A8BF"/>
<path d="M170.848 467.443L129.283 465.835L170.848 467.443C170.837 466.975 170.538 466.439 170.016 465.859C170.065 465.859 170.117 465.859 170.167 465.859C170.591 466.245 170.979 466.793 170.848 467.443Z" fill="white"/>
<path d="M170.167 465.859C170.117 465.859 170.065 465.859 170.016 465.859C169.887 465.717 169.747 465.573 169.594 465.426C169.76 465.532 169.968 465.677 170.167 465.859Z" fill="#A5ADAD"/>
<path d="M170.849 467.443L129.284 465.835L128.482 465.804L128.732 462.383L169.259 465.235C169.259 465.235 169.398 465.302 169.594 465.426C169.747 465.573 169.888 465.717 170.016 465.859C170.538 466.439 170.838 466.975 170.849 467.443Z" fill="#F9A8BF"/>
<path d="M149.847 454.253C149.832 454.459 148.794 454.513 147.751 455.137C146.69 455.734 146.131 456.608 145.944 456.519C145.755 456.471 146.111 455.249 147.389 454.516C148.658 453.771 149.899 454.066 149.847 454.253Z" fill="#1D2A30"/>
<path d="M154.224 456.259C154.264 456.46 153.354 456.776 152.616 457.623C151.855 458.447 151.641 459.383 151.436 459.368C151.24 459.392 151.144 458.177 152.08 457.142C153.007 456.101 154.227 456.061 154.224 456.259Z" fill="#1D2A30"/>
<path d="M156.538 461.663C156.348 461.7 156.1 460.658 156.676 459.547C157.243 458.433 158.236 458.025 158.317 458.2C158.427 458.375 157.775 458.956 157.317 459.876C156.838 460.782 156.744 461.65 156.538 461.663Z" fill="#1D2A30"/>
<path d="M149.668 449.257C149.574 449.441 148.635 449.12 147.463 449.155C146.29 449.164 145.365 449.521 145.263 449.34C145.15 449.186 146.068 448.457 147.45 448.436C148.831 448.404 149.775 449.099 149.668 449.257Z" fill="#1D2A30"/>
<path d="M129.355 439.885L129.496 435.405L129.507 435.406L129.355 439.885Z" fill="#B2B1B0"/>
<path d="M150.17 440.88L129.355 439.884L129.507 435.406L150.455 437.005L150.17 440.88Z" fill="#6165D7"/>
<path d="M149.918 444.863C149.917 444.949 149.094 445.045 147.796 444.771C147.15 444.633 146.393 444.391 145.603 444.005C145.209 443.811 144.806 443.581 144.41 443.313C144.219 443.178 143.992 443.044 143.788 442.79C143.567 442.566 143.459 442.014 143.735 441.688C143.965 441.371 144.355 441.246 144.661 441.25C144.973 441.253 145.223 441.325 145.452 441.391C145.92 441.523 146.356 441.697 146.754 441.894C147.549 442.293 148.189 442.783 148.66 443.251C149.609 444.196 149.913 444.981 149.842 445.019C149.745 445.082 149.292 444.419 148.321 443.63C147.836 443.237 147.214 442.827 146.47 442.492C146.097 442.328 145.693 442.183 145.266 442.07C144.821 441.936 144.441 441.919 144.317 442.113C144.272 442.187 144.266 442.216 144.355 442.351C144.448 442.477 144.624 442.601 144.811 442.733C145.176 442.991 145.546 443.218 145.907 443.415C146.633 443.811 147.329 444.087 147.929 444.279C149.129 444.664 149.926 444.752 149.918 444.863Z" fill="#1D2A30"/>
<path d="M149.637 445.15C149.563 445.178 149.18 444.424 149.157 443.083C149.147 442.42 149.247 441.618 149.536 440.777C149.683 440.357 149.877 439.93 150.127 439.512C150.391 439.105 150.716 438.557 151.522 438.496C151.942 438.496 152.278 438.837 152.385 439.121C152.514 439.413 152.532 439.658 152.572 439.905C152.631 440.402 152.604 440.886 152.519 441.331C152.35 442.226 151.952 442.96 151.528 443.483C150.657 444.547 149.784 444.759 149.77 444.689C149.705 444.582 150.442 444.212 151.116 443.184C151.448 442.677 151.752 442.004 151.865 441.221C151.92 440.831 151.931 440.415 151.872 439.996C151.823 439.544 151.669 439.175 151.499 439.215C151.288 439.203 150.917 439.527 150.73 439.879C150.497 440.25 150.309 440.631 150.159 441.006C149.865 441.76 149.721 442.486 149.666 443.104C149.56 444.341 149.751 445.123 149.637 445.15Z" fill="#1D2A30"/>
<path d="M106.92 198.265C106.92 198.265 100.193 198.559 95.7605 221.411C91.3286 244.265 57.2598 429.427 57.2598 429.427L81.9334 429.648L128.481 253.611L125.388 435.092L150.455 437.005C150.455 437.005 169.267 236.234 169.444 224.552C169.665 209.988 161.282 195.256 161.282 195.256L106.92 198.265Z" fill="#1D2A30"/>
<path d="M140.835 196.308C140.993 196.34 138.432 209.396 135.117 225.466C131.801 241.541 128.987 254.543 128.829 254.509C128.672 254.477 131.232 241.423 134.548 225.349C137.863 209.28 140.679 196.276 140.835 196.308Z" fill="#365462"/>
<path d="M144.681 199.569C144.638 199.512 145.349 199.302 146.114 199.984C146.467 200.313 146.813 200.859 146.787 201.559C146.774 202.267 146.237 202.956 145.524 203.248C144.817 203.553 143.948 203.455 143.43 202.971C142.91 202.501 142.76 201.871 142.77 201.391C142.815 200.367 143.462 200.006 143.472 200.077C143.55 200.133 143.109 200.553 143.181 201.38C143.218 201.774 143.391 202.254 143.776 202.563C144.148 202.88 144.755 202.941 145.298 202.714C145.841 202.484 146.22 202.009 146.252 201.522C146.3 201.031 146.076 200.571 145.819 200.269C145.276 199.642 144.667 199.663 144.681 199.569Z" fill="#365462"/>
<path d="M143.613 208.618C143.598 208.549 144.307 208.641 144.695 209.545C144.866 209.972 144.944 210.59 144.626 211.185C144.314 211.793 143.55 212.152 142.814 212.088C142.076 212.039 141.375 211.564 141.163 210.915C140.941 210.278 141.114 209.68 141.35 209.285C141.872 208.453 142.588 208.47 142.562 208.536C142.598 208.624 142.036 208.761 141.712 209.477C141.562 209.819 141.483 210.296 141.662 210.722C141.826 211.149 142.305 211.465 142.859 211.51C143.412 211.551 143.934 211.313 144.162 210.917C144.406 210.523 144.402 210.04 144.306 209.679C144.098 208.922 143.564 208.699 143.613 208.618Z" fill="#365462"/>
<path d="M119.966 199.798C120 199.808 119.911 200.22 119.671 200.942C119.435 201.665 119.017 202.689 118.371 203.891C117.099 206.288 114.726 209.38 111.211 211.689C107.696 214.001 103.912 214.958 101.203 215.18C99.8405 215.299 98.7331 215.276 97.9741 215.21C97.215 215.144 96.8012 215.063 96.8047 215.027C96.81 214.919 98.4903 215.108 101.158 214.772C103.809 214.45 107.472 213.455 110.892 211.206C114.311 208.958 116.672 205.993 118.013 203.689C119.376 201.376 119.863 199.76 119.966 199.798Z" fill="#365462"/>
<path d="M167.976 216.041C167.952 216.073 167.691 215.914 167.236 215.595C166.773 215.287 166.154 214.767 165.446 214.067C164.025 212.677 162.349 210.417 161.241 207.567C160.145 204.713 159.867 201.914 159.987 199.932C160.041 198.94 160.15 198.139 160.285 197.601C160.408 197.06 160.496 196.767 160.535 196.775C160.64 196.794 160.402 197.994 160.397 199.942C160.386 201.885 160.72 204.586 161.784 207.359C162.861 210.126 164.429 212.352 165.745 213.784C167.057 215.225 168.041 215.956 167.976 216.041Z" fill="#365462"/>
<path d="M97.1117 154.223L108.074 154.828C108.767 158.373 111.174 163.795 111.174 163.795C119.997 148.512 126.839 128.037 128.538 119.809C128.29 118.987 127.997 118.077 127.632 117.061C127.21 115.888 127.571 113.667 127.77 112.433C128.067 110.601 128.58 108.136 128.734 106.995C129.204 103.517 129.766 102.972 130.981 103.365C132.635 103.899 130.304 113.13 131.659 113.331C132.387 113.438 133.277 110.276 133.536 107.681C133.794 105.086 134.97 97.1051 135.83 96.5728C137.09 95.7932 138.188 97.0271 137.87 99.6107C137.547 102.226 137.141 110.024 138.516 110.13C139.87 110.234 141.006 97.0015 141.006 97.0015C141.006 97.0015 140.793 94.1217 142.384 94.1907C145.254 94.3155 143.011 108.266 142.765 109.588C142.593 110.506 144.085 110.675 144.216 109.678C144.351 108.65 145.043 96.4447 147.965 96.5427C150.209 96.6184 146.229 108.039 147.488 110.687C148.747 113.333 149.622 101.694 151.764 101.855C152.561 101.915 153.15 102.071 151.684 108.657C150.897 112.197 148.585 118.705 146.564 124.094C143.17 142.357 128.277 200.781 104.926 190.086C91.8606 184.103 85.7637 154.474 85.7637 154.474L97.1117 154.223Z" fill="#F9AD95"/>
<path d="M146.561 124.103C146.549 124.099 146.587 123.963 146.672 123.704C146.772 123.409 146.902 123.03 147.062 122.554C147.427 121.501 147.939 120.025 148.59 118.146C149.241 116.228 150.04 113.88 150.835 111.122C151.242 109.744 151.572 108.252 151.88 106.652C152.028 105.853 152.18 105.03 152.274 104.185C152.313 103.765 152.357 103.333 152.332 102.919C152.302 102.485 152.235 102.129 151.891 102.124C151.536 102.028 151.297 102.321 151.054 102.69C150.829 103.06 150.655 103.488 150.499 103.925C150.186 104.801 149.942 105.735 149.7 106.691C149.457 107.646 149.232 108.629 148.94 109.63C148.765 110.135 148.686 110.623 148.271 111.166C148.193 111.232 148.123 111.319 147.965 111.35C147.793 111.394 147.665 111.328 147.546 111.256C147.385 111.113 147.308 110.969 147.238 110.836C147.112 110.554 147.034 110.266 147.002 109.986C146.802 107.751 147.312 105.591 147.662 103.348C147.854 102.23 148.057 101.098 148.204 99.9523C148.276 99.381 148.336 98.803 148.343 98.2339C148.364 97.7061 148.271 96.9934 148.039 96.892C147.753 96.7851 147.237 97.1081 146.963 97.5802C146.656 98.0446 146.427 98.5959 146.233 99.1582C145.846 100.292 145.592 101.499 145.375 102.722C145.162 103.948 144.995 105.197 144.858 106.464C144.797 107.097 144.734 107.735 144.672 108.376L144.587 109.342C144.563 109.604 144.563 110.151 144.144 110.465C143.755 110.756 143.237 110.786 142.823 110.517C142.616 110.384 142.454 110.135 142.423 109.884C142.396 109.756 142.419 109.639 142.428 109.527L142.471 109.288C142.569 108.642 142.669 107.994 142.769 107.341C142.953 106.034 143.112 104.712 143.24 103.379C143.365 102.046 143.457 100.7 143.478 99.3487C143.481 98.0123 143.471 96.6114 143.084 95.3875C142.958 95.0156 142.752 94.6781 142.522 94.5813C142.285 94.4955 141.944 94.5824 141.769 94.8207C141.381 95.363 141.318 96.2572 141.348 96.9844L141.35 97.0201L141.348 97.0401C141.109 99.6571 140.823 102.229 140.446 104.756C140.252 106.02 140.044 107.272 139.726 108.508C139.647 108.818 139.552 109.127 139.443 109.436C139.294 109.744 139.253 110.058 138.81 110.398C138.427 110.581 138.142 110.372 137.99 110.218C137.827 110.047 137.762 109.879 137.686 109.714C137.557 109.387 137.493 109.071 137.436 108.754C137.081 106.244 137.227 103.829 137.369 101.46C137.416 100.27 137.707 99.0914 137.55 98.0468C137.475 97.529 137.272 97.009 136.927 96.7784C136.757 96.6671 136.564 96.6415 136.355 96.6905C136.25 96.7227 136.147 96.7595 136.044 96.8219C135.942 96.9043 135.964 96.8731 135.887 97.0134C135.452 97.9232 135.241 99.0736 135.007 100.115C134.787 101.179 134.6 102.24 134.429 103.286C134.259 104.332 134.109 105.366 133.975 106.383C133.836 107.394 133.767 108.417 133.567 109.411C133.379 110.403 133.149 111.367 132.787 112.291C132.695 112.523 132.591 112.751 132.464 112.976C132.308 113.185 132.22 113.458 131.793 113.589C131.548 113.655 131.336 113.49 131.227 113.35C131.133 113.207 131.087 113.07 131.05 112.938C130.993 112.682 130.97 112.436 130.961 112.197C130.936 110.299 131.219 108.558 131.313 106.878C131.366 106.045 131.404 105.221 131.307 104.459C131.257 104.102 131.142 103.683 130.938 103.599C130.638 103.48 130.252 103.418 130.028 103.579C129.535 103.935 129.363 104.749 129.202 105.401C129.043 106.091 128.972 106.773 128.846 107.431C128.382 110.066 127.889 112.328 127.651 114.177C127.542 115.101 127.498 115.935 127.615 116.63C127.77 117.304 127.997 117.901 128.127 118.368C128.259 118.813 128.364 119.167 128.447 119.445C128.516 119.688 128.545 119.814 128.535 119.817C128.523 119.82 128.472 119.701 128.382 119.465C128.283 119.192 128.157 118.846 128 118.411C127.845 117.936 127.611 117.394 127.421 116.667C127.276 115.937 127.302 115.088 127.393 114.149C127.595 112.267 128.046 110.021 128.474 107.381C128.593 106.725 128.656 106.027 128.809 105.319C128.889 104.964 128.968 104.603 129.103 104.24C129.244 103.889 129.396 103.484 129.802 103.217C130.234 102.949 130.714 103.047 131.12 103.201C131.643 103.499 131.662 104 131.753 104.393C131.867 105.226 131.832 106.058 131.787 106.908C131.705 108.598 131.441 110.375 131.479 112.173C131.489 112.395 131.515 112.612 131.559 112.81C131.607 113.027 131.718 113.11 131.695 113.069C131.734 113.076 131.905 112.884 132.001 112.708C132.106 112.517 132.201 112.31 132.285 112.094C132.617 111.226 132.839 110.276 133.017 109.311C133.204 108.348 133.266 107.344 133.402 106.311C133.53 105.285 133.677 104.246 133.842 103.193C134.008 102.139 134.191 101.071 134.409 99.9923C134.657 98.9066 134.814 97.8341 135.343 96.7049C135.375 96.5913 135.605 96.3374 135.735 96.2762C135.875 96.1915 136.035 96.1292 136.203 96.0802C136.544 95.99 136.961 96.0401 137.271 96.2483C137.884 96.6793 138.079 97.3531 138.181 97.9489C138.274 98.5602 138.243 99.1794 138.173 99.7685C138.108 100.34 138.06 100.922 138.018 101.506C137.882 103.837 137.754 106.277 138.096 108.64C138.148 108.927 138.211 109.218 138.311 109.464C138.361 109.58 138.42 109.702 138.477 109.753L138.532 109.797L138.536 109.798L138.538 109.801C138.518 110.063 138.535 109.857 138.531 109.908L138.485 109.812C138.543 109.766 138.722 109.459 138.807 109.201C138.906 108.923 138.995 108.634 139.07 108.338C139.374 107.15 139.579 105.906 139.77 104.655C140.14 102.149 140.424 99.5803 140.659 96.9811V97.0357C140.646 96.1793 140.631 95.2817 141.224 94.3941C141.57 93.9565 142.194 93.7193 142.781 93.9398C143.361 94.2104 143.576 94.7282 143.739 95.1581C144.182 96.5835 144.167 97.98 144.17 99.3587C144.148 100.737 144.053 102.097 143.926 103.443C143.797 104.79 143.635 106.121 143.447 107.438C143.346 108.095 143.244 108.751 143.143 109.404C143.06 109.818 143.08 109.831 143.204 109.954C143.338 110.055 143.597 110.039 143.723 109.934C143.866 109.838 143.883 109.644 143.913 109.282L143.999 108.316C144.063 107.671 144.127 107.029 144.192 106.391C144.332 105.114 144.503 103.851 144.722 102.607C144.948 101.364 145.207 100.136 145.617 98.9467C145.826 98.3542 146.066 97.7662 146.43 97.2194C146.615 96.9488 146.83 96.6793 147.146 96.4811C147.469 96.2962 147.822 96.1281 148.307 96.3129C148.765 96.5635 148.844 96.9867 148.915 97.2951C148.963 97.6192 148.984 97.9355 148.974 98.2406C148.964 98.8542 148.898 99.4467 148.824 100.032C148.669 101.201 148.46 102.334 148.262 103.452C147.898 105.671 147.396 107.879 147.57 109.907C147.598 110.155 147.664 110.384 147.749 110.585C147.8 110.687 147.857 110.771 147.893 110.808L147.866 110.857L147.854 110.851L147.862 110.778C148.096 110.489 148.262 109.931 148.408 109.472C148.698 108.499 148.931 107.516 149.181 106.558C149.432 105.599 149.685 104.657 150.017 103.75C150.184 103.296 150.367 102.85 150.626 102.428C150.767 102.221 150.905 102.008 151.134 101.838C151.236 101.746 151.386 101.682 151.533 101.641C151.707 101.614 151.847 101.618 151.961 101.639C152.225 101.651 152.579 101.88 152.667 102.155C152.775 102.416 152.798 102.659 152.809 102.893C152.833 103.362 152.78 103.802 152.737 104.239C152.632 105.106 152.47 105.934 152.312 106.736C151.987 108.338 151.634 109.85 151.208 111.229C150.373 113.992 149.536 116.328 148.845 118.235C148.15 120.14 147.586 121.609 147.194 122.602C147.005 123.068 146.855 123.44 146.739 123.728C146.632 123.98 146.571 124.107 146.561 124.103Z" fill="#F6865E"/>
<path d="M85.6367 155.488C87.7574 162.954 91.8997 174.489 96.3537 186.649C96.9982 188.407 99.4485 188.522 100.25 186.83L111.17 163.795C111.17 163.795 108.541 144.871 108.764 145.539C108.987 146.207 86.234 147.988 86.234 147.988L85.6367 155.488Z" fill="#2553A7"/>
<path d="M110.229 151.775C110.253 151.868 108.872 152.266 106.711 153.089C104.549 153.909 101.626 155.212 98.6094 157.032C95.5968 158.86 93.0867 160.845 91.3598 162.378C89.6293 163.91 88.6353 164.947 88.5651 164.883C88.5359 164.856 88.7547 164.57 89.1772 164.073C89.5953 163.574 90.2437 162.888 91.0808 162.077C92.7518 160.453 95.2553 158.388 98.3077 156.536C101.364 154.692 104.356 153.431 106.572 152.704C107.68 152.338 108.589 152.08 109.227 151.942C109.863 151.798 110.219 151.736 110.229 151.775Z" fill="#FCFDFD"/>
<path d="M114.558 157.52C114.5 157.561 113.757 156.687 112.736 155.141C111.715 153.597 110.451 151.358 109.363 148.745C108.279 146.129 107.585 143.655 107.212 141.843C106.837 140.03 106.742 138.888 106.812 138.878C106.901 138.862 107.138 139.977 107.612 141.748C108.084 143.519 108.83 145.941 109.9 148.524C110.974 151.103 112.164 153.34 113.087 154.926C114.009 156.512 114.631 157.467 114.558 157.52Z" fill="#1D2A30"/>
<path d="M121.844 55.4968C118.024 61.6574 117.213 69.6254 119.711 76.443C120.833 79.501 122.609 82.5245 122.285 85.7707C121.951 89.096 119.423 92.2376 120.316 95.4548C120.845 97.3569 122.481 98.7679 123.108 100.64C123.845 102.835 123.077 105.212 122.727 107.503C121.834 113.335 123.702 119.2 124.165 125.083C124.629 130.966 123.037 137.852 117.779 140.417C116.179 141.197 114.091 141.422 112.762 140.233C111.074 138.723 111.544 136.011 112.006 133.781C116.627 111.489 102.352 89.7731 105.612 67.2356C106.134 63.623 108.157 57.4936 110.764 54.9656C113.37 52.4388 120.579 52.7462 123.046 55.4122" fill="#1D2A30"/>
<path d="M99.8596 120.101C99.8129 120.064 100.53 119.3 101.535 117.719C102.536 116.15 103.794 113.7 104.451 110.427C104.77 108.793 104.911 106.972 104.795 105.011C104.709 103.051 104.432 100.94 104.565 98.6841C104.611 97.5549 104.853 96.4056 105.205 95.2709C105.601 94.1517 106.115 93.0536 106.738 92.0001C107.987 89.8931 109.569 87.9309 111.016 85.8351C112.463 83.7459 113.664 81.5331 114.054 79.1956C114.445 76.8581 114.023 74.5429 113.664 72.3624C113.277 70.1797 113.011 68.0304 113.171 66.0337C113.298 64.0381 113.699 62.2062 114.241 60.5992C115.337 57.3753 116.958 55.0912 118.187 53.6691C118.805 52.9542 119.329 52.4363 119.706 52.1134C120.079 51.7837 120.28 51.6189 120.293 51.6345C120.337 51.6791 119.541 52.3606 118.361 53.8139C117.198 55.2638 115.658 57.549 114.632 60.7273C114.124 62.312 113.757 64.1105 113.652 66.0604C113.517 68.016 113.792 70.0873 114.192 72.2722C114.562 74.4483 115.017 76.8192 114.615 79.287C114.212 81.7537 112.96 84.0488 111.496 86.1625C110.029 88.2851 108.454 90.2339 107.228 92.2897C106.617 93.3164 106.117 94.3755 105.731 95.4479C105.391 96.5326 105.151 97.6228 105.099 98.7186C104.955 100.904 105.209 103.007 105.277 104.991C105.373 106.977 105.205 108.852 104.854 110.51C104.131 113.837 102.794 116.295 101.724 117.844C101.188 118.624 100.721 119.19 100.392 119.562C100.057 119.93 99.874 120.115 99.8596 120.101Z" fill="#365462"/>
<path d="M89.2731 121.77C89.2557 121.76 89.3756 121.502 89.6198 121.022C89.8941 120.494 90.2541 119.8 90.7045 118.932C91.6385 117.116 93.0375 114.503 94.4126 111.129C95.7602 107.767 97.097 103.555 97.138 98.7531C97.1454 97.5582 97.0582 96.3343 96.8656 95.0993C96.6732 93.8632 96.3855 92.6003 96.1984 91.2818C96.0193 89.9688 95.9334 88.569 96.283 87.187C96.6288 85.7994 97.5021 84.5667 98.5545 83.6112C100.659 81.7035 103.197 80.4596 104.508 78.2257C105.851 76.0296 106.148 73.4538 106.487 71.084C106.777 68.6886 107.238 66.3822 108.023 64.3554C108.783 62.3186 109.797 60.5491 110.855 59.0423C112.986 56.0155 115.356 54.1101 117.06 52.9764C117.918 52.4107 118.614 52.0165 119.103 51.7837C119.587 51.5454 119.845 51.4274 119.854 51.4463C119.884 51.502 118.854 51.9886 117.188 53.1624C115.54 54.3417 113.245 56.2694 111.194 59.2762C110.174 60.7729 109.199 62.5213 108.475 64.5236C107.724 66.5226 107.296 68.7532 107.018 71.1553C106.688 73.525 106.415 76.1699 104.994 78.523C103.572 80.9273 100.945 82.2069 98.9499 84.0366C97.9446 84.9531 97.1638 86.0656 96.8424 87.3307C96.5207 88.5946 96.5909 89.9232 96.7626 91.2039C96.9406 92.4912 97.2231 93.7518 97.4145 95.0158C97.6062 96.2809 97.6883 97.5359 97.6739 98.7565C97.6006 103.663 96.1989 107.915 94.7928 111.285C93.3575 114.666 91.8995 117.254 90.9034 119.04C90.4133 119.885 90.0208 120.563 89.7223 121.079C89.4449 121.541 89.291 121.778 89.2731 121.77Z" fill="#365462"/>
<path d="M458.561 436.442C458.549 436.437 458.616 436.278 458.756 435.973C458.911 435.639 459.121 435.194 459.388 434.627C459.925 433.438 460.623 431.637 461.246 429.242C462.476 424.453 462.905 417.135 461.088 408.444C460.244 404.092 458.883 399.423 457.222 394.474C455.585 389.517 453.685 384.256 452.133 378.57C450.597 372.897 449.386 366.739 449.619 360.283C449.855 353.815 451.775 347.359 453.884 340.932C455.991 334.495 458.169 328.203 458.822 321.874C459.561 315.556 458.205 309.354 455.319 304.273C452.526 299.138 449.011 294.745 446.381 290.195C443.709 285.661 442.038 280.998 441.008 276.662C439.012 267.919 439.711 260.55 440.668 255.696C441.704 250.813 442.86 248.29 442.86 248.29C442.871 248.294 442.828 248.461 442.73 248.782C442.621 249.133 442.475 249.603 442.287 250.202C441.9 251.448 441.399 253.311 440.923 255.745C440.051 260.589 439.432 267.906 441.468 276.554C442.52 280.842 444.198 285.444 446.859 289.915C449.484 294.412 453.015 298.785 455.864 303.981C458.808 309.119 460.225 315.524 459.475 321.94C458.817 328.376 456.622 334.709 454.521 341.138C452.411 347.56 450.514 353.948 450.274 360.307C450.036 366.664 451.218 372.763 452.728 378.408C454.255 384.068 456.133 389.33 457.749 394.301C459.39 399.265 460.734 403.97 461.552 408.353C463.321 417.11 462.816 424.501 461.499 429.305C460.832 431.712 460.09 433.508 459.509 434.684C459.218 435.241 458.988 435.677 458.816 436.004C458.657 436.3 458.571 436.449 458.561 436.442Z" fill="#1D2A30"/>
<path d="M449.953 294.685C449.953 294.685 444.612 277.642 454.194 267.662C454.529 267.313 455.122 267.478 455.209 267.955C455.72 270.769 456.36 279.342 449.953 294.685Z" fill="#2553A7"/>
<path d="M453.153 273.342C453.243 273.359 453.09 274.558 452.793 276.486C452.442 278.651 452.03 281.193 451.575 284.003C451.128 286.811 450.723 289.354 450.379 291.519C450.086 293.443 449.912 294.638 449.813 294.63C449.726 294.623 449.736 293.411 449.909 291.462C450.086 289.514 450.431 286.836 450.914 283.895C451.396 280.955 451.909 278.308 452.328 276.399C452.745 274.491 453.062 273.323 453.153 273.342Z" fill="#1D2A30"/>
<path d="M456.23 334.879C456.23 334.879 459.497 317.323 472.643 312.974C473.104 312.821 473.551 313.244 473.403 313.706C472.536 316.432 469.084 324.308 456.23 334.879Z" fill="#2553A7"/>
<path d="M469.06 317.508C469.13 317.566 468.434 318.554 467.268 320.12C465.942 321.869 464.385 323.925 462.667 326.195C460.955 328.47 459.406 330.527 458.087 332.281C456.926 333.845 456.212 334.819 456.129 334.766C456.056 334.721 456.632 333.653 457.699 332.011C458.767 330.373 460.327 328.165 462.133 325.792C463.938 323.417 465.633 321.317 466.897 319.826C468.159 318.334 468.988 317.449 469.06 317.508Z" fill="#1D2A30"/>
<path d="M452.675 378.922C452.675 378.922 450.691 361.177 462.004 353.204C462.402 352.926 462.951 353.201 462.945 353.685C462.909 356.545 461.897 365.083 452.675 378.922Z" fill="#2553A7"/>
<path d="M459.9 358.582C459.986 358.616 459.606 359.765 458.947 361.6C458.188 363.658 457.297 366.075 456.313 368.747C455.336 371.419 454.453 373.838 453.701 375.897C453.046 377.73 452.646 378.869 452.551 378.843C452.468 378.82 452.709 377.632 453.251 375.752C453.797 373.874 454.647 371.309 455.685 368.515C456.719 365.72 457.731 363.219 458.506 361.426C459.279 359.633 459.815 358.546 459.9 358.582Z" fill="#1D2A30"/>
<path d="M462.581 423.224C462.581 423.224 461.234 405.419 472.827 397.857C473.235 397.591 473.774 397.887 473.75 398.371C473.612 401.228 472.294 409.723 462.581 423.224Z" fill="#2553A7"/>
<path d="M470.527 403.154C470.612 403.192 470.191 404.326 469.465 406.136C468.633 408.168 467.655 410.552 466.576 413.184C465.506 415.82 464.536 418.206 463.711 420.238C462.991 422.046 462.549 423.17 462.455 423.14C462.374 423.114 462.656 421.935 463.267 420.075C463.878 418.218 464.82 415.687 465.958 412.93C467.092 410.175 468.193 407.712 469.032 405.948C469.87 404.183 470.442 403.116 470.527 403.154Z" fill="#1D2A30"/>
<path d="M442.278 279.709C442.278 279.709 426.414 271.445 426.104 257.628C426.093 257.144 426.627 256.842 427.028 257.118C429.385 258.744 435.919 264.348 442.278 279.709Z" fill="#2553A7"/>
<path d="M429.395 262.374C429.471 262.323 430.213 263.278 431.371 264.849C432.66 266.627 434.172 268.714 435.843 271.02C437.521 273.32 439.039 275.401 440.331 277.174C441.491 278.74 442.213 279.706 442.138 279.77C442.072 279.827 441.218 278.964 439.959 277.466C438.703 275.965 437.044 273.83 435.301 271.41C433.554 268.993 432.039 266.759 430.981 265.118C429.923 263.474 429.318 262.426 429.395 262.374Z" fill="#1D2A30"/>
<path d="M459.313 316.312C459.313 316.312 442.976 309.022 441.824 295.25C441.784 294.767 442.3 294.433 442.717 294.685C445.17 296.166 452.032 301.363 459.313 316.312Z" fill="#2553A7"/>
<path d="M445.398 299.789C445.471 299.732 446.27 300.639 447.521 302.138C448.915 303.834 450.553 305.827 452.361 308.026C454.174 310.221 455.816 312.206 457.215 313.897C458.467 315.389 459.247 316.312 459.177 316.379C459.115 316.44 458.209 315.63 456.861 314.211C455.515 312.789 453.731 310.758 451.842 308.449C449.953 306.143 448.304 304.005 447.148 302.429C445.992 300.854 445.323 299.843 445.398 299.789Z" fill="#1D2A30"/>
<path d="M449.911 357.137C449.911 357.137 438.694 343.223 443.955 330.44C444.139 329.991 444.752 329.929 445.007 330.342C446.514 332.775 450.25 340.52 449.911 357.137Z" fill="#2553A7"/>
<path d="M445.067 336.105C445.158 336.088 445.456 337.26 445.884 339.163C446.351 341.306 446.9 343.823 447.505 346.604C448.118 349.381 448.674 351.895 449.147 354.036C449.58 355.934 449.855 357.109 449.76 357.138C449.678 357.162 449.241 356.031 448.688 354.153C448.139 352.277 447.477 349.659 446.851 346.744C446.222 343.831 445.73 341.18 445.419 339.252C445.109 337.324 444.976 336.121 445.067 336.105Z" fill="#1D2A30"/>
<path d="M461.023 405.179C461.023 405.179 444.81 397.617 443.89 383.829C443.859 383.345 444.381 383.02 444.792 383.278C447.221 384.8 453.993 390.112 461.023 405.179Z" fill="#2553A7"/>
<path d="M447.39 388.425C447.465 388.371 448.249 389.292 449.474 390.811C450.84 392.532 452.443 394.549 454.213 396.779C455.991 399.004 457.599 401.017 458.968 402.731C460.196 404.245 460.96 405.178 460.889 405.246C460.825 405.306 459.934 404.48 458.61 403.038C457.287 401.596 455.538 399.535 453.689 397.194C451.838 394.856 450.227 392.69 449.097 391.096C447.967 389.502 447.317 388.481 447.39 388.425Z" fill="#1D2A30"/>
<path d="M493.315 334.974C493.33 334.975 493.337 335.109 493.336 335.368C493.328 335.678 493.318 336.053 493.308 336.508C493.26 337.582 493.195 339.031 493.116 340.838C492.906 344.646 492.615 349.953 492.267 356.301L492.265 356.315L492.261 356.338C491.105 362.799 487.806 369.961 483.375 376.913C480.126 382.036 476.72 386.693 473.781 391.024C470.824 395.342 468.329 399.342 466.589 402.887C464.838 406.426 463.82 409.468 463.224 411.593C462.939 412.659 462.725 413.491 462.602 414.061C462.468 414.628 462.388 414.924 462.364 414.92C462.341 414.915 462.379 414.613 462.469 414.036C462.549 413.455 462.724 412.611 462.971 411.529C463.493 409.371 464.451 406.278 466.162 402.681C467.863 399.081 470.336 395.026 473.27 390.68C476.189 386.319 479.577 381.654 482.81 376.558C487.217 369.639 490.497 362.586 491.697 356.229L491.693 356.265C492.14 349.922 492.514 344.62 492.781 340.817C492.928 339.013 493.044 337.567 493.132 336.498C493.177 336.044 493.215 335.671 493.246 335.363C493.277 335.106 493.3 334.973 493.315 334.974Z" fill="#1D2A30"/>
<path d="M483.664 375.585C483.664 375.585 490.53 359.095 481.893 348.293C481.59 347.914 480.985 348.025 480.855 348.492C480.09 351.249 478.675 359.728 483.664 375.585Z" fill="#2553A7"/>
<path d="M482.408 354.041C482.501 354.032 482.71 355.224 482.953 357.161C483.196 359.098 483.468 361.783 483.682 364.755C483.896 367.726 483.997 370.426 483.996 372.38C483.991 374.337 483.89 375.545 483.803 375.544C483.706 375.543 483.64 374.339 483.522 372.396C483.375 370.207 483.203 367.64 483.013 364.802C482.815 361.963 482.635 359.394 482.481 357.205C482.36 355.259 482.317 354.051 482.408 354.041Z" fill="#1D2A30"/>
<path d="M483.663 375.585C480.843 366.62 480.069 360.012 480.068 355.464C480.067 351.969 480.522 349.69 480.854 348.492C480.931 348.217 481.173 348.064 481.421 348.064C481.593 348.064 481.768 348.138 481.892 348.293C485.224 352.46 486.248 357.473 486.251 362.059C486.253 367.951 484.569 373.139 483.917 374.925C483.963 374.381 483.997 373.505 483.999 372.381C484.001 370.426 483.9 367.726 483.686 364.755C483.471 361.783 483.2 359.098 482.957 357.162C482.715 355.232 482.506 354.041 482.413 354.041H482.412C482.321 354.051 482.364 355.259 482.485 357.205C482.639 359.394 482.818 361.963 483.017 364.802C483.207 367.64 483.379 370.208 483.526 372.396C483.618 373.916 483.678 374.984 483.746 375.377C483.694 375.514 483.663 375.585 483.663 375.585Z" fill="#6165D7"/>
<path d="M483.742 375.377C483.674 374.984 483.614 373.916 483.522 372.395C483.375 370.207 483.203 367.639 483.013 364.802C482.815 361.963 482.635 359.394 482.481 357.205C482.36 355.259 482.317 354.051 482.408 354.041H482.41C482.502 354.041 482.711 355.231 482.953 357.161C483.196 359.098 483.468 361.783 483.682 364.755C483.896 367.726 483.997 370.426 483.996 372.38C483.993 373.505 483.959 374.381 483.913 374.924C483.844 375.115 483.786 375.268 483.742 375.377Z" fill="#161C1E"/>
<path d="M462.396 415.324C462.396 415.324 467.901 398.332 458.413 388.264C458.08 387.91 457.487 388.07 457.395 388.547C456.856 391.355 456.136 399.922 462.396 415.324Z" fill="#2553A7"/>
<path d="M459.399 393.951C459.489 393.934 459.795 395.106 460.195 397.017C460.594 398.928 461.082 401.58 461.537 404.525C461.993 407.47 462.312 410.153 462.47 412.102C462.624 414.052 462.621 415.265 462.535 415.27C462.437 415.277 462.274 414.082 461.999 412.155C461.676 409.986 461.295 407.44 460.875 404.626C460.446 401.814 460.06 399.269 459.728 397.099C459.449 395.168 459.307 393.969 459.399 393.951Z" fill="#1D2A30"/>
<path d="M462.395 415.324C458.019 404.555 457.055 397.127 457.055 392.673C457.055 390.757 457.233 389.392 457.395 388.547C457.452 388.247 457.709 388.073 457.974 388.073C458.131 388.073 458.289 388.133 458.413 388.264C462.805 392.924 463.984 399.068 463.984 404.324C463.984 409.069 463.022 413.09 462.595 414.64C462.596 414.096 462.56 413.22 462.471 412.102C462.313 410.153 461.994 407.47 461.538 404.525C461.083 401.58 460.595 398.928 460.196 397.017C459.799 395.119 459.495 393.951 459.402 393.951C459.401 393.951 459.4 393.951 459.4 393.951C459.308 393.969 459.45 395.168 459.729 397.099C460.06 399.269 460.447 401.814 460.876 404.626C461.296 407.44 461.677 409.986 462 412.155C462.215 413.66 462.362 414.719 462.462 415.107C462.42 415.249 462.395 415.324 462.395 415.324Z" fill="#6165D7"/>
<path d="M462.461 415.106C462.361 414.719 462.214 413.66 461.999 412.154C461.676 409.986 461.295 407.44 460.875 404.626C460.446 401.814 460.06 399.269 459.728 397.099C459.449 395.168 459.307 393.969 459.399 393.951C459.399 393.951 459.4 393.951 459.401 393.951C459.494 393.951 459.798 395.119 460.195 397.017C460.594 398.928 461.082 401.58 461.537 404.525C461.993 407.47 462.312 410.153 462.47 412.102C462.559 413.22 462.595 414.095 462.594 414.64C462.541 414.837 462.495 414.993 462.461 415.106Z" fill="#161C1E"/>
<path d="M492.406 355.433C492.406 355.433 507.068 345.192 505.589 331.452C505.536 330.97 504.966 330.74 504.605 331.065C502.477 332.982 496.723 339.38 492.406 355.433Z" fill="#2553A7"/>
<path d="M492.406 355.433C496.723 339.38 502.477 332.982 504.606 331.065C504.721 330.961 504.859 330.913 504.994 330.913C505.279 330.913 505.553 331.124 505.589 331.452C505.659 332.11 505.693 332.759 505.693 333.4C505.698 346.148 492.406 355.433 492.406 355.433Z" fill="#6165D7"/>
<path d="M502.938 336.583C503.021 336.624 502.557 337.743 501.72 339.507C500.883 341.272 499.67 343.683 498.25 346.303C496.835 348.928 495.467 351.258 494.415 352.908C493.36 354.557 492.624 355.523 492.552 355.475C492.471 355.422 493.061 354.37 494.009 352.668C495.061 350.744 496.296 348.483 497.662 345.986C499.02 343.485 500.25 341.221 501.298 339.291C502.243 337.584 502.854 336.543 502.938 336.583Z" fill="#1D2A30"/>
<path d="M468.307 398.479C468.307 398.479 485.991 395.727 490.726 382.741C490.893 382.285 490.482 381.829 490.014 381.962C487.26 382.747 479.268 385.963 468.307 398.479Z" fill="#2553A7"/>
<path d="M468.307 398.479C479.268 385.963 487.26 382.747 490.014 381.962C490.071 381.946 490.127 381.938 490.181 381.938C490.504 381.938 490.764 382.211 490.764 382.532C490.764 382.6 490.752 382.671 490.726 382.741C486.582 394.106 472.519 397.632 469.073 398.335C468.724 398.406 468.483 398.449 468.374 398.467C468.33 398.475 468.307 398.479 468.307 398.479Z" fill="#6165D7"/>
<path d="M486.081 386.182C486.138 386.254 485.227 387.055 483.696 388.272C482.166 389.489 480.012 391.119 477.582 392.849C475.152 394.583 472.896 396.075 471.223 397.093C469.549 398.11 468.461 398.653 468.418 398.579C468.368 398.494 469.363 397.81 470.964 396.698C472.759 395.432 474.865 393.947 477.193 392.306C479.517 390.656 481.622 389.165 483.412 387.894C485.015 386.776 486.025 386.108 486.081 386.182Z" fill="#1D2A30"/>
<path d="M451.44 430.948L446.281 465.587H478.427L474.26 430.948H451.44Z" fill="#365462"/>
<path d="M475.541 441.681C475.541 441.866 469.736 442.015 462.578 442.015C455.418 442.015 449.615 441.866 449.615 441.681C449.615 441.497 455.418 441.346 462.578 441.346C469.736 441.346 475.541 441.497 475.541 441.681Z" fill="#1D2A30"/>
<path d="M476.178 444.437C476.178 444.621 470.185 444.771 462.792 444.771C455.397 444.771 449.404 444.621 449.404 444.437C449.404 444.252 455.397 444.104 462.792 444.104C470.185 444.104 476.178 444.252 476.178 444.437Z" fill="#1D2A30"/>
<path d="M351.177 94.9613C351.177 94.9613 350.88 94.9669 350.306 94.9502C349.728 94.9257 348.872 94.8856 347.751 94.9636C345.523 95.0883 342.178 95.507 338.239 97.1518C334.345 98.7933 329.786 101.694 326.16 106.544C324.361 108.957 322.859 111.861 321.943 115.151C321.061 118.447 320.763 122.102 321.183 125.864C321.659 129.614 322.81 133.495 324.916 137.059C325.961 138.835 327.199 140.562 328.715 142.084C330.177 143.651 331.904 145.038 333.849 146.092C335.792 147.141 338.017 147.803 340.293 147.712C342.55 147.638 344.879 146.844 346.532 145.2C348.196 143.569 349.018 141.172 349.019 138.781C349.031 136.372 348.194 133.976 346.755 131.958C343.856 127.895 339.171 125.161 334.186 123.687C329.152 122.224 323.624 122.186 318.333 123.469C315.696 124.154 313.12 125.158 310.697 126.497C308.276 127.843 306.074 129.6 304.143 131.627C303.686 132.158 303.164 132.638 302.757 133.212L301.497 134.909C300.761 136.114 300.007 137.317 299.442 138.626C298.259 141.208 297.429 143.978 297.014 146.832C296.266 152.536 296.959 158.411 299.269 163.538C301.5 168.673 305.305 173.081 310.045 175.737C312.41 177.057 315.026 177.908 317.678 178.051C320.324 178.215 322.962 177.534 325.208 176.247C327.45 174.963 329.323 173.033 330.305 170.708C331.281 168.385 331.263 165.733 330.42 163.427C329.591 161.095 328.036 159.104 326.224 157.506C324.4 155.909 322.272 154.713 320.05 153.927C315.548 152.46 310.752 152.539 306.463 153.692C302.162 154.86 298.328 157.069 295.318 159.892C292.312 162.732 290.203 166.216 288.928 169.772C286.353 176.942 287.008 184.22 289.22 189.78C291.497 195.388 295.114 199.382 298.416 202.021C301.749 204.679 304.783 206.113 306.866 206.931C307.915 207.33 308.724 207.612 309.279 207.768C309.829 207.94 310.107 208.042 310.107 208.042C310.107 208.042 309.818 207.978 309.262 207.825C308.699 207.688 307.883 207.422 306.822 207.04C304.72 206.255 301.653 204.846 298.275 202.197C294.927 199.565 291.252 195.563 288.918 189.901C286.65 184.283 285.954 176.92 288.541 169.634C289.822 166.021 291.954 162.469 295.01 159.567C298.067 156.686 301.959 154.428 306.338 153.227C310.705 152.045 315.589 151.946 320.216 153.444C322.504 154.25 324.687 155.472 326.569 157.113C328.438 158.754 330.051 160.808 330.925 163.247C331.811 165.661 331.839 168.463 330.809 170.918C329.775 173.374 327.815 175.39 325.486 176.727C323.154 178.068 320.402 178.781 317.647 178.612C314.897 178.465 312.197 177.586 309.769 176.234C304.904 173.512 301.019 169.01 298.739 163.77C296.382 158.54 295.675 152.561 296.44 146.749C296.86 143.843 297.706 141.019 298.915 138.383C299.492 137.047 300.262 135.818 301.015 134.587L302.304 132.852C302.721 132.266 303.253 131.774 303.721 131.233C305.695 129.16 307.946 127.37 310.415 125.998C312.886 124.634 315.51 123.613 318.194 122.918C323.583 121.615 329.208 121.658 334.341 123.156C339.427 124.67 344.192 127.441 347.194 131.653C348.68 133.741 349.561 136.261 349.542 138.783C349.539 141.285 348.673 143.821 346.891 145.563C345.122 147.313 342.667 148.135 340.309 148.207C337.929 148.296 335.615 147.6 333.622 146.516C331.62 145.425 329.865 144.004 328.379 142.406C326.841 140.852 325.585 139.092 324.528 137.282C322.399 133.656 321.245 129.715 320.774 125.912C320.361 122.095 320.679 118.391 321.587 115.053C322.528 111.721 324.067 108.784 325.899 106.349C329.594 101.462 334.214 98.5661 338.153 96.9436C342.134 95.3177 345.507 94.9346 347.746 94.8477C348.872 94.7876 349.732 94.8478 350.308 94.8912C350.884 94.9279 351.177 94.9613 351.177 94.9613Z" fill="#1D2A30"/>
<path d="M231.963 326.822H388.458V206.392H231.963V326.822Z" fill="#2553A7"/>
<path d="M231.963 206.392L260.869 233.292H414.709L388.458 206.392H231.963Z" fill="#2553A7"/>
<path d="M231.963 206.392C234.787 206.387 299.423 206.27 388.458 206.107H388.578L388.662 206.194C397.046 214.782 405.745 223.695 414.647 232.813L414.917 233.089L415.399 233.581H414.709C351.626 233.533 295.638 233.492 260.869 233.467H260.799L260.749 233.419C242.662 216.437 232.913 207.283 231.963 206.392C232.919 207.273 242.75 216.342 260.988 233.164L260.869 233.117C295.638 233.091 351.626 233.049 414.709 233.001L414.5 233.493L414.23 233.217C405.332 224.097 396.634 215.182 388.253 206.59L388.458 206.676C299.423 206.515 234.784 206.397 231.963 206.392Z" fill="#1D2A30"/>
<path d="M278.965 261.924C277.308 261.928 275.797 263.411 275.768 265.063C275.74 266.715 277.199 268.251 278.854 268.311C280.508 268.37 282.075 266.944 282.166 265.294C282.257 263.645 280.858 262.054 279.205 261.933" fill="#1D2A30"/>
<path d="M315.919 261.924C314.263 261.928 312.751 263.411 312.723 265.063C312.694 266.715 314.153 268.251 315.808 268.311C317.463 268.37 319.029 266.944 319.12 265.294C319.211 263.645 317.812 262.054 316.16 261.933" fill="#1D2A30"/>
<path d="M316.153 290.752C315.984 290.821 315.739 287.738 313.054 283.829C311.736 281.89 309.763 279.836 307.143 278.17C304.539 276.504 301.232 275.303 297.66 275.174C294.082 275.108 290.715 276.125 288.023 277.646C285.315 279.166 283.231 281.111 281.808 282.975C278.915 286.73 278.499 289.795 278.336 289.717C278.316 289.713 278.348 289.532 278.426 289.19C278.521 288.854 278.594 288.334 278.836 287.711C279.24 286.441 280.06 284.66 281.48 282.727C282.892 280.792 284.995 278.768 287.758 277.182C290.506 275.594 293.975 274.525 297.675 274.595C301.373 274.729 304.776 275.985 307.431 277.72C310.106 279.455 312.092 281.591 313.395 283.6C314.707 285.607 315.428 287.431 315.762 288.721C315.971 289.357 316.014 289.88 316.09 290.22C316.151 290.566 316.172 290.749 316.153 290.752Z" fill="#1D2A30"/>
<path d="M388.455 242.727H357.773C357.735 238.018 357.69 234.777 357.641 233.539C367.589 233.546 377.883 233.553 388.455 233.561V242.727Z" fill="#000152"/>
<path d="M388.454 233.561C377.882 233.553 367.588 233.545 357.64 233.539C357.637 233.444 357.632 233.361 357.629 233.291H388.454V233.561Z" fill="#151717"/>
<path d="M357.417 242.727H259.99L232.314 207.716L255.318 228.323C257.036 229.935 258.844 231.633 260.746 233.418L260.796 233.466H260.865C284.664 233.484 318.4 233.509 357.549 233.539C357.5 234.777 357.455 238.018 357.417 242.727Z" fill="#000152"/>
<path d="M357.554 233.539C318.404 233.509 284.668 233.484 260.869 233.466H260.8L260.75 233.419C258.848 231.633 257.04 229.935 255.322 228.323L260.869 233.292H357.565C357.561 233.362 357.557 233.444 357.554 233.539Z" fill="#151717"/>
<path d="M357.598 326.545C357.436 326.545 357.307 305.598 357.307 279.764C357.307 253.921 357.436 232.979 357.598 232.979C357.758 232.979 357.888 253.921 357.888 279.764C357.888 305.598 357.758 326.545 357.598 326.545Z" fill="#1D2A30"/>
<path d="M382.165 314.803H368.371V299.245H382.165V314.803Z" fill="#F8F8F9"/>
<path d="M231.96 206.392L199.832 233.292H231.96V206.392Z" fill="#2553A7"/>
<path d="M231.96 233.292H199.832L231.96 206.392V233.292Z" fill="#000152"/>
<path d="M213.143 465.288H393.074V326.822H213.143V465.288Z" fill="#2553A7"/>
<path d="M393.074 465.288H213.143V326.822H393.074V353.689V377.758V465.288Z" fill="#6165D7"/>
<path d="M347.993 464.31C347.834 464.31 347.703 433.445 347.703 395.383C347.703 357.304 347.834 326.447 347.993 326.447C348.155 326.447 348.285 357.304 348.285 395.383C348.285 433.445 348.155 464.31 347.993 464.31Z" fill="#1D2A30"/>
<path d="M377.819 449.329H364.025V433.771H377.819V449.329Z" fill="#F8F8F9"/>
<path d="M268.035 327.178V356.724H288.472V327.178H268.035Z" fill="#1D2A30"/>
<path d="M268.035 435.331V464.875H288.472V435.331H268.035Z" fill="#1D2A30"/>
<path d="M391.506 326.822C391.506 326.832 391.348 326.842 391.045 326.851C390.713 326.858 390.264 326.868 389.693 326.881C388.474 326.894 386.728 326.911 384.495 326.935C379.952 326.956 373.43 326.988 365.383 327.027C349.22 327.048 326.938 327.078 302.327 327.11C277.71 327.078 255.426 327.048 239.261 327.027C231.215 326.988 224.693 326.956 220.151 326.935C217.919 326.911 216.173 326.894 214.954 326.881C214.383 326.868 213.935 326.858 213.604 326.851C213.299 326.842 213.143 326.832 213.143 326.822C213.143 326.812 213.299 326.803 213.604 326.793C213.935 326.785 214.383 326.776 214.954 326.763C216.173 326.752 217.919 326.733 220.151 326.709C224.693 326.687 231.215 326.656 239.261 326.617C255.426 326.595 277.71 326.564 302.327 326.53C326.938 326.564 349.22 326.595 365.383 326.617C373.43 326.656 379.952 326.687 384.495 326.709C386.728 326.733 388.474 326.752 389.693 326.763C390.264 326.776 390.713 326.785 391.045 326.793C391.348 326.803 391.506 326.812 391.506 326.822Z" fill="#1D2A30"/>
<path d="M83.1411 87.0841C81.8467 86.7668 75.6112 85.2378 63.5481 82.28L63.6928 82.2577C59.384 84.9994 53.5474 87.2122 46.7804 87.3169C43.4141 87.3046 39.8533 86.9015 36.2999 85.7901C32.7502 84.6865 29.2588 82.8568 26.0865 80.3879C19.7389 75.4891 14.7969 67.638 13.7297 58.602C13.1851 54.113 13.5495 49.3935 14.9495 44.8744C16.3757 40.3686 18.8355 36.0979 22.1482 32.5031C23.8271 30.6033 25.8053 29.0264 27.8226 27.5698C28.8821 26.9172 29.9263 26.239 31.0179 25.6654L32.6848 24.8659L33.5144 24.4672L34.3777 24.152C38.943 22.3858 43.8016 21.702 48.4646 22.0116C53.1332 22.3112 57.6042 23.6142 61.5151 25.6677C65.4329 27.7167 68.7904 30.4986 71.4278 33.6568C74.0708 36.8173 75.9925 40.3486 77.2152 43.9144C78.4363 47.4847 78.9926 51.0762 79.0249 54.4694C79.065 61.2859 76.93 67.1335 74.3315 71.4032L74.3332 71.2261C79.7814 81.0338 82.5338 85.9894 83.1411 87.0841C82.5128 86.0017 79.665 81.1006 74.0271 71.3987L73.9766 71.3119L74.0294 71.2217C76.5629 66.9743 78.6273 61.1901 78.5505 54.4716C78.5004 51.1274 77.935 47.595 76.7185 44.087C75.5017 40.5836 73.5994 37.118 70.9918 34.0221C68.3906 30.9251 65.0845 28.2034 61.2343 26.2011C57.391 24.1955 53.0033 22.9248 48.4232 22.6386C43.8475 22.3413 39.0859 23.0184 34.6122 24.7523L33.7664 25.0608L32.9524 25.4528L31.3196 26.2379C30.2502 26.8002 29.2269 27.4662 28.1884 28.1054C26.2121 29.5353 24.2728 31.0799 22.6273 32.943C19.3792 36.4665 16.9669 40.6515 15.566 45.067C14.191 49.4937 13.8278 54.123 14.3562 58.5263C15.3895 67.3886 20.2184 75.1038 26.4406 79.938C29.5504 82.3724 32.9751 84.1843 36.4622 85.2834C39.9532 86.3904 43.4559 86.8024 46.773 86.8325C53.4406 86.7634 59.2118 84.6208 63.4954 81.9459L63.5643 81.9024L63.6397 81.9225C75.6464 85.1008 81.854 86.7434 83.1411 87.0841Z" fill="#1D2A30"/>
<path d="M43.5648 40.1249L44.6015 56.454C44.6861 57.7892 45.7552 58.8516 47.0937 58.9307C48.5059 59.0153 49.7358 57.9797 49.891 56.5776L51.7082 40.1661C51.8455 38.9233 50.8606 37.8409 49.6076 37.8587L45.6157 37.9144C44.4241 37.9311 43.4898 38.9389 43.5648 40.1249Z" fill="#2553A7"/>
<path d="M51.433 68.1161C50.7376 70.2052 48.477 71.3356 46.3838 70.6429C44.2897 69.9491 43.1557 67.694 43.8512 65.6049C44.5461 63.5157 46.8072 62.3843 48.9004 63.078C50.9945 63.7707 52.128 66.0269 51.433 68.1161Z" fill="#2553A7"/>
</g>
<defs>
<clipPath id="clip0">
<rect width="505.688" height="474.238" fill="white"/>
</clipPath>
</defs>
</svg>
