<svg width="284" height="247" viewBox="0 0 284 247" fill="none" xmlns="http://www.w3.org/2000/svg">
<g filter="url(#filter0_d)">
<g clip-path="url(#clip0)">
<rect x="30" y="22" width="224" height="187" rx="15" fill="white"/>
<path d="M119.843 108.192C119.843 108.757 119.71 109.291 119.443 109.792C119.177 110.293 118.75 110.704 118.163 111.024C117.577 111.333 116.825 111.488 115.907 111.488H113.891V116H112.067V104.88H115.907C116.761 104.88 117.481 105.029 118.067 105.328C118.665 105.616 119.107 106.011 119.395 106.512C119.694 107.013 119.843 107.573 119.843 108.192ZM115.907 110C116.601 110 117.118 109.845 117.459 109.536C117.801 109.216 117.971 108.768 117.971 108.192C117.971 106.976 117.283 106.368 115.907 106.368H113.891V110H115.907ZM120.975 111.552C120.975 110.667 121.156 109.883 121.519 109.2C121.892 108.517 122.393 107.989 123.023 107.616C123.663 107.232 124.367 107.04 125.135 107.04C125.828 107.04 126.431 107.179 126.943 107.456C127.465 107.723 127.881 108.059 128.191 108.464V107.184H130.031V116H128.191V114.688C127.881 115.104 127.46 115.451 126.927 115.728C126.393 116.005 125.785 116.144 125.103 116.144C124.345 116.144 123.652 115.952 123.023 115.568C122.393 115.173 121.892 114.629 121.519 113.936C121.156 113.232 120.975 112.437 120.975 111.552ZM128.191 111.584C128.191 110.976 128.063 110.448 127.807 110C127.561 109.552 127.236 109.211 126.831 108.976C126.425 108.741 125.988 108.624 125.519 108.624C125.049 108.624 124.612 108.741 124.207 108.976C123.801 109.2 123.471 109.536 123.215 109.984C122.969 110.421 122.847 110.944 122.847 111.552C122.847 112.16 122.969 112.693 123.215 113.152C123.471 113.611 123.801 113.963 124.207 114.208C124.623 114.443 125.06 114.56 125.519 114.56C125.988 114.56 126.425 114.443 126.831 114.208C127.236 113.973 127.561 113.632 127.807 113.184C128.063 112.725 128.191 112.192 128.191 111.584ZM135.627 116.144C134.933 116.144 134.309 116.021 133.755 115.776C133.211 115.52 132.779 115.179 132.459 114.752C132.139 114.315 131.968 113.829 131.947 113.296H133.835C133.867 113.669 134.043 113.984 134.363 114.24C134.693 114.485 135.104 114.608 135.595 114.608C136.107 114.608 136.501 114.512 136.779 114.32C137.067 114.117 137.211 113.861 137.211 113.552C137.211 113.221 137.051 112.976 136.731 112.816C136.421 112.656 135.925 112.48 135.243 112.288C134.581 112.107 134.043 111.931 133.627 111.76C133.211 111.589 132.848 111.328 132.539 110.976C132.24 110.624 132.091 110.16 132.091 109.584C132.091 109.115 132.229 108.688 132.507 108.304C132.784 107.909 133.179 107.6 133.691 107.376C134.213 107.152 134.811 107.04 135.483 107.04C136.485 107.04 137.291 107.296 137.899 107.808C138.517 108.309 138.848 108.997 138.891 109.872H137.067C137.035 109.477 136.875 109.163 136.587 108.928C136.299 108.693 135.909 108.576 135.419 108.576C134.939 108.576 134.571 108.667 134.315 108.848C134.059 109.029 133.931 109.269 133.931 109.568C133.931 109.803 134.016 110 134.187 110.16C134.357 110.32 134.565 110.448 134.811 110.544C135.056 110.629 135.419 110.741 135.899 110.88C136.539 111.051 137.061 111.227 137.467 111.408C137.883 111.579 138.24 111.835 138.539 112.176C138.837 112.517 138.992 112.971 139.003 113.536C139.003 114.037 138.864 114.485 138.587 114.88C138.309 115.275 137.915 115.584 137.403 115.808C136.901 116.032 136.309 116.144 135.627 116.144ZM144.173 116.144C143.48 116.144 142.856 116.021 142.301 115.776C141.757 115.52 141.325 115.179 141.005 114.752C140.685 114.315 140.515 113.829 140.493 113.296H142.381C142.413 113.669 142.589 113.984 142.909 114.24C143.24 114.485 143.651 114.608 144.141 114.608C144.653 114.608 145.048 114.512 145.325 114.32C145.613 114.117 145.757 113.861 145.757 113.552C145.757 113.221 145.597 112.976 145.277 112.816C144.968 112.656 144.472 112.48 143.789 112.288C143.128 112.107 142.589 111.931 142.173 111.76C141.757 111.589 141.395 111.328 141.085 110.976C140.787 110.624 140.637 110.16 140.637 109.584C140.637 109.115 140.776 108.688 141.053 108.304C141.331 107.909 141.725 107.6 142.237 107.376C142.76 107.152 143.357 107.04 144.029 107.04C145.032 107.04 145.837 107.296 146.445 107.808C147.064 108.309 147.395 108.997 147.437 109.872H145.613C145.581 109.477 145.421 109.163 145.133 108.928C144.845 108.693 144.456 108.576 143.965 108.576C143.485 108.576 143.117 108.667 142.861 108.848C142.605 109.029 142.477 109.269 142.477 109.568C142.477 109.803 142.563 110 142.733 110.16C142.904 110.32 143.112 110.448 143.357 110.544C143.603 110.629 143.965 110.741 144.445 110.88C145.085 111.051 145.608 111.227 146.013 111.408C146.429 111.579 146.787 111.835 147.085 112.176C147.384 112.517 147.539 112.971 147.549 113.536C147.549 114.037 147.411 114.485 147.133 114.88C146.856 115.275 146.461 115.584 145.949 115.808C145.448 116.032 144.856 116.144 144.173 116.144ZM150.448 106.016C150.118 106.016 149.84 105.904 149.616 105.68C149.392 105.456 149.28 105.179 149.28 104.848C149.28 104.517 149.392 104.24 149.616 104.016C149.84 103.792 150.118 103.68 150.448 103.68C150.768 103.68 151.04 103.792 151.264 104.016C151.488 104.24 151.6 104.517 151.6 104.848C151.6 105.179 151.488 105.456 151.264 105.68C151.04 105.904 150.768 106.016 150.448 106.016ZM151.344 107.184V116H149.52V107.184H151.344ZM157.563 116.144C156.731 116.144 155.979 115.957 155.307 115.584C154.635 115.2 154.107 114.667 153.723 113.984C153.339 113.291 153.147 112.491 153.147 111.584C153.147 110.688 153.344 109.893 153.739 109.2C154.134 108.507 154.672 107.973 155.355 107.6C156.038 107.227 156.8 107.04 157.643 107.04C158.486 107.04 159.248 107.227 159.931 107.6C160.614 107.973 161.152 108.507 161.547 109.2C161.942 109.893 162.139 110.688 162.139 111.584C162.139 112.48 161.936 113.275 161.531 113.968C161.126 114.661 160.571 115.2 159.867 115.584C159.174 115.957 158.406 116.144 157.563 116.144ZM157.563 114.56C158.032 114.56 158.47 114.448 158.875 114.224C159.291 114 159.627 113.664 159.883 113.216C160.139 112.768 160.267 112.224 160.267 111.584C160.267 110.944 160.144 110.405 159.899 109.968C159.654 109.52 159.328 109.184 158.923 108.96C158.518 108.736 158.08 108.624 157.611 108.624C157.142 108.624 156.704 108.736 156.299 108.96C155.904 109.184 155.59 109.52 155.355 109.968C155.12 110.405 155.003 110.944 155.003 111.584C155.003 112.533 155.243 113.269 155.723 113.792C156.214 114.304 156.827 114.56 157.563 114.56ZM168.39 107.04C169.084 107.04 169.702 107.184 170.246 107.472C170.801 107.76 171.233 108.187 171.542 108.752C171.852 109.317 172.006 110 172.006 110.8V116H170.198V111.072C170.198 110.283 170.001 109.68 169.606 109.264C169.212 108.837 168.673 108.624 167.99 108.624C167.308 108.624 166.764 108.837 166.358 109.264C165.964 109.68 165.766 110.283 165.766 111.072V116H163.942V107.184H165.766V108.192C166.065 107.829 166.444 107.547 166.902 107.344C167.372 107.141 167.868 107.04 168.39 107.04Z" fill="#000152"/>
<path d="M267 190.259C267 229.88 213.946 262 148.5 262C83.0543 262 30 229.88 30 190.259C30 150.637 47.5543 178.546 113 178.546C178.446 178.546 267 150.637 267 190.259Z" fill="#E2ECF9"/>
</g>
</g>
<defs>
<filter id="filter0_d" x="0" y="0" width="284" height="247" filterUnits="userSpaceOnUse" color-interpolation-filters="sRGB">
<feFlood flood-opacity="0" result="BackgroundImageFix"/>
<feColorMatrix in="SourceAlpha" type="matrix" values="0 0 0 0 0 0 0 0 0 0 0 0 0 0 0 0 0 0 127 0"/>
<feOffset dy="8"/>
<feGaussianBlur stdDeviation="15"/>
<feColorMatrix type="matrix" values="0 0 0 0 0.168627 0 0 0 0 0.207843 0 0 0 0 0.509804 0 0 0 0.1 0"/>
<feBlend mode="normal" in2="BackgroundImageFix" result="effect1_dropShadow"/>
<feBlend mode="normal" in="SourceGraphic" in2="effect1_dropShadow" result="shape"/>
</filter>
<clipPath id="clip0">
<rect x="30" y="22" width="224" height="187" rx="15" fill="white"/>
</clipPath>
</defs>
</svg>
