<svg width="101" height="101" viewBox="0 0 101 101" fill="none" xmlns="http://www.w3.org/2000/svg">
<g clip-path="url(#clip0)">
<path d="M34.0382 77.3087C34.0125 77.1824 33.9751 77.0582 33.9257 76.9378C33.8764 76.8195 33.8153 76.705 33.7443 76.5985C33.6732 76.49 33.5904 76.3894 33.4997 76.2987C33.4089 76.2079 33.3083 76.1251 33.1998 76.0541C33.0933 75.9831 32.9789 75.9219 32.8585 75.8726C32.7402 75.8233 32.6159 75.7838 32.4896 75.7601C32.2352 75.7089 31.9728 75.7089 31.7203 75.7601C31.5941 75.7838 31.4698 75.8233 31.3495 75.8726C31.2311 75.9219 31.1167 75.9831 31.0102 76.0541C30.9017 76.1251 30.8011 76.2079 30.7103 76.2987C30.6196 76.3894 30.5367 76.49 30.4657 76.5985C30.3927 76.705 30.3335 76.8195 30.2842 76.9378C30.2349 77.0582 30.1954 77.1824 30.1718 77.3087C30.1461 77.4349 30.1323 77.5651 30.1323 77.6933C30.1323 77.8216 30.1461 77.9518 30.1718 78.078C30.1954 78.2043 30.2349 78.3285 30.2842 78.4469C30.3335 78.5672 30.3927 78.6816 30.4657 78.7882C30.5367 78.8967 30.6196 78.9973 30.7103 79.088C30.8011 79.1788 30.9017 79.2616 31.0102 79.3326C31.1167 79.4038 31.2311 79.465 31.3495 79.5143C31.4698 79.5636 31.5941 79.6031 31.7203 79.6267C31.8466 79.6524 31.9768 79.6662 32.105 79.6662C32.2332 79.6662 32.3634 79.6524 32.4896 79.6267C32.6159 79.6031 32.7402 79.5636 32.8585 79.5143C32.9789 79.465 33.0933 79.4036 33.1998 79.3326C33.3083 79.2616 33.4089 79.1788 33.4997 79.088C33.5904 78.9973 33.6732 78.8967 33.7443 78.7882C33.8153 78.6816 33.8764 78.5672 33.9257 78.4469C33.9751 78.3285 34.0125 78.2043 34.0382 78.078C34.0638 77.9518 34.0776 77.8216 34.0776 77.6933C34.0776 77.5651 34.0638 77.4349 34.0382 77.3087Z" fill="white"/>
<path d="M90.7408 77.9164C90.7331 77.8966 90.7252 77.8771 90.7169 77.8578C88.9013 73.6093 84.6431 72.039 79.6038 73.7602L65.8607 77.5607C65.0661 75.1545 63.0842 73.1068 60.2818 72.0669C60.2644 72.0605 60.2471 72.0542 60.2295 72.0483L45.1227 66.921C43.8654 65.2957 39.9268 61.137 32.5524 61.137C27.3988 61.137 22.8398 64.6724 20.2316 68.5259H1.97266C0.883158 68.5259 0 69.4091 0 70.4986V95.3692C0 96.4587 0.883158 97.3419 1.97266 97.3419H13.7015C14.791 97.3419 15.6741 96.4587 15.6741 95.3692V93.666H21.1745C22.264 93.666 23.1471 92.7829 23.1471 91.6934V91.1257C26.3535 91.4054 27.4081 92.0136 30.3529 93.7116C32.6175 95.0175 36.0402 96.9912 42.204 99.7625C42.2326 99.7754 42.2616 99.7876 42.2906 99.799C43.4736 100.264 45.7861 100.995 48.6372 100.995C50.6217 100.995 52.8676 100.641 55.1728 99.5961L85.5499 88.7196C85.604 88.7003 85.6573 88.6786 85.7093 88.6545C88.6125 87.3188 92.9387 83.5544 90.7408 77.9164ZM11.7288 93.3964H3.94531V72.4711H11.7288V93.3964ZM19.2018 89.7205H15.6741V72.4711H19.2018V89.7205ZM84.133 85.0361L53.7695 95.9076C53.7428 95.917 53.7067 95.9313 53.6805 95.9419C53.6539 95.9528 53.6272 95.9642 53.601 95.9762C49.3722 97.9197 45.3525 96.7562 43.7772 96.1437C37.8233 93.4646 34.6456 91.6322 32.3237 90.2934C29.0957 88.432 27.5403 87.5348 23.1471 87.1721V71.2839C25.017 68.2192 28.6432 65.0821 32.5526 65.0821C39.2568 65.0821 42.0977 69.4426 42.2093 69.6186C42.4502 70.0104 42.8204 70.3057 43.2558 70.4534L58.9335 75.7745C61.4374 76.7142 62.7606 78.8585 62.1525 80.9969C61.8718 81.9844 61.2232 82.8034 60.3264 83.3031C59.4373 83.7984 58.4096 83.9209 57.4299 83.6499L39.7563 78.0491C38.7171 77.7199 37.6089 78.2951 37.2798 79.3337C36.9506 80.3723 37.5258 81.481 38.5644 81.8102L56.2688 87.4206C56.2876 87.4265 56.3063 87.4323 56.3252 87.4376C57.0321 87.6386 57.7517 87.738 58.467 87.738C59.7764 87.738 61.0715 87.4045 62.2468 86.7495C64.0642 85.737 65.3784 84.0772 65.9473 82.0759C65.9926 81.9161 66.0329 81.7563 66.0678 81.5966L80.8791 77.4934C83.0182 76.7628 85.8263 76.4994 87.0766 79.3789C88.3707 82.7594 85.0073 84.6191 84.133 85.0361Z" fill="white"/>
<path d="M70.8302 25.9488C70.8046 25.8226 70.7671 25.6983 70.7158 25.578C70.6665 25.4596 70.6073 25.3452 70.5343 25.2387C70.4633 25.1302 70.3804 25.0296 70.2897 24.9388C70.1989 24.8481 70.0983 24.7652 69.9898 24.6942C69.8833 24.6232 69.7689 24.562 69.6505 24.5127C69.5302 24.4634 69.4059 24.424 69.2817 24.4003C69.0272 24.349 68.7648 24.349 68.5103 24.4003C68.3841 24.424 68.2598 24.4634 68.1415 24.5127C68.0211 24.562 67.9067 24.6232 67.8002 24.6942C67.6917 24.7652 67.5911 24.8481 67.5004 24.9388C67.4096 25.0296 67.3268 25.1302 67.2557 25.2387C67.1847 25.3452 67.1236 25.4596 67.0743 25.578C67.0249 25.6983 66.9855 25.8226 66.9618 25.9488C66.9362 26.0751 66.9224 26.2053 66.9224 26.3335C66.9224 26.4617 66.9362 26.5919 66.9618 26.7182C66.9855 26.8444 67.0249 26.9687 67.0743 27.087C67.1236 27.2074 67.1847 27.3218 67.2557 27.4283C67.3268 27.5368 67.4096 27.6374 67.5004 27.7282C67.5911 27.8189 67.6917 27.9018 67.8002 27.9728C67.9067 28.0438 68.0211 28.1049 68.1415 28.1543C68.2598 28.2036 68.3841 28.2411 68.5103 28.2667C68.6366 28.2923 68.7668 28.3061 68.895 28.3061C69.0232 28.3061 69.1534 28.2923 69.2817 28.2667C69.4059 28.2411 69.5302 28.2036 69.6505 28.1543C69.7689 28.1049 69.8833 28.0438 69.9898 27.9728C70.0983 27.9018 70.1989 27.8189 70.2897 27.7282C70.3804 27.6374 70.4633 27.5368 70.5343 27.4283C70.6073 27.3218 70.6665 27.2074 70.7158 27.087C70.7671 26.9687 70.8046 26.8444 70.8302 26.7182C70.8558 26.5919 70.8677 26.4617 70.8677 26.3335C70.8677 26.2053 70.8558 26.0751 70.8302 25.9488Z" fill="white"/>
<path d="M99.0273 6.68534H87.2985C86.209 6.68534 85.3258 7.5685 85.3258 8.65799V10.3612H79.8255C78.736 10.3612 77.8528 11.2443 77.8528 12.3338V12.9016C74.6465 12.6217 73.5919 12.0137 70.6473 10.3156C68.3827 9.00972 64.9599 7.03608 58.796 4.26469C58.7674 4.25167 58.7386 4.23964 58.7092 4.2282C56.7028 3.43874 51.4443 1.88547 45.8279 4.43079L37.89 7.27299L31.1989 0.582136C30.4286 -0.188186 29.1795 -0.188186 28.4092 0.582136L6.44208 22.549C5.73153 23.2598 5.59522 24.4921 6.44208 25.339L43.9792 62.8761C44.5798 63.4769 45.9863 63.6586 46.7691 62.8761L66.8241 42.8212C67.3455 42.8662 67.8866 42.8905 68.4474 42.8905C73.6012 42.8905 78.16 39.3551 80.768 35.5017H99.0273C100.117 35.5017 101 34.6185 101 33.529V8.65799C101 7.5685 100.117 6.68534 99.0273 6.68534ZM29.8039 4.76673L34.2999 9.26281C32.9635 10.0894 31.4183 10.5316 29.8039 10.5316C28.1892 10.5316 26.6442 10.0896 25.3078 9.26281L29.8039 4.76673ZM15.1229 28.4402L10.6269 23.9439L15.1229 19.4478C15.9495 20.7843 16.3918 22.3295 16.3918 23.9439C16.3918 25.5583 15.9497 27.1035 15.1229 28.4402ZM45.3742 58.6913L40.8789 54.196C43.6235 52.5023 47.1246 52.5023 49.8693 54.196L45.3742 58.6913ZM52.7115 51.3542C48.3523 48.192 42.3961 48.192 38.0369 51.3542L17.965 31.282C19.5054 29.1634 20.3371 26.6184 20.3371 23.9439C20.3371 21.2692 19.5056 18.7245 17.965 16.6058L22.466 12.105C24.5846 13.6455 27.1293 14.4771 29.804 14.4771C32.4788 14.4771 35.0235 13.6455 37.1421 12.105L41.4088 16.3717C40.4882 16.5076 39.5904 16.811 38.7532 17.2775C37.3392 18.0654 36.2298 19.2452 35.539 20.6727C33.3138 21.0847 31.2538 22.162 29.6378 23.7778C25.2535 28.1622 25.2535 35.296 29.638 39.6804C31.83 41.8724 34.7095 42.9686 37.5891 42.9686C40.4686 42.9686 43.3483 41.8726 45.5405 39.6804C46.9668 38.2542 47.9659 36.5012 48.4664 34.5909L55.1268 36.8514C54.377 40.3248 55.145 43.979 57.2165 46.8492L52.7115 51.3542ZM40.7182 31.9604C40.7355 31.9667 40.7529 31.973 40.7704 31.9789L44.715 33.3178C44.4171 34.6621 43.743 35.8982 42.7508 36.8906C39.9046 39.7364 35.2736 39.7368 32.4279 36.8906C29.5817 34.0447 29.5817 29.4139 32.4279 26.5677C33.1144 25.8809 33.9245 25.3441 34.8073 24.9801C35.1714 28.0105 37.3534 30.7117 40.7182 31.9604ZM60.0589 44.0066C59.2974 42.7658 58.8666 41.3496 58.7985 39.9043C59.7434 40.5874 60.8982 41.2567 62.2775 41.788L60.0589 44.0066ZM77.8526 32.7425C75.9829 35.8077 72.3568 38.9448 68.4474 38.9448C67.7159 38.9448 67.0304 38.8927 66.3895 38.8C66.387 38.7996 66.3844 38.7992 66.3818 38.7988C62.1217 38.18 59.83 35.7587 59.0747 34.8C59.0345 34.7408 58.8631 34.5166 58.8376 34.4793C58.6078 34.0686 58.231 33.7383 57.7505 33.5752L42.0663 28.252C39.5634 27.3126 38.2403 25.1693 38.8467 23.0318C38.8471 23.0304 38.8475 23.029 38.8479 23.0276C38.8485 23.026 38.8489 23.0243 38.8493 23.0227C39.1312 22.0383 39.7786 21.2218 40.6734 20.7234C41.5623 20.228 42.5898 20.1051 43.5698 20.3768L61.2435 25.9773C62.2823 26.307 63.3909 25.7313 63.7199 24.6927C64.049 23.6541 63.4739 22.5455 62.4353 22.2163L48.3792 17.762L48.2565 17.6393C48.2553 17.6381 48.2541 17.6367 48.2527 17.6356L40.9756 10.3584L47.2305 8.11867C47.2516 8.11098 47.2776 8.10131 47.2985 8.09283C47.3039 8.09066 47.3141 8.08671 47.3193 8.08454C47.3461 8.07369 47.3725 8.06225 47.3988 8.05022C51.6273 6.10676 55.6468 7.27003 57.2224 7.88274C63.1765 10.5618 66.3544 12.3942 68.6762 13.733C71.9043 15.5946 73.4597 16.4916 77.8526 16.8544V32.7425ZM85.3258 31.556H81.7981V14.3065H85.3258V31.556ZM97.0547 31.556H89.2712V10.6306H97.0547V31.556Z" fill="white"/>
</g>
<defs>
<clipPath id="clip0">
<rect width="101" height="101" fill="white"/>
</clipPath>
</defs>
</svg>
