<svg width="284" height="247" viewBox="0 0 284 247" fill="none" xmlns="http://www.w3.org/2000/svg">
<g filter="url(#filter0_d)">
<g clip-path="url(#clip0)">
<rect x="30" y="22" width="224" height="187" rx="15" fill="white"/>
<path d="M115.296 108.192C115.296 108.757 115.163 109.291 114.896 109.792C114.63 110.293 114.203 110.704 113.616 111.024C113.03 111.333 112.278 111.488 111.36 111.488H109.344V116H107.52V104.88H111.36C112.214 104.88 112.934 105.029 113.52 105.328C114.118 105.616 114.56 106.011 114.848 106.512C115.147 107.013 115.296 107.573 115.296 108.192ZM111.36 110C112.054 110 112.571 109.845 112.912 109.536C113.254 109.216 113.424 108.768 113.424 108.192C113.424 106.976 112.736 106.368 111.36 106.368H109.344V110H111.36ZM120.86 116.144C120.028 116.144 119.276 115.957 118.604 115.584C117.932 115.2 117.404 114.667 117.02 113.984C116.636 113.291 116.444 112.491 116.444 111.584C116.444 110.688 116.641 109.893 117.036 109.2C117.431 108.507 117.969 107.973 118.652 107.6C119.335 107.227 120.097 107.04 120.94 107.04C121.783 107.04 122.545 107.227 123.228 107.6C123.911 107.973 124.449 108.507 124.844 109.2C125.239 109.893 125.436 110.688 125.436 111.584C125.436 112.48 125.233 113.275 124.828 113.968C124.423 114.661 123.868 115.2 123.164 115.584C122.471 115.957 121.703 116.144 120.86 116.144ZM120.86 114.56C121.329 114.56 121.767 114.448 122.172 114.224C122.588 114 122.924 113.664 123.18 113.216C123.436 112.768 123.564 112.224 123.564 111.584C123.564 110.944 123.441 110.405 123.196 109.968C122.951 109.52 122.625 109.184 122.22 108.96C121.815 108.736 121.377 108.624 120.908 108.624C120.439 108.624 120.001 108.736 119.596 108.96C119.201 109.184 118.887 109.52 118.652 109.968C118.417 110.405 118.3 110.944 118.3 111.584C118.3 112.533 118.54 113.269 119.02 113.792C119.511 114.304 120.124 114.56 120.86 114.56ZM130.439 116.144C129.746 116.144 129.122 116.021 128.567 115.776C128.023 115.52 127.591 115.179 127.271 114.752C126.951 114.315 126.78 113.829 126.759 113.296H128.647C128.679 113.669 128.855 113.984 129.175 114.24C129.506 114.485 129.916 114.608 130.407 114.608C130.919 114.608 131.314 114.512 131.591 114.32C131.879 114.117 132.023 113.861 132.023 113.552C132.023 113.221 131.863 112.976 131.543 112.816C131.234 112.656 130.738 112.48 130.055 112.288C129.394 112.107 128.855 111.931 128.439 111.76C128.023 111.589 127.66 111.328 127.351 110.976C127.052 110.624 126.903 110.16 126.903 109.584C126.903 109.115 127.042 108.688 127.319 108.304C127.596 107.909 127.991 107.6 128.503 107.376C129.026 107.152 129.623 107.04 130.295 107.04C131.298 107.04 132.103 107.296 132.711 107.808C133.33 108.309 133.66 108.997 133.703 109.872H131.879C131.847 109.477 131.687 109.163 131.399 108.928C131.111 108.693 130.722 108.576 130.231 108.576C129.751 108.576 129.383 108.667 129.127 108.848C128.871 109.029 128.743 109.269 128.743 109.568C128.743 109.803 128.828 110 128.999 110.16C129.17 110.32 129.378 110.448 129.623 110.544C129.868 110.629 130.231 110.741 130.711 110.88C131.351 111.051 131.874 111.227 132.279 111.408C132.695 111.579 133.052 111.835 133.351 112.176C133.65 112.517 133.804 112.971 133.815 113.536C133.815 114.037 133.676 114.485 133.399 114.88C133.122 115.275 132.727 115.584 132.215 115.808C131.714 116.032 131.122 116.144 130.439 116.144ZM136.714 106.016C136.383 106.016 136.106 105.904 135.882 105.68C135.658 105.456 135.546 105.179 135.546 104.848C135.546 104.517 135.658 104.24 135.882 104.016C136.106 103.792 136.383 103.68 136.714 103.68C137.034 103.68 137.306 103.792 137.53 104.016C137.754 104.24 137.866 104.517 137.866 104.848C137.866 105.179 137.754 105.456 137.53 105.68C137.306 105.904 137.034 106.016 136.714 106.016ZM137.61 107.184V116H135.786V107.184H137.61ZM142.133 108.672V113.552C142.133 113.883 142.207 114.123 142.357 114.272C142.517 114.411 142.783 114.48 143.157 114.48H144.277V116H142.837C142.015 116 141.386 115.808 140.949 115.424C140.511 115.04 140.293 114.416 140.293 113.552V108.672H139.253V107.184H140.293V104.992H142.133V107.184H144.277V108.672H142.133ZM146.886 106.016C146.555 106.016 146.278 105.904 146.054 105.68C145.83 105.456 145.718 105.179 145.718 104.848C145.718 104.517 145.83 104.24 146.054 104.016C146.278 103.792 146.555 103.68 146.886 103.68C147.206 103.68 147.478 103.792 147.702 104.016C147.926 104.24 148.038 104.517 148.038 104.848C148.038 105.179 147.926 105.456 147.702 105.68C147.478 105.904 147.206 106.016 146.886 106.016ZM147.782 107.184V116H145.958V107.184H147.782ZM153.585 114.368L156.081 107.184H158.017L154.657 116H152.481L149.137 107.184H151.089L153.585 114.368ZM160.323 106.016C159.993 106.016 159.715 105.904 159.491 105.68C159.267 105.456 159.155 105.179 159.155 104.848C159.155 104.517 159.267 104.24 159.491 104.016C159.715 103.792 159.993 103.68 160.323 103.68C160.643 103.68 160.915 103.792 161.139 104.016C161.363 104.24 161.475 104.517 161.475 104.848C161.475 105.179 161.363 105.456 161.139 105.68C160.915 105.904 160.643 106.016 160.323 106.016ZM161.219 107.184V116H159.395V107.184H161.219ZM165.742 108.672V113.552C165.742 113.883 165.817 114.123 165.966 114.272C166.126 114.411 166.393 114.48 166.766 114.48H167.886V116H166.446C165.625 116 164.995 115.808 164.558 115.424C164.121 115.04 163.902 114.416 163.902 113.552V108.672H162.862V107.184H163.902V104.992H165.742V107.184H167.886V108.672H165.742ZM177.503 107.184L172.095 120.144H170.207L171.999 115.856L168.527 107.184H170.559L173.039 113.904L175.615 107.184H177.503Z" fill="#000152"/>
<path d="M267 190.259C267 229.88 213.946 262 148.5 262C83.0543 262 30 229.88 30 190.259C30 150.637 47.5543 178.546 113 178.546C178.446 178.546 267 150.637 267 190.259Z" fill="#E2ECF9"/>
</g>
</g>
<defs>
<filter id="filter0_d" x="0" y="0" width="284" height="247" filterUnits="userSpaceOnUse" color-interpolation-filters="sRGB">
<feFlood flood-opacity="0" result="BackgroundImageFix"/>
<feColorMatrix in="SourceAlpha" type="matrix" values="0 0 0 0 0 0 0 0 0 0 0 0 0 0 0 0 0 0 127 0"/>
<feOffset dy="8"/>
<feGaussianBlur stdDeviation="15"/>
<feColorMatrix type="matrix" values="0 0 0 0 0.168627 0 0 0 0 0.207843 0 0 0 0 0.509804 0 0 0 0.1 0"/>
<feBlend mode="normal" in2="BackgroundImageFix" result="effect1_dropShadow"/>
<feBlend mode="normal" in="SourceGraphic" in2="effect1_dropShadow" result="shape"/>
</filter>
<clipPath id="clip0">
<rect x="30" y="22" width="224" height="187" rx="15" fill="white"/>
</clipPath>
</defs>
</svg>
