<svg width="28" height="28" viewBox="0 0 28 28" fill="none" xmlns="http://www.w3.org/2000/svg">
<path d="M2.75 8.375C1.84766 8.375 0.875 9.21875 0.875 10.25V21.5H4.625C5.07617 21.5 5.5625 21.0781 5.5625 20.5625C5.5625 20.0469 5.07617 19.625 4.625 19.625H3.6875V15.875H24.3125V19.625H23.375C22.9238 19.625 22.4375 20.0469 22.4375 20.5625C22.4375 21.0781 22.9238 21.5 23.375 21.5H27.125V10.25C27.125 9.21875 26.1523 8.375 25.25 8.375H2.75ZM8.375 6.5V2.75H19.625V6.5C19.625 7.01562 20.15 7.4375 20.5625 7.4375C20.975 7.4375 21.5 7.01562 21.5 6.5V0.875H6.5V6.5C6.5 7.01562 7.025 7.4375 7.4375 7.4375C7.85 7.4375 8.375 7.01562 8.375 6.5ZM20.5625 16.8125C20.15 16.8125 19.625 17.2344 19.625 17.75V25.25H8.375V17.75C8.375 17.2344 7.85 16.8125 7.4375 16.8125C7.025 16.8125 6.5 17.2344 6.5 17.75V27.125H21.5V17.75C21.5 17.2344 20.975 16.8125 20.5625 16.8125Z" fill="#000285"/>
</svg>
