<svg width="284" height="247" viewBox="0 0 284 247" fill="none" xmlns="http://www.w3.org/2000/svg">
<g filter="url(#filter0_d)">
<g clip-path="url(#clip0)">
<rect x="30" y="22" width="224" height="187" rx="15" fill="white"/>
<path d="M108.39 108.192C108.39 108.757 108.257 109.291 107.99 109.792C107.723 110.293 107.297 110.704 106.71 111.024C106.123 111.333 105.371 111.488 104.454 111.488H102.438V116H100.614V104.88H104.454C105.307 104.88 106.027 105.029 106.614 105.328C107.211 105.616 107.654 106.011 107.942 106.512C108.241 107.013 108.39 107.573 108.39 108.192ZM104.454 110C105.147 110 105.665 109.845 106.006 109.536C106.347 109.216 106.518 108.768 106.518 108.192C106.518 106.976 105.83 106.368 104.454 106.368H102.438V110H104.454ZM111.954 108.464C112.22 108.016 112.572 107.669 113.01 107.424C113.458 107.168 113.986 107.04 114.594 107.04V108.928H114.13C113.415 108.928 112.871 109.109 112.498 109.472C112.135 109.835 111.954 110.464 111.954 111.36V116H110.13V107.184H111.954V108.464ZM120.094 116.144C119.262 116.144 118.51 115.957 117.838 115.584C117.166 115.2 116.638 114.667 116.254 113.984C115.87 113.291 115.678 112.491 115.678 111.584C115.678 110.688 115.876 109.893 116.27 109.2C116.665 108.507 117.204 107.973 117.886 107.6C118.569 107.227 119.332 107.04 120.174 107.04C121.017 107.04 121.78 107.227 122.462 107.6C123.145 107.973 123.684 108.507 124.078 109.2C124.473 109.893 124.67 110.688 124.67 111.584C124.67 112.48 124.468 113.275 124.062 113.968C123.657 114.661 123.102 115.2 122.398 115.584C121.705 115.957 120.937 116.144 120.094 116.144ZM120.094 114.56C120.564 114.56 121.001 114.448 121.406 114.224C121.822 114 122.158 113.664 122.414 113.216C122.67 112.768 122.798 112.224 122.798 111.584C122.798 110.944 122.676 110.405 122.43 109.968C122.185 109.52 121.86 109.184 121.454 108.96C121.049 108.736 120.612 108.624 120.142 108.624C119.673 108.624 119.236 108.736 118.83 108.96C118.436 109.184 118.121 109.52 117.886 109.968C117.652 110.405 117.534 110.944 117.534 111.584C117.534 112.533 117.774 113.269 118.254 113.792C118.745 114.304 119.358 114.56 120.094 114.56ZM125.865 111.552C125.865 110.667 126.047 109.883 126.409 109.2C126.783 108.517 127.284 107.989 127.913 107.616C128.553 107.232 129.257 107.04 130.025 107.04C130.719 107.04 131.321 107.179 131.833 107.456C132.356 107.723 132.772 108.059 133.081 108.464V107.184H134.921V116H133.081V114.688C132.772 115.104 132.351 115.451 131.817 115.728C131.284 116.005 130.676 116.144 129.993 116.144C129.236 116.144 128.543 115.952 127.913 115.568C127.284 115.173 126.783 114.629 126.409 113.936C126.047 113.232 125.865 112.437 125.865 111.552ZM133.081 111.584C133.081 110.976 132.953 110.448 132.697 110C132.452 109.552 132.127 109.211 131.721 108.976C131.316 108.741 130.879 108.624 130.409 108.624C129.94 108.624 129.503 108.741 129.097 108.976C128.692 109.2 128.361 109.536 128.105 109.984C127.86 110.421 127.737 110.944 127.737 111.552C127.737 112.16 127.86 112.693 128.105 113.152C128.361 113.611 128.692 113.963 129.097 114.208C129.513 114.443 129.951 114.56 130.409 114.56C130.879 114.56 131.316 114.443 131.721 114.208C132.127 113.973 132.452 113.632 132.697 113.184C132.953 112.725 133.081 112.192 133.081 111.584ZM136.709 111.584C136.709 110.677 136.891 109.883 137.253 109.2C137.627 108.507 138.139 107.973 138.789 107.6C139.44 107.227 140.187 107.04 141.029 107.04C142.096 107.04 142.976 107.296 143.669 107.808C144.373 108.309 144.848 109.029 145.093 109.968H143.125C142.965 109.531 142.709 109.189 142.357 108.944C142.005 108.699 141.563 108.576 141.029 108.576C140.283 108.576 139.685 108.843 139.237 109.376C138.8 109.899 138.581 110.635 138.581 111.584C138.581 112.533 138.8 113.275 139.237 113.808C139.685 114.341 140.283 114.608 141.029 114.608C142.085 114.608 142.784 114.144 143.125 113.216H145.093C144.837 114.112 144.357 114.827 143.653 115.36C142.949 115.883 142.075 116.144 141.029 116.144C140.187 116.144 139.44 115.957 138.789 115.584C138.139 115.2 137.627 114.667 137.253 113.984C136.891 113.291 136.709 112.491 136.709 111.584ZM149.039 108.672V113.552C149.039 113.883 149.114 114.123 149.263 114.272C149.423 114.411 149.69 114.48 150.063 114.48H151.183V116H149.743C148.922 116 148.292 115.808 147.855 115.424C147.418 115.04 147.199 114.416 147.199 113.552V108.672H146.159V107.184H147.199V104.992H149.039V107.184H151.183V108.672H149.039ZM153.792 106.016C153.461 106.016 153.184 105.904 152.96 105.68C152.736 105.456 152.624 105.179 152.624 104.848C152.624 104.517 152.736 104.24 152.96 104.016C153.184 103.792 153.461 103.68 153.792 103.68C154.112 103.68 154.384 103.792 154.608 104.016C154.832 104.24 154.944 104.517 154.944 104.848C154.944 105.179 154.832 105.456 154.608 105.68C154.384 105.904 154.112 106.016 153.792 106.016ZM154.688 107.184V116H152.864V107.184H154.688ZM160.491 114.368L162.987 107.184H164.923L161.563 116H159.387L156.043 107.184H157.995L160.491 114.368ZM167.23 106.016C166.899 106.016 166.622 105.904 166.398 105.68C166.174 105.456 166.062 105.179 166.062 104.848C166.062 104.517 166.174 104.24 166.398 104.016C166.622 103.792 166.899 103.68 167.23 103.68C167.55 103.68 167.822 103.792 168.046 104.016C168.27 104.24 168.382 104.517 168.382 104.848C168.382 105.179 168.27 105.456 168.046 105.68C167.822 105.904 167.55 106.016 167.23 106.016ZM168.126 107.184V116H166.302V107.184H168.126ZM172.648 108.672V113.552C172.648 113.883 172.723 114.123 172.872 114.272C173.032 114.411 173.299 114.48 173.672 114.48H174.792V116H173.352C172.531 116 171.902 115.808 171.464 115.424C171.027 115.04 170.808 114.416 170.808 113.552V108.672H169.768V107.184H170.808V104.992H172.648V107.184H174.792V108.672H172.648ZM184.409 107.184L179.001 120.144H177.113L178.905 115.856L175.433 107.184H177.465L179.945 113.904L182.521 107.184H184.409Z" fill="#000152"/>
<path d="M267 190.259C267 229.88 213.946 262 148.5 262C83.0543 262 30 229.88 30 190.259C30 150.637 47.5543 178.546 113 178.546C178.446 178.546 267 150.637 267 190.259Z" fill="#E2ECF9"/>
</g>
</g>
<defs>
<filter id="filter0_d" x="0" y="0" width="284" height="247" filterUnits="userSpaceOnUse" color-interpolation-filters="sRGB">
<feFlood flood-opacity="0" result="BackgroundImageFix"/>
<feColorMatrix in="SourceAlpha" type="matrix" values="0 0 0 0 0 0 0 0 0 0 0 0 0 0 0 0 0 0 127 0"/>
<feOffset dy="8"/>
<feGaussianBlur stdDeviation="15"/>
<feColorMatrix type="matrix" values="0 0 0 0 0.168627 0 0 0 0 0.207843 0 0 0 0 0.509804 0 0 0 0.1 0"/>
<feBlend mode="normal" in2="BackgroundImageFix" result="effect1_dropShadow"/>
<feBlend mode="normal" in="SourceGraphic" in2="effect1_dropShadow" result="shape"/>
</filter>
<clipPath id="clip0">
<rect x="30" y="22" width="224" height="187" rx="15" fill="white"/>
</clipPath>
</defs>
</svg>
