<svg width="284" height="247" viewBox="0 0 284 247" fill="none" xmlns="http://www.w3.org/2000/svg">
<g filter="url(#filter0_d)">
<g clip-path="url(#clip0)">
<rect x="30" y="22" width="224" height="187" rx="15" fill="white"/>
<path d="M103.195 108.192C103.195 108.757 103.061 109.291 102.795 109.792C102.528 110.293 102.101 110.704 101.515 111.024C100.928 111.333 100.176 111.488 99.2588 111.488H97.2428V116H95.4188V104.88H99.2588C100.112 104.88 100.832 105.029 101.419 105.328C102.016 105.616 102.459 106.011 102.747 106.512C103.045 107.013 103.195 107.573 103.195 108.192ZM99.2588 110C99.9521 110 100.469 109.845 100.811 109.536C101.152 109.216 101.323 108.768 101.323 108.192C101.323 106.976 100.635 106.368 99.2588 106.368H97.2428V110H99.2588ZM106.758 108.464C107.025 108.016 107.377 107.669 107.814 107.424C108.262 107.168 108.79 107.04 109.398 107.04V108.928H108.934C108.22 108.928 107.676 109.109 107.302 109.472C106.94 109.835 106.758 110.464 106.758 111.36V116H104.934V107.184H106.758V108.464ZM114.899 116.144C114.067 116.144 113.315 115.957 112.643 115.584C111.971 115.2 111.443 114.667 111.059 113.984C110.675 113.291 110.483 112.491 110.483 111.584C110.483 110.688 110.68 109.893 111.075 109.2C111.47 108.507 112.008 107.973 112.691 107.6C113.374 107.227 114.136 107.04 114.979 107.04C115.822 107.04 116.584 107.227 117.267 107.6C117.95 107.973 118.488 108.507 118.883 109.2C119.278 109.893 119.475 110.688 119.475 111.584C119.475 112.48 119.272 113.275 118.867 113.968C118.462 114.661 117.907 115.2 117.203 115.584C116.51 115.957 115.742 116.144 114.899 116.144ZM114.899 114.56C115.368 114.56 115.806 114.448 116.211 114.224C116.627 114 116.963 113.664 117.219 113.216C117.475 112.768 117.603 112.224 117.603 111.584C117.603 110.944 117.48 110.405 117.235 109.968C116.99 109.52 116.664 109.184 116.259 108.96C115.854 108.736 115.416 108.624 114.947 108.624C114.478 108.624 114.04 108.736 113.635 108.96C113.24 109.184 112.926 109.52 112.691 109.968C112.456 110.405 112.339 110.944 112.339 111.584C112.339 112.533 112.579 113.269 113.059 113.792C113.55 114.304 114.163 114.56 114.899 114.56ZM120.67 111.552C120.67 110.667 120.851 109.883 121.214 109.2C121.587 108.517 122.089 107.989 122.718 107.616C123.358 107.232 124.067 107.04 124.846 107.04C125.422 107.04 125.987 107.168 126.542 107.424C127.107 107.669 127.555 108 127.886 108.416V104.16H129.726V116H127.886V114.672C127.587 115.099 127.171 115.451 126.638 115.728C126.115 116.005 125.513 116.144 124.83 116.144C124.062 116.144 123.358 115.952 122.718 115.568C122.089 115.173 121.587 114.629 121.214 113.936C120.851 113.232 120.67 112.437 120.67 111.552ZM127.886 111.584C127.886 110.976 127.758 110.448 127.502 110C127.257 109.552 126.931 109.211 126.526 108.976C126.121 108.741 125.683 108.624 125.214 108.624C124.745 108.624 124.307 108.741 123.902 108.976C123.497 109.2 123.166 109.536 122.91 109.984C122.665 110.421 122.542 110.944 122.542 111.552C122.542 112.16 122.665 112.693 122.91 113.152C123.166 113.611 123.497 113.963 123.902 114.208C124.318 114.443 124.755 114.56 125.214 114.56C125.683 114.56 126.121 114.443 126.526 114.208C126.931 113.973 127.257 113.632 127.502 113.184C127.758 112.725 127.886 112.192 127.886 111.584ZM140.106 107.184V116H138.282V114.96C137.994 115.323 137.615 115.611 137.146 115.824C136.687 116.027 136.197 116.128 135.674 116.128C134.981 116.128 134.357 115.984 133.802 115.696C133.258 115.408 132.826 114.981 132.506 114.416C132.197 113.851 132.042 113.168 132.042 112.368V107.184H133.85V112.096C133.85 112.885 134.047 113.493 134.442 113.92C134.837 114.336 135.375 114.544 136.058 114.544C136.741 114.544 137.279 114.336 137.674 113.92C138.079 113.493 138.282 112.885 138.282 112.096V107.184H140.106ZM141.905 111.584C141.905 110.677 142.086 109.883 142.449 109.2C142.822 108.507 143.334 107.973 143.985 107.6C144.635 107.227 145.382 107.04 146.225 107.04C147.291 107.04 148.171 107.296 148.865 107.808C149.569 108.309 150.043 109.029 150.289 109.968H148.321C148.161 109.531 147.905 109.189 147.553 108.944C147.201 108.699 146.758 108.576 146.225 108.576C145.478 108.576 144.881 108.843 144.433 109.376C143.995 109.899 143.777 110.635 143.777 111.584C143.777 112.533 143.995 113.275 144.433 113.808C144.881 114.341 145.478 114.608 146.225 114.608C147.281 114.608 147.979 114.144 148.321 113.216H150.289C150.033 114.112 149.553 114.827 148.849 115.36C148.145 115.883 147.27 116.144 146.225 116.144C145.382 116.144 144.635 115.957 143.985 115.584C143.334 115.2 142.822 114.667 142.449 113.984C142.086 113.291 141.905 112.491 141.905 111.584ZM154.234 108.672V113.552C154.234 113.883 154.309 114.123 154.458 114.272C154.618 114.411 154.885 114.48 155.258 114.48H156.378V116H154.938C154.117 116 153.488 115.808 153.05 115.424C152.613 115.04 152.394 114.416 152.394 113.552V108.672H151.354V107.184H152.394V104.992H154.234V107.184H156.378V108.672H154.234ZM158.987 106.016C158.657 106.016 158.379 105.904 158.155 105.68C157.931 105.456 157.819 105.179 157.819 104.848C157.819 104.517 157.931 104.24 158.155 104.016C158.379 103.792 158.657 103.68 158.987 103.68C159.307 103.68 159.579 103.792 159.803 104.016C160.027 104.24 160.139 104.517 160.139 104.848C160.139 105.179 160.027 105.456 159.803 105.68C159.579 105.904 159.307 106.016 158.987 106.016ZM159.883 107.184V116H158.059V107.184H159.883ZM165.686 114.368L168.182 107.184H170.118L166.758 116H164.582L161.238 107.184H163.19L165.686 114.368ZM172.425 106.016C172.094 106.016 171.817 105.904 171.593 105.68C171.369 105.456 171.257 105.179 171.257 104.848C171.257 104.517 171.369 104.24 171.593 104.016C171.817 103.792 172.094 103.68 172.425 103.68C172.745 103.68 173.017 103.792 173.241 104.016C173.465 104.24 173.577 104.517 173.577 104.848C173.577 105.179 173.465 105.456 173.241 105.68C173.017 105.904 172.745 106.016 172.425 106.016ZM173.321 107.184V116H171.497V107.184H173.321ZM177.844 108.672V113.552C177.844 113.883 177.918 114.123 178.068 114.272C178.228 114.411 178.494 114.48 178.868 114.48H179.988V116H178.548C177.726 116 177.097 115.808 176.66 115.424C176.222 115.04 176.004 114.416 176.004 113.552V108.672H174.964V107.184H176.004V104.992H177.844V107.184H179.988V108.672H177.844ZM189.605 107.184L184.197 120.144H182.309L184.101 115.856L180.629 107.184H182.661L185.141 113.904L187.717 107.184H189.605Z" fill="#000152"/>
<path d="M267 190.259C267 229.88 213.946 262 148.5 262C83.0543 262 30 229.88 30 190.259C30 150.637 47.5543 178.546 113 178.546C178.446 178.546 267 150.637 267 190.259Z" fill="#E2ECF9"/>
</g>
</g>
<defs>
<filter id="filter0_d" x="0" y="0" width="284" height="247" filterUnits="userSpaceOnUse" color-interpolation-filters="sRGB">
<feFlood flood-opacity="0" result="BackgroundImageFix"/>
<feColorMatrix in="SourceAlpha" type="matrix" values="0 0 0 0 0 0 0 0 0 0 0 0 0 0 0 0 0 0 127 0"/>
<feOffset dy="8"/>
<feGaussianBlur stdDeviation="15"/>
<feColorMatrix type="matrix" values="0 0 0 0 0.168627 0 0 0 0 0.207843 0 0 0 0 0.509804 0 0 0 0.1 0"/>
<feBlend mode="normal" in2="BackgroundImageFix" result="effect1_dropShadow"/>
<feBlend mode="normal" in="SourceGraphic" in2="effect1_dropShadow" result="shape"/>
</filter>
<clipPath id="clip0">
<rect x="30" y="22" width="224" height="187" rx="15" fill="white"/>
</clipPath>
</defs>
</svg>
