<svg width="284" height="247" viewBox="0 0 284 247" fill="none" xmlns="http://www.w3.org/2000/svg">
<g filter="url(#filter0_d)">
<g clip-path="url(#clip0)">
<rect x="30" y="22" width="224" height="187" rx="15" fill="white"/>
<path d="M118.218 108.192C118.218 108.757 118.085 109.291 117.818 109.792C117.552 110.293 117.125 110.704 116.538 111.024C115.952 111.333 115.2 111.488 114.282 111.488H112.266V116H110.442V104.88H114.282C115.136 104.88 115.856 105.029 116.442 105.328C117.04 105.616 117.482 106.011 117.77 106.512C118.069 107.013 118.218 107.573 118.218 108.192ZM114.282 110C114.976 110 115.493 109.845 115.834 109.536C116.176 109.216 116.346 108.768 116.346 108.192C116.346 106.976 115.658 106.368 114.282 106.368H112.266V110H114.282ZM127.942 107.184V116H126.118V114.96C125.83 115.323 125.451 115.611 124.982 115.824C124.523 116.027 124.032 116.128 123.51 116.128C122.816 116.128 122.192 115.984 121.638 115.696C121.094 115.408 120.662 114.981 120.342 114.416C120.032 113.851 119.878 113.168 119.878 112.368V107.184H121.686V112.096C121.686 112.885 121.883 113.493 122.278 113.92C122.672 114.336 123.211 114.544 123.894 114.544C124.576 114.544 125.115 114.336 125.51 113.92C125.915 113.493 126.118 112.885 126.118 112.096V107.184H127.942ZM132.172 108.464C132.439 108.016 132.791 107.669 133.228 107.424C133.676 107.168 134.204 107.04 134.812 107.04V108.928H134.348C133.634 108.928 133.09 109.109 132.716 109.472C132.354 109.835 132.172 110.464 132.172 111.36V116H130.348V107.184H132.172V108.464ZM138.313 108.48C138.622 108.075 139.044 107.733 139.577 107.456C140.11 107.179 140.713 107.04 141.385 107.04C142.153 107.04 142.852 107.232 143.481 107.616C144.121 107.989 144.622 108.517 144.985 109.2C145.348 109.883 145.529 110.667 145.529 111.552C145.529 112.437 145.348 113.232 144.985 113.936C144.622 114.629 144.121 115.173 143.481 115.568C142.852 115.952 142.153 116.144 141.385 116.144C140.713 116.144 140.116 116.011 139.593 115.744C139.07 115.467 138.644 115.125 138.313 114.72V120.192H136.489V107.184H138.313V108.48ZM143.673 111.552C143.673 110.944 143.545 110.421 143.289 109.984C143.044 109.536 142.713 109.2 142.297 108.976C141.892 108.741 141.454 108.624 140.985 108.624C140.526 108.624 140.089 108.741 139.673 108.976C139.268 109.211 138.937 109.552 138.681 110C138.436 110.448 138.313 110.976 138.313 111.584C138.313 112.192 138.436 112.725 138.681 113.184C138.937 113.632 139.268 113.973 139.673 114.208C140.089 114.443 140.526 114.56 140.985 114.56C141.454 114.56 141.892 114.443 142.297 114.208C142.713 113.963 143.044 113.611 143.289 113.152C143.545 112.693 143.673 112.16 143.673 111.552ZM151.157 116.144C150.325 116.144 149.573 115.957 148.901 115.584C148.229 115.2 147.701 114.667 147.317 113.984C146.933 113.291 146.741 112.491 146.741 111.584C146.741 110.688 146.938 109.893 147.333 109.2C147.727 108.507 148.266 107.973 148.949 107.6C149.631 107.227 150.394 107.04 151.237 107.04C152.079 107.04 152.842 107.227 153.525 107.6C154.207 107.973 154.746 108.507 155.141 109.2C155.535 109.893 155.733 110.688 155.733 111.584C155.733 112.48 155.53 113.275 155.125 113.968C154.719 114.661 154.165 115.2 153.461 115.584C152.767 115.957 151.999 116.144 151.157 116.144ZM151.157 114.56C151.626 114.56 152.063 114.448 152.469 114.224C152.885 114 153.221 113.664 153.477 113.216C153.733 112.768 153.861 112.224 153.861 111.584C153.861 110.944 153.738 110.405 153.493 109.968C153.247 109.52 152.922 109.184 152.517 108.96C152.111 108.736 151.674 108.624 151.205 108.624C150.735 108.624 150.298 108.736 149.893 108.96C149.498 109.184 149.183 109.52 148.949 109.968C148.714 110.405 148.597 110.944 148.597 111.584C148.597 112.533 148.837 113.269 149.317 113.792C149.807 114.304 150.421 114.56 151.157 114.56ZM160.736 116.144C160.043 116.144 159.419 116.021 158.864 115.776C158.32 115.52 157.888 115.179 157.568 114.752C157.248 114.315 157.077 113.829 157.056 113.296H158.944C158.976 113.669 159.152 113.984 159.472 114.24C159.803 114.485 160.213 114.608 160.704 114.608C161.216 114.608 161.611 114.512 161.888 114.32C162.176 114.117 162.32 113.861 162.32 113.552C162.32 113.221 162.16 112.976 161.84 112.816C161.531 112.656 161.035 112.48 160.352 112.288C159.691 112.107 159.152 111.931 158.736 111.76C158.32 111.589 157.957 111.328 157.648 110.976C157.349 110.624 157.2 110.16 157.2 109.584C157.2 109.115 157.339 108.688 157.616 108.304C157.893 107.909 158.288 107.6 158.8 107.376C159.323 107.152 159.92 107.04 160.592 107.04C161.595 107.04 162.4 107.296 163.008 107.808C163.627 108.309 163.957 108.997 164 109.872H162.176C162.144 109.477 161.984 109.163 161.696 108.928C161.408 108.693 161.019 108.576 160.528 108.576C160.048 108.576 159.68 108.667 159.424 108.848C159.168 109.029 159.04 109.269 159.04 109.568C159.04 109.803 159.125 110 159.296 110.16C159.467 110.32 159.675 110.448 159.92 110.544C160.165 110.629 160.528 110.741 161.008 110.88C161.648 111.051 162.171 111.227 162.576 111.408C162.992 111.579 163.349 111.835 163.648 112.176C163.947 112.517 164.101 112.971 164.112 113.536C164.112 114.037 163.973 114.485 163.696 114.88C163.419 115.275 163.024 115.584 162.512 115.808C162.011 116.032 161.419 116.144 160.736 116.144ZM174.163 111.376C174.163 111.707 174.141 112.005 174.099 112.272H167.363C167.416 112.976 167.677 113.541 168.147 113.968C168.616 114.395 169.192 114.608 169.875 114.608C170.856 114.608 171.549 114.197 171.955 113.376H173.923C173.656 114.187 173.171 114.853 172.467 115.376C171.773 115.888 170.909 116.144 169.875 116.144C169.032 116.144 168.275 115.957 167.603 115.584C166.941 115.2 166.419 114.667 166.035 113.984C165.661 113.291 165.475 112.491 165.475 111.584C165.475 110.677 165.656 109.883 166.019 109.2C166.392 108.507 166.909 107.973 167.571 107.6C168.243 107.227 169.011 107.04 169.875 107.04C170.707 107.04 171.448 107.221 172.099 107.584C172.749 107.947 173.256 108.459 173.619 109.12C173.981 109.771 174.163 110.523 174.163 111.376ZM172.259 110.8C172.248 110.128 172.008 109.589 171.539 109.184C171.069 108.779 170.488 108.576 169.795 108.576C169.165 108.576 168.627 108.779 168.179 109.184C167.731 109.579 167.464 110.117 167.379 110.8H172.259Z" fill="#000152"/>
<path d="M267 190.259C267 229.88 213.946 262 148.5 262C83.0543 262 30 229.88 30 190.259C30 150.637 47.5543 178.546 113 178.546C178.446 178.546 267 150.637 267 190.259Z" fill="#E2ECF9"/>
</g>
</g>
<defs>
<filter id="filter0_d" x="0" y="0" width="284" height="247" filterUnits="userSpaceOnUse" color-interpolation-filters="sRGB">
<feFlood flood-opacity="0" result="BackgroundImageFix"/>
<feColorMatrix in="SourceAlpha" type="matrix" values="0 0 0 0 0 0 0 0 0 0 0 0 0 0 0 0 0 0 127 0"/>
<feOffset dy="8"/>
<feGaussianBlur stdDeviation="15"/>
<feColorMatrix type="matrix" values="0 0 0 0 0.168627 0 0 0 0 0.207843 0 0 0 0 0.509804 0 0 0 0.1 0"/>
<feBlend mode="normal" in2="BackgroundImageFix" result="effect1_dropShadow"/>
<feBlend mode="normal" in="SourceGraphic" in2="effect1_dropShadow" result="shape"/>
</filter>
<clipPath id="clip0">
<rect x="30" y="22" width="224" height="187" rx="15" fill="white"/>
</clipPath>
</defs>
</svg>
