<svg width="16" height="16" viewBox="0 0 16 16" fill="none" xmlns="http://www.w3.org/2000/svg">
<path d="M8.00001 16.001C3.58912 16.001 0 12.4119 0 8.00099C0 3.59009 3.58912 0.000976562 8.00001 0.000976562C10.7319 0.000976562 13.3721 1.38599 14.8889 3.61695C15.096 3.92188 15.0171 4.33594 14.7129 4.54297C14.408 4.75098 13.9939 4.66993 13.7871 4.36695C12.5149 2.49707 10.2971 1.33399 8.00099 1.33399C4.32496 1.33399 1.33399 4.32496 1.33399 8.00099C1.33399 11.677 4.32496 14.668 8.00099 14.668C9.78004 14.668 11.4541 13.9739 12.7141 12.7139C12.9741 12.4539 13.396 12.4539 13.657 12.7139C13.917 12.9739 13.917 13.396 13.657 13.657C12.1441 15.168 10.135 16.001 8.00001 16.001Z" fill="#FF7F00"/>
</svg>
