<svg width="17" height="21" viewBox="0 0 17 21" fill="none" xmlns="http://www.w3.org/2000/svg">
<path d="M14.6495 2.75139H12.7497V1.90147C12.7497 1.62649 12.4497 1.50151 12.1747 1.50151H10.6999C10.3499 0.501581 9.47496 0.00161859 8.47504 0.00161859C7.48612 -0.0355592 6.58663 0.570817 6.25021 1.50151H4.80032C4.52534 1.50151 4.25036 1.62649 4.25036 1.90147V2.75139H2.35046C1.2246 2.7634 0.30353 3.65155 0.25061 4.77622V19.1001C0.25061 20.2 1.25054 21 2.35046 21H14.6495C15.7494 21 16.7494 20.2 16.7494 19.1001V4.77626C16.6965 3.65155 15.7754 2.7634 14.6495 2.75139ZM5.25023 2.50143H6.62514C6.86515 2.47215 7.05793 2.28956 7.10013 2.05147C7.24817 1.40677 7.81378 0.943983 8.47504 0.926566C9.13017 0.946423 9.68726 1.41064 9.82492 2.05147C9.86976 2.29779 10.0753 2.48272 10.3249 2.50143H11.7498V4.50128H5.25023V2.50143ZM15.7494 19.1002C15.7494 19.6501 15.1995 20.0001 14.6495 20.0001H2.35046C1.8005 20.0001 1.25054 19.6501 1.25054 19.1002V4.77626C1.30154 4.20381 1.77581 3.76184 2.35046 3.75136H4.25031V5.02627C4.27672 5.30637 4.51931 5.5159 4.80027 5.50125H12.1747C12.4608 5.5169 12.711 5.31025 12.7496 5.02627V3.75131H14.6495C15.2241 3.76184 15.6984 4.20376 15.7494 4.77622V19.1002H15.7494Z" fill="#000285"/>
<path d="M6.57512 11.1754C6.3876 10.9777 6.07631 10.9666 5.87515 11.1504L4.27526 12.6753L3.60032 11.9753C3.41281 11.7777 3.10151 11.7666 2.90036 11.9503C2.70672 12.1532 2.70672 12.4724 2.90036 12.6753L3.92526 13.7252C4.01397 13.8245 4.1421 13.8795 4.27522 13.8752C4.40709 13.8733 4.53288 13.8194 4.62518 13.7252L6.57502 11.8754C6.76833 11.698 6.78125 11.3976 6.60388 11.2043C6.59478 11.1942 6.58517 11.1846 6.57512 11.1754Z" fill="#000285"/>
<path d="M13.7496 12.251H8.00008C7.72395 12.251 7.50012 12.4748 7.50012 12.7509C7.50012 13.0271 7.72395 13.2509 8.00008 13.2509H13.7496C14.0258 13.2509 14.2496 13.0271 14.2496 12.7509C14.2496 12.4748 14.0258 12.251 13.7496 12.251Z" fill="#000285"/>
<path d="M6.57512 7.17638C6.3876 6.97872 6.07631 6.96757 5.87515 7.1514L4.27526 8.67626L3.60032 7.9763C3.41281 7.77864 3.10151 7.76749 2.90036 7.95132C2.70672 8.1542 2.70672 8.47339 2.90036 8.67626L3.92526 9.72619C4.01397 9.82552 4.1421 9.88045 4.27522 9.87619C4.40709 9.87433 4.53288 9.8204 4.62518 9.72619L6.57502 7.87634C6.76833 7.69902 6.78125 7.39853 6.60388 7.20528C6.59478 7.19518 6.58517 7.18556 6.57512 7.17638Z" fill="#000285"/>
<path d="M13.7496 8.25098H8.00008C7.72395 8.25098 7.50012 8.47481 7.50012 8.75094C7.50012 9.02707 7.72395 9.2509 8.00008 9.2509H13.7496C14.0258 9.2509 14.2496 9.02707 14.2496 8.75094C14.2496 8.47481 14.0258 8.25098 13.7496 8.25098Z" fill="#000285"/>
<path d="M6.57512 15.1754C6.3876 14.9777 6.07631 14.9666 5.87515 15.1504L4.27526 16.6753L3.60032 15.9753C3.41281 15.7776 3.10151 15.7665 2.90036 15.9503C2.70672 16.1532 2.70672 16.4724 2.90036 16.6753L3.92526 17.7252C4.01397 17.8245 4.1421 17.8795 4.27522 17.8752C4.40709 17.8733 4.53288 17.8194 4.62518 17.7252L6.57502 15.8753C6.76833 15.698 6.78125 15.3975 6.60388 15.2043C6.59478 15.1942 6.58517 15.1846 6.57512 15.1754Z" fill="#000285"/>
<path d="M13.7496 16.25H8.00008C7.72395 16.25 7.50012 16.4738 7.50012 16.75C7.50012 17.0261 7.72395 17.2499 8.00008 17.2499H13.7496C14.0258 17.2499 14.2496 17.0261 14.2496 16.75C14.2496 16.4738 14.0258 16.25 13.7496 16.25Z" fill="#000285"/>
</svg>
