<svg width="109" height="109" viewBox="0 0 109 109" fill="none" xmlns="http://www.w3.org/2000/svg">
<path d="M53.7159 65.7483C71.5489 65.7483 86.0578 51.2401 86.0578 33.4064C86.0578 15.5726 71.5489 1.06445 53.7159 1.06445C35.8822 1.06445 21.374 15.5726 21.374 33.4064C21.374 51.2401 35.8822 65.7483 53.7159 65.7483ZM26.7553 44.648H39.2676C39.9745 48.7794 41.0739 52.5765 42.5242 55.8089C43.562 58.1216 44.7421 60.0584 46.0311 61.5903C37.3092 59.2094 30.2007 52.8792 26.7553 44.648ZM53.7159 4.19627C56.7056 4.19627 59.7426 7.14431 62.0486 12.2853C63.3334 15.1493 64.3239 18.5032 64.9858 22.1647H42.4452C43.1072 18.5032 44.0976 15.1493 45.3824 12.2853C47.6885 7.14514 50.7255 4.19627 53.7159 4.19627ZM65.4623 25.2966C65.7875 27.9003 65.9555 30.623 65.9555 33.4064C65.9555 36.1897 65.7875 38.9124 65.4623 41.5162H41.9687C41.6435 38.9124 41.4764 36.1897 41.4764 33.4064C41.4764 30.623 41.6435 27.9003 41.9687 25.2966H65.4623ZM82.9252 33.4064C82.9252 36.2197 82.526 38.9399 81.7801 41.5162H68.6158C68.9268 38.8991 69.0873 36.1789 69.0873 33.4064C69.0873 30.6338 68.9268 27.9136 68.6158 25.2974H81.7801C82.526 27.8729 82.9252 30.5939 82.9252 33.4064ZM53.7159 62.6165C50.7255 62.6165 47.6885 59.6676 45.3824 54.5274C44.0976 51.6634 43.1072 48.3095 42.4452 44.648H64.9858C64.3239 48.3095 63.3334 51.6634 62.0486 54.5274C59.7426 59.6676 56.7056 62.6165 53.7159 62.6165ZM38.8153 41.5162H25.651C24.905 38.9399 24.5058 36.2197 24.5058 33.4064C24.5058 30.5939 24.9058 27.8729 25.651 25.2974H38.8153C38.5042 27.9136 38.3437 30.6346 38.3437 33.4064C38.3437 36.1789 38.5042 38.8991 38.8153 41.5162ZM61.4008 61.5903C62.6898 60.0584 63.8698 58.1216 64.9068 55.8089C66.3571 52.5765 67.4565 48.7794 68.1634 44.648H80.6757C77.2312 52.8792 70.1227 59.2094 61.4008 61.5903ZM80.6757 22.1647H68.1634C67.4565 18.0333 66.3571 14.2371 64.9068 11.0038C63.8698 8.69109 62.6898 6.75429 61.4008 5.22247C70.1227 7.60336 77.2312 13.9344 80.6757 22.1647ZM46.0311 5.22247C44.7421 6.75429 43.562 8.69193 42.525 11.0038C41.0747 14.2371 39.9745 18.0333 39.2676 22.1647H26.7562C30.2007 13.9344 37.3084 7.60336 46.0311 5.22247Z" fill="#000285"/>
<path d="M13.0113 57.7325H3.32309C1.49107 57.7325 0 59.2227 0 61.0547V100.153C0 101.985 1.49107 103.476 3.32309 103.476H13.0113C14.8441 103.476 16.3344 101.985 16.3344 100.153V61.0547C16.3344 59.2227 14.8441 57.7325 13.0113 57.7325ZM13.2025 100.153C13.2025 100.258 13.1169 100.344 13.0113 100.344H3.32309C3.21748 100.344 3.13182 100.258 3.13182 100.153V61.0547C3.13182 60.9499 3.21748 60.8643 3.32309 60.8643H13.0113C13.1169 60.8643 13.2025 60.9499 13.2025 61.0547V100.153Z" fill="#000285"/>
<path d="M107.84 71.2776C105.767 68.2298 101.59 67.424 98.5341 69.4772L77.1536 83.7866L72.5124 83.5263L72.391 82.3005C71.9394 77.7592 68.4683 74.1408 63.9494 73.5022C63.9361 73.4997 63.9228 73.498 63.9095 73.4963L46.509 71.493C42.6811 70.9491 39.0478 69.6826 35.7098 67.73C31.2948 65.1479 26.2619 63.6169 21.1567 63.3042C20.2968 63.2585 19.5509 63.9088 19.4976 64.772C19.4444 65.6352 20.1022 66.3778 20.9654 66.431C25.5833 66.7138 30.1347 68.0976 34.1281 70.4336C37.8254 72.5966 41.8495 73.997 46.0898 74.5974C46.104 74.5991 46.1173 74.6007 46.1306 74.6024L63.5294 76.6057C66.6055 77.0498 68.9664 79.5163 69.2741 82.6107L69.3831 83.7043L44.7144 87.6968L34.0066 85.069C33.1659 84.8619 32.3185 85.3758 32.1131 86.2166C31.9068 87.0565 32.4199 87.9047 33.2607 88.111L44.2778 90.8145C44.4 90.8444 44.5256 90.8594 44.6503 90.8594C44.7343 90.8594 44.8183 90.8528 44.9007 90.8394L71.1694 86.5883L77.5012 86.9434C77.8413 86.9633 78.1773 86.8702 78.46 86.6814L100.279 72.0793C101.913 70.9807 104.143 71.4124 105.251 73.039C106.263 74.5267 106.012 76.55 104.659 77.7517L83.0879 97.1513C81.2925 98.6083 79.1386 99.5705 76.855 99.9372L43.4487 104.753C43.4412 104.754 43.4345 104.755 43.427 104.756L43.4038 104.759C42.3942 104.919 41.3422 104.852 40.2769 104.559L22.701 97.9039C21.8918 97.5971 20.9879 98.0045 20.681 98.8137C20.375 99.6228 20.7825 100.527 21.5916 100.833L39.2341 107.514C39.2765 107.531 39.3198 107.545 39.3638 107.556C40.3534 107.836 41.343 107.976 42.3202 107.976C42.8483 107.976 43.3738 107.935 43.8927 107.853C43.8936 107.852 43.9002 107.852 43.9052 107.851L77.3149 103.035C77.3224 103.034 77.3307 103.032 77.3382 103.032C80.1823 102.578 82.865 101.375 85.0962 99.5555C85.1162 99.5397 85.1353 99.5231 85.1536 99.5064L106.746 80.0868C109.264 77.8498 109.735 74.0627 107.84 71.2776Z" fill="#000285"/>
</svg>