<svg width="109" height="109" viewBox="0 0 109 109" fill="none" xmlns="http://www.w3.org/2000/svg">
<path d="M53.7158 65.7483C71.5487 65.7483 86.0577 51.2401 86.0577 33.4064C86.0577 15.5726 71.5487 1.06445 53.7158 1.06445C35.882 1.06445 21.3739 15.5726 21.3739 33.4064C21.3739 51.2401 35.882 65.7483 53.7158 65.7483ZM26.7552 44.648H39.2675C39.9744 48.7794 41.0738 52.5765 42.5241 55.8089C43.5619 58.1216 44.742 60.0584 46.0309 61.5903C37.3091 59.2094 30.2005 52.8792 26.7552 44.648ZM53.7158 4.19627C56.7054 4.19627 59.7424 7.14431 62.0485 12.2853C63.3333 15.1493 64.3237 18.5032 64.9857 22.1647H42.4451C43.107 18.5032 44.0975 15.1493 45.3823 12.2853C47.6883 7.14514 50.7253 4.19627 53.7158 4.19627ZM65.4622 25.2966C65.7874 27.9003 65.9553 30.623 65.9553 33.4064C65.9553 36.1897 65.7874 38.9124 65.4622 41.5162H41.9686C41.6434 38.9124 41.4762 36.1897 41.4762 33.4064C41.4762 30.623 41.6434 27.9003 41.9686 25.2966H65.4622ZM82.9251 33.4064C82.9251 36.2197 82.5259 38.9399 81.7799 41.5162H68.6156C68.9267 38.8991 69.0872 36.1789 69.0872 33.4064C69.0872 30.6338 68.9267 27.9136 68.6156 25.2974H81.7799C82.5259 27.8729 82.9251 30.5939 82.9251 33.4064ZM53.7158 62.6165C50.7253 62.6165 47.6883 59.6676 45.3823 54.5274C44.0975 51.6634 43.107 48.3095 42.4451 44.648H64.9857C64.3237 48.3095 63.3333 51.6634 62.0485 54.5274C59.7424 59.6676 56.7054 62.6165 53.7158 62.6165ZM38.8151 41.5162H25.6508C24.9049 38.9399 24.5057 36.2197 24.5057 33.4064C24.5057 30.5939 24.9057 27.8729 25.6508 25.2974H38.8151C38.5041 27.9136 38.3436 30.6346 38.3436 33.4064C38.3436 36.1789 38.5041 38.8991 38.8151 41.5162ZM61.4007 61.5903C62.6896 60.0584 63.8697 58.1216 64.9067 55.8089C66.357 52.5765 67.4564 48.7794 68.1633 44.648H80.6756C77.2311 52.8792 70.1225 59.2094 61.4007 61.5903ZM80.6756 22.1647H68.1633C67.4564 18.0333 66.357 14.2371 64.9067 11.0038C63.8697 8.69109 62.6896 6.75429 61.4007 5.22247C70.1225 7.60336 77.2311 13.9344 80.6756 22.1647ZM46.0309 5.22247C44.742 6.75429 43.5619 8.69193 42.5249 11.0038C41.0746 14.2371 39.9744 18.0333 39.2675 22.1647H26.756C30.2005 13.9344 37.3083 7.60336 46.0309 5.22247Z" fill="white"/>
<path d="M13.0113 57.7324H3.32309C1.49107 57.7324 0 59.2227 0 61.0547V100.153C0 101.985 1.49107 103.476 3.32309 103.476H13.0113C14.8441 103.476 16.3344 101.985 16.3344 100.153V61.0547C16.3344 59.2227 14.8441 57.7324 13.0113 57.7324ZM13.2025 100.153C13.2025 100.258 13.1169 100.344 13.0113 100.344H3.32309C3.21748 100.344 3.13182 100.258 3.13182 100.153V61.0547C3.13182 60.9499 3.21748 60.8642 3.32309 60.8642H13.0113C13.1169 60.8642 13.2025 60.9499 13.2025 61.0547V100.153Z" fill="white"/>
<path d="M107.84 71.2777C105.767 68.2299 101.59 67.424 98.5343 69.4773L77.1537 83.7867L72.5125 83.5264L72.3911 82.3006C71.9396 77.7592 68.4685 74.1409 63.9495 73.5022C63.9362 73.4997 63.9229 73.4981 63.9096 73.4964L46.5091 71.4931C42.6813 70.9492 39.048 69.6827 35.7099 67.7301C31.2949 65.1479 26.2621 63.617 21.1568 63.3043C20.297 63.2585 19.551 63.9088 19.4978 64.7721C19.4446 65.6353 20.1024 66.3779 20.9656 66.4311C25.5835 66.7138 30.1348 68.0976 34.1282 70.4336C37.8255 72.5966 41.8496 73.997 46.09 74.5975C46.1041 74.5991 46.1174 74.6008 46.1307 74.6024L63.5296 76.6058C66.6057 77.0499 68.9666 79.5164 69.2743 82.6108L69.3832 83.7043L44.7145 87.6969L34.0068 85.069C33.166 84.8619 32.3186 85.3759 32.1132 86.2166C31.907 87.0565 32.4201 87.9048 33.2608 88.111L44.2779 90.8146C44.4002 90.8445 44.5257 90.8595 44.6505 90.8595C44.7345 90.8595 44.8185 90.8528 44.9008 90.8395L71.1695 86.5884L77.5013 86.9434C77.8415 86.9634 78.1774 86.8703 78.4602 86.6815L100.279 72.0794C101.913 70.9808 104.143 71.4124 105.251 73.039C106.263 74.5268 106.012 76.5501 104.659 77.7517L83.0881 97.1514C81.2926 98.6084 79.1388 99.5705 76.8552 99.9373L43.4488 104.753C43.4413 104.754 43.4347 104.755 43.4272 104.756L43.4039 104.759C42.3943 104.919 41.3424 104.852 40.2771 104.559L22.7011 97.904C21.892 97.5971 20.988 98.0046 20.6812 98.8138C20.3751 99.6229 20.7826 100.527 21.5918 100.833L39.2343 107.514C39.2767 107.531 39.3199 107.545 39.364 107.556C40.3536 107.836 41.3432 107.976 42.3203 107.976C42.8484 107.976 43.374 107.935 43.8929 107.853C43.8937 107.852 43.9004 107.852 43.9054 107.851L77.3151 103.035C77.3225 103.034 77.3309 103.032 77.3383 103.032C80.1824 102.578 82.8652 101.375 85.0964 99.5555C85.1163 99.5397 85.1355 99.5231 85.1538 99.5065L106.746 80.0869C109.264 77.8499 109.735 74.0627 107.84 71.2777Z" fill="white"/>
</svg>
