<svg width="63" height="62" viewBox="0 0 63 62" fill="none" xmlns="http://www.w3.org/2000/svg">
<path d="M31.8647 38.1053C27.6762 38.1053 24.2686 34.7722 24.2686 30.6751C24.2686 26.578 27.6762 23.2448 31.8647 23.2448C36.0533 23.2448 39.4608 26.578 39.4608 30.6751C39.4608 34.7722 36.0533 38.1053 31.8647 38.1053ZM31.8647 25.0281C28.6815 25.0281 26.0916 27.5614 26.0916 30.6751C26.0916 33.7888 28.6815 36.3221 31.8647 36.3221C35.0479 36.3221 37.6378 33.7888 37.6378 30.6751C37.6378 27.5614 35.0479 25.0281 31.8647 25.0281Z" fill="white"/>
<path d="M7.98242 4.23459L16.5605 10.1081L7.98242 15.9816V4.23459ZM9.8055 12.5565L13.3813 10.1081L9.8055 7.65965V12.5565Z" fill="white"/>
<path d="M60.1823 13.9718H57.2053V14.9823C57.2053 17.5716 55.0517 19.6782 52.4046 19.6782H51.7604L49.8344 14.3588L44.326 19.7468L45.6095 21.0023L43.9183 24.4825L44.8643 26.7168L48.5761 28.0079V33.3421L44.8643 34.6332L43.9183 36.8675L45.6095 40.3477L44.326 41.6032L46.4785 43.7086C48.2179 42.2896 50.4539 41.4341 52.8907 41.4341C58.4195 41.4341 62.9176 45.834 62.9176 51.2421C62.9176 56.6501 58.4195 61.05 52.8907 61.05C47.3619 61.05 42.8638 56.6501 42.8638 51.2421C42.8638 48.8584 43.7384 46.6713 45.1892 44.9698L43.0367 42.8644L41.7533 44.1198L38.1954 42.4655L35.9112 43.3909L34.5913 47.0217H29.1379L27.818 43.3909L25.5339 42.4655L21.976 44.1198L20.6925 42.8644L16.0776 47.3783H18.7384C20.5814 47.3783 22.0807 48.845 22.0807 50.6477V57.7807C22.0807 59.5834 20.5814 61.05 18.7384 61.05H4.15383C2.31082 61.05 0.811523 59.5834 0.811523 57.7807V50.6477C0.811523 48.845 2.31082 47.3783 4.15383 47.3783H5.91613V43.2265L13.6653 47.2159L19.4032 41.6033L18.1198 40.3479L19.8111 36.8676L18.865 34.6333L15.1531 33.3421V28.0079L18.8648 26.7168L19.811 24.4825L18.1197 21.0023L19.4031 19.7468L17.2507 17.6414C15.5112 19.0604 13.2753 19.916 10.8384 19.916C5.30954 19.916 0.811523 15.5161 0.811523 10.108C0.811523 4.69998 5.30954 0.300064 10.8384 0.300064C16.3673 0.300064 20.8654 4.69998 20.8654 10.108C20.8654 12.4917 19.9906 14.6789 18.54 16.3804L20.6924 18.4858L21.9758 17.2304L25.5338 18.8847L27.8178 17.9593L29.1377 14.3286H34.5912L35.9111 17.9593L38.1953 18.8847L41.7532 17.2304L43.0366 18.4858L47.6516 13.9718H45.7807V1.48891H49.2515L51.4392 0.300064H56.8451C58.9682 0.300064 60.8402 1.77209 61.2964 3.80026L62.8532 10.7221C63.0321 11.5175 62.8355 12.338 62.3138 12.9728C61.7919 13.6076 61.0151 13.9718 60.1823 13.9718ZM52.8907 43.2174C50.935 43.2174 49.1378 43.8912 47.7267 45.0126C47.7529 46.8713 48.7996 48.5338 50.4507 49.3959C51.1231 48.8777 51.9702 48.5673 52.8907 48.5673C53.8112 48.5673 54.6584 48.8777 55.3307 49.3959C56.9818 48.5339 58.0285 46.8713 58.0548 45.0126C56.6436 43.8911 54.8464 43.2174 52.8907 43.2174ZM50.7638 52.4309V53.6198C50.7638 54.7669 51.718 55.7002 52.8907 55.7002C54.0634 55.7002 55.0176 54.7669 55.0176 53.6198V52.4309C55.0176 51.2838 54.0634 50.3504 52.8907 50.3504C51.718 50.3504 50.7638 51.2837 50.7638 52.4309ZM44.6869 51.2421C44.6869 55.667 48.3671 59.2668 52.8907 59.2668C57.4144 59.2668 61.0946 55.667 61.0946 51.2421C61.0946 49.5561 60.5591 47.9907 59.6474 46.6978C59.1852 48.4156 58.0546 49.8929 56.4756 50.8114C56.7093 51.3043 56.8407 51.8527 56.8407 52.4309V53.6198C56.8407 55.7503 55.0688 57.4835 52.8907 57.4835C50.7126 57.4835 48.9407 55.7503 48.9407 53.6198V52.4309C48.9407 51.8528 49.0721 51.3043 49.3058 50.8114C47.7268 49.8929 46.5962 48.4156 46.134 46.6978C45.2224 47.9907 44.6869 49.5561 44.6869 51.2421ZM13.5301 49.1616L7.73921 46.1803V49.1616H4.15383C3.31606 49.1616 2.6346 49.8282 2.6346 50.6477V57.7807C2.6346 58.6001 3.31606 59.2668 4.15383 59.2668H18.7384C19.5762 59.2668 20.2577 58.6002 20.2577 57.7807V50.6477C20.2577 49.8282 19.5762 49.1616 18.7384 49.1616H13.5301ZM19.0423 10.108C19.0423 5.68316 15.3621 2.08333 10.8384 2.08333C6.31478 2.08333 2.6346 5.68316 2.6346 10.108C2.6346 14.5329 6.31478 18.1327 10.8384 18.1327C15.3621 18.1327 19.0423 14.5329 19.0423 10.108ZM43.4106 21.3733L41.374 19.3811L38.2462 20.8355L34.4651 19.3033L33.3047 16.1117H30.4245L29.2641 19.3034L25.4828 20.8356L22.3552 19.3813L20.3186 21.3734L21.8053 24.4329L20.2391 28.1314L16.9761 29.2664V32.0836L20.2391 33.2187L21.8053 36.9172L20.3186 39.9767L22.3552 41.9688L25.4828 40.5145L29.2641 42.0467L30.4245 45.2384H33.3047L34.4651 42.0467L38.2462 40.5145L41.374 41.9688L43.4106 39.9767L41.9238 36.9172L43.4902 33.2187L46.753 32.0836V29.2664L43.4901 28.1313L41.9237 24.4328L43.4106 21.3733ZM61.0724 11.1052L59.5156 4.18331C59.2421 2.96664 58.1189 2.08333 56.845 2.08333H51.9115L49.7238 3.27217H47.6038V12.1885H50.9826L53.0257 17.8312C54.3704 17.5509 55.3822 16.38 55.3822 14.9823V12.1885H60.1823C60.4599 12.1885 60.7189 12.0671 60.8928 11.8555C61.0667 11.6439 61.1322 11.3705 61.0724 11.1052Z" fill="white"/>
<path d="M5.36914 56.7702H17.523V54.9869H5.36914V56.7702Z" fill="white"/>
<path d="M5.36914 53.2037H13.8768V51.4204H5.36914V53.2037Z" fill="white"/>
</svg>
