<svg width="41" height="20" viewBox="0 0 41 20" fill="none" xmlns="http://www.w3.org/2000/svg">
<path d="M1.60152 11.5313L35.5193 11.5313L29.9007 17.1226C29.2737 17.7466 29.2713 18.7606 29.8953 19.3876C30.5193 20.0146 31.5334 20.0169 32.1603 19.393L40.5288 11.0649C40.5294 11.0644 40.5298 11.0638 40.5302 11.0634C41.1556 10.4394 41.1576 9.42209 40.5304 8.79604C40.5298 8.79556 40.5294 8.795 40.529 8.79452L32.1605 0.466397C31.5336 -0.15741 30.5195 -0.15525 29.8955 0.471841C29.2715 1.09877 29.2739 2.1128 29.9008 2.73677L35.5193 8.32814L1.60152 8.32814C0.716973 8.32814 -4.86456e-05 9.04516 -4.87229e-05 9.9297C-4.88002e-05 10.8142 0.716973 11.5313 1.60152 11.5313Z" fill="white"/>
</svg>
