<svg width="26" height="26" viewBox="0 0 26 26" fill="none" xmlns="http://www.w3.org/2000/svg">
<g clip-path="url(#clip0)">
<path d="M24.0872 4.33327C24.0872 6.27783 22.511 7.85423 20.5664 7.85423C18.6219 7.85423 17.0457 6.27783 17.0457 4.33327C17.0457 2.3889 18.6219 0.8125 20.5664 0.8125C22.511 0.8125 24.0872 2.3889 24.0872 4.33327Z" fill="#000285"/>
<path d="M20.5664 8.66673C18.1765 8.66673 16.2332 6.72316 16.2332 4.33327C16.2332 1.94357 18.1765 0 20.5664 0C22.9563 0 24.8997 1.94357 24.8997 4.33327C24.8997 6.72316 22.9563 8.66673 20.5664 8.66673ZM20.5664 1.625C19.0725 1.625 17.8582 2.84058 17.8582 4.33327C17.8582 5.82616 19.0725 7.04173 20.5664 7.04173C22.0603 7.04173 23.2747 5.82616 23.2747 4.33327C23.2747 2.84058 22.0603 1.625 20.5664 1.625Z" fill="#000285"/>
<path d="M24.0872 21.6665C24.0872 23.6108 22.511 25.1872 20.5664 25.1872C18.6219 25.1872 17.0457 23.6108 17.0457 21.6665C17.0457 19.7219 18.6219 18.1455 20.5664 18.1455C22.511 18.1455 24.0872 19.7219 24.0872 21.6665Z" fill="#000285"/>
<path d="M20.5664 25.9997C18.1765 25.9997 16.2332 24.0562 16.2332 21.6665C16.2332 19.2766 18.1765 17.333 20.5664 17.333C22.9563 17.333 24.8997 19.2766 24.8997 21.6665C24.8997 24.0562 22.9563 25.9997 20.5664 25.9997ZM20.5664 18.958C19.0725 18.958 17.8582 20.1736 17.8582 21.6665C17.8582 23.1592 19.0725 24.3747 20.5664 24.3747C22.0603 24.3747 23.2747 23.1592 23.2747 21.6665C23.2747 20.1736 22.0603 18.958 20.5664 18.958Z" fill="#000285"/>
<path d="M8.92064 13.0003C8.92064 14.9448 7.34424 16.521 5.39967 16.521C3.45531 16.521 1.87891 14.9448 1.87891 13.0003C1.87891 11.0557 3.45531 9.47949 5.39967 9.47949C7.34424 9.47949 8.92064 11.0557 8.92064 13.0003Z" fill="#000285"/>
<path d="M5.39967 17.3335C3.00998 17.3335 1.06641 15.3902 1.06641 13.0003C1.06641 10.6104 3.00998 8.66699 5.39967 8.66699C7.78957 8.66699 9.73314 10.6104 9.73314 13.0003C9.73314 15.3902 7.78957 17.3335 5.39967 17.3335ZM5.39967 10.292C3.90579 10.292 2.69141 11.5074 2.69141 13.0003C2.69141 14.4931 3.90579 15.7085 5.39967 15.7085C6.89375 15.7085 8.10814 14.4931 8.10814 13.0003C8.10814 11.5074 6.89375 10.292 5.39967 10.292Z" fill="#000285"/>
<path d="M7.95758 12.4799C7.58049 12.4799 7.21431 12.2837 7.01496 11.9328C6.71919 11.4139 6.90129 10.752 7.42021 10.455L17.4723 4.72429C17.9912 4.42634 18.6532 4.60844 18.9501 5.12935C19.2459 5.64827 19.0638 6.31021 18.5449 6.60716L8.49257 12.3379C8.32356 12.4343 8.13948 12.4799 7.95758 12.4799Z" fill="#000285"/>
<path d="M18.0087 21.4182C17.8266 21.4182 17.6425 21.3726 17.4735 21.2762L7.42122 15.5454C6.9023 15.2497 6.7204 14.5877 7.01616 14.0676C7.31074 13.5477 7.97367 13.3646 8.49378 13.6625L18.5461 19.3933C19.065 19.6891 19.2469 20.351 18.9511 20.8711C18.7508 21.222 18.3846 21.4182 18.0087 21.4182Z" fill="#000285"/>
</g>
<defs>
<clipPath id="clip0">
<rect width="26" height="26" fill="white"/>
</clipPath>
</defs>
</svg>
