<svg width="18" height="18" viewBox="0 0 18 18" fill="none" xmlns="http://www.w3.org/2000/svg">
<g clip-path="url(#clip0)">
<path d="M14.3182 14.25H7.57275C6.6 14.25 5.7375 13.6118 5.47425 12.6975L3.19425 4.97175C3.11325 4.692 2.844 4.5 2.5365 4.5H0.75C0.33525 4.5 0 4.164 0 3.75C0 3.336 0.33525 3 0.75 3H2.5365C3.50925 3 4.371 3.63825 4.63425 4.5525L5.061 6H16.5322C17.0002 6 17.4442 6.22275 17.7195 6.59625C17.9925 6.96675 18.0712 7.43025 17.9355 7.86825L16.3882 12.7792C16.0852 13.6657 15.255 14.25 14.3182 14.25ZM16.533 7.5H16.5405H16.533Z" fill="#59597A"/>
<path d="M8.25 18C7.42275 18 6.75 17.3273 6.75 16.5C6.75 15.6728 7.42275 15 8.25 15C9.07725 15 9.75 15.6728 9.75 16.5C9.75 17.3273 9.07725 18 8.25 18ZM8.25 16.4993V16.5V16.4993Z" fill="#59597A"/>
<path d="M13.5 18C12.6727 18 12 17.3273 12 16.5C12 15.6728 12.6727 15 13.5 15C14.3272 15 15 15.6728 15 16.5C15 17.3273 14.3272 18 13.5 18ZM13.5 16.4993V16.5V16.4993Z" fill="#59597A"/>
</g>
<defs>
<clipPath id="clip0">
<rect width="18" height="18" fill="white"/>
</clipPath>
</defs>
</svg>
