<svg width="219" height="224" viewBox="0 0 219 224" fill="none" xmlns="http://www.w3.org/2000/svg">
<g clip-path="url(#clip0)">
<rect width="219" height="224" rx="10" fill="url(#paint0_linear)"/>
<path d="M49.5656 40L46.0456 33.884H44.1316V40H41.6236V24.71H46.9036C48.077 24.71 49.067 24.9153 49.8736 25.326C50.695 25.7367 51.3036 26.2867 51.6996 26.976C52.1103 27.6653 52.3156 28.4353 52.3156 29.286C52.3156 30.2833 52.0223 31.1927 51.4356 32.014C50.8636 32.8207 49.9763 33.3707 48.7736 33.664L52.5576 40H49.5656ZM44.1316 31.882H46.9036C47.8423 31.882 48.5463 31.6473 49.0156 31.178C49.4996 30.7087 49.7416 30.078 49.7416 29.286C49.7416 28.494 49.507 27.878 49.0376 27.438C48.5683 26.9833 47.857 26.756 46.9036 26.756H44.1316V31.882ZM66.634 33.642C66.634 34.0967 66.6047 34.5073 66.546 34.874H57.284C57.3574 35.842 57.7167 36.6193 58.362 37.206C59.0074 37.7927 59.7994 38.086 60.738 38.086C62.0874 38.086 63.0407 37.5213 63.598 36.392H66.304C65.9374 37.5067 65.27 38.4233 64.302 39.142C63.3487 39.846 62.1607 40.198 60.738 40.198C59.5794 40.198 58.538 39.9413 57.614 39.428C56.7047 38.9 55.986 38.1667 55.458 37.228C54.9447 36.2747 54.688 35.1747 54.688 33.928C54.688 32.6813 54.9374 31.5887 55.436 30.65C55.9494 29.6967 56.6607 28.9633 57.57 28.45C58.494 27.9367 59.55 27.68 60.738 27.68C61.882 27.68 62.9014 27.9293 63.796 28.428C64.6907 28.9267 65.3874 29.6307 65.886 30.54C66.3847 31.4347 66.634 32.4687 66.634 33.642ZM64.016 32.85C64.0014 31.926 63.6714 31.1853 63.026 30.628C62.3807 30.0707 61.5814 29.792 60.628 29.792C59.7627 29.792 59.022 30.0707 58.406 30.628C57.79 31.1707 57.4234 31.9113 57.306 32.85H64.016ZM68.2661 33.928C68.2661 32.6813 68.5155 31.5887 69.0141 30.65C69.5275 29.6967 70.2315 28.9633 71.1261 28.45C72.0208 27.9367 73.0475 27.68 74.2061 27.68C75.6728 27.68 76.8828 28.032 77.8361 28.736C78.8041 29.4253 79.4568 30.4153 79.7941 31.706H77.0881C76.8681 31.1047 76.5161 30.6353 76.0321 30.298C75.5481 29.9607 74.9395 29.792 74.2061 29.792C73.1795 29.792 72.3581 30.1587 71.7421 30.892C71.1408 31.6107 70.8401 32.6227 70.8401 33.928C70.8401 35.2333 71.1408 36.2527 71.7421 36.986C72.3581 37.7193 73.1795 38.086 74.2061 38.086C75.6581 38.086 76.6188 37.448 77.0881 36.172H79.7941C79.4421 37.404 78.7821 38.3867 77.8141 39.12C76.8461 39.8387 75.6435 40.198 74.2061 40.198C73.0475 40.198 72.0208 39.9413 71.1261 39.428C70.2315 38.9 69.5275 38.1667 69.0141 37.228C68.5155 36.2747 68.2661 35.1747 68.2661 33.928ZM88.5636 27.68C89.4876 27.68 90.3089 27.878 91.0276 28.274C91.7609 28.67 92.3329 29.2567 92.7436 30.034C93.1689 30.8113 93.3816 31.75 93.3816 32.85V40H90.8956V33.224C90.8956 32.1387 90.6242 31.31 90.0816 30.738C89.5389 30.1513 88.7982 29.858 87.8596 29.858C86.9209 29.858 86.1729 30.1513 85.6156 30.738C85.0729 31.31 84.8016 32.1387 84.8016 33.224V40H82.2936V23.72H84.8016V29.286C85.2269 28.7727 85.7622 28.3767 86.4076 28.098C87.0676 27.8193 87.7862 27.68 88.5636 27.68ZM95.7447 33.884C95.7447 32.6667 95.994 31.5887 96.4927 30.65C97.006 29.7113 97.6953 28.9853 98.5607 28.472C99.4407 27.944 100.409 27.68 101.465 27.68C102.418 27.68 103.247 27.8707 103.951 28.252C104.669 28.6187 105.241 29.0807 105.667 29.638V27.878H108.197V40H105.667V38.196C105.241 38.768 104.662 39.2447 103.929 39.626C103.195 40.0073 102.359 40.198 101.421 40.198C100.379 40.198 99.426 39.934 98.5607 39.406C97.6953 38.8633 97.006 38.1153 96.4927 37.162C95.994 36.194 95.7447 35.1013 95.7447 33.884ZM105.667 33.928C105.667 33.092 105.491 32.366 105.139 31.75C104.801 31.134 104.354 30.6647 103.797 30.342C103.239 30.0193 102.638 29.858 101.993 29.858C101.347 29.858 100.746 30.0193 100.189 30.342C99.6313 30.65 99.1767 31.112 98.8247 31.728C98.4873 32.3293 98.3187 33.048 98.3187 33.884C98.3187 34.72 98.4873 35.4533 98.8247 36.084C99.1767 36.7147 99.6313 37.1987 100.189 37.536C100.761 37.8587 101.362 38.02 101.993 38.02C102.638 38.02 103.239 37.8587 103.797 37.536C104.354 37.2133 104.801 36.744 105.139 36.128C105.491 35.4973 105.667 34.764 105.667 33.928ZM113.999 29.638C114.365 29.022 114.849 28.5453 115.451 28.208C116.067 27.856 116.793 27.68 117.629 27.68V30.276H116.991C116.008 30.276 115.26 30.5253 114.747 31.024C114.248 31.5227 113.999 32.388 113.999 33.62V40H111.491V27.878H113.999V29.638ZM124.818 27.68C125.757 27.68 126.586 27.8707 127.304 28.252C128.038 28.6187 128.61 29.0807 129.02 29.638V27.878H131.55V40.198C131.55 41.3127 131.316 42.3027 130.846 43.168C130.377 44.048 129.695 44.7373 128.8 45.236C127.92 45.7347 126.864 45.984 125.632 45.984C123.99 45.984 122.626 45.5953 121.54 44.818C120.455 44.0553 119.839 43.014 119.692 41.694H122.178C122.369 42.3247 122.772 42.8307 123.388 43.212C124.019 43.608 124.767 43.806 125.632 43.806C126.644 43.806 127.458 43.498 128.074 42.882C128.705 42.266 129.02 41.3713 129.02 40.198V38.174C128.595 38.746 128.016 39.23 127.282 39.626C126.564 40.0073 125.742 40.198 124.818 40.198C123.762 40.198 122.794 39.934 121.914 39.406C121.049 38.8633 120.36 38.1153 119.846 37.162C119.348 36.194 119.098 35.1013 119.098 33.884C119.098 32.6667 119.348 31.5887 119.846 30.65C120.36 29.7113 121.049 28.9853 121.914 28.472C122.794 27.944 123.762 27.68 124.818 27.68ZM129.02 33.928C129.02 33.092 128.844 32.366 128.492 31.75C128.155 31.134 127.708 30.6647 127.15 30.342C126.593 30.0193 125.992 29.858 125.346 29.858C124.701 29.858 124.1 30.0193 123.542 30.342C122.985 30.65 122.53 31.112 122.178 31.728C121.841 32.3293 121.672 33.048 121.672 33.884C121.672 34.72 121.841 35.4533 122.178 36.084C122.53 36.7147 122.985 37.1987 123.542 37.536C124.114 37.8587 124.716 38.02 125.346 38.02C125.992 38.02 126.593 37.8587 127.15 37.536C127.708 37.2133 128.155 36.744 128.492 36.128C128.844 35.4973 129.02 34.764 129.02 33.928ZM145.954 33.642C145.954 34.0967 145.925 34.5073 145.866 34.874H136.604C136.678 35.842 137.037 36.6193 137.682 37.206C138.328 37.7927 139.12 38.086 140.058 38.086C141.408 38.086 142.361 37.5213 142.918 36.392H145.624C145.258 37.5067 144.59 38.4233 143.622 39.142C142.669 39.846 141.481 40.198 140.058 40.198C138.9 40.198 137.858 39.9413 136.934 39.428C136.025 38.9 135.306 38.1667 134.778 37.228C134.265 36.2747 134.008 35.1747 134.008 33.928C134.008 32.6813 134.258 31.5887 134.756 30.65C135.27 29.6967 135.981 28.9633 136.89 28.45C137.814 27.9367 138.87 27.68 140.058 27.68C141.202 27.68 142.222 27.9293 143.116 28.428C144.011 28.9267 144.708 29.6307 145.206 30.54C145.705 31.4347 145.954 32.4687 145.954 33.642ZM143.336 32.85C143.322 31.926 142.992 31.1853 142.346 30.628C141.701 30.0707 140.902 29.792 139.948 29.792C139.083 29.792 138.342 30.0707 137.726 30.628C137.11 31.1707 136.744 31.9113 136.626 32.85H143.336ZM161.111 40.154C159.689 40.154 158.376 39.824 157.173 39.164C155.985 38.4893 155.039 37.558 154.335 36.37C153.646 35.1673 153.301 33.818 153.301 32.322C153.301 30.826 153.646 29.484 154.335 28.296C155.039 27.108 155.985 26.184 157.173 25.524C158.376 24.8493 159.689 24.512 161.111 24.512C162.549 24.512 163.861 24.8493 165.049 25.524C166.252 26.184 167.198 27.108 167.887 28.296C168.577 29.484 168.921 30.826 168.921 32.322C168.921 33.818 168.577 35.1673 167.887 36.37C167.198 37.558 166.252 38.4893 165.049 39.164C163.861 39.824 162.549 40.154 161.111 40.154ZM161.111 37.976C162.123 37.976 163.025 37.7487 163.817 37.294C164.609 36.8247 165.225 36.1647 165.665 35.314C166.12 34.4487 166.347 33.4513 166.347 32.322C166.347 31.1927 166.12 30.2027 165.665 29.352C165.225 28.5013 164.609 27.8487 163.817 27.394C163.025 26.9393 162.123 26.712 161.111 26.712C160.099 26.712 159.197 26.9393 158.405 27.394C157.613 27.8487 156.99 28.5013 156.535 29.352C156.095 30.2027 155.875 31.1927 155.875 32.322C155.875 33.4513 156.095 34.4487 156.535 35.314C156.99 36.1647 157.613 36.8247 158.405 37.294C159.197 37.7487 160.099 37.976 161.111 37.976ZM177.505 27.68C178.459 27.68 179.309 27.878 180.057 28.274C180.82 28.67 181.414 29.2567 181.839 30.034C182.265 30.8113 182.477 31.75 182.477 32.85V40H179.991V33.224C179.991 32.1387 179.72 31.31 179.177 30.738C178.635 30.1513 177.894 29.858 176.955 29.858C176.017 29.858 175.269 30.1513 174.711 30.738C174.169 31.31 173.897 32.1387 173.897 33.224V40H171.389V27.878H173.897V29.264C174.308 28.7653 174.829 28.3767 175.459 28.098C176.105 27.8193 176.787 27.68 177.505 27.68ZM76.6365 53.924V60.634C76.6365 61.0887 76.7392 61.4187 76.9445 61.624C77.1645 61.8147 77.5312 61.91 78.0445 61.91H79.5845V64H77.6045C76.4752 64 75.6099 63.736 75.0085 63.208C74.4072 62.68 74.1065 61.822 74.1065 60.634V53.924H72.6765V51.878H74.1065V48.864H76.6365V51.878H79.5845V53.924H76.6365ZM88.1661 51.68C89.0901 51.68 89.9114 51.878 90.6301 52.274C91.3634 52.67 91.9354 53.2567 92.3461 54.034C92.7714 54.8113 92.9841 55.75 92.9841 56.85V64H90.4981V57.224C90.4981 56.1387 90.2268 55.31 89.6841 54.738C89.1414 54.1513 88.4008 53.858 87.4621 53.858C86.5234 53.858 85.7754 54.1513 85.2181 54.738C84.6754 55.31 84.4041 56.1387 84.4041 57.224V64H81.8961V47.72H84.4041V53.286C84.8294 52.7727 85.3648 52.3767 86.0101 52.098C86.6701 51.8193 87.3888 51.68 88.1661 51.68ZM107.293 57.642C107.293 58.0967 107.264 58.5073 107.205 58.874H97.9432C98.0165 59.842 98.3759 60.6193 99.0212 61.206C99.6665 61.7927 100.459 62.086 101.397 62.086C102.747 62.086 103.7 61.5213 104.257 60.392H106.963C106.597 61.5067 105.929 62.4233 104.961 63.142C104.008 63.846 102.82 64.198 101.397 64.198C100.239 64.198 99.1972 63.9413 98.2732 63.428C97.3639 62.9 96.6452 62.1667 96.1172 61.228C95.6039 60.2747 95.3472 59.1747 95.3472 57.928C95.3472 56.6813 95.5965 55.5887 96.0952 54.65C96.6085 53.6967 97.3199 52.9633 98.2292 52.45C99.1532 51.9367 100.209 51.68 101.397 51.68C102.541 51.68 103.561 51.9293 104.455 52.428C105.35 52.9267 106.047 53.6307 106.545 54.54C107.044 55.4347 107.293 56.4687 107.293 57.642ZM104.675 56.85C104.661 55.926 104.331 55.1853 103.685 54.628C103.04 54.0707 102.241 53.792 101.287 53.792C100.422 53.792 99.6812 54.0707 99.0652 54.628C98.4492 55.1707 98.0825 55.9113 97.9652 56.85H104.675ZM126.542 53.11C126.146 52.3473 125.596 51.7753 124.892 51.394C124.188 50.998 123.374 50.8 122.45 50.8C121.438 50.8 120.536 51.0273 119.744 51.482C118.952 51.9367 118.329 52.582 117.874 53.418C117.434 54.254 117.214 55.222 117.214 56.322C117.214 57.422 117.434 58.3973 117.874 59.248C118.329 60.084 118.952 60.7293 119.744 61.184C120.536 61.6387 121.438 61.866 122.45 61.866C123.814 61.866 124.922 61.4847 125.772 60.722C126.623 59.9593 127.144 58.9253 127.334 57.62H121.592V55.618H130.018V57.576C129.857 58.764 129.432 59.8567 128.742 60.854C128.068 61.8513 127.18 62.6507 126.08 63.252C124.995 63.8387 123.785 64.132 122.45 64.132C121.013 64.132 119.7 63.802 118.512 63.142C117.324 62.4673 116.378 61.536 115.674 60.348C114.985 59.16 114.64 57.818 114.64 56.322C114.64 54.826 114.985 53.484 115.674 52.296C116.378 51.108 117.324 50.184 118.512 49.524C119.715 48.8493 121.028 48.512 122.45 48.512C124.078 48.512 125.523 48.9153 126.784 49.722C128.06 50.514 128.984 51.6433 129.556 53.11H126.542ZM137.75 64.198C136.606 64.198 135.572 63.9413 134.648 63.428C133.724 62.9 132.998 62.1667 132.47 61.228C131.942 60.2747 131.678 59.1747 131.678 57.928C131.678 56.696 131.949 55.6033 132.492 54.65C133.034 53.6967 133.775 52.9633 134.714 52.45C135.652 51.9367 136.701 51.68 137.86 51.68C139.018 51.68 140.067 51.9367 141.006 52.45C141.944 52.9633 142.685 53.6967 143.228 54.65C143.77 55.6033 144.042 56.696 144.042 57.928C144.042 59.16 143.763 60.2527 143.206 61.206C142.648 62.1593 141.886 62.9 140.918 63.428C139.964 63.9413 138.908 64.198 137.75 64.198ZM137.75 62.02C138.395 62.02 138.996 61.866 139.554 61.558C140.126 61.25 140.588 60.788 140.94 60.172C141.292 59.556 141.468 58.808 141.468 57.928C141.468 57.048 141.299 56.3073 140.962 55.706C140.624 55.09 140.177 54.628 139.62 54.32C139.062 54.012 138.461 53.858 137.816 53.858C137.17 53.858 136.569 54.012 136.012 54.32C135.469 54.628 135.036 55.09 134.714 55.706C134.391 56.3073 134.23 57.048 134.23 57.928C134.23 59.2333 134.56 60.2453 135.22 60.964C135.894 61.668 136.738 62.02 137.75 62.02ZM149.667 48.71L149.381 59.38H147.291L147.005 48.71H149.667ZM148.413 64.154C147.958 64.154 147.577 64 147.269 63.692C146.961 63.384 146.807 63.0027 146.807 62.548C146.807 62.0933 146.961 61.712 147.269 61.404C147.577 61.096 147.958 60.942 148.413 60.942C148.853 60.942 149.227 61.096 149.535 61.404C149.843 61.712 149.997 62.0933 149.997 62.548C149.997 63.0027 149.843 63.384 149.535 63.692C149.227 64 148.853 64.154 148.413 64.154Z" fill="white"/>
<path d="M64.5081 91.88L61.2121 103H59.1481L56.8121 94.584L54.3321 103L52.2841 103.016L49.1321 91.88H51.0681L53.3721 100.936L55.8681 91.88H57.9161L60.2361 100.888L62.5561 91.88H64.5081ZM66.9405 93.016C66.6098 93.016 66.3325 92.904 66.1085 92.68C65.8845 92.456 65.7725 92.1787 65.7725 91.848C65.7725 91.5173 65.8845 91.24 66.1085 91.016C66.3325 90.792 66.6098 90.68 66.9405 90.68C67.2605 90.68 67.5325 90.792 67.7565 91.016C67.9805 91.24 68.0925 91.5173 68.0925 91.848C68.0925 92.1787 67.9805 92.456 67.7565 92.68C67.5325 92.904 67.2605 93.016 66.9405 93.016ZM67.8365 94.184V103H66.0125V94.184H67.8365ZM72.3593 95.672V100.552C72.3593 100.883 72.4339 101.123 72.5833 101.272C72.7433 101.411 73.0099 101.48 73.3833 101.48H74.5033V103H73.0633C72.2419 103 71.6126 102.808 71.1753 102.424C70.7379 102.04 70.5193 101.416 70.5193 100.552V95.672H69.4793V94.184H70.5193V91.992H72.3593V94.184H74.5033V95.672H72.3593ZM80.7444 94.04C81.4164 94.04 82.0137 94.184 82.5364 94.472C83.0697 94.76 83.4857 95.1867 83.7844 95.752C84.0937 96.3173 84.2484 97 84.2484 97.8V103H82.4404V98.072C82.4404 97.2827 82.243 96.68 81.8484 96.264C81.4537 95.8373 80.915 95.624 80.2324 95.624C79.5497 95.624 79.0057 95.8373 78.6004 96.264C78.2057 96.68 78.0084 97.2827 78.0084 98.072V103H76.1844V91.16H78.0084V95.208C78.3177 94.8347 78.707 94.5467 79.1764 94.344C79.6564 94.1413 80.179 94.04 80.7444 94.04ZM92.8593 95.672V100.552C92.8593 100.883 92.9339 101.123 93.0833 101.272C93.2433 101.411 93.5099 101.48 93.8833 101.48H95.0033V103H93.5633C92.7419 103 92.1126 102.808 91.6753 102.424C91.2379 102.04 91.0193 101.416 91.0193 100.552V95.672H89.9793V94.184H91.0193V91.992H92.8593V94.184H95.0033V95.672H92.8593ZM101.244 94.04C101.916 94.04 102.514 94.184 103.036 94.472C103.57 94.76 103.986 95.1867 104.284 95.752C104.594 96.3173 104.748 97 104.748 97.8V103H102.94V98.072C102.94 97.2827 102.743 96.68 102.348 96.264C101.954 95.8373 101.415 95.624 100.732 95.624C100.05 95.624 99.5057 95.8373 99.1004 96.264C98.7057 96.68 98.5084 97.2827 98.5084 98.072V103H96.6844V91.16H98.5084V95.208C98.8177 94.8347 99.207 94.5467 99.6764 94.344C100.156 94.1413 100.679 94.04 101.244 94.04ZM115.155 98.376C115.155 98.7067 115.134 99.0053 115.091 99.272H108.355C108.408 99.976 108.67 100.541 109.139 100.968C109.608 101.395 110.184 101.608 110.867 101.608C111.848 101.608 112.542 101.197 112.947 100.376H114.915C114.648 101.187 114.163 101.853 113.459 102.376C112.766 102.888 111.902 103.144 110.867 103.144C110.024 103.144 109.267 102.957 108.595 102.584C107.934 102.2 107.411 101.667 107.027 100.984C106.654 100.291 106.467 99.4907 106.467 98.584C106.467 97.6773 106.648 96.8827 107.011 96.2C107.384 95.5067 107.902 94.9733 108.563 94.6C109.235 94.2267 110.003 94.04 110.867 94.04C111.699 94.04 112.44 94.2213 113.091 94.584C113.742 94.9467 114.248 95.4587 114.611 96.12C114.974 96.7707 115.155 97.5227 115.155 98.376ZM113.251 97.8C113.24 97.128 113 96.5893 112.531 96.184C112.062 95.7787 111.48 95.576 110.787 95.576C110.158 95.576 109.619 95.7787 109.171 96.184C108.723 96.5787 108.456 97.1173 108.371 97.8H113.251ZM127.058 97.288C127.656 97.3947 128.162 97.7093 128.578 98.232C128.994 98.7547 129.202 99.3467 129.202 100.008C129.202 100.573 129.053 101.085 128.754 101.544C128.466 101.992 128.045 102.349 127.49 102.616C126.936 102.872 126.29 103 125.554 103H121.106V91.88H125.346C126.104 91.88 126.754 92.008 127.298 92.264C127.842 92.52 128.253 92.8667 128.53 93.304C128.808 93.7307 128.946 94.2107 128.946 94.744C128.946 95.384 128.776 95.9173 128.434 96.344C128.093 96.7707 127.634 97.0853 127.058 97.288ZM122.93 96.552H125.186C125.784 96.552 126.248 96.4187 126.578 96.152C126.92 95.8747 127.09 95.48 127.09 94.968C127.09 94.4667 126.92 94.0773 126.578 93.8C126.248 93.512 125.784 93.368 125.186 93.368H122.93V96.552ZM125.394 101.512C126.013 101.512 126.498 101.363 126.85 101.064C127.202 100.765 127.378 100.349 127.378 99.816C127.378 99.272 127.192 98.84 126.818 98.52C126.445 98.2 125.949 98.04 125.33 98.04H122.93V101.512H125.394ZM133.008 91.16V103H131.184V91.16H133.008ZM143.387 94.184V103H141.563V101.96C141.275 102.323 140.896 102.611 140.427 102.824C139.968 103.027 139.478 103.128 138.955 103.128C138.262 103.128 137.638 102.984 137.083 102.696C136.539 102.408 136.107 101.981 135.787 101.416C135.478 100.851 135.323 100.168 135.323 99.368V94.184H137.131V99.096C137.131 99.8853 137.328 100.493 137.723 100.92C138.118 101.336 138.656 101.544 139.339 101.544C140.022 101.544 140.56 101.336 140.955 100.92C141.36 100.493 141.563 99.8853 141.563 99.096V94.184H143.387ZM153.874 98.376C153.874 98.7067 153.852 99.0053 153.81 99.272H147.074C147.127 99.976 147.388 100.541 147.858 100.968C148.327 101.395 148.903 101.608 149.586 101.608C150.567 101.608 151.26 101.197 151.666 100.376H153.634C153.367 101.187 152.882 101.853 152.178 102.376C151.484 102.888 150.62 103.144 149.586 103.144C148.743 103.144 147.986 102.957 147.314 102.584C146.652 102.2 146.13 101.667 145.746 100.984C145.372 100.291 145.186 99.4907 145.186 98.584C145.186 97.6773 145.367 96.8827 145.73 96.2C146.103 95.5067 146.62 94.9733 147.282 94.6C147.954 94.2267 148.722 94.04 149.586 94.04C150.418 94.04 151.159 94.2213 151.81 94.584C152.46 94.9467 152.967 95.4587 153.33 96.12C153.692 96.7707 153.874 97.5227 153.874 98.376ZM151.97 97.8C151.959 97.128 151.719 96.5893 151.25 96.184C150.78 95.7787 150.199 95.576 149.506 95.576C148.876 95.576 148.338 95.7787 147.89 96.184C147.442 96.5787 147.175 97.1173 147.09 97.8H151.97ZM162.437 96.44V97.976H155.861V96.44H162.437ZM168.66 91.88C169.844 91.88 170.879 92.1093 171.764 92.568C172.66 93.016 173.348 93.6667 173.828 94.52C174.319 95.3627 174.564 96.3493 174.564 97.48C174.564 98.6107 174.319 99.592 173.828 100.424C173.348 101.256 172.66 101.896 171.764 102.344C170.879 102.781 169.844 103 168.66 103H165.028V91.88H168.66ZM168.66 101.512C169.961 101.512 170.959 101.16 171.652 100.456C172.345 99.752 172.692 98.76 172.692 97.48C172.692 96.1893 172.345 95.1813 171.652 94.456C170.959 93.7307 169.961 93.368 168.66 93.368H166.852V101.512H168.66ZM79.6776 111.88V123H77.8536V115.384L74.4616 123H73.1976L69.7896 115.384V123H67.9656V111.88H69.9336L73.8376 120.6L77.7256 111.88H79.6776ZM85.899 123.144C85.067 123.144 84.315 122.957 83.643 122.584C82.971 122.2 82.443 121.667 82.059 120.984C81.675 120.291 81.483 119.491 81.483 118.584C81.483 117.688 81.6803 116.893 82.075 116.2C82.4697 115.507 83.0083 114.973 83.691 114.6C84.3737 114.227 85.1363 114.04 85.979 114.04C86.8217 114.04 87.5843 114.227 88.267 114.6C88.9497 114.973 89.4883 115.507 89.883 116.2C90.2777 116.893 90.475 117.688 90.475 118.584C90.475 119.48 90.2723 120.275 89.867 120.968C89.4617 121.661 88.907 122.2 88.203 122.584C87.5097 122.957 86.7417 123.144 85.899 123.144ZM85.899 121.56C86.3683 121.56 86.8057 121.448 87.211 121.224C87.627 121 87.963 120.664 88.219 120.216C88.475 119.768 88.603 119.224 88.603 118.584C88.603 117.944 88.4803 117.405 88.235 116.968C87.9897 116.52 87.6643 116.184 87.259 115.96C86.8537 115.736 86.4163 115.624 85.947 115.624C85.4777 115.624 85.0403 115.736 84.635 115.96C84.2403 116.184 83.9257 116.52 83.691 116.968C83.4563 117.405 83.339 117.944 83.339 118.584C83.339 119.533 83.579 120.269 84.059 120.792C84.5497 121.304 85.163 121.56 85.899 121.56ZM94.1021 115.496C94.4115 115.069 94.8328 114.723 95.3661 114.456C95.9101 114.179 96.5128 114.04 97.1741 114.04C97.9528 114.04 98.6568 114.227 99.2861 114.6C99.9155 114.973 100.411 115.507 100.774 116.2C101.137 116.883 101.318 117.667 101.318 118.552C101.318 119.437 101.137 120.232 100.774 120.936C100.411 121.629 99.9101 122.173 99.2701 122.568C98.6408 122.952 97.9421 123.144 97.1741 123.144C96.4915 123.144 95.8835 123.011 95.3501 122.744C94.8275 122.477 94.4115 122.136 94.1021 121.72V123H92.2781V111.16H94.1021V115.496ZM99.4621 118.552C99.4621 117.944 99.3341 117.421 99.0781 116.984C98.8328 116.536 98.5021 116.2 98.0861 115.976C97.6808 115.741 97.2435 115.624 96.7741 115.624C96.3155 115.624 95.8781 115.741 95.4621 115.976C95.0568 116.211 94.7261 116.552 94.4701 117C94.2248 117.448 94.1021 117.976 94.1021 118.584C94.1021 119.192 94.2248 119.725 94.4701 120.184C94.7261 120.632 95.0568 120.973 95.4621 121.208C95.8781 121.443 96.3155 121.56 96.7741 121.56C97.2435 121.56 97.6808 121.443 98.0861 121.208C98.5021 120.963 98.8328 120.611 99.0781 120.152C99.3341 119.693 99.4621 119.16 99.4621 118.552ZM104.05 113.016C103.719 113.016 103.442 112.904 103.218 112.68C102.994 112.456 102.882 112.179 102.882 111.848C102.882 111.517 102.994 111.24 103.218 111.016C103.442 110.792 103.719 110.68 104.05 110.68C104.37 110.68 104.642 110.792 104.866 111.016C105.09 111.24 105.202 111.517 105.202 111.848C105.202 112.179 105.09 112.456 104.866 112.68C104.642 112.904 104.37 113.016 104.05 113.016ZM104.946 114.184V123H103.122V114.184H104.946ZM109.165 111.16V123H107.341V111.16H109.165ZM119.639 118.376C119.639 118.707 119.618 119.005 119.575 119.272H112.839C112.893 119.976 113.154 120.541 113.623 120.968C114.093 121.395 114.669 121.608 115.351 121.608C116.333 121.608 117.026 121.197 117.431 120.376H119.399C119.133 121.187 118.647 121.853 117.943 122.376C117.25 122.888 116.386 123.144 115.351 123.144C114.509 123.144 113.751 122.957 113.079 122.584C112.418 122.2 111.895 121.667 111.511 120.984C111.138 120.291 110.951 119.491 110.951 118.584C110.951 117.677 111.133 116.883 111.495 116.2C111.869 115.507 112.386 114.973 113.047 114.6C113.719 114.227 114.487 114.04 115.351 114.04C116.183 114.04 116.925 114.221 117.575 114.584C118.226 114.947 118.733 115.459 119.095 116.12C119.458 116.771 119.639 117.523 119.639 118.376ZM117.735 117.8C117.725 117.128 117.485 116.589 117.015 116.184C116.546 115.779 115.965 115.576 115.271 115.576C114.642 115.576 114.103 115.779 113.655 116.184C113.207 116.579 112.941 117.117 112.855 117.8H117.735ZM132.295 120.728H127.639L126.839 123H124.935L128.919 111.864H131.031L135.015 123H133.095L132.295 120.728ZM131.783 119.24L129.975 114.072L128.151 119.24H131.783ZM138.571 115.48C138.88 115.075 139.302 114.733 139.835 114.456C140.368 114.179 140.971 114.04 141.643 114.04C142.411 114.04 143.11 114.232 143.739 114.616C144.379 114.989 144.88 115.517 145.243 116.2C145.606 116.883 145.787 117.667 145.787 118.552C145.787 119.437 145.606 120.232 145.243 120.936C144.88 121.629 144.379 122.173 143.739 122.568C143.11 122.952 142.411 123.144 141.643 123.144C140.971 123.144 140.374 123.011 139.851 122.744C139.328 122.467 138.902 122.125 138.571 121.72V127.192H136.747V114.184H138.571V115.48ZM143.931 118.552C143.931 117.944 143.803 117.421 143.547 116.984C143.302 116.536 142.971 116.2 142.555 115.976C142.15 115.741 141.712 115.624 141.243 115.624C140.784 115.624 140.347 115.741 139.931 115.976C139.526 116.211 139.195 116.552 138.939 117C138.694 117.448 138.571 117.976 138.571 118.584C138.571 119.192 138.694 119.725 138.939 120.184C139.195 120.632 139.526 120.973 139.931 121.208C140.347 121.443 140.784 121.56 141.243 121.56C141.712 121.56 142.15 121.443 142.555 121.208C142.971 120.963 143.302 120.611 143.547 120.152C143.803 119.693 143.931 119.16 143.931 118.552ZM149.415 115.48C149.724 115.075 150.145 114.733 150.679 114.456C151.212 114.179 151.815 114.04 152.487 114.04C153.255 114.04 153.953 114.232 154.583 114.616C155.223 114.989 155.724 115.517 156.087 116.2C156.449 116.883 156.631 117.667 156.631 118.552C156.631 119.437 156.449 120.232 156.087 120.936C155.724 121.629 155.223 122.173 154.583 122.568C153.953 122.952 153.255 123.144 152.487 123.144C151.815 123.144 151.217 123.011 150.695 122.744C150.172 122.467 149.745 122.125 149.415 121.72V127.192H147.591V114.184H149.415V115.48ZM154.775 118.552C154.775 117.944 154.647 117.421 154.391 116.984C154.145 116.536 153.815 116.2 153.399 115.976C152.993 115.741 152.556 115.624 152.087 115.624C151.628 115.624 151.191 115.741 150.775 115.976C150.369 116.211 150.039 116.552 149.783 117C149.537 117.448 149.415 117.976 149.415 118.584C149.415 119.192 149.537 119.725 149.783 120.184C150.039 120.632 150.369 120.973 150.775 121.208C151.191 121.443 151.628 121.56 152.087 121.56C152.556 121.56 152.993 121.443 153.399 121.208C153.815 120.963 154.145 120.611 154.391 120.152C154.647 119.693 154.775 119.16 154.775 118.552Z" fill="white"/>
<circle cx="210.5" cy="113.5" r="21.5" fill="#7F83E1"/>
<circle cx="10" cy="92" r="31" fill="#7F83E1"/>
<circle cx="210" cy="57" r="13" fill="#FFB266"/>
<g filter="url(#filter0_d)">
<rect x="22" y="159" width="180" height="45" rx="22.5" fill="#000285"/>
</g>
<path d="M57.2078 175.768C58.3918 175.768 59.4265 176.003 60.3118 176.472C61.1971 176.941 61.8798 177.603 62.3598 178.456C62.8505 179.299 63.0958 180.275 63.0958 181.384C63.0958 182.483 62.8505 183.459 62.3598 184.312C61.8798 185.165 61.1918 185.827 60.2958 186.296C59.4105 186.765 58.3811 187 57.2078 187H52.9998V175.768H57.2078ZM57.0318 184.632C58.0665 184.632 58.8718 184.349 59.4478 183.784C60.0238 183.219 60.3118 182.419 60.3118 181.384C60.3118 180.349 60.0238 179.544 59.4478 178.968C58.8718 178.392 58.0665 178.104 57.0318 178.104H55.7358V184.632H57.0318ZM68.6888 187.128C67.8141 187.128 67.0248 186.941 66.3208 186.568C65.6275 186.195 65.0781 185.661 64.6728 184.968C64.2781 184.275 64.0808 183.464 64.0808 182.536C64.0808 181.619 64.2835 180.813 64.6888 180.12C65.0941 179.416 65.6488 178.877 66.3528 178.504C67.0568 178.131 67.8461 177.944 68.7208 177.944C69.5955 177.944 70.3848 178.131 71.0888 178.504C71.7928 178.877 72.3475 179.416 72.7528 180.12C73.1581 180.813 73.3608 181.619 73.3608 182.536C73.3608 183.453 73.1528 184.264 72.7368 184.968C72.3315 185.661 71.7715 186.195 71.0568 186.568C70.3528 186.941 69.5635 187.128 68.6888 187.128ZM68.6888 184.76C69.2115 184.76 69.6541 184.568 70.0168 184.184C70.3901 183.8 70.5768 183.251 70.5768 182.536C70.5768 181.821 70.3955 181.272 70.0328 180.888C69.6808 180.504 69.2435 180.312 68.7208 180.312C68.1875 180.312 67.7448 180.504 67.3928 180.888C67.0408 181.261 66.8648 181.811 66.8648 182.536C66.8648 183.251 67.0355 183.8 67.3768 184.184C67.7288 184.568 68.1661 184.76 68.6888 184.76ZM87.6283 178.072L85.2123 187H82.1883L80.7803 181.208L79.3243 187H76.3163L73.8843 178.072H76.6203L77.8843 184.456L79.3883 178.072H82.2843L83.8043 184.424L85.0523 178.072H87.6283ZM94.1117 177.976C95.157 177.976 95.989 178.317 96.6077 179C97.237 179.672 97.5517 180.6 97.5517 181.784V187H94.8317V182.152C94.8317 181.555 94.677 181.091 94.3677 180.76C94.0584 180.429 93.6424 180.264 93.1197 180.264C92.597 180.264 92.181 180.429 91.8717 180.76C91.5624 181.091 91.4077 181.555 91.4077 182.152V187H88.6717V178.072H91.4077V179.256C91.685 178.861 92.0584 178.552 92.5277 178.328C92.997 178.093 93.525 177.976 94.1117 177.976ZM102.189 175.16V187H99.4529V175.16H102.189ZM108.236 187.128C107.361 187.128 106.572 186.941 105.868 186.568C105.174 186.195 104.625 185.661 104.22 184.968C103.825 184.275 103.628 183.464 103.628 182.536C103.628 181.619 103.83 180.813 104.236 180.12C104.641 179.416 105.196 178.877 105.9 178.504C106.604 178.131 107.393 177.944 108.268 177.944C109.142 177.944 109.932 178.131 110.636 178.504C111.34 178.877 111.894 179.416 112.3 180.12C112.705 180.813 112.908 181.619 112.908 182.536C112.908 183.453 112.7 184.264 112.284 184.968C111.878 185.661 111.318 186.195 110.604 186.568C109.9 186.941 109.11 187.128 108.236 187.128ZM108.236 184.76C108.758 184.76 109.201 184.568 109.564 184.184C109.937 183.8 110.124 183.251 110.124 182.536C110.124 181.821 109.942 181.272 109.58 180.888C109.228 180.504 108.79 180.312 108.268 180.312C107.734 180.312 107.292 180.504 106.94 180.888C106.588 181.261 106.412 181.811 106.412 182.536C106.412 183.251 106.582 183.8 106.924 184.184C107.276 184.568 107.713 184.76 108.236 184.76ZM113.815 182.52C113.815 181.603 113.986 180.797 114.327 180.104C114.679 179.411 115.154 178.877 115.751 178.504C116.349 178.131 117.015 177.944 117.751 177.944C118.381 177.944 118.93 178.072 119.399 178.328C119.879 178.584 120.247 178.92 120.503 179.336V178.072H123.239V187H120.503V185.736C120.237 186.152 119.863 186.488 119.383 186.744C118.914 187 118.365 187.128 117.735 187.128C117.01 187.128 116.349 186.941 115.751 186.568C115.154 186.184 114.679 185.645 114.327 184.952C113.986 184.248 113.815 183.437 113.815 182.52ZM120.503 182.536C120.503 181.853 120.311 181.315 119.927 180.92C119.554 180.525 119.095 180.328 118.551 180.328C118.007 180.328 117.543 180.525 117.159 180.92C116.786 181.304 116.599 181.837 116.599 182.52C116.599 183.203 116.786 183.747 117.159 184.152C117.543 184.547 118.007 184.744 118.551 184.744C119.095 184.744 119.554 184.547 119.927 184.152C120.311 183.757 120.503 183.219 120.503 182.536ZM124.675 182.52C124.675 181.603 124.845 180.797 125.187 180.104C125.539 179.411 126.013 178.877 126.611 178.504C127.208 178.131 127.875 177.944 128.611 177.944C129.197 177.944 129.731 178.067 130.211 178.312C130.701 178.557 131.085 178.888 131.363 179.304V175.16H134.099V187H131.363V185.72C131.107 186.147 130.739 186.488 130.259 186.744C129.789 187 129.24 187.128 128.611 187.128C127.875 187.128 127.208 186.941 126.611 186.568C126.013 186.184 125.539 185.645 125.187 184.952C124.845 184.248 124.675 183.437 124.675 182.52ZM131.363 182.536C131.363 181.853 131.171 181.315 130.787 180.92C130.413 180.525 129.955 180.328 129.411 180.328C128.867 180.328 128.403 180.525 128.019 180.92C127.645 181.304 127.459 181.837 127.459 182.52C127.459 183.203 127.645 183.747 128.019 184.152C128.403 184.547 128.867 184.744 129.411 184.744C129.955 184.744 130.413 184.547 130.787 184.152C131.171 183.757 131.363 183.219 131.363 182.536ZM146.461 185.016H142.269L141.597 187H138.733L142.797 175.768H145.965L150.029 187H147.133L146.461 185.016ZM145.757 182.904L144.365 178.792L142.989 182.904H145.757ZM154.001 179.336C154.268 178.92 154.636 178.584 155.105 178.328C155.575 178.072 156.124 177.944 156.753 177.944C157.489 177.944 158.156 178.131 158.753 178.504C159.351 178.877 159.82 179.411 160.161 180.104C160.513 180.797 160.689 181.603 160.689 182.52C160.689 183.437 160.513 184.248 160.161 184.952C159.82 185.645 159.351 186.184 158.753 186.568C158.156 186.941 157.489 187.128 156.753 187.128C156.135 187.128 155.585 187 155.105 186.744C154.636 186.488 154.268 186.157 154.001 185.752V191.256H151.265V178.072H154.001V179.336ZM157.905 182.52C157.905 181.837 157.713 181.304 157.329 180.92C156.956 180.525 156.492 180.328 155.937 180.328C155.393 180.328 154.929 180.525 154.545 180.92C154.172 181.315 153.985 181.853 153.985 182.536C153.985 183.219 154.172 183.757 154.545 184.152C154.929 184.547 155.393 184.744 155.937 184.744C156.481 184.744 156.945 184.547 157.329 184.152C157.713 183.747 157.905 183.203 157.905 182.52ZM164.861 179.336C165.127 178.92 165.495 178.584 165.965 178.328C166.434 178.072 166.983 177.944 167.613 177.944C168.349 177.944 169.015 178.131 169.613 178.504C170.21 178.877 170.679 179.411 171.021 180.104C171.373 180.797 171.549 181.603 171.549 182.52C171.549 183.437 171.373 184.248 171.021 184.952C170.679 185.645 170.21 186.184 169.613 186.568C169.015 186.941 168.349 187.128 167.613 187.128C166.994 187.128 166.445 187 165.965 186.744C165.495 186.488 165.127 186.157 164.861 185.752V191.256H162.125V178.072H164.861V179.336ZM168.765 182.52C168.765 181.837 168.573 181.304 168.189 180.92C167.815 180.525 167.351 180.328 166.797 180.328C166.253 180.328 165.789 180.525 165.405 180.92C165.031 181.315 164.845 181.853 164.845 182.536C164.845 183.219 165.031 183.757 165.405 184.152C165.789 184.547 166.253 184.744 166.797 184.744C167.341 184.744 167.805 184.547 168.189 184.152C168.573 183.747 168.765 183.203 168.765 182.52Z" fill="white"/>
</g>
<defs>
<filter id="filter0_d" x="2" y="145" width="220" height="85" filterUnits="userSpaceOnUse" color-interpolation-filters="sRGB">
<feFlood flood-opacity="0" result="BackgroundImageFix"/>
<feColorMatrix in="SourceAlpha" type="matrix" values="0 0 0 0 0 0 0 0 0 0 0 0 0 0 0 0 0 0 127 0"/>
<feOffset dy="6"/>
<feGaussianBlur stdDeviation="10"/>
<feColorMatrix type="matrix" values="0 0 0 0 0.325 0 0 0 0 0.161863 0 0 0 0 0 0 0 0 0.08 0"/>
<feBlend mode="normal" in2="BackgroundImageFix" result="effect1_dropShadow"/>
<feBlend mode="normal" in="SourceGraphic" in2="effect1_dropShadow" result="shape"/>
</filter>
<linearGradient id="paint0_linear" x1="29.8986" y1="-170" x2="248.165" y2="-150.039" gradientUnits="userSpaceOnUse">
<stop stop-color="#FF7F00"/>
<stop offset="1" stop-color="#6165D7"/>
</linearGradient>
<clipPath id="clip0">
<rect width="219" height="224" rx="10" fill="white"/>
</clipPath>
</defs>
</svg>
