<svg width="163" height="153" viewBox="0 0 163 153" fill="none" xmlns="http://www.w3.org/2000/svg">
<g clip-path="url(#clip0)">
<path d="M51.8368 150.113H89.3077V121.251H51.8368V150.113Z" fill="#EEEEEE"/>
<path d="M79.9198 149.909C79.868 149.909 79.8259 143.475 79.8259 135.541C79.8259 127.604 79.868 121.172 79.9198 121.172C79.9713 121.172 80.0134 127.604 80.0134 135.541C80.0134 143.475 79.9713 149.909 79.9198 149.909Z" fill="#E3E3E2"/>
<path d="M83.2582 146.786H86.1306V143.543H83.2582V146.786Z" fill="#FCFDFD"/>
<path d="M63.2681 121.325V127.483H67.5245V121.325H63.2681Z" fill="#E3E3E2"/>
<path d="M63.2681 143.868V150.027H67.5245V143.868H63.2681Z" fill="#E3E3E2"/>
<path d="M110.051 150.406H157.297V114.014H110.051V150.406Z" fill="#EEEEEE"/>
<path d="M145.46 150.149C145.408 150.149 145.366 142.037 145.366 132.033C145.366 122.026 145.408 113.916 145.46 113.916C145.512 113.916 145.553 122.026 145.553 132.033C145.553 142.037 145.512 150.149 145.46 150.149Z" fill="#E3E3E2"/>
<path d="M153.291 146.212H149.669V142.123H153.291V146.212Z" fill="#FCFDFD"/>
<path d="M124.464 121.873H129.831V114.108H124.464V121.873Z" fill="#E3E3E2"/>
<path d="M124.464 150.298H129.831V142.532H124.464V150.298Z" fill="#E3E3E2"/>
<path d="M21.0586 115.085C22.9708 114.1 25.2225 113.972 27.3455 114.322C28.486 114.51 29.675 114.851 30.451 115.707C31.2271 116.562 31.3742 118.068 30.4831 118.803C29.9526 119.241 29.2128 119.307 28.5249 119.299C26.8629 119.28 25.019 118.987 23.6914 119.986C22.9337 120.556 22.4296 121.503 21.5239 121.783C20.6379 122.057 19.6379 121.535 19.1681 120.736C18.6984 119.938 18.6826 118.939 18.9017 118.039C18.9017 118.039 19.1323 116.077 21.0586 115.085Z" fill="#EEEEEE"/>
<path d="M16.6776 106.639C17.8469 108.307 20.1195 107.755 21.1733 106.736C22.2269 105.719 22.6723 104.243 23.0777 102.836C24.004 99.6216 24.9381 96.2494 24.2492 92.976C24.0432 91.997 23.6769 91.0208 22.9881 90.2951C22.2994 89.5686 21.2405 89.1367 20.2722 89.3922C19.1265 89.6947 18.4142 90.8153 17.8996 91.8817C16.3865 95.0153 15.5856 98.4896 15.5736 101.969C15.5679 103.594 15.7597 105.298 16.6776 106.639Z" fill="#EEEEEE"/>
<path d="M13.4665 109.032C14.7361 107.528 14.9771 105.333 14.4122 103.448C13.8472 101.562 12.571 99.9589 11.1001 98.6497C9.37544 97.1145 7.34837 95.9202 5.16897 95.155C4.31142 94.8539 3.40666 94.6164 2.5019 94.7023C1.59686 94.7889 0.685492 95.2509 0.263327 96.055C-0.360784 97.2438 0.237609 98.6856 0.884771 99.8623C2.02521 101.935 3.32908 103.917 4.78024 105.786C5.94794 107.29 7.28555 108.772 9.065 109.452C10.8443 110.131 12.6929 110.051 13.636 108.819" fill="#EEEEEE"/>
<path d="M16.5983 131.797C16.6203 131.799 16.6558 131.528 16.704 131.039C16.758 130.488 16.8255 129.795 16.9057 128.971C17.0022 128.101 17.1296 127.065 17.3715 125.937C17.6129 124.813 17.9906 123.594 18.4757 122.357C18.978 121.128 19.5906 120.011 20.3065 119.117C21.0173 118.22 21.8439 117.571 22.6211 117.196C23.3957 116.814 24.0902 116.659 24.5703 116.59C25.0544 116.54 25.3256 116.502 25.3258 116.481C25.3261 116.459 25.0544 116.455 24.5569 116.469C24.0642 116.501 23.3407 116.626 22.5245 116.997C21.7055 117.36 20.8286 118.019 20.0829 118.936C19.3312 119.847 18.6964 120.989 18.1851 122.24C17.6917 123.498 17.3194 124.73 17.0889 125.879C16.859 127.027 16.7538 128.073 16.685 128.951C16.6193 129.829 16.5946 130.54 16.5826 131.032C16.5715 131.524 16.5771 131.796 16.5983 131.797Z" fill="#E3E3E2"/>
<path d="M16.7412 130.206C16.752 130.205 16.7586 130.084 16.7615 129.854C16.7608 129.59 16.76 129.257 16.7589 128.848C16.7565 127.976 16.7568 126.713 16.8037 125.154C16.881 122.035 17.15 118.678 17.6693 113.946C18.1611 109.496 18.8212 104.317 19.518 100.95C19.6674 100.184 19.8179 99.495 19.9594 98.8918C20.0946 98.2871 20.2097 97.7658 20.3212 97.3437C20.4167 96.9463 20.4946 96.6229 20.5565 96.3664C20.607 96.1419 20.6284 96.0222 20.6181 96.0193C20.6077 96.0165 20.5658 96.13 20.4956 96.3492C20.4188 96.6021 20.3221 96.9208 20.2033 97.3128C20.0737 97.7306 19.9409 98.2483 19.7891 98.8508C19.631 99.4519 19.465 100.139 19.3014 100.904C18.6121 103.955 17.8823 108.219 17.358 112.963C16.8374 117.705 16.6029 122.022 16.5822 125.149C16.5636 126.713 16.597 127.978 16.6369 128.852C16.6621 129.26 16.6823 129.593 16.6983 129.856C16.7159 130.086 16.7303 130.206 16.7412 130.206Z" fill="#E3E3E2"/>
<path d="M16.7621 121.878C16.7837 121.877 16.7799 121.504 16.7548 120.828C16.7158 120.152 16.6229 119.177 16.4325 117.981C16.2307 116.789 15.9487 115.374 15.5057 113.835C15.3137 113.132 14.8626 111.447 13.7695 108.929C12.3292 105.517 10.3727 102.728 8.67066 101C8.27125 100.542 7.82676 100.211 7.4712 99.8865C7.2871 99.731 7.12434 99.5765 6.95882 99.4536C6.79228 99.339 6.63711 99.2323 6.49335 99.1331C5.93319 98.7505 5.61936 98.5486 5.60785 98.5669C5.55756 98.6355 6.86269 99.4022 8.51046 101.153C10.1518 102.9 12.0536 105.67 13.482 109.053C14.2785 110.888 14.8339 112.525 15.2281 113.914C15.6835 115.438 15.9857 116.839 16.2143 118.02C16.4314 119.203 16.5572 120.168 16.633 120.838C16.6956 121.507 16.7404 121.879 16.7621 121.878Z" fill="#E3E3E2"/>
<path d="M8.14343 135.303L8.97907 146.736H23.6861L24.5218 135.303H8.14343Z" fill="#EEEEEE"/>
<path d="M6.7229 130.797V135.303H26.2767V130.797H6.7229Z" fill="#EEEEEE"/>
<path d="M6.7229 146.299V147.547H25.9536V146.299H6.7229Z" fill="#E3E3E2"/>
<path d="M8.54217 149.607L7.6416 147.409H25.253L24.2022 149.607H8.54217Z" fill="#E3E3E2"/>
<path d="M24.2486 139.04C24.252 139.042 24.2286 139.078 24.1801 139.145C24.1218 139.222 24.0495 139.318 23.9603 139.436C23.7515 139.703 23.4647 140.07 23.1037 140.531L23.0656 140.58L23.0286 140.529C22.4902 139.785 21.7707 138.791 20.9238 137.621H21.045C20.4188 138.507 19.7213 139.493 18.9726 140.552L18.9077 140.644L18.8349 140.557C18.07 139.648 17.2395 138.662 16.3771 137.637L16.5189 137.635C16.4762 137.689 16.4301 137.747 16.3836 137.805C15.6215 138.759 14.8838 139.683 14.1861 140.556L14.1128 140.648L14.0452 140.553C13.2991 139.498 12.6021 138.513 11.9719 137.623L12.0924 137.629C11.0707 138.791 10.2042 139.777 9.53912 140.534L9.49376 140.586L9.45918 140.527C9.12258 139.963 8.85416 139.512 8.65953 139.186C8.57606 139.04 8.50846 138.923 8.4545 138.829C8.40909 138.747 8.38787 138.704 8.39182 138.701C8.3956 138.699 8.42485 138.738 8.47756 138.815C8.53713 138.905 8.61189 139.018 8.7045 139.158C8.90856 139.479 9.19033 139.921 9.54362 140.475L9.46397 140.469C10.1183 139.703 10.9709 138.705 11.9763 137.528L12.0397 137.454L12.097 137.534C12.7329 138.42 13.4363 139.401 14.1889 140.45L14.0482 140.447C14.7441 139.572 15.4799 138.647 16.2405 137.691C16.2869 137.633 16.333 137.575 16.3757 137.522L16.4457 137.434L16.5175 137.52C17.3775 138.546 18.2056 139.535 18.9683 140.446L18.8307 140.451C19.5869 139.398 20.2914 138.416 20.9237 137.535L20.9851 137.45L21.045 137.535C21.874 138.718 22.5782 139.723 23.1053 140.474L23.0304 140.472C23.4059 140.022 23.7044 139.665 23.9217 139.405C24.0185 139.293 24.0971 139.202 24.1605 139.129C24.2154 139.068 24.2454 139.037 24.2486 139.04Z" fill="#F8F8F9"/>
<path d="M24.7265 135.228C24.7265 135.279 21.0413 135.32 16.4965 135.32C11.9501 135.32 8.26587 135.279 8.26587 135.228C8.26587 135.178 11.9501 135.137 16.4965 135.137C21.0413 135.137 24.7265 135.178 24.7265 135.228Z" fill="#F8F8F9"/>
<path d="M127.975 20.5693L124.96 20.5854L124.88 5.60341L127.894 5.58761L127.975 20.5693Z" fill="#E3E3E2"/>
<path d="M106.612 13.8975L98.8051 13.9392L98.7605 5.66855L106.568 5.62687L106.612 13.8975Z" fill="#EEEEEE"/>
<path d="M114.383 13.8557L106.575 13.8977L106.531 5.62668L114.339 5.58502L114.383 13.8557Z" fill="#F8F8F9"/>
<path d="M98.7728 7.95239C103.961 7.9955 109.163 7.96532 114.351 7.88089C114.458 7.8791 114.457 7.71598 114.35 7.71526C109.161 7.68688 103.96 7.71202 98.772 7.81047C98.6807 7.81226 98.681 7.95167 98.7728 7.95239Z" fill="#E3E3E2"/>
<path d="M108.114 20.4994L93.9289 20.5752L93.8929 13.8351L108.078 13.7593L108.114 20.4994Z" fill="#EEEEEE"/>
<path d="M122.232 20.4241L108.046 20.5002L108.01 13.7598L122.195 13.684L122.232 20.4241Z" fill="#F8F8F9"/>
<path d="M93.9029 15.7099C103.326 15.8162 112.782 15.721 122.206 15.5701C122.312 15.5683 122.312 15.4052 122.205 15.4049C112.781 15.3549 103.323 15.3607 93.9022 15.5676C93.8104 15.5698 93.8112 15.7088 93.9029 15.7099Z" fill="#E3E3E2"/>
<path d="M143.555 22.9905H88.5981V20.5754H143.555V22.9905Z" fill="#E3E3E2"/>
<path d="M99.8269 29.9763H97.5956V21.7366H99.8269V29.9763Z" fill="#E3E3E2"/>
<path d="M133.131 29.9763H130.9V21.7366H133.131V29.9763Z" fill="#E3E3E2"/>
<path d="M130.948 20.6059L127.933 20.6221L127.822 0.0169353L130.837 0.000759125L130.948 20.6059Z" fill="#EEEEEE"/>
<path d="M135.638 20.5344L130.953 20.5596L130.863 3.8616L135.548 3.83645L135.638 20.5344Z" fill="#F8F8F9"/>
<path d="M135.516 7.05344C135.516 7.09799 134.467 7.13428 133.174 7.13428C131.88 7.13428 130.831 7.09799 130.831 7.05344C130.831 7.00853 131.88 6.97224 133.174 6.97224C134.467 6.97224 135.516 7.00853 135.516 7.05344Z" fill="#E3E3E2"/>
<path d="M135.516 6.35191C135.516 6.39682 134.467 6.43311 133.174 6.43311C131.88 6.43311 130.831 6.39682 130.831 6.35191C130.831 6.30736 131.88 6.27107 133.174 6.27107C134.467 6.27107 135.516 6.30736 135.516 6.35191Z" fill="#E3E3E2"/>
<path d="M135.516 18.0222C135.516 18.0671 134.467 18.103 133.174 18.103C131.88 18.103 130.831 18.0671 130.831 18.0222C130.831 17.9773 131.88 17.941 133.174 17.941C134.467 17.941 135.516 17.9773 135.516 18.0222Z" fill="#E3E3E2"/>
<path d="M135.516 17.3207C135.516 17.3656 134.467 17.4019 133.174 17.4019C131.88 17.4019 130.831 17.3656 130.831 17.3207C130.831 17.2761 131.88 17.2398 133.174 17.2398C134.467 17.2398 135.516 17.2761 135.516 17.3207Z" fill="#E3E3E2"/>
<path d="M133.249 15.79C133.204 15.79 133.168 14.1054 133.168 12.0276C133.168 9.94956 133.204 8.26489 133.249 8.26489C133.294 8.26489 133.331 9.94956 133.331 12.0276C133.331 14.1054 133.294 15.79 133.249 15.79Z" fill="#E3E3E2"/>
<path d="M140.666 20.5405H135.567V7.93693H140.666V20.5405Z" fill="#EEEEEE"/>
<path d="M130.152 3.51853C130.152 3.99673 129.764 4.38403 129.285 4.38403C128.806 4.38403 128.418 3.99673 128.418 3.51853C128.418 3.04069 128.806 2.65338 129.285 2.65338C129.764 2.65338 130.152 3.04069 130.152 3.51853Z" fill="#E3E3E2"/>
<path d="M129.553 18.1567H129.017V5.89877H129.553V18.1567Z" fill="#E3E3E2"/>
<path d="M158.92 150.209C158.92 150.261 124.341 150.302 81.6971 150.302C39.0376 150.302 4.46667 150.261 4.46667 150.209C4.46667 150.157 39.0376 150.115 81.6971 150.115C124.341 150.115 158.92 150.157 158.92 150.209Z" fill="#1D2A30"/>
<path d="M45.4318 18.3524C47.1205 20.3989 48.0574 23.0507 48.0286 25.7026C48.012 27.2176 47.7325 28.889 48.6154 30.1217C49.2852 31.0573 50.507 31.5254 51.0513 32.5393C51.7058 33.7584 51.1478 35.2979 51.5507 36.6215C52.1217 38.498 54.322 39.2823 55.6269 40.7478C56.7583 42.0186 57.1771 43.8782 56.7213 45.5169C56.2658 47.1552 54.9573 48.5266 53.3481 49.0824C52.4839 49.381 51.4964 49.4453 50.6779 49.0379C49.7954 48.5988 49.2504 47.6974 48.8082 46.8172C47.9394 45.0872 40.3224 35.7254 39.891 33.8385" fill="#1D2A30"/>
<path d="M39.891 16.1453C36.7765 15.6449 33.7828 17.71 32.4707 20.5746C31.1583 23.4398 31.1224 26.6978 31.0255 29.8473C30.9287 32.996 30.7074 36.2834 29.0976 38.9931C28.076 40.7126 26.494 42.2213 26.2458 44.2052C26.0238 45.9819 26.9446 47.7711 26.6389 49.5352C26.3727 51.0711 25.2007 52.4073 25.2471 53.9655C25.303 55.8398 27.2335 57.2522 29.1106 57.3021C30.9876 57.3524 32.7413 56.3701 34.2129 55.2057C36.6005 53.3159 38.5361 50.8598 39.814 48.098" fill="#1D2A30"/>
<path d="M34.7669 23.563C34.3555 20.2828 36.7315 17.285 40.0669 16.9677C43.2106 16.6684 46.0045 19.0059 46.4758 22.1245C46.8888 24.8579 47.2436 27.6175 47.231 28.6196C47.1925 31.6418 45.4217 32.8185 44.704 33.1717C44.5403 33.2521 44.0884 33.3438 43.9078 33.3696L43.8909 33.393L44.563 36.8622C44.8673 39.1354 43.597 41.1624 41.3247 41.4933C39.0445 41.8253 37.2622 40.0796 36.9143 37.8049L34.7669 23.563Z" fill="#F9AD95"/>
<path d="M45.8567 23.448C45.8067 23.5188 45.407 23.305 44.895 23.3809C44.3823 23.4495 44.0449 23.7671 43.9801 23.7125C43.9488 23.6888 43.9927 23.568 44.1391 23.4254C44.2827 23.2835 44.541 23.1283 44.8601 23.083C45.1796 23.0385 45.4652 23.1164 45.6369 23.2141C45.8121 23.3119 45.8819 23.4164 45.8567 23.448Z" fill="#1D2A30"/>
<path d="M41.3013 24.5538C41.2513 24.6242 40.8513 24.4104 40.3397 24.4862C39.827 24.5548 39.4895 24.8728 39.4248 24.8182C39.3935 24.7945 39.4366 24.6738 39.5834 24.5308C39.7273 24.3888 39.9853 24.2336 40.3044 24.1884C40.6239 24.1438 40.9095 24.2221 41.0815 24.3195C41.256 24.4176 41.3262 24.5218 41.3013 24.5538Z" fill="#1D2A30"/>
<path d="M43.1689 27.2961C43.1624 27.2673 43.4729 27.166 43.9791 27.0252C44.1079 26.9925 44.228 26.9486 44.237 26.8563C44.2539 26.7575 44.1787 26.6246 44.0931 26.4816C43.924 26.1834 43.747 25.8708 43.561 25.5435C42.817 24.2052 42.2583 23.0971 42.3126 23.0677C42.3666 23.0382 43.0138 24.0992 43.7578 25.4371C43.9377 25.7677 44.11 26.0824 44.2744 26.3839C44.3453 26.5251 44.455 26.681 44.4169 26.8865C44.396 26.9896 44.3104 27.074 44.2298 27.1092C44.1496 27.147 44.0762 27.1588 44.0122 27.1721C43.497 27.2759 43.175 27.3248 43.1689 27.2961Z" fill="#1D2A30"/>
<path d="M43.8869 33.3726C43.8869 33.3726 41.9326 33.8224 39.2419 32.6978C39.2419 32.6978 40.4036 35.1952 44.0679 34.3074L43.8869 33.3726Z" fill="#F6865E"/>
<path d="M41.0437 23.2136C41.0134 23.3599 40.4921 23.3685 39.9018 23.5284C39.3081 23.6764 38.8491 23.9225 38.7512 23.8097C38.7066 23.7551 38.7721 23.6117 38.9484 23.4482C39.1232 23.2858 39.4143 23.1127 39.7694 23.0203C40.1245 22.9284 40.463 22.9373 40.695 22.9945C40.9285 23.0512 41.0555 23.1443 41.0437 23.2136Z" fill="#1D2A30"/>
<path d="M45.4369 22.3146C45.3635 22.4439 44.9929 22.375 44.5677 22.431C44.1407 22.472 43.7953 22.6232 43.6949 22.5136C43.6503 22.4601 43.6899 22.3351 43.8309 22.2025C43.9694 22.0703 44.2151 21.9431 44.508 21.9093C44.8008 21.8763 45.0692 21.9449 45.234 22.0423C45.4013 22.14 45.4682 22.2524 45.4369 22.3146Z" fill="#1D2A30"/>
<path d="M40.191 25.214C40.2263 25.4361 40.4436 25.5898 40.6764 25.5571C40.9091 25.5252 41.0696 25.3193 41.0343 25.0969C40.9994 24.8749 40.7821 24.7211 40.5494 24.7534C40.3166 24.7858 40.1561 24.992 40.191 25.214Z" fill="#1D2A30"/>
<path d="M44.727 24.2344C44.7619 24.4564 44.9792 24.6098 45.212 24.5775C45.4444 24.5451 45.6052 24.3393 45.57 24.1172C45.5351 23.8952 45.3174 23.7414 45.085 23.7738C44.8522 23.8061 44.6918 24.0123 44.727 24.2344Z" fill="#1D2A30"/>
<path d="M43.9747 28.2921C43.6452 28.1968 43.3613 28.3636 43.2275 28.6021C43.0936 28.841 43.1257 29.1673 43.3181 29.3616C43.5106 29.5567 43.8535 29.5873 44.0657 29.4148C44.21 29.2977 44.2823 29.1105 44.3007 28.9262C44.3179 28.7555 44.2899 28.573 44.1845 28.4376C44.079 28.3025 43.8841 28.2295 43.7272 28.2992" fill="#F6865E"/>
<path d="M46.0765 19.6794C45.842 18.5427 45.0584 17.573 44.1043 16.9105C43.2937 16.3475 42.3349 15.9753 41.3485 15.9451C40.3616 15.9149 39.3503 16.2461 38.6372 16.9284C38.1102 17.4325 37.8404 18.1464 37.8155 18.8747L37.8731 18.372C37.7249 18.7848 37.7252 19.2325 37.8792 19.6381L37.8799 19.6406L37.8796 19.6389C37.963 19.8587 38.0631 20.079 38.1516 20.2996C38.4034 20.9276 38.8912 21.4575 39.4967 21.7611C39.7756 21.9009 40.0846 21.9947 40.3962 21.9799C40.7077 21.9652 41.0221 21.8312 41.2114 21.5833C41.4816 21.2294 41.4503 20.7386 41.4064 20.2956C41.674 20.7131 41.9583 21.146 42.3882 21.3936C42.8185 21.6404 43.4401 21.6318 43.7427 21.2391C44.0359 20.8586 43.9201 20.3121 43.7503 19.8634C44.0251 20.282 44.4191 20.6218 44.8738 20.8327C45.1253 20.9495 45.4217 21.0264 45.6768 20.9164C45.8927 20.823 46.038 20.6071 46.0934 20.3786C46.1485 20.1501 46.124 19.9094 46.0765 19.6794Z" fill="#1D2A30"/>
<path d="M43.4769 20.6177C43.4445 20.6188 43.4499 20.1916 43.3114 19.529C43.1725 18.8777 42.8422 17.9572 42.0691 17.2767C41.6881 16.9408 41.2499 16.7083 40.8243 16.6056C40.398 16.5003 39.9921 16.5129 39.6658 16.5765C39.0042 16.7108 38.6837 17.0245 38.6639 16.9914C38.6574 16.9843 38.7265 16.9002 38.8848 16.7859C39.042 16.6717 39.2956 16.5344 39.6367 16.4475C39.977 16.3634 40.4066 16.335 40.8639 16.4378C41.3215 16.5384 41.791 16.7816 42.1932 17.1366C43.0106 17.8566 43.3337 18.8328 43.4416 19.5043C43.4966 19.8467 43.5089 20.1265 43.5064 20.3191C43.5038 20.5117 43.4887 20.6177 43.4769 20.6177Z" fill="#365462"/>
<path d="M76.6114 62.5068L62.778 57.0303C62.778 57.0303 55.6913 47.7497 55.8391 47.5697L50.865 53.0099L58.0949 62.7842L74.8478 66.7007L82.7825 66.7646C82.1687 63.7169 76.6114 62.5068 76.6114 62.5068Z" fill="#F9AD95"/>
<path d="M46.4604 36.0319L44.5766 35.3025L36.4387 36.3333V37.769L36.2055 37.7977C36.2055 37.7977 33.6777 38.2565 31.2202 39.73C28.2444 41.5142 26.6978 44.9553 27.249 48.3779C27.5799 50.4329 28.2215 52.931 29.4573 54.3746C31.8208 57.1357 33.9794 53.7232 33.9794 53.7232C33.9794 53.7232 35.4629 57.1027 35.3778 58.7007C35.3062 60.0391 34.7135 62.8278 34.5229 63.6987C34.4907 63.8456 34.5873 63.9872 34.7352 64.0145L51.9029 67.1841L51.9868 62.9938L51.4406 45.7583L50.6833 39.0646C50.6833 39.0646 50.7071 35.8666 46.4604 36.0319Z" fill="#2553A7"/>
<path d="M50.42 37.9508L56.9657 47.3956L51.6958 53.8066L50.42 37.9508Z" fill="#2553A7"/>
<path d="M51.8231 57.8267C51.8102 57.8263 51.8015 57.6093 51.7976 57.217C51.7922 56.7934 51.7853 56.234 51.7767 55.5574C51.7429 54.1577 51.6637 52.2222 51.3846 50.1046C51.1133 47.9859 50.701 46.0929 50.3855 44.728C50.2304 44.0694 50.102 43.5244 50.0052 43.1123C49.9153 42.7304 49.8717 42.5173 49.8843 42.5141C49.8966 42.5109 49.9642 42.7171 50.0757 43.0936C50.1876 43.4698 50.3394 44.017 50.5143 44.6967C50.8633 46.0555 51.2979 47.9518 51.5702 50.0809C51.8508 52.2079 51.9091 54.153 51.9091 55.556C51.9023 56.2584 51.8922 56.8261 51.8702 57.2184C51.8523 57.6104 51.8361 57.827 51.8231 57.8267Z" fill="#1D2A30"/>
<path d="M35.7162 43.466C35.7152 43.4962 35.2194 43.4901 34.4224 43.5325C33.6256 43.5745 32.527 43.6834 31.3356 43.9287C30.1443 44.1763 29.0925 44.5119 28.3447 44.7899C27.5964 45.0669 27.144 45.2692 27.1311 45.2419C27.1253 45.2301 27.2327 45.1675 27.4321 45.0637C27.6305 44.9584 27.9255 44.8216 28.2964 44.6667C29.037 44.3552 30.0938 43.9956 31.2976 43.7455C32.5013 43.4976 33.6144 43.4085 34.4179 43.4002C34.8199 43.3956 35.1451 43.4042 35.369 43.4222C35.5934 43.438 35.7166 43.4531 35.7162 43.466Z" fill="#FCFDFD"/>
<path d="M50.8787 47.7901C50.8823 47.8138 50.5722 47.8889 50.0624 47.9669C49.5534 48.0452 48.8439 48.1203 48.0574 48.1476C47.2706 48.1742 46.5576 48.1476 46.0442 48.1045C45.5304 48.0613 45.216 48.0078 45.2182 47.9834C45.2203 47.9561 45.5383 47.9633 46.051 47.9722C46.5633 47.9816 47.2706 47.987 48.051 47.9607C48.8313 47.9334 49.5364 47.8799 50.047 47.8357C50.5575 47.7915 50.8744 47.7628 50.8787 47.7901Z" fill="#FCFDFD"/>
<path d="M53.8838 43.5156C53.9169 43.5501 53.3373 44.1285 52.4793 44.6498C51.6234 45.1755 50.8441 45.4273 50.8283 45.3817C50.8078 45.3307 51.5421 45.0063 52.3814 44.4903C53.2233 43.9791 53.8471 43.4736 53.8838 43.5156Z" fill="#FCFDFD"/>
<path d="M51.2381 39.1361C51.2701 39.1677 50.4984 39.8611 49.3317 40.3498C48.1682 40.8466 47.1328 40.9178 47.1324 40.8725C47.1223 40.815 48.1236 40.663 49.2586 40.1773C50.3977 39.7009 51.2035 39.0887 51.2381 39.1361Z" fill="#FCFDFD"/>
<path d="M51.5954 55.102C51.6004 55.1139 51.4792 55.1767 51.2554 55.2802C51.0323 55.3858 50.7013 55.5213 50.2865 55.6733C49.4583 55.9776 48.2794 56.3171 46.9446 56.5233C45.6092 56.7267 44.3824 56.7561 43.5006 56.7137C43.0595 56.6936 42.7033 56.6634 42.4587 56.6297C42.2141 56.598 42.0795 56.5743 42.0809 56.5614C42.0838 56.5309 42.6267 56.5747 43.5038 56.5819C44.3809 56.5898 45.5941 56.5399 46.9162 56.3383C48.238 56.1342 49.4098 55.8184 50.2437 55.5479C51.0787 55.2781 51.5831 55.0736 51.5954 55.102Z" fill="#FCFDFD"/>
<path d="M51.7285 59.9731C51.7314 59.9788 51.6785 60.0087 51.5752 60.0597C51.4511 60.1186 51.3011 60.1897 51.1194 60.276C50.7237 60.4635 50.1376 60.7068 49.4037 60.9805C48.6708 61.2575 47.7815 61.5439 46.7817 61.8184C45.7797 62.0828 44.6652 62.3296 43.4833 62.5165C42.2993 62.6961 41.1625 62.7981 40.1271 62.8495C39.0909 62.8905 38.1566 62.8865 37.3738 62.8441C36.5913 62.8053 35.9591 62.7507 35.5249 62.6918C35.3261 62.6645 35.1611 62.6422 35.0254 62.6239C34.9114 62.6063 34.8519 62.5941 34.8528 62.5876C34.8536 62.5811 34.9143 62.5811 35.0296 62.5865C35.1662 62.5955 35.3319 62.6063 35.532 62.6192C35.9671 62.6559 36.5988 62.69 37.3788 62.7123C38.1588 62.7374 39.0884 62.7274 40.1184 62.6771C41.1481 62.6171 42.2774 62.5103 43.4545 62.3318C44.6299 62.146 45.7384 61.9057 46.7378 61.6517C47.7343 61.388 48.6233 61.116 49.3591 60.8562C50.0955 60.599 50.6873 60.3751 51.091 60.2088C51.2777 60.1359 51.4324 60.0751 51.5598 60.0256C51.6677 59.9853 51.726 59.9674 51.7285 59.9731Z" fill="#FCFDFD"/>
<path d="M20.1615 136.35L18.2169 145.129L14.6743 151.629C14.419 152.097 14.6145 152.684 15.0997 152.906C15.3715 153.031 15.6842 153.018 15.9433 152.868C17.5914 151.917 23.6372 148.389 23.7436 147.738C23.8667 146.985 26.4101 138.615 26.4101 138.615L20.1615 136.35Z" fill="#2553A7"/>
<path d="M15.5052 153C15.3665 153 15.2275 152.969 15.0996 152.906C15.2229 152.963 15.3547 152.991 15.4859 152.991C15.644 152.991 15.8016 152.95 15.9432 152.868C16.7481 152.404 18.6019 151.324 20.3005 150.266C20.3021 150.266 20.3053 150.266 20.3068 150.266C19.2174 150.948 17.7987 151.809 15.9695 152.875C15.8267 152.958 15.6661 153 15.5052 153ZM20.4828 150.152C20.7762 149.968 21.064 149.786 21.3392 149.608H21.344C21.086 149.774 20.8016 149.955 20.4884 150.152C20.4868 150.152 20.4843 150.152 20.4828 150.152Z" fill="white"/>
<path d="M21.344 149.607H21.3392C22.4158 148.911 23.3031 148.287 23.6199 147.935C23.5268 148.081 23.4063 148.21 23.2631 148.313C22.9354 148.55 22.3366 148.968 21.344 149.607Z" fill="#F6F7F7"/>
<path d="M23.8243 147.409H23.8193C23.8392 147.333 23.8621 147.246 23.8881 147.149H23.8883L23.8243 147.409Z" fill="#F6F7F7"/>
<path d="M23.7661 147.627C23.7793 147.569 23.7973 147.495 23.8194 147.409H23.8243L23.7973 147.519C23.7883 147.555 23.7779 147.592 23.7661 147.627Z" fill="#F6F7F7"/>
<path d="M20.3068 150.266C20.3053 150.266 20.3021 150.266 20.3005 150.266C20.3615 150.228 20.4224 150.19 20.4828 150.152C20.4843 150.152 20.4869 150.152 20.4884 150.152C20.429 150.189 20.3682 150.227 20.3068 150.266Z" fill="#A5ADAD"/>
<path d="M15.4859 152.99C15.3547 152.99 15.2229 152.963 15.0996 152.906L23.8883 147.149C23.8621 147.246 23.8392 147.333 23.8193 147.409C23.7973 147.495 23.7793 147.569 23.7661 147.627C23.7298 147.736 23.6808 147.839 23.6199 147.935C23.303 148.287 22.4158 148.911 21.3392 149.607C21.064 149.785 20.7762 149.968 20.4828 150.152C20.4223 150.19 20.3615 150.228 20.3005 150.266C18.6019 151.324 16.7481 152.403 15.9432 152.868C15.8016 152.95 15.644 152.99 15.4859 152.99Z" fill="#F9A8BF"/>
<path d="M22.9697 144.915C22.7526 144.915 22.5337 144.772 22.4637 144.563C22.3824 144.32 22.511 144.031 22.7375 143.914L22.7369 143.915C22.7975 143.874 22.869 143.856 22.9435 143.856C23.1497 143.856 23.3791 143.994 23.4639 144.176C23.5794 144.424 23.3845 144.795 23.1266 144.888C23.0758 144.906 23.0228 144.915 22.9697 144.915Z" fill="#F9A8BF"/>
<path d="M18.0353 149.581C17.98 149.593 17.8951 149.087 17.4354 148.714C16.9871 148.327 16.474 148.332 16.4761 148.275C16.4738 148.252 16.6012 148.211 16.8128 148.233C17.0229 148.252 17.3116 148.353 17.5626 148.562C17.8127 148.772 17.9628 149.039 18.0187 149.242C18.0768 149.447 18.0586 149.579 18.0353 149.581Z" fill="#1D2A30"/>
<path d="M17.1253 150.598C17.0743 150.625 16.8635 150.272 16.4431 150.032C16.0279 149.783 15.6168 149.771 15.6162 149.713C15.602 149.662 16.0684 149.58 16.5431 149.862C17.0209 150.139 17.1767 150.585 17.1253 150.598Z" fill="#1D2A30"/>
<path d="M19.5628 148.366C19.5116 148.398 19.1898 147.854 18.5688 147.423C17.9544 146.982 17.3335 146.862 17.346 146.803C17.3433 146.753 18.0227 146.791 18.6828 147.261C19.3478 147.725 19.6109 148.352 19.5628 148.366Z" fill="#1D2A30"/>
<path d="M20.3771 145.747C20.3409 145.793 19.9073 145.474 19.2844 145.297C18.6637 145.111 18.1263 145.149 18.1209 145.09C18.1071 145.042 18.6722 144.91 19.3397 145.107C20.0086 145.299 20.4146 145.713 20.3771 145.747Z" fill="#1D2A30"/>
<path d="M21.0132 143.184C20.9737 143.228 20.5595 142.818 19.8882 142.686C19.2198 142.539 18.6761 142.749 18.6574 142.693C18.6476 142.671 18.7698 142.585 19.0002 142.518C19.2285 142.451 19.5678 142.418 19.9285 142.493C20.289 142.569 20.5869 142.734 20.7694 142.887C20.9533 143.04 21.0309 143.169 21.0132 143.184Z" fill="#1D2A30"/>
<path d="M20.0234 142.202C20.0125 142.2 20.0213 142.077 20.0927 141.869C20.164 141.662 20.302 141.366 20.5683 141.068C20.7025 140.929 20.8522 140.744 21.1244 140.689C21.26 140.661 21.4354 140.728 21.5106 140.869C21.5858 141.006 21.5831 141.158 21.5521 141.297C21.4067 141.849 20.7985 142.268 20.1547 142.195C19.5111 142.11 19.0311 141.613 18.9005 141.074C18.8766 140.937 18.8764 140.776 18.9805 140.645C19.0837 140.512 19.2761 140.496 19.3961 140.549C19.6461 140.651 19.7731 140.841 19.8985 140.989C20.1404 141.305 20.2643 141.604 20.3286 141.813C20.3928 142.023 20.3999 142.146 20.3887 142.148C20.3526 142.164 20.2732 141.665 19.7895 141.077C19.6654 140.938 19.5248 140.766 19.3421 140.703C19.2532 140.672 19.1659 140.689 19.1155 140.755C19.0647 140.817 19.0562 140.931 19.0795 141.04C19.1929 141.483 19.6329 141.935 20.178 141.999C20.7199 142.066 21.2541 141.697 21.3751 141.253C21.4026 141.146 21.4006 141.031 21.3588 140.954C21.3176 140.877 21.2359 140.838 21.1472 140.852C20.9601 140.878 20.801 141.034 20.6702 141.163C20.1443 141.714 20.0603 142.22 20.0234 142.202Z" fill="#1D2A30"/>
<path d="M25.8792 140.37C26.1913 139.334 26.41 138.614 26.41 138.614L25.8792 140.37Z" fill="#B2B1B0"/>
<path d="M19.6738 138.551L19.9347 137.303L20.1615 136.35L19.6738 138.551Z" fill="#A2A1A0"/>
<path d="M25.8793 140.37L19.514 139.316L19.6738 138.551L20.1615 136.35L26.4101 138.614C26.4101 138.614 26.1914 139.334 25.8791 140.37" fill="#6165D7"/>
<path d="M48.6032 139.598L48.0776 146.613C48.0776 146.613 55.0405 149.502 55.07 150.808L41.4139 150.279L41.7838 139.316L48.6032 139.598Z" fill="#2553A7"/>
<path d="M43.9859 146.901C43.747 146.901 43.5124 146.717 43.4674 146.48C43.42 146.228 43.5869 145.958 43.8272 145.873C43.8751 145.85 43.9269 145.84 43.9801 145.84C44.2017 145.84 44.446 146.021 44.5111 146.231C44.5917 146.493 44.3482 146.834 44.0801 146.891C44.0488 146.898 44.0172 146.901 43.9859 146.901Z" fill="#F9A8BF"/>
<path d="M55.07 150.808L41.6722 150.289L55.07 150.808C55.0664 150.657 54.97 150.484 54.8016 150.297C54.8174 150.297 54.8344 150.297 54.8505 150.297C54.9873 150.421 55.1121 150.598 55.07 150.808Z" fill="white"/>
<path d="M54.8506 150.297C54.8344 150.297 54.8175 150.297 54.8016 150.297C54.7603 150.251 54.7149 150.205 54.6656 150.157C54.7193 150.191 54.7862 150.238 54.8506 150.297Z" fill="#A5ADAD"/>
<path d="M55.07 150.808L41.6723 150.289L41.4139 150.279L41.4945 149.175L54.5577 150.095C54.5577 150.095 54.6023 150.117 54.6656 150.157C54.7149 150.204 54.7602 150.251 54.8016 150.297C54.97 150.484 55.0664 150.657 55.07 150.808Z" fill="#F9A8BF"/>
<path d="M48.3013 146.552C48.2966 146.619 47.962 146.636 47.6256 146.838C47.2839 147.03 47.1036 147.312 47.0432 147.284C46.9824 147.268 47.0971 146.874 47.5091 146.637C47.9181 146.397 48.3182 146.492 48.3013 146.552Z" fill="#1D2A30"/>
<path d="M49.7109 147.2C49.7238 147.264 49.4306 147.366 49.1928 147.64C48.9474 147.905 48.8784 148.208 48.8122 148.203C48.7492 148.21 48.7183 147.819 49.0198 147.485C49.3187 147.149 49.7119 147.136 49.7109 147.2Z" fill="#1D2A30"/>
<path d="M50.4578 148.943C50.3966 148.955 50.3168 148.619 50.5024 148.26C50.6852 147.901 51.0054 147.769 51.0313 147.826C51.0669 147.882 50.8568 148.07 50.7089 148.366C50.5546 148.659 50.5243 148.939 50.4578 148.943Z" fill="#1D2A30"/>
<path d="M48.2438 144.94C48.2135 145 47.911 144.897 47.5332 144.908C47.1551 144.911 46.8569 145.026 46.8241 144.967C46.7874 144.918 47.0835 144.682 47.5289 144.676C47.9739 144.666 48.2783 144.89 48.2438 144.94Z" fill="#1D2A30"/>
<path d="M41.6959 141.917L41.7412 140.472L41.7448 140.472L41.6959 141.917Z" fill="#B2B1B0"/>
<path d="M48.4052 142.238L41.6959 141.917L41.7449 140.472L48.497 140.988L48.4052 142.238Z" fill="#6165D7"/>
<path d="M48.3236 143.523C48.3232 143.551 48.0581 143.582 47.6397 143.493C47.4314 143.449 47.1874 143.371 46.9327 143.246C46.8057 143.184 46.6758 143.11 46.5481 143.023C46.4866 142.98 46.4136 142.936 46.3477 142.854C46.2765 142.782 46.2416 142.604 46.3308 142.499C46.4049 142.396 46.5305 142.356 46.6291 142.358C46.7298 142.358 46.8104 142.382 46.8842 142.403C47.0349 142.446 47.1756 142.502 47.3036 142.565C47.5602 142.694 47.7663 142.852 47.9181 143.003C48.2239 143.308 48.3221 143.561 48.2991 143.573C48.2678 143.594 48.1218 143.38 47.8088 143.125C47.6526 142.998 47.4522 142.866 47.2123 142.758C47.0921 142.705 46.9619 142.658 46.8241 142.622C46.6809 142.579 46.5582 142.573 46.5183 142.636C46.5039 142.66 46.5017 142.669 46.5305 142.712C46.5604 142.753 46.6172 142.793 46.6776 142.836C46.7953 142.919 46.9144 142.992 47.0309 143.056C47.2648 143.184 47.4893 143.273 47.6825 143.335C48.0692 143.459 48.3261 143.487 48.3236 143.523Z" fill="#1D2A30"/>
<path d="M48.2329 143.616C48.2092 143.625 48.0858 143.381 48.0782 142.949C48.075 142.735 48.1074 142.476 48.2005 142.205C48.2477 142.069 48.3103 141.931 48.3909 141.797C48.4761 141.665 48.5808 141.488 48.8406 141.469C48.9759 141.469 49.0841 141.579 49.1187 141.671C49.1604 141.765 49.1662 141.844 49.1791 141.923C49.1982 142.084 49.1892 142.24 49.1618 142.383C49.1075 142.672 48.9791 142.909 48.8424 143.078C48.5618 143.421 48.2804 143.49 48.2757 143.467C48.2549 143.432 48.4923 143.313 48.7096 142.981C48.8168 142.818 48.9147 142.601 48.951 142.348C48.969 142.222 48.9722 142.088 48.9535 141.953C48.9377 141.807 48.8881 141.688 48.833 141.701C48.765 141.697 48.6456 141.802 48.5851 141.915C48.5103 142.035 48.4495 142.158 48.4013 142.279C48.3063 142.522 48.2599 142.756 48.2423 142.955C48.2081 143.355 48.2696 143.607 48.2329 143.616Z" fill="#1D2A30"/>
<path d="M34.464 63.9647C34.464 63.9647 32.2959 64.0595 30.8671 71.4323C29.4386 78.8055 18.457 138.543 18.457 138.543L26.4102 138.614L41.4139 81.8206L40.417 140.371L48.497 140.988C48.497 140.988 54.5606 76.2144 54.6178 72.4455C54.689 67.7468 51.9868 62.9939 51.9868 62.9939L34.464 63.9647Z" fill="#1D2A30"/>
<path d="M45.3954 63.3334C45.4462 63.3439 44.6208 67.5561 43.5523 72.7405C42.4835 77.9267 41.5761 82.1214 41.5254 82.1106C41.4747 82.1002 42.3 77.8887 43.3689 72.7028C44.4374 67.5184 45.3451 63.323 45.3954 63.3334Z" fill="#365462"/>
<path d="M46.636 64.3854C46.6223 64.3671 46.8515 64.2992 47.0979 64.5194C47.2116 64.6254 47.3231 64.8018 47.3149 65.0274C47.3105 65.2559 47.1375 65.4783 46.9076 65.5725C46.6799 65.6709 46.3996 65.6393 46.2327 65.483C46.065 65.3314 46.0168 65.128 46.02 64.9732C46.0344 64.643 46.2431 64.5266 46.2463 64.5492C46.2715 64.5676 46.1294 64.703 46.1524 64.9696C46.1643 65.0968 46.2201 65.2516 46.3442 65.3515C46.4644 65.4536 46.6597 65.4733 46.8349 65.4C47.0098 65.326 47.1321 65.1726 47.1425 65.0156C47.158 64.8571 47.0857 64.7088 47.0029 64.6114C46.8277 64.4091 46.6317 64.4159 46.636 64.3854Z" fill="#365462"/>
<path d="M46.2913 67.3048C46.2863 67.2826 46.5151 67.3124 46.6399 67.6041C46.695 67.7417 46.7202 67.9411 46.6176 68.133C46.5173 68.3291 46.2708 68.4452 46.0337 68.4244C45.7959 68.4085 45.57 68.2555 45.5016 68.046C45.43 67.8405 45.4858 67.6476 45.5617 67.52C45.7301 67.2517 45.9607 67.2571 45.9524 67.2786C45.9639 67.307 45.783 67.3512 45.6786 67.5822C45.6301 67.6925 45.6045 67.8463 45.6624 67.9839C45.7153 68.1215 45.8697 68.2235 46.0481 68.2379C46.2266 68.2512 46.3946 68.1743 46.4683 68.0467C46.5468 67.9196 46.5457 67.7636 46.5147 67.6472C46.4475 67.4029 46.2755 67.3311 46.2913 67.3048Z" fill="#365462"/>
<path d="M38.6695 64.4595C38.6803 64.4627 38.6519 64.5956 38.5746 64.8284C38.4983 65.0616 38.3637 65.3922 38.1554 65.7798C37.7453 66.5534 36.9804 67.5507 35.8475 68.2959C34.7145 69.0417 33.4949 69.3504 32.6214 69.4219C32.1824 69.4603 31.8254 69.4531 31.5808 69.4316C31.3361 69.4104 31.2027 69.3841 31.2039 69.3726C31.2056 69.3378 31.7472 69.3989 32.607 69.2904C33.4616 69.1865 34.6422 68.8653 35.7445 68.1399C36.8466 67.4146 37.6079 66.4581 38.04 65.7148C38.4792 64.9686 38.6364 64.4472 38.6695 64.4595Z" fill="#365462"/>
<path d="M54.1446 69.6996C54.1371 69.71 54.0529 69.6586 53.9061 69.5559C53.7568 69.4564 53.5575 69.2886 53.329 69.063C52.8711 68.6146 52.331 67.8852 51.9738 66.9658C51.6205 66.045 51.5309 65.1421 51.5694 64.5026C51.5871 64.1825 51.6219 63.9242 51.6655 63.7506C51.7054 63.576 51.7335 63.4815 51.7461 63.484C51.7799 63.4901 51.7033 63.8774 51.7018 64.5058C51.6982 65.1328 51.8058 66.004 52.1486 66.8986C52.4958 67.7915 53.0013 68.5097 53.4255 68.9717C53.8485 69.4366 54.1655 69.6723 54.1446 69.6996Z" fill="#365462"/>
<path d="M31.3015 49.7559L34.8351 49.9509C35.0584 51.0949 35.8341 52.8439 35.8341 52.8439C38.6783 47.9135 40.8837 41.3077 41.4312 38.653C41.3514 38.3878 41.2567 38.0943 41.1391 37.7666C41.0031 37.3879 41.1197 36.6715 41.1837 36.2735C41.2794 35.6824 41.4449 34.887 41.4946 34.5191C41.646 33.397 41.827 33.221 42.2188 33.3478C42.7519 33.5203 42.0004 36.4984 42.4371 36.563C42.6721 36.5975 42.9588 35.5775 43.0423 34.7404C43.1254 33.9033 43.5046 31.3283 43.7816 31.1566C44.1878 30.9051 44.5418 31.3032 44.4393 32.1367C44.3353 32.9803 44.2043 35.4963 44.6476 35.5305C45.084 35.5639 45.4502 31.2949 45.4502 31.2949C45.4502 31.2949 45.3815 30.3658 45.8942 30.3881C46.8195 30.4283 46.0963 34.929 46.0172 35.3555C45.9618 35.6519 46.4424 35.7062 46.4849 35.3846C46.5284 35.053 46.7515 31.1152 47.6934 31.1469C48.4165 31.1713 47.1336 34.8557 47.5394 35.7101C47.9452 36.5638 48.2272 32.8089 48.9176 32.8606C49.1745 32.88 49.3645 32.9303 48.8921 35.0551C48.6385 36.1973 47.893 38.2969 47.2415 40.0355C46.1478 45.9277 41.347 64.7767 33.8205 61.3261C29.6089 59.3957 27.6437 49.8367 27.6437 49.8367L31.3015 49.7559Z" fill="#F9AD95"/>
<path d="M47.2418 40.0386C47.2379 40.0371 47.2501 39.9933 47.2774 39.9096C47.3098 39.8144 47.3515 39.6922 47.4034 39.5388C47.521 39.1989 47.6858 38.7229 47.8959 38.1164C48.1056 37.4977 48.3632 36.7404 48.6194 35.8504C48.7507 35.406 48.8568 34.9245 48.9561 34.4083C49.004 34.1507 49.0529 33.8851 49.0831 33.6125C49.0957 33.477 49.1101 33.3376 49.1018 33.2039C49.0921 33.0638 49.0705 32.9492 48.9597 32.9474C48.8453 32.9165 48.7683 33.011 48.6899 33.1299C48.6176 33.2496 48.5615 33.3875 48.5111 33.5284C48.4103 33.8111 48.3316 34.1126 48.2535 34.4208C48.1751 34.7291 48.1027 35.046 48.0085 35.369C47.952 35.5321 47.9268 35.6895 47.793 35.8648C47.7678 35.886 47.7451 35.914 47.6944 35.9241C47.639 35.9381 47.5976 35.9169 47.5591 35.8935C47.5073 35.8475 47.4825 35.8012 47.4598 35.7581C47.4192 35.6672 47.3944 35.5741 47.3839 35.4839C47.3195 34.7629 47.4839 34.0659 47.5965 33.3423C47.6584 32.9816 47.7239 32.6165 47.7714 32.2468C47.7944 32.0625 47.8138 31.876 47.816 31.6925C47.8228 31.5222 47.793 31.2922 47.7182 31.2595C47.6261 31.225 47.4595 31.3292 47.3713 31.4816C47.2724 31.6314 47.1986 31.8092 47.136 31.9907C47.0112 32.3564 46.9295 32.7459 46.8594 33.1404C46.7907 33.5359 46.7371 33.939 46.6928 34.3475C46.673 34.552 46.6529 34.7578 46.6327 34.9644L46.6054 35.2763C46.5978 35.3607 46.5978 35.5371 46.4626 35.6384C46.3374 35.7322 46.1704 35.7419 46.037 35.6553C45.97 35.6122 45.9179 35.5321 45.9078 35.4509C45.8992 35.4096 45.9067 35.3719 45.9096 35.3359L45.9233 35.2587C45.9549 35.0503 45.9873 34.8412 46.0193 34.6306C46.0787 34.2089 46.1301 33.7824 46.1711 33.3523C46.2114 32.9223 46.2413 32.4879 46.2481 32.0521C46.2489 31.621 46.2456 31.169 46.1211 30.7741C46.0805 30.6541 46.0139 30.5453 45.9398 30.514C45.8635 30.4863 45.7535 30.5144 45.697 30.5913C45.5721 30.7662 45.5516 31.0547 45.5613 31.2893L45.5621 31.3008L45.5613 31.3073C45.4844 32.1516 45.3922 32.9812 45.2706 33.7968C45.208 34.2045 45.1411 34.6084 45.0386 35.0072C45.0131 35.1071 44.9825 35.2069 44.9472 35.3065C44.8994 35.406 44.8861 35.5073 44.7432 35.6169C44.6198 35.6758 44.5281 35.6086 44.4792 35.5587C44.4266 35.5037 44.4054 35.4495 44.3809 35.3963C44.3396 35.2907 44.3187 35.1886 44.3004 35.0866C44.1859 34.2768 44.2331 33.4975 44.2788 32.7333C44.2939 32.3492 44.3878 31.9691 44.337 31.6321C44.3129 31.465 44.2475 31.2972 44.1363 31.2229C44.0816 31.1869 44.0194 31.1787 43.9521 31.1945C43.9183 31.2049 43.8848 31.2168 43.8517 31.2369C43.819 31.2635 43.8258 31.2534 43.801 31.2987C43.661 31.5922 43.593 31.9633 43.5175 32.2993C43.4466 32.6427 43.3862 32.9848 43.3311 33.3225C43.2765 33.6599 43.2279 33.9933 43.1847 34.3217C43.1401 34.6475 43.1178 34.9777 43.0534 35.2986C42.9926 35.6183 42.9185 35.9295 42.8019 36.2277C42.7724 36.3024 42.7386 36.376 42.6979 36.4486C42.6476 36.5162 42.6192 36.6042 42.4814 36.6462C42.4026 36.6678 42.3342 36.6142 42.299 36.5693C42.2687 36.523 42.254 36.4788 42.2421 36.4364C42.2238 36.3538 42.2162 36.2744 42.2133 36.1971C42.2054 35.5849 42.2964 35.0233 42.3267 34.4812C42.3439 34.2124 42.3562 33.9466 42.3249 33.7008C42.3087 33.5855 42.2716 33.4504 42.2058 33.4235C42.1094 33.385 41.9849 33.3649 41.9126 33.417C41.7535 33.5316 41.6981 33.7942 41.6463 34.0048C41.5953 34.2272 41.5722 34.4474 41.5316 34.6598C41.3819 35.5098 41.2232 36.2395 41.1463 36.8359C41.1114 37.1341 41.097 37.4032 41.1347 37.6274C41.1848 37.8448 41.2578 38.0374 41.2999 38.1883C41.3423 38.3316 41.3762 38.4459 41.4031 38.5357C41.4251 38.614 41.4344 38.6546 41.4312 38.6557C41.4276 38.6568 41.411 38.6183 41.3819 38.5422C41.3502 38.4541 41.3096 38.3424 41.2589 38.2019C41.2089 38.0489 41.1337 37.8739 41.0721 37.6393C41.0254 37.4039 41.034 37.1298 41.0632 36.8269C41.1283 36.2198 41.2736 35.4951 41.4118 34.6436C41.4499 34.432 41.4704 34.2067 41.5197 33.9782C41.5456 33.8636 41.5708 33.7472 41.6143 33.6301C41.66 33.5169 41.7089 33.3861 41.8399 33.3002C41.9791 33.2137 42.1338 33.2453 42.2644 33.2948C42.4332 33.3911 42.4393 33.5528 42.4688 33.6796C42.5055 33.9484 42.494 34.2168 42.4796 34.4909C42.4533 35.0363 42.368 35.6093 42.3803 36.1896C42.3835 36.2611 42.3918 36.3311 42.4062 36.3951C42.4216 36.4651 42.4573 36.4917 42.4501 36.4784C42.4627 36.481 42.5177 36.4188 42.5486 36.362C42.5825 36.3006 42.613 36.2338 42.64 36.1641C42.7472 35.8838 42.8188 35.5774 42.876 35.2662C42.9365 34.9554 42.9563 34.6317 43.0001 34.2983C43.0415 33.9674 43.0887 33.6322 43.1419 33.2923C43.1955 32.9524 43.2545 32.6079 43.3247 32.2598C43.4045 31.9095 43.4553 31.5635 43.6258 31.1992C43.6362 31.1625 43.7103 31.0806 43.7521 31.0608C43.7974 31.0335 43.8488 31.0134 43.9032 30.9976C44.0129 30.9685 44.1474 30.9847 44.2471 31.0519C44.445 31.1909 44.5076 31.4083 44.5407 31.6005C44.5705 31.7977 44.5605 31.9975 44.5382 32.1875C44.5169 32.3718 44.5015 32.5598 44.4881 32.748C44.4443 33.5 44.4029 34.2872 44.5133 35.0496C44.5299 35.1423 44.5504 35.236 44.5824 35.3154C44.5986 35.3528 44.6177 35.3923 44.636 35.4089L44.6536 35.4229L44.6551 35.4232L44.6558 35.4243C44.6493 35.5087 44.6547 35.4423 44.6533 35.4588L44.6385 35.4279C44.6572 35.4128 44.7148 35.314 44.7425 35.2307C44.7742 35.1408 44.8029 35.0478 44.8271 34.9522C44.9253 34.5689 44.9911 34.1675 45.0526 33.7641C45.1721 32.9557 45.2635 32.1268 45.3394 31.2883V31.3059C45.335 31.0296 45.3304 30.74 45.5214 30.4536C45.6329 30.3124 45.834 30.2359 46.0233 30.3071C46.2104 30.3944 46.2794 30.5614 46.332 30.7001C46.4748 31.16 46.4701 31.6105 46.4712 32.0553C46.464 32.5001 46.4334 32.9388 46.3924 33.3732C46.3507 33.8075 46.2985 34.2369 46.2381 34.6619C46.2053 34.8739 46.1726 35.0855 46.1398 35.296C46.1132 35.4297 46.1197 35.434 46.1596 35.4735C46.2028 35.5062 46.2863 35.5012 46.3269 35.4671C46.373 35.4362 46.3784 35.3736 46.3881 35.2569L46.4158 34.945C46.4367 34.737 46.4572 34.5301 46.478 34.3242C46.5234 33.9121 46.5784 33.5047 46.6489 33.1033C46.722 32.7024 46.8054 32.3061 46.9375 31.9224C47.0047 31.7313 47.0821 31.5416 47.1994 31.3651C47.2591 31.2778 47.3285 31.1909 47.4303 31.1269C47.5343 31.0673 47.6484 31.0131 47.8045 31.0727C47.952 31.1535 47.9775 31.2901 48.0006 31.3896C48.016 31.4941 48.0229 31.5962 48.0196 31.6946C48.0164 31.8926 47.9952 32.0837 47.9711 32.2727C47.9211 32.6496 47.8538 33.0153 47.7901 33.376C47.6728 34.0917 47.5109 34.8042 47.5671 35.4584C47.576 35.5386 47.5973 35.6122 47.6246 35.6772C47.6412 35.7099 47.6595 35.7372 47.671 35.7491L47.6624 35.7649L47.6584 35.7631L47.6609 35.7394C47.7365 35.6463 47.7901 35.4663 47.8372 35.318C47.9304 35.0043 48.0056 34.6871 48.0862 34.3781C48.1671 34.0687 48.2488 33.7648 48.3557 33.472C48.4096 33.3257 48.4686 33.1817 48.5521 33.0455C48.5974 32.9787 48.642 32.9101 48.7158 32.8551C48.7485 32.8256 48.7971 32.8048 48.8442 32.7915C48.9004 32.7829 48.9457 32.7843 48.9824 32.7911C49.0673 32.7947 49.1817 32.8687 49.2098 32.9575C49.2446 33.0416 49.2522 33.1202 49.2558 33.1957C49.2634 33.3469 49.2464 33.4889 49.2324 33.6297C49.1986 33.9096 49.1464 34.1765 49.0953 34.4356C48.9907 34.9522 48.877 35.4401 48.7395 35.8849C48.4704 36.7763 48.2006 37.5301 47.9779 38.1451C47.7538 38.7599 47.5721 39.2338 47.4458 39.5542C47.385 39.7044 47.3364 39.8244 47.299 39.9175C47.2645 39.9987 47.2451 40.0396 47.2418 40.0386Z" fill="#F6865E"/>
<path d="M27.6038 50.1641C28.2873 52.5727 29.6225 56.2941 31.0582 60.2171C31.2659 60.7844 32.0557 60.8214 32.3142 60.2757L35.8341 52.8439C35.8341 52.8439 34.9866 46.7387 35.0584 46.9542C35.1302 47.1698 27.7963 47.7443 27.7963 47.7443L27.6038 50.1641Z" fill="#2553A7"/>
<path d="M35.5309 48.9661C35.5389 48.9959 35.0936 49.1246 34.397 49.3901C33.7002 49.6545 32.7579 50.0749 31.7857 50.6619C30.8146 51.2519 30.0055 51.8921 29.4489 52.3869C28.8911 52.8812 28.5707 53.2157 28.5481 53.1949C28.5387 53.1863 28.6092 53.0939 28.7454 52.9337C28.8801 52.7727 29.0891 52.5514 29.359 52.2898C29.8976 51.7656 30.7046 51.0995 31.6885 50.5021C32.6735 49.9071 33.6379 49.5004 34.3521 49.2658C34.7095 49.1476 35.0025 49.0646 35.208 49.02C35.413 48.9733 35.5277 48.9536 35.5309 48.9661Z" fill="#FCFDFD"/>
<path d="M36.9262 50.8194C36.9075 50.8327 36.6679 50.5506 36.339 50.052C36.0098 49.554 35.6024 48.8315 35.2516 47.9886C34.9022 47.1446 34.6786 46.3463 34.5585 45.7618C34.4375 45.1769 34.407 44.8082 34.4294 44.805C34.458 44.8 34.5346 45.1596 34.6872 45.7312C34.8393 46.3025 35.08 47.0839 35.4248 47.9171C35.771 48.7492 36.1545 49.471 36.452 49.9826C36.7492 50.4942 36.9496 50.8025 36.9262 50.8194Z" fill="#1D2A30"/>
<path d="M39.2741 17.9045C38.0429 19.892 37.7814 22.4627 38.5865 24.6622C38.9481 25.6488 39.5209 26.6242 39.4162 27.6715C39.3086 28.7444 38.4937 29.7579 38.7815 30.7959C38.9521 31.4095 39.4795 31.8647 39.6817 32.4687C39.9191 33.1768 39.6716 33.9439 39.5586 34.6829C39.2708 36.5645 39.8731 38.4565 40.0224 40.3545C40.1717 42.2526 39.6586 44.4741 37.9638 45.3018C37.4482 45.5533 36.7751 45.6259 36.3466 45.2422C35.8027 44.755 35.9542 43.8802 36.1031 43.1609C37.5925 35.9688 32.9913 28.9628 34.0421 21.6917C34.2104 20.5262 34.8623 18.5487 35.7026 17.7331C36.5427 16.9179 38.8664 17.0171 39.6615 17.8772" fill="#1D2A30"/>
<path d="M32.1876 38.7473C32.1725 38.7351 32.4036 38.4887 32.7277 37.9788C33.0502 37.4726 33.4556 36.6822 33.6676 35.6263C33.7703 35.0988 33.8158 34.5114 33.7783 33.8787C33.7507 33.2464 33.6615 32.5655 33.7042 31.8376C33.7191 31.4733 33.7971 31.1026 33.9107 30.7364C34.0381 30.3754 34.2038 30.0211 34.4047 29.6812C34.8073 29.0015 35.3173 28.3684 35.7837 27.6923C36.2502 27.0182 36.6373 26.3043 36.7629 25.5502C36.8888 24.7961 36.7528 24.0491 36.6373 23.3457C36.5125 22.6415 36.4269 21.9481 36.4783 21.3039C36.5193 20.66 36.6485 20.069 36.8233 19.5506C37.1766 18.5105 37.699 17.7736 38.0951 17.3148C38.2944 17.0841 38.4632 16.917 38.5848 16.8128C38.7049 16.7065 38.7697 16.6533 38.774 16.6584C38.788 16.6727 38.5315 16.8926 38.1512 17.3615C37.7764 17.8293 37.2799 18.5665 36.9493 19.5919C36.7856 20.1032 36.6672 20.6834 36.6334 21.3125C36.5898 21.9434 36.6783 22.6117 36.8075 23.3166C36.9266 24.0186 37.0734 24.7835 36.9439 25.5797C36.814 26.3755 36.4103 27.116 35.9383 27.7979C35.4654 28.4827 34.9579 29.1114 34.5627 29.7746C34.3656 30.1059 34.2047 30.4476 34.0801 30.7936C33.9705 31.1435 33.8932 31.4952 33.8764 31.8488C33.8299 32.5537 33.9118 33.2324 33.9337 33.8723C33.9648 34.5132 33.9107 35.1179 33.7974 35.6529C33.5644 36.7264 33.1334 37.5193 32.7886 38.0191C32.6158 38.2706 32.4654 38.4534 32.3593 38.5734C32.2512 38.692 32.1922 38.7517 32.1876 38.7473Z" fill="#365462"/>
<path d="M28.7751 39.2856C28.7695 39.2823 28.8081 39.1993 28.8868 39.0445C28.9752 38.8742 29.0913 38.65 29.2364 38.3701C29.5375 37.7841 29.9885 36.9413 30.4317 35.8526C30.8661 34.768 31.297 33.4092 31.3102 31.8599C31.3126 31.4744 31.2845 31.0796 31.2224 30.6811C31.1604 30.2823 31.0676 29.8749 31.0073 29.4495C30.9496 29.0259 30.9219 28.5743 31.0346 28.1284C31.1461 27.6808 31.4275 27.2831 31.7668 26.9748C32.445 26.3593 33.263 25.958 33.6858 25.2373C34.1187 24.5288 34.2143 23.6978 34.3237 22.9332C34.4172 22.1604 34.5656 21.4163 34.8189 20.7625C35.0637 20.1053 35.3906 19.5344 35.7317 19.0483C36.4186 18.0718 37.1823 17.4571 37.7317 17.0913C38.0084 16.9088 38.2325 16.7816 38.3901 16.7065C38.5462 16.6296 38.6293 16.5916 38.6322 16.5977C38.6419 16.6156 38.3099 16.7726 37.7731 17.1513C37.2417 17.5318 36.502 18.1537 35.8407 19.1238C35.512 19.6066 35.1979 20.1707 34.9646 20.8167C34.7225 21.4616 34.5844 22.1813 34.4947 22.9562C34.3886 23.7208 34.3006 24.5741 33.8423 25.3332C33.3841 26.1089 32.5372 26.5217 31.8942 27.112C31.5702 27.4077 31.3185 27.7666 31.2149 28.1748C31.1112 28.5826 31.1338 29.0112 31.1892 29.4244C31.2465 29.8397 31.3376 30.2464 31.3993 30.6542C31.4611 31.0623 31.4875 31.4672 31.4829 31.861C31.4593 33.444 31.0075 34.8157 30.5542 35.9029C30.0916 36.9937 29.6216 37.8287 29.3005 38.405C29.1426 38.6777 29.0161 38.8965 28.9198 39.0628C28.8304 39.2119 28.7808 39.2884 28.7751 39.2856Z" fill="#365462"/>
<path d="M147.809 140.806C147.806 140.805 147.827 140.753 147.872 140.655C147.922 140.547 147.99 140.404 148.076 140.221C148.249 139.837 148.474 139.256 148.675 138.483C149.071 136.938 149.209 134.577 148.624 131.773C148.352 130.369 147.913 128.863 147.378 127.266C146.85 125.667 146.238 123.97 145.737 122.135C145.242 120.305 144.852 118.318 144.927 116.235C145.003 114.149 145.622 112.066 146.302 109.993C146.981 107.916 147.683 105.886 147.893 103.844C148.131 101.806 147.694 99.8048 146.764 98.1654C145.864 96.5088 144.731 95.0914 143.883 93.6234C143.022 92.1607 142.483 90.6564 142.151 89.2574C141.508 86.4367 141.733 84.0593 142.042 82.4932C142.376 80.9181 142.748 80.104 142.748 80.104C142.752 80.1054 142.738 80.1593 142.707 80.2628C142.671 80.3759 142.624 80.5276 142.564 80.7209C142.439 81.1229 142.277 81.724 142.124 82.509C141.843 84.0719 141.643 86.4327 142.3 89.2225C142.639 90.6061 143.18 92.0907 144.037 93.5332C144.884 94.984 146.021 96.3949 146.94 98.0713C147.889 99.729 148.346 101.795 148.104 103.865C147.892 105.942 147.184 107.985 146.507 110.059C145.827 112.131 145.216 114.192 145.138 116.243C145.061 118.294 145.442 120.262 145.929 122.083C146.421 123.909 147.027 125.607 147.548 127.21C148.076 128.812 148.51 130.33 148.773 131.744C149.344 134.569 149.181 136.954 148.756 138.504C148.541 139.28 148.302 139.86 148.115 140.239C148.021 140.419 147.947 140.559 147.892 140.665C147.84 140.76 147.812 140.809 147.809 140.806Z" fill="#1D2A30"/>
<path d="M145.035 95.072C145.035 95.072 143.313 89.5736 146.402 86.3541C146.51 86.2413 146.701 86.2944 146.729 86.4486C146.894 87.3565 147.1 90.1222 145.035 95.072Z" fill="#2553A7"/>
<path d="M146.066 88.1864C146.096 88.1918 146.046 88.5787 145.951 89.2007C145.837 89.8991 145.705 90.7193 145.558 91.6258C145.414 92.5319 145.283 93.3522 145.172 94.0506C145.078 94.6714 145.022 95.0569 144.99 95.0544C144.962 95.0523 144.965 94.661 145.021 94.0323C145.078 93.4039 145.189 92.5398 145.345 91.591C145.5 90.6424 145.666 89.7884 145.801 89.1726C145.935 88.5572 146.037 88.1803 146.066 88.1864Z" fill="#1D2A30"/>
<path d="M147.058 108.04C147.058 108.04 148.111 102.376 152.348 100.972C152.497 100.923 152.64 101.06 152.593 101.209C152.313 102.088 151.201 104.629 147.058 108.04Z" fill="#2553A7"/>
<path d="M151.194 102.435C151.217 102.454 150.992 102.773 150.616 103.278C150.189 103.842 149.687 104.506 149.133 105.238C148.582 105.972 148.082 106.635 147.657 107.201C147.283 107.706 147.053 108.02 147.026 108.003C147.002 107.989 147.188 107.644 147.532 107.114C147.876 106.586 148.379 105.873 148.961 105.108C149.543 104.342 150.089 103.664 150.497 103.183C150.904 102.702 151.171 102.416 151.194 102.435Z" fill="#1D2A30"/>
<path d="M145.912 122.249C145.912 122.249 145.273 116.524 148.919 113.952C149.047 113.862 149.224 113.951 149.223 114.107C149.211 115.03 148.885 117.784 145.912 122.249Z" fill="#2553A7"/>
<path d="M148.24 115.687C148.268 115.698 148.146 116.068 147.933 116.66C147.688 117.324 147.401 118.104 147.084 118.966C146.769 119.828 146.484 120.609 146.242 121.273C146.031 121.864 145.902 122.232 145.871 122.223C145.844 122.216 145.922 121.833 146.097 121.226C146.273 120.62 146.547 119.793 146.882 118.891C147.215 117.99 147.541 117.183 147.791 116.604C148.04 116.026 148.213 115.675 148.24 115.687Z" fill="#1D2A30"/>
<path d="M149.104 136.542C149.104 136.542 148.67 130.798 152.407 128.358C152.538 128.272 152.712 128.367 152.704 128.524C152.66 129.445 152.235 132.186 149.104 136.542Z" fill="#2553A7"/>
<path d="M151.666 130.067C151.694 130.079 151.558 130.445 151.324 131.029C151.056 131.684 150.741 132.453 150.393 133.303C150.048 134.153 149.735 134.923 149.469 135.578C149.237 136.162 149.095 136.524 149.064 136.515C149.038 136.506 149.129 136.126 149.326 135.526C149.523 134.927 149.827 134.11 150.193 133.221C150.559 132.332 150.914 131.537 151.184 130.968C151.454 130.399 151.639 130.055 151.666 130.067Z" fill="#1D2A30"/>
<path d="M142.561 90.2407C142.561 90.2407 137.447 87.5745 137.347 83.1169C137.344 82.9606 137.516 82.8632 137.645 82.9523C138.405 83.4769 140.511 85.2848 142.561 90.2407Z" fill="#2553A7"/>
<path d="M138.409 84.6478C138.433 84.6313 138.673 84.9395 139.046 85.4465C139.461 86.0199 139.949 86.6932 140.487 87.4373C141.028 88.1792 141.517 88.8507 141.934 89.4227C142.308 89.9278 142.54 90.2397 142.516 90.2601C142.495 90.2785 142.22 90 141.814 89.5168C141.409 89.0325 140.874 88.3437 140.312 87.563C139.749 86.7834 139.261 86.0626 138.92 85.5331C138.579 85.0028 138.384 84.6647 138.409 84.6478Z" fill="#1D2A30"/>
<path d="M148.051 102.049C148.051 102.049 142.785 99.6975 142.414 95.2542C142.401 95.0986 142.567 94.9909 142.702 95.0721C143.492 95.5499 145.704 97.2267 148.051 102.049Z" fill="#2553A7"/>
<path d="M143.567 96.7187C143.591 96.7004 143.848 96.9932 144.251 97.4768C144.701 98.024 145.229 98.6667 145.811 99.3763C146.396 100.084 146.925 100.725 147.376 101.27C147.78 101.752 148.031 102.049 148.008 102.071C147.988 102.091 147.697 101.829 147.262 101.372C146.828 100.913 146.253 100.258 145.644 99.5128C145.035 98.7687 144.504 98.0789 144.131 97.5705C143.759 97.0625 143.543 96.7363 143.567 96.7187Z" fill="#1D2A30"/>
<path d="M145.021 115.22C145.021 115.22 141.406 110.732 143.102 106.607C143.161 106.463 143.358 106.443 143.44 106.576C143.927 107.361 145.131 109.86 145.021 115.22Z" fill="#2553A7"/>
<path d="M143.46 108.435C143.489 108.43 143.586 108.808 143.724 109.422C143.874 110.113 144.051 110.925 144.246 111.822C144.444 112.718 144.623 113.529 144.775 114.22C144.915 114.832 145.003 115.211 144.973 115.221C144.947 115.229 144.805 114.864 144.627 114.258C144.45 113.653 144.237 112.808 144.035 111.868C143.832 110.928 143.674 110.072 143.574 109.45C143.474 108.828 143.431 108.44 143.46 108.435Z" fill="#1D2A30"/>
<path d="M148.603 130.72C148.603 130.72 143.377 128.28 143.08 123.832C143.07 123.676 143.239 123.571 143.371 123.654C144.154 124.145 146.337 125.859 148.603 130.72Z" fill="#2553A7"/>
<path d="M144.209 125.315C144.233 125.297 144.485 125.595 144.88 126.085C145.321 126.64 145.837 127.291 146.408 128.01C146.981 128.728 147.499 129.377 147.94 129.93C148.336 130.419 148.583 130.72 148.56 130.742C148.539 130.761 148.252 130.495 147.825 130.029C147.399 129.564 146.835 128.899 146.239 128.144C145.642 127.39 145.123 126.691 144.759 126.177C144.395 125.662 144.185 125.333 144.209 125.315Z" fill="#1D2A30"/>
<path d="M159.011 108.07C159.017 108.071 159.019 108.114 159.018 108.197C159.016 108.297 159.013 108.418 159.009 108.565C158.994 108.912 158.973 109.379 158.947 109.962C158.88 111.191 158.786 112.903 158.674 114.951L158.673 114.956L158.672 114.963C158.299 117.047 157.236 119.358 155.808 121.601C154.76 123.253 153.662 124.756 152.715 126.153C151.762 127.547 150.958 128.837 150.397 129.981C149.832 131.122 149.504 132.104 149.312 132.79C149.22 133.133 149.151 133.402 149.112 133.586C149.069 133.769 149.043 133.864 149.035 133.863C149.028 133.861 149.04 133.764 149.069 133.577C149.095 133.39 149.151 133.118 149.231 132.769C149.399 132.072 149.708 131.075 150.259 129.914C150.808 128.753 151.605 127.445 152.55 126.042C153.491 124.635 154.583 123.13 155.625 121.486C157.046 119.254 158.103 116.979 158.49 114.927L158.489 114.939C158.633 112.893 158.754 111.182 158.84 109.955C158.887 109.373 158.924 108.907 158.952 108.562C158.967 108.416 158.979 108.295 158.99 108.196C158.999 108.113 159.007 108.07 159.011 108.07Z" fill="#1D2A30"/>
<path d="M155.9 121.172C155.9 121.172 158.113 115.852 155.329 112.367C155.232 112.245 155.037 112.281 154.995 112.431C154.748 113.321 154.292 116.057 155.9 121.172Z" fill="#2553A7"/>
<path d="M155.497 114.222C155.527 114.219 155.594 114.603 155.673 115.228C155.751 115.853 155.838 116.719 155.908 117.678C155.977 118.637 156.009 119.508 156.009 120.138C156.007 120.77 155.974 121.159 155.946 121.159C155.915 121.159 155.894 120.77 155.856 120.143C155.809 119.437 155.753 118.609 155.692 117.694C155.628 116.778 155.57 115.949 155.52 115.242C155.482 114.615 155.468 114.225 155.497 114.222Z" fill="#1D2A30"/>
<path d="M155.9 121.172C154.991 118.28 154.742 116.148 154.741 114.681C154.741 113.553 154.888 112.818 154.995 112.431C155.02 112.343 155.098 112.294 155.177 112.294C155.233 112.294 155.289 112.317 155.329 112.367C156.403 113.712 156.733 115.329 156.734 116.809C156.735 118.709 156.192 120.383 155.982 120.959C155.997 120.784 156.008 120.501 156.009 120.138C156.009 119.508 155.977 118.637 155.907 117.678C155.838 116.719 155.751 115.853 155.673 115.228C155.594 114.606 155.527 114.222 155.497 114.222H155.497C155.467 114.225 155.481 114.615 155.52 115.242C155.57 115.949 155.628 116.778 155.692 117.694C155.753 118.609 155.809 119.437 155.856 120.143C155.886 120.634 155.905 120.978 155.927 121.105C155.91 121.149 155.9 121.172 155.9 121.172Z" fill="#6165D7"/>
<path d="M155.927 121.105C155.905 120.978 155.886 120.634 155.856 120.143C155.809 119.437 155.753 118.609 155.692 117.693C155.628 116.778 155.57 115.949 155.52 115.242C155.482 114.615 155.468 114.225 155.497 114.222H155.497C155.527 114.222 155.595 114.606 155.673 115.228C155.751 115.853 155.838 116.719 155.908 117.678C155.977 118.637 156.009 119.508 156.009 120.138C156.008 120.501 155.997 120.784 155.982 120.959C155.96 121.021 155.941 121.07 155.927 121.105Z" fill="#161C1E"/>
<path d="M149.045 133.993C149.045 133.993 150.819 128.511 147.761 125.263C147.654 125.149 147.463 125.2 147.433 125.354C147.26 126.26 147.027 129.024 149.045 133.993Z" fill="#2553A7"/>
<path d="M148.079 127.098C148.108 127.092 148.207 127.47 148.336 128.087C148.465 128.703 148.622 129.559 148.769 130.509C148.915 131.459 149.018 132.325 149.069 132.953C149.119 133.583 149.118 133.974 149.09 133.976C149.059 133.978 149.006 133.592 148.918 132.97C148.813 132.271 148.69 131.45 148.555 130.542C148.417 129.634 148.292 128.813 148.185 128.113C148.095 127.49 148.05 127.103 148.079 127.098Z" fill="#1D2A30"/>
<path d="M149.045 133.993C147.634 130.519 147.323 128.122 147.323 126.685C147.323 126.067 147.381 125.627 147.433 125.354C147.452 125.257 147.534 125.201 147.62 125.201C147.67 125.201 147.721 125.22 147.761 125.263C149.177 126.766 149.557 128.749 149.557 130.444C149.557 131.975 149.247 133.272 149.109 133.772C149.11 133.597 149.098 133.314 149.069 132.954C149.018 132.325 148.915 131.459 148.769 130.509C148.622 129.559 148.465 128.703 148.336 128.087C148.208 127.474 148.11 127.098 148.08 127.098C148.08 127.098 148.079 127.098 148.079 127.098C148.05 127.103 148.096 127.49 148.185 128.113C148.292 128.813 148.417 129.635 148.555 130.542C148.691 131.45 148.813 132.271 148.918 132.971C148.987 133.456 149.034 133.798 149.067 133.923C149.053 133.969 149.045 133.993 149.045 133.993Z" fill="#6165D7"/>
<path d="M149.066 133.923C149.034 133.798 148.987 133.456 148.917 132.97C148.813 132.271 148.69 131.45 148.555 130.542C148.417 129.634 148.292 128.813 148.185 128.113C148.095 127.49 148.05 127.103 148.079 127.098C148.079 127.098 148.08 127.098 148.08 127.098C148.11 127.098 148.208 127.474 148.336 128.087C148.465 128.703 148.622 129.559 148.769 130.509C148.915 131.459 149.018 132.325 149.069 132.953C149.098 133.314 149.11 133.597 149.109 133.772C149.092 133.836 149.077 133.886 149.066 133.923Z" fill="#161C1E"/>
<path d="M158.719 114.671C158.719 114.671 163.445 111.367 162.968 106.934C162.951 106.778 162.767 106.704 162.651 106.809C161.965 107.428 160.11 109.492 158.719 114.671Z" fill="#2553A7"/>
<path d="M158.719 114.671C160.11 109.492 161.965 107.428 162.651 106.809C162.688 106.775 162.733 106.76 162.776 106.76C162.868 106.76 162.956 106.828 162.968 106.934C162.991 107.146 163.001 107.356 163.001 107.562C163.003 111.675 158.719 114.671 158.719 114.671Z" fill="#6165D7"/>
<path d="M162.113 108.589C162.139 108.603 161.99 108.964 161.72 109.533C161.45 110.102 161.059 110.88 160.602 111.725C160.146 112.572 159.704 113.324 159.366 113.856C159.026 114.388 158.788 114.7 158.765 114.685C158.739 114.667 158.929 114.328 159.235 113.779C159.574 113.158 159.972 112.429 160.412 111.623C160.85 110.816 161.246 110.086 161.584 109.463C161.889 108.912 162.086 108.576 162.113 108.589Z" fill="#1D2A30"/>
<path d="M150.951 128.558C150.951 128.558 156.651 127.671 158.177 123.481C158.231 123.334 158.099 123.187 157.948 123.23C157.06 123.483 154.484 124.521 150.951 128.558Z" fill="#2553A7"/>
<path d="M150.951 128.558C154.484 124.521 157.06 123.483 157.948 123.23C157.966 123.224 157.984 123.222 158.001 123.222C158.106 123.222 158.19 123.31 158.19 123.413C158.19 123.435 158.186 123.458 158.177 123.481C156.842 127.148 152.308 128.285 151.198 128.512C151.085 128.535 151.008 128.549 150.972 128.555C150.958 128.557 150.951 128.558 150.951 128.558Z" fill="#6165D7"/>
<path d="M156.68 124.591C156.698 124.614 156.405 124.873 155.911 125.265C155.418 125.658 154.724 126.184 153.941 126.742C153.157 127.302 152.43 127.783 151.891 128.111C151.351 128.439 151.001 128.615 150.987 128.591C150.97 128.563 151.291 128.343 151.807 127.984C152.386 127.575 153.065 127.096 153.815 126.567C154.564 126.035 155.243 125.554 155.82 125.143C156.336 124.783 156.662 124.567 156.68 124.591Z" fill="#1D2A30"/>
<path d="M145.513 139.034L143.851 150.209H154.212L152.869 139.034H145.513Z" fill="#365462"/>
<path d="M153.283 142.496C153.283 142.556 151.412 142.604 149.105 142.604C146.797 142.604 144.927 142.556 144.927 142.496C144.927 142.437 146.797 142.388 149.105 142.388C151.412 142.388 153.283 142.437 153.283 142.496Z" fill="#1D2A30"/>
<path d="M153.489 143.386C153.489 143.445 151.557 143.493 149.174 143.493C146.79 143.493 144.858 143.445 144.858 143.386C144.858 143.326 146.79 143.278 149.174 143.278C151.557 143.278 153.489 143.326 153.489 143.386Z" fill="#1D2A30"/>
<path d="M113.197 30.6366C113.197 30.6366 113.101 30.6384 112.916 30.633C112.73 30.6251 112.454 30.6122 112.092 30.6373C111.374 30.6776 110.296 30.8127 109.026 31.3433C107.771 31.8729 106.302 32.8088 105.133 34.3735C104.553 35.1521 104.069 36.0887 103.774 37.1504C103.489 38.2135 103.393 39.3927 103.529 40.6067C103.682 41.8164 104.053 43.0685 104.732 44.2182C105.069 44.7912 105.468 45.3485 105.956 45.8396C106.428 46.3451 106.984 46.7924 107.611 47.1327C108.238 47.4711 108.955 47.6845 109.688 47.6551C110.416 47.6314 111.166 47.3752 111.699 46.8449C112.236 46.3186 112.5 45.5454 112.501 44.774C112.505 43.9965 112.235 43.2237 111.771 42.5727C110.837 41.2617 109.327 40.3796 107.72 39.9043C106.097 39.4322 104.315 39.42 102.61 39.8339C101.76 40.0548 100.93 40.3789 100.149 40.8108C99.3682 41.2451 98.6584 41.8117 98.036 42.466C97.8885 42.637 97.7205 42.7918 97.5892 42.9772L97.183 43.5248C96.9459 43.9135 96.7027 44.3015 96.5206 44.7237C96.1393 45.5569 95.8716 46.4504 95.7382 47.3712C95.4967 49.2115 95.7202 51.107 96.4649 52.7612C97.1841 54.4178 98.4105 55.8399 99.9384 56.6968C100.701 57.1225 101.544 57.397 102.399 57.4433C103.252 57.4962 104.102 57.2766 104.826 56.8613C105.549 56.447 106.152 55.8244 106.469 55.0742C106.783 54.3248 106.778 53.4693 106.506 52.7253C106.239 51.9729 105.738 51.3305 105.153 50.815C104.565 50.2997 103.879 49.9139 103.163 49.6602C101.712 49.187 100.166 49.2126 98.7836 49.5844C97.3974 49.9613 96.1616 50.6741 95.1913 51.5849C94.2224 52.5011 93.5425 53.6249 93.1316 54.7724C92.3016 57.0855 92.5128 59.4334 93.2259 61.2273C93.9598 63.0366 95.1255 64.325 96.19 65.1765C97.2643 66.0341 98.2421 66.4969 98.9135 66.7606C99.2516 66.8892 99.5125 66.9805 99.6913 67.0308C99.8686 67.0861 99.9582 67.1191 99.9582 67.1191C99.9582 67.1191 99.865 67.0983 99.6859 67.0491C99.5046 67.0049 99.2416 66.919 98.8994 66.7958C98.222 66.5425 97.2333 66.088 96.1443 65.2333C95.0654 64.3843 93.8807 63.093 93.1284 61.2664C92.3973 59.4539 92.1728 57.0783 93.0068 54.7279C93.4198 53.562 94.107 52.4163 95.092 51.48C96.0774 50.5505 97.3319 49.8219 98.7433 49.4346C100.151 49.053 101.725 49.0211 103.217 49.5047C103.954 49.7644 104.658 50.1589 105.264 50.6881C105.867 51.2177 106.387 51.8802 106.669 52.667C106.954 53.446 106.963 54.3499 106.631 55.1421C106.298 55.9344 105.666 56.5847 104.915 57.0161C104.164 57.4487 103.277 57.6787 102.389 57.6244C101.502 57.577 100.632 57.2932 99.8492 56.857C98.2813 55.9789 97.029 54.5263 96.294 52.8359C95.5342 51.1487 95.3064 49.2197 95.5529 47.3447C95.6885 46.4069 95.9612 45.4958 96.3508 44.6454C96.5368 44.2146 96.7851 43.8179 97.0276 43.4209L97.4431 42.8612C97.5776 42.6718 97.7489 42.5134 97.9 42.3388C98.5361 41.6698 99.2617 41.0924 100.058 40.6498C100.854 40.2097 101.7 39.8802 102.565 39.656C104.302 39.2357 106.115 39.2497 107.77 39.7329C109.409 40.2212 110.945 41.1154 111.913 42.4742C112.392 43.1479 112.676 43.9609 112.67 44.7744C112.668 45.5817 112.389 46.3997 111.815 46.962C111.245 47.5265 110.453 47.7916 109.694 47.815C108.926 47.8437 108.18 47.6191 107.538 47.2692C106.893 46.9175 106.327 46.459 105.848 45.9435C105.352 45.4419 104.947 44.8742 104.607 44.2904C103.92 43.1206 103.548 41.8491 103.397 40.6221C103.263 39.3905 103.366 38.1955 103.659 37.1188C103.962 36.0438 104.458 35.096 105.049 34.3106C106.24 32.7338 107.729 31.7996 108.998 31.2762C110.282 30.7516 111.369 30.628 112.091 30.6C112.454 30.5806 112.731 30.6 112.916 30.614C113.102 30.6259 113.197 30.6366 113.197 30.6366Z" fill="#1D2A30"/>
<path d="M74.7687 105.44H125.212V66.5867H74.7687V105.44Z" fill="#2553A7"/>
<path d="M74.7687 66.5867L84.0859 75.2651H133.674L125.212 66.5867H74.7687Z" fill="#2553A7"/>
<path d="M74.7687 66.5868C75.6789 66.585 96.5134 66.5473 125.212 66.4948H125.251L125.278 66.5228C127.98 69.2936 130.785 72.1689 133.654 75.1107L133.741 75.1998L133.896 75.3586H133.674C113.34 75.3432 95.2934 75.3299 84.0859 75.3216H84.0636L84.0474 75.3062C78.2174 69.8275 75.0748 66.8742 74.7687 66.5868C75.077 66.871 78.2458 69.797 84.1244 75.2239L84.0859 75.2088C95.2934 75.2006 113.34 75.1869 133.674 75.1715L133.607 75.3303L133.519 75.2412C130.651 72.2986 127.848 69.4226 125.146 66.6508L125.212 66.6784C96.5134 66.6263 75.6782 66.5882 74.7687 66.5868Z" fill="#1D2A30"/>
<path d="M89.9199 84.5027C89.386 84.5038 88.8989 84.9823 88.8895 85.5155C88.8805 86.0483 89.3508 86.5437 89.8843 86.5631C90.4175 86.5822 90.9226 86.1223 90.9517 85.5899C90.9812 85.0578 90.5301 84.5447 89.9973 84.5056" fill="#1D2A30"/>
<path d="M101.83 84.5027C101.297 84.5038 100.809 84.9823 100.8 85.5155C100.791 86.0483 101.261 86.5437 101.795 86.5631C102.328 86.5822 102.833 86.1223 102.862 85.5899C102.892 85.0578 102.441 84.5447 101.908 84.5056" fill="#1D2A30"/>
<path d="M101.907 93.8031C101.853 93.8254 101.774 92.8309 100.908 91.5698C100.484 90.9443 99.8474 90.2814 99.0031 89.7439C98.1637 89.2064 97.0977 88.8191 95.9461 88.7775C94.793 88.7563 93.7076 89.0843 92.8399 89.5751C91.9671 90.0655 91.2954 90.6928 90.8367 91.2942C89.9042 92.5057 89.77 93.4945 89.7175 93.4693C89.711 93.4679 89.7214 93.4097 89.7466 93.2994C89.7772 93.1909 89.8006 93.0231 89.8786 92.8223C90.0089 92.4123 90.2733 91.8378 90.7309 91.2141C91.186 90.59 91.8638 89.9369 92.7546 89.4252C93.6404 88.9129 94.7585 88.568 95.9511 88.5906C97.1431 88.6337 98.24 89.039 99.0959 89.5988C99.9579 90.1585 100.598 90.8476 101.018 91.4958C101.441 92.1432 101.674 92.7317 101.781 93.1481C101.848 93.3533 101.862 93.5218 101.887 93.6317C101.906 93.7431 101.913 93.8024 101.907 93.8031Z" fill="#1D2A30"/>
<path d="M125.212 78.3093H115.322C115.31 76.7899 115.295 75.7444 115.28 75.3449C118.486 75.3471 121.804 75.3496 125.212 75.3521V78.3093Z" fill="#000152"/>
<path d="M125.212 75.3521C121.804 75.3495 118.486 75.347 115.28 75.3449C115.279 75.3143 115.277 75.2877 115.276 75.2651H125.212V75.3521Z" fill="#151717"/>
<path d="M115.208 78.3093H83.8039L74.8831 67.0139L82.2979 73.662C82.8516 74.1823 83.4344 74.7302 84.0474 75.3061L84.0636 75.3215H84.0859C91.7569 75.3273 102.631 75.3352 115.25 75.3449C115.235 75.7444 115.22 76.7899 115.208 78.3093Z" fill="#000152"/>
<path d="M115.251 75.345C102.631 75.3353 91.757 75.3274 84.086 75.3216H84.0637L84.0475 75.3062C83.4345 74.7302 82.8517 74.1823 82.298 73.6621L84.086 75.2652H115.254C115.253 75.2878 115.252 75.3144 115.251 75.345Z" fill="#151717"/>
<path d="M115.265 105.351C115.213 105.351 115.171 98.593 115.171 90.2584C115.171 81.9209 115.213 75.1643 115.265 75.1643C115.317 75.1643 115.359 81.9209 115.359 90.2584C115.359 98.593 115.317 105.351 115.265 105.351Z" fill="#1D2A30"/>
<path d="M123.186 101.563H118.739V96.5432H123.186V101.563Z" fill="#F8F8F9"/>
<path d="M74.7687 66.5867L64.4128 75.2651H74.7687V66.5867Z" fill="#2553A7"/>
<path d="M74.7687 75.2651H64.4128L74.7687 66.5867V75.2651Z" fill="#000152"/>
<path d="M68.703 150.113H126.701V105.44H68.703V150.113Z" fill="#2553A7"/>
<path d="M126.701 150.113H68.703V105.44H126.701V114.108V121.873V150.113Z" fill="#6165D7"/>
<path d="M112.169 149.797C112.118 149.797 112.076 139.839 112.076 127.559C112.076 115.275 112.118 105.319 112.169 105.319C112.222 105.319 112.263 115.275 112.263 127.559C112.263 139.839 112.222 149.797 112.169 149.797Z" fill="#1D2A30"/>
<path d="M121.783 144.964H117.337V139.944H121.783V144.964Z" fill="#F8F8F9"/>
<path d="M86.3967 105.555V115.087H92.9841V105.555H86.3967Z" fill="#1D2A30"/>
<path d="M86.3967 140.448V149.979H92.9841V140.448H86.3967Z" fill="#1D2A30"/>
<path d="M126.195 105.44C126.195 105.443 126.145 105.447 126.047 105.449C125.94 105.452 125.795 105.455 125.611 105.459C125.218 105.464 124.656 105.469 123.936 105.477C122.471 105.484 120.369 105.494 117.775 105.506C112.565 105.513 105.383 105.523 97.4502 105.533C89.5152 105.523 82.3324 105.513 77.1219 105.506C74.5284 105.494 72.4262 105.484 70.962 105.477C70.2424 105.469 69.6798 105.464 69.2869 105.459C69.1027 105.455 68.9584 105.452 68.8516 105.449C68.7534 105.447 68.703 105.443 68.703 105.44C68.703 105.437 68.7534 105.434 68.8516 105.431C68.9584 105.428 69.1027 105.425 69.2869 105.421C69.6798 105.418 70.2424 105.411 70.962 105.404C72.4262 105.397 74.5284 105.387 77.1219 105.374C82.3324 105.367 89.5152 105.357 97.4502 105.346C105.383 105.357 112.565 105.367 117.775 105.374C120.369 105.387 122.471 105.397 123.936 105.404C124.656 105.411 125.218 105.418 125.611 105.421C125.795 105.425 125.94 105.428 126.047 105.431C126.145 105.434 126.195 105.437 126.195 105.44Z" fill="#1D2A30"/>
<path d="M26.7992 28.0953C26.382 27.9929 24.372 27.4996 20.4837 26.5454L20.5304 26.5382C19.1415 27.4227 17.2602 28.1366 15.0789 28.1704C13.9939 28.1665 12.8461 28.0364 11.7007 27.6778C10.5565 27.3218 9.43114 26.7315 8.40861 25.935C6.36257 24.3545 4.76959 21.8215 4.42558 18.9063C4.25005 17.4581 4.36752 15.9354 4.81877 14.4775C5.27849 13.0238 6.07138 11.646 7.13917 10.4862C7.68033 9.87329 8.31795 9.36454 8.96819 8.8946C9.30972 8.68406 9.64628 8.46526 9.99817 8.28023L10.5354 8.02227L10.8029 7.89364L11.0811 7.79196C12.5527 7.22214 14.1188 7.00154 15.6218 7.10142C17.1266 7.19807 18.5678 7.61843 19.8284 8.28095C21.0913 8.94202 22.1735 9.83951 23.0236 10.8584C23.8755 11.8781 24.495 13.0174 24.8891 14.1678C25.2827 15.3196 25.462 16.4783 25.4724 17.573C25.4853 19.7722 24.7971 21.6588 23.9596 23.0363L23.9601 22.9792C25.7162 26.1433 26.6034 27.7421 26.7992 28.0953C26.5967 27.7461 25.6787 26.1649 23.8615 23.0348L23.8452 23.0068L23.8622 22.9777C24.6788 21.6074 25.3442 19.7413 25.3195 17.5738C25.3033 16.4948 25.1211 15.3552 24.729 14.2235C24.3368 13.0932 23.7236 11.9751 22.8831 10.9763C22.0446 9.97712 20.979 9.09903 19.7379 8.45304C18.4991 7.80598 17.0848 7.39604 15.6085 7.3037C14.1336 7.20778 12.5988 7.42622 11.1567 7.98562L10.8841 8.08514L10.6217 8.21161L10.0954 8.4649C9.75069 8.64634 9.42085 8.86118 9.08612 9.06741C8.44908 9.52873 7.82399 10.0271 7.29358 10.6281C6.24662 11.7649 5.46905 13.1151 5.01751 14.5396C4.57428 15.9678 4.45721 17.4613 4.62752 18.8819C4.96059 21.7411 6.51713 24.2302 8.52273 25.7898C9.52515 26.5752 10.629 27.1598 11.753 27.5144C12.8783 27.8715 14.0074 28.0044 15.0765 28.0141C17.2257 27.9918 19.086 27.3006 20.4667 26.4376L20.4889 26.4236L20.5133 26.43C24.3834 27.4554 26.3843 27.9854 26.7992 28.0953Z" fill="#1D2A30"/>
<path d="M14.0429 12.9452L14.3771 18.2133C14.4043 18.6441 14.7489 18.9868 15.1803 19.0124C15.6356 19.0397 16.032 18.7055 16.082 18.2532L16.6678 12.9585C16.712 12.5575 16.3946 12.2083 15.9907 12.214L14.7039 12.232C14.3198 12.2374 14.0187 12.5625 14.0429 12.9452Z" fill="#2553A7"/>
<path d="M16.5787 21.9757C16.3546 22.6497 15.6259 23.0144 14.9512 22.791C14.2762 22.5671 13.9107 21.8396 14.1348 21.1656C14.3588 20.4916 15.0876 20.1265 15.7623 20.3503C16.4373 20.5738 16.8027 21.3017 16.5787 21.9757Z" fill="#2553A7"/>
</g>
<defs>
<clipPath id="clip0">
<rect width="163" height="153" fill="white"/>
</clipPath>
</defs>
</svg>
