<svg width="228" height="254" viewBox="0 0 228 254" fill="none" xmlns="http://www.w3.org/2000/svg">
<g clip-path="url(#clip0)">
<path d="M193.271 144.596L152.233 129.082C149.397 128.009 147.968 124.842 149.04 122.008L170.522 65.2279C171.595 62.3928 174.763 60.964 177.599 62.0357L203.626 71.875L215.919 100.248L200.348 141.404C199.276 144.239 196.107 145.668 193.271 144.596Z" fill="#F3F2F1"/>
<path d="M203.626 71.875L197.58 87.8554C196.582 90.4914 197.911 93.4376 200.549 94.4349L215.919 100.248L203.626 71.875Z" fill="#E7E8E5"/>
<path d="M197.258 89.3373C197.258 89.3373 195.589 93.1364 199.521 96.0792C199.669 96.1897 199.825 96.2896 199.984 96.3838C201.855 97.5012 214.179 104.846 214.294 104.543C214.418 104.214 215.918 100.248 215.918 100.248L200.547 94.4371C200.547 94.4371 196.759 92.8549 197.258 89.3373Z" fill="#DADBD8"/>
<path d="M194.386 85.9019C194.308 86.1072 189.995 84.6671 184.752 82.6855C179.508 80.7028 175.322 78.9298 175.399 78.7245C175.477 78.5192 179.79 79.9593 185.033 81.9415C190.276 83.9231 194.463 85.6966 194.386 85.9019Z" fill="#DADBD8"/>
<path d="M203.229 99.5731C203.151 99.7779 196.093 97.2999 187.465 94.0384C178.834 90.7757 171.903 87.9649 171.981 87.7596C172.058 87.5543 179.116 90.0323 187.746 93.2949C196.374 96.5564 203.306 99.3672 203.229 99.5731Z" fill="#DADBD8"/>
<path d="M203.187 108.181C203.11 108.387 195.421 105.67 186.017 102.115C176.609 98.5588 169.048 95.51 169.126 95.3046C169.203 95.0993 176.89 97.8148 186.298 101.372C195.703 104.927 203.265 107.976 203.187 108.181Z" fill="#DADBD8"/>
<path d="M200.494 115.3C200.416 115.505 192.728 112.789 183.323 109.234C173.915 105.677 166.354 102.628 166.432 102.423C166.51 102.217 174.196 104.933 183.604 108.49C193.009 112.045 200.572 115.094 200.494 115.3Z" fill="#DADBD8"/>
<path d="M197.801 122.418C197.723 122.623 190.035 119.907 180.63 116.352C171.222 112.795 163.661 109.746 163.739 109.541C163.817 109.336 171.504 112.052 180.912 115.608C190.316 119.164 197.879 122.212 197.801 122.418Z" fill="#DADBD8"/>
<path d="M195.109 129.536C195.031 129.741 187.343 127.025 177.938 123.47C168.53 119.913 160.97 116.864 161.047 116.659C161.125 116.454 168.812 119.17 178.22 122.726C187.624 126.282 195.187 129.33 195.109 129.536Z" fill="#DADBD8"/>
<path d="M85.9486 169.909L31.848 188.846C29.9761 189.501 27.9279 188.516 27.2724 186.645L0.12841 109.16C-0.526709 107.289 0.459051 105.241 2.33072 104.586L56.4311 85.6488C58.3029 84.9933 60.3513 85.9788 61.007 87.8498L88.1505 165.335C88.8062 167.206 87.8203 169.253 85.9486 169.909Z" fill="#E7E8E5"/>
<path d="M84.0311 167.268L31.6956 185.587L4.79102 108.784L57.1258 90.4654L84.0311 167.268Z" fill="#DADBD8"/>
<path d="M82.5819 165.438L30.2469 183.757L3.85547 108.421L56.1907 90.1022L82.5819 165.438Z" fill="#FAFAF9"/>
<path d="M82.5811 165.438C82.3599 164.808 71.733 134.564 56.1194 90.1267L56.2147 90.1724C40.3423 95.7309 22.5842 101.949 3.88799 108.497L3.88203 108.499L3.93252 108.394C13.797 136.692 22.9786 162.825 30.3085 183.735L30.2238 183.695C62.0569 172.594 82.0676 165.617 82.5811 165.438C82.0687 165.618 62.0739 172.643 30.2677 183.82L30.2051 183.842L30.1831 183.779C22.8538 162.87 13.6927 136.736 3.77711 108.448L3.75 108.371L3.82781 108.343L3.83376 108.341C22.5315 101.799 40.2913 95.5854 56.1651 90.0309L56.2362 90.006L56.261 90.0771C71.7911 134.544 82.361 164.808 82.5811 165.438Z" fill="#DADBD8"/>
<path d="M64.0176 171.936C64.0176 171.936 75.6726 162.111 77.6923 151.877C77.6923 151.877 74.4571 156.948 67.729 157.874C67.729 157.874 67.4954 168.618 64.0176 171.936Z" fill="#DADBD8"/>
<path d="M23.9854 131.603L21.2295 132.567C20.2239 132.919 19.1233 132.39 18.7711 131.385L17.8063 128.63C17.454 127.625 17.9837 126.524 18.9893 126.172L21.7454 125.208C22.7507 124.856 23.8516 125.385 24.2036 126.39L25.1686 129.145C25.5206 130.151 24.9912 131.251 23.9854 131.603Z" fill="#E7E8E5"/>
<path d="M21.4077 129.95L21.4027 129.952L21.2761 129.938L20.0141 129.206C19.9388 129.163 19.9132 129.066 19.9569 128.99C20.0007 128.916 20.0975 128.889 20.1729 128.933L21.2856 129.578L22.6186 126.728C22.6556 126.649 22.7497 126.615 22.8284 126.652C22.9073 126.689 22.9415 126.783 22.9047 126.862L21.4985 129.868L21.4077 129.95Z" fill="white"/>
<path d="M57.5483 113.548C57.5636 113.592 50.7664 116.009 42.3695 118.949C33.9692 121.889 27.1496 124.237 27.1348 124.194C27.1196 124.152 33.915 121.734 42.3149 118.793C50.7122 115.854 57.5337 113.506 57.5483 113.548Z" fill="#DADBD8"/>
<path d="M41.5877 124.386C41.5915 124.396 41.4158 124.47 41.0949 124.593C40.7466 124.721 40.2866 124.892 39.7304 125.098C38.5758 125.518 36.9772 126.087 35.2083 126.706C33.4387 127.326 31.8338 127.878 30.6692 128.269C30.106 128.456 29.6404 128.609 29.2877 128.726C28.9604 128.83 28.7774 128.883 28.7735 128.871C28.77 128.861 28.9454 128.788 29.2666 128.665C29.6149 128.536 30.0747 128.366 30.6311 128.16C31.7854 127.74 33.3842 127.171 35.1539 126.551C36.9228 125.932 38.5275 125.38 39.692 124.988C40.2553 124.803 40.7208 124.649 41.074 124.532C41.4012 124.428 41.5842 124.376 41.5877 124.386Z" fill="#DADBD8"/>
<path d="M58.2751 115.621C58.2897 115.664 51.4932 118.082 43.0959 121.022C34.696 123.962 27.8764 126.31 27.8614 126.267C27.8463 126.225 34.6413 123.806 43.0417 120.866C51.439 117.927 58.2598 115.579 58.2751 115.621Z" fill="#DADBD8"/>
<path d="M27.9172 142.828L25.1611 143.792C24.1557 144.144 23.0549 143.615 22.7028 142.61L21.7378 139.855C21.3858 138.849 21.9152 137.75 22.9211 137.398L25.6769 136.433C26.6827 136.081 27.7831 136.61 28.1354 137.615L29.1002 140.37C29.4524 141.375 28.9227 142.476 27.9172 142.828Z" fill="#E7E8E5"/>
<path d="M25.3412 141.175L25.3363 141.177L25.2098 141.163L23.9479 140.432C23.8725 140.388 23.8467 140.291 23.8905 140.216C23.9344 140.14 24.0307 140.114 24.1063 140.158L25.2193 140.803L26.5522 137.953C26.5892 137.874 26.6834 137.84 26.7621 137.877C26.841 137.914 26.8752 138.009 26.8384 138.087L25.4322 141.093L25.3412 141.175Z" fill="white"/>
<path d="M61.4818 124.773C61.497 124.816 54.7003 127.235 46.303 130.174C37.9029 133.114 31.0832 135.462 31.0684 135.419C31.0534 135.376 37.8484 132.959 46.2485 130.018C54.6458 127.079 61.4671 124.731 61.4818 124.773Z" fill="#DADBD8"/>
<path d="M45.5194 135.611C45.5231 135.622 45.3474 135.695 45.0262 135.818C44.678 135.946 44.2182 136.116 43.6618 136.322C42.5074 136.743 40.9087 137.312 39.1399 137.931C37.3703 138.551 35.7653 139.103 34.6008 139.495C34.0378 139.68 33.5721 139.834 33.2194 139.951C32.892 140.055 32.7091 140.107 32.7051 140.097C32.7016 140.085 32.8771 140.013 33.1982 139.89C33.5463 139.761 34.0063 139.591 34.5625 139.385C35.7171 138.965 37.3156 138.395 39.0855 137.776C40.8544 137.157 42.4591 136.604 43.6237 136.213C44.1868 136.027 44.6524 135.874 45.0051 135.757C45.3327 135.653 45.5156 135.6 45.5194 135.611Z" fill="#DADBD8"/>
<path d="M62.2067 126.846C62.2219 126.889 55.4251 129.307 47.0278 132.246C38.6279 135.187 31.8082 137.535 31.793 137.492C31.7782 137.449 38.5732 135.031 46.9735 132.091C55.3706 129.152 62.1915 126.803 62.2067 126.846Z" fill="#DADBD8"/>
<path d="M31.8488 154.052L29.0927 155.017C28.0874 155.369 26.9865 154.84 26.6345 153.834L25.6694 151.08C25.3174 150.074 25.8469 148.974 26.8527 148.622L29.6085 147.657C30.6139 147.306 31.7147 147.835 32.067 148.84L33.0318 151.595C33.3841 152.6 32.8543 153.7 31.8488 154.052Z" fill="#E7E8E5"/>
<path d="M29.2731 152.4L29.268 152.401L29.1415 152.387L27.8795 151.656C27.804 151.612 27.7783 151.516 27.8222 151.44C27.8661 151.365 27.9624 151.339 28.038 151.383L29.1508 152.027L30.4839 149.178C30.5207 149.099 30.6148 149.065 30.6936 149.102C30.7727 149.139 30.8068 149.233 30.7698 149.312L29.3639 152.318L29.2731 152.4Z" fill="white"/>
<path d="M65.4134 135.998C65.4286 136.041 58.6316 138.46 50.2348 141.399C41.8344 144.339 35.015 146.687 35 146.644C34.9851 146.601 41.7802 144.183 50.1806 141.243C58.5775 138.304 65.3987 135.955 65.4134 135.998Z" fill="#DADBD8"/>
<path d="M49.4528 146.836C49.4568 146.847 49.2809 146.92 48.9599 147.042C48.6116 147.171 48.1518 147.342 47.5954 147.548C46.441 147.967 44.8422 148.537 43.0733 149.156C41.3039 149.776 39.6988 150.328 38.5344 150.72C37.9713 150.905 37.5055 151.059 37.1528 151.176C36.8255 151.28 36.6425 151.332 36.6387 151.321C36.6352 151.311 36.8107 151.238 37.1316 151.115C37.4799 150.986 37.9397 150.816 38.4961 150.61C39.6507 150.19 41.2492 149.621 43.0191 149.001C44.788 148.381 46.3928 147.83 47.5571 147.438C48.1203 147.252 48.586 147.099 48.9387 146.982C49.2663 146.878 49.4493 146.826 49.4528 146.836Z" fill="#DADBD8"/>
<path d="M66.1401 138.071C66.1554 138.114 59.3589 140.532 50.9614 143.471C42.5613 146.412 35.7418 148.76 35.7266 148.717C35.7119 148.674 42.5071 146.256 50.9072 143.316C59.3042 140.377 66.1255 138.028 66.1401 138.071Z" fill="#DADBD8"/>
<path d="M35.7822 165.278L33.0264 166.242C32.021 166.594 30.9202 166.065 30.5679 165.059L29.6031 162.304C29.2509 161.299 29.7805 160.199 30.7862 159.847L33.5422 158.883C34.5478 158.531 35.6484 159.06 36.0004 160.065L36.9655 162.82C37.3175 163.825 36.788 164.925 35.7822 165.278Z" fill="#E7E8E5"/>
<path d="M33.2045 163.625L33.1995 163.627L33.0731 163.612L31.8112 162.881C31.7356 162.837 31.71 162.741 31.7538 162.666C31.7973 162.59 31.8943 162.565 31.9695 162.608L33.0824 163.253L34.4151 160.403C34.4522 160.324 34.5467 160.29 34.6252 160.327C34.7044 160.364 34.7385 160.458 34.7015 160.537L33.2954 163.543L33.2045 163.625Z" fill="white"/>
<path d="M69.3454 147.223C69.36 147.266 62.5636 149.684 54.1664 152.623C45.7661 155.564 38.9466 157.912 38.9317 157.869C38.9164 157.826 45.7118 155.408 54.1118 152.469C62.5089 149.529 69.3301 147.18 69.3454 147.223Z" fill="#DADBD8"/>
<path d="M53.3844 158.061C53.3883 158.072 53.2125 158.144 52.8915 158.267C52.5432 158.396 52.0834 158.566 51.5271 158.772C50.3727 159.192 48.7739 159.761 47.0049 160.381C45.2353 161 43.6303 161.552 42.4661 161.944C41.9029 162.129 41.4371 162.283 41.0844 162.4C40.757 162.505 40.5741 162.557 40.5704 162.546C40.5666 162.535 40.7423 162.462 41.0632 162.34C41.4115 162.211 41.8714 162.04 42.4277 161.834C43.5821 161.414 45.1809 160.845 46.9507 160.225C48.7197 159.606 50.3244 159.054 51.4887 158.663C52.0519 158.477 52.5177 158.323 52.8704 158.206C53.1979 158.103 53.3809 158.05 53.3844 158.061Z" fill="#DADBD8"/>
<path d="M70.0715 149.296C70.0868 149.339 63.2903 151.757 54.893 154.696C46.4929 157.637 39.6734 159.985 39.6582 159.942C39.6432 159.899 46.4384 157.481 54.8386 154.541C63.2356 151.602 70.0569 149.253 70.0715 149.296Z" fill="#DADBD8"/>
<path d="M9.7832 101.082L11.1649 105.025C11.9664 107.314 14.4718 108.519 16.7611 107.718L45.7084 97.5852C47.9976 96.7842 49.2036 94.2791 48.4017 91.9912L47.0231 88.055L9.7832 101.082Z" fill="#DADBD8"/>
<path d="M26.5879 89.4562C25.2667 89.9182 24.5681 91.369 25.0308 92.6895C25.4935 94.0106 26.9448 94.7084 28.2658 94.2458C29.5868 93.7833 30.2854 92.333 29.8227 91.0125C29.36 89.6914 27.9092 88.9937 26.5879 89.4562ZM28.7878 95.7361C26.645 96.4858 24.2908 95.3537 23.5402 93.2113C22.7899 91.0695 23.9229 88.7161 26.0659 87.9659C28.2089 87.2157 30.5627 88.3484 31.3133 90.4907C32.0636 92.6326 30.9308 94.9859 28.7878 95.7361Z" fill="#DADBD8"/>
<path d="M51.9251 105.966C51.9513 106.042 44.3187 108.781 34.8792 112.086C25.4362 115.391 17.7629 118.009 17.7364 117.933C17.7102 117.859 25.3412 115.12 34.7843 111.814C44.2235 108.51 51.8989 105.891 51.9251 105.966Z" fill="#DADBD8"/>
<path d="M42.1504 107.369C42.1764 107.444 38.8166 108.689 34.6466 110.148C30.4749 111.608 27.0733 112.731 27.047 112.656C27.0206 112.581 30.3799 111.338 34.5513 109.877C38.7216 108.417 42.1242 107.295 42.1504 107.369Z" fill="#DADBD8"/>
<path d="M192.54 221.67C194.567 220.625 196.953 220.489 199.203 220.862C200.412 221.061 201.672 221.423 202.495 222.33C203.317 223.238 203.473 224.835 202.529 225.615C201.966 226.079 201.183 226.15 200.453 226.141C198.692 226.121 196.738 225.81 195.33 226.87C194.527 227.474 193.993 228.479 193.033 228.776C192.094 229.067 191.034 228.513 190.536 227.666C190.038 226.819 190.021 225.76 190.254 224.805C190.254 224.805 190.498 222.723 192.54 221.67Z" fill="#FF7F00"/>
<path d="M187.897 212.71C189.136 214.48 191.545 213.894 192.661 212.814C193.779 211.734 194.25 210.169 194.68 208.676C195.662 205.266 196.652 201.688 195.921 198.215C195.704 197.177 195.315 196.141 194.585 195.371C193.855 194.601 192.733 194.142 191.707 194.414C190.492 194.735 189.737 195.924 189.192 197.055C187.588 200.379 186.739 204.065 186.727 207.756C186.721 209.479 186.924 211.287 187.897 212.71Z" fill="#FF7F00"/>
<path d="M184.493 215.249C185.839 213.653 186.094 211.324 185.495 209.324C184.896 207.325 183.544 205.624 181.985 204.235C180.157 202.606 178.008 201.339 175.699 200.528C174.79 200.208 173.831 199.956 172.872 200.047C171.913 200.138 170.947 200.629 170.5 201.482C169.838 202.743 170.473 204.273 171.159 205.521C172.367 207.72 173.748 209.823 175.287 211.806C176.524 213.401 177.942 214.974 179.828 215.694C181.714 216.415 183.673 216.331 184.673 215.023" fill="#FF7F00"/>
<path d="M187.814 239.4C187.837 239.402 187.875 239.115 187.926 238.596C187.983 238.012 188.054 237.276 188.139 236.402C188.242 235.479 188.376 234.38 188.633 233.184C188.889 231.99 189.289 230.697 189.804 229.386C190.336 228.081 190.985 226.897 191.744 225.949C192.497 224.997 193.373 224.308 194.197 223.91C195.018 223.505 195.754 223.34 196.263 223.267C196.776 223.215 197.063 223.174 197.064 223.151C197.064 223.128 196.776 223.124 196.248 223.139C195.726 223.173 194.96 223.306 194.095 223.699C193.227 224.084 192.297 224.784 191.507 225.755C190.71 226.723 190.038 227.934 189.495 229.261C188.972 230.596 188.578 231.903 188.334 233.122C188.09 234.339 187.979 235.45 187.905 236.381C187.836 237.313 187.809 238.067 187.797 238.589C187.785 239.11 187.791 239.399 187.814 239.4Z" fill="#17282F"/>
<path d="M187.965 237.713C187.976 237.712 187.983 237.583 187.986 237.339C187.986 237.058 187.985 236.706 187.983 236.272C187.981 235.346 187.981 234.007 188.031 232.353C188.113 229.043 188.398 225.483 188.948 220.463C189.47 215.741 190.17 210.247 190.908 206.675C191.066 205.863 191.225 205.132 191.376 204.492C191.519 203.85 191.641 203.297 191.759 202.85C191.86 202.428 191.943 202.085 192.009 201.813C192.062 201.574 192.085 201.448 192.074 201.445C192.063 201.442 192.018 201.562 191.944 201.794C191.863 202.063 191.76 202.401 191.635 202.816C191.497 203.26 191.356 203.81 191.195 204.449C191.028 205.086 190.852 205.816 190.678 206.626C189.947 209.863 189.174 214.387 188.618 219.419C188.066 224.45 187.819 229.031 187.797 232.348C187.777 234.006 187.812 235.349 187.854 236.276C187.881 236.709 187.902 237.062 187.92 237.341C187.938 237.585 187.953 237.713 187.965 237.713Z" fill="#17282F"/>
<path d="M187.987 228.877C188.01 228.877 188.006 228.48 187.979 227.763C187.939 227.046 187.84 226.011 187.638 224.743C187.425 223.479 187.125 221.976 186.655 220.345C186.452 219.598 185.974 217.811 184.816 215.14C183.289 211.52 181.216 208.561 179.412 206.728C178.989 206.242 178.518 205.891 178.141 205.547C177.945 205.382 177.773 205.218 177.597 205.088C177.421 204.966 177.256 204.853 177.104 204.748C176.51 204.342 176.177 204.128 176.166 204.147C176.112 204.22 177.495 205.033 179.242 206.891C180.981 208.744 182.997 211.682 184.511 215.271C185.355 217.218 185.944 218.955 186.361 220.429C186.844 222.045 187.165 223.532 187.407 224.784C187.637 226.039 187.77 227.064 187.851 227.774C187.917 228.484 187.965 228.879 187.987 228.877Z" fill="#17282F"/>
<path d="M179.443 244.462L180.329 256.59H195.917L196.802 244.462H179.443Z" fill="#17282F"/>
<path d="M177.938 239.682V244.462H198.662V239.682H177.938Z" fill="#17282F"/>
<path d="M196.514 248.426C196.517 248.429 196.492 248.467 196.441 248.537C196.379 248.62 196.302 248.721 196.208 248.846C195.987 249.13 195.683 249.518 195.3 250.008L195.26 250.059L195.22 250.006C194.65 249.217 193.887 248.162 192.99 246.921H193.118C192.455 247.861 191.715 248.907 190.921 250.03L190.853 250.127L190.776 250.036C189.965 249.072 189.085 248.025 188.171 246.938L188.321 246.936C188.276 246.993 188.227 247.054 188.178 247.116C187.37 248.128 186.588 249.108 185.849 250.034L185.771 250.132L185.699 250.031C184.909 248.912 184.17 247.868 183.502 246.923L183.629 246.929C182.547 248.162 181.628 249.209 180.923 250.011L180.875 250.066L180.839 250.004C180.482 249.405 180.197 248.927 179.991 248.581C179.903 248.427 179.831 248.302 179.774 248.202C179.726 248.115 179.703 248.07 179.708 248.067C179.712 248.065 179.743 248.105 179.798 248.187C179.861 248.283 179.941 248.404 180.039 248.551C180.256 248.892 180.554 249.361 180.928 249.949L180.844 249.942C181.537 249.13 182.441 248.071 183.506 246.822L183.574 246.744L183.635 246.829C184.308 247.769 185.054 248.809 185.852 249.922L185.702 249.918C186.44 248.991 187.22 248.009 188.026 246.996C188.075 246.934 188.124 246.872 188.169 246.815L188.243 246.722L188.32 246.813C189.231 247.902 190.109 248.951 190.917 249.917L190.771 249.923C191.573 248.806 192.32 247.764 192.99 246.83L193.054 246.74L193.118 246.83C193.997 248.084 194.743 249.15 195.302 249.947L195.222 249.945C195.62 249.468 195.937 249.09 196.167 248.813C196.27 248.695 196.353 248.598 196.42 248.521C196.479 248.455 196.51 248.423 196.514 248.426Z" fill="#DADBD8"/>
<path d="M197.02 244.382C197.02 244.436 193.114 244.479 188.297 244.479C183.479 244.479 179.574 244.436 179.574 244.382C179.574 244.329 183.479 244.285 188.297 244.285C193.114 244.285 197.02 244.329 197.02 244.382Z" fill="#33535F"/>
<path d="M44.0427 218.888C44 218.941 43.6442 218.727 43.2481 218.41C42.8517 218.093 42.565 217.793 42.6077 217.739C42.6503 217.687 43.006 217.9 43.4024 218.217C43.7985 218.534 44.0853 218.834 44.0427 218.888Z" fill="#17282F"/>
<path d="M54.8523 202.737C54.9176 201.227 54.9603 199.68 54.4836 198.246C54.007 196.813 52.9016 195.495 51.4218 195.189C49.7331 194.839 48.0027 195.904 47.0564 197.346C46.1103 198.787 45.7849 200.537 45.5052 202.238C43.5791 213.96 42.8682 225.88 43.3869 237.748L50.2974 238.717C53.3325 226.321 54.3006 215.486 54.8523 202.737Z" fill="#33535F"/>
<path d="M50.4616 195.135C50.4653 195.137 50.4548 195.175 50.4301 195.246C50.3997 195.33 50.3617 195.433 50.3161 195.559C50.2035 195.851 50.0496 196.249 49.8556 196.752C49.7593 197.012 49.6312 197.293 49.5281 197.615C49.4247 197.938 49.3125 198.287 49.1928 198.661C49.0716 199.037 48.9422 199.439 48.8053 199.863C48.6926 200.296 48.5736 200.753 48.4489 201.232C47.9271 203.147 47.4949 205.474 47.1137 208.068C46.7401 210.666 46.4948 213.543 46.3019 216.566C45.9485 222.619 45.8932 228.112 45.7376 232.085C45.6637 234.072 45.5956 235.679 45.5196 236.789C45.4832 237.327 45.4543 237.753 45.4329 238.066C45.4215 238.199 45.412 238.308 45.4041 238.398C45.3963 238.472 45.3904 238.511 45.386 238.51C45.3818 238.51 45.3794 238.471 45.3789 238.396C45.38 238.306 45.3816 238.197 45.3834 238.063C45.393 237.75 45.4065 237.323 45.4237 236.784C45.47 235.674 45.5116 234.066 45.563 232.08C45.6741 228.108 45.7014 222.614 46.0554 216.552C46.2486 213.524 46.5014 210.64 46.8886 208.036C47.2832 205.436 47.7349 203.103 48.2798 201.188C48.4109 200.708 48.5364 200.251 48.655 199.818C48.7985 199.394 48.9342 198.993 49.0619 198.618C49.1888 198.246 49.3077 197.897 49.4177 197.575C49.5276 197.255 49.6626 196.975 49.7662 196.717C49.9789 196.22 50.1469 195.827 50.2703 195.539C50.3254 195.417 50.3704 195.317 50.4074 195.236C50.4393 195.168 50.4574 195.133 50.4616 195.135Z" fill="#17282F"/>
<path d="M51.1031 195.139C51.1031 195.139 51.5268 195.575 51.9473 196.569C52.3821 197.555 52.655 199.123 52.5774 201.037C52.394 204.854 52.0521 210.114 51.5973 215.921C51.1406 221.729 50.634 226.979 50.2262 230.774C50.0223 232.671 49.8458 234.206 49.7158 235.266C49.6499 235.778 49.5976 236.185 49.559 236.485C49.5403 236.612 49.5249 236.715 49.5121 236.8C49.5001 236.872 49.492 236.908 49.4878 236.908C49.4834 236.907 49.4834 236.87 49.4869 236.798C49.4931 236.711 49.5006 236.607 49.5096 236.479C49.537 236.178 49.5736 235.77 49.6201 235.255C49.7246 234.17 49.8716 232.639 50.0528 230.757C50.4158 226.958 50.8944 221.707 51.3513 215.901C51.8056 210.098 52.1751 204.836 52.403 201.031C52.5013 199.131 52.2593 197.588 51.8583 196.604C51.4715 195.614 51.0727 195.157 51.1031 195.139Z" fill="#17282F"/>
<path d="M55.8939 213.017C55.8714 213.081 55.2847 212.93 54.5844 212.678C53.8841 212.427 53.335 212.171 53.3581 212.108C53.3809 212.043 53.9672 212.195 54.6677 212.447C55.3681 212.697 55.9171 212.953 55.8939 213.017Z" fill="#17282F"/>
<path d="M56.7261 205.977C56.7543 206.039 56.1962 206.35 55.4806 206.669C54.7645 206.99 54.1616 207.199 54.1338 207.137C54.1058 207.075 54.6635 206.765 55.3797 206.444C56.0952 206.125 56.6984 205.915 56.7261 205.977Z" fill="#17282F"/>
<path d="M56.2956 200.231C56.2905 200.299 55.8295 200.323 55.2655 200.284C54.7011 200.245 54.2474 200.158 54.252 200.09C54.2568 200.022 54.718 199.999 55.2823 200.038C55.8464 200.077 56.3001 200.163 56.2956 200.231Z" fill="#17282F"/>
<path d="M49.1636 196.55C49.1061 196.586 48.8035 196.209 48.488 195.708C48.1726 195.207 47.9634 194.771 48.0214 194.735C48.0789 194.699 48.3816 195.075 48.697 195.576C49.0124 196.078 49.2216 196.514 49.1636 196.55Z" fill="#17282F"/>
<path d="M46.8074 200.024C46.8059 200.092 46.3664 200.138 45.8261 200.127C45.2852 200.115 44.8483 200.051 44.8496 199.982C44.8511 199.914 45.2905 199.868 45.8314 199.88C46.3717 199.891 46.809 199.956 46.8074 200.024Z" fill="#17282F"/>
<path d="M45.1148 206.976C45.0892 207.039 44.6268 206.912 44.0821 206.692C43.5372 206.473 43.1162 206.244 43.1417 206.18C43.1671 206.117 43.6293 206.244 44.1745 206.463C44.7191 206.683 45.1401 206.913 45.1148 206.976Z" fill="#17282F"/>
<path d="M44.9345 212.822C44.9486 212.889 44.5549 213.028 44.0552 213.132C43.5556 213.237 43.1392 213.269 43.1254 213.201C43.1113 213.134 43.505 212.995 44.0044 212.891C44.5042 212.786 44.9204 212.755 44.9345 212.822Z" fill="#17282F"/>
<path d="M44.1373 222.385C44.1494 222.452 43.7315 222.583 43.2037 222.677C42.676 222.771 42.2387 222.794 42.2268 222.727C42.2149 222.66 42.6326 222.529 43.1603 222.435C43.6878 222.34 44.1252 222.318 44.1373 222.385Z" fill="#17282F"/>
<path d="M43.6097 227.664C43.6415 227.724 43.293 227.971 42.8314 228.215C42.3696 228.459 41.9695 228.608 41.9376 228.548C41.9056 228.487 42.2541 228.241 42.7159 227.997C43.1775 227.752 43.5778 227.603 43.6097 227.664Z" fill="#17282F"/>
<path d="M47.9221 233.656C47.863 233.69 47.5591 233.27 47.2437 232.72C46.9282 232.169 46.7203 231.695 46.7796 231.661C46.8387 231.627 47.1423 232.046 47.4582 232.597C47.7736 233.148 47.9812 233.622 47.9221 233.656Z" fill="#17282F"/>
<path d="M49.1669 223.698C49.2146 223.747 48.8762 224.156 48.4113 224.612C47.9462 225.068 47.5307 225.398 47.4831 225.349C47.435 225.3 47.7734 224.891 48.2385 224.436C48.7034 223.98 49.1191 223.65 49.1669 223.698Z" fill="#17282F"/>
<path d="M48.8898 218.474C48.8396 218.521 48.5259 218.263 48.1888 217.9C47.8516 217.536 47.619 217.203 47.6688 217.157C47.7191 217.111 48.0328 217.368 48.3698 217.732C48.7071 218.095 48.9396 218.428 48.8898 218.474Z" fill="#17282F"/>
<path d="M49.7464 211.799C49.7971 211.844 49.5152 212.242 49.1164 212.686C48.7181 213.131 48.3537 213.455 48.3028 213.41C48.2521 213.364 48.534 212.967 48.9327 212.522C49.3311 212.077 49.6957 211.753 49.7464 211.799Z" fill="#17282F"/>
<path d="M50.228 206.954C50.1803 207.003 49.7868 206.694 49.3493 206.264C48.9117 205.835 48.5957 205.446 48.6435 205.398C48.6913 205.349 49.0848 205.658 49.5223 206.088C49.9599 206.518 50.2757 206.906 50.228 206.954Z" fill="#17282F"/>
<path d="M51.1731 200.406C51.2315 200.44 51.034 200.88 50.732 201.386C50.4295 201.893 50.1371 202.275 50.0787 202.24C50.02 202.205 50.2175 201.766 50.5199 201.26C50.8221 200.753 51.1144 200.371 51.1731 200.406Z" fill="#17282F"/>
<path d="M52.9528 194.337C53.0131 194.37 52.838 194.809 52.5625 195.319C52.287 195.828 52.0149 196.215 51.9552 196.183C51.895 196.151 52.0698 195.711 52.3454 195.201C52.6209 194.692 52.8929 194.305 52.9528 194.337Z" fill="#17282F"/>
<path d="M54.9724 197.094C55.0019 197.155 54.7255 197.349 54.3552 197.526C53.9847 197.703 53.6606 197.796 53.6311 197.736C53.6016 197.674 53.8779 197.48 54.2485 197.303C54.6188 197.126 54.9433 197.032 54.9724 197.094Z" fill="#17282F"/>
<path d="M55.0213 218.888C55.0081 218.952 54.3812 218.866 53.6699 218.561C52.9568 218.259 52.461 217.867 52.498 217.812C52.5362 217.752 53.0762 218.042 53.7666 218.334C54.455 218.63 55.0378 218.819 55.0213 218.888Z" fill="#17282F"/>
<path d="M54.1952 223.504C54.2082 223.571 53.7918 223.708 53.2656 223.809C52.7393 223.911 52.3022 223.939 52.2893 223.872C52.2766 223.805 52.6925 223.668 53.2191 223.567C53.7453 223.466 54.1824 223.438 54.1952 223.504Z" fill="#17282F"/>
<path d="M53.1821 231.42C53.1422 231.471 52.614 231.11 52.1298 230.496C51.6424 229.885 51.4109 229.289 51.47 229.261C51.5335 229.229 51.8538 229.755 52.3233 230.343C52.7889 230.933 53.2282 231.366 53.1821 231.42Z" fill="#17282F"/>
<path d="M42.073 235.039C42.0287 234.988 42.3093 234.675 42.7001 234.341C43.0905 234.007 43.4432 233.778 43.4875 233.83C43.5318 233.882 43.2512 234.194 42.8604 234.528C42.47 234.862 42.1173 235.091 42.073 235.039Z" fill="#17282F"/>
<path d="M38.8808 217.764C38.4316 216.36 37.5874 214.724 36.1129 214.702C35.2378 214.69 34.4509 215.317 34.0395 216.089C33.628 216.862 33.4536 217.757 33.479 218.631C33.6478 224.407 34.649 231.013 36.6483 237.03H42.0437C41.9746 230.345 40.9196 224.13 38.8808 217.764Z" fill="#33535F"/>
<path d="M29.123 208.927C28.3689 205.912 26.1192 204.283 23.506 204.132C21.1212 204.55 20.1963 206.897 19.913 209.3C19.6298 211.704 20.3764 214.096 21.1137 216.402C23.4811 223.803 25.8485 231.206 28.2159 238.607C30.4533 238.363 32.6907 238.119 34.9283 237.874C32.8037 227.958 31.5837 218.766 29.123 208.927Z" fill="#33535F"/>
<path d="M36.1118 214.702C36.1351 214.721 35.8907 214.944 35.6546 215.466C35.421 215.989 35.3085 216.824 35.4022 217.851C35.5067 218.875 35.6242 220.11 35.7959 221.462C35.972 222.818 36.2161 224.302 36.5191 225.851C37.1293 228.949 37.8166 231.73 38.2528 233.757C38.4739 234.769 38.6405 235.591 38.7459 236.162C38.7907 236.423 38.8279 236.641 38.8586 236.82C38.8817 236.971 38.8897 237.051 38.8815 237.052C38.8731 237.055 38.8486 236.977 38.8098 236.83C38.7671 236.654 38.7151 236.44 38.6518 236.181C38.5085 235.58 38.3163 234.775 38.0829 233.795C37.6032 231.78 36.889 229.006 36.2771 225.898C35.9729 224.344 35.7344 222.854 35.5702 221.491C35.4842 220.81 35.4273 220.16 35.3723 219.552C35.3229 218.948 35.2567 218.382 35.2281 217.862C35.1549 216.822 35.2973 215.953 35.5673 215.425C35.8398 214.899 36.1118 214.702 36.1118 214.702Z" fill="#17282F"/>
<path d="M23.6039 203.941C23.6271 203.961 23.2466 204.281 22.7928 205.03C22.3403 205.771 21.8599 206.979 21.7713 208.542C21.6688 210.103 22.0169 211.956 22.6015 213.943C23.1911 215.94 23.8378 218.131 24.517 220.431C25.8557 225.03 27.0669 229.192 27.9528 232.236C28.3754 233.73 28.7199 234.948 28.9668 235.821C29.0761 236.227 29.1637 236.552 29.2304 236.799C29.288 237.024 29.3144 237.143 29.3063 237.145C29.2979 237.148 29.2558 237.033 29.1828 236.813C29.1048 236.57 29.0025 236.249 28.8745 235.848C28.6092 234.981 28.2394 233.77 27.7853 232.285C26.8815 229.247 25.6456 225.092 24.28 220.501C23.6073 218.198 22.9667 216.004 22.3828 214.005C21.8074 212.006 21.47 210.121 21.597 208.53C21.7098 206.94 22.226 205.716 22.7114 204.98C23.1984 204.234 23.6039 203.941 23.6039 203.941Z" fill="#17282F"/>
<path d="M33.4637 237.157C33.456 237.16 33.404 237.05 33.3123 236.836C33.2241 236.62 33.0813 236.307 32.93 235.892C32.6097 235.067 32.1995 233.853 31.7754 232.329C31.3489 230.805 30.9296 228.968 30.5245 226.918C30.1355 224.863 29.7087 222.609 29.2603 220.243C28.7934 217.881 28.2739 215.646 27.6706 213.652C27.0688 211.657 26.3941 209.902 25.7136 208.482C25.0367 207.06 24.3897 205.958 23.9043 205.223C23.6733 204.846 23.4637 204.576 23.3385 204.379C23.2091 204.186 23.144 204.082 23.1509 204.077C23.1577 204.071 23.2357 204.165 23.3788 204.349C23.5168 204.536 23.7401 204.799 23.9839 205.168C24.4962 205.891 25.1698 206.985 25.871 208.406C26.5755 209.825 27.2716 211.584 27.8882 213.586C28.5065 215.586 29.0348 217.829 29.5026 220.196C29.9441 222.564 30.3644 224.818 30.7478 226.874C31.1401 228.924 31.5404 230.759 31.9441 232.284C32.3453 233.808 32.7286 235.027 33.0204 235.859C33.1573 236.279 33.2856 236.597 33.3588 236.818C33.4353 237.037 33.4717 237.154 33.4637 237.157Z" fill="#17282F"/>
<path d="M21.2327 215.294C21.249 215.36 20.8837 215.505 20.4173 215.619C19.9508 215.732 19.5596 215.77 19.5435 215.704C19.5274 215.638 19.8924 215.492 20.3591 215.379C20.8253 215.266 21.2166 215.228 21.2327 215.294Z" fill="#17282F"/>
<path d="M20.5223 210.714C20.5188 210.784 20.0116 210.812 19.3904 210.837C18.7687 210.861 18.2611 210.872 18.2521 210.804C18.243 210.737 18.7461 210.615 19.3807 210.59C20.0146 210.565 20.526 210.648 20.5223 210.714Z" fill="#17282F"/>
<path d="M21.2781 206.532C21.234 206.584 20.8694 206.348 20.4638 206.004C20.058 205.659 19.7648 205.338 19.8091 205.286C19.8532 205.235 20.2178 205.471 20.6234 205.816C21.0292 206.159 21.3221 206.48 21.2781 206.532Z" fill="#17282F"/>
<path d="M23.3261 202.66C23.3938 202.676 23.3755 203.002 23.3651 203.397C23.3526 203.791 23.3521 204.118 23.2833 204.129C23.2181 204.141 23.1052 203.811 23.1182 203.389C23.1295 202.967 23.2613 202.645 23.3261 202.66Z" fill="#17282F"/>
<path d="M27.5102 204.485C27.566 204.524 27.402 204.855 27.1439 205.223C26.8858 205.591 26.6312 205.859 26.5754 205.82C26.5194 205.78 26.6834 205.45 26.9415 205.082C27.1999 204.713 27.4545 204.446 27.5102 204.485Z" fill="#17282F"/>
<path d="M30.2252 209.2C30.2508 209.263 29.9034 209.465 29.4491 209.65C28.9944 209.835 28.6051 209.934 28.5795 209.871C28.5535 209.808 28.9014 209.606 29.3556 209.421C29.81 209.236 30.1993 209.137 30.2252 209.2Z" fill="#17282F"/>
<path d="M31.8733 214.052C31.9008 214.111 31.4403 214.374 30.809 214.516C30.1777 214.66 29.6494 214.622 29.6485 214.556C29.6453 214.485 30.149 214.414 30.7541 214.275C31.3601 214.14 31.8453 213.987 31.8733 214.052Z" fill="#17282F"/>
<path d="M24.3106 212.674C24.2453 212.653 24.2927 212.318 24.4159 211.925C24.5391 211.532 24.6917 211.229 24.7567 211.25C24.8217 211.271 24.7746 211.605 24.6516 211.999C24.5283 212.392 24.3756 212.694 24.3106 212.674Z" fill="#17282F"/>
<path d="M25.3649 218.764C25.3022 218.737 25.4383 218.286 25.6684 217.756C25.8985 217.226 26.1359 216.819 26.1983 216.845C26.2609 216.873 26.1249 217.324 25.895 217.855C25.6646 218.384 25.4272 218.792 25.3649 218.764Z" fill="#17282F"/>
<path d="M22.7593 220.432C22.7331 220.496 22.3074 220.38 21.7927 220.22C21.2783 220.058 20.8626 219.911 20.8773 219.843C20.8914 219.778 21.3402 219.819 21.8664 219.984C22.3928 220.148 22.7851 220.37 22.7593 220.432Z" fill="#17282F"/>
<path d="M24.2618 225.399C24.3015 225.453 24.0138 225.727 23.6195 226.009C23.2249 226.289 22.8733 226.472 22.8337 226.417C22.7944 226.362 23.0816 226.088 23.476 225.807C23.8706 225.526 24.2221 225.343 24.2618 225.399Z" fill="#17282F"/>
<path d="M25.4658 230.349C25.4821 230.416 25.1263 230.559 24.6716 230.67C24.2166 230.781 23.835 230.817 23.8189 230.75C23.8026 230.684 24.1584 230.541 24.6133 230.43C25.0681 230.319 25.4499 230.284 25.4658 230.349Z" fill="#17282F"/>
<path d="M32.0054 218.188C32.0398 218.246 31.7356 218.488 31.2925 218.654C30.8501 218.822 30.4615 218.84 30.4496 218.774C30.4362 218.706 30.7851 218.583 31.2055 218.423C31.6267 218.265 31.9703 218.128 32.0054 218.188Z" fill="#17282F"/>
<path d="M32.9409 225.891C32.9118 225.953 32.5496 225.844 32.1315 225.647C31.7135 225.45 31.3983 225.241 31.4277 225.179C31.4565 225.118 31.8189 225.227 32.2368 225.424C32.6546 225.62 32.97 225.83 32.9409 225.891Z" fill="#17282F"/>
<path d="M34.5894 231.403C34.5645 231.466 34.0862 231.339 33.5207 231.117C32.9553 230.896 32.5171 230.665 32.542 230.601C32.567 230.538 33.0453 230.665 33.6107 230.887C34.1758 231.109 34.6143 231.34 34.5894 231.403Z" fill="#17282F"/>
<path d="M25.7303 235.722C25.6968 235.66 26.137 235.364 26.6453 234.963C27.1561 234.564 27.5476 234.206 27.5998 234.254C27.6498 234.297 27.3276 234.742 26.7979 235.157C26.2699 235.573 25.7601 235.781 25.7303 235.722Z" fill="#17282F"/>
<path d="M30.0915 232.919C30.0217 232.927 29.9269 232.557 29.7585 232.126C29.5934 231.694 29.4146 231.356 29.4719 231.316C29.5239 231.275 29.81 231.571 29.9886 232.037C30.1696 232.501 30.1572 232.914 30.0915 232.919Z" fill="#17282F"/>
<path d="M28.9351 226.289C28.8951 226.344 28.6135 226.21 28.306 225.99C27.9986 225.769 27.7814 225.545 27.8211 225.49C27.8608 225.434 28.1423 225.568 28.4502 225.789C28.7577 226.01 28.9749 226.234 28.9351 226.289Z" fill="#17282F"/>
<path d="M39.0988 215.9C39.1391 215.955 38.8649 216.226 38.486 216.505C38.1073 216.784 37.7672 216.966 37.7266 216.912C37.6863 216.857 37.9607 216.586 38.3394 216.306C38.7183 216.027 39.058 215.845 39.0988 215.9Z" fill="#17282F"/>
<path d="M40.6308 220.087C40.6372 220.152 40.2076 220.242 39.6763 220.184C39.1446 220.128 38.7441 219.948 38.7644 219.885C38.7845 219.818 39.1969 219.885 39.7028 219.939C40.2082 219.995 40.6255 220.017 40.6308 220.087Z" fill="#17282F"/>
<path d="M34.0465 221.025C34.061 221.09 33.6636 221.232 33.1495 221.266C32.6355 221.301 32.2226 221.212 32.2286 221.146C32.2341 221.076 32.6392 221.053 33.133 221.02C33.6267 220.987 34.0321 220.957 34.0465 221.025Z" fill="#17282F"/>
<path d="M34.6115 217.067C34.6066 217.133 34.2046 217.144 33.7648 216.94C33.324 216.739 33.0703 216.427 33.1168 216.381C33.1642 216.328 33.4668 216.534 33.8682 216.716C34.2672 216.902 34.6203 216.998 34.6115 217.067Z" fill="#17282F"/>
<path d="M41.1959 224.58C41.1595 224.638 40.7482 224.444 40.2767 224.147C39.8052 223.85 39.4525 223.564 39.4889 223.506C39.5253 223.449 39.937 223.642 40.4081 223.939C40.8796 224.235 41.2323 224.522 41.1959 224.58Z" fill="#17282F"/>
<path d="M57.2616 242.551H22.1328V236.326H57.2616V242.551Z" fill="#FF7F00"/>
<path d="M24.7559 241.315L29.0276 259.914H49.964L54.6378 241.315H24.7559Z" fill="#FF7F00"/>
<path d="M57.241 242.558C57.241 242.627 49.3174 242.681 39.5451 242.681C29.7697 242.681 21.8477 242.627 21.8477 242.558C21.8477 242.49 29.7697 242.435 39.5451 242.435C49.3174 242.435 57.241 242.49 57.241 242.558Z" fill="#17282F"/>
<path d="M37.7057 221.161C37.6478 221.197 37.4079 220.917 37.1694 220.536C36.9312 220.155 36.7848 219.816 36.8427 219.781C36.9005 219.744 37.1405 220.024 37.3788 220.405C37.6174 220.787 37.7635 221.125 37.7057 221.161Z" fill="#17282F"/>
<path d="M37.7196 226.168C37.6545 226.147 37.7367 225.724 37.9031 225.223C38.0694 224.722 38.2567 224.335 38.3215 224.356C38.3859 224.378 38.3039 224.801 38.1375 225.301C37.9712 225.801 37.7839 226.189 37.7196 226.168Z" fill="#17282F"/>
<path d="M39.4334 231.425C39.372 231.455 39.1097 231.034 38.8474 230.487C38.585 229.938 38.4223 229.471 38.4836 229.441C38.5454 229.412 38.8077 229.832 39.0702 230.38C39.3323 230.927 39.4952 231.395 39.4334 231.425Z" fill="#17282F"/>
<path d="M35.7226 235.654C35.6712 235.61 35.8806 235.284 36.1908 234.927C36.5009 234.57 36.7939 234.317 36.8455 234.361C36.8968 234.406 36.6877 234.731 36.3773 235.089C36.0674 235.445 35.7742 235.699 35.7226 235.654Z" fill="#17282F"/>
<path d="M34.9439 227.975C34.9322 228.042 34.594 228.038 34.1889 227.967C33.7837 227.896 33.4652 227.784 33.4769 227.716C33.4888 227.649 33.8267 227.653 34.2319 227.724C34.637 227.796 34.9558 227.908 34.9439 227.975Z" fill="#17282F"/>
<path d="M73.8535 259.959H157.157V193.554H73.8535V259.959Z" fill="#DADBD8"/>
<path d="M149.752 193.554H121.74L149.784 193.461C149.773 193.492 149.763 193.523 149.752 193.554Z" fill="#A7A9A8"/>
<path d="M131.525 231.093L121.158 227.302L119.864 230.926C119.55 230.025 119.348 229.076 119.207 228.132C118.593 224.014 119.05 219.743 120.521 215.849C121.36 213.629 122.52 211.532 123.189 209.255C123.858 206.98 123.984 204.402 122.805 202.344C121.722 200.453 119.68 199.27 117.571 198.721C115.461 198.172 113.254 198.175 111.074 198.134C100.549 197.937 89.7314 197.192 79.9238 193.693L121.74 193.554H149.752C145.629 205.836 138.683 218.617 132.262 229.862C132.03 230.268 131.785 230.682 131.525 231.093Z" fill="#8F9192"/>
<path d="M102.237 259.603C102.155 259.603 102.09 244.885 102.09 226.734C102.09 208.575 102.155 193.86 102.237 193.86C102.318 193.86 102.384 208.575 102.384 226.734C102.384 244.885 102.318 259.603 102.237 259.603Z" fill="#33535F"/>
<path d="M136.372 144.48C136.125 142.825 131.173 137.35 131.173 137.35C131.173 137.35 128.698 127.417 127.955 124.489C127.77 123.756 127.371 122.925 126.879 122.089C125.151 119.16 122.617 116.787 119.651 115.12L112.8 111.269L111.16 107.623L94.6968 99.1675L90.2332 107.039C90.2332 107.039 79.3929 110.483 77.9585 112.943C76.5235 115.403 78.6701 148.366 78.6701 148.366C78.6701 148.366 74.1325 167.39 73.176 171.325C72.2196 175.261 73.4842 179.958 73.4842 179.958L81.5576 169.829C84.0659 166.682 89.5752 165.235 93.5309 165.291L127.338 165.441L125.993 155.974L153.33 161.289C153.33 161.289 158.033 152.121 158.405 151.936C158.776 151.752 136.372 144.48 136.372 144.48Z" fill="#FF7F00"/>
<path d="M93.9945 110.133C93.7575 109.892 95.9057 117.142 98.6014 124.526C100.054 128.505 100.782 132.725 100.782 136.975V153.232V163.711L116.992 162.611L114.569 144.998C114.569 144.998 112.593 133.637 112.04 129.316C111.533 125.36 109.792 114.631 109.792 114.631C109.792 114.631 100.782 117.043 93.9945 110.133Z" fill="white"/>
<path d="M129.964 151.124C129.945 151.122 129.94 150.977 129.963 150.716C129.985 150.455 130.047 150.079 130.176 149.626C130.425 148.726 131.003 147.509 132.028 146.483C133.053 145.456 134.269 144.876 135.17 144.624C135.623 144.495 135.998 144.432 136.259 144.409C136.52 144.385 136.665 144.391 136.667 144.409C136.674 144.459 136.099 144.521 135.233 144.822C134.372 145.117 133.22 145.704 132.236 146.69C131.252 147.676 130.667 148.828 130.373 149.69C130.074 150.556 130.013 151.131 129.964 151.124Z" fill="#17282F"/>
<path d="M130.8 144.71C130.765 144.645 131.83 144.106 133.275 143.993C134.719 143.868 135.858 144.226 135.833 144.295C135.816 144.383 134.689 144.165 133.299 144.286C131.908 144.393 130.831 144.793 130.8 144.71Z" fill="#17282F"/>
<path d="M88.4061 165.291C88.348 165.291 88.2899 165.291 88.2318 165.291C85.9198 165.285 83.5864 165.22 81.3417 164.667C79.168 164.133 77.2629 162.737 75.7754 161.058C82.7631 162.633 90.3253 163.711 90.3253 163.711L90.928 161.17C93.5198 161.707 96.0902 162.347 98.6313 163.088C98.6691 163.725 98.1369 164.289 97.5286 164.485C97.2775 164.566 97.0179 164.597 96.755 164.597C96.3808 164.597 96.0016 164.533 95.6348 164.455C95.0688 164.333 94.5006 164.179 93.9244 164.179C93.8646 164.179 93.8042 164.181 93.7439 164.184C92.7913 164.241 91.9358 164.762 91.0183 165.026C90.1747 165.269 89.2859 165.291 88.4061 165.291Z" fill="#CC4341"/>
<path d="M123.31 161.343L119.333 157.121L111.151 155.051C111.151 155.051 103.655 157.296 103.475 157.289C103.296 157.283 96.9501 155.556 96.9501 155.556L94.7324 163.688L106.161 164.47L119.21 163.948C119.21 163.948 119.89 163.314 119.487 162.881C119.083 162.448 121.668 163.613 121.972 163.628C122.271 163.641 122.867 163.875 123.27 163.388C123.545 163.055 123.918 161.988 123.31 161.343Z" fill="#F8A58D"/>
<path d="M119.486 162.881C119.471 162.921 118.979 162.763 118.186 162.511C117.393 162.26 116.296 161.924 115.069 161.609C113.84 161.296 112.716 161.063 111.9 160.899C111.085 160.736 110.578 160.634 110.584 160.592C110.589 160.553 111.106 160.583 111.934 160.695C112.763 160.806 113.903 161.009 115.141 161.325C116.379 161.642 117.476 162.012 118.255 162.316C119.034 162.619 119.501 162.845 119.486 162.881Z" fill="#F68260"/>
<path d="M123.309 161.343C123.293 161.384 122.609 161.129 121.494 160.758C120.38 160.382 118.824 159.922 117.093 159.439C115.364 158.925 113.825 158.412 112.657 158.344C111.494 158.245 110.785 158.475 110.774 158.417C110.769 158.401 110.939 158.33 111.263 158.253C111.588 158.174 112.072 158.115 112.67 158.136C113.875 158.153 115.462 158.649 117.173 159.156C118.905 159.64 120.463 160.134 121.564 160.562C122.116 160.773 122.556 160.961 122.856 161.098C123.156 161.237 123.317 161.325 123.309 161.343Z" fill="#F68260"/>
<path d="M77.9591 112.943C77.9591 112.943 72.061 117.043 70.626 122.947C69.1916 128.85 62.9741 152.958 64.2494 156.565C65.5247 160.173 90.324 163.711 90.324 163.711L93.2624 151.317L80.6689 147.873C80.6689 147.873 80.828 136.394 80.9877 131.638C81.1468 126.882 77.9591 112.943 77.9591 112.943Z" fill="#FF7F00"/>
<path d="M93.0972 153.166L97.1551 154.165L94.7139 163.52L90.7266 162.881L93.0972 153.166Z" fill="white"/>
<path d="M64.1559 155.29C64.1768 155.29 64.1441 155.496 64.2163 155.874C64.2964 156.245 64.5374 156.785 65.0808 157.281C66.1586 158.284 68.2166 159.119 70.8271 159.589L70.8355 159.59L70.8451 159.594C72.0386 159.986 73.3963 160.296 74.85 160.625C76.3059 160.951 77.8667 161.284 79.5173 161.619C82.8168 162.293 86.4678 163.003 90.3355 163.727L90.1673 163.835C90.4478 162.686 90.744 161.47 91.0443 160.238C91.74 157.394 92.4138 154.639 93.0526 152.027L93.1519 152.197C88.9868 151.009 85.1863 149.925 81.9596 149.003L81.9528 149.002L81.9466 148.999C80.2379 148.3 78.5382 148.045 77.0648 148.144C75.5847 148.212 74.3438 148.608 73.3805 149.01C72.4156 149.423 71.7249 149.872 71.2638 150.181C71.0505 150.337 70.8807 150.461 70.7509 150.555C70.6346 150.639 70.5731 150.68 70.5697 150.675C70.5658 150.671 70.62 150.621 70.7294 150.528C70.8406 150.437 71.0009 150.295 71.2243 150.127C71.6752 149.798 72.3597 149.327 73.3286 148.891C74.2953 148.467 75.5486 148.047 77.0536 147.961C78.5512 147.843 80.287 148.086 82.0346 148.787L82.0217 148.783C85.2534 149.689 89.0585 150.756 93.2292 151.925L93.3607 151.962L93.3285 152.094C92.6926 154.707 92.0222 157.463 91.3298 160.308C91.029 161.54 90.7316 162.755 90.4512 163.905L90.4179 164.039L90.2824 164.014C86.4125 163.285 82.7631 162.566 79.4642 161.875C77.8142 161.532 76.2534 161.189 74.7975 160.853C73.3421 160.513 71.9907 160.193 70.7774 159.781L70.7955 159.786C68.1568 159.284 66.0931 158.415 65.0057 157.359C64.4589 156.839 64.2242 156.269 64.161 155.884C64.1051 155.493 64.1559 155.29 64.1559 155.29Z" fill="#17282F"/>
<path d="M81.3489 148.696C81.3139 148.733 80.894 148.347 80.1373 147.841C79.3828 147.333 78.2655 146.736 76.9349 146.347C75.602 145.961 74.3391 145.865 73.43 145.888C72.5198 145.91 71.9583 146.009 71.9493 145.959C71.9414 145.93 72.4927 145.757 73.4199 145.681C74.3442 145.603 75.6477 145.669 77.0167 146.065C78.3846 146.465 79.5194 147.109 80.2569 147.672C80.9984 148.233 81.3703 148.675 81.3489 148.696Z" fill="#17282F"/>
<path d="M83.0003 128.502C83.0206 128.504 83.0229 128.773 83.0088 129.258C82.9981 129.745 82.9557 130.446 82.8897 131.313C82.7509 133.045 82.4924 135.435 82.0393 138.05C81.5952 140.666 81.0258 143.008 80.4751 144.662C80.3368 145.075 80.1946 145.443 80.0733 145.767C79.9384 146.07 79.8188 146.34 79.7127 146.58C79.4802 147.01 79.3436 147.242 79.3262 147.232C79.3087 147.222 79.4102 146.972 79.6083 146.533C79.6997 146.29 79.803 146.016 79.9192 145.709C80.0253 145.383 80.1529 145.013 80.277 144.599C80.773 142.942 81.3069 140.607 81.7498 138C82.2007 135.395 82.4913 133.017 82.6826 131.294C82.7673 130.476 82.8384 129.791 82.8948 129.251C82.9433 128.768 82.98 128.501 83.0003 128.502Z" fill="#17282F"/>
<path d="M97.3814 122.109C97.3623 122.114 97.3228 121.955 97.1856 121.691C97.0474 121.433 96.7951 121.063 96.338 120.765C95.8945 120.469 95.2089 120.259 94.5029 120.496C93.8105 120.72 93.1272 121.371 92.9545 122.249L92.8755 122.65L92.7028 122.279C92.1086 121.001 91.5009 119.524 90.9783 117.924C90.0246 115.019 89.6133 112.237 89.7036 110.229C89.7007 109.726 89.7741 109.275 89.8029 108.878C89.8712 108.485 89.9214 108.145 89.9823 107.872C90.1251 107.329 90.2131 107.034 90.2329 107.039C90.3057 107.053 89.8988 108.242 89.9112 110.232C89.8751 112.215 90.3124 114.952 91.2582 117.833C91.7762 119.42 92.3699 120.89 92.9449 122.168L92.6932 122.198C92.9031 121.209 93.6666 120.517 94.4358 120.286C95.2264 120.041 95.9724 120.3 96.4278 120.634C96.9012 120.97 97.1427 121.375 97.2618 121.655C97.3211 121.797 97.3549 121.91 97.3685 121.988C97.3843 122.066 97.3882 122.107 97.3814 122.109Z" fill="#17282F"/>
<path d="M111.141 123.378C111.122 123.38 111.084 123.142 111.011 122.707C110.95 122.273 110.807 121.635 110.891 120.816C111.004 120.013 111.384 119.04 112.252 118.318C112.681 117.963 113.269 117.726 113.892 117.729C114.508 117.729 115.18 117.968 115.62 118.501L115.37 118.644C115.199 118.211 115.018 117.757 114.835 117.296C113.782 114.639 112.845 112.227 112.18 110.477C111.869 109.639 111.608 108.941 111.407 108.398C111.23 107.905 111.142 107.629 111.161 107.623C111.18 107.615 111.305 107.877 111.514 108.358C111.739 108.893 112.028 109.58 112.375 110.404C113.089 112.136 114.058 114.536 115.11 117.193C115.293 117.655 115.472 118.109 115.643 118.542L115.987 119.413L115.393 118.685C115.024 118.232 114.442 118.013 113.89 118.008C113.332 118.001 112.812 118.201 112.411 118.521C111.606 119.164 111.21 120.093 111.083 120.842C110.977 121.614 111.086 122.257 111.115 122.694C111.156 123.134 111.159 123.377 111.141 123.378Z" fill="#17282F"/>
<path d="M121.606 124.778C121.686 124.767 122.961 133.342 124.454 143.93C125.946 154.521 127.091 163.113 127.01 163.125C126.93 163.137 125.655 154.562 124.162 143.971C122.67 133.384 121.525 124.789 121.606 124.778Z" fill="#17282F"/>
<path d="M92.5569 124.386C91.7641 122.529 91.2935 120.528 91.1738 118.504C91.649 119.882 92.1811 121.157 92.7031 122.279L92.8758 122.65L92.9548 122.248C93.1274 121.371 93.8108 120.72 94.5032 120.496C94.7165 120.425 94.9281 120.394 95.1318 120.394C95.2458 120.394 95.357 120.403 95.4653 120.421C96.046 120.601 96.5714 120.994 96.9562 121.484C97.5008 122.177 97.7953 123.045 97.9736 123.918C97.257 123.173 96.2965 122.541 95.3079 122.541C95.1352 122.541 94.9608 122.56 94.7876 122.602C93.8526 122.825 93.1709 123.628 92.5569 124.386ZM92.7984 121.838C92.5005 121.163 92.2003 120.439 91.9097 119.676L92.8137 121.798C92.8086 121.811 92.8035 121.825 92.7984 121.838ZM92.9006 121.603C93.0704 121.11 93.4677 120.716 93.9428 120.499C93.5219 120.74 93.141 121.117 92.9006 121.603Z" fill="#CC4341"/>
<path d="M92.8768 122.65L92.7042 122.279C92.1822 121.157 91.6501 119.882 91.1749 118.504C91.1648 118.341 91.1574 118.179 91.1523 118.016L91.2195 118.053L91.9108 119.676C92.2014 120.439 92.5016 121.163 92.7995 121.838C92.8046 121.825 92.8097 121.811 92.8148 121.798L92.8373 121.85C92.852 121.765 92.874 121.683 92.9017 121.603C93.1421 121.118 93.523 120.74 93.9439 120.499C94.1888 120.388 94.4546 120.323 94.7204 120.315C94.7402 120.315 94.7599 120.315 94.7797 120.315C95.0133 120.315 95.2441 120.352 95.4664 120.421C95.3581 120.403 95.2469 120.394 95.1329 120.394C94.9292 120.394 94.7176 120.425 94.5043 120.496C93.8119 120.72 93.1285 121.371 92.9558 122.249L92.8768 122.65Z" fill="#0F191D"/>
<path d="M81.622 124.214C81.5673 124.214 81.5859 123.624 81.4149 122.701C81.2468 121.783 80.8354 120.535 80.0426 119.347C79.6436 118.757 79.1955 118.245 78.7531 117.814C78.2972 117.399 77.8604 117.051 77.4597 116.808C76.6675 116.308 76.1082 116.115 76.1274 116.064C76.1336 116.045 76.277 116.08 76.532 116.163C76.6613 116.2 76.8153 116.257 76.9869 116.34C77.1601 116.419 77.3621 116.503 77.5664 116.63C77.9919 116.856 78.4563 117.198 78.9371 117.616C79.4043 118.048 79.8744 118.574 80.2869 119.184C81.1068 120.413 81.5013 121.718 81.6203 122.669C81.6801 123.145 81.6971 123.534 81.6751 123.801C81.6598 124.069 81.6423 124.215 81.622 124.214Z" fill="#17282F"/>
<path d="M114.375 83.9586C113.707 77.6956 108.338 72.998 102.04 73.1599L101.413 73.1757C94.6739 73.7437 91.3908 79.7822 92.1453 86.501L93.9939 110.133L94.7772 111.094C98.4005 115.54 104.563 116.991 109.792 114.631L109.273 107.028C109.273 107.028 115.737 105.853 115.65 99.3659C115.608 96.2325 114.996 89.7856 114.375 83.9586Z" fill="#F8A58D"/>
<path d="M109.325 107.018C109.325 107.018 105.188 107.374 100.76 104.75C100.76 104.75 102.879 109.365 109.338 108.615L109.325 107.018Z" fill="#F68260"/>
<path d="M112.324 89.3244C112.354 89.8129 111.965 90.241 111.454 90.2816C110.945 90.3217 110.508 89.9601 110.478 89.4711C110.448 88.9826 110.838 88.5533 111.346 88.5133C111.856 88.4726 112.294 88.8359 112.324 89.3244Z" fill="#17282F"/>
<path d="M112.737 85.7976C112.663 85.9116 111.927 85.9894 111.051 86.4638C110.171 86.9303 109.645 87.5294 109.522 87.5209C109.463 87.5192 109.516 87.3568 109.743 87.0916C109.967 86.8293 110.385 86.4655 110.933 86.1722C111.479 85.8794 111.991 85.7435 112.309 85.7159C112.633 85.686 112.774 85.7441 112.737 85.7976Z" fill="#17282F"/>
<path d="M102.959 89.816C102.989 90.3045 102.599 90.7326 102.09 90.7733C101.581 90.8139 101.143 90.4517 101.113 89.9627C101.083 89.4742 101.472 89.0455 101.981 89.0049C102.492 88.9642 102.929 89.327 102.959 89.816Z" fill="#17282F"/>
<path d="M102.816 87.1615C102.686 87.1897 102.082 86.7813 101.115 86.5432C100.151 86.299 99.3638 86.3605 99.2769 86.2781C99.234 86.2403 99.3785 86.1676 99.7238 86.1371C100.063 86.1055 100.615 86.1303 101.217 86.2804C101.82 86.431 102.292 86.6617 102.549 86.8422C102.81 87.0238 102.879 87.1502 102.816 87.1615Z" fill="#17282F"/>
<path d="M106.728 94.9069C106.722 94.8505 107.339 94.727 108.34 94.573C108.594 94.5403 108.834 94.4833 108.872 94.3084C108.927 94.1234 108.814 93.8515 108.683 93.5588C108.427 92.949 108.16 92.3099 107.88 91.6403C106.763 88.9079 105.948 86.6595 106.059 86.6149C106.169 86.5709 107.164 88.75 108.28 91.4818C108.549 92.1559 108.806 92.7984 109.052 93.4127C109.155 93.6992 109.33 94.0235 109.209 94.4083C109.146 94.6 108.962 94.7433 108.8 94.7913C108.638 94.8449 108.496 94.8511 108.37 94.8623C107.36 94.9424 106.734 94.9633 106.728 94.9069Z" fill="#17282F"/>
<path d="M102.831 83.3106C102.72 83.5768 101.731 83.4003 100.555 83.4843C99.3783 83.5447 98.4195 83.8408 98.2762 83.5904C98.213 83.4708 98.3896 83.2243 98.783 82.9806C99.1735 82.7369 99.7885 82.5175 100.494 82.4741C101.199 82.4312 101.836 82.5733 102.253 82.7674C102.674 82.9609 102.88 83.1842 102.831 83.3106Z" fill="#17282F"/>
<path d="M112.71 83.5323C112.494 83.7608 111.635 83.534 110.605 83.534C109.575 83.5047 108.704 83.7055 108.501 83.4708C108.412 83.3569 108.547 83.1284 108.925 82.9101C109.299 82.6924 109.925 82.5119 110.634 82.522C111.341 82.5327 111.957 82.7319 112.317 82.9597C112.684 83.1888 112.806 83.4206 112.71 83.5323Z" fill="#17282F"/>
<path d="M116.266 78.2214C116.143 77.6331 115.563 77.1355 114.967 77.2241C115.285 77.1107 115.611 76.9928 115.862 76.7683C116.114 76.5438 116.275 76.1839 116.169 75.8641C116.002 75.3626 115.361 75.2594 114.852 75.115C114.189 74.9272 113.588 74.5255 113.159 73.9857C112.543 73.2067 112.305 72.1936 111.772 71.3554C111.083 70.2695 109.884 69.5227 108.605 69.3817C107.326 69.2412 105.994 69.7094 105.084 70.6181C104.093 69.6005 102.598 69.0991 101.193 69.3134C99.7883 69.5272 98.5102 70.4512 97.8674 71.7181C96.1458 71.0017 94.0443 71.2973 92.5873 72.461C91.1308 73.6247 90.3786 75.6086 90.6974 77.4452L94.739 79.921C94.8044 78.6721 96.1988 77.681 97.4002 78.0279C98.6202 78.3805 99.4001 79.7924 100.666 79.8883C101.652 79.9627 102.491 79.1989 103.446 78.9434C104.605 78.6332 105.829 79.0974 106.874 79.6863C107.919 80.2746 108.912 81.0068 110.075 81.3007C111.438 81.6442 112.891 81.343 114.192 80.8105C114.75 80.5826 115.301 80.304 115.717 79.8674C116.131 79.4313 116.391 78.8103 116.266 78.2214Z" fill="#17282F"/>
<path d="M95.4419 78.0167L113.949 77.9112C113.339 76.6516 112.283 75.6589 111.145 74.8443C108.69 73.0889 105.704 72.0329 102.686 72.064C99.6686 72.095 93.63 75.9381 91.5026 78.0776C89.8001 79.7902 89.8514 81.2297 89.8514 81.2297C89.6398 83.6344 91.0579 86.3217 91.6572 88.6603C91.9658 89.8669 92.599 93.5244 92.599 93.5244H92.5996C93.6187 93.4923 93.9748 92.6715 93.7919 91.6686L93.4917 87.7228C93.4917 87.7228 96.8888 85.1642 95.1214 80.7034C94.8477 80.352 94.24 78.7213 95.4419 78.0167Z" fill="#17282F"/>
<path d="M93.2021 87.46C92.2603 84.1838 91.3952 80.6735 92.3963 77.4148C92.2134 77.4075 92.0301 77.3996 91.8467 77.3923L91.6181 77.5593C90.5826 77.2112 89.344 77.6055 88.7007 78.4877C88.0574 79.37 88.0608 80.6696 88.7086 81.5484C87.6127 81.4971 86.5603 82.4137 86.4604 83.5064C86.3916 84.26 86.7194 84.9888 87.0557 85.6674C87.3926 86.3454 87.7543 87.0482 87.7594 87.8052C87.7639 88.5628 87.2792 89.3846 86.527 89.4749C86.8639 90.2505 87.8051 90.708 88.6234 90.4925C88.3632 91.1333 87.9169 91.6962 87.3526 92.0956C88.5579 92.9164 90.213 92.636 91.5239 91.9975C92.302 91.619 93.0655 91.0791 93.3832 90.2748C93.7354 89.3835 93.4668 88.3811 93.2021 87.46Z" fill="#17282F"/>
<path d="M92.9013 91.2771C92.7895 91.232 88.4094 90.0734 88.6651 94.5037C88.9207 98.9334 93.3177 97.7635 93.3177 97.6355C93.3183 97.5086 92.9013 91.2771 92.9013 91.2771Z" fill="#F8A58D"/>
<path d="M92.2562 96.025C92.2359 96.0114 92.1823 96.0836 92.0548 96.1507C91.9312 96.2156 91.7145 96.2686 91.4786 96.1953C91.0006 96.0509 90.5633 95.3306 90.4962 94.533C90.4612 94.1313 90.5238 93.7421 90.6485 93.4161C90.7648 93.0838 90.9612 92.8458 91.1948 92.79C91.4261 92.7223 91.6011 92.8537 91.6626 92.9755C91.7292 93.0957 91.706 93.1859 91.7303 93.1921C91.7433 93.2029 91.8206 93.112 91.7749 92.9315C91.7512 92.8447 91.693 92.7431 91.5841 92.6642C91.473 92.5835 91.3138 92.5485 91.1508 92.5756C90.8105 92.619 90.521 92.9513 90.3839 93.3095C90.2287 93.6699 90.1485 94.1077 90.1875 94.5595C90.2676 95.4502 90.7727 96.2596 91.4244 96.4074C91.7405 96.4706 91.995 96.3617 92.1236 96.2495C92.2545 96.1321 92.272 96.0317 92.2562 96.025Z" fill="#F68260"/>
<path d="M88.2981 87.6027C88.2851 87.6117 88.1739 87.4357 88.2168 87.0877C88.258 86.7487 88.5029 86.2574 89.0452 85.933C89.5813 85.6064 90.3222 85.5269 91.0756 85.4428C91.821 85.3622 92.6726 85.1506 93.0986 84.4156C93.5247 83.6998 93.5365 82.8238 93.4456 82.0899C93.3396 81.3465 93.1426 80.6701 93.0456 80.0891C92.8114 78.9159 93.036 78.1679 93.0755 78.1882C93.1285 78.1961 92.997 78.9147 93.2848 80.0401C93.4101 80.6053 93.6302 81.2624 93.7605 82.0459C93.87 82.8176 93.8864 83.7562 93.3926 84.5961C93.1466 85.0096 92.7527 85.3238 92.3368 85.4897C91.9198 85.6594 91.4999 85.7175 91.1117 85.7587C90.3375 85.8264 89.6558 85.8806 89.1632 86.1468C88.6773 86.4029 88.4222 86.8198 88.3483 87.1136C88.2704 87.4154 88.3285 87.5971 88.2981 87.6027Z" fill="#33535F"/>
<path d="M87.2292 85.6707C87.2117 85.6774 87.1316 85.5443 87.0921 85.2702C87.056 85.0005 87.0769 84.578 87.3133 84.1307C87.4312 83.9096 87.6033 83.6851 87.8398 83.4984C88.0723 83.3038 88.3894 83.1836 88.6902 83.1013C88.9921 83.0133 89.3058 82.9354 89.5321 82.7561C89.7573 82.5784 89.8589 82.2845 89.8656 81.9443C89.8786 81.6065 89.8273 81.2511 89.8357 80.8957C89.8408 80.5437 89.882 80.2053 89.9486 79.89C90.0874 79.2571 90.3159 78.7229 90.5846 78.306C90.852 77.8773 91.2792 77.668 91.5659 77.6827C91.8593 77.6855 91.9823 77.8175 91.9694 77.8288C91.9569 77.8559 91.8209 77.7786 91.576 77.817C91.3306 77.8474 91.0095 78.0386 90.7917 78.4363C90.5721 78.8306 90.3724 79.3575 90.2612 79.952C90.2065 80.2504 90.1743 80.5685 90.1737 80.898C90.1692 81.2246 90.224 81.572 90.211 81.9579C90.2093 82.3335 90.071 82.7747 89.7426 83.0206C89.4221 83.262 89.0705 83.3263 88.7754 83.4076C88.1682 83.526 87.7625 83.8639 87.5255 84.2514C87.056 85.0451 87.2958 85.6735 87.2292 85.6707Z" fill="#33535F"/>
<path d="M113.164 73.9897C113.191 73.9959 112.829 74.2311 112.249 73.9581C111.964 73.8317 111.684 73.5649 111.412 73.2457C111.14 72.9219 110.832 72.5772 110.382 72.3335C109.517 71.8411 108.116 71.7136 107.041 72.5547C106.492 72.9518 106.007 73.5068 105.37 73.9711C105.051 74.199 104.681 74.402 104.26 74.4838C103.84 74.5662 103.395 74.5075 102.999 74.3642C102.199 74.0771 101.569 73.5881 100.88 73.3376C100.193 73.0719 99.4773 72.9546 98.799 72.9636C97.4317 72.9664 96.2495 73.4814 95.442 74.1177C94.6209 74.7529 94.1407 75.4687 93.8574 75.9741C93.5815 76.4886 93.4816 76.8011 93.4528 76.792C93.4416 76.7881 93.4568 76.7074 93.4968 76.5557C93.5386 76.4045 93.6159 76.1862 93.7372 75.9132C93.99 75.3773 94.4533 74.6141 95.2902 73.9265C96.1107 73.2383 97.3521 72.6658 98.7939 72.6455C99.51 72.6274 100.269 72.7442 101.001 73.0217C101.745 73.2919 102.388 73.7832 103.113 74.0382C103.473 74.1674 103.843 74.2136 104.197 74.1459C104.55 74.0788 104.876 73.9056 105.173 73.6958C105.769 73.2699 106.266 72.7149 106.854 72.2969C107.433 71.8603 108.146 71.6487 108.79 71.6566C109.439 71.6595 110.033 71.8428 110.504 72.1214C110.982 72.399 111.31 72.795 111.56 73.1216C111.817 73.4504 112.058 73.7048 112.31 73.8385C112.82 74.1251 113.166 73.9564 113.164 73.9897Z" fill="#33535F"/>
<path d="M104.264 96.0677C104.405 96.0356 104.566 96.9827 105.49 97.518C106.414 98.0567 107.406 97.7803 107.436 97.9111C107.459 97.9687 107.242 98.1334 106.817 98.2163C106.401 98.3015 105.768 98.2699 105.203 97.9416C104.638 97.6128 104.333 97.0989 104.235 96.7159C104.132 96.3255 104.198 96.0728 104.264 96.0677Z" fill="#17282F"/>
<path d="M162.663 184.204C160.986 182.711 158.67 182.017 156.428 182.148L152.615 194.261C155.41 194.384 158.197 195.826 160.895 195.087C163.062 194.494 164.705 192.46 165.006 190.236C165.307 188.01 164.34 185.698 162.663 184.204Z" fill="#FF7F00"/>
<path d="M156.495 181.863C156.503 181.765 156.909 181.688 157.65 181.696C158.387 181.717 159.479 181.801 160.771 182.284C162.067 182.764 163.479 183.743 164.572 185.234C165.118 185.979 165.576 186.866 165.84 187.862C166.108 188.856 166.156 189.963 165.934 191.039C165.713 192.117 165.24 193.128 164.548 193.931C163.856 194.743 162.969 195.305 162.087 195.637C160.308 196.304 158.599 196.198 157.291 195.947C155.97 195.687 154.976 195.302 154.301 195.019C153.629 194.729 153.278 194.516 153.306 194.42C153.336 194.323 153.748 194.351 154.463 194.47C155.176 194.584 156.195 194.806 157.435 194.918C158.665 195.029 160.157 194.992 161.58 194.383C162.283 194.081 162.938 193.625 163.445 193.007C163.956 192.388 164.319 191.599 164.494 190.745C164.859 189.022 164.339 187.306 163.462 186.009C162.584 184.698 161.435 183.764 160.355 183.235C159.265 182.692 158.261 182.452 157.573 182.263C156.88 182.084 156.487 181.966 156.495 181.863Z" fill="#F3F2F1"/>
<path d="M121.157 227.302L112.861 250.535L141.725 261C142.556 258.183 129.632 247.235 129.632 247.235L135.558 232.567L121.157 227.302Z" fill="#FF7F00"/>
<path d="M120.978 245.103C120.947 245.103 120.917 245.101 120.886 245.098C120.274 245.038 119.783 244.41 119.857 243.798C119.928 243.225 120.473 242.76 121.047 242.746C121.079 242.741 121.112 242.739 121.145 242.739C121.718 242.739 122.266 243.399 122.26 243.98C122.254 244.565 121.573 245.103 120.978 245.103Z" fill="#F9ACB4"/>
<path d="M112.861 250.535L113.699 248.19L141.116 259.123C141.116 259.123 142.199 260.148 141.725 261L112.861 250.535Z" fill="white"/>
<path d="M130.154 247.259C130.097 247.397 129.37 247.206 128.512 247.407C127.648 247.587 127.07 248.067 126.96 247.964C126.84 247.89 127.357 247.124 128.399 246.898C129.44 246.663 130.231 247.14 130.154 247.259Z" fill="#17282F"/>
<path d="M132.726 249.607C132.709 249.755 132.012 249.774 131.317 250.196C130.61 250.598 130.255 251.198 130.117 251.142C129.976 251.116 130.178 250.255 131.052 249.747C131.922 249.231 132.772 249.471 132.726 249.607Z" fill="#17282F"/>
<path d="M133.132 253.852C132.993 253.836 133.052 253.061 133.694 252.421C134.332 251.775 135.107 251.712 135.124 251.851C135.161 251.996 134.583 252.255 134.064 252.789C133.533 253.31 133.277 253.889 133.132 253.852Z" fill="#17282F"/>
<path d="M131.134 243.765C131.028 243.873 130.452 243.444 129.636 243.209C128.824 242.957 128.107 243 128.078 242.853C128.033 242.722 128.827 242.419 129.785 242.709C130.744 242.992 131.243 243.68 131.134 243.765Z" fill="#17282F"/>
<path d="M131.688 240.093C131.668 240.152 131.08 240.037 130.245 239.562C129.83 239.324 129.36 238.99 128.902 238.549C128.672 238.327 128.446 238.081 128.231 237.807C128.129 237.674 128.003 237.53 127.918 237.309C127.815 237.106 127.862 236.7 128.125 236.536C128.354 236.368 128.65 236.368 128.86 236.438C129.075 236.508 129.232 236.614 129.375 236.71C129.668 236.904 129.93 237.12 130.162 237.344C130.622 237.794 130.955 238.274 131.177 238.702C131.622 239.564 131.66 240.174 131.602 240.183C131.521 240.207 131.355 239.647 130.859 238.889C130.611 238.511 130.273 238.091 129.833 237.695C129.613 237.499 129.367 237.309 129.096 237.138C128.819 236.947 128.56 236.851 128.433 236.958C128.385 237 128.374 237.019 128.406 237.132C128.442 237.238 128.536 237.363 128.636 237.496C128.832 237.755 129.036 237.993 129.241 238.21C129.655 238.641 130.074 238.986 130.445 239.251C131.188 239.782 131.718 240.018 131.688 240.093Z" fill="#17282F"/>
<path d="M131.431 240.229C131.374 240.232 131.277 239.626 131.556 238.695C131.696 238.233 131.942 237.702 132.327 237.184C132.521 236.926 132.749 236.674 133.014 236.441C133.287 236.216 133.632 235.909 134.201 236.045C134.49 236.138 134.647 236.447 134.658 236.667C134.683 236.896 134.641 237.071 134.614 237.25C134.545 237.607 134.419 237.935 134.262 238.224C133.948 238.805 133.512 239.225 133.103 239.493C132.268 240.036 131.618 239.991 131.624 239.939C131.603 239.851 132.193 239.758 132.885 239.196C133.226 238.918 133.585 238.52 133.835 238.003C133.96 237.747 134.059 237.462 134.112 237.159C134.178 236.836 134.152 236.547 134.026 236.536C133.884 236.482 133.556 236.625 133.349 236.826C133.107 237.032 132.893 237.253 132.706 237.48C132.336 237.935 132.077 238.406 131.903 238.821C131.556 239.653 131.516 240.235 131.431 240.229Z" fill="#17282F"/>
<path d="M93.1913 165.249C88.8129 165.35 84.6591 165.969 81.644 169.143C77.6443 173.354 72.6976 179.351 72.4172 183.511C71.9973 189.728 75.7488 191.576 78.4885 193.091C79.7 193.762 81.0814 194.064 82.4656 194.011L133.072 193.627L134.661 185.058L101.93 176.995L103.29 164.681L93.1913 165.249Z" fill="#17282F"/>
<path d="M103.29 164.681L119.209 163.948C119.209 163.948 146.71 165.476 152.576 170.851C158.442 176.227 157.71 182.335 155.754 188.198C153.798 194.062 136.567 231.566 136.567 231.566C136.567 231.566 137.964 233.95 137.178 236.33C135.961 240.015 132.683 240.609 132.683 240.609L117.38 234.987C117.38 234.987 115.302 234.254 116.769 232.299C118.235 230.345 119.213 229.978 119.213 229.978V226.069C119.213 226.069 124.59 216.296 125.079 214.952C125.568 213.608 130.722 193.717 130.722 193.717L134.146 187.837C134.146 187.837 125.866 183.944 118.689 181.123L101.93 176.995L103.29 164.681Z" fill="#17282F"/>
<path d="M129.11 234.279C129.08 234.315 128.598 233.934 127.768 233.399C126.94 232.862 125.745 232.196 124.34 231.66C122.933 231.127 121.597 230.831 120.622 230.683C119.645 230.532 119.032 230.497 119.033 230.449C119.033 230.416 119.652 230.377 120.649 230.477C121.643 230.574 123.012 230.843 124.444 231.385C125.875 231.931 127.076 232.639 127.885 233.227C128.696 233.814 129.132 234.254 129.11 234.279Z" fill="#33535F"/>
<path d="M136.76 231.593C136.729 231.617 136.387 231.263 135.87 230.657C135.354 230.051 134.668 229.192 133.947 228.214C133.228 227.236 132.611 226.325 132.186 225.652C131.762 224.979 131.524 224.547 131.558 224.525C131.592 224.503 131.891 224.894 132.359 225.535C132.893 226.268 133.506 227.111 134.184 228.04C134.87 228.963 135.492 229.799 136.033 230.527C136.506 231.164 136.792 231.566 136.76 231.593Z" fill="#33535F"/>
<path d="M142.368 182.466C142.377 182.513 141.806 182.635 140.918 182.929C140.03 183.222 138.833 183.721 137.623 184.474C136.415 185.23 135.441 186.087 134.788 186.756C134.133 187.424 133.774 187.883 133.734 187.854C133.708 187.835 134.01 187.329 134.636 186.614C135.259 185.898 136.234 184.997 137.467 184.225C138.703 183.456 139.941 182.976 140.858 182.731C141.775 182.483 142.363 182.434 142.368 182.466Z" fill="#33535F"/>
<path d="M126.713 209.023C126.703 209.021 126.725 208.907 126.776 208.693C126.838 208.449 126.915 208.14 127.011 207.761C127.238 206.917 127.548 205.76 127.928 204.347C128.739 201.438 129.842 197.483 131.06 193.115C131.695 190.924 132.24 188.834 132.852 186.942C133.564 185.066 134.691 183.618 135.734 182.548C136.786 181.474 137.771 180.752 138.47 180.294C138.824 180.069 139.1 179.898 139.296 179.796C139.489 179.69 139.592 179.639 139.597 179.647C139.61 179.67 139.214 179.907 138.535 180.388C137.86 180.872 136.903 181.613 135.884 182.692C134.873 183.766 133.785 185.204 133.106 187.036C132.519 188.901 131.974 191.015 131.342 193.199C130.091 197.557 128.96 201.502 128.127 204.404C127.71 205.807 127.37 206.954 127.121 207.792C127.003 208.166 126.909 208.469 126.833 208.709C126.764 208.918 126.723 209.026 126.713 209.023Z" fill="#33535F"/>
<path d="M112.632 180.374C112.552 180.381 112.216 177.406 111.885 173.729C111.553 170.051 111.349 167.064 111.43 167.057C111.511 167.049 111.846 170.025 112.177 173.702C112.509 177.379 112.713 180.366 112.632 180.374Z" fill="#33535F"/>
<path d="M86.1363 188.317C86.0912 188.339 85.8457 187.858 85.3474 187.152C84.852 186.446 84.0704 185.536 83.0355 184.724C81.9972 183.916 80.9239 183.378 80.1186 183.069C79.3134 182.756 78.7863 182.635 78.797 182.586C78.8021 182.554 79.3478 182.605 80.1886 182.873C81.0277 183.138 82.149 183.662 83.2161 184.493C84.2803 185.326 85.0596 186.288 85.5201 187.037C85.984 187.787 86.1645 188.305 86.1363 188.317Z" fill="#33535F"/>
<path d="M95.8887 177.516C95.8605 177.561 95.1856 177.128 94.0163 176.597C92.8505 176.063 91.1632 175.478 89.2254 175.197C87.2865 174.922 85.5022 175.009 84.233 175.194C82.9617 175.375 82.1925 175.6 82.1779 175.549C82.1722 175.529 82.3596 175.459 82.706 175.349C83.0497 175.233 83.5615 175.106 84.2003 174.988C85.4768 174.749 87.2938 174.626 89.2672 174.905C91.2394 175.192 92.9481 175.82 94.106 176.409C94.6861 176.702 95.1415 176.967 95.4389 177.175C95.7397 177.379 95.9 177.499 95.8887 177.516Z" fill="#33535F"/>
<path d="M134.008 185.05C134.005 185.06 133.868 185.037 133.61 184.984C133.325 184.923 132.952 184.842 132.487 184.741C131.48 184.515 130.079 184.2 128.362 183.815C124.879 183.034 120.06 181.989 114.718 180.931C109.374 179.874 104.52 179.005 101.002 178.4C99.2683 178.103 97.853 177.86 96.8361 177.686C96.3678 177.602 95.9914 177.534 95.7041 177.483C95.4457 177.433 95.3108 177.403 95.3125 177.393C95.3142 177.382 95.4519 177.394 95.7132 177.425C96.0027 177.462 96.3813 177.511 96.8531 177.572C97.8428 177.706 99.2722 177.918 101.036 178.195C104.564 178.748 109.428 179.585 114.776 180.643C120.121 181.702 124.936 182.78 128.409 183.612C130.146 184.028 131.547 184.376 132.513 184.63C132.973 184.753 133.342 184.851 133.625 184.927C133.878 184.998 134.01 185.04 134.008 185.05Z" fill="#33535F"/>
<path d="M101.93 178.447C101.873 178.464 101.755 177.779 101.229 176.831C100.963 176.361 100.579 175.84 100.071 175.334C99.5697 174.823 98.9541 174.315 98.2995 173.802C96.9785 172.79 95.6366 172.076 94.6744 171.552C93.7066 171.034 93.1068 170.709 93.1254 170.671C93.1429 170.637 93.7727 170.894 94.7681 171.366C95.7579 171.845 97.1303 172.537 98.4784 173.569C99.1431 174.091 99.7588 174.609 100.266 175.146C100.777 175.677 101.161 176.233 101.412 176.732C101.662 177.234 101.796 177.667 101.864 177.97C101.932 178.273 101.948 178.443 101.93 178.447Z" fill="#33535F"/>
<path d="M158.296 186.096C158.361 186.159 157.514 187.014 156.855 188.314C156.182 189.608 155.98 190.794 155.891 190.777C155.818 190.778 155.895 189.527 156.593 188.18C157.281 186.828 158.253 186.037 158.296 186.096Z" fill="#17282F"/>
<path d="M122.254 154.196H126.716V128.735H122.254V154.196Z" fill="#CC4341"/>
<path d="M125.877 154.205L125.696 153.797L122.074 128.289C122.135 128.438 122.196 128.587 122.255 128.735C122.784 132.236 123.582 137.739 124.454 143.93C124.987 147.706 125.474 151.227 125.878 154.196C125.878 154.199 125.878 154.202 125.877 154.205Z" fill="#0F191D"/>
<path d="M141.583 142.948L129.804 163.541L100.781 164.172L100.709 165.486L128.811 165.277L129.702 165.247L159.377 165.305L165.374 154.967L173.034 143.992C173.536 143.273 173.019 142.286 172.142 142.29L142.52 142.403C142.133 142.404 141.775 142.612 141.583 142.948Z" fill="#DADBD8"/>
<path d="M165.374 154.967C165.374 154.967 166.898 156.364 166.657 157.551C166.416 158.738 166.497 159.62 165.374 159.701C165.374 159.701 165.454 161.225 163.848 161.466C163.848 161.466 164.193 163.327 162.026 163.648C162.026 163.648 161.36 165.637 159.996 165.157C158.631 164.675 157.749 164.113 157.749 164.113L157.348 163.392C157.348 163.392 155.337 162.636 155.832 161.501C156.133 160.813 157.173 160.633 157.173 160.633C157.173 160.633 156.74 159.623 157.301 158.869C157.783 158.222 159.353 158.756 159.353 158.756C159.353 158.756 159.26 157.921 159.85 157.221C160.384 156.588 162.883 158.309 162.883 158.309L164.246 156.682L165.374 154.967Z" fill="#F8A58D"/>
<path d="M162.026 163.648C161.983 163.716 160.862 163.097 159.522 162.265C158.182 161.432 157.13 160.702 157.173 160.633C157.216 160.564 158.337 161.183 159.678 162.015C161.017 162.848 162.068 163.579 162.026 163.648Z" fill="#F68260"/>
<path d="M163.848 161.466C163.806 161.535 162.766 160.984 161.524 160.237C160.283 159.488 159.311 158.826 159.353 158.756C159.395 158.687 160.435 159.237 161.677 159.985C162.918 160.733 163.89 161.396 163.848 161.466Z" fill="#F68260"/>
<path d="M161.364 157.382C161.409 157.299 162.341 157.789 163.424 158.475C164.509 159.167 165.384 159.706 165.362 159.76C165.322 159.856 164.353 159.417 163.269 158.724C162.18 158.036 161.332 157.442 161.364 157.382Z" fill="#F68260"/>
<path d="M173.039 143.07C173.039 143.075 172.991 143.08 172.897 143.085C172.785 143.089 172.648 143.094 172.48 143.1C172.09 143.106 171.555 143.115 170.878 143.127C169.461 143.138 167.454 143.154 164.984 143.174C159.987 143.185 153.124 143.2 145.542 143.217C145.067 143.216 144.596 143.216 144.127 143.216C143.682 143.183 143.278 143.378 143.048 143.726C142.601 144.531 142.161 145.324 141.728 146.104C140.861 147.669 140.025 149.178 139.227 150.617C137.63 153.487 136.19 156.072 134.976 158.251C133.766 160.403 132.782 162.152 132.088 163.386C131.751 163.973 131.485 164.437 131.29 164.774C131.204 164.919 131.133 165.037 131.076 165.132C131.026 165.212 130.999 165.252 130.995 165.249C130.99 165.247 131.009 165.202 131.05 165.117C131.1 165.018 131.162 164.896 131.239 164.746C131.421 164.401 131.671 163.928 131.989 163.33C132.663 162.084 133.619 160.321 134.795 158.15C135.993 155.961 137.414 153.365 138.992 150.485C139.784 149.043 140.616 147.531 141.478 145.962C141.912 145.177 142.355 144.377 142.804 143.565C143.078 143.127 143.634 142.88 144.127 142.924C144.596 142.924 145.067 142.923 145.542 142.923C153.124 142.94 159.987 142.955 164.984 142.966C167.454 142.986 169.461 143.002 170.878 143.013C171.555 143.024 172.09 143.034 172.48 143.04C172.649 143.046 172.785 143.051 172.897 143.055C172.991 143.06 173.039 143.065 173.039 143.07Z" fill="#17282F"/>
<path d="M152.156 153.423C151.631 154.003 151.619 154.846 152.127 155.305C152.636 155.763 153.474 155.665 153.998 155.084C154.522 154.503 154.535 153.661 154.026 153.201C153.517 152.743 152.679 152.842 152.156 153.423Z" fill="white"/>
<path d="M79.3718 147.081C78.72 146.699 77.9193 146.329 77.0175 146.065C75.9702 145.762 74.9612 145.652 74.1311 145.652C73.8761 145.652 73.6379 145.662 73.4207 145.68C72.7052 145.739 72.2137 145.856 72.0297 145.919C71.646 145.964 71.2543 146.03 70.8542 146.118C70.6545 146.162 69.9649 146.445 69.6991 146.445C69.6805 146.445 69.6636 146.444 69.6489 146.441C69.4345 146.395 69.2296 146.217 69.2325 145.998C69.2347 145.727 69.5214 145.559 69.7731 145.458C70.9282 144.993 72.3214 144.76 73.6932 144.76C76.1762 144.76 78.5874 145.524 79.382 147.056C79.3786 147.065 79.3752 147.073 79.3718 147.081ZM78.3453 146.862C77.0965 146.412 75.9036 146.078 74.6864 145.93C75.3715 145.99 76.1412 146.117 76.9357 146.347C77.4391 146.494 77.9114 146.671 78.3453 146.862Z" fill="#CC4341"/>
<path d="M79.3263 147.232C78.9945 147.101 78.6677 146.978 78.3449 146.862C77.911 146.671 77.4387 146.494 76.9353 146.347C76.1408 146.117 75.3711 145.99 74.686 145.93C74.2312 145.874 73.7736 145.845 73.308 145.845C72.8887 145.845 72.4638 145.868 72.0293 145.919C72.2133 145.856 72.7048 145.739 73.4203 145.68C73.6376 145.662 73.8757 145.652 74.1308 145.652C74.9608 145.652 75.9698 145.762 77.0172 146.065C77.9189 146.329 78.7196 146.699 79.3714 147.081C79.3342 147.176 79.3184 147.228 79.3263 147.232ZM79.3584 147.199C79.372 147.18 79.39 147.152 79.4115 147.117C79.4149 147.123 79.4177 147.129 79.4205 147.135L79.3584 147.199Z" fill="#0F191D"/>
<path d="M79.3262 147.232C79.3183 147.228 79.3341 147.176 79.3714 147.081C79.3747 147.073 79.3781 147.065 79.3815 147.056C79.3917 147.077 79.4018 147.096 79.4114 147.117C79.39 147.152 79.3719 147.18 79.3584 147.199L79.3262 147.232Z" fill="#0F191D"/>
<path d="M53.9847 80.1578C54.0821 80.2554 72.8205 73.817 72.8205 73.817L65.6155 57.2883L48.9355 63.663L58.1108 68.9332L53.9847 80.1578Z" fill="#33535F"/>
<path d="M62.7754 62.2686V39.7634C62.7754 39.7634 88.6254 35.0393 107.249 35.3173C125.872 35.5954 145.052 38.6511 145.052 38.6511V60.2576C145.052 60.2576 86.6803 55.0449 62.7754 62.2686Z" fill="#33535F"/>
<path d="M62.6406 62.2877L72.8212 73.9146V60.2576C72.8212 60.2576 64.3059 61.2758 62.6406 62.2877Z" fill="#17282F"/>
<path d="M62.7736 39.7619C62.8548 39.7625 62.8904 44.8059 62.8537 51.0249C62.8165 57.2462 62.7205 62.2874 62.6393 62.2874C62.558 62.2862 62.5225 57.2445 62.5597 51.0232C62.5969 44.8037 62.6929 39.7613 62.7736 39.7619Z" fill="#17282F"/>
<path d="M153.812 78.4318C153.715 78.5288 134.977 72.0904 134.977 72.0904L142.182 55.5622L158.862 61.9369L149.686 67.2066L153.812 78.4318Z" fill="#33535F"/>
<path d="M145.157 60.5611L134.977 72.188V59.5193C138.37 59.6327 141.764 59.9796 145.157 60.5611Z" fill="#17282F"/>
<path d="M145.051 38.653C145.132 38.6524 145.221 43.5571 145.251 49.6068C145.28 55.6577 145.238 60.5624 145.156 60.563C145.076 60.563 144.987 55.6594 144.957 49.608C144.927 43.5588 144.969 38.6535 145.051 38.653Z" fill="#17282F"/>
<path d="M77.3529 49.6315C77.104 47.8371 78.3043 46.3621 80.1586 46.1048C81.1879 45.9621 82.0992 46.2171 82.7549 46.8201L81.9835 47.7587C81.5197 47.3548 80.9847 47.1862 80.3894 47.2691C79.2749 47.4237 78.5921 48.3155 78.7478 49.438C78.9036 50.5605 79.8036 51.2335 80.9181 51.0789C81.5135 50.996 81.9824 50.6886 82.3176 50.1657L83.3153 50.8589C82.8492 51.6261 82.0422 52.1191 81.0039 52.2629C79.1581 52.5184 77.6017 51.4258 77.3529 49.6315Z" fill="white"/>
<path d="M88.6538 48.2546C88.537 47.1191 87.6544 46.4247 86.5862 46.5347C85.5185 46.6442 84.7957 47.5038 84.9125 48.6393C85.0293 49.7748 85.9124 50.4692 86.9801 50.3598C88.0477 50.2498 88.7706 49.3907 88.6538 48.2546ZM83.5119 48.7837C83.329 47.0074 84.5773 45.5504 86.4654 45.3564C88.3445 45.1635 89.871 46.3266 90.0544 48.1108C90.2383 49.8955 88.9805 51.3452 87.1014 51.5381C85.2132 51.7322 83.6941 50.5595 83.5119 48.7837Z" fill="white"/>
<path d="M96.8096 50.6631L96.5697 47.0665L94.9953 50.143L94.3701 50.1837L92.4278 47.4101L92.6546 50.9299L91.3522 51.0134L90.9668 45.0189L92.1146 44.945L94.5992 48.5258L96.5697 44.6585L97.7091 44.5852L98.112 50.5791L96.8096 50.6631Z" fill="white"/>
<path d="M103.172 46.5986C103.153 45.938 102.713 45.5635 101.863 45.5877L100.729 45.6193L100.788 47.7047L101.922 47.6726C102.771 47.6489 103.19 47.2506 103.172 46.5986ZM104.579 46.5591C104.617 47.8976 103.636 48.7584 102.031 48.8036L100.82 48.8374L100.866 50.4935L99.4759 50.5325L99.3066 44.5256L101.908 44.4528C103.513 44.4077 104.541 45.2121 104.579 46.5591Z" fill="white"/>
<path d="M105.635 44.3759H107.026V49.2501H110.039V50.3828H105.635V44.3759Z" fill="white"/>
<path d="M115.459 49.4194L115.427 50.5352L110.773 50.3998L110.948 44.3929L115.489 44.5249L115.457 45.6406L112.298 45.5487L112.26 46.8534L115.05 46.9341L115.019 48.0154L112.228 47.9342L112.188 49.3246L115.459 49.4194Z" fill="white"/>
<path d="M118.026 45.8026L116.107 45.687L116.176 44.5566L121.402 44.8719L121.334 46.0023L119.414 45.8867L119.121 50.7507L117.733 50.6672L118.026 45.8026Z" fill="white"/>
<path d="M126.463 50.243L126.361 51.3542L121.727 50.925L122.281 44.9418L126.804 45.3609L126.701 46.4721L123.554 46.1805L123.434 47.4796L126.213 47.7374L126.113 48.8142L123.334 48.5564L123.206 49.9412L126.463 50.243Z" fill="white"/>
<path d="M130.195 50.6853C131.377 50.8427 132.246 50.2402 132.398 49.1008C132.551 47.9613 131.871 47.1519 130.688 46.9945L129.429 46.8258L128.936 50.5166L130.195 50.6853ZM128.202 45.511L130.907 45.8725C132.856 46.1326 134.035 47.4847 133.794 49.2875C133.553 51.0903 132.06 52.0853 130.112 51.8253L127.406 51.4637L128.202 45.511Z" fill="white"/>
<path d="M156.617 40.6994L158.092 42.4333L162.256 40.6994L161.042 38.8779L156.617 40.6994Z" fill="#33535F"/>
<path d="M154.708 32.4614C154.708 33.6584 153.737 34.6292 152.539 34.6292C151.342 34.6292 150.371 33.6584 150.371 32.4614C150.371 31.2644 151.342 30.2936 152.539 30.2936C153.737 30.2936 154.708 31.2644 154.708 32.4614Z" fill="#FF7F00"/>
<path d="M106.167 64.7699C106.167 65.3684 105.681 65.8535 105.083 65.8535C104.483 65.8535 103.998 65.3684 103.998 64.7699C103.998 64.1714 104.483 63.6858 105.083 63.6858C105.681 63.6858 106.167 64.1714 106.167 64.7699Z" fill="#FF7F00"/>
<path d="M55.6884 48.4916C55.6884 48.9457 55.3197 49.3135 54.8654 49.3135C54.4113 49.3135 54.043 48.9457 54.043 48.4916C54.043 48.0375 54.4113 47.6692 54.8654 47.6692C55.3197 47.6692 55.6884 48.0375 55.6884 48.4916Z" fill="#FF7F00"/>
<path d="M52.6309 39.4245L55.0593 39.5723L56.2123 34.803L53.9446 34.8955L52.6309 39.4245Z" fill="#33535F"/>
<path d="M128.475 77.5168L129.291 79.8081L134.132 78.9981L133.158 76.9493L128.475 77.5168Z" fill="#FF7F00"/>
<path d="M79.5013 64.3034L78.0059 66.2218L81.2878 69.8691L82.4943 67.9479L79.5013 64.3034Z" fill="#33535F"/>
<path d="M73.7047 19.2469L79.4374 25.089L87.5018 22.0424L87.8206 24.0421L84.3282 31.1924L87.5475 36.5292L87.2778 38.1221L79.4741 36.8095L74.8609 41.8716L73.7775 41.0491L72.8215 34.6124L65.5409 30.8235L65.2227 29.3552L72.5524 27.3487L73.7047 19.2469Z" fill="#FF7F00"/>
<path d="M74.8609 41.8716L73.7775 41.0491L72.8215 34.6124L65.5409 30.8235L65.2227 29.3552L72.5524 27.3487L73.7047 19.2469L79.4374 25.089L87.5018 22.0424L87.8206 24.0421L84.3282 31.1924L87.5475 36.5292L87.2778 38.1221L79.4741 36.8095L74.8609 41.8716Z" fill="#CC4341"/>
<path d="M73.7047 17.6081L79.4374 23.4503L87.5018 22.0424L83.7153 29.2976L87.5475 36.5291L79.4741 35.1714L73.7775 41.0491L72.5749 32.9539L65.2227 29.3551L72.5524 25.7106L73.7047 17.6081Z" fill="#FF7F00"/>
<path d="M133.098 19.2469L127.366 25.089L119.301 22.0424L118.982 24.0421L122.475 31.1924L119.256 36.5292L119.526 38.1221L127.329 36.8095L131.942 41.8716L133.025 41.0491L133.982 34.6124L141.262 30.8235L141.58 29.3552L134.25 27.3487L133.098 19.2469Z" fill="#FF7F00"/>
<path d="M131.942 41.8716L127.329 36.8095L119.526 38.1221L119.256 36.5292L122.475 31.1924L118.982 24.0421L119.301 22.0424L127.366 25.089L133.098 19.2469L134.25 27.3487L141.58 29.3552L141.262 30.8235L133.982 34.6124L133.025 41.0491L131.942 41.8716Z" fill="#CC4341"/>
<path d="M133.099 17.6081L127.366 23.4503L119.301 22.0424L123.088 29.2976L119.256 36.5291L127.329 35.1714L133.025 41.0491L134.228 32.9539L141.581 29.3551L134.25 25.7106L133.099 17.6081Z" fill="#FF7F00"/>
<path d="M103.213 9.00041L107.982 18.3111L118.982 17.6647L118.609 20.225L111.623 27.6196L113.517 35.3571L112.581 37.1982L103.56 32.6247L96.0028 37.0448L94.9944 35.6284L96.281 27.4115L88.8418 20.0169L89.0128 18.1035L98.7204 18.4471L103.213 9.00041Z" fill="#FF7F00"/>
<path d="M112.581 37.1982L103.56 32.6247L96.0028 37.0448L94.9944 35.6284L96.281 27.4115L88.8418 20.0169L89.0128 18.1035L98.7204 18.4471L103.213 9.00041L107.982 18.3111L118.982 17.6647L118.609 20.225L111.623 27.6196L113.517 35.3571L112.581 37.1982Z" fill="#CC4341"/>
<path d="M103.838 7.00107L108.607 16.3123L118.983 17.6645L111.598 25.0742L113.518 35.3568L104.185 30.6259L94.9953 35.6282L96.6131 25.2942L89.0137 18.1039L99.3454 16.4477L103.838 7.00107Z" fill="#FF7F00"/>
<path d="M122.836 90.55L130.806 91.4278C132.724 88.6976 135.397 86.4464 138.688 85.0311C148.15 80.9601 159.123 85.3283 163.195 94.7874C167.268 104.246 162.898 115.215 153.435 119.286C143.972 123.357 133 118.989 128.927 109.529C127.227 105.58 127.003 101.368 128.003 97.504L127.997 97.5131L122.836 90.55Z" fill="#FAFAF9"/>
<path d="M122.836 90.5501C123.149 90.9647 124.76 93.1003 128.056 97.4697L127.933 97.4776L127.939 97.4685L128.038 97.4398L128.073 97.5227C127.414 100.099 127.16 103.492 128.197 107.153C128.461 108.06 128.781 108.989 129.228 109.893C129.455 110.342 129.67 110.807 129.915 111.263C130.19 111.703 130.47 112.148 130.753 112.599C131.964 114.35 133.54 115.992 135.465 117.328C137.385 118.663 139.65 119.689 142.119 120.229C144.584 120.767 147.255 120.829 149.883 120.264C152.506 119.696 155.082 118.538 157.315 116.823C159.539 115.107 161.467 112.862 162.705 110.21C163.979 107.518 164.661 104.575 164.555 101.7C164.475 98.8263 163.721 96.0488 162.465 93.6215C161.21 91.1943 159.462 89.1044 157.422 87.5424C155.388 85.9703 153.106 84.885 150.815 84.2736C148.52 83.6576 146.219 83.5149 144.078 83.7304C141.931 83.9538 139.981 84.5974 138.238 85.3453C134.764 86.9389 132.371 89.3407 130.864 91.4679L130.798 91.4978C125.756 90.8976 123.329 90.6088 122.836 90.5501C123.33 90.5997 125.761 90.8463 130.813 91.3579L130.749 91.3872C132.249 89.2313 134.648 86.7888 138.152 85.1609C139.91 84.396 141.881 83.7366 144.054 83.5025C146.22 83.2763 148.552 83.4128 150.879 84.0305C153.204 84.6442 155.52 85.7385 157.587 87.3298C159.661 88.9103 161.438 91.0284 162.716 93.4912C163.994 95.9529 164.763 98.7738 164.846 101.693C164.955 104.614 164.264 107.603 162.97 110.337C161.711 113.032 159.753 115.312 157.493 117.053C155.222 118.795 152.607 119.967 149.942 120.541C147.272 121.112 144.56 121.044 142.061 120.493C139.557 119.94 137.263 118.895 135.32 117.535C133.373 116.177 131.78 114.507 130.561 112.729C130.276 112.271 129.995 111.819 129.718 111.374C129.472 110.911 129.256 110.44 129.028 109.984C128.581 109.069 128.261 108.127 127.998 107.209C126.967 103.503 127.246 100.076 127.932 97.4855L128.066 97.5402L128.061 97.5492L127.963 97.5774L127.938 97.5565C124.717 93.1325 123.142 90.9698 122.836 90.5501Z" fill="#17282F"/>
<path d="M139.184 95.5206C139.189 95.5257 139.194 95.6137 139.199 95.779C139.203 95.964 139.207 96.2026 139.214 96.5016C139.221 97.1531 139.233 98.0647 139.247 99.2131C139.263 101.552 139.285 104.849 139.312 108.796L139.184 108.669C143.05 108.663 147.604 108.656 152.463 108.649C152.497 108.617 152.186 108.926 152.318 108.793V108.79V108.783V108.769V108.74V108.683V108.57V108.342V107.889C152.318 107.588 152.318 107.288 152.318 106.989C152.318 106.392 152.318 105.8 152.319 105.214C152.321 104.043 152.322 102.898 152.323 101.783C152.328 99.555 152.333 97.4521 152.337 95.5212L152.464 95.6481C148.516 95.6216 145.217 95.5991 142.878 95.5833C141.729 95.5692 140.817 95.5579 140.165 95.55C139.866 95.5438 139.628 95.5393 139.442 95.5353C139.277 95.5308 139.189 95.5257 139.184 95.5206C139.18 95.5161 139.258 95.5116 139.414 95.5065C139.593 95.5032 139.824 95.4981 140.113 95.4919C140.758 95.484 141.66 95.4727 142.797 95.4586C145.156 95.4428 148.482 95.4208 152.464 95.3937L152.591 95.3932L152.591 95.5212C152.596 97.4521 152.601 99.555 152.607 101.783C152.608 102.898 152.608 104.043 152.61 105.214C152.61 105.8 152.611 106.392 152.611 106.989C152.611 107.288 152.611 107.588 152.611 107.889V108.342V108.57V108.683V108.74V108.769V108.783V108.79V108.793C152.743 108.663 152.433 108.975 152.463 108.942C147.604 108.936 143.05 108.929 139.184 108.923H139.057L139.058 108.796C139.084 104.816 139.106 101.49 139.122 99.1319C139.136 97.9958 139.147 97.0939 139.155 96.4491C139.162 96.1603 139.166 95.9296 139.17 95.7508C139.175 95.5945 139.18 95.5161 139.184 95.5206Z" fill="#17282F"/>
<path d="M151.031 97.7155C151.222 97.8666 149.435 100.438 147.04 103.459C146.562 104.062 146.096 104.637 145.663 105.16L145.38 105.503L145.061 105.217C142.988 103.35 141.58 101.916 141.707 101.769C141.835 101.621 143.459 102.805 145.609 104.584L145.007 104.641C145.417 104.1 145.871 103.515 146.35 102.912C148.744 99.8911 150.84 97.5648 151.031 97.7155Z" fill="#FF7F00"/>
</g>
<defs>
<clipPath id="clip0">
<rect width="228" height="254" fill="white"/>
</clipPath>
</defs>
</svg>
