<svg width="16" height="16" viewBox="0 0 16 16" fill="none" xmlns="http://www.w3.org/2000/svg">
<g clip-path="url(#clip0)">
<path d="M10.8667 9.39464C12.6592 6.86335 12.0597 3.35826 9.52843 1.56611C6.99714 -0.226051 3.49205 0.373048 1.69989 2.90476C-0.0922655 5.43605 0.506833 8.94071 3.03855 10.7329C4.84527 12.012 7.23395 12.1105 9.13959 10.9851L13.2802 15.1009C13.7273 15.5715 14.4711 15.5903 14.9417 15.1432C15.4124 14.6966 15.4312 13.9528 14.9846 13.4821C14.9704 13.4671 14.9567 13.4534 14.9417 13.4393L10.8667 9.39464ZM6.27985 9.77834C4.27957 9.77877 2.65785 8.15833 2.65657 6.15805C2.65614 4.15777 4.27657 2.53605 6.27728 2.5352C8.27499 2.53434 9.89585 4.15221 9.89971 6.14992C9.90313 8.15062 8.28355 9.77491 6.28242 9.77834C6.28156 9.77834 6.28113 9.77834 6.27985 9.77834Z" fill="white"/>
</g>
<defs>
<clipPath id="clip0">
<rect width="14.9333" height="14.9333" fill="white" transform="translate(0.533333 0.533203)"/>
</clipPath>
</defs>
</svg>
