<svg width="86" height="120" viewBox="0 0 86 120" fill="none" xmlns="http://www.w3.org/2000/svg">
<path d="M64.3244 25.0664H52.7856C52.7698 24.9837 52.7541 24.901 52.7383 24.8183L71.0075 5.36378C72.1299 6.05296 73.5988 5.96238 74.5755 4.98965C75.7136 3.84758 75.7136 1.99664 74.5755 0.854575C73.4295 -0.283556 71.5825 -0.283556 70.4443 0.854575C69.4677 1.83518 69.3771 3.30018 70.0663 4.4265L51.2379 22.1049C50.3557 21.3173 49.2255 20.8014 47.9613 20.8014H38.0253C36.7572 20.8014 35.627 21.3173 34.7448 22.1049L15.9164 4.4265C16.6056 3.30018 16.519 1.83518 15.5423 0.854575C14.4002 -0.283556 12.5493 -0.283556 11.4111 0.854575C10.2691 1.99664 10.2691 3.84758 11.4111 4.98965C12.3878 5.96238 13.8528 6.05296 14.9791 5.36378L33.2483 24.8183C33.2325 24.901 33.2129 24.9877 33.1971 25.0664H21.6583C9.92252 25.0664 0.325195 34.6677 0.325195 46.4035V89.0735C0.325195 99.8405 8.43389 108.713 18.8307 110.123L16.2 118.984C15.8692 120.106 16.2551 120.335 17.0624 119.484L25.6594 110.411H60.335L68.936 119.484C69.7433 120.335 70.1293 120.106 69.7985 118.984L67.1678 110.123C77.5685 108.721 85.6732 99.8484 85.6732 89.0735V46.4035C85.6614 34.6677 76.0602 25.0664 64.3244 25.0664ZM42.9913 108.544C41.0695 108.544 39.5139 106.984 39.5139 105.062C39.5139 103.141 41.0734 101.581 42.9913 101.581C44.9092 101.581 46.4687 103.141 46.4687 105.062C46.4687 106.984 44.9132 108.544 42.9913 108.544ZM79.2619 81.6068C79.2619 91.5743 71.0981 99.7381 61.1306 99.7381H24.86C14.8885 99.7381 6.72472 91.5743 6.72472 81.6068V49.6012C6.72472 39.6298 14.8885 31.4699 24.86 31.4699H61.1306C71.0981 31.4699 79.2619 39.6298 79.2619 49.6012V81.6068Z" fill="#000285"/>
<path d="M22.3892 62.6878H28.6784V77.7158H34.8456V62.6878H41.1309V57.7611H22.3892V62.6878Z" fill="#000285"/>
<path d="M52.9007 72.1157L48.4111 57.7611H41.9644L49.502 77.7158H56.1851L63.5928 57.7611H57.339L52.9007 72.1157Z" fill="#000285"/>
</svg>
