<svg width="34" height="34" viewBox="0 0 34 34" fill="none" xmlns="http://www.w3.org/2000/svg">
<rect width="34" height="34" rx="8" fill="#000285"/>
<path d="M28 9.9677C27.6123 10.6211 27.1409 11.2199 26.5981 11.7486C26.3603 11.9808 26.1095 12.199 25.847 12.4022C25.847 12.4317 25.847 12.4598 25.847 12.4893C25.8476 15.0721 25.1343 17.6037 23.7877 19.7988C22.4411 21.9939 20.5146 23.7653 18.2253 24.9133C16.266 25.7461 14.1423 26.1085 12.0211 25.9719C9.89988 25.8353 7.83888 25.2035 6 24.1262C6.326 24.1636 6.65383 24.1824 6.98192 24.1824C9.04621 24.1857 11.0418 23.4332 12.5994 22.0642C11.6321 21.9993 10.7025 21.6596 9.91776 21.0842C9.13306 20.5088 8.52517 19.721 8.16412 18.8117C8.86192 19.0421 9.61433 19.0411 10.3115 18.8088C9.31402 18.5107 8.42932 17.9141 7.77408 17.0975C7.11885 16.281 6.72385 15.283 6.64117 14.2351C7.11433 14.5424 7.63457 14.7685 8.18081 14.9041C8.45684 14.975 8.73833 15.022 9.02225 15.0447C8.21901 14.4479 7.60406 13.6286 7.25174 12.6861C7.14805 12.4079 7.06893 12.121 7.0153 11.8287C6.82855 10.8464 6.9251 9.83063 7.29346 8.90226C7.61687 9.2718 7.9595 9.62369 8.31989 9.95645C9.18426 10.7546 10.1462 11.4377 11.1822 11.9889C11.9344 12.3907 12.7223 12.7201 13.5355 12.9728C14.1129 13.1528 14.7016 13.2936 15.2976 13.3945C15.6834 13.4592 16.0746 13.506 16.4715 13.5351L16.7497 13.5548C16.733 13.4817 16.7177 13.4142 16.7051 13.3341C16.6968 13.2863 16.6898 13.2385 16.6829 13.1935C16.6829 13.1781 16.6829 13.164 16.6829 13.1485C16.6557 12.9459 16.6422 12.7416 16.6426 12.5371C16.6426 12.42 16.6467 12.3047 16.6551 12.1913C16.745 11.0113 17.2881 9.91355 18.1683 9.13278C18.307 9.00922 18.4533 8.89467 18.6064 8.78981C19.5103 8.16627 20.6084 7.89786 21.6944 8.03505C22.7803 8.17223 23.7793 8.70556 24.5035 9.53477C24.8334 9.45791 25.1585 9.36122 25.4771 9.24522C25.7376 9.15152 25.9921 9.04376 26.2406 8.92194C26.6311 8.73484 27.0068 8.51775 27.3644 8.27256C27.146 8.84833 26.8276 9.38003 26.4242 9.8426C26.2104 10.0892 25.9738 10.3146 25.7177 10.5159C25.6328 10.5833 25.5466 10.6466 25.4576 10.707C25.5522 10.7183 25.6481 10.7253 25.7455 10.7281H25.9305C26.1328 10.7236 26.3343 10.701 26.5327 10.6607C27.0696 10.5517 27.5728 10.3141 28 9.9677Z" fill="white"/>
</svg>
