<svg width="40" height="39" viewBox="0 0 40 39" fill="none" xmlns="http://www.w3.org/2000/svg">
<g clip-path="url(#clip0)">
<path d="M38.46 6.93164H16.5986V4.64648H17.7412C18.3722 4.64648 18.8838 4.13491 18.8838 3.50391C18.8838 2.8729 18.3722 2.36133 17.7412 2.36133H13.1709C12.5399 2.36133 12.0283 2.8729 12.0283 3.50391C12.0283 4.13491 12.5399 4.64648 13.1709 4.64648H14.3135V6.93164H1.74512C1.11411 6.93164 0.602539 7.44321 0.602539 8.07422V21.7852C0.602539 22.4162 1.11411 22.9277 1.74512 22.9277H14.3135V25.2129H13.1709C12.5399 25.2129 12.0283 25.7245 12.0283 26.3555C12.0283 26.9865 12.5399 27.498 13.1709 27.498H17.7412C18.3722 27.498 18.8838 26.9865 18.8838 26.3555C18.8838 25.7245 18.3722 25.2129 17.7412 25.2129H16.5986V22.9277H38.46C39.091 22.9277 39.6025 22.4162 39.6025 21.7852V8.07422C39.6025 7.44321 39.091 6.93164 38.46 6.93164ZM2.8877 20.6426V9.2168H14.3135V20.6426H2.8877ZM37.3174 20.6426H16.5986V9.2168H37.3174V20.6426Z" fill="#000285"/>
<path d="M10.8857 11.502H6.31543C5.68442 11.502 5.17285 12.0135 5.17285 12.6445C5.17285 13.2755 5.68442 13.7871 6.31543 13.7871H7.45801V17.2148C7.45801 17.8459 7.96958 18.3574 8.60059 18.3574C9.23159 18.3574 9.74316 17.8459 9.74316 17.2148V13.7871H10.8857C11.5167 13.7871 12.0283 13.2755 12.0283 12.6445C12.0283 12.0135 11.5167 11.502 10.8857 11.502Z" fill="#000285"/>
<path d="M38.46 29.7832H1.74512C1.11411 29.7832 0.602539 30.2948 0.602539 30.9258C0.602539 31.5568 1.11411 32.0684 1.74512 32.0684H38.46C39.091 32.0684 39.6025 31.5568 39.6025 30.9258C39.6025 30.2948 39.091 29.7832 38.46 29.7832Z" fill="#000285"/>
<path d="M38.46 34.3535H1.74512C1.11411 34.3535 0.602539 34.8651 0.602539 35.4961C0.602539 36.1271 1.11411 36.6387 1.74512 36.6387H38.46C39.091 36.6387 39.6025 36.1271 39.6025 35.4961C39.6025 34.8651 39.091 34.3535 38.46 34.3535Z" fill="#000285"/>
</g>
<defs>
<clipPath id="clip0">
<rect width="39" height="39" fill="white" transform="translate(0.602539)"/>
</clipPath>
</defs>
</svg>
