<svg width="21" height="21" viewBox="0 0 21 21" fill="none" xmlns="http://www.w3.org/2000/svg">
<path d="M21 5.45508V3.81445H19.5288C19.4511 3.51389 19.3313 3.23023 19.1769 2.96933L20.2185 1.92773L19.0584 0.767648L18.0168 1.80924C17.7481 1.65026 17.4551 1.52841 17.1445 1.45101V0H15.5039V1.46508C15.2134 1.5428 14.9389 1.65953 14.6859 1.80924L13.6444 0.767648L12.4843 1.92773L13.5258 2.96933C13.3715 3.23023 13.2516 3.51389 13.174 3.81445H11.6895V5.45504H13.174C13.2516 5.75564 13.3715 6.03926 13.5258 6.30016L12.4843 7.3418L13.6444 8.50188L14.6859 7.46029C14.9389 7.61 15.2134 7.72673 15.5039 7.80445V9.26953H17.1445V7.81852C17.4551 7.74113 17.7481 7.61927 18.0168 7.46029L19.0584 8.50188L20.2185 7.3418L19.1769 6.3002C19.3313 6.0393 19.4512 5.75564 19.5288 5.45508H21ZM16.3514 6.27539C15.4467 6.27539 14.7107 5.53941 14.7107 4.63477C14.7107 4.28252 14.8227 3.95612 15.0124 3.68849L15.4051 3.29577C15.6728 3.10607 15.9991 2.99414 16.3514 2.99414C17.256 2.99414 17.992 3.73012 17.992 4.63477C17.992 5.53941 17.256 6.27539 16.3514 6.27539Z" fill="white"/>
<path d="M12.371 12.4361C12.9205 12.0257 13.3889 11.5122 13.7464 10.9241L12.536 9.71373C11.9488 10.976 10.6689 11.8535 9.1875 11.8535C7.15206 11.8535 5.49609 10.1976 5.49609 8.16211C5.49609 6.12667 7.15206 4.4707 9.1875 4.4707C9.48211 4.4707 9.76873 4.50561 10.0436 4.57115L10.0466 2.89964C9.7668 2.85411 9.47994 2.83008 9.1875 2.83008C6.24742 2.83008 3.85547 5.22203 3.85547 8.16211C3.85547 9.89748 4.68895 11.4416 5.97643 12.4159C4.75199 12.8673 3.62923 13.5822 2.67894 14.5325C0.951399 16.26 0 18.5569 0 21H1.64062C1.64062 16.8613 5.00772 13.4941 9.14648 13.4941C13.2852 13.4941 16.6523 16.8613 16.6523 21H18.293C18.293 18.5569 17.3416 16.26 15.614 14.5325C14.6778 13.5963 13.5742 12.8886 12.371 12.4361Z" fill="white"/>
</svg>
