<svg width="33" height="23" viewBox="0 0 33 23" fill="none" xmlns="http://www.w3.org/2000/svg">
<path d="M31.3077 0.5H1.69235C0.761514 0.5 0 1.26151 0 2.19228V20.8077C0 21.7384 0.761514 22.5 1.69235 22.5H31.3077C32.2384 22.5 33.0001 21.7385 33.0001 20.8077V2.19228C33 1.26151 32.2385 0.5 31.3077 0.5ZM30.6726 1.76915L17.4735 11.6693C17.2362 11.8499 16.8719 11.9629 16.4999 11.9612C16.128 11.9629 15.7638 11.8499 15.5264 11.6693L2.32734 1.76915H30.6726ZM23.6221 12.3225L30.8144 21.2072C30.8216 21.2161 30.8304 21.2228 30.8381 21.2309H2.16189C2.16949 21.2225 2.17839 21.2161 2.18561 21.2072L9.37793 12.3225C9.5983 12.0501 9.55653 11.6506 9.28357 11.4298C9.01113 11.2094 8.61171 11.2512 8.39128 11.5237L1.26921 20.3216V2.56244L14.7653 12.6845C15.2726 13.0624 15.8898 13.2287 16.4999 13.2303C17.1091 13.229 17.7268 13.0628 18.2344 12.6845L31.7305 2.56244V20.3215L24.6087 11.5237C24.3882 11.2512 23.9884 11.2093 23.7164 11.4298C23.4435 11.6501 23.4016 12.0501 23.6221 12.3225Z" fill="#B4B4B4"/>
</svg>
