<svg width="83" height="65" viewBox="0 0 83 65" fill="none" xmlns="http://www.w3.org/2000/svg">
<path d="M5.01135 44.7161C5.01135 52.8116 11.5975 59.3977 19.693 59.3977C27.7883 59.3977 34.3744 52.8116 34.3744 44.7161C34.3744 36.6206 27.7883 30.0345 19.693 30.0345C11.5975 30.0344 5.01135 36.6205 5.01135 44.7161ZM31.9498 44.7161C31.9498 51.4746 26.4514 56.9729 19.6931 56.9729C12.9348 56.9729 7.43617 51.4746 7.43617 44.7161C7.43617 37.9577 12.9347 32.4593 19.693 32.4593C26.4513 32.4593 31.9498 37.9575 31.9498 44.7161Z" fill="#A6C5FF"/>
<path d="M80.2128 34.6266C80.2098 34.6203 80.2077 34.6137 80.2047 34.6074L70.3704 14.2194C69.0117 11.4022 66.7549 9.16752 64.0468 7.7912L63.1186 5.86654C61.5727 2.66174 58.2746 0.59111 54.7166 0.59111C49.5731 0.59111 45.3885 4.7757 45.3885 9.91938V13.5012C44.5712 14.9666 44.0083 16.592 43.7595 18.318H39.2408C38.992 16.592 38.4291 14.9664 37.6116 13.5008V9.91938C37.6116 4.77586 33.4271 0.59111 28.2835 0.59111C24.7255 0.59111 21.4276 2.6619 19.8816 5.8667L18.9533 7.7912C16.2453 9.16769 13.9884 11.4024 12.6297 14.2194L10.9264 17.7506C10.6354 18.3535 10.8886 19.0784 11.4915 19.3694C12.0947 19.66 12.8194 19.4074 13.1103 18.8041L14.8137 15.2727C16.7445 11.2695 20.8642 8.68288 25.3088 8.68288C31.7339 8.68288 36.9611 13.91 36.9611 20.3351V35.25C35.8195 33.1692 34.2987 31.287 32.4436 29.7094C31.9335 29.2756 31.1683 29.3376 30.7347 29.8475C30.3008 30.3575 30.3627 31.1228 30.8728 31.5565C34.7421 34.847 36.9611 39.6434 36.9611 44.716C36.9611 54.2376 29.2147 61.9841 19.6931 61.9841C10.1715 61.9841 2.42482 54.2378 2.42482 44.7161C2.42482 35.1945 10.1713 27.4481 19.6929 27.4481C22.168 27.4481 24.5569 27.9603 26.7936 28.9707C27.4032 29.2461 28.1219 28.9752 28.3977 28.3648C28.6733 27.7545 28.402 27.0365 27.7919 26.7609C25.2394 25.6079 22.5146 25.0232 19.6929 25.0232C15.4873 25.0232 11.5859 26.3491 8.38324 28.6039L10.8599 23.4691C11.1509 22.866 10.8978 22.1413 10.2948 21.8503C9.69199 21.56 8.96697 21.8125 8.67599 22.4156L2.79533 34.6074C2.79226 34.6137 2.79015 34.6203 2.78725 34.6266C1.01858 37.5794 0 41.0307 0 44.7161C0 55.5748 8.83409 64.409 19.6929 64.409C30.4148 64.409 39.1617 55.7959 39.3806 45.1256H43.6195C43.8384 55.7959 52.5854 64.409 63.3071 64.409C74.1659 64.409 83 55.5748 83 44.7161C83 41.0307 81.9816 37.5794 80.2128 34.6266ZM68.1865 15.2727L74.6166 28.6036C71.4141 26.349 67.5127 25.0231 63.3071 25.0231C55.8742 25.0231 49.3908 29.1629 46.0392 35.2574V20.3351C46.0392 13.91 51.2663 8.68288 57.6914 8.68288C62.1359 8.68288 66.2555 11.2697 68.1865 15.2727ZM43.6144 42.7008H39.386V20.7426H43.6144V42.7008ZM54.7166 3.01593C57.2307 3.01593 59.5661 4.41472 60.7683 6.60514C59.7685 6.37834 58.7376 6.25823 57.6914 6.25823C53.8461 6.25823 50.3565 7.80866 47.8133 10.3164V9.91938C47.8132 6.11274 50.9101 3.01593 54.7166 3.01593ZM25.3088 6.25807C24.2625 6.25807 23.2317 6.37818 22.2318 6.60498C23.4342 4.41456 25.7697 3.01577 28.2835 3.01577C32.09 3.01577 35.1868 6.11258 35.1868 9.91922V10.3162C32.6437 7.8085 29.154 6.25807 25.3088 6.25807ZM63.3071 61.9842C53.7855 61.9842 46.0392 54.2378 46.0392 44.7161C46.0392 35.1945 53.7855 27.4481 63.3071 27.4481C72.8287 27.4481 80.5752 35.1945 80.5752 44.7161C80.5752 54.2378 72.8287 61.9842 63.3071 61.9842Z" fill="#A6C5FF"/>
<path d="M68.8152 31.1102C68.1947 30.858 67.4873 31.1569 67.2356 31.7772C66.9834 32.3976 67.2822 33.1047 67.9026 33.3567C72.5566 35.2471 75.5639 39.706 75.5639 44.716C75.5639 51.4744 70.0654 56.9728 63.3071 56.9728C56.5488 56.9728 51.0505 51.4744 51.0505 44.716C51.0505 37.9709 56.5378 32.4729 63.283 32.4598C63.9526 32.4585 64.4943 31.9146 64.493 31.245C64.4917 30.5762 63.9492 30.035 63.2806 30.035C63.2798 30.035 63.279 30.035 63.2782 30.035C55.1988 30.0507 48.6255 36.6366 48.6255 44.716C48.6255 52.8115 55.2116 59.3976 63.3069 59.3976C71.4024 59.3976 77.9886 52.8115 77.9886 44.716C77.9887 38.7146 74.388 33.3738 68.8152 31.1102Z" fill="#A6C5FF"/>
</svg>
