<svg width="18" height="18" viewBox="0 0 18 18" fill="none" xmlns="http://www.w3.org/2000/svg">
<g clip-path="url(#clip0)">
<path d="M17.7159 2.98386L17.1759 0.261063C17.1436 0.0985381 16.9858 -0.00702439 16.8232 0.0252256C16.8232 0.0252256 16.8232 0.0252256 16.8231 0.0252631L1.95933 2.98056H1.50003C1.33436 2.98056 1.20003 3.11489 1.20003 3.28056V4.81056C0.500772 4.95186 -0.00150346 5.56716 3.40377e-05 6.28056V16.4806C0.00100904 17.3086 0.672034 17.9796 1.50003 17.9806H17.7C17.8657 17.9806 18 17.8462 18 17.6806V3.28056C17.9985 3.12216 17.8741 2.99223 17.7159 2.98386ZM16.6452 0.672363L17.1036 2.98056H5.03613L16.6452 0.672363ZM0.860134 5.64396L0.861634 5.64516C0.957409 5.55014 1.07295 5.47743 1.20003 5.43216V7.12566C1.19343 7.12356 1.18683 7.12206 1.18023 7.11966C1.1415 7.10425 1.10392 7.0861 1.06773 7.06536C1.04973 7.05546 1.03053 7.04766 1.01313 7.03536C0.959209 7.00143 0.908959 6.96201 0.863134 6.91776C0.511497 6.56643 0.510147 5.99691 0.860134 5.64396ZM17.4 13.7806H13.2V11.3806H17.4V13.7806ZM17.4 10.7806H12.9C12.7344 10.7806 12.6 10.9149 12.6 11.0806V14.0806C12.6 14.2462 12.7344 14.3806 12.9 14.3806H17.4V17.3806H1.50003C1.00297 17.3806 0.600034 16.9776 0.600034 16.4806V7.48056C0.613534 7.49076 0.628534 7.49766 0.642334 7.50726C0.668734 7.52586 0.696034 7.54176 0.723334 7.55856C0.773847 7.58943 0.826159 7.61725 0.879934 7.64196C0.909934 7.65546 0.939934 7.66866 0.969934 7.68006C1.02765 7.70163 1.08667 7.71944 1.14663 7.73346C1.17453 7.74036 1.20153 7.74906 1.22973 7.75416C1.31883 7.77111 1.40932 7.77996 1.50003 7.78056H17.4V10.7806ZM7.52133 7.18056C7.68611 6.03254 8.75032 5.23544 9.89838 5.40021C10.8213 5.53266 11.5463 6.25773 11.6787 7.18056H7.52133ZM17.4 7.18056H12.2823C12.1119 5.69916 10.7728 4.63645 9.29137 4.80693C8.04468 4.9504 7.06117 5.93388 6.91773 7.18056H1.80003V3.58056H17.4V7.18056Z" fill="white"/>
<path d="M16.5 4.18056H14.7V4.78056H16.2V6.28056H16.8V4.48056C16.8 4.31485 16.6657 4.18056 16.5 4.18056Z" fill="white"/>
<path d="M2.70002 4.18056C2.53435 4.18056 2.40002 4.31489 2.40002 4.48056V6.28056H3.00002V4.78056H4.50002V4.18056H2.70002Z" fill="white"/>
<path d="M14.4 12.2806H13.8V12.8806H14.4V12.2806Z" fill="white"/>
</g>
<defs>
<clipPath id="clip0">
<rect width="18" height="18" fill="white"/>
</clipPath>
</defs>
</svg>
