<svg width="675" height="500" viewBox="0 0 675 500" fill="none" xmlns="http://www.w3.org/2000/svg">
<path opacity="0.8" d="M340.327 79H313.472C312.827 79 312.305 79.5227 312.305 80.1676V95.3195C312.305 95.9644 312.827 96.4871 313.472 96.4871H340.327C340.972 96.4871 341.495 95.9644 341.495 95.3195V80.1676C341.495 79.5227 340.972 79 340.327 79Z" fill="#FFB266"/>
<path d="M319.834 116.618H298.562C297.917 116.618 297.395 117.141 297.395 117.786V128.804C297.395 129.449 297.917 129.971 298.562 129.971H319.834C320.479 129.971 321.001 129.449 321.001 128.804V117.786C321.001 117.141 320.479 116.618 319.834 116.618Z" fill="#FFB266"/>
<path d="M355.654 116.618H334.382C333.738 116.618 333.215 117.141 333.215 117.786V128.804C333.215 129.449 333.738 129.971 334.382 129.971H355.654C356.299 129.971 356.822 129.449 356.822 128.804V117.786C356.822 117.141 356.299 116.618 355.654 116.618Z" fill="#FFB266"/>
<path d="M333.63 144.882H323.578C322.933 144.882 322.41 145.405 322.41 146.05V155.122C322.41 155.767 322.933 156.29 323.578 156.29H333.63C334.275 156.29 334.797 155.767 334.797 155.122V146.05C334.797 145.405 334.275 144.882 333.63 144.882Z" fill="#FFB266"/>
<path d="M349.36 144.882H339.308C338.663 144.882 338.141 145.405 338.141 146.05V155.122C338.141 155.767 338.663 156.29 339.308 156.29H349.36C350.005 156.29 350.528 155.767 350.528 155.122V146.05C350.528 145.405 350.005 144.882 349.36 144.882Z" fill="#FFB266"/>
<path d="M365.102 144.882H355.05C354.406 144.882 353.883 145.405 353.883 146.05V155.122C353.883 155.767 354.406 156.29 355.05 156.29H365.102C365.747 156.29 366.27 155.767 366.27 155.122V146.05C366.27 145.405 365.747 144.882 365.102 144.882Z" fill="#FFB266"/>
<path d="M297.22 144.882H287.168C286.523 144.882 286 145.405 286 146.05V155.122C286 155.767 286.523 156.29 287.168 156.29H297.22C297.865 156.29 298.387 155.767 298.387 155.122V146.05C298.387 145.405 297.865 144.882 297.22 144.882Z" fill="#FFB266"/>
<path d="M314.29 144.882H304.238C303.593 144.882 303.07 145.405 303.07 146.05V155.122C303.07 155.767 303.593 156.29 304.238 156.29H314.29C314.935 156.29 315.458 155.767 315.458 155.122V146.05C315.458 145.405 314.935 144.882 314.29 144.882Z" fill="#FFB266"/>
<path d="M343.669 116.618H345.011V107.224H327.564V96.4871H326.222V107.224H308.775V116.618H310.117V108.566H343.669V116.618Z" fill="#FFB266"/>
<path d="M308.777 138.091H291.33V144.802H292.672V139.433H308.777V144.802H310.119V130.039H308.777V138.091Z" fill="#FFB266"/>
<path d="M345.011 139.433V130.039H343.669V139.433H327.564V144.802H328.907V140.775H343.669V144.802H345.011V140.775H359.774V144.802H361.116V139.433H345.011Z" fill="#FFB266"/>
<path d="M39.9004 138.459V148.149L44.866 148.618C45.5322 151.794 46.7886 154.817 48.5701 157.53L45.376 161.381L52.1937 168.199L56.0454 165.005C58.755 166.792 61.7789 168.049 64.9568 168.709L65.3996 173.648H75.0357L75.5054 168.682C78.6833 168.022 81.7071 166.765 84.4167 164.978L88.2684 168.172L95.0861 161.355L91.9054 157.543C93.6869 154.831 94.9434 151.808 95.6095 148.632L100.575 148.162V138.526L95.6095 138.056C94.9458 134.884 93.6891 131.865 91.9054 129.158L95.0996 125.307L88.2818 118.489L84.4301 121.67C81.7177 119.888 78.6949 118.632 75.5188 117.966L75.0491 113H65.3996L64.9299 117.966C61.7538 118.632 58.7311 119.888 56.0186 121.67L52.1669 118.489L45.3492 125.307L48.5433 129.158C46.7597 131.865 45.503 134.884 44.8392 138.056L39.9004 138.459ZM70.2445 130.232C72.8277 130.232 75.353 130.998 77.5007 132.434C79.6484 133.869 81.3221 135.909 82.3101 138.296C83.298 140.683 83.5559 143.309 83.0509 145.843C82.546 148.376 81.3009 150.703 79.4733 152.529C77.6458 154.354 75.3178 155.597 72.7838 156.099C70.2499 156.602 67.6238 156.341 65.238 155.351C62.8521 154.36 60.8136 152.685 59.3804 150.535C57.9471 148.386 57.1835 145.86 57.1862 143.277C57.1898 139.818 58.5653 136.502 61.0109 134.057C63.4565 131.611 66.7725 130.236 70.2311 130.232H70.2445Z" fill="#CEDAF2"/>
<path d="M46.1115 208.81C48.6001 208.287 50.9677 207.299 53.0902 205.898L56.1098 208.408L61.4781 203.039L58.9819 200.02C60.3763 197.895 61.3597 195.528 61.8808 193.041L65.7727 192.665V185.109L61.8808 184.747C61.3621 182.259 60.3786 179.891 58.9819 177.768L61.4781 174.749L56.1098 169.38L53.0902 171.877C50.967 170.48 48.5994 169.496 46.1115 168.978L45.7491 165.086H38.1933L37.8309 168.978C35.343 169.496 32.9754 170.48 30.8522 171.877L27.8191 169.434L22.4509 174.802L24.9471 177.822C23.5504 179.945 22.5669 182.313 22.0483 184.801L18.1562 185.163V192.719L22.0483 193.095C22.5694 195.582 23.5526 197.949 24.9471 200.073L22.4509 203.066L27.8191 208.434L30.8388 205.925C32.9612 207.326 35.3289 208.314 37.8175 208.837L38.1799 212.716H45.7357L46.1115 208.81ZM31.738 188.921C31.7353 186.895 32.3336 184.914 33.4572 183.228C34.5807 181.542 36.1791 180.228 38.05 179.451C39.9208 178.674 41.9802 178.469 43.9674 178.863C45.9547 179.256 47.7805 180.23 49.2139 181.662C50.6473 183.093 51.6239 184.918 52.0201 186.905C52.4163 188.891 52.2143 190.951 51.4397 192.823C50.6651 194.695 49.3526 196.295 47.6683 197.421C45.9841 198.546 44.0037 199.147 41.9779 199.147C39.2644 199.147 36.6619 198.07 34.7419 196.153C32.8219 194.235 31.7415 191.634 31.738 188.921Z" fill="#CEDAF2"/>
<path d="M29.2571 167.917L31.7935 170.011L36.2895 165.528L34.1824 162.992C35.3593 161.208 36.188 159.219 36.625 157.127L39.8862 156.818V150.484L36.625 150.175C36.188 148.084 35.3593 146.094 34.1824 144.31L36.2895 141.774L31.8472 137.291L29.3107 139.385C27.5308 138.211 25.5458 137.382 23.4593 136.942L23.1506 133.681H16.8027L16.494 136.942C14.4025 137.379 12.4126 138.208 10.6292 139.385L8.09266 137.291L3.61016 141.774L5.70378 144.31C4.53138 146.095 3.70718 148.084 3.27464 150.175L0 150.484V156.818L3.27464 157.127C3.70718 159.218 4.53138 161.208 5.70378 162.992L3.55651 165.595L8.039 170.078L10.5755 167.984C12.3568 169.162 14.3478 169.987 16.4403 170.413L16.749 173.688H23.097L23.4056 170.413C25.498 169.964 27.4845 169.116 29.2571 167.917ZM11.327 153.651C11.327 151.952 11.8308 150.292 12.7746 148.879C13.7184 147.467 15.0598 146.366 16.6293 145.716C18.1988 145.066 19.9258 144.895 21.592 145.227C23.2581 145.558 24.7886 146.376 25.9898 147.578C27.191 148.779 28.009 150.309 28.3405 151.975C28.6719 153.642 28.5018 155.369 27.8517 156.938C27.2016 158.508 26.1007 159.849 24.6882 160.793C23.2757 161.737 21.615 162.24 19.9163 162.24C17.6383 162.24 15.4535 161.335 13.8428 159.725C12.232 158.114 11.327 155.929 11.327 153.651Z" fill="#CEDAF2"/>
<path d="M547.12 103H457V161.608H547.12V103Z" fill="#3C60A6"/>
<path d="M543.806 113.991H460.289V158.682H543.806V113.991Z" fill="white"/>
<path d="M528.88 120.675H467.092V122.594H528.88V120.675Z" fill="#3C60A6"/>
<path d="M496.738 126.553H467.092V128.472H496.738V126.553Z" fill="#3C60A6"/>
<path d="M504.428 132.445H467.092V134.364H504.428V132.445Z" fill="#3C60A6"/>
<path d="M480.244 138.337H467.092V140.256H480.244V138.337Z" fill="#3C60A6"/>
<path d="M475.614 144.228H467.092V146.147H475.614V144.228Z" fill="#3C60A6"/>
<path d="M338.516 500C482.228 500 598.729 493.198 598.729 484.808C598.729 476.417 482.228 469.616 338.516 469.616C194.804 469.616 78.3027 476.417 78.3027 484.808C78.3027 493.198 194.804 500 338.516 500Z" fill="#CEDAF2"/>
<path d="M451.758 484.808H461.622L475.043 410.672H465.178L451.758 484.808Z" fill="#1D2436"/>
<path opacity="0.2" d="M451.758 484.808H461.622L475.043 410.672H465.178L451.758 484.808Z" fill="white"/>
<path opacity="0.2" d="M451.758 484.808H458.938L472.358 410.672H465.178L451.758 484.808Z" fill="white"/>
<path d="M423.991 432.722H463.434C463.72 432.724 464.003 432.669 464.268 432.56C464.533 432.452 464.773 432.292 464.975 432.089C465.177 431.887 465.337 431.647 465.446 431.382C465.555 431.118 465.61 430.834 465.608 430.548C465.61 430.262 465.555 429.979 465.446 429.714C465.337 429.449 465.177 429.209 464.975 429.007C464.773 428.805 464.533 428.644 464.268 428.536C464.003 428.427 463.72 428.372 463.434 428.374H423.991C423.705 428.372 423.421 428.427 423.156 428.536C422.892 428.644 422.652 428.805 422.449 429.007C422.247 429.209 422.087 429.449 421.978 429.714C421.87 429.979 421.815 430.262 421.816 430.548C421.815 430.834 421.87 431.118 421.978 431.382C422.087 431.647 422.247 431.887 422.449 432.089C422.652 432.292 422.892 432.452 423.156 432.56C423.421 432.669 423.705 432.724 423.991 432.722Z" fill="#1D2436"/>
<path d="M419.602 457.55H459.059C459.637 457.547 460.189 457.315 460.597 456.905C461.004 456.495 461.233 455.941 461.233 455.363C461.229 454.787 460.999 454.236 460.592 453.829C460.185 453.422 459.634 453.192 459.059 453.189H419.602C419.026 453.192 418.475 453.422 418.068 453.829C417.661 454.236 417.431 454.787 417.428 455.363C417.428 455.941 417.656 456.495 418.064 456.905C418.471 457.315 419.024 457.547 419.602 457.55Z" fill="#1D2436"/>
<path d="M411.496 484.808H421.36L434.781 410.672H424.917L411.496 484.808Z" fill="#1D2436"/>
<path opacity="0.2" d="M411.496 484.808H421.36L434.781 410.672H424.917L411.496 484.808Z" fill="white"/>
<path opacity="0.2" d="M411.496 484.808H418.676L432.097 410.672H424.917L411.496 484.808Z" fill="white"/>
<path d="M503.226 484.808H493.362L479.941 410.672H489.806L503.226 484.808Z" fill="#1D2436"/>
<path opacity="0.4" d="M503.226 484.808H493.362L479.941 410.672H489.806L503.226 484.808Z" fill="white"/>
<path opacity="0.2" d="M500.542 484.808H493.362L479.941 410.672H487.121L500.542 484.808Z" fill="white"/>
<path d="M485.9 432.722H446.444C445.867 432.722 445.314 432.493 444.906 432.085C444.499 431.678 444.27 431.125 444.27 430.548C444.27 429.971 444.499 429.418 444.906 429.011C445.314 428.603 445.867 428.374 446.444 428.374H485.9C486.477 428.374 487.03 428.603 487.438 429.011C487.846 429.418 488.075 429.971 488.075 430.548C488.075 431.125 487.846 431.678 487.438 432.085C487.03 432.493 486.477 432.722 485.9 432.722Z" fill="#1D2436"/>
<path d="M490.276 457.55H450.832C450.546 457.55 450.262 457.494 449.997 457.384C449.733 457.274 449.492 457.112 449.29 456.909C449.088 456.706 448.928 456.464 448.82 456.199C448.711 455.934 448.656 455.65 448.658 455.363C448.658 454.786 448.887 454.233 449.295 453.826C449.703 453.418 450.256 453.189 450.832 453.189H490.276C490.852 453.189 491.405 453.418 491.813 453.826C492.221 454.233 492.45 454.786 492.45 455.363C492.452 455.65 492.397 455.934 492.288 456.199C492.18 456.464 492.02 456.706 491.818 456.909C491.616 457.112 491.375 457.274 491.111 457.384C490.846 457.494 490.562 457.55 490.276 457.55Z" fill="#1D2436"/>
<path opacity="0.2" d="M485.9 432.722H446.444C445.867 432.722 445.314 432.493 444.906 432.085C444.499 431.678 444.27 431.125 444.27 430.548C444.27 429.971 444.499 429.418 444.906 429.011C445.314 428.603 445.867 428.374 446.444 428.374H485.9C486.477 428.374 487.03 428.603 487.438 429.011C487.846 429.418 488.075 429.971 488.075 430.548C488.075 431.125 487.846 431.678 487.438 432.085C487.03 432.493 486.477 432.722 485.9 432.722Z" fill="white"/>
<path opacity="0.2" d="M490.276 457.55H450.832C450.546 457.55 450.262 457.494 449.997 457.384C449.733 457.274 449.492 457.112 449.29 456.909C449.088 456.706 448.928 456.464 448.82 456.199C448.711 455.934 448.656 455.65 448.658 455.363C448.658 454.786 448.887 454.233 449.295 453.826C449.703 453.418 450.256 453.189 450.832 453.189H490.276C490.852 453.189 491.405 453.418 491.813 453.826C492.221 454.233 492.45 454.786 492.45 455.363C492.452 455.65 492.397 455.934 492.288 456.199C492.18 456.464 492.02 456.706 491.818 456.909C491.616 457.112 491.375 457.274 491.111 457.384C490.846 457.494 490.562 457.55 490.276 457.55Z" fill="white"/>
<path d="M462.965 484.808H453.1L439.68 410.672H449.544L462.965 484.808Z" fill="#1D2436"/>
<path opacity="0.4" d="M462.965 484.808H453.1L439.68 410.672H449.544L462.965 484.808Z" fill="white"/>
<path opacity="0.2" d="M460.28 484.808H453.1L439.68 410.672H446.86L460.28 484.808Z" fill="white"/>
<path d="M493.644 407.129H422.394C421.512 407.129 420.797 407.844 420.797 408.726V412.605C420.797 413.487 421.512 414.202 422.394 414.202H493.644C494.526 414.202 495.241 413.487 495.241 412.605V408.726C495.241 407.844 494.526 407.129 493.644 407.129Z" fill="#1D2436"/>
<path opacity="0.2" d="M449.477 407.129H422.394C421.512 407.129 420.797 407.844 420.797 408.726V412.605C420.797 413.487 421.512 414.202 422.394 414.202H449.477C450.359 414.202 451.074 413.487 451.074 412.605V408.726C451.074 407.844 450.359 407.129 449.477 407.129Z" fill="white"/>
<path d="M263.831 425.234H173.711V483.842H263.831V425.234Z" fill="#BF5F00"/>
<path d="M260.544 436.225H177.014V480.916H260.544V436.225Z" fill="#FFB266"/>
<path d="M245.605 442.895H183.816V444.814H245.605V442.895Z" fill="white"/>
<path d="M213.463 448.787H183.816V450.706H213.463V448.787Z" fill="white"/>
<path d="M221.153 454.678H183.816V456.598H221.153V454.678Z" fill="white"/>
<path d="M196.969 460.557H183.816V462.476H196.969V460.557Z" fill="white"/>
<path d="M192.339 466.448H183.816V468.368H192.339V466.448Z" fill="white"/>
<path d="M375.195 484.808H301.838L314.252 387.28H362.781L375.195 484.808Z" fill="#0836D9"/>
<path opacity="0.6" d="M375.195 484.808H301.838L310.333 418.08L314.265 387.28H362.768L368.565 432.722L375.195 484.808Z" fill="white"/>
<path opacity="0.1" d="M368.564 432.722L310.332 418.08L314.264 387.28H362.767L368.564 432.722Z" fill="black"/>
<path d="M511.467 146.795H165.563C164.4 146.795 163.249 147.024 162.175 147.47C161.101 147.915 160.126 148.568 159.304 149.39C158.483 150.213 157.832 151.19 157.388 152.264C156.944 153.339 156.717 154.49 156.719 155.653V389.816C156.719 392.162 157.651 394.412 159.309 396.07C160.968 397.729 163.217 398.661 165.563 398.661H511.467C513.813 398.661 516.062 397.729 517.721 396.07C519.379 394.412 520.311 392.162 520.311 389.816V155.68C520.316 154.515 520.092 153.36 519.65 152.283C519.207 151.205 518.557 150.225 517.735 149.4C516.913 148.574 515.937 147.919 514.861 147.472C513.785 147.025 512.632 146.795 511.467 146.795Z" fill="#0836D9"/>
<path opacity="0.7" d="M511.467 146.795H165.563C164.4 146.795 163.249 147.024 162.175 147.47C161.101 147.915 160.126 148.568 159.304 149.39C158.483 150.213 157.832 151.19 157.388 152.264C156.944 153.339 156.717 154.49 156.719 155.653V389.816C156.719 392.162 157.651 394.412 159.309 396.07C160.968 397.729 163.217 398.661 165.563 398.661H511.467C513.813 398.661 516.062 397.729 517.721 396.07C519.379 394.412 520.311 392.162 520.311 389.816V155.68C520.317 154.515 520.092 153.36 519.65 152.283C519.208 151.205 518.557 150.225 517.735 149.4C516.913 148.574 515.937 147.919 514.861 147.472C513.785 147.025 512.632 146.795 511.467 146.795Z" fill="white"/>
<path d="M508.677 155.465H168.369V381.267H508.677V155.465Z" fill="#0836D9"/>
<path d="M400.117 477.48H276.902C276.131 477.48 275.506 478.105 275.506 478.876V483.291C275.506 484.062 276.131 484.687 276.902 484.687H400.117C400.888 484.687 401.512 484.062 401.512 483.291V478.876C401.512 478.105 400.888 477.48 400.117 477.48Z" fill="#0836D9"/>
<path opacity="0.7" d="M400.117 477.48H276.902C276.131 477.48 275.506 478.105 275.506 478.876V483.291C275.506 484.062 276.131 484.687 276.902 484.687H400.117C400.888 484.687 401.512 484.062 401.512 483.291V478.876C401.512 478.105 400.888 477.48 400.117 477.48Z" fill="white"/>
<path opacity="0.2" d="M508.677 155.68H168.369V189.339H508.677V155.68Z" fill="black"/>
<path opacity="0.4" d="M314.198 189.741H168.369V381.267H314.198V189.741Z" fill="white"/>
<path d="M456.297 238.592V241.948H452.941" stroke="white" stroke-miterlimit="10"/>
<path d="M445.855 241.948H335.939" stroke="white" stroke-miterlimit="10" stroke-dasharray="5.28 5.28"/>
<path d="M332.396 241.948H329.041V238.592" stroke="white" stroke-miterlimit="10"/>
<path d="M329.041 232.513V174.764" stroke="white" stroke-miterlimit="10" stroke-dasharray="4.53 4.53"/>
<path d="M329.041 171.731V168.376H332.396" stroke="white" stroke-miterlimit="10"/>
<path d="M339.482 168.376H449.398" stroke="white" stroke-miterlimit="10" stroke-dasharray="5.28 5.28"/>
<path d="M452.941 168.376H456.297V171.731" stroke="white" stroke-miterlimit="10"/>
<path d="M456.295 177.81V235.559" stroke="white" stroke-miterlimit="10" stroke-dasharray="4.53 4.53"/>
<path d="M458.43 166.242H454.176V170.496H458.43V166.242Z" fill="#0836D9" stroke="white" stroke-miterlimit="10"/>
<path d="M458.43 239.827H454.176V244.082H458.43V239.827Z" fill="#0836D9" stroke="white" stroke-miterlimit="10"/>
<path d="M331.163 166.242H326.908V170.496H331.163V166.242Z" fill="#0836D9" stroke="white" stroke-miterlimit="10"/>
<path d="M331.163 239.827H326.908V244.082H331.163V239.827Z" fill="#0836D9" stroke="white" stroke-miterlimit="10"/>
<path d="M394.801 166.242H390.547V170.496H394.801V166.242Z" fill="#0836D9" stroke="white" stroke-miterlimit="10"/>
<path d="M394.801 239.827H390.547V244.082H394.801V239.827Z" fill="#0836D9" stroke="white" stroke-miterlimit="10"/>
<path d="M458.43 203.028H454.176V207.282H458.43V203.028Z" fill="#0836D9" stroke="white" stroke-miterlimit="10"/>
<path d="M331.163 203.028H326.908V207.282H331.163V203.028Z" fill="#0836D9" stroke="white" stroke-miterlimit="10"/>
<path opacity="0.7" d="M444.741 193.083H413.591C412.19 193.083 411.055 194.219 411.055 195.619V203.954C411.055 205.355 412.19 206.49 413.591 206.49H444.741C446.141 206.49 447.277 205.355 447.277 203.954V195.619C447.277 194.219 446.141 193.083 444.741 193.083Z" fill="white"/>
<path opacity="0.7" d="M391.059 193.083H359.91C358.509 193.083 357.373 194.219 357.373 195.619V203.954C357.373 205.355 358.509 206.49 359.91 206.49H391.059C392.46 206.49 393.595 205.355 393.595 203.954V195.619C393.595 194.219 392.46 193.083 391.059 193.083Z" fill="white"/>
<path opacity="0.7" d="M321.953 356.265H290.804C289.403 356.265 288.268 357.4 288.268 358.801V367.136C288.268 368.536 289.403 369.672 290.804 369.672H321.953C323.354 369.672 324.49 368.536 324.49 367.136V358.801C324.49 357.4 323.354 356.265 321.953 356.265Z" fill="white"/>
<path d="M486.211 167.651H497.538" stroke="white" stroke-width="1.5" stroke-linecap="round" stroke-linejoin="round"/>
<path d="M486.211 173.019H497.538" stroke="white" stroke-width="1.5" stroke-linecap="round" stroke-linejoin="round"/>
<path d="M486.211 178.387H497.538" stroke="white" stroke-width="1.5" stroke-linecap="round" stroke-linejoin="round"/>
<path opacity="0.5" d="M305.582 219.428H191.439V333.57H305.582V219.428Z" fill="white"/>
<path d="M239.217 228.755V327.222" stroke="#0836D9" stroke-miterlimit="10"/>
<path d="M288.443 327.222C275.384 327.222 262.86 322.035 253.625 312.8C244.391 303.566 239.203 291.041 239.203 277.982V277.982C239.203 264.926 244.39 252.405 253.621 243.173C262.853 233.941 275.374 228.755 288.43 228.755V228.755" stroke="#0836D9" stroke-miterlimit="10"/>
<path d="M290.577 226.635H286.322V230.889H290.577V226.635Z" fill="white" stroke="#0836D9" stroke-miterlimit="10"/>
<path d="M290.577 325.089H286.322V329.343H290.577V325.089Z" fill="white" stroke="#0836D9" stroke-miterlimit="10"/>
<path d="M241.352 275.862H237.098V280.116H241.352V275.862Z" fill="white" stroke="#0836D9" stroke-miterlimit="10"/>
<path d="M240.318 228.755C240.318 228.973 240.254 229.186 240.133 229.367C240.012 229.547 239.84 229.689 239.639 229.772C239.438 229.855 239.216 229.877 239.003 229.834C238.79 229.792 238.593 229.687 238.44 229.533C238.286 229.379 238.181 229.183 238.138 228.97C238.096 228.756 238.118 228.535 238.201 228.334C238.284 228.133 238.425 227.961 238.606 227.84C238.787 227.719 239 227.655 239.218 227.655C239.508 227.658 239.786 227.775 239.992 227.981C240.198 228.186 240.315 228.464 240.318 228.755Z" fill="white" stroke="#0836D9" stroke-miterlimit="10"/>
<path d="M240.318 327.222C240.318 327.44 240.254 327.652 240.134 327.832C240.013 328.013 239.842 328.154 239.642 328.238C239.442 328.321 239.221 328.344 239.008 328.303C238.795 328.261 238.599 328.158 238.444 328.005C238.29 327.853 238.184 327.658 238.14 327.445C238.096 327.233 238.116 327.012 238.197 326.81C238.278 326.609 238.417 326.436 238.597 326.314C238.776 326.191 238.987 326.125 239.204 326.122C239.35 326.12 239.494 326.147 239.629 326.202C239.765 326.256 239.887 326.337 239.991 326.439C240.095 326.542 240.177 326.664 240.233 326.798C240.289 326.933 240.318 327.077 240.318 327.222Z" fill="white" stroke="#0836D9" stroke-miterlimit="10"/>
<path opacity="0.7" d="M428.34 357.889H393.782C391.134 357.889 388.594 356.837 386.721 354.964C384.849 353.092 383.797 350.552 383.797 347.904C383.797 345.255 384.849 342.716 386.721 340.843C388.594 338.971 391.134 337.919 393.782 337.919H428.34C430.988 337.919 433.528 338.971 435.401 340.843C437.273 342.716 438.325 345.255 438.325 347.904C438.325 350.552 437.273 353.092 435.401 354.964C433.528 356.837 430.988 357.889 428.34 357.889Z" fill="white"/>
<path opacity="0.7" d="M458.697 272.735H351.936C351.355 272.735 350.799 272.504 350.389 272.094C349.979 271.684 349.748 271.127 349.748 270.547C349.759 269.975 349.994 269.43 350.404 269.031C350.813 268.632 351.364 268.41 351.936 268.413H458.684C458.97 268.411 459.254 268.466 459.52 268.575C459.785 268.683 460.026 268.843 460.23 269.045C460.433 269.247 460.594 269.488 460.704 269.752C460.814 270.017 460.871 270.301 460.871 270.587C460.861 271.158 460.627 271.702 460.221 272.104C459.815 272.505 459.268 272.731 458.697 272.735Z" fill="white"/>
<path opacity="0.7" d="M458.697 288.665H351.936C351.649 288.667 351.365 288.612 351.099 288.503C350.834 288.395 350.593 288.235 350.39 288.033C350.186 287.831 350.025 287.59 349.915 287.326C349.805 287.061 349.748 286.777 349.748 286.491C349.748 285.911 349.979 285.354 350.389 284.944C350.799 284.534 351.355 284.303 351.936 284.303H458.684C459.264 284.303 459.82 284.534 460.23 284.944C460.641 285.354 460.871 285.911 460.871 286.491C460.871 287.067 460.642 287.62 460.234 288.028C459.827 288.436 459.274 288.665 458.697 288.665Z" fill="white"/>
<path opacity="0.7" d="M458.699 304.649H392.199C391.621 304.649 391.067 304.42 390.657 304.013C390.247 303.606 390.015 303.053 390.012 302.475C390.012 301.895 390.242 301.338 390.652 300.928C391.063 300.518 391.619 300.287 392.199 300.287H458.685C459.265 300.287 459.822 300.518 460.232 300.928C460.642 301.338 460.873 301.895 460.873 302.475C460.869 303.05 460.639 303.601 460.232 304.008C459.825 304.415 459.274 304.645 458.699 304.649Z" fill="white"/>
<path opacity="0.4" d="M186.662 165.007H179.119V172.549H186.662V165.007Z" fill="black"/>
<path opacity="0.4" d="M199.383 165.007H195.706C194.639 165.007 193.773 165.872 193.773 166.94V170.617C193.773 171.684 194.639 172.549 195.706 172.549H199.383C200.451 172.549 201.316 171.684 201.316 170.617V166.94C201.316 165.872 200.451 165.007 199.383 165.007Z" fill="black"/>
<path opacity="0.4" d="M212.537 165.007H211.892C209.988 165.007 208.443 166.551 208.443 168.456V169.1C208.443 171.005 209.988 172.549 211.892 172.549H212.537C214.442 172.549 215.986 171.005 215.986 169.1V168.456C215.986 166.551 214.442 165.007 212.537 165.007Z" fill="black"/>
<path opacity="0.9" d="M202.229 350.95V348.011L200.726 347.877C200.512 346.923 200.13 346.014 199.599 345.193L200.565 344.025L198.485 341.945L197.317 342.911C196.496 342.38 195.587 341.998 194.633 341.784L194.499 340.281H191.56L191.412 341.784C190.458 342 189.55 342.381 188.728 342.911L187.561 341.945L185.48 344.025L186.447 345.193C185.905 346.008 185.522 346.919 185.319 347.877L183.803 348.011V350.95L185.319 351.098C185.523 352.055 185.906 352.966 186.447 353.782L185.48 354.963L187.561 357.03L188.728 356.063C189.544 356.604 190.455 356.987 191.412 357.191L191.56 358.707H194.499L194.633 357.191C195.591 356.988 196.502 356.605 197.317 356.063L198.485 357.03L200.565 354.963L199.599 353.782C200.135 352.963 200.517 352.054 200.726 351.098L202.229 350.95ZM192.982 353.46C192.186 353.46 191.408 353.224 190.746 352.781C190.084 352.339 189.567 351.71 189.263 350.974C188.958 350.239 188.878 349.429 189.034 348.648C189.189 347.867 189.572 347.15 190.135 346.587C190.699 346.024 191.416 345.64 192.197 345.485C192.978 345.329 193.788 345.409 194.523 345.714C195.259 346.019 195.888 346.535 196.33 347.197C196.773 347.859 197.009 348.637 197.009 349.434C197.009 350.501 196.584 351.526 195.829 352.281C195.074 353.036 194.05 353.46 192.982 353.46Z" fill="white"/>
<path opacity="0.6" d="M214.147 359.244V356.99L212.966 356.869C212.805 356.113 212.505 355.394 212.08 354.748L212.831 353.822L211.208 352.198L210.295 352.963C209.645 352.538 208.921 352.238 208.161 352.078L208.054 350.883H205.745L205.638 352.078C204.878 352.238 204.154 352.538 203.504 352.963L202.591 352.198L200.954 353.822L201.719 354.748C201.294 355.394 200.994 356.113 200.833 356.869L199.652 356.99V359.284L200.833 359.405C200.994 360.161 201.294 360.88 201.719 361.526L200.954 362.452L202.591 364.076L203.504 363.311C204.154 363.736 204.878 364.036 205.638 364.196L205.745 365.377H208.054L208.161 364.196C208.921 364.036 209.645 363.736 210.295 363.311L211.208 364.076L212.831 362.452L212.08 361.526C212.505 360.88 212.805 360.161 212.966 359.405L214.147 359.244ZM206.899 361.217C206.28 361.22 205.675 361.039 205.159 360.697C204.643 360.355 204.24 359.867 204.001 359.296C203.762 358.725 203.698 358.096 203.818 357.488C203.937 356.881 204.233 356.322 204.67 355.884C205.107 355.445 205.664 355.146 206.271 355.024C206.878 354.902 207.507 354.963 208.08 355.2C208.652 355.436 209.141 355.837 209.485 356.351C209.829 356.866 210.013 357.471 210.013 358.09C210.015 358.5 209.936 358.906 209.78 359.286C209.624 359.665 209.395 360.01 209.106 360.3C208.817 360.591 208.473 360.821 208.094 360.979C207.716 361.136 207.31 361.217 206.899 361.217Z" fill="white"/>
<path opacity="0.4" d="M202.23 365.78V363.847L201.237 363.753C201.103 363.118 200.853 362.513 200.498 361.968L201.143 361.204L199.801 359.861L199.022 360.492C198.478 360.138 197.873 359.887 197.237 359.754L197.143 358.761H195.184L195.09 359.754C194.454 359.887 193.849 360.138 193.305 360.492L192.527 359.861L191.184 361.204L191.829 361.968C191.474 362.513 191.224 363.118 191.091 363.753L190.084 363.847V365.78L191.091 365.874C191.221 366.514 191.472 367.125 191.829 367.672L191.184 368.437L192.527 369.779L193.305 369.135C193.845 369.499 194.452 369.755 195.09 369.887L195.184 370.88H197.116L197.21 369.887C197.849 369.755 198.455 369.499 198.995 369.135L199.774 369.779L201.116 368.437L200.472 367.672C200.829 367.125 201.079 366.514 201.21 365.874L202.23 365.78ZM196.15 367.431C195.636 367.418 195.136 367.253 194.715 366.957C194.293 366.662 193.969 366.249 193.781 365.77C193.593 365.29 193.551 364.766 193.659 364.263C193.767 363.76 194.022 363.3 194.39 362.941C194.759 362.581 195.225 362.339 195.731 362.243C196.237 362.147 196.759 362.203 197.234 362.403C197.708 362.603 198.113 362.938 198.397 363.367C198.682 363.796 198.834 364.299 198.834 364.814C198.834 365.163 198.765 365.509 198.629 365.831C198.493 366.153 198.294 366.444 198.044 366.688C197.794 366.932 197.498 367.124 197.172 367.251C196.847 367.379 196.499 367.44 196.15 367.431Z" fill="white"/>
<path d="M455.518 167.611L461.208 182.83L470.723 173.301L455.518 167.611Z" fill="#0836D9"/>
<path d="M464.682 174.648L462.557 176.773L467.273 181.49L469.399 179.364L464.682 174.648Z" fill="#0836D9"/>
<path opacity="0.4" d="M470.723 173.301L455.518 167.611L461.208 182.83L464.912 179.126L467.261 181.488L469.381 179.367L467.033 177.005L470.723 173.301Z" fill="white"/>
<path d="M222.373 222.005L236.693 227.373L229.191 219.871C228.913 220.03 228.591 220.094 228.273 220.053C227.956 220.012 227.66 219.868 227.433 219.643C227.155 219.365 226.999 218.988 226.999 218.596C226.999 218.203 227.155 217.827 227.433 217.549C227.71 217.271 228.087 217.115 228.479 217.115C228.872 217.115 229.249 217.271 229.526 217.549C229.751 217.777 229.896 218.072 229.937 218.389C229.978 218.707 229.914 219.029 229.754 219.307L237.257 226.809L231.888 212.489L227.137 213.536L226.963 211.832L226.064 210.932L220.803 216.193L221.702 217.093L223.42 217.267L222.373 222.005Z" fill="#1D2436"/>
<path opacity="0.2" d="M222.373 222.005L236.693 227.373L229.191 219.871C228.913 220.03 228.591 220.094 228.273 220.053C227.956 220.012 227.66 219.868 227.433 219.643C227.155 219.365 226.999 218.988 226.999 218.596C226.999 218.203 227.155 217.827 227.433 217.549C227.71 217.271 228.087 217.115 228.479 217.115C228.872 217.115 229.249 217.271 229.526 217.549C229.751 217.777 229.896 218.072 229.937 218.389C229.978 218.707 229.914 219.029 229.754 219.307L237.257 226.809L231.888 212.489L227.137 213.536L226.963 211.832L226.064 210.932L220.803 216.193L221.702 217.093L223.42 217.267L222.373 222.005Z" fill="white"/>
<g opacity="0.1">
<path opacity="0.1" d="M218.132 155.465L167.697 343.918V155.465H218.132Z" fill="white"/>
<path opacity="0.1" d="M275.05 155.465L214.617 381.267H172.986L233.406 155.465H275.05Z" fill="white"/>
<path opacity="0.1" d="M335.577 155.465L275.144 381.267H256.314L316.748 155.465H335.577Z" fill="white"/>
<path opacity="0.1" d="M391.313 155.465L330.88 381.267H324.143L384.576 155.465H391.313Z" fill="white"/>
</g>
<path d="M596.059 205.336C600.823 210.825 625.061 257.515 620.377 268.413C615.693 279.311 576.854 266.749 576.854 266.749L579.175 251.355C579.175 251.355 594.26 251.892 595.71 250.456C597.159 249.02 575.297 227.198 575.297 227.198L596.059 205.336Z" fill="#1D2436"/>
<g opacity="0.2">
<path opacity="0.2" d="M620.351 268.413C619.776 269.674 618.773 270.692 617.52 271.285L616.741 271.634H616.634C616.394 271.735 616.147 271.82 615.896 271.889C614.805 272.239 613.68 272.473 612.541 272.587L611.561 272.681C611.078 272.681 610.595 272.748 610.098 272.761H608.756C595.738 272.761 576.801 266.655 576.801 266.655L579.123 251.261C579.123 251.261 594.208 251.798 595.657 250.362C596.006 250.013 594.973 248.457 593.215 246.336C588.947 241.089 580.398 232.352 576.869 228.782L575.271 227.171L596.06 205.336C600.824 210.771 625.062 257.462 620.351 268.413Z" fill="white"/>
</g>
<path opacity="0.2" d="M617.544 271.245L616.766 271.594H616.659C616.419 271.695 616.172 271.78 615.921 271.849C614.83 272.199 613.705 272.433 612.565 272.547L611.586 272.641C611.103 272.641 610.619 272.708 610.123 272.721H608.781C595.763 272.721 576.826 266.615 576.826 266.615L579.148 251.221C579.148 251.221 596.139 252.657 597.588 251.221C597.856 250.658 595.977 248.752 593.199 246.323C588.932 241.075 580.383 232.338 576.853 228.769L586.677 218.274L594.152 217.468C594.152 217.468 610.7 244.256 617.544 271.245Z" fill="black"/>
<path d="M547.087 203.752C544.403 205.698 543.061 208.463 544.134 209.926L615.049 307.695C616.109 309.158 619.156 308.756 621.84 306.81C624.524 304.864 625.866 302.085 624.792 300.636L553.878 202.853C552.817 201.404 549.784 201.793 547.087 203.752Z" fill="#1D2436"/>
<path opacity="0.7" d="M553.878 202.853L624.792 300.623C625.853 302.072 624.524 304.837 621.84 306.796C619.156 308.756 616.109 309.131 615.063 307.682L544.148 209.899C543.877 209.39 543.757 208.813 543.802 208.238C543.847 207.663 544.056 207.112 544.403 206.651C544.765 206.005 545.217 205.413 545.745 204.893C546.156 204.468 546.605 204.082 547.087 203.739C549.785 201.806 552.818 201.404 553.878 202.853Z" fill="white"/>
<path opacity="0.3" d="M624.792 300.623C625.852 302.072 624.524 304.837 621.839 306.796C619.155 308.756 616.109 309.131 615.062 307.682C614.472 306.877 615.934 305.655 616.793 303.897L544.402 206.678C544.764 206.032 545.216 205.44 545.744 204.92L616.673 302.703C617.089 302.279 617.538 301.889 618.015 301.535C620.699 299.576 623.732 299.173 624.792 300.623Z" fill="black"/>
<path d="M538.312 201.041C536.044 203.457 535.266 206.41 536.581 207.658L624.755 290.208C626.097 291.443 628.983 290.477 631.251 288.048C633.519 285.618 634.297 282.679 632.982 281.418L544.808 198.867C543.493 197.646 540.581 198.626 538.312 201.041Z" fill="#0836D9"/>
<path opacity="0.7" d="M544.807 198.881L632.98 281.431C634.322 282.652 633.517 285.618 631.249 288.048C628.981 290.477 626.069 291.43 624.753 290.208L536.58 207.658C536.22 207.205 535.995 206.661 535.931 206.086C535.867 205.512 535.966 204.931 536.217 204.41C536.458 203.707 536.792 203.039 537.21 202.424C537.542 201.949 537.91 201.5 538.311 201.082C540.579 198.626 543.491 197.646 544.807 198.881Z" fill="white"/>
<path opacity="0.3" d="M632.982 281.431C634.324 282.652 633.518 285.618 631.25 288.048C628.982 290.477 626.07 291.43 624.755 290.208C624.03 289.524 625.238 288.061 625.748 286.182L536.219 204.437C536.46 203.733 536.794 203.065 537.212 202.451L625.399 285.014C625.723 284.538 626.087 284.089 626.486 283.672C628.754 281.163 631.666 280.196 632.982 281.431Z" fill="black"/>
<path d="M559.501 464.489L552.791 464.596C545.96 432.508 541.128 392.796 538.122 362.841C537.652 358.144 537.223 353.701 536.78 349.554C536.606 347.582 536.431 345.689 536.27 343.864C535.465 334.859 534.928 327.759 534.579 323.304C534.338 320.083 534.217 318.311 534.217 318.311H558.616L558.387 324.498L557.582 344.911L557.502 347.246L556.992 360.734L556.146 383.697C564.48 416.04 559.501 464.489 559.501 464.489Z" fill="#F7A955"/>
<path d="M613.989 462.771L607.372 464.019C594.126 430.91 581.685 388.515 573.593 358.895C572.345 354.305 571.19 350.011 570.157 346.119C570.157 345.917 570.063 345.729 570.009 345.542C567.969 337.811 566.399 331.651 565.42 327.746L564.252 323.008L588.141 318.875L589.483 328.94L591.482 343.703L591.872 346.602L593.214 356.681L596.851 383.71C610.647 414.175 613.989 462.771 613.989 462.771Z" fill="#F7A955"/>
<path opacity="0.2" d="M591.55 343.73L570.157 346.119C570.157 345.917 570.063 345.73 570.01 345.542C567.97 337.811 566.4 331.651 565.42 327.746L589.577 328.94L591.55 343.73Z" fill="black"/>
<path opacity="0.2" d="M558.336 324.498L557.584 344.911L557.504 347.246L536.836 349.541C536.661 347.568 536.487 345.676 536.326 343.851C535.521 334.845 534.984 327.746 534.635 323.29L558.336 324.498Z" fill="black"/>
<path d="M539.654 486.794C540.904 485.779 542.327 484.997 543.854 484.486C543.854 484.486 548.431 479.95 550.645 466.287L556.631 464.717C557.648 464.474 558.716 464.549 559.69 464.93C560.664 465.312 561.497 465.982 562.08 466.851C562.245 467.094 562.372 467.361 562.455 467.643C562.765 469.108 562.98 470.592 563.1 472.085C563.435 477.08 563.466 482.091 563.193 487.089H562.106L561.677 477.695C561.516 474.487 559.06 478.245 558.362 481.721C557.664 485.197 556.174 488.821 549.169 488.995C540.982 489.116 537.587 488.794 539.654 486.794Z" fill="#1D2436"/>
<path d="M562.295 467.039C562.685 463.845 562.805 458.289 562.805 458.289L549.492 459.765C549.492 459.765 551.103 466.086 549.774 470.837C556.484 468.998 562.295 467.039 562.295 467.039Z" fill="#1D2436"/>
<path d="M593.817 486.794C595.069 485.784 596.492 485.006 598.018 484.499C598.018 484.499 602.595 479.963 604.796 466.301L610.795 464.73C611.812 464.488 612.879 464.562 613.853 464.944C614.827 465.325 615.661 465.995 616.243 466.864C616.409 467.107 616.535 467.374 616.619 467.656C616.929 469.122 617.144 470.605 617.263 472.098C617.596 477.094 617.623 482.104 617.344 487.103H616.324L615.894 477.708C615.733 474.501 613.277 478.259 612.58 481.734C611.882 485.21 610.392 488.834 603.373 489.008C595.146 489.116 591.751 488.794 593.817 486.794Z" fill="#1D2436"/>
<path d="M616.446 467.039C616.849 463.845 616.97 458.289 616.97 458.289L603.656 459.765C603.656 459.765 605.267 466.086 603.938 470.837C610.648 468.998 616.446 467.039 616.446 467.039Z" fill="#1D2436"/>
<path d="M593.858 337.14L568.534 340.375L567.554 340.495L562.347 321.411L561.005 341.864L533.868 340.442C521.789 269.487 542.444 252.724 542.444 252.724L579.257 260.133C595.925 288.477 591.966 321.411 591.966 321.411L593.858 337.14Z" fill="#EF7700"/>
<path d="M558.992 164.322C558.992 167.114 557.757 169.369 556.308 169.369C554.858 169.369 553.543 167.114 553.543 164.322C553.543 161.531 554.778 159.276 556.308 159.276C557.838 159.276 558.992 161.531 558.992 164.322Z" stroke="#1D2436" stroke-width="0.5" stroke-linecap="round" stroke-linejoin="round"/>
<path d="M577.179 181.179C577.081 181.271 576.973 181.352 576.857 181.42C575.326 182.588 573.579 183.441 571.717 183.93C566.282 185.192 562.564 184.44 560.135 181.984C556.74 178.293 555.894 171.758 556.377 163.866C556.462 160.726 557.041 157.619 558.095 154.66C558.095 154.66 558.095 154.539 558.095 154.512C558.095 154.485 558.176 154.284 558.229 154.176C558.895 152.507 559.968 151.032 561.351 149.885C562.735 148.739 564.384 147.958 566.147 147.614C567.676 147.272 569.238 147.096 570.804 147.09C586.198 146.97 588.963 172.442 577.179 181.179Z" fill="#F7A955"/>
<path opacity="0.2" d="M576.855 181.461C575.312 182.56 573.564 183.341 571.715 183.756C566.279 185.017 562.562 184.091 560.133 181.595C563.386 182.399 566.813 182.117 569.89 180.79C571.026 180.37 572.243 180.213 573.449 180.329C574.655 180.445 575.819 180.832 576.855 181.461Z" fill="black"/>
<path d="M578.413 195.351C579.366 199.726 573.689 201.511 573.689 201.511C564.415 197.485 562.697 192.613 562.697 192.613C570.441 188.587 568.2 177.166 568.2 177.166L569.77 177.944L580.815 180.105C580.815 180.105 577.755 185.983 577.353 187.326C575.259 194.371 578.413 195.351 578.413 195.351Z" fill="#F7A955"/>
<path d="M558.079 154.592C558.079 154.592 557.234 165.329 567.474 170.013C567.474 170.013 571.862 181.219 578.318 181.367C587.135 181.581 594.892 169.06 591.846 156.297C587.86 139.736 562.777 138.394 558.079 154.592Z" fill="#1D2436"/>
<path d="M562.266 166.913C562.266 165.235 563.608 162.403 566.292 162.793C568.976 163.182 570.506 169.865 563.849 171.355C562.843 171.57 562.266 170.442 562.266 166.913Z" fill="#F7A955"/>
<path d="M576.855 143.131C576.855 143.131 566.575 140.528 560.885 144.675C554.241 149.506 551.718 154.499 559.543 162.256C559.543 162.256 576.815 156.659 582.559 157.84C585.917 158.517 589.212 159.474 592.41 160.699C593.658 149.291 582.599 140.796 576.855 143.131Z" fill="#1D2436"/>
<path d="M562.264 164.323C562.264 164.323 564.948 176.75 560.734 187.352C560.734 187.352 585.16 195.821 593.655 191.217C602.151 186.614 594.367 171.167 594.004 162.256C593.642 153.344 589.777 140.179 576.853 143.131C563.929 146.084 562.264 164.323 562.264 164.323Z" fill="#1D2436"/>
<path d="M553.479 163.531H563.799" stroke="#1D2436" stroke-width="0.5" stroke-linecap="round" stroke-linejoin="round"/>
<path opacity="0.2" d="M568.535 340.375L567.555 340.495L562.348 321.411C562.348 321.411 573.514 302.34 570.024 292.409C570.521 293.107 582.546 310.943 568.535 340.375Z" fill="black"/>
<path d="M547.626 194.385C547.626 194.385 559.906 190.01 578.413 195.351C596.92 200.692 597.618 208.57 597.618 208.57C597.618 208.57 585.888 235.157 584.036 265.259L535.802 263.461C535.802 263.461 530.045 220.971 547.626 194.385Z" fill="#1D2436"/>
<path opacity="0.2" d="M597.616 208.57C597.616 208.57 585.887 235.157 584.035 265.259L535.801 263.461C535.224 258.561 534.928 253.632 534.915 248.698C534.82 241.477 535.268 234.258 536.257 227.104C537.867 215.965 541.182 204.074 547.624 194.331C547.624 194.331 559.904 189.956 578.411 195.297C596.918 200.639 597.616 208.57 597.616 208.57Z" fill="white"/>
<path opacity="0.2" d="M546.954 228.97C546.954 228.97 544.955 241.209 534.876 248.752C534.781 241.53 535.229 234.312 536.218 227.158L546.954 228.97Z" fill="black"/>
<path d="M493.66 193.539L487.581 184.521C487.581 184.521 486.655 180.602 485.474 179.716C484.293 178.83 472.617 173.851 471.208 173.878C469.798 173.905 469.866 182.977 471.208 184.521C472.55 186.064 479.985 189.365 481.944 189.701C483.904 190.036 482.937 189.701 482.937 189.701L488.306 200.438L493.66 193.539Z" fill="#F7A955"/>
<path d="M547.625 194.385C534.601 199.839 522.035 206.329 510.048 213.791L490.413 186.95C490.413 186.95 485.125 188.587 483.166 197.794C483.166 197.794 493.245 236.19 506.343 240.002C519.442 243.813 546.981 228.903 546.981 228.903C546.981 228.903 554.953 208.96 547.625 194.385Z" fill="#1D2436"/>
<path opacity="0.2" d="M547.625 194.385C534.601 199.839 522.035 206.329 510.048 213.791L490.413 186.95C490.413 186.95 485.125 188.587 483.166 197.794C483.166 197.794 493.245 236.19 506.343 240.002C519.442 243.813 546.981 228.903 546.981 228.903C546.981 228.903 554.953 208.96 547.625 194.385Z" fill="white"/>
<path d="M560.039 192.694C560.039 192.694 564.32 223.347 577.888 224.581C591.457 225.816 597.536 203.108 595.241 200.424C592.946 197.74 575.459 192.492 560.039 192.694Z" fill="#1D2436"/>
<path opacity="0.3" d="M560.039 192.694C560.039 192.694 564.32 223.347 577.888 224.581C591.457 225.816 597.536 203.108 595.241 200.424C592.946 197.74 575.459 192.492 560.039 192.694Z" fill="white"/>
<path d="M77.2969 474.648H87.2416L88.0602 451.619H78.1155L77.2969 474.648Z" fill="#B97964"/>
<path d="M88.6089 473.494H76.5303C76.3313 473.491 76.1375 473.557 75.9828 473.682C75.8282 473.808 75.7226 473.983 75.6848 474.179L73.7253 483.023C73.684 483.212 73.6804 483.407 73.7148 483.597C73.7491 483.787 73.8208 483.968 73.9256 484.13C74.0304 484.292 74.1663 484.432 74.3254 484.542C74.4845 484.651 74.6637 484.728 74.8527 484.768H75.1748C79.0802 484.701 81.8851 484.459 86.8239 484.459C89.857 484.459 98.9025 484.781 103.143 484.781C107.384 484.781 107.854 480.661 106.15 480.285C98.4865 478.608 92.729 476.259 90.273 474.098C89.8147 473.694 89.22 473.478 88.6089 473.494Z" fill="#1D2436"/>
<path d="M89.2935 474.877C89.2479 474.864 89.207 474.838 89.176 474.802C89.145 474.766 89.1251 474.722 89.119 474.675C89.1106 474.631 89.1164 474.585 89.1357 474.544C89.155 474.503 89.1867 474.469 89.2264 474.447C89.5887 474.219 92.7963 472.246 93.8968 472.81C94.0211 472.868 94.1255 472.961 94.1971 473.078C94.2687 473.195 94.3043 473.33 94.2994 473.467C94.336 473.703 94.3094 473.944 94.2221 474.166C94.1348 474.387 93.9901 474.582 93.8028 474.729C93.2472 475.118 92.5725 475.298 91.8971 475.239C91.0188 475.212 90.1459 475.09 89.2935 474.877ZM89.9779 474.541C91.1383 474.934 92.4048 474.872 93.521 474.367C93.6372 474.261 93.726 474.129 93.7798 473.982C93.8336 473.835 93.8507 473.676 93.8297 473.521C93.8297 473.333 93.7491 473.239 93.682 473.239C93.5867 473.191 93.4803 473.167 93.3734 473.172C92.1651 473.41 91.0129 473.874 89.9779 474.541Z" fill="#0836D9"/>
<path d="M89.2288 474.917C89.1938 474.894 89.1654 474.861 89.1466 474.824C89.1278 474.786 89.1191 474.744 89.1215 474.702C89.1215 474.568 89.3765 471.709 90.4635 470.77C90.5968 470.65 90.7551 470.561 90.9268 470.51C91.0986 470.459 91.2796 470.447 91.4567 470.475C91.6351 470.476 91.8077 470.538 91.9466 470.65C92.0854 470.762 92.1824 470.918 92.2217 471.092C92.423 472.139 90.4367 474.326 89.4033 474.89H89.296L89.2288 474.917ZM90.8259 471.065C90.1295 471.96 89.7222 473.046 89.6583 474.179C90.6783 473.4 91.9398 471.75 91.819 471.105C91.819 471.105 91.819 470.864 91.4701 470.864H91.3627C91.1649 470.862 90.9734 470.933 90.8259 471.065Z" fill="#0836D9"/>
<path opacity="0.2" d="M78.1131 451.632H88.0578L87.6283 463.509H77.6836L78.1131 451.632Z" fill="black"/>
<path d="M128.469 475.387L138.736 476.474L140.655 454.356L130.401 453.269L128.469 475.387Z" fill="#B97964"/>
<path d="M139.81 473.172H127.812C127.614 473.174 127.423 473.242 127.27 473.367C127.116 473.491 127.009 473.664 126.967 473.857L125.007 482.714C124.959 482.9 124.948 483.094 124.976 483.284C125.003 483.474 125.068 483.657 125.167 483.822C125.265 483.987 125.396 484.13 125.55 484.244C125.705 484.358 125.881 484.44 126.067 484.486H126.39C130.295 484.419 133.1 484.177 138.052 484.177C141.072 484.177 150.131 484.486 154.358 484.486C158.586 484.486 159.069 480.366 157.364 479.99C149.701 478.326 143.944 475.964 141.488 473.803C141.027 473.391 140.428 473.166 139.81 473.172Z" fill="#1D2436"/>
<path d="M140.493 474.555C140.448 474.542 140.407 474.516 140.376 474.48C140.345 474.444 140.325 474.4 140.319 474.353C140.309 474.307 140.316 474.259 140.338 474.217C140.36 474.176 140.396 474.143 140.44 474.125C140.789 473.897 143.996 471.924 145.097 472.501C145.221 472.555 145.326 472.646 145.398 472.761C145.47 472.876 145.505 473.01 145.499 473.145C145.532 473.381 145.505 473.622 145.42 473.844C145.336 474.067 145.197 474.265 145.016 474.42C144.45 474.797 143.774 474.972 143.097 474.917C142.219 474.89 141.346 474.768 140.493 474.555ZM141.178 474.232C142.34 474.621 143.606 474.554 144.721 474.045C144.838 473.94 144.927 473.808 144.981 473.661C145.035 473.513 145.052 473.355 145.029 473.199C145.029 473.011 144.949 472.931 144.882 472.931C144.793 472.877 144.69 472.854 144.587 472.864C143.39 473.098 142.25 473.563 141.231 474.232H141.178Z" fill="#0836D9"/>
<path d="M140.439 474.608C140.403 474.586 140.372 474.554 140.351 474.516C140.33 474.479 140.319 474.437 140.318 474.394C140.318 474.246 140.573 471.401 141.728 470.461C141.864 470.346 142.022 470.26 142.193 470.207C142.363 470.154 142.543 470.135 142.721 470.153C142.9 470.152 143.074 470.213 143.213 470.325C143.352 470.438 143.449 470.595 143.486 470.77C143.687 471.83 141.701 474.018 140.667 474.568H140.56L140.439 474.608ZM142.023 470.743C141.327 471.633 140.919 472.715 140.855 473.843C141.875 473.078 143.137 471.414 143.016 470.77C143.016 470.77 143.016 470.528 142.667 470.528H142.573C142.37 470.534 142.176 470.61 142.023 470.743Z" fill="#0836D9"/>
<path opacity="0.2" d="M130.401 453.269L140.654 454.356L139.648 465.764L129.395 464.677L130.401 453.269Z" fill="black"/>
<path d="M82.1829 249.691H134.966C139.972 277.083 155.674 373.994 144.361 460.396L126.498 458.181C126.498 458.181 128.149 343.555 112.393 301.16C110.581 323.841 108.367 347.971 106.555 360.814C101.965 392.42 92.1411 461.469 92.1411 461.469H74.0098C74.0098 461.469 77.7273 395.359 79.4451 364.304C81.324 330.551 82.1829 256.616 82.1829 249.691Z" fill="#1D2436"/>
<path d="M146.453 464.502L124.35 461.214L125.034 455.095L148.024 458.114L146.453 464.502Z" fill="#FF7F00"/>
<path d="M94.3798 461.59H72.9336V455.189L95.185 454.772L94.3798 461.59Z" fill="#FF7F00"/>
<path opacity="0.2" d="M112.447 301.119C115.037 308.549 117.008 316.18 118.339 323.934C119.815 303.803 113.91 282.33 113.91 282.33L112.447 301.119Z" fill="black"/>
<path d="M80.7196 258.871L79.5117 265.246C79.5117 265.246 116.432 270.024 139.395 269.889L138.589 265.514L80.7196 258.871Z" fill="#FF7F00"/>
<path d="M155.646 203.672C155.646 203.672 168.41 243.934 177.12 246.618C185.83 249.302 207.987 216.032 207.987 216.032C207.987 216.032 227.89 215.845 228.776 214.489C229.661 213.134 223.609 199.109 222.159 199.096C220.71 199.082 203.37 205.605 202.713 206.705C202.055 207.806 182.152 226.836 181.24 226.272C180.327 225.709 172.758 201.78 172.758 201.78L155.646 203.672Z" fill="#B97964"/>
<path d="M210.617 213.858C210.776 213.826 210.933 213.786 211.087 213.737L210.859 213.59C210.785 213.685 210.705 213.775 210.617 213.858Z" fill="#B97964"/>
<path d="M148.398 199.028L149.955 201.887L157.216 215.308L158.732 218.086L179.118 211C179.118 211 170.636 179.354 167.697 176.106L148.398 199.028Z" fill="#FFB266"/>
<path opacity="0.2" d="M149.957 201.887L157.218 215.308C161.714 206.49 160.412 194.412 160.412 194.412L149.957 201.887Z" fill="black"/>
<g filter="url(#filter0_d)">
<path d="M167.699 176.119C163.858 171.684 159.155 168.076 153.876 165.515C148.597 162.954 142.853 161.494 136.992 161.222C117.022 160.283 110.741 162.269 103.44 168.792C92.7711 178.32 79.498 260.361 79.498 260.361C98.9704 265.782 119.199 267.981 139.381 266.87C139.381 266.87 139.623 244.055 146.829 228.742C154.946 211.684 161.918 194.104 167.699 176.119Z" fill="#FF7F00"/>
</g>
<path opacity="0.4" d="M79.498 260.361C98.9704 265.783 119.198 267.986 139.381 266.883C139.381 266.883 139.381 264.065 139.77 259.757C139.931 257.717 140.173 255.328 140.508 252.751C140.844 250.175 141.327 247.235 141.85 244.31C142.173 242.739 142.548 241.156 142.951 239.586C143.887 235.858 145.163 232.223 146.762 228.728C147.648 226.849 148.507 224.984 149.339 223.159C150.775 219.965 152.144 216.864 153.365 213.899C156.049 207.658 158.331 201.954 160.237 196.962C161.579 193.378 162.787 190.171 163.766 187.42C164.853 184.346 165.712 181.823 166.343 179.944C167.162 177.461 167.564 176.106 167.564 176.106C166.898 175.271 166.18 174.478 165.417 173.73C157.927 166.348 148.025 161.916 137.529 161.249H136.858C121.639 160.538 114.378 161.518 108.554 164.913C106.676 166.037 104.917 167.35 103.306 168.832C101.791 170.474 100.599 172.386 99.7901 174.469C97.3095 180.237 95.2726 186.186 93.6971 192.264L92.8113 195.526C91.4693 200.505 90.2077 205.806 88.9999 211.174C88.6509 212.704 88.3154 214.234 87.9799 215.751C87.4833 218.086 86.9868 220.408 86.517 222.702C85.3092 228.487 84.2221 234.097 83.2693 239.143C81.9272 246.39 80.8401 252.456 80.1959 256.227C79.753 258.885 79.498 260.361 79.498 260.361ZM138.146 161.987C139.493 162.021 140.837 162.124 142.173 162.296C147.541 163.021 155.794 167.329 155.593 169.369C155.392 171.409 152.251 176.616 144.226 175.354C141.43 174.838 138.776 173.731 136.442 172.107C132.013 169.181 128.792 165.222 128.47 163.933C128.067 162.39 133.275 161.867 138.16 162.014L138.146 161.987Z" fill="white"/>
<path d="M120.941 189.339C120.941 189.339 110.366 214.932 108.191 236.204L136.791 239.854C136.791 239.854 149.621 205.269 152.278 194.452C152.278 194.425 129.436 192.144 120.941 189.339Z" fill="#FF7F00"/>
<path opacity="0.4" d="M146.695 195.432L150.668 195.821L147.756 198.076L146.695 195.432Z" fill="white"/>
<path d="M131.127 164.001C133.288 170.174 141.327 172.992 145.541 173.395C147.093 173.64 148.682 173.368 150.064 172.621C151.446 171.874 152.545 170.694 153.191 169.261C153.191 169.261 148.372 166.859 148.856 164.162C149.197 162.512 149.873 160.95 150.842 159.572C151.344 158.785 151.89 158.028 152.479 157.304L144.762 140.756C143.044 147.923 137.77 161.692 131.127 164.001Z" fill="#B97964"/>
<path opacity="0.2" d="M144.453 148.392C140.776 156.445 145.97 161.987 148.855 164.108C149.197 162.458 149.873 160.896 150.842 159.518L144.453 148.392Z" fill="black"/>
<path d="M170.329 126.906C170.329 126.906 172.798 140.541 165.685 146.003C158.572 151.466 157.848 125.993 157.848 125.993L170.329 126.906Z" fill="#B97964"/>
<path opacity="0.4" d="M170.329 126.906C170.329 126.906 172.798 140.541 165.685 146.003C158.572 151.466 157.848 125.993 157.848 125.993L170.329 126.906Z" fill="black"/>
<path d="M144.897 157.478C146.482 159.689 148.75 161.318 151.352 162.116C153.953 162.914 156.744 162.835 159.297 161.893C162.631 160.723 165.392 158.322 167.014 155.183C167.242 154.767 167.443 154.311 167.645 153.841C170.973 145.373 171.671 124.705 162.706 125.47C155.298 126.101 148.05 123.819 144.266 130.221C143.185 132.042 142.55 134.093 142.414 136.206C141.608 146.084 140.669 151.815 144.897 157.478Z" fill="#B97964"/>
<path d="M156.815 141.091C156.654 141.87 157.03 142.581 157.553 142.662C158.077 142.742 158.587 142.138 158.707 141.32C158.828 140.501 158.479 139.83 157.969 139.763C157.459 139.696 156.936 140.286 156.815 141.091Z" fill="#1D2436"/>
<path d="M165.793 142.366C165.632 143.145 166.021 143.856 166.531 143.937C167.041 144.017 167.564 143.413 167.672 142.595C167.779 141.776 167.457 141.105 166.933 141.024C166.41 140.944 165.9 141.615 165.793 142.366Z" fill="#1D2436"/>
<path d="M162.88 142.353C163.485 144.913 164.437 147.379 165.712 149.681C165.111 149.993 164.448 150.171 163.772 150.201C163.095 150.231 162.42 150.113 161.793 149.855L162.88 142.353Z" fill="#A24E3F"/>
<path d="M154.453 137.79C154.535 137.814 154.622 137.816 154.705 137.795C154.787 137.774 154.863 137.73 154.923 137.669C155.334 137.246 155.837 136.924 156.394 136.728C156.95 136.532 157.545 136.469 158.13 136.542C158.253 136.566 158.38 136.542 158.485 136.474C158.59 136.407 158.665 136.301 158.694 136.179C158.708 136.119 158.709 136.057 158.698 135.997C158.687 135.936 158.664 135.878 158.63 135.827C158.596 135.776 158.552 135.732 158.501 135.698C158.45 135.664 158.392 135.64 158.332 135.629C157.602 135.522 156.858 135.588 156.159 135.821C155.46 136.054 154.825 136.448 154.305 136.971C154.218 137.061 154.17 137.182 154.17 137.307C154.17 137.432 154.218 137.552 154.305 137.642C154.348 137.698 154.398 137.747 154.453 137.79Z" fill="#1D2436"/>
<path d="M170.086 139.816C170.173 139.85 170.268 139.85 170.355 139.816C170.415 139.801 170.47 139.774 170.519 139.736C170.567 139.698 170.607 139.65 170.637 139.596C170.666 139.542 170.683 139.482 170.688 139.421C170.692 139.359 170.684 139.297 170.663 139.239C170.451 138.524 170.069 137.87 169.55 137.332C169.032 136.795 168.392 136.391 167.684 136.153C167.625 136.134 167.563 136.128 167.501 136.135C167.44 136.141 167.38 136.16 167.327 136.19C167.273 136.22 167.225 136.261 167.188 136.31C167.15 136.359 167.122 136.415 167.107 136.475C167.074 136.594 167.089 136.721 167.149 136.829C167.21 136.938 167.31 137.017 167.429 137.052C167.984 137.256 168.484 137.587 168.89 138.018C169.295 138.449 169.594 138.968 169.764 139.535C169.791 139.604 169.834 139.667 169.89 139.716C169.946 139.765 170.014 139.799 170.086 139.816Z" fill="#1D2436"/>
<path d="M155.564 150.204C155.564 150.204 157.215 153.747 160.584 153.613" stroke="#1D2436" stroke-width="0.5" stroke-linecap="round" stroke-linejoin="round"/>
<path d="M151.285 125.121L151.419 129.496C150.654 129.774 150.023 130.331 149.652 131.056C149.281 131.78 149.198 132.618 149.42 133.401C150.466 137.159 147.876 142.608 144.883 144.594C144.883 144.594 144.883 143.011 143.541 143.252C142.199 143.494 141.783 151.734 143.998 155.881C143.998 155.881 139.26 151.519 137.851 142.702C136.509 134.556 136.764 129.389 137.851 125.483L151.285 125.121Z" fill="#B97964"/>
<path opacity="0.4" d="M151.285 125.121L151.419 129.496C150.654 129.774 150.023 130.331 149.652 131.056C149.281 131.78 149.198 132.618 149.42 133.401C150.466 137.159 147.876 142.608 144.883 144.594C144.883 144.594 144.883 143.011 143.541 143.252C142.199 143.494 141.783 151.734 143.998 155.881C143.998 155.881 139.26 151.519 137.851 142.702C136.509 134.556 136.764 129.389 137.851 125.483L151.285 125.121Z" fill="black"/>
<path d="M137.099 130.368C141.889 130.837 146.722 130.543 151.419 129.496C164.934 126.812 170.691 131.777 170.691 131.777C171.626 130.936 172.363 129.898 172.848 128.738C173.333 127.577 173.555 126.324 173.496 125.067C173.107 121.175 167.698 120.518 167.698 120.518C167.698 120.518 166.075 116.129 162.491 114.8C158.908 113.472 155.311 116.8 155.311 116.8C155.311 116.8 150.842 112.479 145.635 113.713C143.882 114.073 142.306 115.024 141.17 116.406C140.034 117.789 139.407 119.52 139.394 121.309C139.394 121.309 133.288 121.927 133.422 125.067C133.556 128.208 137.099 130.368 137.099 130.368Z" fill="#1D2436"/>
<path d="M157.861 146.809C160.285 146.809 162.25 144.543 162.25 141.749C162.25 138.955 160.285 136.689 157.861 136.689C155.437 136.689 153.473 138.955 153.473 141.749C153.473 144.543 155.437 146.809 157.861 146.809Z" stroke="#1D2436" stroke-width="0.5" stroke-linecap="round" stroke-linejoin="round"/>
<path d="M173.281 142.501C173.16 143.341 172.801 144.128 172.245 144.77C171.689 145.411 170.961 145.88 170.146 146.119C169.332 146.358 168.466 146.358 167.651 146.12C166.837 145.881 166.108 145.413 165.552 144.772C164.996 144.13 164.636 143.343 164.514 142.503C164.393 141.663 164.516 140.806 164.868 140.033C165.219 139.261 165.786 138.606 166.5 138.146C167.213 137.687 168.044 137.442 168.893 137.441C170.143 137.537 171.305 138.122 172.126 139.069C172.948 140.017 173.363 141.249 173.281 142.501Z" stroke="#1D2436" stroke-width="0.5" stroke-linecap="round" stroke-linejoin="round"/>
<path d="M162.238 142.353C162.238 142.353 163.661 141.467 164.506 142.501" stroke="#1D2436" stroke-width="0.5" stroke-linecap="round" stroke-linejoin="round"/>
<path d="M153.471 141.749L145.781 140.716C144.773 140.586 143.754 140.861 142.949 141.481L142.613 141.749" stroke="#1D2436" stroke-width="0.5" stroke-linecap="round" stroke-linejoin="round"/>
<path d="M137.018 143.601C137.789 145.961 139.463 147.92 141.675 149.05C144.614 150.513 146.708 148.043 146.412 144.943C146.144 142.178 144.305 138.018 141.044 137.857C140.348 137.834 139.657 137.984 139.034 138.296C138.411 138.607 137.875 139.068 137.475 139.639C137.075 140.209 136.824 140.87 136.744 141.562C136.665 142.254 136.759 142.955 137.018 143.601Z" fill="#B97964"/>
<path opacity="0.2" d="M87.9785 215.791C100.648 210.53 110.659 188.802 110.659 188.802L103.466 184.454L93.6957 192.305L92.8099 195.566C91.4679 200.545 90.2063 205.846 88.9985 211.214C88.6496 212.744 88.314 214.274 87.9785 215.791Z" fill="black"/>
<path d="M157.754 218.099L179.603 210.074L180.234 211.926L158.371 219.71L157.754 218.099Z" fill="#FF7F00"/>
<path d="M101.143 273.327L37.8105 263.285L31.6166 302.348L94.9493 312.39L101.143 273.327Z" fill="#FF9933"/>
<path d="M60.2122 278.157L47.3418 284.827L57.5147 295.147" stroke="white" stroke-width="2" stroke-linecap="round" stroke-linejoin="round"/>
<path d="M72.5059 297.523L85.3629 290.853L75.2034 280.532" stroke="white" stroke-width="2" stroke-linecap="round" stroke-linejoin="round"/>
<path d="M61.9961 295.858L70.7195 279.821" stroke="white" stroke-width="2" stroke-linecap="round" stroke-linejoin="round"/>
<path d="M95.8828 172.294C95.8828 172.294 72.0074 196.25 68.7596 200.907C65.5118 205.564 59.2846 257.194 59.2846 257.194C59.2846 257.194 57.9426 257.65 57.862 258.764C57.7815 259.878 57.6473 274.372 57.862 275.043C58.0768 275.714 69.0549 282.492 70.6788 280.881C72.3027 279.271 74.5573 262.857 74.5573 262.857L68.7596 257.194C68.7596 257.194 75.4699 219.173 79.7243 213.013C83.9786 206.853 101.318 193.674 101.318 193.674L95.8828 172.294Z" fill="#B97964"/>
<path d="M114.232 162.645C117.707 170.013 115.064 185.527 108.649 191.003C101.861 196.632 94.6855 201.775 87.1755 206.396L75.4727 191.056C75.4727 191.056 87.927 178.897 95.4694 171.892C100.599 166.919 107.163 163.684 114.232 162.645Z" fill="#FFB266"/>
<path d="M75.4709 190.077L74.0215 192.05L86.2477 208.034L87.979 206.799L75.4709 190.077Z" fill="#FF7F00"/>
<path d="M391.123 267L327 267.291L327.179 306.841L391.303 306.55L391.123 267Z" fill="#407BFF"/>
<path d="M351.6 296.898C351.316 296.899 351.038 296.809 350.808 296.643L339.119 288.094C338.95 287.97 338.812 287.809 338.716 287.622C338.621 287.436 338.57 287.23 338.568 287.02C338.566 286.81 338.614 286.601 338.707 286.413C338.8 286.224 338.937 286.059 339.105 285.933L350.728 277.277C351.014 277.065 351.373 276.976 351.725 277.028C352.078 277.081 352.395 277.272 352.606 277.559C352.818 277.845 352.908 278.204 352.855 278.556C352.802 278.909 352.611 279.226 352.325 279.437L342.165 287.007L352.392 294.469C352.622 294.635 352.793 294.87 352.881 295.141C352.969 295.411 352.969 295.702 352.881 295.972C352.793 296.242 352.621 296.477 352.391 296.643C352.161 296.81 351.884 296.899 351.6 296.898Z" fill="#FAFAFA"/>
<path d="M366.792 296.817C366.582 296.819 366.374 296.772 366.185 296.679C365.996 296.585 365.832 296.449 365.705 296.28C365.6 296.139 365.524 295.977 365.481 295.806C365.439 295.635 365.43 295.457 365.456 295.282C365.483 295.108 365.543 294.94 365.634 294.789C365.725 294.638 365.845 294.506 365.987 294.401L376.146 286.832L365.92 279.37C365.633 279.159 365.443 278.842 365.39 278.489C365.337 278.137 365.426 277.778 365.638 277.491C365.85 277.205 366.167 277.014 366.519 276.961C366.872 276.908 367.23 276.998 367.517 277.21L379.206 285.745C379.377 285.87 379.516 286.034 379.612 286.223C379.708 286.412 379.757 286.62 379.757 286.832C379.757 287.041 379.708 287.246 379.615 287.432C379.522 287.619 379.386 287.781 379.22 287.906L367.598 296.562C367.364 296.732 367.081 296.821 366.792 296.817Z" fill="#FAFAFA"/>
<path d="M356.136 296.884C355.985 296.883 355.836 296.855 355.694 296.804C355.36 296.685 355.086 296.439 354.933 296.12C354.78 295.801 354.759 295.434 354.875 295.099L360.901 277.867C360.959 277.701 361.049 277.547 361.167 277.416C361.284 277.284 361.427 277.177 361.585 277.1C361.744 277.023 361.917 276.979 362.093 276.969C362.269 276.959 362.445 276.984 362.612 277.042C362.778 277.1 362.932 277.19 363.064 277.308C363.195 277.425 363.302 277.568 363.379 277.726C363.456 277.885 363.5 278.058 363.51 278.234C363.52 278.41 363.495 278.586 363.437 278.753L357.411 295.985C357.319 296.249 357.147 296.478 356.918 296.639C356.689 296.8 356.416 296.886 356.136 296.884Z" fill="#FAFAFA"/>
<defs>
<filter id="filter0_d" x="75.498" y="161.002" width="96.2006" height="114.148" filterUnits="userSpaceOnUse" color-interpolation-filters="sRGB">
<feFlood flood-opacity="0" result="BackgroundImageFix"/>
<feColorMatrix in="SourceAlpha" type="matrix" values="0 0 0 0 0 0 0 0 0 0 0 0 0 0 0 0 0 0 127 0"/>
<feOffset dy="4"/>
<feGaussianBlur stdDeviation="2"/>
<feColorMatrix type="matrix" values="0 0 0 0 0 0 0 0 0 0 0 0 0 0 0 0 0 0 0.25 0"/>
<feBlend mode="normal" in2="BackgroundImageFix" result="effect1_dropShadow"/>
<feBlend mode="normal" in="SourceGraphic" in2="effect1_dropShadow" result="shape"/>
</filter>
</defs>
</svg>
