<svg width="474" height="350" viewBox="0 0 474 350" fill="none" xmlns="http://www.w3.org/2000/svg">
<path opacity="0.8" d="M239.596 55.3H220.761C220.309 55.3 219.942 55.6659 219.942 56.1173V66.7236C219.942 67.175 220.309 67.541 220.761 67.541H239.596C240.049 67.541 240.415 67.175 240.415 66.7236V56.1173C240.415 55.6659 240.049 55.3 239.596 55.3Z" fill="#FFB266"/>
<path d="M225.223 81.6325H210.304C209.852 81.6325 209.485 81.9985 209.485 82.4499V90.1627C209.485 90.6141 209.852 90.98 210.304 90.98H225.223C225.676 90.98 226.042 90.6141 226.042 90.1627V82.4499C226.042 81.9985 225.676 81.6325 225.223 81.6325Z" fill="#FFB266"/>
<path d="M250.346 81.6325H235.426C234.974 81.6325 234.607 81.9985 234.607 82.4499V90.1627C234.607 90.6141 234.974 90.98 235.426 90.98H250.346C250.798 90.98 251.165 90.6141 251.165 90.1627V82.4499C251.165 81.9985 250.798 81.6325 250.346 81.6325Z" fill="#FFB266"/>
<path d="M234.899 101.417H227.849C227.396 101.417 227.03 101.783 227.03 102.235V108.585C227.03 109.037 227.396 109.403 227.849 109.403H234.899C235.351 109.403 235.718 109.037 235.718 108.585V102.235C235.718 101.783 235.351 101.417 234.899 101.417Z" fill="#FFB266"/>
<path d="M245.932 101.417H238.882C238.43 101.417 238.063 101.783 238.063 102.235V108.585C238.063 109.037 238.43 109.403 238.882 109.403H245.932C246.385 109.403 246.751 109.037 246.751 108.585V102.235C246.751 101.783 246.385 101.417 245.932 101.417Z" fill="#FFB266"/>
<path d="M256.973 101.417H249.922C249.47 101.417 249.104 101.783 249.104 102.235V108.585C249.104 109.037 249.47 109.403 249.922 109.403H256.973C257.425 109.403 257.792 109.037 257.792 108.585V102.235C257.792 101.783 257.425 101.417 256.973 101.417Z" fill="#FFB266"/>
<path d="M209.361 101.417H202.311C201.859 101.417 201.492 101.783 201.492 102.235V108.585C201.492 109.037 201.859 109.403 202.311 109.403H209.361C209.814 109.403 210.18 109.037 210.18 108.585V102.235C210.18 101.783 209.814 101.417 209.361 101.417Z" fill="#FFB266"/>
<path d="M221.334 101.417H214.284C213.831 101.417 213.465 101.783 213.465 102.235V108.585C213.465 109.037 213.831 109.403 214.284 109.403H221.334C221.786 109.403 222.153 109.037 222.153 108.585V102.235C222.153 101.783 221.786 101.417 221.334 101.417Z" fill="#FFB266"/>
<path d="M241.94 81.6326H242.882V75.0565H230.645V67.5409H229.703V75.0565H217.466V81.6326H218.408V75.9959H241.94V81.6326Z" fill="#FFB266"/>
<path d="M217.467 96.6638H205.23V101.361H206.172V97.6033H217.467V101.361H218.409V91.0272H217.467V96.6638Z" fill="#FFB266"/>
<path d="M242.882 97.6033V91.0272H241.941V97.6033H230.645V101.361H231.586V98.5427H241.941V101.361H242.882V98.5427H253.236V101.361H254.178V97.6033H242.882Z" fill="#FFB266"/>
<path d="M28.8813 96.9213V103.704L32.3642 104.033C32.8314 106.256 33.7127 108.372 34.9622 110.271L32.7219 112.967L37.5037 117.739L40.2052 115.504C42.1057 116.754 44.2266 117.634 46.4555 118.096L46.7661 121.554H53.5247L53.8541 118.078C56.0831 117.615 58.204 116.736 60.1044 115.485L62.806 117.721L67.5878 112.948L65.3569 110.28C66.6064 108.381 67.4877 106.266 67.9549 104.042L71.4377 103.713V96.9683L67.9549 96.6395C67.4893 94.4186 66.6079 92.3055 65.3569 90.4109L67.5972 87.7147L62.8154 82.9423L60.1138 85.1688C58.2113 83.9218 56.0912 83.0423 53.8636 82.576L53.5341 79.1H46.7661L46.4367 82.576C44.209 83.0423 42.0889 83.9218 40.1864 85.1688L37.4849 82.9423L32.703 87.7147L34.9433 90.4109C33.6923 92.3055 32.8109 94.4186 32.3453 96.6395L28.8813 96.9213ZM50.1642 91.1625C51.9761 91.1625 53.7472 91.6988 55.2536 92.7037C56.76 93.7085 57.9339 95.1366 58.6269 96.8074C59.3198 98.4783 59.5006 100.317 59.1465 102.09C58.7923 103.863 57.919 105.492 56.6372 106.77C55.3554 108.048 53.7226 108.918 51.9453 109.27C50.168 109.621 48.3261 109.439 46.6527 108.746C44.9793 108.052 43.5496 106.879 42.5443 105.375C41.539 103.87 41.0035 102.102 41.0054 100.294C41.0078 97.8729 41.9726 95.5517 43.6879 93.8398C45.4032 92.1278 47.729 91.165 50.1548 91.1625H50.1642Z" fill="#CEDAF2"/>
<path d="M33.2387 146.167C34.9842 145.801 36.6448 145.109 38.1335 144.129L40.2514 145.885L44.0166 142.128L42.2658 140.014C43.2439 138.527 43.9336 136.87 44.299 135.129L47.0288 134.866V129.577L44.299 129.323C43.9353 127.581 43.2455 125.924 42.2658 124.438L44.0166 122.324L40.2514 118.566L38.1335 120.314C36.6443 119.336 34.9837 118.647 33.2387 118.284L32.9846 115.56H27.685L27.4309 118.284C25.6859 118.647 24.0253 119.336 22.5361 120.314L20.4087 118.604L16.6435 122.362L18.3943 124.475C17.4147 125.962 16.7249 127.619 16.3612 129.36L13.6313 129.614V134.903L16.3612 135.166C16.7266 136.907 17.4163 138.564 18.3943 140.051L16.6435 142.146L20.4087 145.904L22.5267 144.147C24.0153 145.128 25.676 145.82 27.4215 146.186L27.6756 148.901H32.9752L33.2387 146.167ZM23.1574 132.245C23.1555 130.826 23.5751 129.44 24.3632 128.26C25.1512 127.08 26.2723 126.159 27.5845 125.616C28.8967 125.072 30.3411 124.928 31.7349 125.204C33.1287 125.479 34.4093 126.161 35.4147 127.163C36.4201 128.165 37.1051 129.443 37.383 130.833C37.6608 132.224 37.5192 133.666 36.9758 134.976C36.4325 136.286 35.512 137.406 34.3307 138.194C33.1494 138.983 31.7604 139.403 30.3395 139.403C28.4363 139.403 26.6109 138.649 25.2643 137.307C23.9176 135.965 23.1599 134.144 23.1574 132.245Z" fill="#CEDAF2"/>
<path d="M21.4165 117.542L23.1955 119.008L26.3489 115.87L24.871 114.094C25.6964 112.846 26.2777 111.453 26.5842 109.989L28.8716 109.773V105.339L26.5842 105.123C26.2777 103.659 25.6964 102.266 24.871 101.017L26.3489 99.2417L23.2332 96.1039L21.4541 97.5695C20.2057 96.7476 18.8134 96.1675 17.35 95.8597L17.1335 93.5768H12.6811L12.4646 95.8597C10.9977 96.1655 9.60197 96.7457 8.35114 97.5695L6.57206 96.1039L3.42811 99.2417L4.89654 101.017C4.07424 102.266 3.49615 103.659 3.19278 105.123L0.895996 105.339V109.773L3.19278 109.989C3.49615 111.452 4.07424 112.845 4.89654 114.094L3.39048 115.917L6.53443 119.055L8.31348 117.589C9.56285 118.414 10.9593 118.991 12.427 119.289L12.6435 121.582H17.0959L17.3123 119.289C18.7799 118.975 20.1732 118.381 21.4165 117.542ZM8.84061 107.556C8.84061 106.367 9.19395 105.204 9.85591 104.215C10.5179 103.227 11.4587 102.456 12.5595 102.001C13.6604 101.546 14.8717 101.427 16.0403 101.659C17.2089 101.891 18.2823 102.463 19.1248 103.304C19.9674 104.145 20.5411 105.216 20.7736 106.383C21.006 107.549 20.8867 108.758 20.4307 109.857C19.9748 110.955 19.2026 111.894 18.2119 112.555C17.2212 113.216 16.0565 113.568 14.865 113.568C13.2672 113.568 11.7349 112.935 10.6051 111.807C9.47531 110.68 8.84061 109.15 8.84061 107.556Z" fill="#CEDAF2"/>
<path d="M384.637 72.1H321.429V113.126H384.637V72.1Z" fill="#3C60A6"/>
<path d="M382.313 79.794H323.735V111.078H382.313V79.794Z" fill="white"/>
<path d="M371.844 84.4725H328.507V85.8159H371.844V84.4725Z" fill="#3C60A6"/>
<path d="M349.3 88.5873H328.507V89.9307H349.3V88.5873Z" fill="#3C60A6"/>
<path d="M354.694 92.7115H328.507V94.0549H354.694V92.7115Z" fill="#3C60A6"/>
<path d="M337.732 96.8357H328.507V98.1791H337.732V96.8357Z" fill="#3C60A6"/>
<path d="M334.484 100.96H328.507V102.303H334.484V100.96Z" fill="#3C60A6"/>
<path d="M238.325 350C339.123 350 420.835 345.239 420.835 339.365C420.835 333.492 339.123 328.731 238.325 328.731C137.528 328.731 55.8159 333.492 55.8159 339.365C55.8159 345.239 137.528 350 238.325 350Z" fill="#CEDAF2"/>
<path d="M317.752 339.366H324.671L334.084 287.47H327.165L317.752 339.366Z" fill="#1D2436"/>
<path opacity="0.2" d="M317.752 339.366H324.671L334.084 287.47H327.165L317.752 339.366Z" fill="white"/>
<path opacity="0.2" d="M317.752 339.366H322.788L332.201 287.47H327.165L317.752 339.366Z" fill="white"/>
<path d="M298.276 302.906H325.941C326.142 302.907 326.341 302.868 326.526 302.792C326.712 302.716 326.881 302.604 327.022 302.463C327.164 302.321 327.276 302.153 327.353 301.968C327.429 301.782 327.467 301.584 327.466 301.384C327.467 301.183 327.429 300.985 327.353 300.8C327.276 300.615 327.164 300.446 327.022 300.305C326.881 300.163 326.712 300.051 326.526 299.975C326.341 299.899 326.142 299.861 325.941 299.862H298.276C298.076 299.861 297.877 299.899 297.691 299.975C297.506 300.051 297.337 300.163 297.195 300.305C297.053 300.446 296.941 300.615 296.865 300.8C296.789 300.985 296.75 301.183 296.751 301.384C296.75 301.584 296.789 301.782 296.865 301.968C296.941 302.153 297.053 302.321 297.195 302.463C297.337 302.604 297.506 302.716 297.691 302.792C297.877 302.868 298.076 302.907 298.276 302.906Z" fill="#1D2436"/>
<path d="M295.199 320.285H322.873C323.278 320.283 323.666 320.12 323.952 319.834C324.238 319.547 324.398 319.159 324.398 318.754C324.396 318.351 324.234 317.966 323.949 317.681C323.663 317.396 323.277 317.235 322.873 317.232H295.199C294.795 317.235 294.409 317.396 294.123 317.681C293.838 317.966 293.676 318.351 293.674 318.754C293.674 319.159 293.834 319.547 294.12 319.834C294.406 320.12 294.793 320.283 295.199 320.285Z" fill="#1D2436"/>
<path d="M289.513 339.366H296.432L305.845 287.47H298.926L289.513 339.366Z" fill="#1D2436"/>
<path opacity="0.2" d="M289.513 339.366H296.432L305.845 287.47H298.926L289.513 339.366Z" fill="white"/>
<path opacity="0.2" d="M289.513 339.366H294.549L303.962 287.47H298.926L289.513 339.366Z" fill="white"/>
<path d="M353.851 339.366H346.933L337.52 287.47H344.438L353.851 339.366Z" fill="#1D2436"/>
<path opacity="0.4" d="M353.851 339.366H346.933L337.52 287.47H344.438L353.851 339.366Z" fill="white"/>
<path opacity="0.2" d="M351.969 339.366H346.933L337.52 287.47H342.556L351.969 339.366Z" fill="white"/>
<path d="M341.699 302.906H314.024C313.62 302.906 313.232 302.745 312.946 302.46C312.66 302.174 312.5 301.787 312.5 301.384C312.5 300.98 312.66 300.593 312.946 300.308C313.232 300.022 313.62 299.862 314.024 299.862H341.699C342.103 299.862 342.491 300.022 342.777 300.308C343.063 300.593 343.224 300.98 343.224 301.384C343.224 301.787 343.063 302.174 342.777 302.46C342.491 302.745 342.103 302.906 341.699 302.906Z" fill="#1D2436"/>
<path d="M344.768 320.285H317.104C316.903 320.285 316.703 320.246 316.518 320.169C316.332 320.092 316.164 319.979 316.022 319.836C315.88 319.694 315.768 319.525 315.692 319.339C315.616 319.154 315.577 318.955 315.579 318.754C315.579 318.35 315.739 317.963 316.025 317.678C316.311 317.392 316.699 317.232 317.104 317.232H344.768C345.173 317.232 345.561 317.392 345.847 317.678C346.133 317.963 346.293 318.35 346.293 318.754C346.295 318.955 346.256 319.154 346.18 319.339C346.104 319.525 345.992 319.694 345.85 319.836C345.708 319.979 345.54 320.092 345.354 320.169C345.169 320.246 344.969 320.285 344.768 320.285Z" fill="#1D2436"/>
<path opacity="0.2" d="M341.699 302.906H314.024C313.62 302.906 313.232 302.745 312.946 302.46C312.66 302.174 312.5 301.787 312.5 301.384C312.5 300.98 312.66 300.593 312.946 300.308C313.232 300.022 313.62 299.862 314.024 299.862H341.699C342.103 299.862 342.491 300.022 342.777 300.308C343.063 300.593 343.224 300.98 343.224 301.384C343.224 301.787 343.063 302.174 342.777 302.46C342.491 302.745 342.103 302.906 341.699 302.906Z" fill="white"/>
<path opacity="0.2" d="M344.768 320.285H317.104C316.903 320.285 316.703 320.246 316.518 320.169C316.332 320.092 316.164 319.979 316.022 319.836C315.88 319.694 315.768 319.525 315.692 319.339C315.616 319.154 315.577 318.955 315.579 318.754C315.579 318.35 315.739 317.963 316.025 317.678C316.311 317.392 316.699 317.232 317.104 317.232H344.768C345.173 317.232 345.561 317.392 345.847 317.678C346.133 317.963 346.293 318.35 346.293 318.754C346.295 318.955 346.256 319.154 346.18 319.339C346.104 319.525 345.992 319.694 345.85 319.836C345.708 319.979 345.54 320.092 345.354 320.169C345.169 320.246 344.969 320.285 344.768 320.285Z" fill="white"/>
<path d="M325.612 339.366H318.693L309.28 287.47H316.199L325.612 339.366Z" fill="#1D2436"/>
<path opacity="0.4" d="M325.612 339.366H318.693L309.28 287.47H316.199L325.612 339.366Z" fill="white"/>
<path opacity="0.2" d="M323.729 339.366H318.693L309.28 287.47H314.316L323.729 339.366Z" fill="white"/>
<path d="M347.13 284.99H297.156C296.538 284.99 296.036 285.491 296.036 286.108V288.823C296.036 289.441 296.538 289.941 297.156 289.941H347.13C347.749 289.941 348.25 289.441 348.25 288.823V286.108C348.25 285.491 347.749 284.99 347.13 284.99Z" fill="#1D2436"/>
<path opacity="0.2" d="M316.152 284.99H297.156C296.538 284.99 296.036 285.491 296.036 286.108V288.823C296.036 289.441 296.538 289.941 297.156 289.941H316.152C316.77 289.941 317.272 289.441 317.272 288.823V286.108C317.272 285.491 316.77 284.99 316.152 284.99Z" fill="white"/>
<path d="M185.943 297.664H122.734V338.689H185.943V297.664Z" fill="#BF5F00"/>
<path d="M183.637 305.358H125.05V336.641H183.637V305.358Z" fill="#FFB266"/>
<path d="M173.16 310.027H129.823V311.37H173.16V310.027Z" fill="white"/>
<path d="M150.616 314.151H129.823V315.494H150.616V314.151Z" fill="white"/>
<path d="M156.01 318.275H129.823V319.618H156.01V318.275Z" fill="white"/>
<path d="M139.048 322.39H129.823V323.733H139.048V322.39Z" fill="white"/>
<path d="M135.8 326.514H129.823V327.857H135.8V326.514Z" fill="white"/>
<path d="M264.052 339.365H212.601L221.308 271.096H255.345L264.052 339.365Z" fill="#0836D9"/>
<path opacity="0.6" d="M264.052 339.365H212.601L218.559 292.656L221.317 271.096H255.336L259.402 302.906L264.052 339.365Z" fill="white"/>
<path opacity="0.1" d="M259.402 302.906L218.559 292.656L221.317 271.096H255.336L259.402 302.906Z" fill="black"/>
<path d="M359.631 102.757H117.02C116.204 102.757 115.397 102.917 114.644 103.229C113.89 103.54 113.206 103.997 112.63 104.573C112.054 105.149 111.597 105.833 111.286 106.585C110.975 107.337 110.815 108.143 110.816 108.957V272.871C110.816 274.513 111.47 276.088 112.633 277.249C113.797 278.41 115.374 279.062 117.02 279.062H359.631C361.277 279.062 362.854 278.41 364.018 277.249C365.181 276.088 365.835 274.513 365.835 272.871V108.976C365.838 108.16 365.681 107.352 365.371 106.598C365.06 105.843 364.604 105.158 364.028 104.58C363.451 104.002 362.766 103.543 362.012 103.23C361.257 102.918 360.448 102.757 359.631 102.757Z" fill="#0836D9"/>
<path opacity="0.7" d="M359.631 102.757H117.02C116.204 102.757 115.397 102.917 114.644 103.229C113.89 103.54 113.206 103.997 112.63 104.573C112.054 105.149 111.597 105.833 111.286 106.585C110.975 107.337 110.815 108.143 110.816 108.957V272.871C110.816 274.513 111.47 276.088 112.633 277.249C113.797 278.41 115.374 279.062 117.02 279.062H359.631C361.277 279.062 362.854 278.41 364.018 277.249C365.181 276.088 365.835 274.513 365.835 272.871V108.976C365.838 108.16 365.681 107.352 365.371 106.598C365.06 105.843 364.604 105.158 364.028 104.58C363.451 104.002 362.766 103.543 362.012 103.23C361.257 102.918 360.448 102.757 359.631 102.757Z" fill="white"/>
<path d="M357.674 108.825H118.987V266.887H357.674V108.825Z" fill="#0836D9"/>
<path d="M281.531 334.236H195.11C194.57 334.236 194.131 334.674 194.131 335.213V338.304C194.131 338.843 194.57 339.281 195.11 339.281H281.531C282.072 339.281 282.51 338.843 282.51 338.304V335.213C282.51 334.674 282.072 334.236 281.531 334.236Z" fill="#0836D9"/>
<path opacity="0.7" d="M281.531 334.236H195.11C194.57 334.236 194.131 334.674 194.131 335.213V338.304C194.131 338.843 194.57 339.281 195.11 339.281H281.531C282.072 339.281 282.51 338.843 282.51 338.304V335.213C282.51 334.674 282.072 334.236 281.531 334.236Z" fill="white"/>
<path opacity="0.2" d="M357.674 108.976H118.987V132.537H357.674V108.976Z" fill="black"/>
<path opacity="0.4" d="M221.269 132.819H118.987V266.887H221.269V132.819Z" fill="white"/>
<path d="M320.935 167.015V169.363H318.582" stroke="white" stroke-miterlimit="10"/>
<path d="M313.612 169.363H236.519" stroke="white" stroke-miterlimit="10" stroke-dasharray="5.28 5.28"/>
<path d="M234.033 169.363H231.68V167.015" stroke="white" stroke-miterlimit="10"/>
<path d="M231.68 162.759V122.335" stroke="white" stroke-miterlimit="10" stroke-dasharray="4.53 4.53"/>
<path d="M231.68 120.211V117.863H234.033" stroke="white" stroke-miterlimit="10"/>
<path d="M239.004 117.863H316.097" stroke="white" stroke-miterlimit="10" stroke-dasharray="5.28 5.28"/>
<path d="M318.582 117.863H320.935V120.211" stroke="white" stroke-miterlimit="10"/>
<path d="M320.935 124.467V164.892" stroke="white" stroke-miterlimit="10" stroke-dasharray="4.53 4.53"/>
<path d="M322.432 116.369H319.448V119.347H322.432V116.369Z" fill="#0836D9" stroke="white" stroke-miterlimit="10"/>
<path d="M322.432 167.879H319.448V170.857H322.432V167.879Z" fill="#0836D9" stroke="white" stroke-miterlimit="10"/>
<path d="M233.169 116.369H230.185V119.347H233.169V116.369Z" fill="#0836D9" stroke="white" stroke-miterlimit="10"/>
<path d="M233.169 167.879H230.185V170.857H233.169V167.879Z" fill="#0836D9" stroke="white" stroke-miterlimit="10"/>
<path d="M277.804 116.369H274.82V119.347H277.804V116.369Z" fill="#0836D9" stroke="white" stroke-miterlimit="10"/>
<path d="M277.804 167.879H274.82V170.857H277.804V167.879Z" fill="#0836D9" stroke="white" stroke-miterlimit="10"/>
<path d="M322.432 142.119H319.448V145.097H322.432V142.119Z" fill="#0836D9" stroke="white" stroke-miterlimit="10"/>
<path d="M233.169 142.119H230.185V145.097H233.169V142.119Z" fill="#0836D9" stroke="white" stroke-miterlimit="10"/>
<path opacity="0.7" d="M312.83 135.158H290.983C290 135.158 289.204 135.953 289.204 136.934V142.768C289.204 143.748 290 144.543 290.983 144.543H312.83C313.813 144.543 314.609 143.748 314.609 142.768V136.934C314.609 135.953 313.813 135.158 312.83 135.158Z" fill="white"/>
<path opacity="0.7" d="M275.179 135.158H253.331C252.348 135.158 251.552 135.953 251.552 136.934V142.768C251.552 143.748 252.348 144.543 253.331 144.543H275.179C276.161 144.543 276.958 143.748 276.958 142.768V136.934C276.958 135.953 276.161 135.158 275.179 135.158Z" fill="white"/>
<path opacity="0.7" d="M226.71 249.385H204.862C203.88 249.385 203.083 250.18 203.083 251.161V256.995C203.083 257.975 203.88 258.77 204.862 258.77H226.71C227.692 258.77 228.489 257.975 228.489 256.995V251.161C228.489 250.18 227.692 249.385 226.71 249.385Z" fill="white"/>
<path d="M341.917 117.356H349.861" stroke="white" stroke-width="1.5" stroke-linecap="round" stroke-linejoin="round"/>
<path d="M341.917 121.113H349.861" stroke="white" stroke-width="1.5" stroke-linecap="round" stroke-linejoin="round"/>
<path d="M341.917 124.871H349.861" stroke="white" stroke-width="1.5" stroke-linecap="round" stroke-linejoin="round"/>
<path opacity="0.5" d="M215.226 153.599H135.168V233.499H215.226V153.599Z" fill="white"/>
<path d="M168.679 160.129V229.056" stroke="#0836D9" stroke-miterlimit="10"/>
<path d="M203.206 229.056C194.047 229.056 185.262 225.424 178.785 218.96C172.309 212.496 168.67 203.729 168.67 194.587V194.587C168.67 185.448 172.308 176.684 178.783 170.221C185.258 163.759 194.04 160.129 203.197 160.129V160.129" stroke="#0836D9" stroke-miterlimit="10"/>
<path d="M204.702 158.644H201.718V161.622H204.702V158.644Z" fill="white" stroke="#0836D9" stroke-miterlimit="10"/>
<path d="M204.702 227.562H201.718V230.54H204.702V227.562Z" fill="white" stroke="#0836D9" stroke-miterlimit="10"/>
<path d="M170.177 193.103H167.193V196.081H170.177V193.103Z" fill="white" stroke="#0836D9" stroke-miterlimit="10"/>
<path d="M169.451 160.129C169.451 160.281 169.406 160.43 169.321 160.557C169.237 160.683 169.116 160.782 168.975 160.84C168.834 160.899 168.679 160.914 168.529 160.884C168.379 160.854 168.242 160.781 168.134 160.673C168.026 160.566 167.952 160.428 167.923 160.279C167.893 160.129 167.908 159.975 167.966 159.834C168.025 159.693 168.124 159.573 168.251 159.488C168.378 159.403 168.527 159.358 168.68 159.358C168.884 159.361 169.078 159.443 169.223 159.587C169.367 159.73 169.449 159.925 169.451 160.129Z" fill="white" stroke="#0836D9" stroke-miterlimit="10"/>
<path d="M169.451 229.056C169.451 229.208 169.406 229.356 169.322 229.483C169.238 229.609 169.118 229.708 168.977 229.766C168.837 229.825 168.682 229.841 168.532 229.812C168.383 229.783 168.245 229.71 168.137 229.604C168.029 229.497 167.955 229.36 167.924 229.212C167.893 229.063 167.907 228.908 167.964 228.767C168.021 228.626 168.118 228.505 168.244 228.42C168.37 228.334 168.518 228.287 168.67 228.285C168.772 228.284 168.874 228.303 168.968 228.341C169.063 228.379 169.149 228.436 169.222 228.508C169.295 228.579 169.352 228.665 169.392 228.759C169.431 228.853 169.451 228.954 169.451 229.056Z" fill="white" stroke="#0836D9" stroke-miterlimit="10"/>
<path opacity="0.7" d="M301.328 250.522H277.089C275.232 250.522 273.451 249.786 272.137 248.475C270.824 247.164 270.086 245.386 270.086 243.533C270.086 241.679 270.824 239.901 272.137 238.59C273.451 237.279 275.232 236.543 277.089 236.543H301.328C303.185 236.543 304.967 237.279 306.28 238.59C307.593 239.901 308.331 241.679 308.331 243.533C308.331 245.386 307.593 247.164 306.28 248.475C304.967 249.786 303.185 250.522 301.328 250.522Z" fill="white"/>
<path opacity="0.7" d="M322.619 190.914H247.738C247.332 190.914 246.941 190.753 246.653 190.466C246.366 190.179 246.204 189.789 246.204 189.383C246.212 188.983 246.377 188.601 246.664 188.322C246.951 188.042 247.337 187.887 247.738 187.889H322.61C322.811 187.888 323.01 187.926 323.196 188.002C323.382 188.078 323.552 188.19 323.694 188.332C323.837 188.473 323.95 188.641 324.027 188.827C324.104 189.012 324.144 189.21 324.144 189.411C324.137 189.811 323.973 190.192 323.688 190.472C323.403 190.753 323.02 190.912 322.619 190.914Z" fill="white"/>
<path opacity="0.7" d="M322.619 202.065H247.738C247.537 202.067 247.338 202.028 247.152 201.952C246.966 201.876 246.797 201.764 246.654 201.623C246.511 201.482 246.398 201.313 246.321 201.128C246.244 200.943 246.204 200.744 246.204 200.544C246.204 200.137 246.366 199.748 246.653 199.461C246.941 199.174 247.332 199.012 247.738 199.012H322.61C323.017 199.012 323.407 199.174 323.695 199.461C323.982 199.748 324.144 200.137 324.144 200.544C324.144 200.947 323.983 201.334 323.697 201.62C323.411 201.905 323.024 202.065 322.619 202.065Z" fill="white"/>
<path opacity="0.7" d="M322.62 213.254H275.979C275.573 213.254 275.185 213.094 274.897 212.809C274.61 212.524 274.447 212.137 274.444 211.732C274.444 211.326 274.606 210.937 274.894 210.65C275.181 210.362 275.572 210.201 275.979 210.201H322.611C323.018 210.201 323.408 210.362 323.696 210.65C323.984 210.937 324.145 211.326 324.145 211.732C324.143 212.135 323.981 212.521 323.696 212.806C323.41 213.091 323.024 213.252 322.62 213.254Z" fill="white"/>
<path opacity="0.4" d="M131.817 115.505H126.527V120.785H131.817V115.505Z" fill="black"/>
<path opacity="0.4" d="M140.74 115.505H138.161C137.413 115.505 136.806 116.111 136.806 116.858V119.432C136.806 120.179 137.413 120.785 138.161 120.785H140.74C141.489 120.785 142.096 120.179 142.096 119.432V116.858C142.096 116.111 141.489 115.505 140.74 115.505Z" fill="black"/>
<path opacity="0.4" d="M149.966 115.505H149.514C148.178 115.505 147.095 116.586 147.095 117.919V118.37C147.095 119.704 148.178 120.785 149.514 120.785H149.966C151.302 120.785 152.385 119.704 152.385 118.37V117.919C152.385 116.586 151.302 115.505 149.966 115.505Z" fill="black"/>
<path opacity="0.9" d="M142.737 245.665V243.608L141.683 243.514C141.532 242.846 141.265 242.21 140.892 241.635L141.57 240.818L140.111 239.361L139.292 240.038C138.716 239.666 138.079 239.399 137.409 239.249L137.315 238.196H135.254L135.15 239.249C134.481 239.4 133.844 239.667 133.268 240.038L132.449 239.361L130.99 240.818L131.667 241.635C131.287 242.206 131.019 242.843 130.877 243.514L129.813 243.608V245.665L130.877 245.768C131.02 246.439 131.288 247.076 131.667 247.647L130.99 248.474L132.449 249.921L133.268 249.244C133.84 249.623 134.479 249.891 135.15 250.033L135.254 251.095H137.315L137.409 250.033C138.081 249.891 138.72 249.624 139.292 249.244L140.111 249.921L141.57 248.474L140.892 247.647C141.268 247.074 141.536 246.437 141.683 245.768L142.737 245.665ZM136.251 247.422C135.693 247.422 135.147 247.257 134.683 246.947C134.218 246.637 133.856 246.197 133.643 245.682C133.429 245.167 133.373 244.6 133.482 244.054C133.591 243.507 133.86 243.005 134.255 242.611C134.65 242.216 135.153 241.948 135.701 241.839C136.248 241.731 136.816 241.786 137.332 242C137.848 242.213 138.289 242.574 138.599 243.038C138.91 243.501 139.075 244.046 139.075 244.603C139.075 245.351 138.778 246.068 138.248 246.596C137.719 247.125 137 247.422 136.251 247.422Z" fill="white"/>
<path opacity="0.6" d="M151.096 251.471V249.893L150.267 249.808C150.155 249.279 149.944 248.775 149.646 248.324L150.173 247.676L149.034 246.539L148.394 247.074C147.938 246.777 147.431 246.566 146.898 246.454L146.822 245.618H145.203L145.128 246.454C144.595 246.566 144.087 246.777 143.631 247.074L142.991 246.539L141.843 247.676L142.379 248.324C142.081 248.775 141.87 249.279 141.758 249.808L140.93 249.893V251.499L141.758 251.584C141.87 252.113 142.081 252.616 142.379 253.068L141.843 253.716L142.991 254.853L143.631 254.317C144.087 254.615 144.595 254.825 145.128 254.937L145.203 255.764H146.822L146.898 254.937C147.431 254.825 147.938 254.615 148.394 254.317L149.034 254.853L150.173 253.716L149.646 253.068C149.944 252.616 150.155 252.113 150.267 251.584L151.096 251.471ZM146.013 252.852C145.579 252.854 145.154 252.727 144.792 252.488C144.43 252.248 144.147 251.907 143.98 251.507C143.812 251.107 143.768 250.667 143.851 250.242C143.935 249.817 144.143 249.426 144.449 249.119C144.755 248.811 145.146 248.602 145.572 248.517C145.998 248.432 146.439 248.474 146.84 248.64C147.242 248.805 147.585 249.086 147.826 249.446C148.068 249.806 148.197 250.23 148.197 250.663C148.198 250.95 148.142 251.234 148.033 251.5C147.924 251.765 147.763 252.007 147.56 252.21C147.357 252.414 147.116 252.575 146.851 252.685C146.585 252.795 146.3 252.852 146.013 252.852Z" fill="white"/>
<path opacity="0.4" d="M142.737 256.046V254.693L142.041 254.627C141.947 254.182 141.772 253.759 141.523 253.378L141.975 252.842L141.033 251.903L140.487 252.345C140.106 252.096 139.681 251.921 139.235 251.828L139.17 251.133H137.795L137.729 251.828C137.284 251.921 136.859 252.096 136.477 252.345L135.931 251.903L134.99 252.842L135.442 253.378C135.193 253.759 135.018 254.182 134.924 254.627L134.218 254.693V256.046L134.924 256.112C135.016 256.56 135.192 256.987 135.442 257.371L134.99 257.906L135.931 258.846L136.477 258.395C136.856 258.65 137.282 258.828 137.729 258.921L137.795 259.616H139.151L139.217 258.921C139.664 258.828 140.09 258.65 140.469 258.395L141.014 258.846L141.956 257.906L141.504 257.371C141.754 256.987 141.93 256.56 142.022 256.112L142.737 256.046ZM138.473 257.201C138.112 257.192 137.762 257.077 137.466 256.87C137.171 256.663 136.943 256.374 136.811 256.039C136.679 255.703 136.65 255.336 136.726 254.984C136.802 254.632 136.98 254.31 137.239 254.059C137.497 253.807 137.824 253.637 138.179 253.57C138.534 253.503 138.9 253.542 139.233 253.682C139.566 253.822 139.85 254.057 140.049 254.357C140.249 254.657 140.355 255.009 140.356 255.37C140.356 255.614 140.307 255.856 140.211 256.082C140.116 256.307 139.977 256.511 139.801 256.682C139.626 256.853 139.418 256.987 139.19 257.076C138.962 257.165 138.718 257.208 138.473 257.201Z" fill="white"/>
<path d="M320.389 117.327L324.38 127.981L331.054 121.311L320.389 117.327Z" fill="#0836D9"/>
<path d="M326.817 122.253L325.326 123.741L328.634 127.043L330.125 125.555L326.817 122.253Z" fill="#0836D9"/>
<path opacity="0.4" d="M331.054 121.311L320.389 117.327L324.38 127.981L326.978 125.388L328.625 127.041L330.112 125.557L328.465 123.904L331.054 121.311Z" fill="white"/>
<path d="M156.866 155.403L166.91 159.161L161.648 153.909C161.453 154.021 161.227 154.066 161.004 154.037C160.781 154.008 160.574 153.907 160.415 153.75C160.22 153.555 160.111 153.292 160.111 153.017C160.111 152.742 160.22 152.479 160.415 152.284C160.609 152.09 160.874 151.981 161.149 151.981C161.424 151.981 161.688 152.09 161.883 152.284C162.041 152.444 162.142 152.65 162.171 152.873C162.2 153.095 162.155 153.321 162.043 153.515L167.305 158.766L163.54 148.742L160.208 149.475L160.085 148.282L159.455 147.653L155.765 151.335L156.395 151.965L157.6 152.087L156.866 155.403Z" fill="#1D2436"/>
<path opacity="0.2" d="M156.866 155.403L166.91 159.161L161.648 153.909C161.453 154.021 161.227 154.066 161.004 154.037C160.781 154.008 160.574 153.907 160.415 153.75C160.22 153.555 160.111 153.292 160.111 153.017C160.111 152.742 160.22 152.479 160.415 152.284C160.609 152.09 160.874 151.981 161.149 151.981C161.424 151.981 161.688 152.09 161.883 152.284C162.041 152.444 162.142 152.65 162.171 152.873C162.2 153.095 162.155 153.321 162.043 153.515L167.305 158.766L163.54 148.742L160.208 149.475L160.085 148.282L159.455 147.653L155.765 151.335L156.395 151.965L157.6 152.087L156.866 155.403Z" fill="white"/>
<g opacity="0.1">
<path opacity="0.1" d="M153.891 108.825L118.517 240.742V108.825H153.891Z" fill="white"/>
<path opacity="0.1" d="M193.812 108.825L151.425 266.887H122.226L164.604 108.825H193.812Z" fill="white"/>
<path opacity="0.1" d="M236.265 108.825L193.878 266.887H180.671L223.058 108.825H236.265Z" fill="white"/>
<path opacity="0.1" d="M275.357 108.825L232.97 266.887H228.245L270.632 108.825H275.357Z" fill="white"/>
</g>
<path d="M418.962 143.735C422.304 147.578 439.303 180.261 436.018 187.889C432.733 195.517 405.492 186.724 405.492 186.724L407.12 175.949C407.12 175.949 417.701 176.325 418.717 175.319C419.734 174.314 404.4 159.039 404.4 159.039L418.962 143.735Z" fill="#1D2436"/>
<g opacity="0.2">
<path opacity="0.2" d="M436 187.889C435.596 188.772 434.893 189.484 434.014 189.9L433.468 190.144H433.393C433.224 190.215 433.051 190.274 432.875 190.322C432.11 190.567 431.321 190.731 430.522 190.811L429.835 190.877C429.496 190.877 429.157 190.924 428.809 190.933H427.867C418.737 190.933 405.455 186.659 405.455 186.659L407.083 175.883C407.083 175.883 417.664 176.259 418.68 175.254C418.925 175.009 418.2 173.92 416.967 172.435C413.974 168.762 407.978 162.646 405.502 160.147L404.382 159.02L418.963 143.735C422.304 147.54 439.304 180.223 436 187.889Z" fill="white"/>
</g>
<path opacity="0.2" d="M434.032 189.871L433.486 190.116H433.411C433.243 190.186 433.07 190.246 432.893 190.294C432.128 190.539 431.34 190.703 430.54 190.783L429.853 190.848C429.514 190.848 429.175 190.895 428.827 190.905H427.886C418.755 190.905 405.473 186.63 405.473 186.63L407.102 175.855C407.102 175.855 419.019 176.86 420.035 175.855C420.223 175.46 418.906 174.126 416.957 172.426C413.964 168.753 407.968 162.637 405.492 160.138L412.382 152.792L417.625 152.228C417.625 152.228 429.232 170.979 434.032 189.871Z" fill="black"/>
<path d="M384.614 142.627C382.731 143.989 381.79 145.924 382.543 146.948L432.282 215.387C433.025 216.411 435.162 216.129 437.045 214.767C438.927 213.404 439.869 211.46 439.116 210.445L389.377 141.997C388.633 140.983 386.506 141.255 384.614 142.627Z" fill="#1D2436"/>
<path opacity="0.7" d="M389.377 141.997L439.116 210.436C439.859 211.451 438.927 213.386 437.045 214.757C435.162 216.129 433.025 216.392 432.291 215.377L382.553 146.929C382.363 146.573 382.279 146.169 382.31 145.767C382.342 145.364 382.488 144.979 382.731 144.656C382.985 144.203 383.302 143.789 383.673 143.425C383.961 143.128 384.276 142.857 384.614 142.617C386.506 141.265 388.633 140.983 389.377 141.997Z" fill="white"/>
<path opacity="0.3" d="M439.115 210.436C439.859 211.45 438.927 213.386 437.044 214.757C435.162 216.129 433.025 216.392 432.291 215.377C431.876 214.814 432.902 213.959 433.505 212.728L382.731 144.675C382.985 144.222 383.302 143.808 383.672 143.444L433.42 211.892C433.712 211.596 434.027 211.322 434.361 211.075C436.244 209.703 438.371 209.421 439.115 210.436Z" fill="black"/>
<path d="M378.459 140.729C376.868 142.42 376.322 144.487 377.245 145.36L439.088 203.146C440.03 204.01 442.054 203.334 443.644 201.633C445.235 199.933 445.781 197.875 444.859 196.992L383.015 139.207C382.092 138.352 380.05 139.038 378.459 140.729Z" fill="#0836D9"/>
<path opacity="0.7" d="M383.014 139.217L444.858 197.002C445.799 197.857 445.235 199.933 443.644 201.633C442.053 203.334 440.01 204.001 439.088 203.146L377.244 145.36C376.992 145.044 376.834 144.662 376.789 144.26C376.744 143.858 376.814 143.451 376.99 143.087C377.159 142.595 377.393 142.127 377.687 141.697C377.919 141.364 378.177 141.05 378.458 140.757C380.049 139.038 382.092 138.352 383.014 139.217Z" fill="white"/>
<path opacity="0.3" d="M444.858 197.002C445.8 197.857 445.235 199.933 443.644 201.633C442.053 203.334 440.011 204.001 439.088 203.146C438.58 202.667 439.427 201.643 439.785 200.327L376.99 143.106C377.159 142.613 377.393 142.146 377.687 141.715L439.54 199.51C439.767 199.176 440.022 198.862 440.302 198.571C441.893 196.814 443.936 196.138 444.858 197.002Z" fill="black"/>
<path d="M393.322 325.142L388.615 325.217C383.824 302.755 380.435 274.957 378.327 253.989C377.997 250.701 377.696 247.591 377.385 244.688C377.263 243.307 377.141 241.982 377.028 240.705C376.463 234.401 376.086 229.431 375.842 226.313C375.672 224.058 375.587 222.818 375.587 222.818H392.7L392.54 227.149L391.975 241.438L391.919 243.072L391.561 252.514L390.968 268.588C396.814 291.228 393.322 325.142 393.322 325.142Z" fill="#F7A955"/>
<path d="M431.538 323.94L426.897 324.813C417.607 301.637 408.881 271.96 403.205 251.227C402.329 248.014 401.52 245.007 400.795 242.283C400.795 242.142 400.729 242.011 400.691 241.879C399.261 236.468 398.159 232.156 397.472 229.422L396.653 226.106L413.409 223.212L414.35 230.258L415.752 240.592L416.025 242.621L416.967 249.676L419.518 268.597C429.194 289.922 431.538 323.94 431.538 323.94Z" fill="#F7A955"/>
<path opacity="0.2" d="M415.8 240.611L400.795 242.283C400.795 242.142 400.73 242.011 400.692 241.879C399.261 236.468 398.16 232.156 397.473 229.422L414.416 230.258L415.8 240.611Z" fill="black"/>
<path opacity="0.2" d="M392.503 227.149L391.976 241.438L391.92 243.072L377.424 244.679C377.301 243.298 377.179 241.973 377.066 240.695C376.501 234.392 376.125 229.422 375.88 226.303L392.503 227.149Z" fill="black"/>
<path d="M379.4 340.756C380.277 340.045 381.275 339.498 382.346 339.14C382.346 339.14 385.556 335.965 387.109 326.401L391.307 325.302C392.021 325.132 392.77 325.184 393.453 325.451C394.136 325.718 394.721 326.187 395.129 326.796C395.245 326.966 395.334 327.153 395.393 327.35C395.61 328.376 395.761 329.414 395.845 330.46C396.08 333.956 396.102 337.463 395.91 340.963H395.148L394.847 334.386C394.734 332.141 393.011 334.772 392.522 337.205C392.032 339.638 390.987 342.174 386.074 342.297C380.332 342.381 377.95 342.156 379.4 340.756Z" fill="#1D2436"/>
<path d="M395.28 326.927C395.553 324.691 395.638 320.802 395.638 320.802L386.3 321.835C386.3 321.835 387.43 326.26 386.498 329.586C391.204 328.299 395.28 326.927 395.28 326.927Z" fill="#1D2436"/>
<path d="M417.39 340.756C418.268 340.048 419.266 339.504 420.336 339.149C420.336 339.149 423.546 335.974 425.09 326.411L429.298 325.311C430.011 325.141 430.76 325.194 431.443 325.461C432.126 325.728 432.711 326.197 433.119 326.805C433.235 326.975 433.324 327.162 433.383 327.359C433.6 328.385 433.751 329.424 433.835 330.469C434.068 333.965 434.087 337.473 433.891 340.972H433.176L432.874 334.396C432.762 332.151 431.039 334.781 430.549 337.214C430.06 339.647 429.015 342.184 424.092 342.306C418.322 342.381 415.94 342.156 417.39 340.756Z" fill="#1D2436"/>
<path d="M433.261 326.927C433.544 324.691 433.628 320.802 433.628 320.802L424.291 321.835C424.291 321.835 425.42 326.26 424.488 329.586C429.195 328.299 433.261 326.927 433.261 326.927Z" fill="#1D2436"/>
<path d="M417.419 235.998L399.657 238.262L398.97 238.347L395.317 224.988L394.376 239.305L375.343 238.309C366.871 188.641 381.358 176.907 381.358 176.907L407.178 182.093C418.869 201.934 416.092 224.988 416.092 224.988L417.419 235.998Z" fill="#EF7700"/>
<path d="M392.964 115.026C392.964 116.98 392.098 118.558 391.081 118.558C390.065 118.558 389.142 116.98 389.142 115.026C389.142 113.072 390.008 111.493 391.081 111.493C392.154 111.493 392.964 113.072 392.964 115.026Z" stroke="#1D2436" stroke-width="0.5" stroke-linecap="round" stroke-linejoin="round"/>
<path d="M405.72 126.825C405.651 126.89 405.575 126.946 405.494 126.994C404.42 127.812 403.195 128.409 401.889 128.751C398.076 129.634 395.469 129.108 393.765 127.389C391.383 124.805 390.79 120.23 391.129 114.706C391.189 112.508 391.595 110.333 392.334 108.262C392.334 108.262 392.334 108.177 392.334 108.158C392.334 108.14 392.391 107.999 392.428 107.924C392.895 106.755 393.648 105.722 394.618 104.92C395.589 104.117 396.745 103.57 397.982 103.33C399.054 103.09 400.15 102.967 401.248 102.963C412.045 102.879 413.984 120.709 405.72 126.825Z" fill="#F7A955"/>
<path opacity="0.2" d="M405.493 127.022C404.411 127.792 403.185 128.338 401.888 128.629C398.076 129.512 395.468 128.864 393.765 127.116C396.046 127.68 398.45 127.482 400.608 126.553C401.405 126.259 402.259 126.149 403.104 126.23C403.95 126.312 404.767 126.582 405.493 127.022Z" fill="black"/>
<path d="M406.585 136.746C407.253 139.808 403.271 141.058 403.271 141.058C396.767 138.239 395.562 134.829 395.562 134.829C400.993 132.011 399.421 124.016 399.421 124.016L400.523 124.561L408.27 126.074C408.27 126.074 406.123 130.188 405.841 131.128C404.373 136.06 406.585 136.746 406.585 136.746Z" fill="#F7A955"/>
<path d="M392.324 108.215C392.324 108.215 391.731 115.73 398.913 119.009C398.913 119.009 401.991 126.853 406.519 126.957C412.703 127.107 418.144 118.342 416.007 109.408C413.211 97.8151 395.618 96.8757 392.324 108.215Z" fill="#1D2436"/>
<path d="M395.26 116.839C395.26 115.665 396.201 113.682 398.084 113.955C399.966 114.227 401.039 118.906 396.37 119.948C395.665 120.099 395.26 119.31 395.26 116.839Z" fill="#F7A955"/>
<path d="M405.492 100.192C405.492 100.192 398.282 98.3694 394.291 101.272C389.631 104.654 387.862 108.149 393.349 113.579C393.349 113.579 405.464 109.662 409.493 110.488C411.848 110.962 414.159 111.632 416.402 112.489C417.278 104.504 409.521 98.5573 405.492 100.192Z" fill="#1D2436"/>
<path d="M395.26 115.026C395.26 115.026 397.142 123.725 394.187 131.147C394.187 131.147 411.318 137.075 417.277 133.852C423.235 130.63 417.776 119.817 417.521 113.579C417.267 107.341 414.556 98.1251 405.492 100.192C396.427 102.259 395.26 115.026 395.26 115.026Z" fill="#1D2436"/>
<path d="M389.096 114.472H396.335" stroke="#1D2436" stroke-width="0.5" stroke-linecap="round" stroke-linejoin="round"/>
<path opacity="0.2" d="M399.657 238.262L398.97 238.347L395.318 224.988C395.318 224.988 403.15 211.638 400.702 204.686C401.05 205.175 409.485 217.66 399.657 238.262Z" fill="black"/>
<path d="M384.992 136.069C384.992 136.069 393.605 133.007 406.586 136.746C419.566 140.485 420.056 145.999 420.056 145.999C420.056 145.999 411.829 164.61 410.53 185.682L376.699 184.423C376.699 184.423 372.661 154.68 384.992 136.069Z" fill="#1D2436"/>
<path opacity="0.2" d="M420.054 145.999C420.054 145.999 411.827 164.61 410.528 185.681L376.698 184.423C376.294 180.993 376.086 177.542 376.077 174.089C376.01 169.034 376.325 163.981 377.018 158.973C378.148 151.176 380.473 142.852 384.991 136.032C384.991 136.032 393.604 132.969 406.584 136.708C419.565 140.447 420.054 145.999 420.054 145.999Z" fill="white"/>
<path opacity="0.2" d="M384.521 160.279C384.521 160.279 383.118 168.847 376.049 174.126C375.982 169.071 376.297 164.018 376.99 159.011L384.521 160.279Z" fill="black"/>
<path d="M347.141 135.478L342.877 129.164C342.877 129.164 342.228 126.421 341.399 125.801C340.571 125.181 332.382 121.696 331.393 121.715C330.405 121.733 330.452 128.084 331.393 129.164C332.334 130.245 337.549 132.556 338.924 132.791C340.298 133.026 339.62 132.791 339.62 132.791L343.385 140.306L347.141 135.478Z" fill="#F7A955"/>
<path d="M384.991 136.069C375.856 139.888 367.042 144.43 358.635 149.654L344.863 130.865C344.863 130.865 341.155 132.011 339.78 138.456C339.78 138.456 346.849 165.333 356.037 168.001C365.224 170.669 384.539 160.232 384.539 160.232C384.539 160.232 390.131 146.272 384.991 136.069Z" fill="#1D2436"/>
<path opacity="0.2" d="M384.991 136.069C375.856 139.888 367.042 144.43 358.635 149.654L344.863 130.865C344.863 130.865 341.155 132.011 339.78 138.456C339.78 138.456 346.849 165.333 356.037 168.001C365.224 170.669 384.539 160.232 384.539 160.232C384.539 160.232 390.131 146.272 384.991 136.069Z" fill="white"/>
<path d="M393.698 134.886C393.698 134.886 396.701 156.343 406.218 157.207C415.734 158.071 419.998 142.176 418.389 140.297C416.779 138.418 404.514 134.745 393.698 134.886Z" fill="#1D2436"/>
<path opacity="0.3" d="M393.698 134.886C393.698 134.886 396.701 156.343 406.218 157.207C415.734 158.071 419.998 142.176 418.389 140.297C416.779 138.418 404.514 134.745 393.698 134.886Z" fill="white"/>
<path d="M55.1108 332.254H62.0859L62.6601 316.133H55.685L55.1108 332.254Z" fill="#B97964"/>
<path d="M63.0454 331.446H54.5736C54.4341 331.443 54.2982 331.49 54.1897 331.578C54.0812 331.665 54.0072 331.788 53.9806 331.925L52.6063 338.116C52.5773 338.248 52.5748 338.385 52.5989 338.518C52.623 338.651 52.6733 338.778 52.7468 338.891C52.8203 339.005 52.9156 339.103 53.0272 339.179C53.1388 339.256 53.2645 339.309 53.397 339.337H53.6229C56.3621 339.29 58.3295 339.121 61.7935 339.121C63.9208 339.121 70.2652 339.347 73.2397 339.347C76.2142 339.347 76.5437 336.463 75.3482 336.2C69.9734 335.025 65.9352 333.381 64.2126 331.869C63.8912 331.585 63.474 331.434 63.0454 331.446Z" fill="#1D2436"/>
<path d="M63.5259 332.414C63.4939 332.405 63.4652 332.387 63.4435 332.362C63.4217 332.336 63.4078 332.306 63.4035 332.273C63.3976 332.242 63.4017 332.209 63.4152 332.181C63.4287 332.152 63.451 332.128 63.4788 332.113C63.733 331.953 65.9827 330.572 66.7546 330.967C66.8418 331.007 66.915 331.073 66.9653 331.155C67.0155 331.236 67.0404 331.331 67.037 331.427C67.0627 331.592 67.044 331.761 66.9828 331.916C66.9216 332.071 66.8201 332.207 66.6887 332.31C66.299 332.582 65.8258 332.709 65.352 332.667C64.736 332.648 64.1238 332.563 63.5259 332.414ZM64.006 332.179C64.8199 332.454 65.7081 332.41 66.491 332.057C66.5725 331.983 66.6348 331.89 66.6725 331.787C66.7102 331.684 66.7222 331.574 66.7075 331.465C66.7075 331.333 66.651 331.267 66.604 331.267C66.5371 331.233 66.4625 331.217 66.3875 331.221C65.54 331.387 64.7319 331.712 64.006 332.179Z" fill="#0836D9"/>
<path d="M63.4799 332.442C63.4553 332.425 63.4354 332.403 63.4222 332.377C63.409 332.35 63.4029 332.321 63.4046 332.291C63.4046 332.198 63.5834 330.197 64.3459 329.539C64.4393 329.455 64.5503 329.393 64.6708 329.357C64.7913 329.321 64.9182 329.313 65.0424 329.332C65.1676 329.333 65.2886 329.377 65.386 329.455C65.4834 329.534 65.5514 329.643 65.579 329.764C65.7202 330.497 64.327 332.028 63.6022 332.423H63.5269L63.4799 332.442ZM64.6 329.746C64.1116 330.372 63.8259 331.132 63.7811 331.925C64.4965 331.38 65.3813 330.225 65.2966 329.774C65.2966 329.774 65.2966 329.605 65.0518 329.605H64.9765C64.8378 329.603 64.7035 329.653 64.6 329.746Z" fill="#0836D9"/>
<path opacity="0.2" d="M55.684 316.142H62.6591L62.3579 324.456H55.3828L55.684 316.142Z" fill="black"/>
<path d="M91.0024 332.771L98.2034 333.532L99.5495 318.049L92.3579 317.289L91.0024 332.771Z" fill="#B97964"/>
<path d="M98.9575 331.221H90.5422C90.4036 331.222 90.2695 331.27 90.1617 331.357C90.054 331.444 89.9791 331.565 89.9492 331.7L88.5749 337.9C88.5412 338.03 88.5337 338.166 88.5529 338.299C88.5721 338.432 88.6176 338.56 88.6868 338.675C88.756 338.791 88.8474 338.891 88.9559 338.971C89.0644 339.051 89.1876 339.108 89.3185 339.14H89.5445C92.2837 339.093 94.251 338.924 97.7244 338.924C99.8423 338.924 106.196 339.14 109.161 339.14C112.126 339.14 112.465 336.256 111.27 335.993C105.895 334.828 101.857 333.175 100.134 331.662C99.8107 331.374 99.3911 331.216 98.9575 331.221Z" fill="#1D2436"/>
<path d="M99.4365 332.188C99.4045 332.179 99.3758 332.161 99.3541 332.136C99.3323 332.111 99.3184 332.08 99.3141 332.047C99.3072 332.015 99.312 331.981 99.3274 331.952C99.3429 331.923 99.3682 331.9 99.3988 331.888C99.6436 331.728 101.893 330.347 102.665 330.751C102.752 330.789 102.826 330.852 102.876 330.933C102.927 331.013 102.952 331.107 102.948 331.202C102.97 331.367 102.951 331.535 102.892 331.691C102.833 331.847 102.736 331.986 102.609 332.094C102.212 332.358 101.738 332.48 101.263 332.442C100.647 332.423 100.034 332.338 99.4365 332.188ZM99.9165 331.963C100.732 332.235 101.62 332.188 102.402 331.831C102.484 331.758 102.546 331.666 102.584 331.562C102.622 331.459 102.634 331.348 102.618 331.239C102.618 331.108 102.562 331.051 102.515 331.051C102.452 331.014 102.38 330.998 102.307 331.004C101.468 331.168 100.669 331.494 99.9542 331.963H99.9165Z" fill="#0836D9"/>
<path d="M99.3982 332.226C99.3725 332.21 99.3513 332.188 99.3364 332.161C99.3216 332.135 99.3137 332.106 99.3135 332.075C99.3135 331.972 99.4923 329.98 100.302 329.323C100.398 329.242 100.509 329.182 100.628 329.145C100.748 329.108 100.874 329.095 100.998 329.107C101.124 329.106 101.246 329.149 101.344 329.228C101.441 329.306 101.509 329.416 101.535 329.539C101.676 330.281 100.283 331.812 99.5582 332.198H99.4829L99.3982 332.226ZM100.509 329.52C100.021 330.143 99.7349 330.9 99.69 331.69C100.405 331.155 101.29 329.99 101.205 329.539C101.205 329.539 101.205 329.37 100.961 329.37H100.895C100.753 329.374 100.616 329.427 100.509 329.52Z" fill="#0836D9"/>
<path opacity="0.2" d="M92.3583 317.289L99.5499 318.049L98.8439 326.035L91.6523 325.274L92.3583 317.289Z" fill="black"/>
<path d="M58.5377 174.784H95.5592C99.0703 193.958 110.084 261.795 102.148 322.277L89.6196 320.727C89.6196 320.727 90.7774 240.489 79.7265 210.812C78.4557 226.688 76.9026 243.58 75.6318 252.57C72.4125 274.694 65.5222 323.029 65.5222 323.029H52.8052C52.8052 323.029 55.4126 276.751 56.6175 255.013C57.9353 231.386 58.5377 179.632 58.5377 174.784Z" fill="#1D2436"/>
<path d="M103.617 325.152L88.1133 322.85L88.5933 318.566L104.718 320.68L103.617 325.152Z" fill="#FF7F00"/>
<path d="M67.0933 323.113H52.0513V318.632L67.6581 318.341L67.0933 323.113Z" fill="#FF7F00"/>
<path opacity="0.2" d="M79.7646 210.784C81.5812 215.984 82.9634 221.326 83.897 226.754C84.9324 212.662 80.7907 197.631 80.7907 197.631L79.7646 210.784Z" fill="black"/>
<path d="M57.5117 181.21L56.6646 185.672C56.6646 185.672 82.5598 189.017 98.6655 188.923L98.1008 185.86L57.5117 181.21Z" fill="#FF7F00"/>
<path d="M110.064 142.57C110.064 142.57 119.016 170.754 125.125 172.633C131.234 174.512 146.775 151.223 146.775 151.223C146.775 151.223 160.734 151.091 161.356 150.142C161.977 149.193 157.732 139.376 156.715 139.367C155.698 139.358 143.537 143.923 143.075 144.694C142.614 145.464 128.655 158.785 128.015 158.391C127.375 157.996 122.066 141.246 122.066 141.246L110.064 142.57Z" fill="#B97964"/>
<path d="M148.62 149.701C148.731 149.678 148.841 149.65 148.95 149.616L148.79 149.513C148.738 149.58 148.681 149.643 148.62 149.701Z" fill="#B97964"/>
<path d="M104.98 139.32L106.072 141.321L111.165 150.715L112.229 152.66L126.527 147.7C126.527 147.7 120.578 125.548 118.516 123.274L104.98 139.32Z" fill="#FFB266"/>
<path opacity="0.2" d="M106.073 141.321L111.166 150.715C114.319 144.543 113.406 136.088 113.406 136.088L106.073 141.321Z" fill="black"/>
<g filter="url(#filter0_d)">
<path d="M118.518 123.284C115.824 120.179 112.525 117.653 108.823 115.861C105.121 114.068 101.091 113.046 96.9807 112.856C82.9741 112.198 78.5688 113.588 73.4481 118.154C65.9648 124.824 56.6553 182.253 56.6553 182.253C70.3129 186.047 84.5007 187.587 98.6563 186.809C98.6563 186.809 98.8257 170.838 103.881 160.119C109.573 148.179 114.463 135.873 118.518 123.284Z" fill="#FF7F00"/>
</g>
<path opacity="0.4" d="M56.6553 182.253C70.3129 186.048 84.5002 187.59 98.6563 186.818C98.6563 186.818 98.6563 184.845 98.9292 181.83C99.0422 180.402 99.2116 178.73 99.447 176.926C99.6823 175.122 100.021 173.065 100.388 171.017C100.614 169.918 100.878 168.809 101.16 167.71C101.817 165.1 102.712 162.556 103.833 160.11C104.455 158.795 105.057 157.489 105.641 156.211C106.648 153.975 107.608 151.805 108.465 149.729C110.347 145.361 111.947 141.368 113.284 137.873C114.225 135.365 115.073 133.12 115.76 131.194C116.522 129.042 117.125 127.276 117.567 125.961C118.141 124.223 118.424 123.274 118.424 123.274C117.956 122.69 117.453 122.135 116.918 121.611C111.664 116.443 104.719 113.341 97.3573 112.874H96.8866C86.2122 112.377 81.1198 113.062 77.0345 115.439C75.7172 116.226 74.484 117.145 73.354 118.182C72.2914 119.332 71.4548 120.67 70.8878 122.128C69.148 126.166 67.7193 130.33 66.6143 134.585L65.993 136.868C65.0517 140.353 64.1669 144.064 63.3197 147.822C63.075 148.893 62.8396 149.964 62.6043 151.025C62.256 152.66 61.9078 154.285 61.5783 155.892C60.7311 159.941 59.9687 163.868 59.3003 167.4C58.359 172.473 57.5966 176.719 57.1448 179.359C56.8341 181.219 56.6553 182.253 56.6553 182.253ZM97.7903 113.391C98.7346 113.415 99.6772 113.487 100.614 113.607C104.379 114.115 110.168 117.13 110.027 118.558C109.886 119.986 107.683 123.631 102.054 122.748C100.093 122.387 98.2317 121.612 96.5948 120.475C93.4885 118.427 91.2294 115.655 91.0035 114.753C90.7211 113.673 94.3733 113.307 97.7997 113.41L97.7903 113.391Z" fill="white"/>
<path d="M85.7227 132.537C85.7227 132.537 78.3052 150.452 76.7803 165.343L96.8395 167.898C96.8395 167.898 105.838 143.688 107.702 136.116C107.702 136.098 91.6811 134.501 85.7227 132.537Z" fill="#FF7F00"/>
<path opacity="0.4" d="M103.787 136.802L106.573 137.075L104.53 138.653L103.787 136.802Z" fill="white"/>
<path d="M92.8667 114.8C94.3822 119.122 100.021 121.095 102.976 121.376C104.065 121.548 105.179 121.357 106.149 120.835C107.118 120.312 107.889 119.486 108.342 118.483C108.342 118.483 104.962 116.801 105.301 114.913C105.541 113.758 106.015 112.665 106.694 111.7C107.046 111.149 107.43 110.619 107.843 110.113L102.43 98.5292C101.225 103.546 97.5262 113.185 92.8667 114.8Z" fill="#B97964"/>
<path opacity="0.2" d="M102.214 103.875C99.6351 109.511 103.278 113.391 105.302 114.876C105.541 113.721 106.015 112.627 106.695 111.663L102.214 103.875Z" fill="black"/>
<path d="M120.362 88.8341C120.362 88.8341 122.094 98.3788 117.105 102.202C112.116 106.026 111.608 88.1953 111.608 88.1953L120.362 88.8341Z" fill="#B97964"/>
<path opacity="0.4" d="M120.362 88.8341C120.362 88.8341 122.094 98.3788 117.105 102.202C112.116 106.026 111.608 88.1953 111.608 88.1953L120.362 88.8341Z" fill="black"/>
<path d="M102.524 110.235C103.636 111.782 105.227 112.923 107.051 113.481C108.876 114.039 110.834 113.985 112.624 113.325C114.963 112.506 116.899 110.826 118.037 108.628C118.197 108.337 118.338 108.018 118.479 107.689C120.813 101.761 121.303 87.2933 115.015 87.8288C109.819 88.2704 104.736 86.6733 102.081 91.1545C101.323 92.4293 100.878 93.865 100.782 95.3444C100.218 102.259 99.5587 106.27 102.524 110.235Z" fill="#B97964"/>
<path d="M110.884 98.764C110.771 99.3089 111.034 99.8068 111.402 99.8632C111.769 99.9195 112.126 99.4968 112.211 98.9237C112.296 98.3507 112.051 97.8809 111.693 97.834C111.336 97.787 110.969 98.2003 110.884 98.764Z" fill="#1D2436"/>
<path d="M117.181 99.6565C117.068 100.201 117.341 100.699 117.698 100.756C118.056 100.812 118.423 100.389 118.498 99.8162C118.574 99.2431 118.348 98.7734 117.981 98.717C117.614 98.6607 117.256 99.1304 117.181 99.6565Z" fill="#1D2436"/>
<path d="M115.138 99.6471C115.563 101.439 116.231 103.165 117.125 104.776C116.703 104.995 116.239 105.119 115.764 105.14C115.289 105.162 114.815 105.079 114.376 104.899L115.138 99.6471Z" fill="#A24E3F"/>
<path d="M109.227 96.4529C109.285 96.4701 109.346 96.4713 109.404 96.4564C109.462 96.4415 109.515 96.4111 109.557 96.3684C109.845 96.0721 110.198 95.8465 110.589 95.7096C110.979 95.5727 111.396 95.5281 111.807 95.5793C111.893 95.5962 111.982 95.5793 112.055 95.532C112.129 95.4847 112.182 95.4107 112.202 95.3256C112.212 95.2836 112.212 95.2401 112.205 95.1977C112.197 95.1553 112.181 95.1149 112.157 95.0789C112.133 95.0429 112.103 95.0121 112.067 94.9883C112.031 94.9645 111.99 94.9482 111.948 94.9404C111.436 94.8656 110.914 94.9116 110.424 95.0748C109.933 95.238 109.488 95.5137 109.124 95.8799C109.063 95.9429 109.029 96.0271 109.029 96.1147C109.029 96.2024 109.063 96.2866 109.124 96.3496C109.154 96.3884 109.189 96.4231 109.227 96.4529Z" fill="#1D2436"/>
<path d="M120.193 97.8715C120.253 97.8947 120.32 97.8947 120.381 97.8715C120.423 97.8609 120.462 97.8418 120.496 97.8152C120.53 97.7886 120.558 97.7553 120.578 97.7173C120.599 97.6792 120.611 97.6374 120.614 97.5944C120.618 97.5514 120.612 97.5082 120.597 97.4676C120.448 96.9666 120.18 96.5088 119.817 96.1328C119.453 95.7567 119.004 95.4734 118.508 95.3068C118.466 95.294 118.423 95.2897 118.38 95.2942C118.336 95.2987 118.295 95.3119 118.257 95.333C118.219 95.3541 118.186 95.3826 118.159 95.4169C118.133 95.4512 118.114 95.4904 118.103 95.5323C118.08 95.6158 118.09 95.705 118.133 95.7807C118.175 95.8563 118.245 95.9122 118.329 95.9363C118.718 96.0792 119.069 96.3107 119.353 96.6124C119.637 96.914 119.848 97.2776 119.967 97.6743C119.985 97.7231 120.016 97.7666 120.055 97.801C120.094 97.8354 120.142 97.8596 120.193 97.8715Z" fill="#1D2436"/>
<path d="M110.008 105.143C110.008 105.143 111.166 107.623 113.528 107.529" stroke="#1D2436" stroke-width="0.5" stroke-linecap="round" stroke-linejoin="round"/>
<path d="M107.006 87.5846L107.1 90.6472C106.563 90.8417 106.121 91.2317 105.86 91.7389C105.6 92.2461 105.542 92.8328 105.698 93.381C106.432 96.0114 104.615 99.8256 102.516 101.216C102.516 101.216 102.516 100.107 101.575 100.277C100.633 100.446 100.342 106.214 101.895 109.117C101.895 109.117 98.5719 106.064 97.5835 99.8913C96.6422 94.1889 96.8211 90.572 97.5835 87.8382L107.006 87.5846Z" fill="#B97964"/>
<path opacity="0.4" d="M107.006 87.5846L107.1 90.6472C106.563 90.8417 106.121 91.2317 105.86 91.7389C105.6 92.2461 105.542 92.8328 105.698 93.381C106.432 96.0114 104.615 99.8256 102.516 101.216C102.516 101.216 102.516 100.107 101.575 100.277C100.633 100.446 100.342 106.214 101.895 109.117C101.895 109.117 98.5719 106.064 97.5835 99.8913C96.6422 94.1889 96.8211 90.572 97.5835 87.8382L107.006 87.5846Z" fill="black"/>
<path d="M97.0558 91.2578C100.415 91.586 103.805 91.3799 107.1 90.6472C116.578 88.7683 120.617 92.2442 120.617 92.2442C121.273 91.6554 121.789 90.9287 122.129 90.1164C122.47 89.304 122.625 88.4265 122.584 87.547C122.311 84.8226 118.518 84.3623 118.518 84.3623C118.518 84.3623 117.379 81.2903 114.865 80.3602C112.352 79.4302 109.829 81.76 109.829 81.76C109.829 81.76 106.695 78.735 103.042 79.5993C101.813 79.8511 100.707 80.5166 99.9106 81.4845C99.1139 82.4523 98.6743 83.6639 98.6654 84.9165C98.6654 84.9165 94.3825 85.3487 94.4766 87.547C94.5708 89.7453 97.0558 91.2578 97.0558 91.2578Z" fill="#1D2436"/>
<path d="M111.618 102.766C113.318 102.766 114.696 101.18 114.696 99.2243C114.696 97.2683 113.318 95.6826 111.618 95.6826C109.918 95.6826 108.54 97.2683 108.54 99.2243C108.54 101.18 109.918 102.766 111.618 102.766Z" stroke="#1D2436" stroke-width="0.5" stroke-linecap="round" stroke-linejoin="round"/>
<path d="M122.434 99.7504C122.349 100.338 122.097 100.89 121.707 101.339C121.317 101.788 120.806 102.116 120.235 102.283C119.664 102.451 119.056 102.451 118.485 102.284C117.914 102.117 117.403 101.789 117.013 101.34C116.623 100.891 116.37 100.34 116.285 99.752C116.2 99.164 116.286 98.5639 116.533 98.0232C116.779 97.4826 117.177 97.0241 117.677 96.7024C118.178 96.3807 118.76 96.2093 119.356 96.2087C120.233 96.2761 121.047 96.6856 121.624 97.3486C122.2 98.0116 122.491 98.8746 122.434 99.7504Z" stroke="#1D2436" stroke-width="0.5" stroke-linecap="round" stroke-linejoin="round"/>
<path d="M114.688 99.6471C114.688 99.6471 115.685 99.027 116.278 99.7504" stroke="#1D2436" stroke-width="0.5" stroke-linecap="round" stroke-linejoin="round"/>
<path d="M108.539 99.2243L103.145 98.5009C102.438 98.4099 101.724 98.6025 101.159 99.0364L100.924 99.2243" stroke="#1D2436" stroke-width="0.5" stroke-linecap="round" stroke-linejoin="round"/>
<path d="M96.9983 100.521C97.5392 102.173 98.7136 103.544 100.265 104.335C102.326 105.359 103.795 103.63 103.587 101.46C103.399 99.5249 102.11 96.6127 99.8222 96.4999C99.334 96.4836 98.8494 96.5891 98.4123 96.8069C97.9752 97.0246 97.5994 97.3478 97.3191 97.747C97.0387 98.1462 96.8625 98.609 96.8065 99.0933C96.7505 99.5776 96.8164 100.068 96.9983 100.521Z" fill="#B97964"/>
<path opacity="0.2" d="M62.6035 151.054C71.4894 147.371 78.5116 132.161 78.5116 132.161L73.4662 129.117L66.6135 134.613L65.9922 136.896C65.0509 140.381 64.1661 144.092 63.3189 147.85C63.0742 148.921 62.8388 149.992 62.6035 151.054Z" fill="black"/>
<path d="M111.543 152.669L126.867 147.052L127.31 148.348L111.976 153.797L111.543 152.669Z" fill="#FF7F00"/>
<path d="M71.8371 191.329L27.4165 184.299L23.0722 211.643L67.4928 218.673L71.8371 191.329Z" fill="#FF9933"/>
<path d="M43.1287 194.71L34.1016 199.379L41.2366 206.603" stroke="white" stroke-width="2" stroke-linecap="round" stroke-linejoin="round"/>
<path d="M51.7515 208.266L60.7692 203.597L53.6435 196.372" stroke="white" stroke-width="2" stroke-linecap="round" stroke-linejoin="round"/>
<path d="M44.3799 207.101L50.4984 195.875" stroke="white" stroke-width="2" stroke-linecap="round" stroke-linejoin="round"/>
<path d="M68.1474 120.606C68.1474 120.606 51.4016 137.375 49.1236 140.635C46.8457 143.895 42.478 180.035 42.478 180.035C42.478 180.035 41.5367 180.355 41.4803 181.135C41.4238 181.914 41.3296 192.06 41.4803 192.53C41.6309 193 49.3307 197.744 50.4697 196.617C51.6087 195.489 53.1901 184 53.1901 184L49.1236 180.035C49.1236 180.035 53.8302 153.421 56.8141 149.109C59.798 144.797 71.9597 135.572 71.9597 135.572L68.1474 120.606Z" fill="#B97964"/>
<path d="M81.0159 113.851C83.4539 119.009 81.5995 129.869 77.1001 133.702C72.3394 137.642 67.3067 141.243 62.0392 144.477L53.8311 133.74C53.8311 133.74 62.5664 125.228 67.8565 120.324C71.4546 116.843 76.058 114.579 81.0159 113.851Z" fill="#FFB266"/>
<path d="M53.8311 133.054L52.8145 134.435L61.3897 145.624L62.604 144.759L53.8311 133.054Z" fill="#FF7F00"/>
<path d="M275.224 186.9L230.249 187.104L230.374 214.789L275.349 214.585L275.224 186.9Z" fill="#407BFF"/>
<path d="M247.502 207.828C247.303 207.829 247.109 207.767 246.947 207.65L238.748 201.666C238.63 201.579 238.533 201.466 238.466 201.336C238.399 201.205 238.363 201.061 238.362 200.914C238.361 200.767 238.394 200.621 238.46 200.489C238.525 200.357 238.621 200.242 238.739 200.153L246.891 194.094C247.092 193.945 247.343 193.883 247.59 193.92C247.838 193.957 248.06 194.09 248.208 194.291C248.357 194.492 248.42 194.743 248.382 194.989C248.345 195.236 248.212 195.458 248.011 195.606L240.885 200.905L248.058 206.128C248.219 206.245 248.339 206.409 248.401 206.598C248.463 206.787 248.462 206.991 248.401 207.18C248.339 207.369 248.219 207.534 248.057 207.65C247.896 207.767 247.702 207.829 247.502 207.828Z" fill="#FAFAFA"/>
<path d="M258.158 207.772C258.01 207.774 257.864 207.74 257.731 207.675C257.599 207.61 257.484 207.514 257.395 207.396C257.321 207.297 257.268 207.184 257.238 207.064C257.208 206.945 257.202 206.82 257.221 206.698C257.239 206.576 257.281 206.458 257.345 206.352C257.409 206.247 257.493 206.154 257.593 206.081L264.719 200.783L257.546 195.559C257.345 195.411 257.211 195.189 257.174 194.943C257.137 194.696 257.2 194.445 257.348 194.244C257.497 194.043 257.719 193.91 257.966 193.873C258.213 193.836 258.465 193.899 258.666 194.047L266.865 200.022C266.985 200.109 267.082 200.224 267.149 200.356C267.216 200.488 267.251 200.634 267.251 200.783C267.251 200.928 267.217 201.072 267.151 201.203C267.086 201.333 266.991 201.447 266.874 201.534L258.722 207.594C258.558 207.712 258.36 207.775 258.158 207.772Z" fill="#FAFAFA"/>
<path d="M250.685 207.819C250.579 207.818 250.474 207.799 250.374 207.763C250.14 207.68 249.948 207.508 249.841 207.284C249.733 207.061 249.719 206.804 249.8 206.57L254.026 194.507C254.067 194.391 254.131 194.283 254.213 194.191C254.295 194.099 254.395 194.024 254.507 193.97C254.618 193.916 254.739 193.885 254.863 193.878C254.986 193.871 255.11 193.889 255.227 193.929C255.343 193.97 255.451 194.033 255.543 194.116C255.636 194.198 255.711 194.297 255.765 194.409C255.818 194.52 255.85 194.641 255.857 194.764C255.864 194.887 255.846 195.011 255.806 195.127L251.579 207.19C251.514 207.374 251.393 207.534 251.233 207.647C251.073 207.76 250.881 207.82 250.685 207.819Z" fill="#FAFAFA"/>
<defs>
<filter id="filter0_d" x="52.6553" y="112.702" width="69.8625" height="82.3032" filterUnits="userSpaceOnUse" color-interpolation-filters="sRGB">
<feFlood flood-opacity="0" result="BackgroundImageFix"/>
<feColorMatrix in="SourceAlpha" type="matrix" values="0 0 0 0 0 0 0 0 0 0 0 0 0 0 0 0 0 0 127 0"/>
<feOffset dy="4"/>
<feGaussianBlur stdDeviation="2"/>
<feColorMatrix type="matrix" values="0 0 0 0 0 0 0 0 0 0 0 0 0 0 0 0 0 0 0.25 0"/>
<feBlend mode="normal" in2="BackgroundImageFix" result="effect1_dropShadow"/>
<feBlend mode="normal" in="SourceGraphic" in2="effect1_dropShadow" result="shape"/>
</filter>
</defs>
</svg>
