<svg width="63" height="62" viewBox="0 0 63 62" fill="none" xmlns="http://www.w3.org/2000/svg">
<path d="M31.8647 38.1053C27.6762 38.1053 24.2686 34.7721 24.2686 30.675C24.2686 26.5779 27.6762 23.2447 31.8647 23.2447C36.0533 23.2447 39.4608 26.5779 39.4608 30.675C39.4608 34.7721 36.0533 38.1053 31.8647 38.1053ZM31.8647 25.028C28.6815 25.028 26.0916 27.5613 26.0916 30.675C26.0916 33.7887 28.6815 36.322 31.8647 36.322C35.0479 36.322 37.6378 33.7887 37.6378 30.675C37.6378 27.5613 35.0479 25.028 31.8647 25.028Z" fill="white"/>
<path d="M7.98242 4.23453L16.5605 10.108L7.98242 15.9815V4.23453ZM9.8055 12.5564L13.3813 10.108L9.8055 7.65959V12.5564Z" fill="white"/>
<path d="M60.1823 13.9717H57.2053V14.9822C57.2053 17.5715 55.0517 19.6782 52.4046 19.6782H51.7604L49.8344 14.3587L44.326 19.7468L45.6095 21.0022L43.9183 24.4824L44.8643 26.7167L48.5761 28.0078V33.3421L44.8643 34.6331L43.9183 36.8675L45.6095 40.3477L44.326 41.6031L46.4785 43.7085C48.2179 42.2895 50.4539 41.434 52.8907 41.434C58.4195 41.434 62.9176 45.834 62.9176 51.242C62.9176 56.6501 58.4195 61.05 52.8907 61.05C47.3619 61.05 42.8638 56.6501 42.8638 51.242C42.8638 48.8584 43.7384 46.6713 45.1892 44.9698L43.0367 42.8643L41.7533 44.1198L38.1954 42.4655L35.9112 43.3909L34.5913 47.0216H29.1379L27.818 43.3909L25.5339 42.4655L21.976 44.1198L20.6925 42.8643L16.0776 47.3783H18.7384C20.5814 47.3783 22.0807 48.8449 22.0807 50.6476V57.7807C22.0807 59.5833 20.5814 61.05 18.7384 61.05H4.15383C2.31082 61.05 0.811523 59.5833 0.811523 57.7807V50.6476C0.811523 48.8449 2.31082 47.3783 4.15383 47.3783H5.91613V43.2265L13.6653 47.2159L19.4032 41.6032L18.1198 40.3478L19.8111 36.8676L18.865 34.6333L15.1531 33.3421V28.0078L18.8648 26.7167L19.811 24.4824L18.1197 21.0022L19.4031 19.7468L17.2507 17.6413C15.5112 19.0603 13.2753 19.9159 10.8384 19.9159C5.30954 19.9159 0.811523 15.516 0.811523 10.108C0.811523 4.69992 5.30954 0.300003 10.8384 0.300003C16.3673 0.300003 20.8654 4.69992 20.8654 10.108C20.8654 12.4916 19.9906 14.6788 18.54 16.3803L20.6924 18.4858L21.9758 17.2303L25.5338 18.8846L27.8178 17.9592L29.1377 14.3285H34.5912L35.9111 17.9592L38.1953 18.8846L41.7532 17.2303L43.0366 18.4858L47.6516 13.9717H45.7807V1.48885H49.2515L51.4392 0.300003H56.8451C58.9682 0.300003 60.8402 1.77203 61.2964 3.8002L62.8532 10.722C63.0321 11.5175 62.8355 12.3379 62.3138 12.9727C61.7919 13.6076 61.0151 13.9717 60.1823 13.9717ZM52.8907 43.2173C50.935 43.2173 49.1378 43.8911 47.7267 45.0126C47.7529 46.8712 48.7996 48.5337 50.4507 49.3959C51.1231 48.8776 51.9702 48.5672 52.8907 48.5672C53.8112 48.5672 54.6584 48.8776 55.3307 49.3959C56.9818 48.5338 58.0285 46.8712 58.0548 45.0126C56.6436 43.891 54.8464 43.2173 52.8907 43.2173ZM50.7638 52.4309V53.6197C50.7638 54.7668 51.718 55.7002 52.8907 55.7002C54.0634 55.7002 55.0176 54.7668 55.0176 53.6197V52.4309C55.0176 51.2837 54.0634 50.3504 52.8907 50.3504C51.718 50.3504 50.7638 51.2836 50.7638 52.4309ZM44.6869 51.242C44.6869 55.6669 48.3671 59.2667 52.8907 59.2667C57.4144 59.2667 61.0946 55.6669 61.0946 51.242C61.0946 49.556 60.5591 47.9906 59.6474 46.6978C59.1852 48.4155 58.0546 49.8928 56.4756 50.8113C56.7093 51.3042 56.8407 51.8526 56.8407 52.4309V53.6197C56.8407 55.7502 55.0688 57.4835 52.8907 57.4835C50.7126 57.4835 48.9407 55.7502 48.9407 53.6197V52.4309C48.9407 51.8527 49.0721 51.3042 49.3058 50.8113C47.7268 49.8928 46.5962 48.4155 46.134 46.6978C45.2224 47.9906 44.6869 49.556 44.6869 51.242ZM13.5301 49.1615L7.73921 46.1803V49.1615H4.15383C3.31606 49.1615 2.6346 49.8281 2.6346 50.6476V57.7807C2.6346 58.6 3.31606 59.2667 4.15383 59.2667H18.7384C19.5762 59.2667 20.2577 58.6001 20.2577 57.7807V50.6476C20.2577 49.8281 19.5762 49.1615 18.7384 49.1615H13.5301ZM19.0423 10.108C19.0423 5.68309 15.3621 2.08327 10.8384 2.08327C6.31478 2.08327 2.6346 5.68309 2.6346 10.108C2.6346 14.5329 6.31478 18.1327 10.8384 18.1327C15.3621 18.1327 19.0423 14.5329 19.0423 10.108ZM43.4106 21.3732L41.374 19.3811L38.2462 20.8354L34.4651 19.3032L33.3047 16.1116H30.4245L29.2641 19.3033L25.4828 20.8355L22.3552 19.3812L20.3186 21.3734L21.8053 24.4328L20.2391 28.1313L16.9761 29.2663V32.0835L20.2391 33.2186L21.8053 36.9171L20.3186 39.9766L22.3552 41.9688L25.4828 40.5145L29.2641 42.0467L30.4245 45.2383H33.3047L34.4651 42.0467L38.2462 40.5145L41.374 41.9688L43.4106 39.9766L41.9238 36.9171L43.4902 33.2186L46.753 32.0835V29.2663L43.4901 28.1312L41.9237 24.4327L43.4106 21.3732ZM61.0724 11.1052L59.5156 4.18325C59.2421 2.96658 58.1189 2.08327 56.845 2.08327H51.9115L49.7238 3.27211H47.6038V12.1885H50.9826L53.0257 17.8312C54.3704 17.5509 55.3822 16.38 55.3822 14.9822V12.1885H60.1823C60.4599 12.1885 60.7189 12.0671 60.8928 11.8555C61.0667 11.6438 61.1322 11.3704 61.0724 11.1052Z" fill="white"/>
<path d="M5.36914 56.7701H17.523V54.9868H5.36914V56.7701Z" fill="white"/>
<path d="M5.36914 53.2036H13.8768V51.4204H5.36914V53.2036Z" fill="white"/>
</svg>
