<svg width="63" height="63" viewBox="0 0 63 63" fill="none" xmlns="http://www.w3.org/2000/svg">
<path d="M7.38281 29.5335H40.6055V33.225H7.38281V29.5335Z" fill="white"/>
<path d="M18.457 36.9164H40.6055V40.6078H18.457V36.9164Z" fill="white"/>
<path d="M7.38281 44.2992H40.6055V47.9906H7.38281V44.2992Z" fill="white"/>
<path d="M0 55.3744H7.38281V62.9986L17.2417 55.3744H47.9883V0.00332642H0V55.3744ZM3.69141 3.69473H44.2969V51.683H15.981L11.0742 55.4775V51.683H3.69141V3.69473Z" fill="white"/>
<path d="M16.6113 8.09018V25.1372L33.6584 16.6136L16.6113 8.09018ZM20.3027 14.063L25.4041 16.6136L20.3027 19.1644V14.063Z" fill="white"/>
<path d="M57.4629 3.69373C54.4097 3.69373 51.9258 6.17767 51.9258 9.23083V29.5336H51.9451C52.2271 43.4021 55.5996 51.9936 55.7493 52.3675L57.4629 56.6517L59.1766 52.3675C59.3262 51.9936 62.6988 43.4021 62.9808 29.5336H63C63 24.7125 63 13.2395 63 9.23083C63 6.17767 60.5161 3.69373 57.4629 3.69373ZM57.4629 44.9847C56.6295 41.2767 55.7775 35.994 55.6376 29.5336H59.288C59.1483 35.994 58.2962 41.2769 57.4629 44.9847ZM55.6172 25.8422V9.23083C55.6172 8.21311 56.4452 7.38513 57.4629 7.38513C58.4806 7.38513 59.3086 8.21311 59.3086 9.23083V25.8422H55.6172Z" fill="white"/>
<path d="M7.38281 36.9164H14.7656V40.6078H7.38281V36.9164Z" fill="white"/>
</svg>
