<svg width="41" height="21" viewBox="0 0 41 21" fill="none" xmlns="http://www.w3.org/2000/svg">
<path d="M1.60152 12.1016L35.5193 12.1016L29.9007 17.693C29.2737 18.317 29.2713 19.331 29.8953 19.9579C30.5193 20.5849 31.5334 20.5873 32.1603 19.9634L40.5288 11.6353C40.5294 11.6348 40.5298 11.6342 40.5302 11.6337C41.1556 11.0098 41.1576 9.99246 40.5304 9.36641C40.5298 9.36593 40.5294 9.36537 40.529 9.36489L32.1605 1.03677C31.5336 0.412963 30.5195 0.415124 29.8955 1.04221C29.2715 1.66915 29.2739 2.68318 29.9008 3.30714L35.5193 8.89851L1.60152 8.89851C0.716973 8.89851 -4.86456e-05 9.61553 -4.87229e-05 10.5001C-4.88002e-05 11.3846 0.716973 12.1016 1.60152 12.1016Z" fill="white"/>
</svg>
